<svg xmlns="http://www.w3.org/2000/svg" version="1.1" width="507" height="768">
<rect x="0" y="0" width="507" height="768" fill="#4d3d1f" />
<g transform="scale(3) translate(0.5 0.5)">
<g transform="translate(122.218018 24.515721) rotate(88.396445) scale(45.881339 143.503078)"><ellipse fill="#d4bc56" fill-opacity="0.5019607843137255" cx="0" cy="0" rx="1" ry="1" /></g>
<g transform="translate(81.153253 122.161993) rotate(155.592589) scale(24.963412 18.390310)"><ellipse fill="#ffff5d" fill-opacity="0.5019607843137255" cx="0" cy="0" rx="1" ry="1" /></g>
<g transform="translate(145.573856 220.706884) rotate(269.640453) scale(88.871332 168.000000)"><ellipse fill="#000000" fill-opacity="0.5019607843137255" cx="0" cy="0" rx="1" ry="1" /></g>
<g transform="translate(64.864248 204.172007) rotate(203.842902) scale(26.432556 11.559569)"><ellipse fill="#ffae32" fill-opacity="0.5019607843137255" cx="0" cy="0" rx="1" ry="1" /></g>
<g transform="translate(106 55) rotate(334) scale(22 75)"><rect fill="#000000" fill-opacity="0.5019607843137255" x="-0.5" y="-0.5" width="1" height="1" /></g>
<ellipse fill="#ffa639" fill-opacity="0.5019607843137255" cx="77" cy="61" rx="16" ry="30" />
<g transform="translate(31.643383 35.331876) rotate(184.837534) scale(28.039971 18.933021)"><ellipse fill="#dec866" fill-opacity="0.5019607843137255" cx="0" cy="0" rx="1" ry="1" /></g>
<ellipse fill="#040005" fill-opacity="0.5019607843137255" cx="147" cy="215" rx="63" ry="92" />
<ellipse fill="#ffc64d" fill-opacity="0.5019607843137255" cx="83" cy="124" rx="19" ry="19" />
<ellipse fill="#a7501c" fill-opacity="0.5019607843137255" cx="73" cy="214" rx="37" ry="12" />
<g transform="translate(120.724584 78.284873) rotate(68.021095) scale(35.123577 23.442910)"><ellipse fill="#171717" fill-opacity="0.5019607843137255" cx="0" cy="0" rx="1" ry="1" /></g>
<g transform="translate(134.354981 35.979867) rotate(209.230478) scale(42.780452 12.892875)"><ellipse fill="#c8b551" fill-opacity="0.5019607843137255" cx="0" cy="0" rx="1" ry="1" /></g>
<g transform="translate(45.331808 127.653871) rotate(24.925418) scale(8.827943 50.010355)"><ellipse fill="#03000c" fill-opacity="0.5019607843137255" cx="0" cy="0" rx="1" ry="1" /></g>
<polygon fill="#170511" fill-opacity="0.5019607843137255" points="80.007743,105.754120 37.901646,86.069152 60.378854,38.700963 61.744070,77.300597" />
<g transform="translate(12.492767 232.565516) rotate(245.204225) scale(163.723012 25.840594)"><ellipse fill="#00000d" fill-opacity="0.5019607843137255" cx="0" cy="0" rx="1" ry="1" /></g>
<g transform="translate(61 201) rotate(25) scale(32 12)"><rect fill="#ffa732" fill-opacity="0.5019607843137255" x="-0.5" y="-0.5" width="1" height="1" /></g>
<polygon fill="#1a0006" fill-opacity="0.5019607843137255" points="70.145758,25.240808 84.172738,21.330096 120.057723,44.970049 67.892903,30.290716" />
<ellipse fill="#000005" fill-opacity="0.5019607843137255" cx="115" cy="250" rx="76" ry="33" />
<g transform="translate(49.812187 218.878485) rotate(120.085293) scale(14.652245 7.513389)"><ellipse fill="#b36522" fill-opacity="0.5019607843137255" cx="0" cy="0" rx="1" ry="1" /></g>
<polygon fill="#2a050b" fill-opacity="0.5019607843137255" points="96.430386,59.410994 104.170781,129.857457 120.257811,49.296545 51.619028,57.571107" />
<polygon fill="#5d3623" fill-opacity="0.5019607843137255" points="79,159 51,131 95,142" />
<g transform="translate(158.935149 121.249482) rotate(208.154313) scale(29.228033 4.745912)"><ellipse fill="#9c841d" fill-opacity="0.5019607843137255" cx="0" cy="0" rx="1" ry="1" /></g>
<polygon fill="#121a1f" fill-opacity="0.5019607843137255" points="-8,191 20,85 -16,42" />
<polygon fill="#ba641f" fill-opacity="0.5019607843137255" points="75.693368,96.916271 102.392584,134.292115 112.215741,131.305481 101.343947,96.600979" />
<rect fill="#ffd056" fill-opacity="0.5019607843137255" x="56" y="119" width="40" height="14" />
<polygon fill="#804c1f" fill-opacity="0.5019607843137255" points="45.692075,120.282726 8.407794,162.616050 4.835570,135.935476 7.300858,114.441601" />
<rect fill="#ffe05e" fill-opacity="0.5019607843137255" x="64" y="36" width="17" height="17" />
<g transform="translate(94.999212 182.953923) rotate(282.376210) scale(18.482821 57.755481)"><ellipse fill="#05020a" fill-opacity="0.5019607843137255" cx="0" cy="0" rx="1" ry="1" /></g>
<polygon fill="#12020d" fill-opacity="0.5019607843137255" points="112,118 98,59 142,125" />
<g transform="translate(118.408397 150.270092) rotate(24.403026) scale(11.888009 11.336756)"><ellipse fill="#503a2a" fill-opacity="0.5019607843137255" cx="0" cy="0" rx="1" ry="1" /></g>
<ellipse fill="#000c04" fill-opacity="0.5019607843137255" cx="167" cy="95" rx="7" ry="26" />
<g transform="translate(29.598140 82.259410) rotate(-27.858977) scale(20.950633 27.822854)"><ellipse fill="#3e4c35" fill-opacity="0.5019607843137255" cx="0" cy="0" rx="1" ry="1" /></g>
<g transform="translate(146.316262 49.525789) rotate(163.833102) scale(8.518002 24.559036)"><ellipse fill="#c5b54b" fill-opacity="0.5019607843137255" cx="0" cy="0" rx="1" ry="1" /></g>
<ellipse fill="#60713d" fill-opacity="0.5019607843137255" cx="114" cy="1" rx="164" ry="7" />
<polygon fill="#dac163" fill-opacity="0.5019607843137255" points="29.750754,37.600234 1.251358,40.685613 49.649091,61.038858 55.041584,40.028084" />
<polygon fill="#552815" fill-opacity="0.5019607843137255" points="124.301898,218.197913 121.660349,200.379497 71.313999,215.103907 88.037518,226.119612" />
<polygon fill="#1f0d0e" fill-opacity="0.5019607843137255" points="28,111 54,128 84,85" />
<polygon fill="#5a3320" fill-opacity="0.5019607843137255" points="29,177 63,214 12,192" />
<g transform="translate(105.961290 48.464256) rotate(347.174064) scale(6.050489 23.794319)"><ellipse fill="#0b0007" fill-opacity="0.5019607843137255" cx="0" cy="0" rx="1" ry="1" /></g>
<polygon fill="#546333" fill-opacity="0.5019607843137255" points="122,88 115,42 158,75" />
<polygon fill="#a59546" fill-opacity="0.5019607843137255" points="145,10 61,13 184,45" />
<polygon fill="#b2651f" fill-opacity="0.5019607843137255" points="94.531311,62.704874 81.319097,32.241858 87.104130,33.622558 102.111239,61.945402" />
<g transform="translate(62 39) rotate(126) scale(24 3)"><rect fill="#2e0005" fill-opacity="0.5019607843137255" x="-0.5" y="-0.5" width="1" height="1" /></g>
<polygon fill="#fcb54a" fill-opacity="0.5019607843137255" points="76,47 72,87 65,69" />
<ellipse fill="#fece55" fill-opacity="0.5019607843137255" cx="82" cy="124" rx="15" ry="15" />
<ellipse fill="#746f36" fill-opacity="0.5019607843137255" cx="20" cy="57" rx="18" ry="8" />
<ellipse fill="#baa456" fill-opacity="0.5019607843137255" cx="128" cy="38" rx="16" ry="14" />
<polygon fill="#532213" fill-opacity="0.5019607843137255" points="146.387458,135.680387 156.081167,127.061762 184.000000,111.700993 159.672646,154.880679" />
<polygon fill="#7d5322" fill-opacity="0.5019607843137255" points="116.901617,120.797307 81.136164,145.442282 127.586617,125.754161 129.032799,118.736674" />
<ellipse fill="#a29447" fill-opacity="0.5019607843137255" cx="40" cy="20" rx="36" ry="9" />
</g>
</svg>