<svg xmlns="http://www.w3.org/2000/svg" version="1.1" width="507" height="768">
<rect x="0" y="0" width="507" height="768" fill="#4d3d1f" />
<g transform="scale(3) translate(0.5 0.5)">
<g transform="translate(122.218018 24.515721) rotate(88.396445) scale(45.881339 143.503078)"><ellipse fill="#d4bc56" fill-opacity="0.5019607843137255" cx="0" cy="0" rx="1" ry="1" /></g>
<g transform="translate(81.153253 122.161993) rotate(155.592589) scale(24.963412 18.390310)"><ellipse fill="#ffff5d" fill-opacity="0.5019607843137255" cx="0" cy="0" rx="1" ry="1" /></g>
<g transform="translate(145.573856 220.706884) rotate(269.640453) scale(88.871332 168.000000)"><ellipse fill="#000000" fill-opacity="0.5019607843137255" cx="0" cy="0" rx="1" ry="1" /></g>
<g transform="translate(64.864248 204.172007) rotate(203.842902) scale(26.432556 11.559569)"><ellipse fill="#ffae32" fill-opacity="0.5019607843137255" cx="0" cy="0" rx="1" ry="1" /></g>
<g transform="translate(106 55) rotate(334) scale(22 75)"><rect fill="#000000" fill-opacity="0.5019607843137255" x="-0.5" y="-0.5" width="1" height="1" /></g>
<ellipse fill="#ffa639" fill-opacity="0.5019607843137255" cx="77" cy="61" rx="16" ry="30" />
<g transform="translate(31.643383 35.331876) rotate(184.837534) scale(28.039971 18.933021)"><ellipse fill="#dec866" fill-opacity="0.5019607843137255" cx="0" cy="0" rx="1" ry="1" /></g>
<ellipse fill="#040005" fill-opacity="0.5019607843137255" cx="147" cy="215" rx="63" ry="92" />
<ellipse fill="#ffc64d" fill-opacity="0.5019607843137255" cx="83" cy="124" rx="19" ry="19" />
<ellipse fill="#a7501c" fill-opacity="0.5019607843137255" cx="73" cy="214" rx="37" ry="12" />
<g transform="translate(120.724584 78.284873) rotate(68.021095) scale(35.123577 23.442910)"><ellipse fill="#171717" fill-opacity="0.5019607843137255" cx="0" cy="0" rx="1" ry="1" /></g>
<g transform="translate(134.354981 35.979867) rotate(209.230478) scale(42.780452 12.892875)"><ellipse fill="#c8b551" fill-opacity="0.5019607843137255" cx="0" cy="0" rx="1" ry="1" /></g>
<g transform="translate(45.331808 127.653871) rotate(24.925418) scale(8.827943 50.010355)"><ellipse fill="#03000c" fill-opacity="0.5019607843137255" cx="0" cy="0" rx="1" ry="1" /></g>
<polygon fill="#170511" fill-opacity="0.5019607843137255" points="80.007743,105.754120 37.901646,86.069152 60.378854,38.700963 61.744070,77.300597" />
<g transform="translate(12.492767 232.565516) rotate(245.204225) scale(163.723012 25.840594)"><ellipse fill="#00000d" fill-opacity="0.5019607843137255" cx="0" cy="0" rx="1" ry="1" /></g>
<g transform="translate(61 201) rotate(25) scale(32 12)"><rect fill="#ffa732" fill-opacity="0.5019607843137255" x="-0.5" y="-0.5" width="1" height="1" /></g>
<polygon fill="#1a0006" fill-opacity="0.5019607843137255" points="70.145758,25.240808 84.172738,21.330096 120.057723,44.970049 67.892903,30.290716" />
<ellipse fill="#000005" fill-opacity="0.5019607843137255" cx="115" cy="250" rx="76" ry="33" />
<g transform="translate(49.812187 218.878485) rotate(120.085293) scale(14.652245 7.513389)"><ellipse fill="#b36522" fill-opacity="0.5019607843137255" cx="0" cy="0" rx="1" ry="1" /></g>
<polygon fill="#2a050b" fill-opacity="0.5019607843137255" points="96.430386,59.410994 104.170781,129.857457 120.257811,49.296545 51.619028,57.571107" />
<polygon fill="#5d3623" fill-opacity="0.5019607843137255" points="79,159 51,131 95,142" />
<g transform="translate(158.935149 121.249482) rotate(208.154313) scale(29.228033 4.745912)"><ellipse fill="#9c841d" fill-opacity="0.5019607843137255" cx="0" cy="0" rx="1" ry="1" /></g>
<polygon fill="#121a1f" fill-opacity="0.5019607843137255" points="-8,191 20,85 -16,42" />
<polygon fill="#ba641f" fill-opacity="0.5019607843137255" points="75.693368,96.916271 102.392584,134.292115 112.215741,131.305481 101.343947,96.600979" />
<rect fill="#ffd056" fill-opacity="0.5019607843137255" x="56" y="119" width="40" height="14" />
<polygon fill="#804c1f" fill-opacity="0.5019607843137255" points="45.692075,120.282726 8.407794,162.616050 4.835570,135.935476 7.300858,114.441601" />
<rect fill="#ffe05e" fill-opacity="0.5019607843137255" x="64" y="36" width="17" height="17" />
<g transform="translate(94.999212 182.953923) rotate(282.376210) scale(18.482821 57.755481)"><ellipse fill="#05020a" fill-opacity="0.5019607843137255" cx="0" cy="0" rx="1" ry="1" /></g>
<polygon fill="#12020d" fill-opacity="0.5019607843137255" points="112,118 98,59 142,125" />
<g transform="translate(118.408397 150.270092) rotate(24.403026) scale(11.888009 11.336756)"><ellipse fill="#503a2a" fill-opacity="0.5019607843137255" cx="0" cy="0" rx="1" ry="1" /></g>
<ellipse fill="#000c04" fill-opacity="0.5019607843137255" cx="167" cy="95" rx="7" ry="26" />
<g transform="translate(29.598140 82.259410) rotate(-27.858977) scale(20.950633 27.822854)"><ellipse fill="#3e4c35" fill-opacity="0.5019607843137255" cx="0" cy="0" rx="1" ry="1" /></g>
<g transform="translate(146.316262 49.525789) rotate(163.833102) scale(8.518002 24.559036)"><ellipse fill="#c5b54b" fill-opacity="0.5019607843137255" cx="0" cy="0" rx="1" ry="1" /></g>
<ellipse fill="#60713d" fill-opacity="0.5019607843137255" cx="114" cy="1" rx="164" ry="7" />
<polygon fill="#dac163" fill-opacity="0.5019607843137255" points="29.750754,37.600234 1.251358,40.685613 49.649091,61.038858 55.041584,40.028084" />
<polygon fill="#552815" fill-opacity="0.5019607843137255" points="124.301898,218.197913 121.660349,200.379497 71.313999,215.103907 88.037518,226.119612" />
<polygon fill="#1f0d0e" fill-opacity="0.5019607843137255" points="28,111 54,128 84,85" />
<polygon fill="#5a3320" fill-opacity="0.5019607843137255" points="29,177 63,214 12,192" />
<g transform="translate(105.961290 48.464256) rotate(347.174064) scale(6.050489 23.794319)"><ellipse fill="#0b0007" fill-opacity="0.5019607843137255" cx="0" cy="0" rx="1" ry="1" /></g>
<polygon fill="#546333" fill-opacity="0.5019607843137255" points="122,88 115,42 158,75" />
<polygon fill="#a59546" fill-opacity="0.5019607843137255" points="145,10 61,13 184,45" />
<polygon fill="#b2651f" fill-opacity="0.5019607843137255" points="94.531311,62.704874 81.319097,32.241858 87.104130,33.622558 102.111239,61.945402" />
<g transform="translate(62 39) rotate(126) scale(24 3)"><rect fill="#2e0005" fill-opacity="0.5019607843137255" x="-0.5" y="-0.5" width="1" height="1" /></g>
<polygon fill="#fcb54a" fill-opacity="0.5019607843137255" points="76,47 72,87 65,69" />
<ellipse fill="#fece55" fill-opacity="0.5019607843137255" cx="82" cy="124" rx="15" ry="15" />
<ellipse fill="#746f36" fill-opacity="0.5019607843137255" cx="20" cy="57" rx="18" ry="8" />
<ellipse fill="#baa456" fill-opacity="0.5019607843137255" cx="128" cy="38" rx="16" ry="14" />
<polygon fill="#532213" fill-opacity="0.5019607843137255" points="146.387458,135.680387 156.081167,127.061762 184.000000,111.700993 159.672646,154.880679" />
<polygon fill="#7d5322" fill-opacity="0.5019607843137255" points="116.901617,120.797307 81.136164,145.442282 127.586617,125.754161 129.032799,118.736674" />
<ellipse fill="#a29447" fill-opacity="0.5019607843137255" cx="40" cy="20" rx="36" ry="9" />
<polygon fill="#05030d" fill-opacity="0.5019607843137255" points="52.539554,206.466166 17.837345,225.811126 7.964466,271.000000 -16.000000,193.893919" />
<polygon fill="#1e0811" fill-opacity="0.5019607843137255" points="90.234659,98.776419 133.072736,71.508428 115.534685,81.868928 64.074195,92.462116" />
<polygon fill="#b46527" fill-opacity="0.5019607843137255" points="55.554109,120.094398 50.824088,139.879116 85.996742,91.872874 63.272712,116.025152" />
<g transform="translate(84 213) rotate(309) scale(1 23)"><rect fill="#000008" fill-opacity="0.5019607843137255" x="-0.5" y="-0.5" width="1" height="1" /></g>
<polygon fill="#5e6147" fill-opacity="0.5019607843137255" points="50,86 54,101 1,104" />
<polygon fill="#867524" fill-opacity="0.5019607843137255" points="139.587510,122.872508 158.982247,98.948389 129.515802,98.618010 144.267264,101.959841" />
<rect fill="#5f6419" fill-opacity="0.5019607843137255" x="162" y="50" width="7" height="21" />
<polygon fill="#f2982c" fill-opacity="0.5019607843137255" points="60.895941,206.693299 50.153248,190.699177 89.663627,212.002333 81.822837,199.017564" />
<polygon fill="#825121" fill-opacity="0.5019607843137255" points="24,160 31,101 3,160" />
<g transform="translate(151 86) rotate(10) scale(69 21)"><rect fill="#27301c" fill-opacity="0.5019607843137255" x="-0.5" y="-0.5" width="1" height="1" /></g>
<g transform="translate(154.106943 213.238932) rotate(78.951609) scale(50.537956 20.569063)"><ellipse fill="#020003" fill-opacity="0.5019607843137255" cx="0" cy="0" rx="1" ry="1" /></g>
<polygon fill="#ffba44" fill-opacity="0.5019607843137255" points="94,60 79,64 84,75" />
<polygon fill="#72391b" fill-opacity="0.5019607843137255" points="86.309948,100.395445 76.986304,57.121014 73.077565,75.351816 87.205212,97.189773" />
<polygon fill="#5b2913" fill-opacity="0.5019607843137255" points="70.258886,53.533316 49.757958,55.451421 69.195628,61.914773 72.043368,61.332998" />
<polygon fill="#150f14" fill-opacity="0.5019607843137255" points="18,183 31,136 106,165" />
<polygon fill="#d88528" fill-opacity="0.5019607843137255" points="63.226459,193.798179 42.902688,192.355614 70.370874,209.202819 96.075817,230.111919" />
<polygon fill="#331d17" fill-opacity="0.5019607843137255" points="-16.000000,142.945818 11.771070,154.997586 -15.624820,97.729574 27.192102,128.438968" />
<polygon fill="#28261c" fill-opacity="0.5019607843137255" points="61.253186,71.730434 17.872607,100.999765 -10.508857,105.198097 60.527482,57.240608" />
<polygon fill="#511d15" fill-opacity="0.5019607843137255" points="118.440794,119.564257 99.561612,128.994762 105.538098,99.631670 89.849646,88.645809" />
<g transform="translate(102 151) rotate(324) scale(52 18)"><rect fill="#130c12" fill-opacity="0.5019607843137255" x="-0.5" y="-0.5" width="1" height="1" /></g>
<polygon fill="#d1b860" fill-opacity="0.5019607843137255" points="67.841645,21.700499 50.429600,53.943595 38.210810,62.923897 40.223233,47.524973" />
<polygon fill="#ab5a18" fill-opacity="0.5019607843137255" points="71,206 42,197 79,224" />
<polygon fill="#613e21" fill-opacity="0.5019607843137255" points="66,151 101,141 57,134" />
<polygon fill="#c47825" fill-opacity="0.5019607843137255" points="46,234 56,220 49,209" />
<polygon fill="#12080a" fill-opacity="0.5019607843137255" points="108.374086,211.129421 109.098291,271.000000 54.229463,209.457825 67.677722,245.191458" />
<rect fill="#8f8c3a" fill-opacity="0.5019607843137255" x="122" y="67" width="44" height="3" />
<polygon fill="#4f3823" fill-opacity="0.5019607843137255" points="137.705834,150.417937 120.150884,158.272262 105.471453,127.802101 105.262367,134.474752" />
<polygon fill="#e3952e" fill-opacity="0.5019607843137255" points="46.135599,189.939553 42.265186,197.615769 91.335012,210.124764 72.650472,196.082195" />
<polygon fill="#643b18" fill-opacity="0.5019607843137255" points="111,216 124,203 89,205" />
<rect fill="#e8a945" fill-opacity="0.5019607843137255" x="61" y="62" width="26" height="10" />
<polygon fill="#e1a138" fill-opacity="0.5019607843137255" points="79.686416,99.664915 95.683338,126.898486 98.637103,101.967466 58.826259,123.412303" />
<polygon fill="#1d080f" fill-opacity="0.5019607843137255" points="115.669543,51.516214 111.174283,34.324075 86.786950,20.074252 118.973406,102.991764" />
<polygon fill="#1f030c" fill-opacity="0.5019607843137255" points="54,65 59,45 61,84" />
<rect fill="#733b1a" fill-opacity="0.5019607843137255" x="76" y="55" width="4" height="28" />
<polygon fill="#10050d" fill-opacity="0.5019607843137255" points="157,144 143,120 106,133" />
<polygon fill="#200414" fill-opacity="0.5019607843137255" points="0.958122,160.952086 -16.000000,134.478144 20.346104,148.511766 4.011768,152.499227" />
<polygon fill="#1b1e16" fill-opacity="0.5019607843137255" points="-16.000000,90.052791 66.833426,110.205239 35.607722,114.961572 -13.479878,58.441171" />
<polygon fill="#9d5720" fill-opacity="0.5019607843137255" points="100.163576,53.739874 90.010687,86.847079 74.235554,90.148871 93.413466,63.013655" />
<polygon fill="#9a8a45" fill-opacity="0.5019607843137255" points="66.129794,16.335363 123.139534,29.222991 148.817687,25.685954 116.930708,2.971326" />
<polygon fill="#444923" fill-opacity="0.5019607843137255" points="139.284902,106.403405 119.551842,96.731851 159.088619,64.468911 131.259086,122.586536" />
<polygon fill="#7b6a1e" fill-opacity="0.5019607843137255" points="163.725738,112.797086 167.073773,131.852771 136.027837,115.938878 141.037226,106.977833" />
<polygon fill="#ad7d2c" fill-opacity="0.5019607843137255" points="108,130 132,123 117,123" />
<ellipse fill="#ffcf56" fill-opacity="0.5019607843137255" cx="75" cy="86" rx="3" ry="3" />
<polygon fill="#948e2c" fill-opacity="0.5019607843137255" points="17,119 38,129 23,116" />
<polygon fill="#763d1d" fill-opacity="0.5019607843137255" points="48.898847,233.261922 45.755397,212.333824 37.747089,213.704099 35.019271,224.216766" />
<polygon fill="#fac34c" fill-opacity="0.5019607843137255" points="70,34 87,38 73,60" />
<rect fill="#565830" fill-opacity="0.5019607843137255" x="0" y="61" width="55" height="6" />
<rect fill="#6f4924" fill-opacity="0.5019607843137255" x="20" y="188" width="23" height="6" />
<polygon fill="#baac57" fill-opacity="0.5019607843137255" points="8,48 28,28 -6,42" />
<polygon fill="#4c1e13" fill-opacity="0.5019607843137255" points="157.057739,136.488666 146.368105,128.673935 170.021049,163.947856 156.431374,161.540855" />
<g transform="translate(93 56) rotate(163) scale(19 2)"><rect fill="#260e0e" fill-opacity="0.5019607843137255" x="-0.5" y="-0.5" width="1" height="1" /></g>
<polygon fill="#32080f" fill-opacity="0.5019607843137255" points="62,32 72,23 87,22" />
<polygon fill="#150e11" fill-opacity="0.5019607843137255" points="76.031450,105.258491 73.046106,85.939699 -16.000000,248.029362 45.683425,110.315919" />
<g transform="translate(4.581790 53.531830) rotate(40.351030) scale(34.119914 3.725858)"><ellipse fill="#5e6136" fill-opacity="0.5019607843137255" cx="0" cy="0" rx="1" ry="1" /></g>
<ellipse fill="#906c23" fill-opacity="0.5019607843137255" cx="15" cy="156" rx="9" ry="5" />
<polygon fill="#c4af49" fill-opacity="0.5019607843137255" points="161.113769,47.291929 141.953428,74.120571 143.273715,67.512652 137.379187,30.401633" />
<g transform="translate(79 219) rotate(218) scale(21 1)"><rect fill="#0f0007" fill-opacity="0.5019607843137255" x="-0.5" y="-0.5" width="1" height="1" /></g>
<rect fill="#f1c953" fill-opacity="0.5019607843137255" x="64" y="112" width="26" height="23" />
<g transform="translate(131 54) rotate(383) scale(18 6)"><rect fill="#70783a" fill-opacity="0.5019607843137255" x="-0.5" y="-0.5" width="1" height="1" /></g>
<polygon fill="#a48f25" fill-opacity="0.5019607843137255" points="179.990639,26.365489 155.831112,20.977428 157.329197,69.111535 157.514151,68.408826" />
<polygon fill="#516c34" fill-opacity="0.5019607843137255" points="96.288020,0.235700 167.141738,-16.000000 165.678868,28.110141 175.001608,2.053972" />
<polygon fill="#100a0b" fill-opacity="0.5019607843137255" points="91.099625,208.333070 51.702673,173.442882 37.532504,197.073943 118.050487,144.235020" />
<polygon fill="#575328" fill-opacity="0.5019607843137255" points="32,105 33,125 5,104" />
<polygon fill="#e5a339" fill-opacity="0.5019607843137255" points="43.027455,196.534336 45.518349,198.759927 73.313430,195.564788 50.240900,189.466624" />
<g transform="translate(0 16) rotate(97) scale(71 3)"><rect fill="#505c31" fill-opacity="0.5019607843137255" x="-0.5" y="-0.5" width="1" height="1" /></g>
<rect fill="#070309" fill-opacity="0.5019607843137255" x="0" y="237" width="146" height="19" />
<polygon fill="#221412" fill-opacity="0.5019607843137255" points="142.673892,108.955833 103.281948,90.406549 115.693634,122.580333 146.069356,98.736662" />
<polygon fill="#331617" fill-opacity="0.5019607843137255" points="61.318801,225.158982 104.748552,224.390279 42.780856,237.169223 51.024898,226.628320" />
<polygon fill="#72291c" fill-opacity="0.5019607843137255" points="1,131 10,153 29,150" />
<polygon fill="#c67926" fill-opacity="0.5019607843137255" points="92.101014,52.154107 97.711352,50.482249 94.826187,44.992453 72.507525,54.820772" />
<polygon fill="#170e11" fill-opacity="0.5019607843137255" points="124,73 97,88 98,53" />
<polygon fill="#32291f" fill-opacity="0.5019607843137255" points="45.933090,151.356869 49.564932,128.809465 85.305548,169.587071 81.200265,147.891067" />
<polygon fill="#6a391e" fill-opacity="0.5019607843137255" points="116,103 110,118 110,105" />
<ellipse fill="#331512" fill-opacity="0.5019607843137255" cx="76" cy="74" rx="3" ry="3" />
<polygon fill="#a99648" fill-opacity="0.5019607843137255" points="53.223681,33.687439 94.073365,12.944703 47.995442,18.654363 -16.000000,28.016639" />
<polygon fill="#1e0e0e" fill-opacity="0.5019607843137255" points="92.995482,216.402755 80.377156,208.146209 91.012798,222.648908 164.805371,222.592446" />
<polygon fill="#c8af55" fill-opacity="0.5019607843137255" points="54.195118,42.935607 -1.557520,45.253571 38.544800,33.558050 50.759063,65.561841" />
<polygon fill="#7e3d14" fill-opacity="0.5019607843137255" points="104.823345,206.064298 82.764693,219.685889 92.108733,228.105715 88.985202,206.376136" />
<rect fill="#703114" fill-opacity="0.5019607843137255" x="67" y="78" width="14" height="2" />
<polygon fill="#13090c" fill-opacity="0.5019607843137255" points="124.890871,242.622160 155.966930,122.975178 159.605810,126.412645 114.045973,171.586403" />
<polygon fill="#b5782a" fill-opacity="0.5019607843137255" points="75.638393,96.165579 102.342795,105.243489 72.529866,111.297750 79.585035,94.490902" />
<polygon fill="#e7ac3b" fill-opacity="0.5019607843137255" points="97.999184,106.687174 75.111592,106.621140 80.630058,121.209930 98.635976,133.156987" />
<ellipse fill="#131e1d" fill-opacity="0.5019607843137255" cx="0" cy="82" rx="4" ry="30" />
<polygon fill="#060a12" fill-opacity="0.5019607843137255" points="-2,109 5,156 -10,150" />
<polygon fill="#523821" fill-opacity="0.5019607843137255" points="136,143 110,167 121,147" />
<polygon fill="#d67f25" fill-opacity="0.5019607843137255" points="68,33 62,46 63,39" />
<polygon fill="#6f6e4d" fill-opacity="0.5019607843137255" points="46,103 36,96 49,90" />
<g transform="translate(29 132) rotate(341) scale(13 2)"><rect fill="#9c842a" fill-opacity="0.5019607843137255" x="-0.5" y="-0.5" width="1" height="1" /></g>
<g transform="translate(71 214) rotate(322) scale(1 23)"><rect fill="#ca731e" fill-opacity="0.5019607843137255" x="-0.5" y="-0.5" width="1" height="1" /></g>
<polygon fill="#30211a" fill-opacity="0.5019607843137255" points="32.724213,205.285469 29.598858,158.414120 44.970572,171.005700 15.670947,204.260979" />
<polygon fill="#0d0909" fill-opacity="0.5019607843137255" points="61,187 101,140 96,206" />
<g transform="translate(27 189) rotate(229) scale(1 7)"><rect fill="#c28738" fill-opacity="0.5019607843137255" x="-0.5" y="-0.5" width="1" height="1" /></g>
<g transform="translate(16.104172 139.377681) rotate(200.654382) scale(11.199752 5.222472)"><ellipse fill="#8e4b1f" fill-opacity="0.5019607843137255" cx="0" cy="0" rx="1" ry="1" /></g>
<rect fill="#c6b05d" fill-opacity="0.5019607843137255" x="114" y="36" width="22" height="8" />
<polygon fill="#242814" fill-opacity="0.5019607843137255" points="156.969497,70.313460 161.979526,98.336460 135.580825,96.173703 184.000000,79.761877" />
<rect fill="#41391e" fill-opacity="0.5019607843137255" x="32" y="116" width="15" height="6" />
<polygon fill="#411d13" fill-opacity="0.5019607843137255" points="124.825654,204.466032 79.009711,219.456406 118.201309,213.908315 134.366625,217.362941" />
<polygon fill="#95822a" fill-opacity="0.5019607843137255" points="141,117 136,109 149,107" />
<polygon fill="#0d0a0f" fill-opacity="0.5019607843137255" points="43.765055,223.988783 44.623369,248.380004 -16.000000,129.062859 8.545815,263.061572" />
<polygon fill="#ab9547" fill-opacity="0.5019607843137255" points="159,24 125,37 84,15" />
<polygon fill="#6a632c" fill-opacity="0.5019607843137255" points="127.907688,97.930366 139.676508,103.763232 145.690625,101.671161 153.744613,99.997592" />
<ellipse fill="#857b3a" fill-opacity="0.5019607843137255" cx="88" cy="7" rx="85" ry="5" />
<polygon fill="#eeb846" fill-opacity="0.5019607843137255" points="58.707714,132.599604 54.533808,125.680494 73.972213,122.098705 76.315435,138.571700" />
<polygon fill="#b57925" fill-opacity="0.5019607843137255" points="48,210 55,215 40,222" />
<polygon fill="#5f2b1b" fill-opacity="0.5019607843137255" points="63.033321,121.854425 58.769603,110.932594 48.296485,138.921430 55.701498,123.160841" />
<g transform="translate(74 106) rotate(147) scale(22 1)"><rect fill="#9f6123" fill-opacity="0.5019607843137255" x="-0.5" y="-0.5" width="1" height="1" /></g>
<g transform="translate(7 171) rotate(219) scale(5 17)"><rect fill="#392a20" fill-opacity="0.5019607843137255" x="-0.5" y="-0.5" width="1" height="1" /></g>
<g transform="translate(30 194) rotate(45) scale(1 17)"><rect fill="#815529" fill-opacity="0.5019607843137255" x="-0.5" y="-0.5" width="1" height="1" /></g>
<ellipse fill="#987d23" fill-opacity="0.5019607843137255" cx="154" cy="120" rx="13" ry="2" />
<polygon fill="#0b0005" fill-opacity="0.5019607843137255" points="74,91 64,83 73,103" />
<polygon fill="#68361d" fill-opacity="0.5019607843137255" points="90.390899,89.643685 74.754177,92.237879 85.794234,84.395191 102.325662,51.082354" />
<g transform="translate(105.993826 136.115754) rotate(65.164225) scale(2.355470 27.137708)"><ellipse fill="#463120" fill-opacity="0.5019607843137255" cx="0" cy="0" rx="1" ry="1" /></g>
<polygon fill="#cb8832" fill-opacity="0.5019607843137255" points="82.553922,76.810670 67.458756,45.166009 85.789269,79.562136 100.155664,50.432401" />
<polygon fill="#3c3d25" fill-opacity="0.5019607843137255" points="38,93 28,63 48,62" />
<g transform="translate(125.579515 104.573087) rotate(274.917788) scale(3.668031 19.940490)"><ellipse fill="#201912" fill-opacity="0.5019607843137255" cx="0" cy="0" rx="1" ry="1" /></g>
<polygon fill="#211212" fill-opacity="0.5019607843137255" points="68.673076,217.089656 82.204999,232.619928 90.830593,226.335692 65.767189,241.453635" />
<polygon fill="#46361e" fill-opacity="0.5019607843137255" points="0.619138,133.308349 7.072259,108.393154 25.743901,132.329076 34.037789,129.936738" />
<path stroke="#8a4c18" stroke-opacity="0.5019607843137255" fill="none" d="M 62.271403 195.652726 Q 85.648872 203.050558, 118.186817 211.633362" stroke-width="0.500000" />
<polygon fill="#d3b85e" fill-opacity="0.5019607843137255" points="14.262093,39.401001 16.951312,51.223733 20.686145,53.879870 40.678000,43.060744" />
<polygon fill="#723e1e" fill-opacity="0.5019607843137255" points="72,138 54,130 52,139" />
<polygon fill="#260c0e" fill-opacity="0.5019607843137255" points="69,57 58,55 64,58" />
<polygon fill="#7d3a16" fill-opacity="0.5019607843137255" points="76.128046,210.448866 58.548493,224.116823 51.699095,229.670697 59.941088,213.586149" />
<polygon fill="#5c7e4f" fill-opacity="0.5019607843137255" points="37,-10 69,4 101,-1" />
<polygon fill="#0f0a10" fill-opacity="0.5019607843137255" points="49.305889,190.218802 26.583578,175.281881 73.492222,180.806789 56.711258,186.882385" />
<polygon fill="#d9bf63" fill-opacity="0.5019607843137255" points="51.981458,47.100724 41.268487,47.926604 9.494747,37.523475 48.663820,58.643255" />
<rect fill="#a16a29" fill-opacity="0.5019607843137255" x="13" y="141" width="15" height="3" />
<polygon fill="#2d241a" fill-opacity="0.5019607843137255" points="81,165 68,178 78,147" />
<ellipse fill="#fcc34a" fill-opacity="0.5019607843137255" cx="49" cy="193" rx="4" ry="4" />
<polygon fill="#d18a2d" fill-opacity="0.5019607843137255" points="67,59 65,57 60,61" />
<ellipse fill="#f1dd68" fill-opacity="0.5019607843137255" cx="82" cy="130" rx="7" ry="7" />
<polygon fill="#0d090d" fill-opacity="0.5019607843137255" points="40.819219,210.542379 56.101375,208.923415 16.150482,204.108152 -1.865590,271.000000" />
<g transform="translate(99.131224 135.234094) rotate(141.886313) scale(17.268472 1.758612)"><ellipse fill="#6d4f1f" fill-opacity="0.5019607843137255" cx="0" cy="0" rx="1" ry="1" /></g>
<polygon fill="#454e27" fill-opacity="0.5019607843137255" points="138.473381,58.284709 136.454143,54.899065 123.563884,66.062178 141.785747,66.164862" />
<polygon fill="#828b44" fill-opacity="0.5019607843137255" points="136,69 144,66 153,71" />
<polygon fill="#8d7220" fill-opacity="0.5019607843137255" points="184,126 168,131 158,127" />
<polygon fill="#68301a" fill-opacity="0.5019607843137255" points="68.758238,33.740754 60.729375,38.763474 77.225834,22.405097 80.120138,31.845203" />
<rect fill="#100906" fill-opacity="0.5019607843137255" x="168" y="65" width="1" height="131" />
<ellipse fill="#813f11" fill-opacity="0.5019607843137255" cx="88" cy="60" rx="2" ry="2" />
<g transform="translate(87.951380 25.960987) rotate(99.528385) scale(3.455837 12.677518)"><ellipse fill="#371012" fill-opacity="0.5019607843137255" cx="0" cy="0" rx="1" ry="1" /></g>
<polygon fill="#706836" fill-opacity="0.5019607843137255" points="-2,67 39,55 14,54" />
<g transform="translate(44.120302 213.375465) rotate(79.377319) scale(1.881119 4.628389)"><ellipse fill="#a06421" fill-opacity="0.5019607843137255" cx="0" cy="0" rx="1" ry="1" /></g>
<polygon fill="#7b6f1f" fill-opacity="0.5019607843137255" points="182,11 162,5 175,65" />
<g transform="translate(61 40) rotate(20) scale(1 12)"><rect fill="#18090d" fill-opacity="0.5019607843137255" x="-0.5" y="-0.5" width="1" height="1" /></g>
<polygon fill="#1f0e13" fill-opacity="0.5019607843137255" points="81.201239,96.772423 96.476219,90.676982 150.580866,133.216258 97.199104,78.026797" />
<polygon fill="#7f7337" fill-opacity="0.5019607843137255" points="125.855471,48.915518 133.925511,55.830692 115.923600,51.567321 114.688809,44.001836" />
<polygon fill="#9b924b" fill-opacity="0.5019607843137255" points="39.119464,9.745769 3.604496,10.879433 3.499867,24.668978 2.018847,38.816709" />
<polygon fill="#4b5443" fill-opacity="0.5019607843137255" points="21.979437,99.327524 3.131538,105.998713 7.049184,110.533837 41.342127,95.484851" />
<polygon fill="#bd7533" fill-opacity="0.5019607843137255" points="74.135679,90.294695 59.838496,59.099838 63.983278,79.683519 65.118568,81.704217" />
<ellipse fill="#3a7a4f" fill-opacity="0.5019607843137255" cx="159" cy="0" rx="15" ry="2" />
<ellipse fill="#9c7a1f" fill-opacity="0.5019607843137255" cx="149" cy="104" rx="3" ry="5" />
</g>
</svg>