<svg xmlns="http://www.w3.org/2000/svg" version="1.1" width="507" height="768">
<rect x="0" y="0" width="507" height="768" fill="#4d3d1f" />
<g transform="scale(3) translate(0.5 0.5)">
<ellipse fill="#c6ac50" fill-opacity="0.5019607843137255" cx="87" cy="0" rx="88" ry="88" />
<ellipse fill="#ffff60" fill-opacity="0.5019607843137255" cx="82" cy="122" rx="21" ry="21" />
<ellipse fill="#000000" fill-opacity="0.5019607843137255" cx="85" cy="236" rx="100" ry="100" />
<ellipse fill="#ff972e" fill-opacity="0.5019607843137255" cx="59" cy="208" rx="20" ry="20" />
<ellipse fill="#000007" fill-opacity="0.5019607843137255" cx="115" cy="73" rx="26" ry="26" />
<ellipse fill="#cfc060" fill-opacity="0.5019607843137255" cx="27" cy="36" rx="29" ry="29" />
<ellipse fill="#c0b54d" fill-opacity="0.5019607843137255" cx="144" cy="42" rx="30" ry="30" />
<ellipse fill="#000005" fill-opacity="0.5019607843137255" cx="137" cy="169" rx="46" ry="46" />
<ellipse fill="#000000" fill-opacity="0.5019607843137255" cx="100" cy="41" rx="13" ry="13" />
<ellipse fill="#262922" fill-opacity="0.5019607843137255" cx="31" cy="91" rx="38" ry="38" />
<ellipse fill="#ffca51" fill-opacity="0.5019607843137255" cx="77" cy="125" rx="19" ry="19" />
<ellipse fill="#ffa536" fill-opacity="0.5019607843137255" cx="78" cy="54" rx="19" ry="19" />
<ellipse fill="#000000" fill-opacity="0.5019607843137255" cx="138" cy="255" rx="53" ry="53" />
<ellipse fill="#dc6f1e" fill-opacity="0.5019607843137255" cx="78" cy="211" rx="12" ry="12" />
<ellipse fill="#1f1b18" fill-opacity="0.5019607843137255" cx="120" cy="82" rx="29" ry="29" />
<ellipse fill="#000000" fill-opacity="0.5019607843137255" cx="86" cy="28" rx="8" ry="8" />
<ellipse fill="#0d010e" fill-opacity="0.5019607843137255" cx="34" cy="236" rx="36" ry="36" />
<ellipse fill="#d57d26" fill-opacity="0.5019607843137255" cx="46" cy="219" rx="10" ry="10" />
<ellipse fill="#fcac38" fill-opacity="0.5019607843137255" cx="53" cy="198" rx="10" ry="10" />
<ellipse fill="#ffdb58" fill-opacity="0.5019607843137255" cx="75" cy="43" rx="11" ry="11" />
<ellipse fill="#110a10" fill-opacity="0.5019607843137255" cx="82" cy="168" rx="30" ry="30" />
<ellipse fill="#1b0007" fill-opacity="0.5019607843137255" cx="58" cy="56" rx="7" ry="7" />
<ellipse fill="#f49e33" fill-opacity="0.5019607843137255" cx="88" cy="112" rx="15" ry="15" />
<ellipse fill="#0a0004" fill-opacity="0.5019607843137255" cx="65" cy="98" rx="12" ry="12" />
<ellipse fill="#c3732a" fill-opacity="0.5019607843137255" cx="78" cy="69" rx="18" ry="18" />
<ellipse fill="#060112" fill-opacity="0.5019607843137255" cx="42" cy="143" rx="14" ry="14" />
<ellipse fill="#e6c864" fill-opacity="0.5019607843137255" cx="43" cy="50" rx="11" ry="11" />
<ellipse fill="#1d0006" fill-opacity="0.5019607843137255" cx="103" cy="51" rx="13" ry="13" />
<ellipse fill="#13010c" fill-opacity="0.5019607843137255" cx="52" cy="74" rx="11" ry="11" />
<ellipse fill="#815220" fill-opacity="0.5019607843137255" cx="19" cy="128" rx="17" ry="17" />
<ellipse fill="#ffc446" fill-opacity="0.5019607843137255" cx="61" cy="127" rx="7" ry="7" />
<ellipse fill="#090002" fill-opacity="0.5019607843137255" cx="97" cy="32" rx="8" ry="8" />
<ellipse fill="#89791c" fill-opacity="0.5019607843137255" cx="150" cy="112" rx="12" ry="12" />
<ellipse fill="#543a29" fill-opacity="0.5019607843137255" cx="119" cy="151" rx="12" ry="12" />
<ellipse fill="#ffa42b" fill-opacity="0.5019607843137255" cx="67" cy="201" rx="8" ry="8" />
<ellipse fill="#050008" fill-opacity="0.5019607843137255" cx="74" cy="247" rx="27" ry="27" />
<ellipse fill="#624026" fill-opacity="0.5019607843137255" cx="68" cy="145" rx="10" ry="10" />
<ellipse fill="#ffdc5e" fill-opacity="0.5019607843137255" cx="78" cy="124" rx="14" ry="14" />
<ellipse fill="#75371d" fill-opacity="0.5019607843137255" cx="112" cy="211" rx="9" ry="9" />
<ellipse fill="#b4a053" fill-opacity="0.5019607843137255" cx="119" cy="23" rx="15" ry="15" />
<ellipse fill="#030010" fill-opacity="0.5019607843137255" cx="0" cy="182" rx="21" ry="21" />
<ellipse fill="#16230f" fill-opacity="0.5019607843137255" cx="168" cy="92" rx="21" ry="21" />
<ellipse fill="#454c33" fill-opacity="0.5019607843137255" cx="30" cy="85" rx="23" ry="23" />
<ellipse fill="#475229" fill-opacity="0.5019607843137255" cx="140" cy="86" rx="20" ry="20" />
<ellipse fill="#1b0208" fill-opacity="0.5019607843137255" cx="51" cy="115" rx="12" ry="12" />
<ellipse fill="#410508" fill-opacity="0.5019607843137255" cx="73" cy="28" rx="6" ry="6" />
<ellipse fill="#643b23" fill-opacity="0.5019607843137255" cx="32" cy="192" rx="12" ry="12" />
<ellipse fill="#020005" fill-opacity="0.5019607843137255" cx="162" cy="242" rx="54" ry="54" />
<ellipse fill="#160008" fill-opacity="0.5019607843137255" cx="87" cy="57" rx="4" ry="4" />
<ellipse fill="#0a0008" fill-opacity="0.5019607843137255" cx="108" cy="75" rx="13" ry="13" />
<ellipse fill="#0f000d" fill-opacity="0.5019607843137255" cx="122" cy="110" rx="11" ry="11" />
<ellipse fill="#ccb544" fill-opacity="0.5019607843137255" cx="151" cy="51" rx="14" ry="14" />
<ellipse fill="#853d17" fill-opacity="0.5019607843137255" cx="84" cy="215" rx="12" ry="12" />
<ellipse fill="#00020d" fill-opacity="0.5019607843137255" cx="0" cy="229" rx="36" ry="36" />
<ellipse fill="#ffc552" fill-opacity="0.5019607843137255" cx="68" cy="67" rx="7" ry="7" />
<ellipse fill="#dbc062" fill-opacity="0.5019607843137255" cx="24" cy="39" rx="12" ry="12" />
<ellipse fill="#3f1313" fill-opacity="0.5019607843137255" cx="90" cy="91" rx="10" ry="10" />
<ellipse fill="#080007" fill-opacity="0.5019607843137255" cx="139" cy="134" rx="14" ry="14" />
<ellipse fill="#aea04a" fill-opacity="0.5019607843137255" cx="59" cy="20" rx="12" ry="12" />
<ellipse fill="#965421" fill-opacity="0.5019607843137255" cx="15" cy="154" rx="9" ry="9" />
<ellipse fill="#0c080e" fill-opacity="0.5019607843137255" cx="64" cy="172" rx="20" ry="20" />
<ellipse fill="#6b6c37" fill-opacity="0.5019607843137255" cx="13" cy="60" rx="11" ry="11" />
<ellipse fill="#261717" fill-opacity="0.5019607843137255" cx="0" cy="122" rx="15" ry="15" />
<ellipse fill="#5a6433" fill-opacity="0.5019607843137255" cx="129" cy="61" rx="13" ry="13" />
<ellipse fill="#883a15" fill-opacity="0.5019607843137255" cx="107" cy="123" rx="9" ry="9" />
<ellipse fill="#00000f" fill-opacity="0.5019607843137255" cx="0" cy="148" rx="8" ry="8" />
<ellipse fill="#290004" fill-opacity="0.5019607843137255" cx="59" cy="45" rx="4" ry="4" />
<ellipse fill="#ffaf30" fill-opacity="0.5019607843137255" cx="80" cy="204" rx="4" ry="4" />
<ellipse fill="#848141" fill-opacity="0.5019607843137255" cx="19" cy="0" rx="30" ry="30" />
<ellipse fill="#737350" fill-opacity="0.5019607843137255" cx="43" cy="96" rx="8" ry="8" />
<ellipse fill="#3e1a11" fill-opacity="0.5019607843137255" cx="49" cy="205" rx="5" ry="5" />
<ellipse fill="#0c0002" fill-opacity="0.5019607843137255" cx="76" cy="74" rx="3" ry="3" />
<ellipse fill="#8d4918" fill-opacity="0.5019607843137255" cx="98" cy="210" rx="6" ry="6" />
<ellipse fill="#ffb746" fill-opacity="0.5019607843137255" cx="75" cy="86" rx="4" ry="4" />
<ellipse fill="#060205" fill-opacity="0.5019607843137255" cx="96" cy="183" rx="22" ry="22" />
<ellipse fill="#95622c" fill-opacity="0.5019607843137255" cx="122" cy="124" rx="6" ry="6" />
<ellipse fill="#091616" fill-opacity="0.5019607843137255" cx="5" cy="92" rx="11" ry="11" />
<ellipse fill="#f6b941" fill-opacity="0.5019607843137255" cx="86" cy="65" rx="7" ry="7" />
<ellipse fill="#714d27" fill-opacity="0.5019607843137255" cx="85" cy="145" rx="7" ry="7" />
<ellipse fill="#c1ab55" fill-opacity="0.5019607843137255" cx="17" cy="36" rx="16" ry="16" />
<ellipse fill="#f2b23d" fill-opacity="0.5019607843137255" cx="48" cy="195" rx="6" ry="6" />
<ellipse fill="#290206" fill-opacity="0.5019607843137255" cx="68" cy="56" rx="3" ry="3" />
<ellipse fill="#0d0407" fill-opacity="0.5019607843137255" cx="157" cy="177" rx="36" ry="36" />
<ellipse fill="#87904a" fill-opacity="0.5019607843137255" cx="82" cy="2" rx="20" ry="20" />
<ellipse fill="#6a3515" fill-opacity="0.5019607843137255" cx="80" cy="57" rx="5" ry="5" />
<ellipse fill="#01000a" fill-opacity="0.5019607843137255" cx="45" cy="128" rx="7" ry="7" />
<ellipse fill="#9d5e23" fill-opacity="0.5019607843137255" cx="81" cy="101" rx="6" ry="6" />
<ellipse fill="#c6ac54" fill-opacity="0.5019607843137255" cx="48" cy="34" rx="12" ry="12" />
<ellipse fill="#e4932b" fill-opacity="0.5019607843137255" cx="91" cy="49" rx="4" ry="4" />
<ellipse fill="#ae5721" fill-opacity="0.5019607843137255" cx="47" cy="229" rx="4" ry="4" />
<ellipse fill="#161013" fill-opacity="0.5019607843137255" cx="47" cy="164" rx="24" ry="24" />
<ellipse fill="#100006" fill-opacity="0.5019607843137255" cx="66" cy="31" rx="3" ry="3" />
<ellipse fill="#573c26" fill-opacity="0.5019607843137255" cx="55" cy="141" rx="10" ry="10" />
<ellipse fill="#757a35" fill-opacity="0.5019607843137255" cx="167" cy="0" rx="29" ry="29" />
<ellipse fill="#b36a1f" fill-opacity="0.5019607843137255" cx="53" cy="215" rx="8" ry="8" />
<ellipse fill="#c5ac56" fill-opacity="0.5019607843137255" cx="137" cy="39" rx="13" ry="13" />
<ellipse fill="#090c13" fill-opacity="0.5019607843137255" cx="38" cy="206" rx="7" ry="7" />
<ellipse fill="#50271c" fill-opacity="0.5019607843137255" cx="122" cy="210" rx="7" ry="7" />
<ellipse fill="#e29939" fill-opacity="0.5019607843137255" cx="60" cy="124" rx="6" ry="6" />
<ellipse fill="#6a5d25" fill-opacity="0.5019607843137255" cx="23" cy="112" rx="11" ry="11" />
<ellipse fill="#7c621f" fill-opacity="0.5019607843137255" cx="153" cy="104" rx="8" ry="8" />
<ellipse fill="#aa681d" fill-opacity="0.5019607843137255" cx="95" cy="102" rx="7" ry="7" />
<ellipse fill="#2d030e" fill-opacity="0.5019607843137255" cx="92" cy="30" rx="8" ry="8" />
<ellipse fill="#260813" fill-opacity="0.5019607843137255" cx="59" cy="88" rx="9" ry="9" />
<ellipse fill="#a5a245" fill-opacity="0.5019607843137255" cx="146" cy="66" rx="7" ry="7" />
<ellipse fill="#8b8224" fill-opacity="0.5019607843137255" cx="168" cy="58" rx="13" ry="13" />
<ellipse fill="#8f6a14" fill-opacity="0.5019607843137255" cx="163" cy="125" rx="6" ry="6" />
<ellipse fill="#c5812c" fill-opacity="0.5019607843137255" cx="95" cy="60" rx="4" ry="4" />
<ellipse fill="#470f0e" fill-opacity="0.5019607843137255" cx="161" cy="140" rx="10" ry="10" />
<ellipse fill="#17000d" fill-opacity="0.5019607843137255" cx="103" cy="38" rx="8" ry="8" />
<ellipse fill="#c1aa5e" fill-opacity="0.5019607843137255" cx="119" cy="36" rx="8" ry="8" />
<ellipse fill="#00000b" fill-opacity="0.5019607843137255" cx="87" cy="215" rx="3" ry="3" />
<ellipse fill="#070000" fill-opacity="0.5019607843137255" cx="57" cy="63" rx="3" ry="3" />
<ellipse fill="#0f0a0f" fill-opacity="0.5019607843137255" cx="37" cy="143" rx="10" ry="10" />
<ellipse fill="#33020d" fill-opacity="0.5019607843137255" cx="80" cy="26" rx="5" ry="5" />
<ellipse fill="#f5bb4b" fill-opacity="0.5019607843137255" cx="73" cy="43" rx="11" ry="11" />
<ellipse fill="#813a1e" fill-opacity="0.5019607843137255" cx="17" cy="142" rx="12" ry="12" />
<ellipse fill="#ae9b2f" fill-opacity="0.5019607843137255" cx="140" cy="111" rx="4" ry="4" />
<ellipse fill="#a59a4a" fill-opacity="0.5019607843137255" cx="106" cy="16" rx="11" ry="11" />
<ellipse fill="#ff9d28" fill-opacity="0.5019607843137255" cx="83" cy="207" rx="3" ry="3" />
<ellipse fill="#704422" fill-opacity="0.5019607843137255" cx="96" cy="139" rx="5" ry="5" />
<ellipse fill="#db7d1e" fill-opacity="0.5019607843137255" cx="82" cy="35" rx="3" ry="3" />
<ellipse fill="#451e14" fill-opacity="0.5019607843137255" cx="63" cy="223" rx="9" ry="9" />
<ellipse fill="#3a0b08" fill-opacity="0.5019607843137255" cx="61" cy="39" rx="3" ry="3" />
<ellipse fill="#fbce57" fill-opacity="0.5019607843137255" cx="86" cy="129" rx="10" ry="10" />
<ellipse fill="#803d15" fill-opacity="0.5019607843137255" cx="78" cy="79" rx="5" ry="5" />
<ellipse fill="#10050e" fill-opacity="0.5019607843137255" cx="116" cy="118" rx="5" ry="5" />
<ellipse fill="#a58b29" fill-opacity="0.5019607843137255" cx="168" cy="34" rx="16" ry="16" />
<ellipse fill="#5c4025" fill-opacity="0.5019607843137255" cx="125" cy="151" rx="7" ry="7" />
<ellipse fill="#401e15" fill-opacity="0.5019607843137255" cx="56" cy="52" rx="5" ry="5" />
<ellipse fill="#6b4923" fill-opacity="0.5019607843137255" cx="70" cy="143" rx="7" ry="7" />
<ellipse fill="#12100a" fill-opacity="0.5019607843137255" cx="39" cy="110" rx="7" ry="7" />
<ellipse fill="#a67e29" fill-opacity="0.5019607843137255" cx="114" cy="126" rx="4" ry="4" />
<ellipse fill="#988441" fill-opacity="0.5019607843137255" cx="128" cy="20" rx="15" ry="15" />
<ellipse fill="#5e5c2b" fill-opacity="0.5019607843137255" cx="31" cy="59" rx="8" ry="8" />
<ellipse fill="#020606" fill-opacity="0.5019607843137255" cx="140" cy="106" rx="3" ry="3" />
<ellipse fill="#100a13" fill-opacity="0.5019607843137255" cx="132" cy="117" rx="5" ry="5" />
<ellipse fill="#19080c" fill-opacity="0.5019607843137255" cx="82" cy="211" rx="3" ry="3" />
<ellipse fill="#5d3920" fill-opacity="0.5019607843137255" cx="22" cy="188" rx="7" ry="7" />
<ellipse fill="#7d6725" fill-opacity="0.5019607843137255" cx="28" cy="127" rx="8" ry="8" />
<ellipse fill="#d4721f" fill-opacity="0.5019607843137255" cx="99" cy="129" rx="5" ry="5" />
<ellipse fill="#2f1f1c" fill-opacity="0.5019607843137255" cx="20" cy="128" rx="5" ry="5" />
<ellipse fill="#71763c" fill-opacity="0.5019607843137255" cx="61" cy="0" rx="16" ry="16" />
<ellipse fill="#131208" fill-opacity="0.5019607843137255" cx="168" cy="109" rx="9" ry="9" />
<ellipse fill="#e3c96a" fill-opacity="0.5019607843137255" cx="44" cy="53" rx="6" ry="6" />
<ellipse fill="#140e0f" fill-opacity="0.5019607843137255" cx="100" cy="155" rx="14" ry="14" />
<ellipse fill="#bea54d" fill-opacity="0.5019607843137255" cx="91" cy="17" rx="5" ry="5" />
<ellipse fill="#050107" fill-opacity="0.5019607843137255" cx="96" cy="255" rx="29" ry="29" />
<ellipse fill="#da8c37" fill-opacity="0.5019607843137255" cx="70" cy="80" rx="5" ry="5" />
<ellipse fill="#e79f3e" fill-opacity="0.5019607843137255" cx="63" cy="52" rx="3" ry="3" />
<ellipse fill="#343621" fill-opacity="0.5019607843137255" cx="36" cy="78" rx="15" ry="15" />
<ellipse fill="#18020e" fill-opacity="0.5019607843137255" cx="111" cy="93" rx="10" ry="10" />
<ellipse fill="#11030c" fill-opacity="0.5019607843137255" cx="107" cy="47" rx="8" ry="8" />
<ellipse fill="#2b2219" fill-opacity="0.5019607843137255" cx="75" cy="159" rx="11" ry="11" />
<ellipse fill="#11090f" fill-opacity="0.5019607843137255" cx="126" cy="136" rx="10" ry="10" />
<ellipse fill="#512619" fill-opacity="0.5019607843137255" cx="40" cy="223" rx="6" ry="6" />
<ellipse fill="#43160f" fill-opacity="0.5019607843137255" cx="64" cy="34" rx="3" ry="3" />
<ellipse fill="#a59244" fill-opacity="0.5019607843137255" cx="65" cy="16" rx="10" ry="10" />
<ellipse fill="#e68a29" fill-opacity="0.5019607843137255" cx="77" cy="202" rx="4" ry="4" />
<ellipse fill="#e38821" fill-opacity="0.5019607843137255" cx="78" cy="213" rx="3" ry="3" />
<ellipse fill="#99521a" fill-opacity="0.5019607843137255" cx="88" cy="39" rx="5" ry="5" />
<ellipse fill="#261212" fill-opacity="0.5019607843137255" cx="58" cy="106" rx="10" ry="10" />
<ellipse fill="#3b452c" fill-opacity="0.5019607843137255" cx="4" cy="55" rx="5" ry="5" />
<ellipse fill="#a59142" fill-opacity="0.5019607843137255" cx="53" cy="23" rx="13" ry="13" />
<ellipse fill="#fdd451" fill-opacity="0.5019607843137255" cx="61" cy="130" rx="4" ry="4" />
<ellipse fill="#603117" fill-opacity="0.5019607843137255" cx="161" cy="157" rx="4" ry="4" />
<ellipse fill="#632316" fill-opacity="0.5019607843137255" cx="108" cy="111" rx="7" ry="7" />
<ellipse fill="#90781e" fill-opacity="0.5019607843137255" cx="159" cy="119" rx="5" ry="5" />
<ellipse fill="#efa838" fill-opacity="0.5019607843137255" cx="54" cy="195" rx="6" ry="6" />
<ellipse fill="#0c090a" fill-opacity="0.5019607843137255" cx="73" cy="184" rx="11" ry="11" />
<ellipse fill="#e4a336" fill-opacity="0.5019607843137255" cx="63" cy="61" rx="3" ry="3" />
<ellipse fill="#ffc53d" fill-opacity="0.5019607843137255" cx="82" cy="59" rx="2" ry="2" />
<ellipse fill="#50522f" fill-opacity="0.5019607843137255" cx="24" cy="71" rx="9" ry="9" />
<ellipse fill="#3d1710" fill-opacity="0.5019607843137255" cx="154" cy="130" rx="8" ry="8" />
<ellipse fill="#5f6150" fill-opacity="0.5019607843137255" cx="32" cy="97" rx="5" ry="5" />
<ellipse fill="#252816" fill-opacity="0.5019607843137255" cx="152" cy="90" rx="8" ry="8" />
<ellipse fill="#16050c" fill-opacity="0.5019607843137255" cx="107" cy="62" rx="10" ry="10" />
<ellipse fill="#415240" fill-opacity="0.5019607843137255" cx="10" cy="105" rx="6" ry="6" />
<ellipse fill="#0d191b" fill-opacity="0.5019607843137255" cx="0" cy="75" rx="8" ry="8" />
<ellipse fill="#240f12" fill-opacity="0.5019607843137255" cx="53" cy="75" rx="8" ry="8" />
<ellipse fill="#14040f" fill-opacity="0.5019607843137255" cx="93" cy="219" rx="4" ry="4" />
<ellipse fill="#647443" fill-opacity="0.5019607843137255" cx="84" cy="0" rx="10" ry="10" />
<ellipse fill="#4d5b31" fill-opacity="0.5019607843137255" cx="0" cy="4" rx="6" ry="6" />
<ellipse fill="#1e040e" fill-opacity="0.5019607843137255" cx="78" cy="208" rx="2" ry="2" />
<ellipse fill="#482416" fill-opacity="0.5019607843137255" cx="89" cy="56" rx="4" ry="4" />
<ellipse fill="#280c0d" fill-opacity="0.5019607843137255" cx="75" cy="215" rx="2" ry="2" />
<ellipse fill="#514918" fill-opacity="0.5019607843137255" cx="156" cy="112" rx="8" ry="8" />
<ellipse fill="#c5ac53" fill-opacity="0.5019607843137255" cx="55" cy="32" rx="7" ry="7" />
<ellipse fill="#10030d" fill-opacity="0.5019607843137255" cx="68" cy="98" rx="8" ry="8" />
<ellipse fill="#ab9849" fill-opacity="0.5019607843137255" cx="82" cy="14" rx="7" ry="7" />
<ellipse fill="#d1862e" fill-opacity="0.5019607843137255" cx="69" cy="111" rx="4" ry="4" />
<ellipse fill="#feb64b" fill-opacity="0.5019607843137255" cx="83" cy="72" rx="3" ry="3" />
<ellipse fill="#313422" fill-opacity="0.5019607843137255" cx="131" cy="82" rx="13" ry="13" />
<ellipse fill="#b2a64d" fill-opacity="0.5019607843137255" cx="49" cy="59" rx="3" ry="3" />
<ellipse fill="#a99432" fill-opacity="0.5019607843137255" cx="22" cy="121" rx="3" ry="3" />
<ellipse fill="#8a5722" fill-opacity="0.5019607843137255" cx="18" cy="138" rx="8" ry="8" />
<ellipse fill="#a66522" fill-opacity="0.5019607843137255" cx="92" cy="48" rx="6" ry="6" />
<ellipse fill="#ae5718" fill-opacity="0.5019607843137255" cx="65" cy="211" rx="6" ry="6" />
<ellipse fill="#b19b4e" fill-opacity="0.5019607843137255" cx="29" cy="25" rx="13" ry="13" />
<ellipse fill="#8f6e24" fill-opacity="0.5019607843137255" cx="18" cy="157" rx="5" ry="5" />
</g>
</svg>