<svg xmlns="http://www.w3.org/2000/svg" version="1.1" width="507" height="768">
<rect x="0" y="0" width="507" height="768" fill="#4d3d1f" />
<g transform="scale(3) translate(0.5 0.5)">
<polygon fill="#d4be57" fill-opacity="0.5019607843137255" points="8.995177,60.827134 -16.000000,-0.310714 184.000000,0.790849 160.180761,71.259084" />
<polygon fill="#ffff5f" fill-opacity="0.5019607843137255" points="100.052135,141.321920 56.178939,135.527466 67.049375,107.582506 101.355902,98.911869" />
<polygon fill="#000000" fill-opacity="0.5019607843137255" points="184.000000,181.343072 169.758625,271.000000 83.379170,271.000000 100.890077,18.258539" />
<polygon fill="#000000" fill-opacity="0.5019607843137255" points="1.704996,271.000000 -16.000000,101.214918 44.760646,226.112398 184.000000,236.016823" />
<polygon fill="#fe8a21" fill-opacity="0.5019607843137255" points="92.186603,211.119585 81.870081,201.194446 46.605275,186.276082 43.974480,229.329202" />
<polygon fill="#dc9038" fill-opacity="0.5019607843137255" points="161.600015,113.789829 115.456778,125.350026 47.698828,-16.000000 80.724253,141.496322" />
<polygon fill="#000004" fill-opacity="0.5019607843137255" points="168.784323,227.900282 184.000000,164.797262 33.600204,139.740617 13.294564,176.480708" />
<polygon fill="#1a0c12" fill-opacity="0.5019607843137255" points="82.848412,13.596699 97.216281,76.195437 13.544805,126.766728 153.462827,75.917263" />
<polygon fill="#dec866" fill-opacity="0.5019607843137255" points="10.124877,16.652369 64.192674,25.568378 48.693440,60.073380 0.338655,46.457111" />
<polygon fill="#ffdd57" fill-opacity="0.5019607843137255" points="52.066520,129.280817 77.549879,107.435481 102.312804,112.061894 92.863066,141.067118" />
<polygon fill="#c6b34b" fill-opacity="0.5019607843137255" points="184.000000,34.835020 163.911033,72.667159 83.109433,12.336023 114.714180,16.354906" />
<polygon fill="#0c0009" fill-opacity="0.5019607843137255" points="52.897099,114.094025 64.526498,27.270460 51.136263,57.920495 76.498249,96.378171" />
<polygon fill="#ffad3a" fill-opacity="0.5019607843137255" points="98.111196,50.911054 72.677427,27.305025 67.224113,86.877545 59.649944,61.261108" />
<polygon fill="#1d0004" fill-opacity="0.5019607843137255" points="83.598742,20.036767 104.909118,28.762132 115.333786,39.005789 59.085561,31.075096" />
<polygon fill="#736b2a" fill-opacity="0.5019607843137255" points="140.361000,99.458420 110.396401,32.205014 134.412386,120.171658 184.000000,133.755298" />
<polygon fill="#000009" fill-opacity="0.5019607843137255" points="183.852059,250.959559 36.609966,229.994355 -16.000000,130.707644 1.672655,271.000000" />
<polygon fill="#ffae34" fill-opacity="0.5019607843137255" points="62.054404,189.131097 88.846564,209.107446 43.980190,198.644549 43.257001,190.558903" />
<polygon fill="#010004" fill-opacity="0.5019607843137255" points="85.113012,227.346505 184.000000,206.537058 106.929294,271.000000 45.494441,205.498303" />
<polygon fill="#0a020e" fill-opacity="0.5019607843137255" points="71.106552,101.069865 9.140269,195.909837 40.415015,118.591332 32.372974,105.845864" />
<polygon fill="#ffb541" fill-opacity="0.5019607843137255" points="85.177322,81.216331 97.381896,56.215042 64.038546,77.869968 72.910893,56.649040" />
<polygon fill="#8a5624" fill-opacity="0.5019607843137255" points="23.024874,161.459513 2.647810,163.058590 23.509126,97.574363 33.763328,127.903266" />
<polygon fill="#1d2926" fill-opacity="0.5019607843137255" points="11.391318,83.979078 72.702876,50.486494 -16.000000,143.206586 -7.962432,32.185448" />
<polygon fill="#833b16" fill-opacity="0.5019607843137255" points="116.575621,201.823287 36.602817,215.013043 41.059777,233.075732 123.083834,210.712355" />
<polygon fill="#06020a" fill-opacity="0.5019607843137255" points="159.623259,210.170830 184.000000,191.346056 27.793317,141.879553 40.064970,187.614744" />
<polygon fill="#ffd658" fill-opacity="0.5019607843137255" points="81.807005,34.459709 67.676233,34.413349 63.252896,54.117170 82.637855,53.659112" />
<polygon fill="#1a1d16" fill-opacity="0.5019607843137255" points="158.500488,97.635353 173.008814,135.054560 184.000000,78.848062 33.196357,92.856963" />
<polygon fill="#05020e" fill-opacity="0.5019607843137255" points="6.257962,271.000000 -16.000000,195.918864 58.051184,205.730714 34.015500,214.977851" />
<polygon fill="#310808" fill-opacity="0.5019607843137255" points="88.579473,21.081661 98.932316,50.124091 57.799319,58.738925 115.630778,58.868328" />
<polygon fill="#545d3d" fill-opacity="0.5019607843137255" points="9.505040,108.237906 42.115694,55.490781 -16.000000,44.151174 54.500914,98.565059" />
<polygon fill="#040005" fill-opacity="0.5019607843137255" points="5.720453,254.268856 172.846705,260.567177 168.232888,106.764071 160.706388,205.392913" />
<polygon fill="#63753f" fill-opacity="0.5019607843137255" points="184.000000,1.043532 -16.000000,-3.078169 67.433367,16.983851 58.198127,11.796967" />
<polygon fill="#8b731f" fill-opacity="0.5019607843137255" points="136.837872,98.486189 184.000000,140.903385 131.584835,111.636011 162.720281,99.075853" />
<polygon fill="#2e1216" fill-opacity="0.5019607843137255" points="102.027738,112.908650 98.080138,66.479112 144.530825,123.355096 107.785027,124.671169" />
<polygon fill="#a09549" fill-opacity="0.5019607843137255" points="10.434829,27.883829 1.986087,16.366681 71.517174,9.798397 112.982833,19.675189" />
<polygon fill="#737728" fill-opacity="0.5019607843137255" points="118.626187,65.607711 154.311361,82.650663 170.926576,-16.000000 174.247320,70.072484" />
<polygon fill="#c5b058" fill-opacity="0.5019607843137255" points="108.487453,30.697717 171.132169,46.734294 115.526044,50.383236 116.108493,45.848378" />
<polygon fill="#050105" fill-opacity="0.5019607843137255" points="184.000000,264.907847 135.238504,253.402215 131.782920,116.639955 150.415377,130.442157" />
<polygon fill="#f2af46" fill-opacity="0.5019607843137255" points="69.110898,85.263749 84.143900,92.253786 64.903695,71.813576 81.731887,36.364044" />
<polygon fill="#fdbd4b" fill-opacity="0.5019607843137255" points="70.306724,113.075233 102.327895,105.218770 78.014014,142.005777 54.603089,122.624049" />
<polygon fill="#573a2a" fill-opacity="0.5019607843137255" points="136.823348,148.336487 136.094923,142.855458 116.331230,148.099206 109.523792,171.787673" />
<polygon fill="#11020b" fill-opacity="0.5019607843137255" points="105.926812,111.806711 97.837567,23.091147 113.647438,42.363100 118.233089,67.479374" />
<polygon fill="#795125" fill-opacity="0.5019607843137255" points="127.598954,121.338238 128.014548,125.251273 66.929974,152.583314 127.561087,115.656696" />
<polygon fill="#28060e" fill-opacity="0.5019607843137255" points="59.900529,39.339118 73.523315,22.003604 106.292162,30.951908 73.771796,29.662688" />
<polygon fill="#dc8b2a" fill-opacity="0.5019607843137255" points="56.724488,189.355543 80.382359,212.421647 93.804800,225.948104 40.643627,194.616617" />
<polygon fill="#16070c" fill-opacity="0.5019607843137255" points="75.942617,209.085876 124.489232,245.853967 104.030583,223.056213 78.789572,207.515542" />
<polygon fill="#241a19" fill-opacity="0.5019607843137255" points="49.112101,83.126964 60.496419,118.311524 60.644236,63.511037 -16.000000,107.944604" />
<polygon fill="#2f3a20" fill-opacity="0.5019607843137255" points="132.206272,109.717459 168.218481,88.067260 173.801356,65.494620 114.219984,79.664899" />
<polygon fill="#d2b95e" fill-opacity="0.5019607843137255" points="33.311819,50.677243 -12.246245,43.327275 65.639641,29.441819 43.501122,58.891952" />
<polygon fill="#b46c23" fill-opacity="0.5019607843137255" points="108.033118,109.994105 79.522169,95.889334 48.338963,146.547138 68.195931,106.839025" />
<polygon fill="#c7b64c" fill-opacity="0.5019607843137255" points="143.676142,72.796565 153.141694,67.833328 156.896942,49.318473 139.035137,24.517960" />
</g>
</svg>