<svg xmlns="http://www.w3.org/2000/svg" version="1.1" width="507" height="768">
<rect x="0" y="0" width="507" height="768" fill="#4d3d1f" />
<g transform="scale(3) translate(0.5 0.5)">
<path stroke="#fff070" stroke-opacity="0.5019607843137255" fill="none" d="M 166.168988 46.548683 Q 20.082268 -16.000000, 4.443720 51.457184" stroke-width="0.500000" />
<path stroke="#ffdd66" stroke-opacity="0.5019607843137255" fill="none" d="M -14.267354 42.970258 Q 58.715881 46.632070, 184.000000 29.249509" stroke-width="0.500000" />
<path stroke="#ffe761" stroke-opacity="0.5019607843137255" fill="none" d="M -3.234614 36.649494 Q 114.833039 14.420515, 76.841631 139.125866" stroke-width="0.500000" />
<path stroke="#ffe661" stroke-opacity="0.5019607843137255" fill="none" d="M 88.177377 141.337249 Q 104.876687 9.854242, 5.201162 33.386999" stroke-width="0.500000" />
<path stroke="#fae669" stroke-opacity="0.5019607843137255" fill="none" d="M -1.288972 24.269910 Q 135.968792 7.777780, 171.109152 53.544141" stroke-width="0.500000" />
<path stroke="#ffe268" stroke-opacity="0.5019607843137255" fill="none" d="M -1.692616 14.580507 Q 2.460448 76.837715, 180.317114 31.939295" stroke-width="0.500000" />
<path stroke="#ffef70" stroke-opacity="0.5019607843137255" fill="none" d="M 152.965842 70.320940 Q 147.528572 -16.000000, 4.964551 37.168453" stroke-width="0.500000" />
<path stroke="#ffdb59" stroke-opacity="0.5019607843137255" fill="none" d="M 84.907155 140.998141 Q 72.522499 42.547871, 58.034407 -2.322352" stroke-width="0.500000" />
<path stroke="#f8e76a" stroke-opacity="0.5019607843137255" fill="none" d="M 148.868241 70.756098 Q 156.830167 1.036310, 2.288850 18.754637" stroke-width="0.500000" />
<path stroke="#ffd661" stroke-opacity="0.5019607843137255" fill="none" d="M 182.192443 21.770722 Q 39.849592 80.894107, -16.000000 14.323532" stroke-width="0.500000" />
<path stroke="#fbe76f" stroke-opacity="0.5019607843137255" fill="none" d="M 136.320268 2.872042 Q 65.320643 22.317994, 2.315844 48.439745" stroke-width="0.500000" />
<path stroke="#ffd95a" stroke-opacity="0.5019607843137255" fill="none" d="M 81.154331 -3.863430 Q 57.555924 131.881845, 97.337796 134.521209" stroke-width="0.500000" />
<path stroke="#ffec6f" stroke-opacity="0.5019607843137255" fill="none" d="M -0.342746 42.332675 Q 143.355068 -16.000000, 157.321165 68.636437" stroke-width="0.500000" />
<path stroke="#ffd758" stroke-opacity="0.5019607843137255" fill="none" d="M 54.540656 -16.000000 Q 88.287766 129.044049, 74.632497 137.035112" stroke-width="0.500000" />
<path stroke="#ffe863" stroke-opacity="0.5019607843137255" fill="none" d="M -1.861806 47.308647 Q 65.524307 11.790823, 87.150428 136.407879" stroke-width="0.500000" />
<path stroke="#ffed65" stroke-opacity="0.5019607843137255" fill="none" d="M 2.326422 24.556794 Q 94.485118 21.015295, 81.857144 74.337136" stroke-width="0.500000" />
<path stroke="#fbd663" stroke-opacity="0.5019607843137255" fill="none" d="M 175.180535 46.049861 Q 43.158845 30.681063, 1.001854 46.398794" stroke-width="0.500000" />
<path stroke="#ffe46c" stroke-opacity="0.5019607843137255" fill="none" d="M 95.007119 69.275833 Q 5.026440 56.787490, 4.562792 0.911993" stroke-width="0.500000" />
<path stroke="#ffff72" stroke-opacity="0.5019607843137255" fill="none" d="M 54.445443 127.863504 Q 97.539918 149.691210, 94.458646 100.694324" stroke-width="0.500000" />
<path stroke="#f4cf60" stroke-opacity="0.5019607843137255" fill="none" d="M -16.000000 44.623602 Q 33.633769 53.403605, 162.123713 27.254226" stroke-width="0.500000" />
<path stroke="#ffe36b" stroke-opacity="0.5019607843137255" fill="none" d="M 93.317419 63.358219 Q 5.069470 69.340969, 4.863545 -16.000000" stroke-width="0.500000" />
<path stroke="#ffff60" stroke-opacity="0.5019607843137255" fill="none" d="M 52.509117 127.284050 Q 95.264361 154.970671, 99.510927 99.980016" stroke-width="0.500000" />
<path stroke="#e9c75c" stroke-opacity="0.5019607843137255" fill="none" d="M 0.317995 14.332700 Q 81.938457 83.338423, 164.599130 9.711202" stroke-width="0.500000" />
<path stroke="#ffcf59" stroke-opacity="0.5019607843137255" fill="none" d="M 11.289031 -0.848835 Q 97.517029 86.770039, 85.020406 138.874763" stroke-width="0.500000" />
<path stroke="#fbe067" stroke-opacity="0.5019607843137255" fill="none" d="M 13.715001 47.856679 Q 85.512415 -12.870712, 164.457129 64.948008" stroke-width="0.500000" />
<path stroke="#ffd759" stroke-opacity="0.5019607843137255" fill="none" d="M 0.997162 22.702513 Q 115.872810 9.802955, 70.999687 134.703368" stroke-width="0.500000" />
<path stroke="#fff57e" stroke-opacity="0.5019607843137255" fill="none" d="M 1.401485 36.579658 Q 61.511582 75.510441, 70.406496 -2.964684" stroke-width="0.500000" />
<path stroke="#efe065" stroke-opacity="0.5019607843137255" fill="none" d="M 39.195088 -5.881962 Q 97.462410 17.628095, 165.255037 65.956748" stroke-width="0.500000" />
<path stroke="#ffff6d" stroke-opacity="0.5019607843137255" fill="none" d="M 93.679241 100.605046 Q 95.684441 145.908073, 53.238887 124.911884" stroke-width="0.500000" />
<path stroke="#ffe566" stroke-opacity="0.5019607843137255" fill="none" d="M -3.884769 31.776042 Q 91.425332 26.422650, 87.438909 68.355121" stroke-width="0.500000" />
<path stroke="#ffce5c" stroke-opacity="0.5019607843137255" fill="none" d="M -14.609744 -16.000000 Q 91.798716 66.209767, 79.923682 142.442226" stroke-width="0.500000" />
<path stroke="#ffc851" stroke-opacity="0.5019607843137255" fill="none" d="M 67.191932 136.149289 Q 125.910067 13.469451, 0.724870 13.499558" stroke-width="0.500000" />
<path stroke="#fff470" stroke-opacity="0.5019607843137255" fill="none" d="M 83.602287 34.767553 Q 67.812137 72.734490, -11.409218 35.086060" stroke-width="0.500000" />
<path stroke="#fce967" stroke-opacity="0.5019607843137255" fill="none" d="M 152.036113 65.357372 Q 166.988095 14.053007, 69.006453 14.202693" stroke-width="0.500000" />
<path stroke="#ffff67" stroke-opacity="0.5019607843137255" fill="none" d="M 54.692784 126.621922 Q 99.074114 148.209892, 96.706062 96.551620" stroke-width="0.500000" />
<path stroke="#ffbf49" stroke-opacity="0.5019607843137255" fill="none" d="M 54.046554 -3.850845 Q 73.605906 113.308436, 101.124147 134.372530" stroke-width="0.500000" />
<path stroke="#f1dc68" stroke-opacity="0.5019607843137255" fill="none" d="M 153.715248 69.379204 Q 123.485678 -13.695526, 0.442984 41.417123" stroke-width="0.500000" />
<path stroke="#dbcf5f" stroke-opacity="0.5019607843137255" fill="none" d="M 184.000000 32.769000 Q 76.185724 -1.481741, -16.000000 21.878806" stroke-width="0.500000" />
<path stroke="#ffff6f" stroke-opacity="0.5019607843137255" fill="none" d="M 92.435401 104.754456 Q 94.349523 138.316989, 55.463749 125.063645" stroke-width="0.500000" />
<path stroke="#e7d75a" stroke-opacity="0.5019607843137255" fill="none" d="M 154.569571 67.884029 Q 172.514032 10.095433, 70.030052 9.872687" stroke-width="0.500000" />
<path stroke="#ffc451" stroke-opacity="0.5019607843137255" fill="none" d="M 88.138207 140.430694 Q 88.794909 25.976483, 24.348698 16.510594" stroke-width="0.500000" />
<path stroke="#ffff60" stroke-opacity="0.5019607843137255" fill="none" d="M 56.327766 127.598598 Q 99.272531 152.587416, 100.097921 103.611731" stroke-width="0.500000" />
<path stroke="#fff06d" stroke-opacity="0.5019607843137255" fill="none" d="M 90.964664 37.854573 Q 2.383524 32.160098, -4.179929 49.736383" stroke-width="0.500000" />
<path stroke="#ebd965" stroke-opacity="0.5019607843137255" fill="none" d="M 12.879278 31.266874 Q 139.339707 -15.331291, 149.010142 74.904538" stroke-width="0.500000" />
<path stroke="#ffff60" stroke-opacity="0.5019607843137255" fill="none" d="M 57.722977 133.208577 Q 79.254181 94.214062, 101.736908 131.829249" stroke-width="0.500000" />
<path stroke="#fffc76" stroke-opacity="0.5019607843137255" fill="none" d="M -16.000000 43.331142 Q 37.555160 40.790744, 88.267702 39.406458" stroke-width="0.500000" />
<path stroke="#f3e163" stroke-opacity="0.5019607843137255" fill="none" d="M 169.517197 47.967420 Q 121.969574 64.771005, 78.602759 -9.192431" stroke-width="0.500000" />
<path stroke="#f7bf52" stroke-opacity="0.5019607843137255" fill="none" d="M 6.234308 7.647018 Q 73.462932 63.560165, 95.812257 137.678439" stroke-width="0.500000" />
<path stroke="#ffdd63" stroke-opacity="0.5019607843137255" fill="none" d="M 92.569909 50.695956 Q 37.323562 56.561607, -16.000000 39.372049" stroke-width="0.500000" />
<path stroke="#ffcb56" stroke-opacity="0.5019607843137255" fill="none" d="M 65.706100 136.628134 Q 120.694834 14.630154, -10.307657 27.598783" stroke-width="0.500000" />
</g>
</svg>