<svg xmlns="http://www.w3.org/2000/svg" version="1.1" width="507" height="768">
<rect x="0" y="0" width="507" height="768" fill="#4d3d1f" />
<g transform="scale(3) translate(0.5 0.5)">
<rect fill="#d5be58" fill-opacity="0.5019607843137255" x="2" y="0" width="167" height="65" />
<rect fill="#ffff60" fill-opacity="0.5019607843137255" x="62" y="105" width="40" height="34" />
<rect fill="#000000" fill-opacity="0.5019607843137255" x="93" y="29" width="23" height="69" />
<rect fill="#000000" fill-opacity="0.5019607843137255" x="0" y="138" width="169" height="118" />
<rect fill="#ff9a2e" fill-opacity="0.5019607843137255" x="43" y="191" width="40" height="32" />
<rect fill="#ffaa3a" fill-opacity="0.5019607843137255" x="64" y="36" width="27" height="51" />
<rect fill="#d9c463" fill-opacity="0.5019607843137255" x="0" y="19" width="55" height="33" />
<rect fill="#ffc752" fill-opacity="0.5019607843137255" x="58" y="114" width="36" height="28" />
<rect fill="#020000" fill-opacity="0.5019607843137255" x="68" y="23" width="33" height="10" />
<rect fill="#11070e" fill-opacity="0.5019607843137255" x="101" y="54" width="39" height="202" />
<rect fill="#bfb34b" fill-opacity="0.5019607843137255" x="125" y="21" width="37" height="50" />
<rect fill="#b3622c" fill-opacity="0.5019607843137255" x="7" y="132" width="20" height="30" />
<rect fill="#2b2e25" fill-opacity="0.5019607843137255" x="0" y="56" width="65" height="64" />
<rect fill="#000001" fill-opacity="0.5019607843137255" x="125" y="130" width="44" height="126" />
<rect fill="#fea93a" fill-opacity="0.5019607843137255" x="75" y="100" width="29" height="32" />
<rect fill="#000005" fill-opacity="0.5019607843137255" x="71" y="165" width="54" height="34" />
<rect fill="#fcac43" fill-opacity="0.5019607843137255" x="60" y="62" width="37" height="11" />
<rect fill="#ffca43" fill-opacity="0.5019607843137255" x="44" y="190" width="19" height="11" />
<rect fill="#803c17" fill-opacity="0.5019607843137255" x="39" y="205" width="78" height="20" />
<rect fill="#050004" fill-opacity="0.5019607843137255" x="56" y="83" width="16" height="26" />
<rect fill="#310409" fill-opacity="0.5019607843137255" x="87" y="27" width="22" height="32" />
<rect fill="#cdb15c" fill-opacity="0.5019607843137255" x="111" y="27" width="38" height="18" />
<rect fill="#000005" fill-opacity="0.5019607843137255" x="0" y="230" width="169" height="26" />
<rect fill="#22000b" fill-opacity="0.5019607843137255" x="54" y="42" width="7" height="64" />
<rect fill="#f2d56b" fill-opacity="0.5019607843137255" x="38" y="41" width="14" height="20" />
<rect fill="#ff9c29" fill-opacity="0.5019607843137255" x="55" y="200" width="31" height="9" />
<rect fill="#0c0610" fill-opacity="0.5019607843137255" x="37" y="105" width="17" height="77" />
<rect fill="#462f22" fill-opacity="0.5019607843137255" x="46" y="137" width="90" height="16" />
<rect fill="#9f5e23" fill-opacity="0.5019607843137255" x="98" y="120" width="29" height="11" />
<rect fill="#3f4f2c" fill-opacity="0.5019607843137255" x="122" y="52" width="20" height="50" />
<rect fill="#84761e" fill-opacity="0.5019607843137255" x="136" y="99" width="25" height="23" />
<rect fill="#ffde5b" fill-opacity="0.5019607843137255" x="66" y="34" width="17" height="18" />
<rect fill="#894517" fill-opacity="0.5019607843137255" x="61" y="53" width="36" height="9" />
<rect fill="#00000e" fill-opacity="0.5019607843137255" x="0" y="201" width="36" height="55" />
<rect fill="#0e1b0c" fill-opacity="0.5019607843137255" x="156" y="71" width="13" height="43" />
<rect fill="#c27325" fill-opacity="0.5019607843137255" x="44" y="211" width="9" height="21" />
<rect fill="#ffd85a" fill-opacity="0.5019607843137255" x="56" y="121" width="35" height="13" />
<rect fill="#030004" fill-opacity="0.5019607843137255" x="91" y="217" width="78" height="39" />
<rect fill="#0c080d" fill-opacity="0.5019607843137255" x="59" y="150" width="53" height="44" />
<rect fill="#0e000b" fill-opacity="0.5019607843137255" x="100" y="40" width="14" height="54" />
<rect fill="#f5aa3d" fill-opacity="0.5019607843137255" x="62" y="46" width="34" height="7" />
<rect fill="#676e51" fill-opacity="0.5019607843137255" x="21" y="92" width="31" height="11" />
<rect fill="#a8964a" fill-opacity="0.5019607843137255" x="106" y="11" width="45" height="23" />
<rect fill="#794929" fill-opacity="0.5019607843137255" x="19" y="187" width="24" height="10" />
<rect fill="#7b5d25" fill-opacity="0.5019607843137255" x="16" y="102" width="14" height="43" />
<rect fill="#e99a3f" fill-opacity="0.5019607843137255" x="69" y="82" width="11" height="8" />
<rect fill="#1d191a" fill-opacity="0.5019607843137255" x="0" y="49" width="8" height="153" />
<rect fill="#f9cf56" fill-opacity="0.5019607843137255" x="70" y="110" width="23" height="29" />
<rect fill="#000013" fill-opacity="0.5019607843137255" x="39" y="204" width="13" height="6" />
<rect fill="#eb9127" fill-opacity="0.5019607843137255" x="61" y="195" width="14" height="16" />
</g>
</svg>