<svg xmlns="http://www.w3.org/2000/svg" version="1.1" width="507" height="768">
<rect x="0" y="0" width="507" height="768" fill="#4d3d1f" />
<g transform="scale(3) translate(0.5 0.5)">
<rect fill="#d5be58" fill-opacity="0.5019607843137255" x="2" y="0" width="167" height="65" />
<rect fill="#ffff60" fill-opacity="0.5019607843137255" x="62" y="105" width="40" height="34" />
<rect fill="#000000" fill-opacity="0.5019607843137255" x="93" y="29" width="23" height="69" />
<rect fill="#000000" fill-opacity="0.5019607843137255" x="0" y="138" width="169" height="118" />
<rect fill="#ff9a2e" fill-opacity="0.5019607843137255" x="43" y="191" width="40" height="32" />
<rect fill="#ffaa3a" fill-opacity="0.5019607843137255" x="64" y="36" width="27" height="51" />
<rect fill="#d9c463" fill-opacity="0.5019607843137255" x="0" y="19" width="55" height="33" />
<rect fill="#ffc752" fill-opacity="0.5019607843137255" x="58" y="114" width="36" height="28" />
<rect fill="#020000" fill-opacity="0.5019607843137255" x="68" y="23" width="33" height="10" />
<rect fill="#11070e" fill-opacity="0.5019607843137255" x="101" y="54" width="39" height="202" />
<rect fill="#bfb34b" fill-opacity="0.5019607843137255" x="125" y="21" width="37" height="50" />
<rect fill="#b3622c" fill-opacity="0.5019607843137255" x="7" y="132" width="20" height="30" />
<rect fill="#2b2e25" fill-opacity="0.5019607843137255" x="0" y="56" width="65" height="64" />
<rect fill="#000001" fill-opacity="0.5019607843137255" x="125" y="130" width="44" height="126" />
<rect fill="#fea93a" fill-opacity="0.5019607843137255" x="75" y="100" width="29" height="32" />
<rect fill="#000005" fill-opacity="0.5019607843137255" x="71" y="165" width="54" height="34" />
<rect fill="#fcac43" fill-opacity="0.5019607843137255" x="60" y="62" width="37" height="11" />
<rect fill="#ffca43" fill-opacity="0.5019607843137255" x="44" y="190" width="19" height="11" />
<rect fill="#803c17" fill-opacity="0.5019607843137255" x="39" y="205" width="78" height="20" />
<rect fill="#050004" fill-opacity="0.5019607843137255" x="56" y="83" width="16" height="26" />
<rect fill="#310409" fill-opacity="0.5019607843137255" x="87" y="27" width="22" height="32" />
<rect fill="#cdb15c" fill-opacity="0.5019607843137255" x="111" y="27" width="38" height="18" />
<rect fill="#000005" fill-opacity="0.5019607843137255" x="0" y="230" width="169" height="26" />
<rect fill="#22000b" fill-opacity="0.5019607843137255" x="54" y="42" width="7" height="64" />
<rect fill="#f2d56b" fill-opacity="0.5019607843137255" x="38" y="41" width="14" height="20" />
<rect fill="#ff9c29" fill-opacity="0.5019607843137255" x="55" y="200" width="31" height="9" />
<rect fill="#0c0610" fill-opacity="0.5019607843137255" x="37" y="105" width="17" height="77" />
<rect fill="#462f22" fill-opacity="0.5019607843137255" x="46" y="137" width="90" height="16" />
<rect fill="#9f5e23" fill-opacity="0.5019607843137255" x="98" y="120" width="29" height="11" />
<rect fill="#3f4f2c" fill-opacity="0.5019607843137255" x="122" y="52" width="20" height="50" />
<rect fill="#84761e" fill-opacity="0.5019607843137255" x="136" y="99" width="25" height="23" />
<rect fill="#ffde5b" fill-opacity="0.5019607843137255" x="66" y="34" width="17" height="18" />
<rect fill="#894517" fill-opacity="0.5019607843137255" x="61" y="53" width="36" height="9" />
<rect fill="#00000e" fill-opacity="0.5019607843137255" x="0" y="201" width="36" height="55" />
<rect fill="#0e1b0c" fill-opacity="0.5019607843137255" x="156" y="71" width="13" height="43" />
<rect fill="#c27325" fill-opacity="0.5019607843137255" x="44" y="211" width="9" height="21" />
<rect fill="#ffd85a" fill-opacity="0.5019607843137255" x="56" y="121" width="35" height="13" />
<rect fill="#030004" fill-opacity="0.5019607843137255" x="91" y="217" width="78" height="39" />
<rect fill="#0c080d" fill-opacity="0.5019607843137255" x="59" y="150" width="53" height="44" />
<rect fill="#0e000b" fill-opacity="0.5019607843137255" x="100" y="40" width="14" height="54" />
<rect fill="#f5aa3d" fill-opacity="0.5019607843137255" x="62" y="46" width="34" height="7" />
<rect fill="#676e51" fill-opacity="0.5019607843137255" x="21" y="92" width="31" height="11" />
<rect fill="#a8964a" fill-opacity="0.5019607843137255" x="106" y="11" width="45" height="23" />
<rect fill="#794929" fill-opacity="0.5019607843137255" x="19" y="187" width="24" height="10" />
<rect fill="#7b5d25" fill-opacity="0.5019607843137255" x="16" y="102" width="14" height="43" />
<rect fill="#e99a3f" fill-opacity="0.5019607843137255" x="69" y="82" width="11" height="8" />
<rect fill="#1d191a" fill-opacity="0.5019607843137255" x="0" y="49" width="8" height="153" />
<rect fill="#f9cf56" fill-opacity="0.5019607843137255" x="70" y="110" width="23" height="29" />
<rect fill="#000013" fill-opacity="0.5019607843137255" x="39" y="204" width="13" height="6" />
<rect fill="#eb9127" fill-opacity="0.5019607843137255" x="61" y="195" width="14" height="16" />
<rect fill="#100009" fill-opacity="0.5019607843137255" x="121" y="126" width="36" height="18" />
<rect fill="#633b20" fill-opacity="0.5019607843137255" x="50" y="133" width="21" height="12" />
<rect fill="#cfb65b" fill-opacity="0.5019607843137255" x="11" y="32" width="46" height="15" />
<rect fill="#5d703d" fill-opacity="0.5019607843137255" x="0" y="0" width="169" height="7" />
<rect fill="#6c3619" fill-opacity="0.5019607843137255" x="75" y="60" width="5" height="25" />
<rect fill="#7f3e19" fill-opacity="0.5019607843137255" x="99" y="103" width="13" height="32" />
<rect fill="#30030a" fill-opacity="0.5019607843137255" x="78" y="21" width="15" height="14" />
<rect fill="#5c4228" fill-opacity="0.5019607843137255" x="115" y="146" width="16" height="14" />
<rect fill="#060008" fill-opacity="0.5019607843137255" x="64" y="89" width="12" height="17" />
<rect fill="#481913" fill-opacity="0.5019607843137255" x="152" y="130" width="15" height="33" />
<rect fill="#2a2319" fill-opacity="0.5019607843137255" x="86" y="83" width="83" height="15" />
<rect fill="#9c9146" fill-opacity="0.5019607843137255" x="0" y="11" width="72" height="16" />
<rect fill="#070307" fill-opacity="0.5019607843137255" x="79" y="183" width="90" height="19" />
<rect fill="#f6c051" fill-opacity="0.5019607843137255" x="71" y="31" width="5" height="41" />
<rect fill="#d2b94d" fill-opacity="0.5019607843137255" x="139" y="38" width="17" height="22" />
<rect fill="#5e6435" fill-opacity="0.5019607843137255" x="5" y="55" width="34" height="20" />
<rect fill="#150909" fill-opacity="0.5019607843137255" x="35" y="105" width="29" height="11" />
<rect fill="#06030d" fill-opacity="0.5019607843137255" x="0" y="172" width="19" height="61" />
<rect fill="#230c12" fill-opacity="0.5019607843137255" x="58" y="218" width="14" height="15" />
<rect fill="#250006" fill-opacity="0.5019607843137255" x="64" y="28" width="4" height="8" />
<rect fill="#96561e" fill-opacity="0.5019607843137255" x="76" y="95" width="26" height="12" />
<rect fill="#1a1011" fill-opacity="0.5019607843137255" x="103" y="101" width="43" height="7" />
<rect fill="#120d13" fill-opacity="0.5019607843137255" x="24" y="149" width="39" height="34" />
<rect fill="#b79822" fill-opacity="0.5019607843137255" x="149" y="119" width="17" height="4" />
<rect fill="#8e7026" fill-opacity="0.5019607843137255" x="4" y="152" width="16" height="9" />
<rect fill="#ada150" fill-opacity="0.5019607843137255" x="65" y="14" width="51" height="8" />
<rect fill="#120000" fill-opacity="0.5019607843137255" x="59" y="37" width="3" height="11" />
<rect fill="#efaa46" fill-opacity="0.5019607843137255" x="63" y="61" width="10" height="17" />
<rect fill="#171114" fill-opacity="0.5019607843137255" x="96" y="134" width="24" height="18" />
<rect fill="#a15619" fill-opacity="0.5019607843137255" x="58" y="206" width="43" height="6" />
<rect fill="#694723" fill-opacity="0.5019607843137255" x="64" y="138" width="20" height="14" />
<rect fill="#ffaf3f" fill-opacity="0.5019607843137255" x="48" y="189" width="9" height="11" />
<rect fill="#763920" fill-opacity="0.5019607843137255" x="89" y="68" width="8" height="17" />
<rect fill="#4f2a18" fill-opacity="0.5019607843137255" x="77" y="54" width="21" height="5" />
<rect fill="#9c5a20" fill-opacity="0.5019607843137255" x="37" y="213" width="19" height="14" />
<rect fill="#8c8022" fill-opacity="0.5019607843137255" x="159" y="6" width="10" height="64" />
<rect fill="#19080d" fill-opacity="0.5019607843137255" x="101" y="38" width="12" height="64" />
<rect fill="#3a120f" fill-opacity="0.5019607843137255" x="59" y="55" width="13" height="4" />
<rect fill="#50522b" fill-opacity="0.5019607843137255" x="117" y="48" width="11" height="21" />
<rect fill="#e59831" fill-opacity="0.5019607843137255" x="91" y="58" width="7" height="5" />
<rect fill="#d2b75a" fill-opacity="0.5019607843137255" x="54" y="25" width="7" height="13" />
<rect fill="#0d060a" fill-opacity="0.5019607843137255" x="134" y="121" width="14" height="62" />
<rect fill="#9a732b" fill-opacity="0.5019607843137255" x="111" y="123" width="18" height="5" />
<rect fill="#f2c952" fill-opacity="0.5019607843137255" x="63" y="115" width="31" height="20" />
<rect fill="#552a17" fill-opacity="0.5019607843137255" x="107" y="204" width="20" height="11" />
<rect fill="#6e6c37" fill-opacity="0.5019607843137255" x="3" y="48" width="15" height="19" />
<rect fill="#010004" fill-opacity="0.5019607843137255" x="58" y="41" width="2" height="28" />
<rect fill="#856922" fill-opacity="0.5019607843137255" x="24" y="118" width="11" height="16" />
<rect fill="#271015" fill-opacity="0.5019607843137255" x="56" y="84" width="12" height="27" />
<rect fill="#9d8c2a" fill-opacity="0.5019607843137255" x="134" y="108" width="15" height="5" />
<rect fill="#08000a" fill-opacity="0.5019607843137255" x="78" y="208" width="5" height="4" />
<rect fill="#210312" fill-opacity="0.5019607843137255" x="78" y="90" width="15" height="7" />
<rect fill="#dec264" fill-opacity="0.5019607843137255" x="15" y="39" width="22" height="11" />
<rect fill="#c6b563" fill-opacity="0.5019607843137255" x="113" y="33" width="13" height="9" />
<rect fill="#88451f" fill-opacity="0.5019607843137255" x="4" y="134" width="25" height="10" />
<rect fill="#120c0b" fill-opacity="0.5019607843137255" x="74" y="166" width="61" height="32" />
<rect fill="#0a1a16" fill-opacity="0.5019607843137255" x="0" y="87" width="16" height="13" />
<rect fill="#ea962b" fill-opacity="0.5019607843137255" x="58" y="192" width="8" height="11" />
<rect fill="#0e0810" fill-opacity="0.5019607843137255" x="29" y="134" width="13" height="25" />
<rect fill="#364425" fill-opacity="0.5019607843137255" x="120" y="70" width="40" height="21" />
<rect fill="#10030c" fill-opacity="0.5019607843137255" x="92" y="31" width="16" height="9" />
<rect fill="#a57c17" fill-opacity="0.5019607843137255" x="162" y="126" width="7" height="5" />
<rect fill="#0b0008" fill-opacity="0.5019607843137255" x="73" y="73" width="6" height="3" />
<rect fill="#2a070f" fill-opacity="0.5019607843137255" x="78" y="218" width="5" height="11" />
<rect fill="#8b2e10" fill-opacity="0.5019607843137255" x="56" y="116" width="7" height="9" />
<rect fill="#b79c34" fill-opacity="0.5019607843137255" x="153" y="32" width="16" height="19" />
<rect fill="#75753c" fill-opacity="0.5019607843137255" x="0" y="6" width="6" height="33" />
<rect fill="#77381b" fill-opacity="0.5019607843137255" x="44" y="219" width="5" height="18" />
<rect fill="#45291c" fill-opacity="0.5019607843137255" x="2" y="123" width="22" height="10" />
<rect fill="#c1ab52" fill-opacity="0.5019607843137255" x="109" y="22" width="8" height="13" />
<rect fill="#1e0e12" fill-opacity="0.5019607843137255" x="96" y="58" width="23" height="36" />
<rect fill="#201314" fill-opacity="0.5019607843137255" x="45" y="69" width="17" height="14" />
<rect fill="#de9128" fill-opacity="0.5019607843137255" x="95" y="106" width="6" height="29" />
<rect fill="#4d2e1e" fill-opacity="0.5019607843137255" x="18" y="182" width="20" height="20" />
<rect fill="#a99547" fill-opacity="0.5019607843137255" x="10" y="16" width="56" height="14" />
<rect fill="#0a0508" fill-opacity="0.5019607843137255" x="50" y="228" width="112" height="28" />
<rect fill="#f4b443" fill-opacity="0.5019607843137255" x="80" y="59" width="6" height="16" />
<rect fill="#0c0000" fill-opacity="0.5019607843137255" x="62" y="33" width="2" height="5" />
<rect fill="#0b0608" fill-opacity="0.5019607843137255" x="91" y="145" width="17" height="60" />
<rect fill="#ffc953" fill-opacity="0.5019607843137255" x="72" y="84" width="7" height="4" />
<rect fill="#6f6e45" fill-opacity="0.5019607843137255" x="40" y="89" width="11" height="10" />
<rect fill="#ff9928" fill-opacity="0.5019607843137255" x="80" y="204" width="7" height="5" />
<rect fill="#2f241c" fill-opacity="0.5019607843137255" x="72" y="147" width="10" height="27" />
<rect fill="#040308" fill-opacity="0.5019607843137255" x="64" y="180" width="17" height="13" />
<rect fill="#14140a" fill-opacity="0.5019607843137255" x="165" y="70" width="4" height="50" />
<rect fill="#e2ca6b" fill-opacity="0.5019607843137255" x="39" y="51" width="12" height="8" />
<rect fill="#1f0c12" fill-opacity="0.5019607843137255" x="112" y="87" width="10" height="36" />
<rect fill="#f3ab3a" fill-opacity="0.5019607843137255" x="61" y="59" width="5" height="9" />
<rect fill="#030003" fill-opacity="0.5019607843137255" x="136" y="192" width="33" height="38" />
<rect fill="#d88a2d" fill-opacity="0.5019607843137255" x="67" y="33" width="17" height="4" />
<rect fill="#96862c" fill-opacity="0.5019607843137255" x="19" y="116" width="7" height="8" />
<rect fill="#4d4727" fill-opacity="0.5019607843137255" x="3" y="102" width="30" height="17" />
<rect fill="#f59524" fill-opacity="0.5019607843137255" x="75" y="210" width="5" height="4" />
<rect fill="#110c0c" fill-opacity="0.5019607843137255" x="43" y="163" width="90" height="26" />
<rect fill="#d78d27" fill-opacity="0.5019607843137255" x="82" y="38" width="7" height="16" />
<rect fill="#909849" fill-opacity="0.5019607843137255" x="137" y="68" width="14" height="4" />
<rect fill="#75631f" fill-opacity="0.5019607843137255" x="145" y="98" width="15" height="24" />
<rect fill="#4c3b1b" fill-opacity="0.5019607843137255" x="31" y="112" width="10" height="13" />
<rect fill="#3e4525" fill-opacity="0.5019607843137255" x="118" y="58" width="22" height="9" />
<rect fill="#05070f" fill-opacity="0.5019607843137255" x="9" y="207" width="38" height="4" />
<rect fill="#a48e41" fill-opacity="0.5019607843137255" x="105" y="22" width="60" height="8" />
<rect fill="#6c281a" fill-opacity="0.5019607843137255" x="71" y="23" width="9" height="10" />
<rect fill="#384028" fill-opacity="0.5019607843137255" x="7" y="64" width="35" height="29" />
<rect fill="#517543" fill-opacity="0.5019607843137255" x="43" y="0" width="126" height="2" />
<rect fill="#58181c" fill-opacity="0.5019607843137255" x="6" y="145" width="23" height="6" />
<rect fill="#c2b045" fill-opacity="0.5019607843137255" x="144" y="44" width="14" height="23" />
<rect fill="#7c461e" fill-opacity="0.5019607843137255" x="95" y="44" width="4" height="25" />
<rect fill="#513a26" fill-opacity="0.5019607843137255" x="3" y="159" width="13" height="11" />
<rect fill="#371a13" fill-opacity="0.5019607843137255" x="96" y="210" width="35" height="8" />
<rect fill="#555429" fill-opacity="0.5019607843137255" x="128" y="96" width="18" height="7" />
<rect fill="#0a030c" fill-opacity="0.5019607843137255" x="42" y="121" width="10" height="12" />
<rect fill="#ab9a48" fill-opacity="0.5019607843137255" x="97" y="19" width="13" height="6" />
<rect fill="#744c23" fill-opacity="0.5019607843137255" x="65" y="139" width="27" height="7" />
<rect fill="#08080a" fill-opacity="0.5019607843137255" x="150" y="150" width="8" height="52" />
<rect fill="#150b0e" fill-opacity="0.5019607843137255" x="50" y="102" width="10" height="17" />
<rect fill="#e8a045" fill-opacity="0.5019607843137255" x="67" y="80" width="7" height="5" />
<rect fill="#3b2c20" fill-opacity="0.5019607843137255" x="112" y="139" width="9" height="24" />
<rect fill="#774917" fill-opacity="0.5019607843137255" x="91" y="136" width="9" height="5" />
<rect fill="#bea854" fill-opacity="0.5019607843137255" x="4" y="32" width="54" height="13" />
<rect fill="#bd8733" fill-opacity="0.5019607843137255" x="77" y="96" width="5" height="11" />
<rect fill="#c28024" fill-opacity="0.5019607843137255" x="47" y="212" width="7" height="13" />
<rect fill="#8f4c1c" fill-opacity="0.5019607843137255" x="78" y="77" width="7" height="12" />
<rect fill="#36271d" fill-opacity="0.5019607843137255" x="30" y="164" width="12" height="13" />
<rect fill="#6c4c2c" fill-opacity="0.5019607843137255" x="120" y="118" width="10" height="7" />
<rect fill="#bda754" fill-opacity="0.5019607843137255" x="62" y="21" width="11" height="4" />
<rect fill="#99371d" fill-opacity="0.5019607843137255" x="89" y="222" width="4" height="5" />
<rect fill="#e9a73a" fill-opacity="0.5019607843137255" x="55" y="123" width="10" height="8" />
<rect fill="#837a3a" fill-opacity="0.5019607843137255" x="6" y="3" width="163" height="9" />
<rect fill="#0f0b0d" fill-opacity="0.5019607843137255" x="115" y="129" width="31" height="9" />
<rect fill="#16080b" fill-opacity="0.5019607843137255" x="107" y="44" width="8" height="60" />
<rect fill="#6c6c28" fill-opacity="0.5019607843137255" x="161" y="52" width="8" height="19" />
<rect fill="#230f0f" fill-opacity="0.5019607843137255" x="88" y="26" width="15" height="11" />
<rect fill="#d38a2a" fill-opacity="0.5019607843137255" x="40" y="196" width="33" height="4" />
<rect fill="#868743" fill-opacity="0.5019607843137255" x="123" y="67" width="25" height="3" />
<rect fill="#13080f" fill-opacity="0.5019607843137255" x="63" y="86" width="7" height="21" />
<rect fill="#473522" fill-opacity="0.5019607843137255" x="47" y="136" width="22" height="10" />
<rect fill="#522419" fill-opacity="0.5019607843137255" x="103" y="101" width="12" height="23" />
<rect fill="#b85014" fill-opacity="0.5019607843137255" x="82" y="216" width="5" height="5" />
<rect fill="#f5ce59" fill-opacity="0.5019607843137255" x="70" y="36" width="8" height="18" />
<rect fill="#f3dc67" fill-opacity="0.5019607843137255" x="76" y="125" width="11" height="13" />
<rect fill="#0e0909" fill-opacity="0.5019607843137255" x="85" y="156" width="11" height="50" />
<rect fill="#f58f21" fill-opacity="0.5019607843137255" x="73" y="217" width="3" height="4" />
<rect fill="#723118" fill-opacity="0.5019607843137255" x="155" y="145" width="7" height="5" />
<rect fill="#57602b" fill-opacity="0.5019607843137255" x="165" y="0" width="4" height="19" />
<rect fill="#e59f38" fill-opacity="0.5019607843137255" x="67" y="108" width="32" height="6" />
<rect fill="#3f2019" fill-opacity="0.5019607843137255" x="53" y="50" width="5" height="52" />
<rect fill="#4a5d4e" fill-opacity="0.5019607843137255" x="7" y="102" width="15" height="5" />
<rect fill="#321d13" fill-opacity="0.5019607843137255" x="0" y="110" width="13" height="15" />
<rect fill="#a08b2d" fill-opacity="0.5019607843137255" x="138" y="109" width="8" height="7" />
<rect fill="#191214" fill-opacity="0.5019607843137255" x="36" y="193" width="5" height="20" />
</g>
</svg>