<svg xmlns="http://www.w3.org/2000/svg" version="1.1" width="507" height="768">
<rect x="0" y="0" width="507" height="768" fill="#4d3d1f" />
<g transform="scale(3) translate(0.5 0.5)">
<g transform="translate(96.718453 30.291231) rotate(92.179573) scale(39.814849 128.764187)"><ellipse fill="#d3bc56" fill-opacity="0.5019607843137255" cx="0" cy="0" rx="1" ry="1" /></g>
<g transform="translate(81.436097 122.031505) rotate(62.850098) scale(18.218646 23.978357)"><ellipse fill="#ffff5f" fill-opacity="0.5019607843137255" cx="0" cy="0" rx="1" ry="1" /></g>
<g transform="translate(125.022505 219.844999) rotate(283.485496) scale(97.257763 62.381323)"><ellipse fill="#000000" fill-opacity="0.5019607843137255" cx="0" cy="0" rx="1" ry="1" /></g>
<g transform="translate(111.013167 72.440972) rotate(69.553677) scale(53.390447 15.899957)"><ellipse fill="#000002" fill-opacity="0.5019607843137255" cx="0" cy="0" rx="1" ry="1" /></g>
<g transform="translate(16.934478 235.492593) rotate(331.247570) scale(33.794849 168.000000)"><ellipse fill="#000001" fill-opacity="0.5019607843137255" cx="0" cy="0" rx="1" ry="1" /></g>
<g transform="translate(69.175686 206.224712) rotate(27.675134) scale(29.820979 11.330159)"><ellipse fill="#ff9629" fill-opacity="0.5019607843137255" cx="0" cy="0" rx="1" ry="1" /></g>
<g transform="translate(78.906664 59.492562) rotate(274.650067) scale(27.859126 17.780443)"><ellipse fill="#ffa036" fill-opacity="0.5019607843137255" cx="0" cy="0" rx="1" ry="1" /></g>
<g transform="translate(60.290233 163.650771) rotate(354.958073) scale(43.608031 26.292545)"><ellipse fill="#000009" fill-opacity="0.5019607843137255" cx="0" cy="0" rx="1" ry="1" /></g>
<g transform="translate(31.314048 36.407346) rotate(282.012140) scale(19.066312 27.737520)"><ellipse fill="#dfc866" fill-opacity="0.5019607843137255" cx="0" cy="0" rx="1" ry="1" /></g>
<g transform="translate(79.145131 124.640829) rotate(162.217149) scale(23.278109 17.664126)"><ellipse fill="#ffb947" fill-opacity="0.5019607843137255" cx="0" cy="0" rx="1" ry="1" /></g>
<g transform="translate(143.123891 227.955141) rotate(214.576906) scale(59.070203 106.004676)"><ellipse fill="#000002" fill-opacity="0.5019607843137255" cx="0" cy="0" rx="1" ry="1" /></g>
<g transform="translate(137.545822 34.939466) rotate(116.321066) scale(16.705980 35.121958)"><ellipse fill="#cab551" fill-opacity="0.5019607843137255" cx="0" cy="0" rx="1" ry="1" /></g>
<g transform="translate(96.619438 38.246547) rotate(39.789145) scale(25.626521 8.327307)"><ellipse fill="#140003" fill-opacity="0.5019607843137255" cx="0" cy="0" rx="1" ry="1" /></g>
<g transform="translate(45.868872 128.110528) rotate(28.829873) scale(7.343062 48.306419)"><ellipse fill="#01000a" fill-opacity="0.5019607843137255" cx="0" cy="0" rx="1" ry="1" /></g>
<g transform="translate(54.942261 62.850792) rotate(282.762171) scale(23.247158 4.894978)"><ellipse fill="#16000b" fill-opacity="0.5019607843137255" cx="0" cy="0" rx="1" ry="1" /></g>
<g transform="translate(58.007601 212.899115) rotate(237.356678) scale(10.039120 24.540454)"><ellipse fill="#c96b1f" fill-opacity="0.5019607843137255" cx="0" cy="0" rx="1" ry="1" /></g>
<g transform="translate(29.292965 255.000000) rotate(58.238245) scale(133.021531 25.249242)"><ellipse fill="#00000b" fill-opacity="0.5019607843137255" cx="0" cy="0" rx="1" ry="1" /></g>
<g transform="translate(90.791831 56.131038) rotate(269.302134) scale(2.752106 39.518137)"><ellipse fill="#341310" fill-opacity="0.5019607843137255" cx="0" cy="0" rx="1" ry="1" /></g>
<g transform="translate(94.174412 215.202019) rotate(344.437187) scale(29.117217 8.991233)"><ellipse fill="#7b371a" fill-opacity="0.5019607843137255" cx="0" cy="0" rx="1" ry="1" /></g>
<g transform="translate(119.296781 78.986840) rotate(172.812928) scale(26.180970 29.866213)"><ellipse fill="#25211d" fill-opacity="0.5019607843137255" cx="0" cy="0" rx="1" ry="1" /></g>
<g transform="translate(18.761646 140.409682) rotate(195.647986) scale(12.197779 30.983123)"><ellipse fill="#7e4b21" fill-opacity="0.5019607843137255" cx="0" cy="0" rx="1" ry="1" /></g>
<g transform="translate(74.160693 44.311633) rotate(180.825667) scale(9.175654 10.939258)"><ellipse fill="#ffde5a" fill-opacity="0.5019607843137255" cx="0" cy="0" rx="1" ry="1" /></g>
<g transform="translate(28.009179 87.872079) rotate(255.971789) scale(27.655945 35.538927)"><ellipse fill="#2b362b" fill-opacity="0.5019607843137255" cx="0" cy="0" rx="1" ry="1" /></g>
<g transform="translate(84.370466 246.378143) rotate(348.162646) scale(99.856196 24.340531)"><ellipse fill="#040008" fill-opacity="0.5019607843137255" cx="0" cy="0" rx="1" ry="1" /></g>
<g transform="translate(59.613050 199.190258) rotate(20.041396) scale(17.326348 6.965302)"><ellipse fill="#f8aa32" fill-opacity="0.5019607843137255" cx="0" cy="0" rx="1" ry="1" /></g>
<g transform="translate(64.920562 143.442052) rotate(95.753692) scale(8.087366 26.063622)"><ellipse fill="#563823" fill-opacity="0.5019607843137255" cx="0" cy="0" rx="1" ry="1" /></g>
<g transform="translate(78.956935 125.194193) rotate(190.641155) scale(15.019530 12.630596)"><ellipse fill="#ffe15f" fill-opacity="0.5019607843137255" cx="0" cy="0" rx="1" ry="1" /></g>
<g transform="translate(79.707406 27.492091) rotate(166.171657) scale(17.761073 4.858553)"><ellipse fill="#37070d" fill-opacity="0.5019607843137255" cx="0" cy="0" rx="1" ry="1" /></g>
<g transform="translate(81.310345 176.881275) rotate(275.024823) scale(18.694601 39.004745)"><ellipse fill="#040109" fill-opacity="0.5019607843137255" cx="0" cy="0" rx="1" ry="1" /></g>
<g transform="translate(152.359095 116.667848) rotate(291.767961) scale(6.985642 14.700408)"><ellipse fill="#98841d" fill-opacity="0.5019607843137255" cx="0" cy="0" rx="1" ry="1" /></g>
<g transform="translate(90.181504 105.442119) rotate(106.338909) scale(8.196205 14.977389)"><ellipse fill="#ce7422" fill-opacity="0.5019607843137255" cx="0" cy="0" rx="1" ry="1" /></g>
<g transform="translate(168.000000 95.970206) rotate(266.815476) scale(26.192550 8.368993)"><ellipse fill="#061207" fill-opacity="0.5019607843137255" cx="0" cy="0" rx="1" ry="1" /></g>
<g transform="translate(147.730683 54.663562) rotate(77.918452) scale(17.980987 8.027582)"><ellipse fill="#ccbe4d" fill-opacity="0.5019607843137255" cx="0" cy="0" rx="1" ry="1" /></g>
<g transform="translate(108.609173 66.050452) rotate(176.815205) scale(8.798604 30.515765)"><ellipse fill="#0c0007" fill-opacity="0.5019607843137255" cx="0" cy="0" rx="1" ry="1" /></g>
<g transform="translate(109.382274 128.565933) rotate(342.663604) scale(21.076309 3.012818)"><ellipse fill="#bf7c2a" fill-opacity="0.5019607843137255" cx="0" cy="0" rx="1" ry="1" /></g>
<g transform="translate(65.565248 91.061106) rotate(323.905616) scale(5.724583 18.641425)"><ellipse fill="#160009" fill-opacity="0.5019607843137255" cx="0" cy="0" rx="1" ry="1" /></g>
<g transform="translate(16.743534 58.570268) rotate(178.855892) scale(23.210776 7.858656)"><ellipse fill="#656736" fill-opacity="0.5019607843137255" cx="0" cy="0" rx="1" ry="1" /></g>
<g transform="translate(0.000000 98.548651) rotate(86.999557) scale(59.103416 6.677000)"><ellipse fill="#151117" fill-opacity="0.5019607843137255" cx="0" cy="0" rx="1" ry="1" /></g>
<g transform="translate(68.989343 75.320310) rotate(155.217685) scale(4.856657 17.044083)"><ellipse fill="#e69c40" fill-opacity="0.5019607843137255" cx="0" cy="0" rx="1" ry="1" /></g>
<g transform="translate(32.412958 101.342891) rotate(68.705218) scale(6.735122 23.098520)"><ellipse fill="#605d3e" fill-opacity="0.5019607843137255" cx="0" cy="0" rx="1" ry="1" /></g>
<g transform="translate(100.589961 0.000000) rotate(89.515733) scale(7.474462 159.065926)"><ellipse fill="#60713e" fill-opacity="0.5019607843137255" cx="0" cy="0" rx="1" ry="1" /></g>
<g transform="translate(44.387591 49.710590) rotate(63.399792) scale(10.821597 8.580749)"><ellipse fill="#e0c463" fill-opacity="0.5019607843137255" cx="0" cy="0" rx="1" ry="1" /></g>
<g transform="translate(106.437975 116.827213) rotate(375.240068) scale(6.311168 14.069986)"><ellipse fill="#6f2110" fill-opacity="0.5019607843137255" cx="0" cy="0" rx="1" ry="1" /></g>
<g transform="translate(56.436412 109.856170) rotate(128.388832) scale(23.572437 10.337749)"><ellipse fill="#240e10" fill-opacity="0.5019607843137255" cx="0" cy="0" rx="1" ry="1" /></g>
<g transform="translate(48.755235 206.760116) rotate(123.454737) scale(3.490700 37.998020)"><ellipse fill="#562a17" fill-opacity="0.5019607843137255" cx="0" cy="0" rx="1" ry="1" /></g>
<g transform="translate(139.870863 134.702904) rotate(340.242679) scale(9.166138 16.068418)"><ellipse fill="#030009" fill-opacity="0.5019607843137255" cx="0" cy="0" rx="1" ry="1" /></g>
<g transform="translate(51.404508 21.765155) rotate(258.671343) scale(7.686092 47.546601)"><ellipse fill="#a79849" fill-opacity="0.5019607843137255" cx="0" cy="0" rx="1" ry="1" /></g>
<g transform="translate(132.631750 76.852347) rotate(86.264836) scale(25.452998 12.627248)"><ellipse fill="#4a582d" fill-opacity="0.5019607843137255" cx="0" cy="0" rx="1" ry="1" /></g>
<g transform="translate(49.657720 223.544546) rotate(201.543205) scale(3.803689 10.659173)"><ellipse fill="#ba6720" fill-opacity="0.5019607843137255" cx="0" cy="0" rx="1" ry="1" /></g>
<g transform="translate(156.000657 221.649673) rotate(258.249604) scale(54.219167 22.540869)"><ellipse fill="#010003" fill-opacity="0.5019607843137255" cx="0" cy="0" rx="1" ry="1" /></g>
</g>
</svg>