<svg xmlns="http://www.w3.org/2000/svg" version="1.1" width="507" height="768">
<rect x="0" y="0" width="507" height="768" fill="#4d3d1f" />
<g transform="scale(3) translate(0.5 0.5)">
<g transform="translate(46 26) rotate(195) scale(108 76)"><rect fill="#e8c85d" fill-opacity="0.5019607843137255" x="-0.5" y="-0.5" width="1" height="1" /></g>
<g transform="translate(148 24) rotate(138) scale(71 78)"><rect fill="#e7da5f" fill-opacity="0.5019607843137255" x="-0.5" y="-0.5" width="1" height="1" /></g>
<g transform="translate(81 123) rotate(314) scale(43 35)"><rect fill="#fffb5c" fill-opacity="0.5019607843137255" x="-0.5" y="-0.5" width="1" height="1" /></g>
<g transform="translate(127 204) rotate(166) scale(107 146)"><rect fill="#000000" fill-opacity="0.5019607843137255" x="-0.5" y="-0.5" width="1" height="1" /></g>
<g transform="translate(0 230) rotate(-47) scale(101 238)"><rect fill="#000001" fill-opacity="0.5019607843137255" x="-0.5" y="-0.5" width="1" height="1" /></g>
<g transform="translate(63 208) rotate(188) scale(41 31)"><rect fill="#fa8b26" fill-opacity="0.5019607843137255" x="-0.5" y="-0.5" width="1" height="1" /></g>
<g transform="translate(105 56) rotate(67) scale(80 19)"><rect fill="#040003" fill-opacity="0.5019607843137255" x="-0.5" y="-0.5" width="1" height="1" /></g>
<g transform="translate(45 163) rotate(381) scale(46 44)"><rect fill="#000008" fill-opacity="0.5019607843137255" x="-0.5" y="-0.5" width="1" height="1" /></g>
<g transform="translate(83 122) rotate(94) scale(31 34)"><rect fill="#ffcf50" fill-opacity="0.5019607843137255" x="-0.5" y="-0.5" width="1" height="1" /></g>
<g transform="translate(76 61) rotate(178) scale(24 53)"><rect fill="#fea237" fill-opacity="0.5019607843137255" x="-0.5" y="-0.5" width="1" height="1" /></g>
<g transform="translate(139 233) rotate(252) scale(151 87)"><rect fill="#000002" fill-opacity="0.5019607843137255" x="-0.5" y="-0.5" width="1" height="1" /></g>
<g transform="translate(29 38) rotate(377) scale(51 29)"><rect fill="#ddca66" fill-opacity="0.5019607843137255" x="-0.5" y="-0.5" width="1" height="1" /></g>
<g transform="translate(77 215) rotate(170) scale(83 15)"><rect fill="#8b431a" fill-opacity="0.5019607843137255" x="-0.5" y="-0.5" width="1" height="1" /></g>
<g transform="translate(52 116) rotate(299) scale(68 14)"><rect fill="#00000a" fill-opacity="0.5019607843137255" x="-0.5" y="-0.5" width="1" height="1" /></g>
<g transform="translate(57 63) rotate(188) scale(8 51)"><rect fill="#150007" fill-opacity="0.5019607843137255" x="-0.5" y="-0.5" width="1" height="1" /></g>
<g transform="translate(22 241) rotate(324) scale(47 124)"><rect fill="#00000b" fill-opacity="0.5019607843137255" x="-0.5" y="-0.5" width="1" height="1" /></g>
<g transform="translate(122 108) rotate(148) scale(18 86)"><rect fill="#09000c" fill-opacity="0.5019607843137255" x="-0.5" y="-0.5" width="1" height="1" /></g>
<g transform="translate(64 200) rotate(205) scale(35 11)"><rect fill="#ffae32" fill-opacity="0.5019607843137255" x="-0.5" y="-0.5" width="1" height="1" /></g>
<g transform="translate(86 29) rotate(102) scale(13 34)"><rect fill="#210005" fill-opacity="0.5019607843137255" x="-0.5" y="-0.5" width="1" height="1" /></g>
<g transform="translate(84 4) rotate(85) scale(37 208)"><rect fill="#7e7f40" fill-opacity="0.5019607843137255" x="-0.5" y="-0.5" width="1" height="1" /></g>
<g transform="translate(73 241) rotate(207) scale(46 35)"><rect fill="#000007" fill-opacity="0.5019607843137255" x="-0.5" y="-0.5" width="1" height="1" /></g>
<g transform="translate(86 64) rotate(377) scale(20 40)"><rect fill="#b06622" fill-opacity="0.5019607843137255" x="-0.5" y="-0.5" width="1" height="1" /></g>
<g transform="translate(74 179) rotate(295) scale(32 62)"><rect fill="#03000a" fill-opacity="0.5019607843137255" x="-0.5" y="-0.5" width="1" height="1" /></g>
<g transform="translate(138 42) rotate(203) scale(46 24)"><rect fill="#ceb554" fill-opacity="0.5019607843137255" x="-0.5" y="-0.5" width="1" height="1" /></g>
<g transform="translate(153 119) rotate(209) scale(36 9)"><rect fill="#a38920" fill-opacity="0.5019607843137255" x="-0.5" y="-0.5" width="1" height="1" /></g>
<g transform="translate(101 117) rotate(165) scale(11 37)"><rect fill="#b35719" fill-opacity="0.5019607843137255" x="-0.5" y="-0.5" width="1" height="1" /></g>
<g transform="translate(153 86) rotate(36) scale(67 25)"><rect fill="#25381e" fill-opacity="0.5019607843137255" x="-0.5" y="-0.5" width="1" height="1" /></g>
<g transform="translate(20 83) rotate(52) scale(31 58)"><rect fill="#24382d" fill-opacity="0.5019607843137255" x="-0.5" y="-0.5" width="1" height="1" /></g>
<g transform="translate(73 58) rotate(353) scale(43 6)"><rect fill="#512311" fill-opacity="0.5019607843137255" x="-0.5" y="-0.5" width="1" height="1" /></g>
<g transform="translate(74 45) rotate(222) scale(17 21)"><rect fill="#ffd655" fill-opacity="0.5019607843137255" x="-0.5" y="-0.5" width="1" height="1" /></g>
<g transform="translate(20 141) rotate(195) scale(17 42)"><rect fill="#955622" fill-opacity="0.5019607843137255" x="-0.5" y="-0.5" width="1" height="1" /></g>
<g transform="translate(79 125) rotate(103) scale(24 36)"><rect fill="#ffcb54" fill-opacity="0.5019607843137255" x="-0.5" y="-0.5" width="1" height="1" /></g>
<g transform="translate(78 97) rotate(244) scale(13 93)"><rect fill="#220b10" fill-opacity="0.5019607843137255" x="-0.5" y="-0.5" width="1" height="1" /></g>
<g transform="translate(69 143) rotate(100) scale(13 45)"><rect fill="#5a3323" fill-opacity="0.5019607843137255" x="-0.5" y="-0.5" width="1" height="1" /></g>
<g transform="translate(19 61) rotate(18) scale(31 18)"><rect fill="#6d6f39" fill-opacity="0.5019607843137255" x="-0.5" y="-0.5" width="1" height="1" /></g>
<g transform="translate(128 59) rotate(176) scale(21 22)"><rect fill="#606b38" fill-opacity="0.5019607843137255" x="-0.5" y="-0.5" width="1" height="1" /></g>
<g transform="translate(41 208) rotate(171) scale(25 6)"><rect fill="#00000f" fill-opacity="0.5019607843137255" x="-0.5" y="-0.5" width="1" height="1" /></g>
<g transform="translate(40 29) rotate(105) scale(26 41)"><rect fill="#bea650" fill-opacity="0.5019607843137255" x="-0.5" y="-0.5" width="1" height="1" /></g>
<g transform="translate(77 65) rotate(2) scale(32 12)"><rect fill="#eeac40" fill-opacity="0.5019607843137255" x="-0.5" y="-0.5" width="1" height="1" /></g>
<g transform="translate(97 19) rotate(198) scale(30 8)"><rect fill="#bea850" fill-opacity="0.5019607843137255" x="-0.5" y="-0.5" width="1" height="1" /></g>
<g transform="translate(148 234) rotate(318) scale(108 55)"><rect fill="#000003" fill-opacity="0.5019607843137255" x="-0.5" y="-0.5" width="1" height="1" /></g>
<g transform="translate(68 31) rotate(132) scale(21 3)"><rect fill="#240008" fill-opacity="0.5019607843137255" x="-0.5" y="-0.5" width="1" height="1" /></g>
<g transform="translate(116 126) rotate(249) scale(7 31)"><rect fill="#976729" fill-opacity="0.5019607843137255" x="-0.5" y="-0.5" width="1" height="1" /></g>
<g transform="translate(0 102) rotate(90) scale(104 12)"><rect fill="#131219" fill-opacity="0.5019607843137255" x="-0.5" y="-0.5" width="1" height="1" /></g>
<g transform="translate(89 105) rotate(372) scale(28 11)"><rect fill="#ca7b25" fill-opacity="0.5019607843137255" x="-0.5" y="-0.5" width="1" height="1" /></g>
<g transform="translate(85 208) rotate(43) scale(12 3)"><rect fill="#ff9a27" fill-opacity="0.5019607843137255" x="-0.5" y="-0.5" width="1" height="1" /></g>
<g transform="translate(49 221) rotate(333) scale(16 17)"><rect fill="#af6822" fill-opacity="0.5019607843137255" x="-0.5" y="-0.5" width="1" height="1" /></g>
<g transform="translate(101 0) rotate(90) scale(16 135)"><rect fill="#656d39" fill-opacity="0.5019607843137255" x="-0.5" y="-0.5" width="1" height="1" /></g>
<g transform="translate(57 79) rotate(340) scale(11 36)"><rect fill="#1f0b16" fill-opacity="0.5019607843137255" x="-0.5" y="-0.5" width="1" height="1" /></g>
<g transform="translate(168 63) rotate(-4) scale(55 13)"><rect fill="#a79d35" fill-opacity="0.5019607843137255" x="-0.5" y="-0.5" width="1" height="1" /></g>
<g transform="translate(22 175) rotate(179) scale(62 27)"><rect fill="#170d12" fill-opacity="0.5019607843137255" x="-0.5" y="-0.5" width="1" height="1" /></g>
<g transform="translate(109 108) rotate(182) scale(14 35)"><rect fill="#3a0e11" fill-opacity="0.5019607843137255" x="-0.5" y="-0.5" width="1" height="1" /></g>
<g transform="translate(106 47) rotate(160) scale(16 27)"><rect fill="#14000b" fill-opacity="0.5019607843137255" x="-0.5" y="-0.5" width="1" height="1" /></g>
<g transform="translate(25 190) rotate(136) scale(11 16)"><rect fill="#774727" fill-opacity="0.5019607843137255" x="-0.5" y="-0.5" width="1" height="1" /></g>
<g transform="translate(70 79) rotate(236) scale(24 5)"><rect fill="#f3a746" fill-opacity="0.5019607843137255" x="-0.5" y="-0.5" width="1" height="1" /></g>
<g transform="translate(35 99) rotate(73) scale(8 34)"><rect fill="#616d54" fill-opacity="0.5019607843137255" x="-0.5" y="-0.5" width="1" height="1" /></g>
<g transform="translate(168 108) rotate(84) scale(73 11)"><rect fill="#171006" fill-opacity="0.5019607843137255" x="-0.5" y="-0.5" width="1" height="1" /></g>
<g transform="translate(88 174) rotate(30) scale(24 51)"><rect fill="#09060a" fill-opacity="0.5019607843137255" x="-0.5" y="-0.5" width="1" height="1" /></g>
<g transform="translate(147 109) rotate(121) scale(25 6)"><rect fill="#8f7922" fill-opacity="0.5019607843137255" x="-0.5" y="-0.5" width="1" height="1" /></g>
<g transform="translate(78 68) rotate(368) scale(3 30)"><rect fill="#5f2f19" fill-opacity="0.5019607843137255" x="-0.5" y="-0.5" width="1" height="1" /></g>
<g transform="translate(124 153) rotate(228) scale(10 18)"><rect fill="#66432e" fill-opacity="0.5019607843137255" x="-0.5" y="-0.5" width="1" height="1" /></g>
<g transform="translate(83 212) rotate(309) scale(1 20)"><rect fill="#000007" fill-opacity="0.5019607843137255" x="-0.5" y="-0.5" width="1" height="1" /></g>
<g transform="translate(77 17) rotate(340) scale(28 9)"><rect fill="#ae9d4d" fill-opacity="0.5019607843137255" x="-0.5" y="-0.5" width="1" height="1" /></g>
<g transform="translate(62 118) rotate(310) scale(28 3)"><rect fill="#a84b1b" fill-opacity="0.5019607843137255" x="-0.5" y="-0.5" width="1" height="1" /></g>
<g transform="translate(86 221) rotate(387) scale(19 5)"><rect fill="#833316" fill-opacity="0.5019607843137255" x="-0.5" y="-0.5" width="1" height="1" /></g>
<g transform="translate(88 141) rotate(65) scale(5 55)"><rect fill="#614421" fill-opacity="0.5019607843137255" x="-0.5" y="-0.5" width="1" height="1" /></g>
<g transform="translate(26 123) rotate(131) scale(8 26)"><rect fill="#837127" fill-opacity="0.5019607843137255" x="-0.5" y="-0.5" width="1" height="1" /></g>
<g transform="translate(116 32) rotate(69) scale(36 11)"><rect fill="#b49e55" fill-opacity="0.5019607843137255" x="-0.5" y="-0.5" width="1" height="1" /></g>
<g transform="translate(31 46) rotate(21) scale(42 8)"><rect fill="#dec264" fill-opacity="0.5019607843137255" x="-0.5" y="-0.5" width="1" height="1" /></g>
<g transform="translate(69 93) rotate(331) scale(6 24)"><rect fill="#070007" fill-opacity="0.5019607843137255" x="-0.5" y="-0.5" width="1" height="1" /></g>
<g transform="translate(52 195) rotate(282) scale(6 18)"><rect fill="#f7b840" fill-opacity="0.5019607843137255" x="-0.5" y="-0.5" width="1" height="1" /></g>
<g transform="translate(105 193) rotate(356) scale(30 23)"><rect fill="#060408" fill-opacity="0.5019607843137255" x="-0.5" y="-0.5" width="1" height="1" /></g>
<g transform="translate(79 219) rotate(222) scale(20 1)"><rect fill="#060007" fill-opacity="0.5019607843137255" x="-0.5" y="-0.5" width="1" height="1" /></g>
<g transform="translate(65 56) rotate(181) scale(13 5)"><rect fill="#4c190f" fill-opacity="0.5019607843137255" x="-0.5" y="-0.5" width="1" height="1" /></g>
<g transform="translate(133 90) rotate(25) scale(31 26)"><rect fill="#2f3722" fill-opacity="0.5019607843137255" x="-0.5" y="-0.5" width="1" height="1" /></g>
<g transform="translate(59 55) rotate(357) scale(1 27)"><rect fill="#000002" fill-opacity="0.5019607843137255" x="-0.5" y="-0.5" width="1" height="1" /></g>
<g transform="translate(65 129) rotate(23) scale(15 11)"><rect fill="#f8ba45" fill-opacity="0.5019607843137255" x="-0.5" y="-0.5" width="1" height="1" /></g>
<g transform="translate(0 0) rotate(135) scale(128 19)"><rect fill="#535c2f" fill-opacity="0.5019607843137255" x="-0.5" y="-0.5" width="1" height="1" /></g>
<g transform="translate(16 125) rotate(308) scale(7 20)"><rect fill="#2d201b" fill-opacity="0.5019607843137255" x="-0.5" y="-0.5" width="1" height="1" /></g>
<g transform="translate(157 164) rotate(98) scale(44 52)"><rect fill="#12060b" fill-opacity="0.5019607843137255" x="-0.5" y="-0.5" width="1" height="1" /></g>
<g transform="translate(158 148) rotate(162) scale(5 31)"><rect fill="#5e2114" fill-opacity="0.5019607843137255" x="-0.5" y="-0.5" width="1" height="1" /></g>
<g transform="translate(46 110) rotate(273) scale(11 24)"><rect fill="#0e1210" fill-opacity="0.5019607843137255" x="-0.5" y="-0.5" width="1" height="1" /></g>
<g transform="translate(42 168) rotate(344) scale(10 45)"><rect fill="#0e0a0e" fill-opacity="0.5019607843137255" x="-0.5" y="-0.5" width="1" height="1" /></g>
<g transform="translate(90 46) rotate(158) scale(8 16)"><rect fill="#c5741d" fill-opacity="0.5019607843137255" x="-0.5" y="-0.5" width="1" height="1" /></g>
<g transform="translate(117 211) rotate(151) scale(20 10)"><rect fill="#4c2319" fill-opacity="0.5019607843137255" x="-0.5" y="-0.5" width="1" height="1" /></g>
<g transform="translate(13 140) rotate(105) scale(9 17)"><rect fill="#983f1d" fill-opacity="0.5019607843137255" x="-0.5" y="-0.5" width="1" height="1" /></g>
<g transform="translate(116 18) rotate(291) scale(25 45)"><rect fill="#a08943" fill-opacity="0.5019607843137255" x="-0.5" y="-0.5" width="1" height="1" /></g>
<g transform="translate(149 54) rotate(364) scale(14 25)"><rect fill="#cbb74b" fill-opacity="0.5019607843137255" x="-0.5" y="-0.5" width="1" height="1" /></g>
<g transform="translate(168 21) rotate(239) scale(34 17)"><rect fill="#7e6f22" fill-opacity="0.5019607843137255" x="-0.5" y="-0.5" width="1" height="1" /></g>
<g transform="translate(83 65) rotate(72) scale(5 30)"><rect fill="#e0a43f" fill-opacity="0.5019607843137255" x="-0.5" y="-0.5" width="1" height="1" /></g>
<g transform="translate(3 93) rotate(89) scale(14 23)"><rect fill="#0d1513" fill-opacity="0.5019607843137255" x="-0.5" y="-0.5" width="1" height="1" /></g>
<g transform="translate(136 69) rotate(186) scale(26 3)"><rect fill="#92924c" fill-opacity="0.5019607843137255" x="-0.5" y="-0.5" width="1" height="1" /></g>
<g transform="translate(168 61) rotate(173) scale(15 19)"><rect fill="#69661f" fill-opacity="0.5019607843137255" x="-0.5" y="-0.5" width="1" height="1" /></g>
<g transform="translate(14 233) rotate(16) scale(35 61)"><rect fill="#06040d" fill-opacity="0.5019607843137255" x="-0.5" y="-0.5" width="1" height="1" /></g>
<g transform="translate(84 218) rotate(135) scale(3 18)"><rect fill="#c7661b" fill-opacity="0.5019607843137255" x="-0.5" y="-0.5" width="1" height="1" /></g>
<g transform="translate(43 227) rotate(242) scale(19 7)"><rect fill="#652e1b" fill-opacity="0.5019607843137255" x="-0.5" y="-0.5" width="1" height="1" /></g>
<g transform="translate(112 89) rotate(160) scale(12 60)"><rect fill="#15080e" fill-opacity="0.5019607843137255" x="-0.5" y="-0.5" width="1" height="1" /></g>
<g transform="translate(82 202) rotate(118) scale(1 29)"><rect fill="#a3581d" fill-opacity="0.5019607843137255" x="-0.5" y="-0.5" width="1" height="1" /></g>
<g transform="translate(67 140) rotate(197) scale(25 9)"><rect fill="#6c3d1d" fill-opacity="0.5019607843137255" x="-0.5" y="-0.5" width="1" height="1" /></g>
<g transform="translate(161 121) rotate(308) scale(7 40)"><rect fill="#7e681a" fill-opacity="0.5019607843137255" x="-0.5" y="-0.5" width="1" height="1" /></g>
<g transform="translate(14 148) rotate(5) scale(27 7)"><rect fill="#430b17" fill-opacity="0.5019607843137255" x="-0.5" y="-0.5" width="1" height="1" /></g>
<g transform="translate(118 138) rotate(343) scale(30 16)"><rect fill="#1a0e18" fill-opacity="0.5019607843137255" x="-0.5" y="-0.5" width="1" height="1" /></g>
<g transform="translate(90 57) rotate(319) scale(9 3)"><rect fill="#301411" fill-opacity="0.5019607843137255" x="-0.5" y="-0.5" width="1" height="1" /></g>
<g transform="translate(12 58) rotate(273) scale(13 21)"><rect fill="#726e39" fill-opacity="0.5019607843137255" x="-0.5" y="-0.5" width="1" height="1" /></g>
<g transform="translate(57 153) rotate(133) scale(19 61)"><rect fill="#211a18" fill-opacity="0.5019607843137255" x="-0.5" y="-0.5" width="1" height="1" /></g>
<g transform="translate(54 42) rotate(217) scale(1 53)"><rect fill="#cfbb65" fill-opacity="0.5019607843137255" x="-0.5" y="-0.5" width="1" height="1" /></g>
<g transform="translate(63 45) rotate(192) scale(1 18)"><rect fill="#d98527" fill-opacity="0.5019607843137255" x="-0.5" y="-0.5" width="1" height="1" /></g>
<g transform="translate(95 119) rotate(251) scale(30 4)"><rect fill="#e69d30" fill-opacity="0.5019607843137255" x="-0.5" y="-0.5" width="1" height="1" /></g>
<g transform="translate(88 27) rotate(98) scale(9 18)"><rect fill="#27070e" fill-opacity="0.5019607843137255" x="-0.5" y="-0.5" width="1" height="1" /></g>
<g transform="translate(34 66) rotate(175) scale(39 8)"><rect fill="#4b4b29" fill-opacity="0.5019607843137255" x="-0.5" y="-0.5" width="1" height="1" /></g>
<g transform="translate(160 38) rotate(341) scale(17 31)"><rect fill="#ae952e" fill-opacity="0.5019607843137255" x="-0.5" y="-0.5" width="1" height="1" /></g>
<g transform="translate(84 81) rotate(66) scale(11 20)"><rect fill="#9e6026" fill-opacity="0.5019607843137255" x="-0.5" y="-0.5" width="1" height="1" /></g>
<g transform="translate(100 220) rotate(163) scale(62 7)"><rect fill="#321414" fill-opacity="0.5019607843137255" x="-0.5" y="-0.5" width="1" height="1" /></g>
<g transform="translate(117 126) rotate(160) scale(17 3)"><rect fill="#ab7d28" fill-opacity="0.5019607843137255" x="-0.5" y="-0.5" width="1" height="1" /></g>
<g transform="translate(80 132) rotate(3) scale(16 12)"><rect fill="#f9db66" fill-opacity="0.5019607843137255" x="-0.5" y="-0.5" width="1" height="1" /></g>
<g transform="translate(92 100) rotate(166) scale(16 8)"><rect fill="#854c1d" fill-opacity="0.5019607843137255" x="-0.5" y="-0.5" width="1" height="1" /></g>
<g transform="translate(0 151) rotate(112) scale(20 11)"><rect fill="#060613" fill-opacity="0.5019607843137255" x="-0.5" y="-0.5" width="1" height="1" /></g>
<g transform="translate(30 56) rotate(292) scale(10 16)"><rect fill="#7b6d30" fill-opacity="0.5019607843137255" x="-0.5" y="-0.5" width="1" height="1" /></g>
<g transform="translate(51 209) rotate(308) scale(3 50)"><rect fill="#582c19" fill-opacity="0.5019607843137255" x="-0.5" y="-0.5" width="1" height="1" /></g>
<g transform="translate(133 105) rotate(187) scale(25 4)"><rect fill="#0c0f0a" fill-opacity="0.5019607843137255" x="-0.5" y="-0.5" width="1" height="1" /></g>
<g transform="translate(94 210) rotate(256) scale(7 16)"><rect fill="#844315" fill-opacity="0.5019607843137255" x="-0.5" y="-0.5" width="1" height="1" /></g>
<g transform="translate(75 74) rotate(388) scale(4 1)"><rect fill="#000007" fill-opacity="0.5019607843137255" x="-0.5" y="-0.5" width="1" height="1" /></g>
<g transform="translate(79 34) rotate(102) scale(2 20)"><rect fill="#b4651d" fill-opacity="0.5019607843137255" x="-0.5" y="-0.5" width="1" height="1" /></g>
<g transform="translate(12 30) rotate(204) scale(12 37)"><rect fill="#ab9a4c" fill-opacity="0.5019607843137255" x="-0.5" y="-0.5" width="1" height="1" /></g>
<g transform="translate(77 180) rotate(200) scale(74 30)"><rect fill="#110c0b" fill-opacity="0.5019607843137255" x="-0.5" y="-0.5" width="1" height="1" /></g>
<g transform="translate(151 0) rotate(93) scale(4 55)"><rect fill="#387044" fill-opacity="0.5019607843137255" x="-0.5" y="-0.5" width="1" height="1" /></g>
<g transform="translate(51 216) rotate(264) scale(15 5)"><rect fill="#cd8b29" fill-opacity="0.5019607843137255" x="-0.5" y="-0.5" width="1" height="1" /></g>
<g transform="translate(147 102) rotate(281) scale(4 26)"><rect fill="#746324" fill-opacity="0.5019607843137255" x="-0.5" y="-0.5" width="1" height="1" /></g>
<g transform="translate(14 157) rotate(182) scale(18 7)"><rect fill="#8e6c23" fill-opacity="0.5019607843137255" x="-0.5" y="-0.5" width="1" height="1" /></g>
<g transform="translate(159 135) rotate(230) scale(23 11)"><rect fill="#3e0d10" fill-opacity="0.5019607843137255" x="-0.5" y="-0.5" width="1" height="1" /></g>
<g transform="translate(110 116) rotate(291) scale(29 3)"><rect fill="#63351b" fill-opacity="0.5019607843137255" x="-0.5" y="-0.5" width="1" height="1" /></g>
<g transform="translate(23 100) rotate(67) scale(7 39)"><rect fill="#4b5240" fill-opacity="0.5019607843137255" x="-0.5" y="-0.5" width="1" height="1" /></g>
<g transform="translate(21 175) rotate(219) scale(15 68)"><rect fill="#130d10" fill-opacity="0.5019607843137255" x="-0.5" y="-0.5" width="1" height="1" /></g>
<g transform="translate(37 170) rotate(13) scale(15 11)"><rect fill="#36281c" fill-opacity="0.5019607843137255" x="-0.5" y="-0.5" width="1" height="1" /></g>
<g transform="translate(66 146) rotate(106) scale(9 37)"><rect fill="#423723" fill-opacity="0.5019607843137255" x="-0.5" y="-0.5" width="1" height="1" /></g>
<g transform="translate(140 110) rotate(352) scale(17 3)"><rect fill="#94862b" fill-opacity="0.5019607843137255" x="-0.5" y="-0.5" width="1" height="1" /></g>
<g transform="translate(83 67) rotate(348) scale(6 18)"><rect fill="#eaac40" fill-opacity="0.5019607843137255" x="-0.5" y="-0.5" width="1" height="1" /></g>
<g transform="translate(57 82) rotate(169) scale(13 32)"><rect fill="#2e1a19" fill-opacity="0.5019607843137255" x="-0.5" y="-0.5" width="1" height="1" /></g>
<g transform="translate(154 75) rotate(243) scale(10 12)"><rect fill="#455222" fill-opacity="0.5019607843137255" x="-0.5" y="-0.5" width="1" height="1" /></g>
<g transform="translate(67 209) rotate(325) scale(1 37)"><rect fill="#d77f21" fill-opacity="0.5019607843137255" x="-0.5" y="-0.5" width="1" height="1" /></g>
<g transform="translate(75 44) rotate(255) scale(16 13)"><rect fill="#f9cd58" fill-opacity="0.5019607843137255" x="-0.5" y="-0.5" width="1" height="1" /></g>
<g transform="translate(82 242) rotate(71) scale(20 107)"><rect fill="#0a0309" fill-opacity="0.5019607843137255" x="-0.5" y="-0.5" width="1" height="1" /></g>
<g transform="translate(20 204) rotate(9) scale(59 4)"><rect fill="#120e13" fill-opacity="0.5019607843137255" x="-0.5" y="-0.5" width="1" height="1" /></g>
<g transform="translate(101 156) rotate(122) scale(25 19)"><rect fill="#0d060f" fill-opacity="0.5019607843137255" x="-0.5" y="-0.5" width="1" height="1" /></g>
<g transform="translate(128 53) rotate(282) scale(6 24)"><rect fill="#706f36" fill-opacity="0.5019607843137255" x="-0.5" y="-0.5" width="1" height="1" /></g>
<g transform="translate(137 37) rotate(155) scale(26 19)"><rect fill="#bda651" fill-opacity="0.5019607843137255" x="-0.5" y="-0.5" width="1" height="1" /></g>
<g transform="translate(94 74) rotate(197) scale(3 34)"><rect fill="#6d371f" fill-opacity="0.5019607843137255" x="-0.5" y="-0.5" width="1" height="1" /></g>
<g transform="translate(113 152) rotate(-1) scale(11 25)"><rect fill="#30221e" fill-opacity="0.5019607843137255" x="-0.5" y="-0.5" width="1" height="1" /></g>
<g transform="translate(57 24) rotate(150) scale(26 17)"><rect fill="#aa9542" fill-opacity="0.5019607843137255" x="-0.5" y="-0.5" width="1" height="1" /></g>
<g transform="translate(136 185) rotate(273) scale(39 86)"><rect fill="#0c0609" fill-opacity="0.5019607843137255" x="-0.5" y="-0.5" width="1" height="1" /></g>
<g transform="translate(51 119) rotate(216) scale(9 57)"><rect fill="#190d11" fill-opacity="0.5019607843137255" x="-0.5" y="-0.5" width="1" height="1" /></g>
<g transform="translate(60 42) rotate(27) scale(1 36)"><rect fill="#3f1f15" fill-opacity="0.5019607843137255" x="-0.5" y="-0.5" width="1" height="1" /></g>
<g transform="translate(75 86) rotate(218) scale(6 3)"><rect fill="#fcc250" fill-opacity="0.5019607843137255" x="-0.5" y="-0.5" width="1" height="1" /></g>
<g transform="translate(109 70) rotate(353) scale(16 57)"><rect fill="#180a0f" fill-opacity="0.5019607843137255" x="-0.5" y="-0.5" width="1" height="1" /></g>
<g transform="translate(94 142) rotate(419) scale(3 19)"><rect fill="#5c4728" fill-opacity="0.5019607843137255" x="-0.5" y="-0.5" width="1" height="1" /></g>
<g transform="translate(27 190) rotate(233) scale(1 23)"><rect fill="#7c4e25" fill-opacity="0.5019607843137255" x="-0.5" y="-0.5" width="1" height="1" /></g>
<g transform="translate(74 61) rotate(191) scale(1 24)"><rect fill="#fcc151" fill-opacity="0.5019607843137255" x="-0.5" y="-0.5" width="1" height="1" /></g>
<g transform="translate(81 101) rotate(323) scale(3 13)"><rect fill="#b9792d" fill-opacity="0.5019607843137255" x="-0.5" y="-0.5" width="1" height="1" /></g>
<g transform="translate(42 219) rotate(85) scale(13 9)"><rect fill="#6d3e1a" fill-opacity="0.5019607843137255" x="-0.5" y="-0.5" width="1" height="1" /></g>
<g transform="translate(83 61) rotate(-7) scale(18 1)"><rect fill="#9e5817" fill-opacity="0.5019607843137255" x="-0.5" y="-0.5" width="1" height="1" /></g>
<g transform="translate(59 118) rotate(132) scale(15 2)"><rect fill="#713320" fill-opacity="0.5019607843137255" x="-0.5" y="-0.5" width="1" height="1" /></g>
<g transform="translate(157 121) rotate(186) scale(17 1)"><rect fill="#b69a2a" fill-opacity="0.5019607843137255" x="-0.5" y="-0.5" width="1" height="1" /></g>
<g transform="translate(83 206) rotate(129) scale(2 11)"><rect fill="#ffa12b" fill-opacity="0.5019607843137255" x="-0.5" y="-0.5" width="1" height="1" /></g>
<g transform="translate(44 96) rotate(264) scale(12 10)"><rect fill="#676b4c" fill-opacity="0.5019607843137255" x="-0.5" y="-0.5" width="1" height="1" /></g>
<g transform="translate(29 105) rotate(452) scale(8 10)"><rect fill="#393017" fill-opacity="0.5019607843137255" x="-0.5" y="-0.5" width="1" height="1" /></g>
<g transform="translate(42 120) rotate(322) scale(19 3)"><rect fill="#523f1f" fill-opacity="0.5019607843137255" x="-0.5" y="-0.5" width="1" height="1" /></g>
<g transform="translate(26 133) rotate(351) scale(10 1)"><rect fill="#ab932e" fill-opacity="0.5019607843137255" x="-0.5" y="-0.5" width="1" height="1" /></g>
<g transform="translate(75 79) rotate(95) scale(1 17)"><rect fill="#6d3516" fill-opacity="0.5019607843137255" x="-0.5" y="-0.5" width="1" height="1" /></g>
<g transform="translate(92 112) rotate(-14) scale(16 10)"><rect fill="#ecaf3e" fill-opacity="0.5019607843137255" x="-0.5" y="-0.5" width="1" height="1" /></g>
<g transform="translate(56 232) rotate(144) scale(26 10)"><rect fill="#2a1316" fill-opacity="0.5019607843137255" x="-0.5" y="-0.5" width="1" height="1" /></g>
<g transform="translate(71 210) rotate(92) scale(9 12)"><rect fill="#b45c17" fill-opacity="0.5019607843137255" x="-0.5" y="-0.5" width="1" height="1" /></g>
<g transform="translate(135 133) rotate(338) scale(27 16)"><rect fill="#0f070a" fill-opacity="0.5019607843137255" x="-0.5" y="-0.5" width="1" height="1" /></g>
<g transform="translate(148 95) rotate(275) scale(5 46)"><rect fill="#252716" fill-opacity="0.5019607843137255" x="-0.5" y="-0.5" width="1" height="1" /></g>
<g transform="translate(85 48) rotate(125) scale(5 13)"><rect fill="#e4a233" fill-opacity="0.5019607843137255" x="-0.5" y="-0.5" width="1" height="1" /></g>
<g transform="translate(139 117) rotate(41) scale(27 3)"><rect fill="#46381c" fill-opacity="0.5019607843137255" x="-0.5" y="-0.5" width="1" height="1" /></g>
<g transform="translate(122 76) rotate(262) scale(47 4)"><rect fill="#383621" fill-opacity="0.5019607843137255" x="-0.5" y="-0.5" width="1" height="1" /></g>
<g transform="translate(65 93) rotate(70) scale(28 5)"><rect fill="#190d11" fill-opacity="0.5019607843137255" x="-0.5" y="-0.5" width="1" height="1" /></g>
<g transform="translate(66 77) rotate(234) scale(9 5)"><rect fill="#ab6830" fill-opacity="0.5019607843137255" x="-0.5" y="-0.5" width="1" height="1" /></g>
<g transform="translate(92 0) rotate(104) scale(27 33)"><rect fill="#7c7d3e" fill-opacity="0.5019607843137255" x="-0.5" y="-0.5" width="1" height="1" /></g>
<g transform="translate(98 22) rotate(302) scale(3 32)"><rect fill="#ae9946" fill-opacity="0.5019607843137255" x="-0.5" y="-0.5" width="1" height="1" /></g>
<g transform="translate(57 210) rotate(47) scale(21 3)"><rect fill="#894416" fill-opacity="0.5019607843137255" x="-0.5" y="-0.5" width="1" height="1" /></g>
<g transform="translate(77 74) rotate(252) scale(4 6)"><rect fill="#2f1113" fill-opacity="0.5019607843137255" x="-0.5" y="-0.5" width="1" height="1" /></g>
<g transform="translate(101 36) rotate(323) scale(15 13)"><rect fill="#260e0f" fill-opacity="0.5019607843137255" x="-0.5" y="-0.5" width="1" height="1" /></g>
<g transform="translate(43 194) rotate(298) scale(9 1)"><rect fill="#81531b" fill-opacity="0.5019607843137255" x="-0.5" y="-0.5" width="1" height="1" /></g>
<g transform="translate(78 122) rotate(4) scale(26 18)"><rect fill="#f4ca52" fill-opacity="0.5019607843137255" x="-0.5" y="-0.5" width="1" height="1" /></g>
<g transform="translate(79 214) rotate(130) scale(1 34)"><rect fill="#c46a1d" fill-opacity="0.5019607843137255" x="-0.5" y="-0.5" width="1" height="1" /></g>
<g transform="translate(27 118) rotate(86) scale(12 6)"><rect fill="#806e26" fill-opacity="0.5019607843137255" x="-0.5" y="-0.5" width="1" height="1" /></g>
<g transform="translate(64 45) rotate(193) scale(1 19)"><rect fill="#cd8830" fill-opacity="0.5019607843137255" x="-0.5" y="-0.5" width="1" height="1" /></g>
<g transform="translate(18 0) rotate(80) scale(12 32)"><rect fill="#75733b" fill-opacity="0.5019607843137255" x="-0.5" y="-0.5" width="1" height="1" /></g>
<g transform="translate(79 0) rotate(270) scale(6 32)"><rect fill="#577e50" fill-opacity="0.5019607843137255" x="-0.5" y="-0.5" width="1" height="1" /></g>
<g transform="translate(110 127) rotate(235) scale(1 35)"><rect fill="#69471e" fill-opacity="0.5019607843137255" x="-0.5" y="-0.5" width="1" height="1" /></g>
<g transform="translate(168 146) rotate(6) scale(2 24)"><rect fill="#000000" fill-opacity="0.5019607843137255" x="-0.5" y="-0.5" width="1" height="1" /></g>
<g transform="translate(51 226) rotate(44) scale(1 20)"><rect fill="#ad5d1c" fill-opacity="0.5019607843137255" x="-0.5" y="-0.5" width="1" height="1" /></g>
<g transform="translate(44 53) rotate(50) scale(9 13)"><rect fill="#dbc062" fill-opacity="0.5019607843137255" x="-0.5" y="-0.5" width="1" height="1" /></g>
<g transform="translate(51 191) rotate(0) scale(6 2)"><rect fill="#ffc74d" fill-opacity="0.5019607843137255" x="-0.5" y="-0.5" width="1" height="1" /></g>
<g transform="translate(20 74) rotate(87) scale(15 24)"><rect fill="#474c2c" fill-opacity="0.5019607843137255" x="-0.5" y="-0.5" width="1" height="1" /></g>
<g transform="translate(162 125) rotate(0) scale(30 3)"><rect fill="#392412" fill-opacity="0.5019607843137255" x="-0.5" y="-0.5" width="1" height="1" /></g>
<g transform="translate(31 46) rotate(345) scale(31 7)"><rect fill="#d0b559" fill-opacity="0.5019607843137255" x="-0.5" y="-0.5" width="1" height="1" /></g>
<g transform="translate(64 194) rotate(116) scale(1 22)"><rect fill="#c57420" fill-opacity="0.5019607843137255" x="-0.5" y="-0.5" width="1" height="1" /></g>
<g transform="translate(100 122) rotate(8) scale(4 28)"><rect fill="#b5701f" fill-opacity="0.5019607843137255" x="-0.5" y="-0.5" width="1" height="1" /></g>
</g>
</svg>