<svg xmlns="http://www.w3.org/2000/svg" version="1.1" width="507" height="768">
<rect x="0" y="0" width="507" height="768" fill="#4d3d1f" />
<g transform="scale(3) translate(0.5 0.5)">
<polygon fill="#bd9e49" fill-opacity="0.5019607843137255" points="184,6 81,154 -16,-7" />
<polygon fill="#000000" fill-opacity="0.5019607843137255" points="184,244 80,271 103,15" />
<polygon fill="#000008" fill-opacity="0.5019607843137255" points="-16,250 64,28 44,266" />
<polygon fill="#fff257" fill-opacity="0.5019607843137255" points="48,130 103,141 100,97" />
<polygon fill="#000005" fill-opacity="0.5019607843137255" points="178,127 17,149 171,271" />
<polygon fill="#eacd61" fill-opacity="0.5019607843137255" points="-16,52 96,51 26,3" />
<polygon fill="#ff8e24" fill-opacity="0.5019607843137255" points="105,208 40,224 45,186" />
<polygon fill="#d9ca55" fill-opacity="0.5019607843137255" points="155,72 85,10 184,27" />
<polygon fill="#150910" fill-opacity="0.5019607843137255" points="137,51 142,94 27,113" />
<polygon fill="#000001" fill-opacity="0.5019607843137255" points="163,271 184,197 -16,246" />
<polygon fill="#050002" fill-opacity="0.5019607843137255" points="78,18 123,107 107,28" />
<polygon fill="#181419" fill-opacity="0.5019607843137255" points="26,53 78,91 48,135" />
<polygon fill="#fcad43" fill-opacity="0.5019607843137255" points="80,98 50,139 126,126" />
<polygon fill="#fc9a33" fill-opacity="0.5019607843137255" points="60,60 75,93 99,58" />
<polygon fill="#855a2a" fill-opacity="0.5019607843137255" points="58,72 6,137 20,164" />
<polygon fill="#00000b" fill-opacity="0.5019607843137255" points="-2,271 52,271 -2,137" />
<polygon fill="#723215" fill-opacity="0.5019607843137255" points="84,229 41,206 133,204" />
<polygon fill="#909047" fill-opacity="0.5019607843137255" points="-16,21 184,21 121,-16" />
<polygon fill="#3f2920" fill-opacity="0.5019607843137255" points="132,60 91,144 130,168" />
<polygon fill="#ffb637" fill-opacity="0.5019607843137255" points="92,209 41,197 53,187" />
<polygon fill="#ffca47" fill-opacity="0.5019607843137255" points="73,64 87,35 66,32" />
<polygon fill="#3d0908" fill-opacity="0.5019607843137255" points="51,54 85,21 66,26" />
<polygon fill="#09050c" fill-opacity="0.5019607843137255" points="81,197 137,124 25,178" />
<polygon fill="#d9c566" fill-opacity="0.5019607843137255" points="51,60 -5,40 54,35" />
<polygon fill="#907b1d" fill-opacity="0.5019607843137255" points="131,111 151,99 180,138" />
<polygon fill="#000006" fill-opacity="0.5019607843137255" points="21,271 62,220 184,251" />
<polygon fill="#1f3029" fill-opacity="0.5019607843137255" points="56,63 -16,68 -12,139" />
<polygon fill="#130008" fill-opacity="0.5019607843137255" points="76,100 53,120 54,62" />
<polygon fill="#b7a93e" fill-opacity="0.5019607843137255" points="141,73 147,28 184,60" />
<polygon fill="#6e713b" fill-opacity="0.5019607843137255" points="36,52 -16,44 29,77" />
<polygon fill="#09190b" fill-opacity="0.5019607843137255" points="184,152 171,67 150,82" />
<polygon fill="#211816" fill-opacity="0.5019607843137255" points="82,161 34,102 42,193" />
<polygon fill="#ffda5a" fill-opacity="0.5019607843137255" points="56,131 102,133 73,106" />
<polygon fill="#21020d" fill-opacity="0.5019607843137255" points="125,59 70,24 100,22" />
<polygon fill="#a5581b" fill-opacity="0.5019607843137255" points="79,203 46,232 38,213" />
<polygon fill="#7c3d18" fill-opacity="0.5019607843137255" points="75,66 77,99 116,115" />
<polygon fill="#5f381e" fill-opacity="0.5019607843137255" points="69,223 33,179 14,188" />
<polygon fill="#5b6a4f" fill-opacity="0.5019607843137255" points="1,106 54,101 47,87" />
<polygon fill="#1c0711" fill-opacity="0.5019607843137255" points="91,92 96,64 157,140" />
<polygon fill="#95883f" fill-opacity="0.5019607843137255" points="184,-7 60,17 184,34" />
<polygon fill="#3a4c29" fill-opacity="0.5019607843137255" points="114,44 133,116 160,83" />
<polygon fill="#f8b23f" fill-opacity="0.5019607843137255" points="99,48 60,45 73,30" />
<polygon fill="#a7994c" fill-opacity="0.5019607843137255" points="-7,50 5,7 95,15" />
<polygon fill="#321616" fill-opacity="0.5019607843137255" points="60,36 48,73 58,112" />
<polygon fill="#0a0508" fill-opacity="0.5019607843137255" points="35,170 184,161 92,205" />
<polygon fill="#885220" fill-opacity="0.5019607843137255" points="4,155 17,164 43,117" />
<polygon fill="#7e4a24" fill-opacity="0.5019607843137255" points="69,149 94,141 56,133" />
<polygon fill="#da8827" fill-opacity="0.5019607843137255" points="74,194 76,221 39,191" />
<polygon fill="#100410" fill-opacity="0.5019607843137255" points="64,91 86,96 105,86" />
<polygon fill="#02020b" fill-opacity="0.5019607843137255" points="-13,235 56,204 -16,206" />
</g>
</svg>