<svg xmlns="http://www.w3.org/2000/svg" version="1.1" width="507" height="768">
<rect x="0" y="0" width="507" height="768" fill="#4d3d1f" />
<g transform="scale(3) translate(0.5 0.5)">
<ellipse fill="#c6ac50" fill-opacity="0.5019607843137255" cx="87" cy="0" rx="88" ry="88" />
<ellipse fill="#ffff60" fill-opacity="0.5019607843137255" cx="82" cy="122" rx="21" ry="21" />
<ellipse fill="#000000" fill-opacity="0.5019607843137255" cx="85" cy="236" rx="100" ry="100" />
<ellipse fill="#ff972e" fill-opacity="0.5019607843137255" cx="59" cy="208" rx="20" ry="20" />
<ellipse fill="#000007" fill-opacity="0.5019607843137255" cx="115" cy="73" rx="26" ry="26" />
<ellipse fill="#cfc060" fill-opacity="0.5019607843137255" cx="27" cy="36" rx="29" ry="29" />
<ellipse fill="#c0b54d" fill-opacity="0.5019607843137255" cx="144" cy="42" rx="30" ry="30" />
<ellipse fill="#000005" fill-opacity="0.5019607843137255" cx="137" cy="169" rx="46" ry="46" />
<ellipse fill="#000000" fill-opacity="0.5019607843137255" cx="100" cy="41" rx="13" ry="13" />
<ellipse fill="#262922" fill-opacity="0.5019607843137255" cx="31" cy="91" rx="38" ry="38" />
<ellipse fill="#ffca51" fill-opacity="0.5019607843137255" cx="77" cy="125" rx="19" ry="19" />
<ellipse fill="#ffa536" fill-opacity="0.5019607843137255" cx="78" cy="54" rx="19" ry="19" />
<ellipse fill="#000000" fill-opacity="0.5019607843137255" cx="138" cy="255" rx="53" ry="53" />
<ellipse fill="#dc6f1e" fill-opacity="0.5019607843137255" cx="78" cy="211" rx="12" ry="12" />
<ellipse fill="#1f1b18" fill-opacity="0.5019607843137255" cx="120" cy="82" rx="29" ry="29" />
<ellipse fill="#000000" fill-opacity="0.5019607843137255" cx="86" cy="28" rx="8" ry="8" />
<ellipse fill="#0d010e" fill-opacity="0.5019607843137255" cx="34" cy="236" rx="36" ry="36" />
<ellipse fill="#d57d26" fill-opacity="0.5019607843137255" cx="46" cy="219" rx="10" ry="10" />
<ellipse fill="#fcac38" fill-opacity="0.5019607843137255" cx="53" cy="198" rx="10" ry="10" />
<ellipse fill="#ffdb58" fill-opacity="0.5019607843137255" cx="75" cy="43" rx="11" ry="11" />
<ellipse fill="#110a10" fill-opacity="0.5019607843137255" cx="82" cy="168" rx="30" ry="30" />
<ellipse fill="#1b0007" fill-opacity="0.5019607843137255" cx="58" cy="56" rx="7" ry="7" />
<ellipse fill="#f49e33" fill-opacity="0.5019607843137255" cx="88" cy="112" rx="15" ry="15" />
<ellipse fill="#0a0004" fill-opacity="0.5019607843137255" cx="65" cy="98" rx="12" ry="12" />
<ellipse fill="#c3732a" fill-opacity="0.5019607843137255" cx="78" cy="69" rx="18" ry="18" />
<ellipse fill="#060112" fill-opacity="0.5019607843137255" cx="42" cy="143" rx="14" ry="14" />
<ellipse fill="#e6c864" fill-opacity="0.5019607843137255" cx="43" cy="50" rx="11" ry="11" />
<ellipse fill="#1d0006" fill-opacity="0.5019607843137255" cx="103" cy="51" rx="13" ry="13" />
<ellipse fill="#13010c" fill-opacity="0.5019607843137255" cx="52" cy="74" rx="11" ry="11" />
<ellipse fill="#815220" fill-opacity="0.5019607843137255" cx="19" cy="128" rx="17" ry="17" />
<ellipse fill="#ffc446" fill-opacity="0.5019607843137255" cx="61" cy="127" rx="7" ry="7" />
<ellipse fill="#090002" fill-opacity="0.5019607843137255" cx="97" cy="32" rx="8" ry="8" />
<ellipse fill="#89791c" fill-opacity="0.5019607843137255" cx="150" cy="112" rx="12" ry="12" />
<ellipse fill="#543a29" fill-opacity="0.5019607843137255" cx="119" cy="151" rx="12" ry="12" />
<ellipse fill="#ffa42b" fill-opacity="0.5019607843137255" cx="67" cy="201" rx="8" ry="8" />
<ellipse fill="#050008" fill-opacity="0.5019607843137255" cx="74" cy="247" rx="27" ry="27" />
<ellipse fill="#624026" fill-opacity="0.5019607843137255" cx="68" cy="145" rx="10" ry="10" />
<ellipse fill="#ffdc5e" fill-opacity="0.5019607843137255" cx="78" cy="124" rx="14" ry="14" />
<ellipse fill="#75371d" fill-opacity="0.5019607843137255" cx="112" cy="211" rx="9" ry="9" />
<ellipse fill="#b4a053" fill-opacity="0.5019607843137255" cx="119" cy="23" rx="15" ry="15" />
<ellipse fill="#030010" fill-opacity="0.5019607843137255" cx="0" cy="182" rx="21" ry="21" />
<ellipse fill="#16230f" fill-opacity="0.5019607843137255" cx="168" cy="92" rx="21" ry="21" />
<ellipse fill="#454c33" fill-opacity="0.5019607843137255" cx="30" cy="85" rx="23" ry="23" />
<ellipse fill="#475229" fill-opacity="0.5019607843137255" cx="140" cy="86" rx="20" ry="20" />
<ellipse fill="#1b0208" fill-opacity="0.5019607843137255" cx="51" cy="115" rx="12" ry="12" />
<ellipse fill="#410508" fill-opacity="0.5019607843137255" cx="73" cy="28" rx="6" ry="6" />
<ellipse fill="#643b23" fill-opacity="0.5019607843137255" cx="32" cy="192" rx="12" ry="12" />
<ellipse fill="#020005" fill-opacity="0.5019607843137255" cx="162" cy="242" rx="54" ry="54" />
<ellipse fill="#160008" fill-opacity="0.5019607843137255" cx="87" cy="57" rx="4" ry="4" />
<ellipse fill="#0a0008" fill-opacity="0.5019607843137255" cx="108" cy="75" rx="13" ry="13" />
</g>
</svg>