<svg xmlns="http://www.w3.org/2000/svg" version="1.1" width="507" height="768">
<rect x="0" y="0" width="507" height="768" fill="#4d3d1f" />
<g transform="scale(3) translate(0.5 0.5)">
<ellipse fill="#d4bd57" fill-opacity="0.5019607843137255" cx="111" cy="22" rx="141" ry="48" />
<ellipse fill="#ffff65" fill-opacity="0.5019607843137255" cx="81" cy="122" rx="23" ry="18" />
<ellipse fill="#000000" fill-opacity="0.5019607843137255" cx="137" cy="229" rx="168" ry="96" />
<ellipse fill="#ff952d" fill-opacity="0.5019607843137255" cx="60" cy="207" rx="24" ry="18" />
<ellipse fill="#000000" fill-opacity="0.5019607843137255" cx="105" cy="65" rx="13" ry="37" />
<ellipse fill="#ffa839" fill-opacity="0.5019607843137255" cx="76" cy="61" rx="16" ry="29" />
<ellipse fill="#dec865" fill-opacity="0.5019607843137255" cx="31" cy="34" rx="28" ry="20" />
<ellipse fill="#ffb642" fill-opacity="0.5019607843137255" cx="84" cy="121" rx="19" ry="23" />
<ellipse fill="#020005" fill-opacity="0.5019607843137255" cx="137" cy="202" rx="49" ry="81" />
<ellipse fill="#000000" fill-opacity="0.5019607843137255" cx="87" cy="28" rx="17" ry="7" />
<ellipse fill="#131116" fill-opacity="0.5019607843137255" cx="119" cy="82" rx="22" ry="35" />
<ellipse fill="#cab851" fill-opacity="0.5019607843137255" cx="139" cy="38" rx="27" ry="19" />
<ellipse fill="#18000c" fill-opacity="0.5019607843137255" cx="57" cy="83" rx="7" ry="41" />
<ellipse fill="#0c0411" fill-opacity="0.5019607843137255" cx="12" cy="222" rx="33" ry="62" />
<ellipse fill="#8a4319" fill-opacity="0.5019607843137255" cx="81" cy="214" rx="44" ry="10" />
<ellipse fill="#ffb439" fill-opacity="0.5019607843137255" cx="55" cy="196" rx="15" ry="7" />
<ellipse fill="#ffdd5b" fill-opacity="0.5019607843137255" cx="73" cy="126" rx="19" ry="10" />
<ellipse fill="#0e0711" fill-opacity="0.5019607843137255" cx="43" cy="145" rx="14" ry="44" />
<ellipse fill="#000005" fill-opacity="0.5019607843137255" cx="115" cy="250" rx="133" ry="21" />
<ellipse fill="#000008" fill-opacity="0.5019607843137255" cx="86" cy="179" rx="32" ry="19" />
<ellipse fill="#2c0007" fill-opacity="0.5019607843137255" cx="100" cy="46" rx="13" ry="19" />
<ellipse fill="#cd8a34" fill-opacity="0.5019607843137255" cx="78" cy="59" rx="19" ry="28" />
<ellipse fill="#390f0c" fill-opacity="0.5019607843137255" cx="75" cy="56" rx="21" ry="3" />
<ellipse fill="#b86823" fill-opacity="0.5019607843137255" cx="45" cy="221" rx="9" ry="11" />
<ellipse fill="#0d0009" fill-opacity="0.5019607843137255" cx="65" cy="100" rx="12" ry="12" />
<ellipse fill="#6e4523" fill-opacity="0.5019607843137255" cx="30" cy="192" rx="13" ry="11" />
<ellipse fill="#0b0e19" fill-opacity="0.5019607843137255" cx="0" cy="109" rx="8" ry="55" />
<ellipse fill="#ffea64" fill-opacity="0.5019607843137255" cx="73" cy="44" rx="8" ry="11" />
<ellipse fill="#e98a24" fill-opacity="0.5019607843137255" cx="72" cy="206" rx="16" ry="7" />
<ellipse fill="#49291d" fill-opacity="0.5019607843137255" cx="116" cy="136" rx="19" ry="27" />
<ellipse fill="#984b20" fill-opacity="0.5019607843137255" cx="15" cy="147" rx="10" ry="18" />
<ellipse fill="#8c7b1c" fill-opacity="0.5019607843137255" cx="150" cy="113" rx="12" ry="11" />
<ellipse fill="#051006" fill-opacity="0.5019607843137255" cx="168" cy="95" rx="10" ry="25" />
<ellipse fill="#593b26" fill-opacity="0.5019607843137255" cx="67" cy="144" rx="24" ry="8" />
<ellipse fill="#8f6e26" fill-opacity="0.5019607843137255" cx="28" cy="125" rx="9" ry="11" />
<ellipse fill="#cabb46" fill-opacity="0.5019607843137255" cx="150" cy="54" rx="10" ry="18" />
<ellipse fill="#ebcf6b" fill-opacity="0.5019607843137255" cx="43" cy="50" rx="9" ry="9" />
<ellipse fill="#374532" fill-opacity="0.5019607843137255" cx="30" cy="82" rx="26" ry="27" />
<ellipse fill="#03050f" fill-opacity="0.5019607843137255" cx="21" cy="206" rx="30" ry="7" />
<ellipse fill="#b09d4f" fill-opacity="0.5019607843137255" cx="116" cy="22" rx="13" ry="15" />
<ellipse fill="#6e6c37" fill-opacity="0.5019607843137255" cx="11" cy="58" rx="29" ry="9" />
<ellipse fill="#5f713c" fill-opacity="0.5019607843137255" cx="105" cy="0" rx="161" ry="8" />
<ellipse fill="#be6c1d" fill-opacity="0.5019607843137255" cx="99" cy="118" rx="5" ry="23" />
<ellipse fill="#1c050f" fill-opacity="0.5019607843137255" cx="65" cy="223" rx="8" ry="7" />
<ellipse fill="#0c0009" fill-opacity="0.5019607843137255" cx="107" cy="59" rx="9" ry="23" />
<ellipse fill="#43522b" fill-opacity="0.5019607843137255" cx="132" cy="78" rx="12" ry="28" />
<ellipse fill="#512012" fill-opacity="0.5019607843137255" cx="77" cy="77" rx="4" ry="8" />
<ellipse fill="#040005" fill-opacity="0.5019607843137255" cx="141" cy="227" rx="50" ry="18" />
<ellipse fill="#a36923" fill-opacity="0.5019607843137255" cx="113" cy="126" rx="13" ry="4" />
<ellipse fill="#10000a" fill-opacity="0.5019607843137255" cx="59" cy="62" rx="2" ry="26" />
<ellipse fill="#9a8f45" fill-opacity="0.5019607843137255" cx="24" cy="19" rx="54" ry="10" />
<ellipse fill="#37040c" fill-opacity="0.5019607843137255" cx="79" cy="28" rx="15" ry="5" />
<ellipse fill="#ffbc44" fill-opacity="0.5019607843137255" cx="51" cy="193" rx="7" ry="5" />
<ellipse fill="#1d0c0f" fill-opacity="0.5019607843137255" cx="136" cy="137" rx="43" ry="7" />
<ellipse fill="#663517" fill-opacity="0.5019607843137255" cx="103" cy="209" rx="27" ry="5" />
<ellipse fill="#fdcc53" fill-opacity="0.5019607843137255" cx="83" cy="123" rx="15" ry="16" />
<ellipse fill="#707155" fill-opacity="0.5019607843137255" cx="41" cy="97" rx="12" ry="6" />
<ellipse fill="#7e8335" fill-opacity="0.5019607843137255" cx="158" cy="68" rx="37" ry="3" />
<ellipse fill="#141012" fill-opacity="0.5019607843137255" cx="45" cy="160" rx="22" ry="21" />
<ellipse fill="#cdb45a" fill-opacity="0.5019607843137255" cx="29" cy="44" rx="28" ry="9" />
<ellipse fill="#4c1b12" fill-opacity="0.5019607843137255" cx="159" cy="144" rx="7" ry="17" />
<ellipse fill="#251815" fill-opacity="0.5019607843137255" cx="118" cy="92" rx="44" ry="6" />
<ellipse fill="#20070c" fill-opacity="0.5019607843137255" cx="95" cy="35" rx="8" ry="10" />
<ellipse fill="#ffc251" fill-opacity="0.5019607843137255" cx="68" cy="66" rx="7" ry="6" />
<ellipse fill="#0d1917" fill-opacity="0.5019607843137255" cx="0" cy="92" rx="17" ry="11" />
<ellipse fill="#301315" fill-opacity="0.5019607843137255" cx="59" cy="101" rx="6" ry="22" />
<ellipse fill="#120c0d" fill-opacity="0.5019607843137255" cx="89" cy="173" rx="31" ry="27" />
<ellipse fill="#040204" fill-opacity="0.5019607843137255" cx="148" cy="213" rx="22" ry="50" />
<ellipse fill="#09060e" fill-opacity="0.5019607843137255" cx="132" cy="127" rx="5" ry="17" />
<ellipse fill="#e38d25" fill-opacity="0.5019607843137255" cx="68" cy="202" rx="7" ry="9" />
<ellipse fill="#ffbf47" fill-opacity="0.5019607843137255" cx="73" cy="53" rx="3" ry="8" />
<ellipse fill="#9e8f46" fill-opacity="0.5019607843137255" cx="123" cy="19" rx="32" ry="9" />
<ellipse fill="#db7f2a" fill-opacity="0.5019607843137255" cx="57" cy="128" rx="4" ry="7" />
<ellipse fill="#16030c" fill-opacity="0.5019607843137255" cx="118" cy="108" rx="7" ry="13" />
<ellipse fill="#6d532e" fill-opacity="0.5019607843137255" cx="123" cy="152" rx="5" ry="7" />
<ellipse fill="#cca624" fill-opacity="0.5019607843137255" cx="159" cy="121" rx="7" ry="2" />
<ellipse fill="#08060d" fill-opacity="0.5019607843137255" cx="14" cy="237" rx="29" ry="27" />
<ellipse fill="#0c010d" fill-opacity="0.5019607843137255" cx="66" cy="95" rx="7" ry="11" />
<ellipse fill="#e9cd69" fill-opacity="0.5019607843137255" cx="41" cy="56" rx="3" ry="6" />
<ellipse fill="#2d391f" fill-opacity="0.5019607843137255" cx="148" cy="84" rx="30" ry="14" />
<ellipse fill="#83461e" fill-opacity="0.5019607843137255" cx="89" cy="98" rx="14" ry="4" />
<ellipse fill="#5b4023" fill-opacity="0.5019607843137255" cx="77" cy="146" rx="14" ry="9" />
<ellipse fill="#532113" fill-opacity="0.5019607843137255" cx="64" cy="34" rx="4" ry="4" />
<ellipse fill="#070808" fill-opacity="0.5019607843137255" cx="131" cy="105" rx="14" ry="3" />
<ellipse fill="#eeb547" fill-opacity="0.5019607843137255" cx="72" cy="113" rx="8" ry="6" />
<ellipse fill="#2c1c16" fill-opacity="0.5019607843137255" cx="51" cy="74" rx="11" ry="12" />
<ellipse fill="#733419" fill-opacity="0.5019607843137255" cx="106" cy="121" rx="6" ry="14" />
<ellipse fill="#febe48" fill-opacity="0.5019607843137255" cx="83" cy="67" rx="4" ry="8" />
<ellipse fill="#ce8829" fill-opacity="0.5019607843137255" cx="87" cy="107" rx="15" ry="5" />
<ellipse fill="#b39d45" fill-opacity="0.5019607843137255" cx="56" cy="25" rx="12" ry="7" />
<ellipse fill="#41271b" fill-opacity="0.5019607843137255" cx="2" cy="127" rx="23" ry="7" />
<ellipse fill="#bfa758" fill-opacity="0.5019607843137255" cx="128" cy="36" rx="18" ry="9" />
<ellipse fill="#918322" fill-opacity="0.5019607843137255" cx="163" cy="38" rx="8" ry="32" />
<ellipse fill="#7f411f" fill-opacity="0.5019607843137255" cx="87" cy="81" rx="9" ry="7" />
<ellipse fill="#a8661f" fill-opacity="0.5019607843137255" cx="80" cy="60" rx="20" ry="2" />
<ellipse fill="#aca04f" fill-opacity="0.5019607843137255" cx="89" cy="17" rx="24" ry="4" />
<ellipse fill="#a1902b" fill-opacity="0.5019607843137255" cx="141" cy="111" rx="6" ry="4" />
<ellipse fill="#3e0d17" fill-opacity="0.5019607843137255" cx="17" cy="148" rx="15" ry="3" />
<ellipse fill="#0f100c" fill-opacity="0.5019607843137255" cx="46" cy="109" rx="14" ry="6" />
<ellipse fill="#0c080d" fill-opacity="0.5019607843137255" cx="36" cy="147" rx="8" ry="16" />
<ellipse fill="#884920" fill-opacity="0.5019607843137255" cx="16" cy="138" rx="13" ry="8" />
<ellipse fill="#904e20" fill-opacity="0.5019607843137255" cx="61" cy="136" rx="10" ry="3" />
<ellipse fill="#0f0b0b" fill-opacity="0.5019607843137255" cx="80" cy="178" rx="35" ry="16" />
<ellipse fill="#f4cf58" fill-opacity="0.5019607843137255" cx="76" cy="129" rx="19" ry="7" />
<ellipse fill="#310304" fill-opacity="0.5019607843137255" cx="61" cy="40" rx="2" ry="5" />
<ellipse fill="#4b5a32" fill-opacity="0.5019607843137255" cx="0" cy="8" rx="2" ry="31" />
<ellipse fill="#766925" fill-opacity="0.5019607843137255" cx="147" cy="100" rx="14" ry="3" />
<ellipse fill="#ffb029" fill-opacity="0.5019607843137255" cx="84" cy="207" rx="3" ry="2" />
<ellipse fill="#716e39" fill-opacity="0.5019607843137255" cx="11" cy="56" rx="6" ry="10" />
<ellipse fill="#96832c" fill-opacity="0.5019607843137255" cx="20" cy="119" rx="5" ry="4" />
<ellipse fill="#8c652d" fill-opacity="0.5019607843137255" cx="125" cy="123" rx="7" ry="3" />
<ellipse fill="#2a2119" fill-opacity="0.5019607843137255" cx="19" cy="168" rx="26" ry="7" />
<ellipse fill="#906b14" fill-opacity="0.5019607843137255" cx="164" cy="126" rx="4" ry="5" />
<ellipse fill="#0c0c12" fill-opacity="0.5019607843137255" cx="0" cy="146" rx="2" ry="100" />
<ellipse fill="#605f2f" fill-opacity="0.5019607843137255" cx="122" cy="53" rx="7" ry="8" />
<ellipse fill="#f5be4c" fill-opacity="0.5019607843137255" cx="73" cy="41" rx="11" ry="8" />
<ellipse fill="#593017" fill-opacity="0.5019607843137255" cx="110" cy="210" rx="5" ry="8" />
<ellipse fill="#17080c" fill-opacity="0.5019607843137255" cx="139" cy="131" rx="24" ry="6" />
<ellipse fill="#080307" fill-opacity="0.5019607843137255" cx="106" cy="251" rx="66" ry="25" />
<ellipse fill="#000005" fill-opacity="0.5019607843137255" cx="81" cy="210" rx="3" ry="2" />
<ellipse fill="#857c3a" fill-opacity="0.5019607843137255" cx="104" cy="8" rx="112" ry="5" />
<ellipse fill="#4f7545" fill-opacity="0.5019607843137255" cx="116" cy="0" rx="73" ry="2" />
<ellipse fill="#f7b84d" fill-opacity="0.5019607843137255" cx="74" cy="85" rx="5" ry="3" />
<ellipse fill="#413f18" fill-opacity="0.5019607843137255" cx="156" cy="108" rx="5" ry="7" />
<ellipse fill="#374c3d" fill-opacity="0.5019607843137255" cx="9" cy="105" rx="8" ry="6" />
<ellipse fill="#0e0a0f" fill-opacity="0.5019607843137255" cx="100" cy="154" rx="13" ry="13" />
<ellipse fill="#c07c23" fill-opacity="0.5019607843137255" cx="50" cy="219" rx="4" ry="9" />
<ellipse fill="#843d20" fill-opacity="0.5019607843137255" cx="46" cy="231" rx="3" ry="7" />
<ellipse fill="#481a14" fill-opacity="0.5019607843137255" cx="76" cy="224" rx="23" ry="3" />
<ellipse fill="#10080f" fill-opacity="0.5019607843137255" cx="46" cy="128" rx="7" ry="9" />
<ellipse fill="#8f4d23" fill-opacity="0.5019607843137255" cx="76" cy="29" rx="4" ry="4" />
<ellipse fill="#2f3222" fill-opacity="0.5019607843137255" cx="29" cy="85" rx="19" ry="8" />
<ellipse fill="#694421" fill-opacity="0.5019607843137255" cx="34" cy="191" rx="11" ry="4" />
<ellipse fill="#0a0508" fill-opacity="0.5019607843137255" cx="100" cy="190" rx="30" ry="13" />
<ellipse fill="#2c0d11" fill-opacity="0.5019607843137255" cx="67" cy="31" rx="4" ry="3" />
<ellipse fill="#4e3c26" fill-opacity="0.5019607843137255" cx="52" cy="139" rx="5" ry="9" />
<ellipse fill="#96501b" fill-opacity="0.5019607843137255" cx="49" cy="202" rx="7" ry="3" />
<ellipse fill="#582b17" fill-opacity="0.5019607843137255" cx="86" cy="55" rx="10" ry="3" />
<ellipse fill="#8f7324" fill-opacity="0.5019607843137255" cx="17" cy="155" rx="8" ry="4" />
<ellipse fill="#281f19" fill-opacity="0.5019607843137255" cx="76" cy="161" rx="8" ry="14" />
<ellipse fill="#1a1211" fill-opacity="0.5019607843137255" cx="34" cy="204" rx="9" ry="11" />
<ellipse fill="#17060d" fill-opacity="0.5019607843137255" cx="111" cy="79" rx="8" ry="24" />
<ellipse fill="#2a0c0e" fill-opacity="0.5019607843137255" cx="89" cy="28" rx="12" ry="6" />
<ellipse fill="#c9b562" fill-opacity="0.5019607843137255" cx="59" cy="32" rx="3" ry="5" />
<ellipse fill="#d96c17" fill-opacity="0.5019607843137255" cx="81" cy="216" rx="3" ry="2" />
<ellipse fill="#596226" fill-opacity="0.5019607843137255" cx="168" cy="59" rx="6" ry="8" />
<ellipse fill="#b94813" fill-opacity="0.5019607843137255" cx="88" cy="210" rx="4" ry="3" />
<ellipse fill="#844e22" fill-opacity="0.5019607843137255" cx="77" cy="81" rx="2" ry="26" />
<ellipse fill="#74401f" fill-opacity="0.5019607843137255" cx="96" cy="58" rx="2" ry="20" />
<ellipse fill="#1d090f" fill-opacity="0.5019607843137255" cx="79" cy="93" rx="18" ry="3" />
<ellipse fill="#0d000a" fill-opacity="0.5019607843137255" cx="76" cy="74" rx="3" ry="2" />
<ellipse fill="#6a361a" fill-opacity="0.5019607843137255" cx="42" cy="222" rx="7" ry="7" />
<ellipse fill="#522311" fill-opacity="0.5019607843137255" cx="59" cy="215" rx="4" ry="4" />
<ellipse fill="#3d311a" fill-opacity="0.5019607843137255" cx="37" cy="117" rx="8" ry="7" />
<ellipse fill="#c26623" fill-opacity="0.5019607843137255" cx="60" cy="121" rx="5" ry="4" />
<ellipse fill="#9d5117" fill-opacity="0.5019607843137255" cx="66" cy="212" rx="7" ry="6" />
<ellipse fill="#b4a04d" fill-opacity="0.5019607843137255" cx="112" cy="25" rx="6" ry="10" />
<ellipse fill="#ba9f38" fill-opacity="0.5019607843137255" cx="162" cy="44" rx="10" ry="7" />
<ellipse fill="#642212" fill-opacity="0.5019607843137255" cx="154" cy="135" rx="4" ry="5" />
<ellipse fill="#dec66c" fill-opacity="0.5019607843137255" cx="22" cy="44" rx="8" ry="5" />
<ellipse fill="#7a441d" fill-opacity="0.5019607843137255" cx="84" cy="140" rx="16" ry="2" />
<ellipse fill="#180b0e" fill-opacity="0.5019607843137255" cx="100" cy="34" rx="9" ry="6" />
<ellipse fill="#1b180d" fill-opacity="0.5019607843137255" cx="168" cy="92" rx="7" ry="24" />
<ellipse fill="#efaa36" fill-opacity="0.5019607843137255" cx="93" cy="60" rx="2" ry="3" />
<ellipse fill="#c6b150" fill-opacity="0.5019607843137255" cx="147" cy="51" rx="8" ry="14" />
<ellipse fill="#594f2b" fill-opacity="0.5019607843137255" cx="25" cy="107" rx="9" ry="11" />
<ellipse fill="#150d12" fill-opacity="0.5019607843137255" cx="98" cy="220" rx="9" ry="4" />
<ellipse fill="#8b944c" fill-opacity="0.5019607843137255" cx="144" cy="70" rx="4" ry="3" />
<ellipse fill="#2d1613" fill-opacity="0.5019607843137255" cx="116" cy="216" rx="17" ry="7" />
<ellipse fill="#1b0a0d" fill-opacity="0.5019607843137255" cx="88" cy="57" rx="4" ry="2" />
<ellipse fill="#753d1d" fill-opacity="0.5019607843137255" cx="92" cy="74" rx="4" ry="6" />
<ellipse fill="#5b2617" fill-opacity="0.5019607843137255" cx="109" cy="109" rx="7" ry="6" />
<ellipse fill="#cc6b1c" fill-opacity="0.5019607843137255" cx="75" cy="220" rx="3" ry="3" />
<ellipse fill="#342b21" fill-opacity="0.5019607843137255" cx="115" cy="151" rx="5" ry="15" />
<ellipse fill="#1e1014" fill-opacity="0.5019607843137255" cx="65" cy="232" rx="18" ry="9" />
<ellipse fill="#6d3e1f" fill-opacity="0.5019607843137255" cx="117" cy="205" rx="7" ry="2" />
<ellipse fill="#f2ba4e" fill-opacity="0.5019607843137255" cx="73" cy="59" rx="2" ry="14" />
<ellipse fill="#0f0814" fill-opacity="0.5019607843137255" cx="0" cy="147" rx="9" ry="6" />
<ellipse fill="#000005" fill-opacity="0.5019607843137255" cx="83" cy="212" rx="2" ry="2" />
<ellipse fill="#eca736" fill-opacity="0.5019607843137255" cx="85" cy="49" rx="8" ry="3" />
<ellipse fill="#9e8a44" fill-opacity="0.5019607843137255" cx="122" cy="20" rx="25" ry="11" />
<ellipse fill="#e49b30" fill-opacity="0.5019607843137255" cx="82" cy="59" rx="2" ry="5" />
<ellipse fill="#886524" fill-opacity="0.5019607843137255" cx="30" cy="129" rx="6" ry="5" />
<ellipse fill="#4e371f" fill-opacity="0.5019607843137255" cx="5" cy="129" rx="26" ry="5" />
<ellipse fill="#221415" fill-opacity="0.5019607843137255" cx="63" cy="92" rx="6" ry="11" />
<ellipse fill="#fba12b" fill-opacity="0.5019607843137255" cx="77" cy="204" rx="6" ry="2" />
<ellipse fill="#08070c" fill-opacity="0.5019607843137255" cx="7" cy="210" rx="9" ry="33" />
<ellipse fill="#5d5c22" fill-opacity="0.5019607843137255" cx="167" cy="11" rx="3" ry="8" />
<ellipse fill="#412b1a" fill-opacity="0.5019607843137255" cx="37" cy="199" rx="6" ry="6" />
<ellipse fill="#180b0d" fill-opacity="0.5019607843137255" cx="139" cy="127" rx="11" ry="7" />
<ellipse fill="#2b0d11" fill-opacity="0.5019607843137255" cx="62" cy="57" rx="9" ry="1" />
<ellipse fill="#a86c22" fill-opacity="0.5019607843137255" cx="88" cy="103" rx="12" ry="4" />
<ellipse fill="#a28023" fill-opacity="0.5019607843137255" cx="148" cy="105" rx="3" ry="5" />
<ellipse fill="#a6732a" fill-opacity="0.5019607843137255" cx="22" cy="142" rx="6" ry="2" />
<ellipse fill="#a79448" fill-opacity="0.5019607843137255" cx="38" cy="22" rx="35" ry="7" />
<ellipse fill="#0f0c10" fill-opacity="0.5019607843137255" cx="33" cy="207" rx="19" ry="3" />
<ellipse fill="#483a23" fill-opacity="0.5019607843137255" cx="92" cy="142" rx="3" ry="5" />
<ellipse fill="#110008" fill-opacity="0.5019607843137255" cx="90" cy="204" rx="5" ry="2" />
<ellipse fill="#1a060d" fill-opacity="0.5019607843137255" cx="58" cy="57" rx="2" ry="12" />
<ellipse fill="#ad491c" fill-opacity="0.5019607843137255" cx="89" cy="223" rx="2" ry="3" />
</g>
</svg>