<svg xmlns="http://www.w3.org/2000/svg" version="1.1" width="507" height="768">
<rect x="0" y="0" width="507" height="768" fill="#4d3d1f" />
<g transform="scale(3) translate(0.5 0.5)">
<ellipse fill="#d4bd57" fill-opacity="0.5019607843137255" cx="111" cy="22" rx="141" ry="48" />
<ellipse fill="#ffff65" fill-opacity="0.5019607843137255" cx="81" cy="122" rx="23" ry="18" />
<ellipse fill="#000000" fill-opacity="0.5019607843137255" cx="137" cy="229" rx="168" ry="96" />
<ellipse fill="#ff952d" fill-opacity="0.5019607843137255" cx="60" cy="207" rx="24" ry="18" />
<ellipse fill="#000000" fill-opacity="0.5019607843137255" cx="105" cy="65" rx="13" ry="37" />
<ellipse fill="#ffa839" fill-opacity="0.5019607843137255" cx="76" cy="61" rx="16" ry="29" />
<ellipse fill="#dec865" fill-opacity="0.5019607843137255" cx="31" cy="34" rx="28" ry="20" />
<ellipse fill="#ffb642" fill-opacity="0.5019607843137255" cx="84" cy="121" rx="19" ry="23" />
<ellipse fill="#020005" fill-opacity="0.5019607843137255" cx="137" cy="202" rx="49" ry="81" />
<ellipse fill="#000000" fill-opacity="0.5019607843137255" cx="87" cy="28" rx="17" ry="7" />
<ellipse fill="#131116" fill-opacity="0.5019607843137255" cx="119" cy="82" rx="22" ry="35" />
<ellipse fill="#cab851" fill-opacity="0.5019607843137255" cx="139" cy="38" rx="27" ry="19" />
<ellipse fill="#18000c" fill-opacity="0.5019607843137255" cx="57" cy="83" rx="7" ry="41" />
<ellipse fill="#0c0411" fill-opacity="0.5019607843137255" cx="12" cy="222" rx="33" ry="62" />
<ellipse fill="#8a4319" fill-opacity="0.5019607843137255" cx="81" cy="214" rx="44" ry="10" />
<ellipse fill="#ffb439" fill-opacity="0.5019607843137255" cx="55" cy="196" rx="15" ry="7" />
<ellipse fill="#ffdd5b" fill-opacity="0.5019607843137255" cx="73" cy="126" rx="19" ry="10" />
<ellipse fill="#0e0711" fill-opacity="0.5019607843137255" cx="43" cy="145" rx="14" ry="44" />
<ellipse fill="#000005" fill-opacity="0.5019607843137255" cx="115" cy="250" rx="133" ry="21" />
<ellipse fill="#000008" fill-opacity="0.5019607843137255" cx="86" cy="179" rx="32" ry="19" />
<ellipse fill="#2c0007" fill-opacity="0.5019607843137255" cx="100" cy="46" rx="13" ry="19" />
<ellipse fill="#cd8a34" fill-opacity="0.5019607843137255" cx="78" cy="59" rx="19" ry="28" />
<ellipse fill="#390f0c" fill-opacity="0.5019607843137255" cx="75" cy="56" rx="21" ry="3" />
<ellipse fill="#b86823" fill-opacity="0.5019607843137255" cx="45" cy="221" rx="9" ry="11" />
<ellipse fill="#0d0009" fill-opacity="0.5019607843137255" cx="65" cy="100" rx="12" ry="12" />
<ellipse fill="#6e4523" fill-opacity="0.5019607843137255" cx="30" cy="192" rx="13" ry="11" />
<ellipse fill="#0b0e19" fill-opacity="0.5019607843137255" cx="0" cy="109" rx="8" ry="55" />
<ellipse fill="#ffea64" fill-opacity="0.5019607843137255" cx="73" cy="44" rx="8" ry="11" />
<ellipse fill="#e98a24" fill-opacity="0.5019607843137255" cx="72" cy="206" rx="16" ry="7" />
<ellipse fill="#49291d" fill-opacity="0.5019607843137255" cx="116" cy="136" rx="19" ry="27" />
<ellipse fill="#984b20" fill-opacity="0.5019607843137255" cx="15" cy="147" rx="10" ry="18" />
<ellipse fill="#8c7b1c" fill-opacity="0.5019607843137255" cx="150" cy="113" rx="12" ry="11" />
<ellipse fill="#051006" fill-opacity="0.5019607843137255" cx="168" cy="95" rx="10" ry="25" />
<ellipse fill="#593b26" fill-opacity="0.5019607843137255" cx="67" cy="144" rx="24" ry="8" />
<ellipse fill="#8f6e26" fill-opacity="0.5019607843137255" cx="28" cy="125" rx="9" ry="11" />
<ellipse fill="#cabb46" fill-opacity="0.5019607843137255" cx="150" cy="54" rx="10" ry="18" />
<ellipse fill="#ebcf6b" fill-opacity="0.5019607843137255" cx="43" cy="50" rx="9" ry="9" />
<ellipse fill="#374532" fill-opacity="0.5019607843137255" cx="30" cy="82" rx="26" ry="27" />
<ellipse fill="#03050f" fill-opacity="0.5019607843137255" cx="21" cy="206" rx="30" ry="7" />
<ellipse fill="#b09d4f" fill-opacity="0.5019607843137255" cx="116" cy="22" rx="13" ry="15" />
<ellipse fill="#6e6c37" fill-opacity="0.5019607843137255" cx="11" cy="58" rx="29" ry="9" />
<ellipse fill="#5f713c" fill-opacity="0.5019607843137255" cx="105" cy="0" rx="161" ry="8" />
<ellipse fill="#be6c1d" fill-opacity="0.5019607843137255" cx="99" cy="118" rx="5" ry="23" />
<ellipse fill="#1c050f" fill-opacity="0.5019607843137255" cx="65" cy="223" rx="8" ry="7" />
<ellipse fill="#0c0009" fill-opacity="0.5019607843137255" cx="107" cy="59" rx="9" ry="23" />
<ellipse fill="#43522b" fill-opacity="0.5019607843137255" cx="132" cy="78" rx="12" ry="28" />
<ellipse fill="#512012" fill-opacity="0.5019607843137255" cx="77" cy="77" rx="4" ry="8" />
<ellipse fill="#040005" fill-opacity="0.5019607843137255" cx="141" cy="227" rx="50" ry="18" />
<ellipse fill="#a36923" fill-opacity="0.5019607843137255" cx="113" cy="126" rx="13" ry="4" />
<ellipse fill="#10000a" fill-opacity="0.5019607843137255" cx="59" cy="62" rx="2" ry="26" />
</g>
</svg>