<svg xmlns="http://www.w3.org/2000/svg" version="1.1" width="507" height="768">
<rect x="0" y="0" width="507" height="768" fill="#4d3d1f" />
<g transform="scale(3) translate(0.5 0.5)">
<polygon fill="#d4be57" fill-opacity="0.5019607843137255" points="8.995177,60.827134 -16.000000,-0.310714 184.000000,0.790849 160.180761,71.259084" />
<polygon fill="#ffff5f" fill-opacity="0.5019607843137255" points="100.052135,141.321920 56.178939,135.527466 67.049375,107.582506 101.355902,98.911869" />
<polygon fill="#000000" fill-opacity="0.5019607843137255" points="184.000000,181.343072 169.758625,271.000000 83.379170,271.000000 100.890077,18.258539" />
<polygon fill="#000000" fill-opacity="0.5019607843137255" points="1.704996,271.000000 -16.000000,101.214918 44.760646,226.112398 184.000000,236.016823" />
<polygon fill="#fe8a21" fill-opacity="0.5019607843137255" points="92.186603,211.119585 81.870081,201.194446 46.605275,186.276082 43.974480,229.329202" />
<polygon fill="#dc9038" fill-opacity="0.5019607843137255" points="161.600015,113.789829 115.456778,125.350026 47.698828,-16.000000 80.724253,141.496322" />
<polygon fill="#000004" fill-opacity="0.5019607843137255" points="168.784323,227.900282 184.000000,164.797262 33.600204,139.740617 13.294564,176.480708" />
<polygon fill="#1a0c12" fill-opacity="0.5019607843137255" points="82.848412,13.596699 97.216281,76.195437 13.544805,126.766728 153.462827,75.917263" />
<polygon fill="#dec866" fill-opacity="0.5019607843137255" points="10.124877,16.652369 64.192674,25.568378 48.693440,60.073380 0.338655,46.457111" />
<polygon fill="#ffdd57" fill-opacity="0.5019607843137255" points="52.066520,129.280817 77.549879,107.435481 102.312804,112.061894 92.863066,141.067118" />
<polygon fill="#c6b34b" fill-opacity="0.5019607843137255" points="184.000000,34.835020 163.911033,72.667159 83.109433,12.336023 114.714180,16.354906" />
<polygon fill="#0c0009" fill-opacity="0.5019607843137255" points="52.897099,114.094025 64.526498,27.270460 51.136263,57.920495 76.498249,96.378171" />
<polygon fill="#ffad3a" fill-opacity="0.5019607843137255" points="98.111196,50.911054 72.677427,27.305025 67.224113,86.877545 59.649944,61.261108" />
<polygon fill="#1d0004" fill-opacity="0.5019607843137255" points="83.598742,20.036767 104.909118,28.762132 115.333786,39.005789 59.085561,31.075096" />
<polygon fill="#736b2a" fill-opacity="0.5019607843137255" points="140.361000,99.458420 110.396401,32.205014 134.412386,120.171658 184.000000,133.755298" />
<polygon fill="#000009" fill-opacity="0.5019607843137255" points="183.852059,250.959559 36.609966,229.994355 -16.000000,130.707644 1.672655,271.000000" />
<polygon fill="#ffae34" fill-opacity="0.5019607843137255" points="62.054404,189.131097 88.846564,209.107446 43.980190,198.644549 43.257001,190.558903" />
<polygon fill="#010004" fill-opacity="0.5019607843137255" points="85.113012,227.346505 184.000000,206.537058 106.929294,271.000000 45.494441,205.498303" />
<polygon fill="#0a020e" fill-opacity="0.5019607843137255" points="71.106552,101.069865 9.140269,195.909837 40.415015,118.591332 32.372974,105.845864" />
<polygon fill="#ffb541" fill-opacity="0.5019607843137255" points="85.177322,81.216331 97.381896,56.215042 64.038546,77.869968 72.910893,56.649040" />
<polygon fill="#8a5624" fill-opacity="0.5019607843137255" points="23.024874,161.459513 2.647810,163.058590 23.509126,97.574363 33.763328,127.903266" />
<polygon fill="#1d2926" fill-opacity="0.5019607843137255" points="11.391318,83.979078 72.702876,50.486494 -16.000000,143.206586 -7.962432,32.185448" />
<polygon fill="#833b16" fill-opacity="0.5019607843137255" points="116.575621,201.823287 36.602817,215.013043 41.059777,233.075732 123.083834,210.712355" />
<polygon fill="#06020a" fill-opacity="0.5019607843137255" points="159.623259,210.170830 184.000000,191.346056 27.793317,141.879553 40.064970,187.614744" />
<polygon fill="#ffd658" fill-opacity="0.5019607843137255" points="81.807005,34.459709 67.676233,34.413349 63.252896,54.117170 82.637855,53.659112" />
<polygon fill="#1a1d16" fill-opacity="0.5019607843137255" points="158.500488,97.635353 173.008814,135.054560 184.000000,78.848062 33.196357,92.856963" />
<polygon fill="#05020e" fill-opacity="0.5019607843137255" points="6.257962,271.000000 -16.000000,195.918864 58.051184,205.730714 34.015500,214.977851" />
<polygon fill="#310808" fill-opacity="0.5019607843137255" points="88.579473,21.081661 98.932316,50.124091 57.799319,58.738925 115.630778,58.868328" />
<polygon fill="#545d3d" fill-opacity="0.5019607843137255" points="9.505040,108.237906 42.115694,55.490781 -16.000000,44.151174 54.500914,98.565059" />
<polygon fill="#040005" fill-opacity="0.5019607843137255" points="5.720453,254.268856 172.846705,260.567177 168.232888,106.764071 160.706388,205.392913" />
<polygon fill="#63753f" fill-opacity="0.5019607843137255" points="184.000000,1.043532 -16.000000,-3.078169 67.433367,16.983851 58.198127,11.796967" />
<polygon fill="#8b731f" fill-opacity="0.5019607843137255" points="136.837872,98.486189 184.000000,140.903385 131.584835,111.636011 162.720281,99.075853" />
<polygon fill="#2e1216" fill-opacity="0.5019607843137255" points="102.027738,112.908650 98.080138,66.479112 144.530825,123.355096 107.785027,124.671169" />
<polygon fill="#a09549" fill-opacity="0.5019607843137255" points="10.434829,27.883829 1.986087,16.366681 71.517174,9.798397 112.982833,19.675189" />
<polygon fill="#737728" fill-opacity="0.5019607843137255" points="118.626187,65.607711 154.311361,82.650663 170.926576,-16.000000 174.247320,70.072484" />
<polygon fill="#c5b058" fill-opacity="0.5019607843137255" points="108.487453,30.697717 171.132169,46.734294 115.526044,50.383236 116.108493,45.848378" />
<polygon fill="#050105" fill-opacity="0.5019607843137255" points="184.000000,264.907847 135.238504,253.402215 131.782920,116.639955 150.415377,130.442157" />
<polygon fill="#f2af46" fill-opacity="0.5019607843137255" points="69.110898,85.263749 84.143900,92.253786 64.903695,71.813576 81.731887,36.364044" />
<polygon fill="#fdbd4b" fill-opacity="0.5019607843137255" points="70.306724,113.075233 102.327895,105.218770 78.014014,142.005777 54.603089,122.624049" />
<polygon fill="#573a2a" fill-opacity="0.5019607843137255" points="136.823348,148.336487 136.094923,142.855458 116.331230,148.099206 109.523792,171.787673" />
<polygon fill="#11020b" fill-opacity="0.5019607843137255" points="105.926812,111.806711 97.837567,23.091147 113.647438,42.363100 118.233089,67.479374" />
<polygon fill="#795125" fill-opacity="0.5019607843137255" points="127.598954,121.338238 128.014548,125.251273 66.929974,152.583314 127.561087,115.656696" />
<polygon fill="#28060e" fill-opacity="0.5019607843137255" points="59.900529,39.339118 73.523315,22.003604 106.292162,30.951908 73.771796,29.662688" />
<polygon fill="#dc8b2a" fill-opacity="0.5019607843137255" points="56.724488,189.355543 80.382359,212.421647 93.804800,225.948104 40.643627,194.616617" />
<polygon fill="#16070c" fill-opacity="0.5019607843137255" points="75.942617,209.085876 124.489232,245.853967 104.030583,223.056213 78.789572,207.515542" />
<polygon fill="#241a19" fill-opacity="0.5019607843137255" points="49.112101,83.126964 60.496419,118.311524 60.644236,63.511037 -16.000000,107.944604" />
<polygon fill="#2f3a20" fill-opacity="0.5019607843137255" points="132.206272,109.717459 168.218481,88.067260 173.801356,65.494620 114.219984,79.664899" />
<polygon fill="#d2b95e" fill-opacity="0.5019607843137255" points="33.311819,50.677243 -12.246245,43.327275 65.639641,29.441819 43.501122,58.891952" />
<polygon fill="#b46c23" fill-opacity="0.5019607843137255" points="108.033118,109.994105 79.522169,95.889334 48.338963,146.547138 68.195931,106.839025" />
<polygon fill="#c7b64c" fill-opacity="0.5019607843137255" points="143.676142,72.796565 153.141694,67.833328 156.896942,49.318473 139.035137,24.517960" />
<polygon fill="#743e21" fill-opacity="0.5019607843137255" points="63.674611,142.785326 50.072820,129.890064 84.964088,141.923598 65.685680,151.982275" />
<polygon fill="#ec9b34" fill-opacity="0.5019607843137255" points="95.277206,68.721222 83.153072,76.055179 77.487397,63.265194 96.157310,57.969410" />
<polygon fill="#12090e" fill-opacity="0.5019607843137255" points="33.376683,250.796961 58.221930,221.966078 59.013683,216.458736 127.674597,271.000000" />
<polygon fill="#6c3e26" fill-opacity="0.5019607843137255" points="25.246685,201.936459 18.040823,196.122955 20.661541,183.442452 33.689690,189.889156" />
<polygon fill="#f6c852" fill-opacity="0.5019607843137255" points="86.082622,138.061543 57.414973,133.053333 68.208055,110.009290 105.386056,128.507650" />
<polygon fill="#261d19" fill-opacity="0.5019607843137255" points="10.449410,63.691322 -5.087395,137.113962 27.452671,127.871649 -16.000000,102.082217" />
<polygon fill="#d98e3e" fill-opacity="0.5019607843137255" points="69.636968,86.570167 62.447453,77.655180 62.406081,59.428043 77.309950,92.111263" />
<polygon fill="#5d6d38" fill-opacity="0.5019607843137255" points="113.616624,44.751454 132.834107,50.437996 150.000940,73.358743 128.651972,69.312107" />
<polygon fill="#9e6022" fill-opacity="0.5019607843137255" points="47.485731,216.218878 44.483791,244.196229 56.759456,204.558952 35.645167,215.745208" />
<polygon fill="#221415" fill-opacity="0.5019607843137255" points="54.327717,107.849840 23.363231,147.306677 34.148719,213.196671 59.568263,109.256438" />
<polygon fill="#3c100e" fill-opacity="0.5019607843137255" points="146.443546,126.799008 165.620895,177.540490 165.831951,131.832467 158.793793,122.935947" />
<polygon fill="#250f12" fill-opacity="0.5019607843137255" points="77.995326,100.678442 61.106444,74.985713 60.086146,26.749028 51.953622,118.049677" />
<polygon fill="#ac601c" fill-opacity="0.5019607843137255" points="89.247830,37.528209 97.780768,69.563843 96.918423,47.869650 75.333479,64.102850" />
<polygon fill="#847225" fill-opacity="0.5019607843137255" points="29.415876,136.368729 25.947326,127.501236 15.242426,113.764429 39.523212,126.172736" />
<polygon fill="#686c54" fill-opacity="0.5019607843137255" points="47.752702,90.596134 23.120726,100.465675 46.937349,102.814924 51.470690,93.661045" />
<polygon fill="#9c571f" fill-opacity="0.5019607843137255" points="75.270727,91.369887 81.403077,89.137810 90.942586,82.844581 100.942200,53.899956" />
<polygon fill="#3d442d" fill-opacity="0.5019607843137255" points="46.478741,65.208421 3.995255,65.616751 24.318861,113.980699 41.962551,89.176156" />
<polygon fill="#9e8e45" fill-opacity="0.5019607843137255" points="101.889081,4.039432 184.000000,32.489827 87.182841,21.851151 -16.000000,33.790278" />
<polygon fill="#683018" fill-opacity="0.5019607843137255" points="102.397631,140.678400 102.626105,95.406474 85.648430,100.774044 116.614037,107.313261" />
<polygon fill="#bd6c1e" fill-opacity="0.5019607843137255" points="81.384255,227.303649 41.332698,192.752565 74.482152,216.706096 58.479685,190.665873" />
<polygon fill="#0b070b" fill-opacity="0.5019607843137255" points="87.844123,202.709761 66.203551,191.874656 -3.632918,173.245836 102.379427,183.340668" />
<polygon fill="#e0a137" fill-opacity="0.5019607843137255" points="42.332649,201.132680 66.114970,201.133404 53.985798,188.745387 46.325919,190.759879" />
<polygon fill="#191c0d" fill-opacity="0.5019607843137255" points="157.830290,74.561582 167.984391,120.971149 184.000000,66.590830 120.820780,83.878151" />
<polygon fill="#0f0708" fill-opacity="0.5019607843137255" points="99.231644,247.865427 69.139018,208.459934 136.868555,271.000000 16.999161,232.047910" />
<polygon fill="#9a8325" fill-opacity="0.5019607843137255" points="156.038908,102.926487 152.818801,102.472763 135.837726,111.370875 140.204011,115.584422" />
<polygon fill="#566135" fill-opacity="0.5019607843137255" points="15.249640,64.343497 -16.000000,23.162365 6.140123,-16.000000 -3.006525,68.163026" />
<polygon fill="#2a0f10" fill-opacity="0.5019607843137255" points="98.988272,47.655558 112.883797,40.434313 98.447963,23.050766 77.392620,21.420792" />
<polygon fill="#783f1f" fill-opacity="0.5019607843137255" points="30.029821,144.362029 9.058472,173.320529 4.366394,121.395855 30.962287,144.295246" />
<polygon fill="#11090f" fill-opacity="0.5019607843137255" points="82.821475,151.076376 136.342339,122.805534 184.000000,202.942678 122.021772,137.367136" />
<polygon fill="#1b0e12" fill-opacity="0.5019607843137255" points="117.790745,72.587818 81.102565,93.306720 147.843749,104.062962 115.396210,112.288363" />
<polygon fill="#874721" fill-opacity="0.5019607843137255" points="48.407986,140.437389 70.897171,107.081306 55.705071,118.074245 45.786928,155.611062" />
<polygon fill="#aa9748" fill-opacity="0.5019607843137255" points="74.359009,22.273897 16.009748,63.615784 45.714055,42.309936 10.663953,9.505758" />
<polygon fill="#5d743d" fill-opacity="0.5019607843137255" points="21.244711,1.300936 183.315054,-7.301349 184.000000,19.631746 141.104190,2.004858" />
<polygon fill="#131517" fill-opacity="0.5019607843137255" points="12.232656,98.399084 -4.472101,34.519968 3.229041,230.800853 2.233504,103.641642" />
<polygon fill="#e0c767" fill-opacity="0.5019607843137255" points="39.369067,60.174813 50.333531,59.116273 52.007275,49.025636 38.995306,49.356617" />
<polygon fill="#ce8829" fill-opacity="0.5019607843137255" points="93.585153,107.297243 73.408919,93.904930 101.703518,133.642751 102.324945,108.212238" />
<polygon fill="#150d0e" fill-opacity="0.5019607843137255" points="67.369871,84.813875 76.970177,103.457167 41.379790,125.420147 35.611785,166.434175" />
<polygon fill="#4d1a0d" fill-opacity="0.5019607843137255" points="71.345240,74.120023 79.677951,71.530467 79.791150,81.973049 70.157216,71.381786" />
<polygon fill="#a48f41" fill-opacity="0.5019607843137255" points="20.368482,55.364458 -13.382565,44.938370 -12.303012,32.335571 28.857421,54.032358" />
<polygon fill="#f3ba47" fill-opacity="0.5019607843137255" points="63.004719,41.690520 86.988122,53.299918 84.430028,33.972317 75.599174,32.688509" />
<polygon fill="#612712" fill-opacity="0.5019607843137255" points="52.716864,58.221196 65.150053,53.306405 68.778659,62.513902 71.710578,54.351972" />
<polygon fill="#120f10" fill-opacity="0.5019607843137255" points="40.716800,192.832096 55.927159,161.277685 27.578884,135.799163 51.181830,189.245134" />
<polygon fill="#383d26" fill-opacity="0.5019607843137255" points="136.469900,99.412601 151.959014,75.606787 119.161796,67.474477 120.822096,102.161259" />
<polygon fill="#d2751f" fill-opacity="0.5019607843137255" points="61.955768,194.948245 75.239431,213.312769 68.501043,191.697863 97.085138,217.603446" />
<polygon fill="#0c080e" fill-opacity="0.5019607843137255" points="32.722291,271.000000 37.341849,200.909143 54.144581,208.606531 -16.000000,222.564460" />
<polygon fill="#3a0d18" fill-opacity="0.5019607843137255" points="32.576645,152.779715 -12.823371,148.526773 -9.223089,163.820438 6.007630,142.876638" />
<polygon fill="#3d2d1f" fill-opacity="0.5019607843137255" points="77.354109,163.107733 69.483478,181.579737 76.951482,144.686867 107.598665,132.940893" />
<polygon fill="#c58026" fill-opacity="0.5019607843137255" points="50.858447,229.065135 48.337572,208.068237 56.379300,220.919164 45.331908,229.349518" />
<polygon fill="#ac902a" fill-opacity="0.5019607843137255" points="157.301394,65.635568 164.192492,53.761897 176.742632,45.094931 155.143326,16.822072" />
<polygon fill="#a38420" fill-opacity="0.5019607843137255" points="169.698925,123.831930 139.544811,120.210869 165.309839,119.357881 166.656194,123.102076" />
<polygon fill="#866823" fill-opacity="0.5019607843137255" points="14.956575,160.700904 25.260193,156.881289 18.610250,150.799242 -2.926258,161.175427" />
<polygon fill="#130b0e" fill-opacity="0.5019607843137255" points="148.084647,209.856361 79.423209,160.886740 91.847696,145.910376 103.890356,142.833739" />
<polygon fill="#412116" fill-opacity="0.5019607843137255" points="66.509057,33.845113 54.733431,51.081471 65.481749,28.391906 69.903569,34.433569" />
<polygon fill="#4e4927" fill-opacity="0.5019607843137255" points="32.015909,81.430966 24.419094,56.197725 63.040302,71.022775 44.887838,58.224888" />
<polygon fill="#89481d" fill-opacity="0.5019607843137255" points="79.467869,138.035912 54.975548,133.139717 74.495732,143.012419 102.034841,138.913406" />
<polygon fill="#221818" fill-opacity="0.5019607843137255" points="-16.000000,178.981029 47.095086,184.994370 49.537753,170.339010 -16.000000,156.869897" />
<polygon fill="#e7a13f" fill-opacity="0.5019607843137255" points="60.510021,66.378873 60.340855,59.345072 65.382571,62.390510 76.403771,83.724380" />
<polygon fill="#f1c851" fill-opacity="0.5019607843137255" points="84.338248,138.682223 98.589477,133.450060 95.192730,113.272821 53.989976,126.749754" />
<polygon fill="#5f2612" fill-opacity="0.5019607843137255" points="80.480774,54.818045 86.310553,54.834335 80.070772,51.728023 75.320090,63.857668" />
<polygon fill="#893614" fill-opacity="0.5019607843137255" points="56.404445,202.783502 84.222983,220.994495 91.546957,228.508900 95.831056,225.934461" />
<polygon fill="#0c0808" fill-opacity="0.5019607843137255" points="118.365404,202.694054 113.731177,176.966801 39.916218,176.000148 92.928386,206.462376" />
<polygon fill="#3e4626" fill-opacity="0.5019607843137255" points="136.335494,53.569771 114.456804,72.428097 120.585494,55.083733 141.386493,66.764979" />
<polygon fill="#9c7127" fill-opacity="0.5019607843137255" points="126.658832,125.371232 83.763442,139.213147 109.712094,129.586928 117.771667,120.151401" />
<polygon fill="#653d1d" fill-opacity="0.5019607843137255" points="13.987780,196.246004 37.999418,182.408964 39.971223,193.213144 21.021864,192.940461" />
<polygon fill="#421c16" fill-opacity="0.5019607843137255" points="118.934727,205.225896 88.615406,219.786028 127.857515,214.696219 125.605294,202.351059" />
<polygon fill="#6d6934" fill-opacity="0.5019607843137255" points="30.206992,74.103101 14.878484,56.150536 14.776471,43.963680 4.466247,63.089877" />
<polygon fill="#914818" fill-opacity="0.5019607843137255" points="88.715921,33.430799 95.064401,47.526535 71.854964,21.092870 79.936234,37.917588" />
<polygon fill="#d9c064" fill-opacity="0.5019607843137255" points="17.912298,51.308219 14.759989,47.561105 15.523245,39.354659 39.344323,45.195473" />
<polygon fill="#87491e" fill-opacity="0.5019607843137255" points="75.996738,53.333427 76.395170,63.428888 76.040244,71.348758 82.734970,51.399118" />
<polygon fill="#965e1c" fill-opacity="0.5019607843137255" points="97.630344,205.452645 114.639487,208.870293 90.258302,208.801661 80.576567,208.503306" />
<polygon fill="#573e25" fill-opacity="0.5019607843137255" points="116.440232,157.890944 124.489161,144.647311 129.987463,156.534195 106.352690,163.064736" />
<polygon fill="#703a1d" fill-opacity="0.5019607843137255" points="33.947838,223.140799 36.156249,224.511742 49.985169,236.774877 43.694456,209.821713" />
<polygon fill="#372d23" fill-opacity="0.5019607843137255" points="59.741434,139.901832 84.205969,153.981239 45.167342,153.189260 46.361319,132.289201" />
<polygon fill="#877b3a" fill-opacity="0.5019607843137255" points="74.196612,4.770040 3.822546,2.675823 49.016443,20.589659 131.503392,2.576680" />
<polygon fill="#1d0609" fill-opacity="0.5019607843137255" points="158.344639,128.643396 168.100586,172.158052 184.000000,123.921393 165.388712,132.303011" />
<polygon fill="#944e20" fill-opacity="0.5019607843137255" points="27.134877,143.889365 9.441628,144.717539 7.877959,133.981347 28.330998,141.794915" />
<polygon fill="#1b080c" fill-opacity="0.5019607843137255" points="93.867418,98.830736 79.546352,88.028628 71.539315,104.097364 65.564609,87.327423" />
<polygon fill="#f6bd4a" fill-opacity="0.5019607843137255" points="88.593894,69.192953 91.436060,61.976489 80.880665,62.687293 81.424185,76.432648" />
<polygon fill="#0d090e" fill-opacity="0.5019607843137255" points="35.342008,225.208192 72.518087,269.275568 -3.636461,254.839583 41.309411,191.705615" />
<polygon fill="#7f712c" fill-opacity="0.5019607843137255" points="17.561841,101.330395 15.276515,121.270122 31.900806,127.564959 18.076686,117.328190" />
<polygon fill="#ad994b" fill-opacity="0.5019607843137255" points="84.071106,19.453967 25.353347,40.922230 83.616622,11.599639 136.702034,36.719649" />
<polygon fill="#c3ac4b" fill-opacity="0.5019607843137255" points="143.118366,63.463792 157.731604,57.418121 161.606062,47.185348 132.687722,27.549452" />
<polygon fill="#50431f" fill-opacity="0.5019607843137255" points="35.584277,98.429716 27.937429,132.859564 48.416999,116.640836 3.996028,118.407834" />
<polygon fill="#545842" fill-opacity="0.5019607843137255" points="5.939393,103.916905 51.172658,87.309880 50.461658,94.802978 6.007996,109.988957" />
<polygon fill="#d08929" fill-opacity="0.5019607843137255" points="85.366780,35.422907 75.968175,31.901126 95.923587,54.064043 85.062670,53.645126" />
<polygon fill="#6a5e2a" fill-opacity="0.5019607843137255" points="151.033743,103.515223 123.457454,100.850078 130.619914,97.415487 150.946307,99.465481" />
<polygon fill="#8f6323" fill-opacity="0.5019607843137255" points="9.251432,137.807741 32.877997,130.031508 39.710577,121.898837 36.031705,132.416745" />
<polygon fill="#f3c552" fill-opacity="0.5019607843137255" points="75.632631,34.678811 82.621141,37.473739 74.034714,61.649047 66.538774,43.202689" />
<polygon fill="#84661d" fill-opacity="0.5019607843137255" points="155.057921,126.906199 184.000000,139.389799 168.332873,132.020629 171.626978,128.945096" />
<polygon fill="#bca556" fill-opacity="0.5019607843137255" points="115.816945,47.039990 110.993375,35.031541 150.602363,50.728597 135.618803,26.313360" />
<polygon fill="#27100f" fill-opacity="0.5019607843137255" points="77.508501,30.883254 85.030867,21.005581 100.309646,32.833900 98.450224,38.160462" />
<polygon fill="#f2df6b" fill-opacity="0.5019607843137255" points="70.349651,137.152597 79.245252,136.723224 88.354473,132.722059 80.712091,125.088310" />
<polygon fill="#84823b" fill-opacity="0.5019607843137255" points="156.727744,67.979447 142.446738,71.810756 125.509188,67.652431 165.939526,66.371945" />
<polygon fill="#1c0f08" fill-opacity="0.5019607843137255" points="158.781701,108.567380 184.000000,129.190936 160.965116,155.417297 178.085749,93.913022" />
<polygon fill="#100c0f" fill-opacity="0.5019607843137255" points="13.413523,169.472917 48.039712,140.405961 0.007670,213.548810 -16.000000,200.742270" />
<polygon fill="#1b1612" fill-opacity="0.5019607843137255" points="30.080565,100.979679 63.814073,110.827716 24.462842,144.017995 49.257324,115.971098" />
<polygon fill="#9f8e48" fill-opacity="0.5019607843137255" points="133.773706,35.520675 157.600991,23.332421 148.103880,10.676541 93.143845,14.221325" />
<polygon fill="#2f1516" fill-opacity="0.5019607843137255" points="49.752788,77.412631 67.189254,25.741974 57.167350,48.067789 65.614694,108.233718" />
<polygon fill="#c6b15e" fill-opacity="0.5019607843137255" points="37.600626,60.140041 72.858024,13.866814 51.723231,49.642959 41.618413,61.663154" />
<polygon fill="#ac7024" fill-opacity="0.5019607843137255" points="54.458850,204.365420 39.995443,222.625537 52.729869,219.217102 52.288027,208.256852" />
<polygon fill="#e2a43b" fill-opacity="0.5019607843137255" points="97.907641,120.324147 93.126150,105.717099 61.526931,115.798555 75.075134,107.205744" />
<polygon fill="#d48626" fill-opacity="0.5019607843137255" points="84.770600,204.204735 63.509579,207.265708 40.570453,196.143668 85.521160,201.570093" />
<polygon fill="#f1b543" fill-opacity="0.5019607843137255" points="48.577747,189.626026 44.090490,196.327174 58.757992,198.063978 51.816827,190.108516" />
<polygon fill="#c77320" fill-opacity="0.5019607843137255" points="75.322557,217.995800 78.236970,221.844837 74.313118,223.276162 54.069074,194.436583" />
<polygon fill="#a5631d" fill-opacity="0.5019607843137255" points="100.600194,142.731817 103.651187,110.430950 85.852237,102.392651 98.103188,100.128091" />
<polygon fill="#481a13" fill-opacity="0.5019607843137255" points="168.228363,162.896150 159.770582,159.064315 167.959460,134.598089 148.951614,132.717981" />
<polygon fill="#8a8540" fill-opacity="0.5019607843137255" points="125.767616,57.094494 137.476200,55.108503 140.024891,46.771325 117.994895,46.057657" />
<polygon fill="#2d3122" fill-opacity="0.5019607843137255" points="41.288042,89.068259 14.077263,102.717139 1.545397,81.871926 61.491317,89.622990" />
<polygon fill="#874d23" fill-opacity="0.5019607843137255" points="60.936653,73.101105 64.467382,80.855070 111.104190,65.559176 73.980399,79.162102" />
<polygon fill="#1c1511" fill-opacity="0.5019607843137255" points="148.616392,107.385185 125.581881,108.285072 97.513311,95.803411 140.200351,104.809412" />
<polygon fill="#7b712f" fill-opacity="0.5019607843137255" points="155.985152,10.388064 184.000000,32.945982 181.591286,3.416637 93.021321,2.427591" />
<polygon fill="#1c0f0c" fill-opacity="0.5019607843137255" points="165.159332,124.236739 133.787959,128.188026 128.751884,135.068723 170.845302,124.300858" />
<polygon fill="#907b25" fill-opacity="0.5019607843137255" points="141.391888,110.782814 152.962906,99.336419 145.804204,118.083218 133.554999,108.841030" />
<polygon fill="#100909" fill-opacity="0.5019607843137255" points="117.970160,237.293909 76.288399,208.529618 84.637916,210.995629 107.555876,252.586491" />
<polygon fill="#2f2016" fill-opacity="0.5019607843137255" points="41.652830,174.867624 38.117609,160.984026 22.542702,191.497190 39.402656,177.181681" />
<polygon fill="#928b45" fill-opacity="0.5019607843137255" points="9.851217,21.599892 50.601262,9.093319 2.306199,10.710096 0.175195,50.423377" />
<polygon fill="#e9b54f" fill-opacity="0.5019607843137255" points="60.997641,61.777391 63.325225,64.412229 74.677280,73.506812 75.020838,63.463621" />
<polygon fill="#170b0f" fill-opacity="0.5019607843137255" points="120.167158,87.009511 111.067273,35.488737 98.037822,70.761323 128.105994,119.632939" />
<polygon fill="#281316" fill-opacity="0.5019607843137255" points="90.490828,231.786179 67.315242,220.205136 79.002840,224.454198 44.913052,232.372483" />
<polygon fill="#1e1517" fill-opacity="0.5019607843137255" points="8.423085,205.760872 57.387305,173.300477 23.035079,194.390800 27.477800,207.780386" />
<polygon fill="#4e271a" fill-opacity="0.5019607843137255" points="112.343215,105.238662 111.221647,130.542866 108.094154,117.352153 94.286382,86.387860" />
<polygon fill="#0f0a0a" fill-opacity="0.5019607843137255" points="62.489852,191.932108 86.795705,165.188982 184.000000,161.239081 106.614966,204.573218" />
<polygon fill="#3a2a22" fill-opacity="0.5019607843137255" points="120.737146,137.040719 109.057964,167.282178 122.957610,160.475013 112.166903,140.577897" />
<polygon fill="#ae6e29" fill-opacity="0.5019607843137255" points="90.752282,79.872323 83.940248,75.298064 85.450569,68.459773 78.051288,91.140372" />
<polygon fill="#703a19" fill-opacity="0.5019607843137255" points="53.451931,199.511785 58.790766,225.571217 60.833130,216.505304 42.715389,204.267081" />
<polygon fill="#5d3b22" fill-opacity="0.5019607843137255" points="53.511067,129.622920 64.195115,135.549353 48.338708,144.974170 45.261315,147.425468" />
<polygon fill="#726830" fill-opacity="0.5019607843137255" points="13.638570,66.777793 37.218696,54.579265 27.425595,49.757539 5.245316,67.397347" />
<polygon fill="#3d1c12" fill-opacity="0.5019607843137255" points="88.014625,54.737241 89.030913,60.833276 82.192594,57.201624 118.931555,57.602306" />
<polygon fill="#462e1b" fill-opacity="0.5019607843137255" points="1.886119,134.661707 32.395144,130.962876 14.600427,120.228971 0.887029,107.171132" />
<polygon fill="#232114" fill-opacity="0.5019607843137255" points="32.492232,111.791730 43.881657,103.577433 52.185988,117.288177 35.463536,119.062971" />
<polygon fill="#0f0917" fill-opacity="0.5019607843137255" points="0.979702,160.857616 -15.417258,162.945385 0.330996,131.126780 6.265116,150.510705" />
<polygon fill="#1a0f11" fill-opacity="0.5019607843137255" points="47.879864,217.674706 34.963783,237.390596 93.534233,231.012868 37.600930,245.278403" />
<polygon fill="#4f2914" fill-opacity="0.5019607843137255" points="115.548111,202.649162 112.831522,219.981119 90.400029,209.927623 124.792793,207.639884" />
<polygon fill="#a36426" fill-opacity="0.5019607843137255" points="85.937304,95.347818 55.152045,125.782809 56.614289,129.880719 64.544762,110.820177" />
<polygon fill="#6f4a23" fill-opacity="0.5019607843137255" points="34.556836,185.062066 25.355338,190.857332 19.119190,201.522201 20.519421,190.855586" />
<polygon fill="#3f1c17" fill-opacity="0.5019607843137255" points="57.021219,117.113746 52.788034,58.758450 65.239521,57.662453 56.366848,50.173795" />
<polygon fill="#e09e31" fill-opacity="0.5019607843137255" points="90.604055,124.479189 97.286069,100.414994 99.297204,133.006302 96.636705,132.937915" />
<polygon fill="#b56e20" fill-opacity="0.5019607843137255" points="98.911895,60.061500 69.900975,62.404002 64.022098,61.159964 58.703930,59.276977" />
<polygon fill="#513629" fill-opacity="0.5019607843137255" points="125.130159,124.910165 123.608493,114.534382 134.454410,124.617067 115.017511,133.036031" />
<polygon fill="#282f22" fill-opacity="0.5019607843137255" points="138.962390,71.278422 144.888169,85.391278 118.087035,80.709292 114.418403,69.363685" />
<polygon fill="#3a2e21" fill-opacity="0.5019607843137255" points="2.580238,165.074125 3.404384,178.918878 20.298840,162.590228 13.107674,160.510685" />
<polygon fill="#664b20" fill-opacity="0.5019607843137255" points="91.282756,137.623046 103.792267,133.041868 99.138455,137.310790 78.606490,153.002365" />
<polygon fill="#dc9e3a" fill-opacity="0.5019607843137255" points="56.291767,131.155441 70.270500,106.189801 62.274198,134.972887 86.488295,139.650238" />
<polygon fill="#736c25" fill-opacity="0.5019607843137255" points="155.364845,71.700342 184.000000,68.036349 164.023525,-7.423755 169.481103,45.779652" />
<polygon fill="#817026" fill-opacity="0.5019607843137255" points="30.329681,116.451859 12.255395,116.927976 35.757477,129.836897 28.628871,117.184377" />
<polygon fill="#724a22" fill-opacity="0.5019607843137255" points="61.620861,145.230016 91.348898,142.718752 56.766856,132.642061 74.883561,150.808281" />
<polygon fill="#3a1c1a" fill-opacity="0.5019607843137255" points="95.158946,80.439989 101.813439,34.192669 97.718742,94.011622 80.978616,99.291729" />
<polygon fill="#b4651d" fill-opacity="0.5019607843137255" points="70.454726,194.565224 58.787232,192.963974 70.362283,199.135049 88.908472,204.229183" />
<polygon fill="#e08a27" fill-opacity="0.5019607843137255" points="56.920013,190.034474 70.959873,196.257090 82.357900,208.129256 88.751325,207.784888" />
<polygon fill="#417d4f" fill-opacity="0.5019607843137255" points="173.012772,3.079108 143.782884,0.650654 135.383004,-16.000000 184.000000,7.181338" />
</g>
</svg>