<svg xmlns="http://www.w3.org/2000/svg" version="1.1" width="507" height="768">
<rect x="0" y="0" width="507" height="768" fill="#4d3d1f" />
<g transform="scale(3) translate(0.5 0.5)">
<path stroke="#fff070" stroke-opacity="0.5019607843137255" fill="none" d="M 166.168988 46.548683 Q 20.082268 -16.000000, 4.443720 51.457184" stroke-width="0.500000" />
<path stroke="#ffdd66" stroke-opacity="0.5019607843137255" fill="none" d="M -14.267354 42.970258 Q 58.715881 46.632070, 184.000000 29.249509" stroke-width="0.500000" />
<path stroke="#ffe761" stroke-opacity="0.5019607843137255" fill="none" d="M -3.234614 36.649494 Q 114.833039 14.420515, 76.841631 139.125866" stroke-width="0.500000" />
<path stroke="#ffe661" stroke-opacity="0.5019607843137255" fill="none" d="M 88.177377 141.337249 Q 104.876687 9.854242, 5.201162 33.386999" stroke-width="0.500000" />
<path stroke="#fae669" stroke-opacity="0.5019607843137255" fill="none" d="M -1.288972 24.269910 Q 135.968792 7.777780, 171.109152 53.544141" stroke-width="0.500000" />
<path stroke="#ffe268" stroke-opacity="0.5019607843137255" fill="none" d="M -1.692616 14.580507 Q 2.460448 76.837715, 180.317114 31.939295" stroke-width="0.500000" />
<path stroke="#ffef70" stroke-opacity="0.5019607843137255" fill="none" d="M 152.965842 70.320940 Q 147.528572 -16.000000, 4.964551 37.168453" stroke-width="0.500000" />
<path stroke="#ffdb59" stroke-opacity="0.5019607843137255" fill="none" d="M 84.907155 140.998141 Q 72.522499 42.547871, 58.034407 -2.322352" stroke-width="0.500000" />
<path stroke="#f8e76a" stroke-opacity="0.5019607843137255" fill="none" d="M 148.868241 70.756098 Q 156.830167 1.036310, 2.288850 18.754637" stroke-width="0.500000" />
<path stroke="#ffd661" stroke-opacity="0.5019607843137255" fill="none" d="M 182.192443 21.770722 Q 39.849592 80.894107, -16.000000 14.323532" stroke-width="0.500000" />
<path stroke="#fbe76f" stroke-opacity="0.5019607843137255" fill="none" d="M 136.320268 2.872042 Q 65.320643 22.317994, 2.315844 48.439745" stroke-width="0.500000" />
<path stroke="#ffd95a" stroke-opacity="0.5019607843137255" fill="none" d="M 81.154331 -3.863430 Q 57.555924 131.881845, 97.337796 134.521209" stroke-width="0.500000" />
<path stroke="#ffec6f" stroke-opacity="0.5019607843137255" fill="none" d="M -0.342746 42.332675 Q 143.355068 -16.000000, 157.321165 68.636437" stroke-width="0.500000" />
<path stroke="#ffd758" stroke-opacity="0.5019607843137255" fill="none" d="M 54.540656 -16.000000 Q 88.287766 129.044049, 74.632497 137.035112" stroke-width="0.500000" />
<path stroke="#ffe863" stroke-opacity="0.5019607843137255" fill="none" d="M -1.861806 47.308647 Q 65.524307 11.790823, 87.150428 136.407879" stroke-width="0.500000" />
<path stroke="#ffed65" stroke-opacity="0.5019607843137255" fill="none" d="M 2.326422 24.556794 Q 94.485118 21.015295, 81.857144 74.337136" stroke-width="0.500000" />
<path stroke="#fbd663" stroke-opacity="0.5019607843137255" fill="none" d="M 175.180535 46.049861 Q 43.158845 30.681063, 1.001854 46.398794" stroke-width="0.500000" />
<path stroke="#ffe46c" stroke-opacity="0.5019607843137255" fill="none" d="M 95.007119 69.275833 Q 5.026440 56.787490, 4.562792 0.911993" stroke-width="0.500000" />
<path stroke="#ffff72" stroke-opacity="0.5019607843137255" fill="none" d="M 54.445443 127.863504 Q 97.539918 149.691210, 94.458646 100.694324" stroke-width="0.500000" />
<path stroke="#f4cf60" stroke-opacity="0.5019607843137255" fill="none" d="M -16.000000 44.623602 Q 33.633769 53.403605, 162.123713 27.254226" stroke-width="0.500000" />
<path stroke="#ffe36b" stroke-opacity="0.5019607843137255" fill="none" d="M 93.317419 63.358219 Q 5.069470 69.340969, 4.863545 -16.000000" stroke-width="0.500000" />
<path stroke="#ffff60" stroke-opacity="0.5019607843137255" fill="none" d="M 52.509117 127.284050 Q 95.264361 154.970671, 99.510927 99.980016" stroke-width="0.500000" />
<path stroke="#e9c75c" stroke-opacity="0.5019607843137255" fill="none" d="M 0.317995 14.332700 Q 81.938457 83.338423, 164.599130 9.711202" stroke-width="0.500000" />
<path stroke="#ffcf59" stroke-opacity="0.5019607843137255" fill="none" d="M 11.289031 -0.848835 Q 97.517029 86.770039, 85.020406 138.874763" stroke-width="0.500000" />
<path stroke="#fbe067" stroke-opacity="0.5019607843137255" fill="none" d="M 13.715001 47.856679 Q 85.512415 -12.870712, 164.457129 64.948008" stroke-width="0.500000" />
<path stroke="#ffd759" stroke-opacity="0.5019607843137255" fill="none" d="M 0.997162 22.702513 Q 115.872810 9.802955, 70.999687 134.703368" stroke-width="0.500000" />
<path stroke="#fff57e" stroke-opacity="0.5019607843137255" fill="none" d="M 1.401485 36.579658 Q 61.511582 75.510441, 70.406496 -2.964684" stroke-width="0.500000" />
<path stroke="#efe065" stroke-opacity="0.5019607843137255" fill="none" d="M 39.195088 -5.881962 Q 97.462410 17.628095, 165.255037 65.956748" stroke-width="0.500000" />
<path stroke="#ffff6d" stroke-opacity="0.5019607843137255" fill="none" d="M 93.679241 100.605046 Q 95.684441 145.908073, 53.238887 124.911884" stroke-width="0.500000" />
<path stroke="#ffe566" stroke-opacity="0.5019607843137255" fill="none" d="M -3.884769 31.776042 Q 91.425332 26.422650, 87.438909 68.355121" stroke-width="0.500000" />
<path stroke="#ffce5c" stroke-opacity="0.5019607843137255" fill="none" d="M -14.609744 -16.000000 Q 91.798716 66.209767, 79.923682 142.442226" stroke-width="0.500000" />
<path stroke="#ffc851" stroke-opacity="0.5019607843137255" fill="none" d="M 67.191932 136.149289 Q 125.910067 13.469451, 0.724870 13.499558" stroke-width="0.500000" />
<path stroke="#fff470" stroke-opacity="0.5019607843137255" fill="none" d="M 83.602287 34.767553 Q 67.812137 72.734490, -11.409218 35.086060" stroke-width="0.500000" />
<path stroke="#fce967" stroke-opacity="0.5019607843137255" fill="none" d="M 152.036113 65.357372 Q 166.988095 14.053007, 69.006453 14.202693" stroke-width="0.500000" />
<path stroke="#ffff67" stroke-opacity="0.5019607843137255" fill="none" d="M 54.692784 126.621922 Q 99.074114 148.209892, 96.706062 96.551620" stroke-width="0.500000" />
<path stroke="#ffbf49" stroke-opacity="0.5019607843137255" fill="none" d="M 54.046554 -3.850845 Q 73.605906 113.308436, 101.124147 134.372530" stroke-width="0.500000" />
<path stroke="#f1dc68" stroke-opacity="0.5019607843137255" fill="none" d="M 153.715248 69.379204 Q 123.485678 -13.695526, 0.442984 41.417123" stroke-width="0.500000" />
<path stroke="#dbcf5f" stroke-opacity="0.5019607843137255" fill="none" d="M 184.000000 32.769000 Q 76.185724 -1.481741, -16.000000 21.878806" stroke-width="0.500000" />
<path stroke="#ffff6f" stroke-opacity="0.5019607843137255" fill="none" d="M 92.435401 104.754456 Q 94.349523 138.316989, 55.463749 125.063645" stroke-width="0.500000" />
<path stroke="#e7d75a" stroke-opacity="0.5019607843137255" fill="none" d="M 154.569571 67.884029 Q 172.514032 10.095433, 70.030052 9.872687" stroke-width="0.500000" />
<path stroke="#ffc451" stroke-opacity="0.5019607843137255" fill="none" d="M 88.138207 140.430694 Q 88.794909 25.976483, 24.348698 16.510594" stroke-width="0.500000" />
<path stroke="#ffff60" stroke-opacity="0.5019607843137255" fill="none" d="M 56.327766 127.598598 Q 99.272531 152.587416, 100.097921 103.611731" stroke-width="0.500000" />
<path stroke="#fff06d" stroke-opacity="0.5019607843137255" fill="none" d="M 90.964664 37.854573 Q 2.383524 32.160098, -4.179929 49.736383" stroke-width="0.500000" />
<path stroke="#ebd965" stroke-opacity="0.5019607843137255" fill="none" d="M 12.879278 31.266874 Q 139.339707 -15.331291, 149.010142 74.904538" stroke-width="0.500000" />
<path stroke="#ffff60" stroke-opacity="0.5019607843137255" fill="none" d="M 57.722977 133.208577 Q 79.254181 94.214062, 101.736908 131.829249" stroke-width="0.500000" />
<path stroke="#fffc76" stroke-opacity="0.5019607843137255" fill="none" d="M -16.000000 43.331142 Q 37.555160 40.790744, 88.267702 39.406458" stroke-width="0.500000" />
<path stroke="#f3e163" stroke-opacity="0.5019607843137255" fill="none" d="M 169.517197 47.967420 Q 121.969574 64.771005, 78.602759 -9.192431" stroke-width="0.500000" />
<path stroke="#f7bf52" stroke-opacity="0.5019607843137255" fill="none" d="M 6.234308 7.647018 Q 73.462932 63.560165, 95.812257 137.678439" stroke-width="0.500000" />
<path stroke="#ffdd63" stroke-opacity="0.5019607843137255" fill="none" d="M 92.569909 50.695956 Q 37.323562 56.561607, -16.000000 39.372049" stroke-width="0.500000" />
<path stroke="#ffcb56" stroke-opacity="0.5019607843137255" fill="none" d="M 65.706100 136.628134 Q 120.694834 14.630154, -10.307657 27.598783" stroke-width="0.500000" />
<path stroke="#dccd5a" stroke-opacity="0.5019607843137255" fill="none" d="M 60.788333 7.586938 Q 171.493210 8.137532, 157.048359 63.495443" stroke-width="0.500000" />
<path stroke="#ffde65" stroke-opacity="0.5019607843137255" fill="none" d="M 86.160635 41.381633 Q 6.413443 70.509379, 15.802275 -5.619315" stroke-width="0.500000" />
<path stroke="#ffce5d" stroke-opacity="0.5019607843137255" fill="none" d="M 98.724009 54.478861 Q 77.580551 86.633975, -0.283898 32.714647" stroke-width="0.500000" />
<path stroke="#c5c15a" stroke-opacity="0.5019607843137255" fill="none" d="M 7.540172 2.476428 Q 166.898606 -1.147719, 160.532003 54.758200" stroke-width="0.500000" />
<path stroke="#e7d760" stroke-opacity="0.5019607843137255" fill="none" d="M 154.820131 62.408604 Q 148.447546 3.144564, 67.268525 14.263231" stroke-width="0.500000" />
<path stroke="#ffff68" stroke-opacity="0.5019607843137255" fill="none" d="M 57.516430 123.878171 Q 93.465017 135.090407, 88.531249 101.983340" stroke-width="0.500000" />
<path stroke="#dbcb5c" stroke-opacity="0.5019607843137255" fill="none" d="M 162.235118 70.679728 Q 66.888801 -16.000000, 11.404947 20.806615" stroke-width="0.500000" />
<path stroke="#ffc950" stroke-opacity="0.5019607843137255" fill="none" d="M 94.702314 137.621108 Q 59.190626 130.247776, 78.461232 37.984855" stroke-width="0.500000" />
<path stroke="#fffa5f" stroke-opacity="0.5019607843137255" fill="none" d="M 65.321390 110.483005 Q 69.237099 140.998338, 120.450225 126.574704" stroke-width="0.500000" />
<path stroke="#e3d662" stroke-opacity="0.5019607843137255" fill="none" d="M 184.000000 68.238710 Q 134.359555 45.845335, 53.438398 -6.838382" stroke-width="0.500000" />
<path stroke="#ffde66" stroke-opacity="0.5019607843137255" fill="none" d="M 90.961073 47.768668 Q 37.496732 32.066865, -5.071176 54.340780" stroke-width="0.500000" />
<path stroke="#ffff63" stroke-opacity="0.5019607843137255" fill="none" d="M 59.229197 134.974132 Q 75.297547 97.981347, 99.233904 130.972807" stroke-width="0.500000" />
<path stroke="#ffe138" stroke-opacity="0.5019607843137255" fill="none" d="M 89.045730 209.369054 Q 48.141300 188.235091, 42.011675 194.799351" stroke-width="0.500000" />
<path stroke="#ffff5f" stroke-opacity="0.5019607843137255" fill="none" d="M 102.404287 106.576006 Q 94.552646 148.264114, 61.806940 120.282130" stroke-width="0.500000" />
<path stroke="#000000" stroke-opacity="0.5019607843137255" fill="none" d="M -0.276772 254.453473 Q 183.493211 271.000000, 167.855566 94.278725" stroke-width="0.500000" />
<path stroke="#ebd85d" stroke-opacity="0.5019607843137255" fill="none" d="M 175.389820 34.902566 Q 106.358423 78.137066, 100.389780 -8.137265" stroke-width="0.500000" />
<path stroke="#ffed55" stroke-opacity="0.5019607843137255" fill="none" d="M 96.518549 95.000538 Q 105.625251 148.973746, 56.370639 131.123950" stroke-width="0.500000" />
<path stroke="#fff955" stroke-opacity="0.5019607843137255" fill="none" d="M 57.680233 130.937092 Q 82.433477 90.973159, 103.688498 128.929152" stroke-width="0.500000" />
<path stroke="#ffdd62" stroke-opacity="0.5019607843137255" fill="none" d="M -3.962542 43.178593 Q 81.292899 16.805666, 85.042221 54.744562" stroke-width="0.500000" />
<path stroke="#ffdb67" stroke-opacity="0.5019607843137255" fill="none" d="M 94.300963 64.118759 Q 52.761788 71.394930, -16.000000 14.071179" stroke-width="0.500000" />
<path stroke="#000000" stroke-opacity="0.5019607843137255" fill="none" d="M 134.485190 116.518172 Q 184.000000 270.587593, -5.898303 246.520258" stroke-width="0.500000" />
<path stroke="#c9be54" stroke-opacity="0.5019607843137255" fill="none" d="M 164.517404 62.280039 Q 164.407250 -6.702570, 50.288272 10.499054" stroke-width="0.500000" />
<path stroke="#ffdd65" stroke-opacity="0.5019607843137255" fill="none" d="M -2.276094 46.645091 Q 21.800581 51.142712, 86.233732 43.204922" stroke-width="0.500000" />
<path stroke="#e4c058" stroke-opacity="0.5019607843137255" fill="none" d="M -16.000000 35.191936 Q 49.435945 39.570135, 164.439922 45.939368" stroke-width="0.500000" />
<path stroke="#f2b94e" stroke-opacity="0.5019607843137255" fill="none" d="M 96.383375 136.066240 Q 56.912787 133.540405, 79.902574 -11.901519" stroke-width="0.500000" />
<path stroke="#d0c359" stroke-opacity="0.5019607843137255" fill="none" d="M -2.298054 12.355745 Q 68.366506 -12.062326, 171.405947 62.300520" stroke-width="0.500000" />
<path stroke="#d7c75b" stroke-opacity="0.5019607843137255" fill="none" d="M 5.536011 20.972893 Q 121.975035 -7.960933, 151.448536 73.625976" stroke-width="0.500000" />
<path stroke="#ffff62" stroke-opacity="0.5019607843137255" fill="none" d="M 59.751927 134.181717 Q 80.743094 101.194699, 97.905502 136.189688" stroke-width="0.500000" />
<path stroke="#cfc25f" stroke-opacity="0.5019607843137255" fill="none" d="M -16.000000 23.124719 Q 105.179601 10.786730, 173.010490 20.783418" stroke-width="0.500000" />
<path stroke="#ddba54" stroke-opacity="0.5019607843137255" fill="none" d="M 184.000000 31.535010 Q 32.787251 81.186800, -16.000000 -5.868606" stroke-width="0.500000" />
<path stroke="#ffe439" stroke-opacity="0.5019607843137255" fill="none" d="M 86.065639 208.978737 Q 47.665751 190.552091, 42.977305 195.764115" stroke-width="0.500000" />
<path stroke="#ffff68" stroke-opacity="0.5019607843137255" fill="none" d="M 68.684868 107.790765 Q 64.962876 147.776504, 99.695412 131.916722" stroke-width="0.500000" />
<path stroke="#c5bd53" stroke-opacity="0.5019607843137255" fill="none" d="M 154.094297 69.067394 Q 167.946801 -11.403374, 55.960972 6.684789" stroke-width="0.500000" />
<path stroke="#000000" stroke-opacity="0.5019607843137255" fill="none" d="M 168.935233 206.116093 Q 46.596888 271.000000, -2.110404 229.542822" stroke-width="0.500000" />
<path stroke="#ffff67" stroke-opacity="0.5019607843137255" fill="none" d="M 92.960932 100.491512 Q 86.853905 141.478404, 61.942549 126.610334" stroke-width="0.500000" />
<path stroke="#000000" stroke-opacity="0.5019607843137255" fill="none" d="M 167.186106 104.547763 Q 179.623878 271.000000, -16.000000 238.377022" stroke-width="0.500000" />
<path stroke="#c0b751" stroke-opacity="0.5019607843137255" fill="none" d="M 166.185049 61.309479 Q 172.448002 -11.892494, 29.217255 11.262320" stroke-width="0.500000" />
<path stroke="#f4c257" stroke-opacity="0.5019607843137255" fill="none" d="M 8.275311 4.772458 Q 66.547506 92.823438, 97.297479 61.791955" stroke-width="0.500000" />
<path stroke="#000000" stroke-opacity="0.5019607843137255" fill="none" d="M 174.966190 163.474909 Q 131.754102 268.620499, -7.179986 240.955926" stroke-width="0.500000" />
<path stroke="#fbcf59" stroke-opacity="0.5019607843137255" fill="none" d="M -6.658819 40.692341 Q 31.070262 7.204648, 94.485173 52.583658" stroke-width="0.500000" />
<path stroke="#000000" stroke-opacity="0.5019607843137255" fill="none" d="M 4.483718 254.974474 Q 184.000000 255.092632, 125.973659 98.415718" stroke-width="0.500000" />
<path stroke="#000000" stroke-opacity="0.5019607843137255" fill="none" d="M 100.004126 33.919961 Q 184.000000 240.323893, 76.667679 254.986870" stroke-width="0.500000" />
<path stroke="#dac95e" stroke-opacity="0.5019607843137255" fill="none" d="M -14.222708 33.399369 Q 148.279229 -10.832909, 149.777784 73.820183" stroke-width="0.500000" />
<path stroke="#ffda37" stroke-opacity="0.5019607843137255" fill="none" d="M 84.255820 206.025453 Q 55.173339 186.261652, 43.294783 195.157117" stroke-width="0.500000" />
<path stroke="#ffdb35" stroke-opacity="0.5019607843137255" fill="none" d="M 44.600882 197.225781 Q 63.326771 194.487231, 81.869129 215.870559" stroke-width="0.500000" />
<path stroke="#000000" stroke-opacity="0.5019607843137255" fill="none" d="M 97.486795 30.015682 Q 181.470032 255.861170, 8.484006 253.724309" stroke-width="0.500000" />
<path stroke="#000000" stroke-opacity="0.5019607843137255" fill="none" d="M 173.332678 245.862130 Q 70.908933 103.863527, -1.042999 250.657002" stroke-width="0.500000" />
<path stroke="#d3c25d" stroke-opacity="0.5019607843137255" fill="none" d="M 184.000000 16.627020 Q 46.681153 0.953301, 14.413795 61.589571" stroke-width="0.500000" />
<path stroke="#000000" stroke-opacity="0.5019607843137255" fill="none" d="M -2.171145 185.864494 Q 78.810555 104.154425, 176.637470 271.000000" stroke-width="0.500000" />
<path stroke="#fecc59" stroke-opacity="0.5019607843137255" fill="none" d="M 2.908456 58.690849 Q 78.059070 17.975804, 88.961223 47.172570" stroke-width="0.500000" />
<path stroke="#000000" stroke-opacity="0.5019607843137255" fill="none" d="M 166.932060 158.767110 Q 184.000000 270.159355, -16.000000 246.662733" stroke-width="0.500000" />
<path stroke="#ffe84f" stroke-opacity="0.5019607843137255" fill="none" d="M 102.430795 129.931086 Q 85.970612 90.913596, 59.429869 125.469719" stroke-width="0.500000" />
<path stroke="#000000" stroke-opacity="0.5019607843137255" fill="none" d="M 184.000000 245.062806 Q -2.021430 271.000000, 5.602704 177.644863" stroke-width="0.500000" />
<path stroke="#000000" stroke-opacity="0.5019607843137255" fill="none" d="M 137.402917 121.284659 Q 184.000000 269.331951, -7.151629 249.305978" stroke-width="0.500000" />
<path stroke="#dcd05f" stroke-opacity="0.5019607843137255" fill="none" d="M 174.445057 1.062609 Q 107.656339 16.654230, 151.159535 69.466541" stroke-width="0.500000" />
<path stroke="#f7e274" stroke-opacity="0.5019607843137255" fill="none" d="M 0.627117 38.593205 Q 49.212190 74.764286, 62.495834 24.880806" stroke-width="0.500000" />
<path stroke="#000000" stroke-opacity="0.5019607843137255" fill="none" d="M 170.655599 256.903251 Q 139.432915 185.697444, -16.000000 139.242957" stroke-width="0.500000" />
<path stroke="#000000" stroke-opacity="0.5019607843137255" fill="none" d="M 172.275256 271.000000 Q 140.944920 149.295724, 102.763646 27.247392" stroke-width="0.500000" />
<path stroke="#c2b955" stroke-opacity="0.5019607843137255" fill="none" d="M 9.949227 4.130981 Q 148.718135 -3.128853, 160.185549 68.310786" stroke-width="0.500000" />
<path stroke="#000000" stroke-opacity="0.5019607843137255" fill="none" d="M 144.555608 124.960203 Q 184.000000 271.000000, 2.259713 250.765370" stroke-width="0.500000" />
<path stroke="#000000" stroke-opacity="0.5019607843137255" fill="none" d="M 168.119431 254.401258 Q 179.065927 150.972039, 1.499022 182.818867" stroke-width="0.500000" />
<path stroke="#fffd5f" stroke-opacity="0.5019607843137255" fill="none" d="M 54.217884 125.994045 Q 91.435117 148.745414, 96.260682 103.739973" stroke-width="0.500000" />
<path stroke="#e6d756" stroke-opacity="0.5019607843137255" fill="none" d="M 129.779413 6.485236 Q 184.000000 26.113499, 141.023230 68.278625" stroke-width="0.500000" />
<path stroke="#000000" stroke-opacity="0.5019607843137255" fill="none" d="M -0.374263 193.415939 Q 155.168251 103.821418, 169.614024 262.448936" stroke-width="0.500000" />
<path stroke="#000000" stroke-opacity="0.5019607843137255" fill="none" d="M 164.298628 271.000000 Q 163.432079 127.043412, -3.599321 186.631309" stroke-width="0.500000" />
<path stroke="#cfc457" stroke-opacity="0.5019607843137255" fill="none" d="M 144.151682 63.824177 Q 170.697005 -1.352616, 86.699827 2.806083" stroke-width="0.500000" />
<path stroke="#ffce58" stroke-opacity="0.5019607843137255" fill="none" d="M 88.966141 75.229154 Q 78.448380 19.976203, 10.964968 45.521272" stroke-width="0.500000" />
<path stroke="#fffa63" stroke-opacity="0.5019607843137255" fill="none" d="M 70.940459 108.736440 Q 73.456763 139.970228, 105.450609 122.871882" stroke-width="0.500000" />
<path stroke="#ffd060" stroke-opacity="0.5019607843137255" fill="none" d="M 96.604828 51.738305 Q 59.041879 46.488110, -16.000000 43.494098" stroke-width="0.500000" />
<path stroke="#000000" stroke-opacity="0.5019607843137255" fill="none" d="M 174.107336 253.987593 Q 1.947931 268.989861, 0.309568 149.801836" stroke-width="0.500000" />
<path stroke="#000000" stroke-opacity="0.5019607843137255" fill="none" d="M 111.626719 253.739654 Q 184.000000 235.109347, 92.396175 26.733359" stroke-width="0.500000" />
<path stroke="#ffff69" stroke-opacity="0.5019607843137255" fill="none" d="M 102.918295 129.204499 Q 65.920507 145.637107, 70.913085 106.203780" stroke-width="0.500000" />
<path stroke="#ffac2b" stroke-opacity="0.5019607843137255" fill="none" d="M 40.058428 192.412402 Q 69.985788 186.908702, 86.631526 211.382726" stroke-width="0.500000" />
<path stroke="#ffae2a" stroke-opacity="0.5019607843137255" fill="none" d="M 42.110464 197.208089 Q 50.899397 189.917171, 91.397421 224.608993" stroke-width="0.500000" />
<path stroke="#000000" stroke-opacity="0.5019607843137255" fill="none" d="M 171.300044 260.989485 Q 91.986542 104.229589, -2.578695 181.793649" stroke-width="0.500000" />
<path stroke="#ffd746" stroke-opacity="0.5019607843137255" fill="none" d="M 56.621977 131.228464 Q 103.992241 153.020596, 100.448270 102.220117" stroke-width="0.500000" />
<path stroke="#000000" stroke-opacity="0.5019607843137255" fill="none" d="M -0.493437 221.683567 Q 140.740330 271.000000, 171.667557 214.815286" stroke-width="0.500000" />
<path stroke="#000000" stroke-opacity="0.5019607843137255" fill="none" d="M 147.193369 126.811759 Q 184.000000 263.587243, 24.657279 254.663296" stroke-width="0.500000" />
<path stroke="#f0c65d" stroke-opacity="0.5019607843137255" fill="none" d="M 92.141355 65.318581 Q 23.405008 82.812919, 20.020254 -16.000000" stroke-width="0.500000" />
<path stroke="#000000" stroke-opacity="0.5019607843137255" fill="none" d="M 143.807903 127.840706 Q 165.550177 271.000000, -1.822034 230.968451" stroke-width="0.500000" />
<path stroke="#000000" stroke-opacity="0.5019607843137255" fill="none" d="M 167.413567 69.040893 Q 184.000000 269.469794, -7.242154 229.203372" stroke-width="0.500000" />
<path stroke="#f0dd60" stroke-opacity="0.5019607843137255" fill="none" d="M 111.147218 24.301731 Q 140.208649 79.291945, 174.169156 31.952165" stroke-width="0.500000" />
<path stroke="#000000" stroke-opacity="0.5019607843137255" fill="none" d="M -10.223677 234.500381 Q 176.370466 271.000000, 166.279930 161.490282" stroke-width="0.500000" />
<path stroke="#fff95a" stroke-opacity="0.5019607843137255" fill="none" d="M 87.066677 103.270970 Q 92.463688 128.860217, 55.464384 123.764691" stroke-width="0.500000" />
<path stroke="#000000" stroke-opacity="0.5019607843137255" fill="none" d="M 165.032679 72.493629 Q 184.000000 256.439101, -16.000000 242.736672" stroke-width="0.500000" />
<path stroke="#e3d05d" stroke-opacity="0.5019607843137255" fill="none" d="M 102.787081 4.582948 Q 117.549140 76.120938, 171.798516 27.121118" stroke-width="0.500000" />
<path stroke="#000000" stroke-opacity="0.5019607843137255" fill="none" d="M 164.776508 258.691626 Q 184.000000 141.898072, 12.776206 173.684113" stroke-width="0.500000" />
<path stroke="#000000" stroke-opacity="0.5019607843137255" fill="none" d="M 176.567759 243.119251 Q -5.640640 271.000000, 0.566633 162.236672" stroke-width="0.500000" />
<path stroke="#000000" stroke-opacity="0.5019607843137255" fill="none" d="M 152.484670 264.320074 Q 184.000000 150.300736, 24.002818 150.216738" stroke-width="0.500000" />
<path stroke="#000000" stroke-opacity="0.5019607843137255" fill="none" d="M 0.189997 237.266943 Q 173.179350 259.121018, 136.291474 129.070093" stroke-width="0.500000" />
<path stroke="#000000" stroke-opacity="0.5019607843137255" fill="none" d="M -16.000000 169.336536 Q 150.090121 202.840254, 179.712894 229.355835" stroke-width="0.500000" />
<path stroke="#ead96d" stroke-opacity="0.5019607843137255" fill="none" d="M 5.857566 12.275601 Q 51.981348 4.216385, 39.857805 62.902262" stroke-width="0.500000" />
<path stroke="#000000" stroke-opacity="0.5019607843137255" fill="none" d="M 160.172823 256.622479 Q 141.860532 178.629527, -3.876832 175.904805" stroke-width="0.500000" />
<path stroke="#ccba57" stroke-opacity="0.5019607843137255" fill="none" d="M -9.781288 9.583820 Q 134.814966 12.154430, 149.826844 66.380509" stroke-width="0.500000" />
<path stroke="#ffb742" stroke-opacity="0.5019607843137255" fill="none" d="M 72.846618 32.813778 Q 95.579706 73.372633, 74.319631 132.619288" stroke-width="0.500000" />
<path stroke="#e9c053" stroke-opacity="0.5019607843137255" fill="none" d="M 66.707159 77.340130 Q 98.119362 25.794381, 1.214499 3.339845" stroke-width="0.500000" />
<path stroke="#ffa727" stroke-opacity="0.5019607843137255" fill="none" d="M 42.491871 197.089078 Q 82.320803 207.237893, 102.149329 208.843111" stroke-width="0.500000" />
<path stroke="#ffa029" stroke-opacity="0.5019607843137255" fill="none" d="M 93.464603 216.165740 Q 74.001567 193.610485, 35.545250 190.995510" stroke-width="0.500000" />
<path stroke="#000000" stroke-opacity="0.5019607843137255" fill="none" d="M 99.490622 80.321953 Q 184.000000 146.885299, 164.109974 271.000000" stroke-width="0.500000" />
<path stroke="#c6b852" stroke-opacity="0.5019607843137255" fill="none" d="M 161.517237 68.936730 Q 137.927028 -16.000000, -4.082663 22.097580" stroke-width="0.500000" />
<path stroke="#ffff67" stroke-opacity="0.5019607843137255" fill="none" d="M 59.824815 126.888033 Q 94.822188 138.384378, 88.826355 105.070127" stroke-width="0.500000" />
<path stroke="#cfc055" stroke-opacity="0.5019607843137255" fill="none" d="M 153.099755 66.452269 Q 165.115354 5.008725, 73.981117 9.539260" stroke-width="0.500000" />
<path stroke="#000007" stroke-opacity="0.5019607843137255" fill="none" d="M 62.232905 31.575611 Q 58.532038 52.900293, 25.985186 271.000000" stroke-width="0.500000" />
<path stroke="#f9c759" stroke-opacity="0.5019607843137255" fill="none" d="M 90.383975 43.020587 Q 57.473204 62.491382, -10.711643 42.650983" stroke-width="0.500000" />
<path stroke="#e6d45b" stroke-opacity="0.5019607843137255" fill="none" d="M 169.866374 39.980324 Q 135.196077 79.144648, 107.633719 20.626799" stroke-width="0.500000" />
<path stroke="#a8b351" stroke-opacity="0.5019607843137255" fill="none" d="M 54.437876 3.053181 Q 169.210443 -11.517871, 168.269221 57.175584" stroke-width="0.500000" />
<path stroke="#000001" stroke-opacity="0.5019607843137255" fill="none" d="M 3.783246 256.212827 Q -2.597794 166.252735, 80.445518 89.957712" stroke-width="0.500000" />
<path stroke="#000000" stroke-opacity="0.5019607843137255" fill="none" d="M 55.010995 255.586628 Q 184.000000 260.455209, 165.436104 144.221430" stroke-width="0.500000" />
<path stroke="#000000" stroke-opacity="0.5019607843137255" fill="none" d="M 166.281438 239.159185 Q 57.293997 115.259039, 1.900655 240.562903" stroke-width="0.500000" />
<path stroke="#000000" stroke-opacity="0.5019607843137255" fill="none" d="M -12.688661 158.309413 Q 139.477703 241.023280, 160.819090 140.822697" stroke-width="0.500000" />
<path stroke="#ffd144" stroke-opacity="0.5019607843137255" fill="none" d="M 101.998894 122.146665 Q 78.367609 90.093586, 56.969993 130.606758" stroke-width="0.500000" />
<path stroke="#000000" stroke-opacity="0.5019607843137255" fill="none" d="M -0.930225 188.773558 Q 76.729425 104.081867, 172.075766 271.000000" stroke-width="0.500000" />
<path stroke="#000000" stroke-opacity="0.5019607843137255" fill="none" d="M 164.036631 254.990733 Q 175.099539 154.041703, 0.504245 184.594457" stroke-width="0.500000" />
<path stroke="#ebb54f" stroke-opacity="0.5019607843137255" fill="none" d="M 78.128709 87.675248 Q 78.565828 16.562132, -1.239040 30.726294" stroke-width="0.500000" />
<path stroke="#fff25b" stroke-opacity="0.5019607843137255" fill="none" d="M 67.542662 109.434450 Q 64.457900 144.934447, 94.568085 136.765554" stroke-width="0.500000" />
<path stroke="#b3aa4d" stroke-opacity="0.5019607843137255" fill="none" d="M 28.561247 5.301026 Q 184.000000 -2.533957, 171.951741 106.236096" stroke-width="0.500000" />
<path stroke="#f7c157" stroke-opacity="0.5019607843137255" fill="none" d="M 83.235228 77.436421 Q 63.099415 4.572680, 13.154117 42.803766" stroke-width="0.500000" />
<path stroke="#000000" stroke-opacity="0.5019607843137255" fill="none" d="M -4.310598 223.608248 Q 150.292820 271.000000, 170.383268 222.374156" stroke-width="0.500000" />
<path stroke="#000000" stroke-opacity="0.5019607843137255" fill="none" d="M -0.038578 246.266348 Q 99.917904 212.594664, 169.623175 255.402167" stroke-width="0.500000" />
<path stroke="#000000" stroke-opacity="0.5019607843137255" fill="none" d="M 162.480804 252.142356 Q 154.435416 201.986746, 23.965751 158.701114" stroke-width="0.500000" />
<path stroke="#000000" stroke-opacity="0.5019607843137255" fill="none" d="M 0.051304 230.370271 Q 111.641382 97.599880, 172.479775 262.033587" stroke-width="0.500000" />
<path stroke="#fed360" stroke-opacity="0.5019607843137255" fill="none" d="M 92.028902 42.638898 Q 23.835665 41.650091, 8.041634 53.213996" stroke-width="0.500000" />
<path stroke="#000000" stroke-opacity="0.5019607843137255" fill="none" d="M -1.301290 179.663671 Q 149.141176 117.850197, 170.095489 235.026304" stroke-width="0.500000" />
<path stroke="#000000" stroke-opacity="0.5019607843137255" fill="none" d="M 171.336681 195.511778 Q 36.554319 222.203130, 38.096881 132.387446" stroke-width="0.500000" />
<path stroke="#e0ce69" stroke-opacity="0.5019607843137255" fill="none" d="M -16.000000 11.483035 Q 37.116445 58.584223, 79.508110 16.041164" stroke-width="0.500000" />
<path stroke="#cebc4a" stroke-opacity="0.5019607843137255" fill="none" d="M 155.001905 70.290856 Q 184.000000 21.941170, 106.946097 8.289649" stroke-width="0.500000" />
<path stroke="#ffac2b" stroke-opacity="0.5019607843137255" fill="none" d="M 80.007518 223.997016 Q 46.745175 188.057834, 40.999276 194.052533" stroke-width="0.500000" />
<path stroke="#fcd461" stroke-opacity="0.5019607843137255" fill="none" d="M 85.290709 36.720583 Q -16.000000 42.031071, -16.000000 16.861094" stroke-width="0.500000" />
<path stroke="#dacb59" stroke-opacity="0.5019607843137255" fill="none" d="M 108.914800 33.433306 Q 172.403320 58.754506, 162.949369 -10.572412" stroke-width="0.500000" />
<path stroke="#000000" stroke-opacity="0.5019607843137255" fill="none" d="M 184.000000 256.434053 Q 15.362001 185.176302, 46.038463 107.591720" stroke-width="0.500000" />
<path stroke="#000000" stroke-opacity="0.5019607843137255" fill="none" d="M 184.000000 256.149153 Q 33.078533 249.371447, -16.000000 242.605123" stroke-width="0.500000" />
<path stroke="#000000" stroke-opacity="0.5019607843137255" fill="none" d="M 2.559065 179.494739 Q -8.830883 271.000000, 167.951835 251.511993" stroke-width="0.500000" />
<path stroke="#ffff68" stroke-opacity="0.5019607843137255" fill="none" d="M 63.232050 134.122728 Q 75.467847 107.024354, 95.234478 132.261248" stroke-width="0.500000" />
<path stroke="#000000" stroke-opacity="0.5019607843137255" fill="none" d="M -10.292787 198.909366 Q 138.698001 93.981094, 156.715623 270.473234" stroke-width="0.500000" />
<path stroke="#ffff6f" stroke-opacity="0.5019607843137255" fill="none" d="M 77.268151 103.052306 Q 62.376518 125.680886, 87.546182 137.566763" stroke-width="0.500000" />
<path stroke="#ffb430" stroke-opacity="0.5019607843137255" fill="none" d="M 44.510662 191.904384 Q 87.499334 214.025957, 83.913224 219.919167" stroke-width="0.500000" />
<path stroke="#cdc657" stroke-opacity="0.5019607843137255" fill="none" d="M 144.326909 70.954081 Q 171.318143 -1.007697, 111.217822 1.593479" stroke-width="0.500000" />
<path stroke="#000000" stroke-opacity="0.5019607843137255" fill="none" d="M 29.907374 156.450031 Q 129.891103 238.364432, 156.914641 140.440979" stroke-width="0.500000" />
<path stroke="#f2c158" stroke-opacity="0.5019607843137255" fill="none" d="M 9.217133 13.280161 Q 49.532604 84.431345, 98.858095 58.349127" stroke-width="0.500000" />
<path stroke="#000000" stroke-opacity="0.5019607843137255" fill="none" d="M 137.508350 117.968658 Q 153.834075 271.000000, 3.030191 244.829240" stroke-width="0.500000" />
<path stroke="#000003" stroke-opacity="0.5019607843137255" fill="none" d="M 88.947359 86.342749 Q 10.081815 146.282300, 4.396323 252.761470" stroke-width="0.500000" />
<path stroke="#fff157" stroke-opacity="0.5019607843137255" fill="none" d="M 62.943357 127.731968 Q 87.725691 98.735283, 100.037054 131.637374" stroke-width="0.500000" />
<path stroke="#c3b350" stroke-opacity="0.5019607843137255" fill="none" d="M 168.091359 62.394247 Q 161.179484 -16.000000, 20.160066 30.685144" stroke-width="0.500000" />
<path stroke="#000000" stroke-opacity="0.5019607843137255" fill="none" d="M 166.878194 211.649922 Q 151.434258 127.844880, -14.125193 202.568346" stroke-width="0.500000" />
<path stroke="#000000" stroke-opacity="0.5019607843137255" fill="none" d="M 137.774606 121.104968 Q 184.000000 232.012476, 54.932994 237.544955" stroke-width="0.500000" />
<path stroke="#000000" stroke-opacity="0.5019607843137255" fill="none" d="M 111.117093 38.701233 Q 118.797206 173.155657, 89.622899 258.635175" stroke-width="0.500000" />
<path stroke="#000000" stroke-opacity="0.5019607843137255" fill="none" d="M 168.024623 173.573820 Q 181.752681 269.338021, 0.980449 252.058545" stroke-width="0.500000" />
<path stroke="#000000" stroke-opacity="0.5019607843137255" fill="none" d="M 173.166049 271.000000 Q 103.340502 105.368833, 108.805851 31.185113" stroke-width="0.500000" />
<path stroke="#000000" stroke-opacity="0.5019607843137255" fill="none" d="M -8.360868 231.638660 Q 169.281282 271.000000, 168.959908 156.595749" stroke-width="0.500000" />
<path stroke="#000000" stroke-opacity="0.5019607843137255" fill="none" d="M 1.892401 237.991731 Q 170.272945 271.000000, 161.883936 160.632040" stroke-width="0.500000" />
</g>
</svg>