<svg xmlns="http://www.w3.org/2000/svg" version="1.1" width="507" height="768">
<rect x="0" y="0" width="507" height="768" fill="#4d3d1f" />
<g transform="scale(3) translate(0.5 0.5)">
<g transform="translate(96.718453 30.291231) rotate(92.179573) scale(39.814849 128.764187)"><ellipse fill="#d3bc56" fill-opacity="0.5019607843137255" cx="0" cy="0" rx="1" ry="1" /></g>
<g transform="translate(81.436097 122.031505) rotate(62.850098) scale(18.218646 23.978357)"><ellipse fill="#ffff5f" fill-opacity="0.5019607843137255" cx="0" cy="0" rx="1" ry="1" /></g>
<g transform="translate(125.022505 219.844999) rotate(283.485496) scale(97.257763 62.381323)"><ellipse fill="#000000" fill-opacity="0.5019607843137255" cx="0" cy="0" rx="1" ry="1" /></g>
<g transform="translate(111.013167 72.440972) rotate(69.553677) scale(53.390447 15.899957)"><ellipse fill="#000002" fill-opacity="0.5019607843137255" cx="0" cy="0" rx="1" ry="1" /></g>
<g transform="translate(16.934478 235.492593) rotate(331.247570) scale(33.794849 168.000000)"><ellipse fill="#000001" fill-opacity="0.5019607843137255" cx="0" cy="0" rx="1" ry="1" /></g>
<g transform="translate(69.175686 206.224712) rotate(27.675134) scale(29.820979 11.330159)"><ellipse fill="#ff9629" fill-opacity="0.5019607843137255" cx="0" cy="0" rx="1" ry="1" /></g>
<g transform="translate(78.906664 59.492562) rotate(274.650067) scale(27.859126 17.780443)"><ellipse fill="#ffa036" fill-opacity="0.5019607843137255" cx="0" cy="0" rx="1" ry="1" /></g>
<g transform="translate(60.290233 163.650771) rotate(354.958073) scale(43.608031 26.292545)"><ellipse fill="#000009" fill-opacity="0.5019607843137255" cx="0" cy="0" rx="1" ry="1" /></g>
<g transform="translate(31.314048 36.407346) rotate(282.012140) scale(19.066312 27.737520)"><ellipse fill="#dfc866" fill-opacity="0.5019607843137255" cx="0" cy="0" rx="1" ry="1" /></g>
<g transform="translate(79.145131 124.640829) rotate(162.217149) scale(23.278109 17.664126)"><ellipse fill="#ffb947" fill-opacity="0.5019607843137255" cx="0" cy="0" rx="1" ry="1" /></g>
<g transform="translate(143.123891 227.955141) rotate(214.576906) scale(59.070203 106.004676)"><ellipse fill="#000002" fill-opacity="0.5019607843137255" cx="0" cy="0" rx="1" ry="1" /></g>
<g transform="translate(137.545822 34.939466) rotate(116.321066) scale(16.705980 35.121958)"><ellipse fill="#cab551" fill-opacity="0.5019607843137255" cx="0" cy="0" rx="1" ry="1" /></g>
<g transform="translate(96.619438 38.246547) rotate(39.789145) scale(25.626521 8.327307)"><ellipse fill="#140003" fill-opacity="0.5019607843137255" cx="0" cy="0" rx="1" ry="1" /></g>
<g transform="translate(45.868872 128.110528) rotate(28.829873) scale(7.343062 48.306419)"><ellipse fill="#01000a" fill-opacity="0.5019607843137255" cx="0" cy="0" rx="1" ry="1" /></g>
<g transform="translate(54.942261 62.850792) rotate(282.762171) scale(23.247158 4.894978)"><ellipse fill="#16000b" fill-opacity="0.5019607843137255" cx="0" cy="0" rx="1" ry="1" /></g>
<g transform="translate(58.007601 212.899115) rotate(237.356678) scale(10.039120 24.540454)"><ellipse fill="#c96b1f" fill-opacity="0.5019607843137255" cx="0" cy="0" rx="1" ry="1" /></g>
<g transform="translate(29.292965 255.000000) rotate(58.238245) scale(133.021531 25.249242)"><ellipse fill="#00000b" fill-opacity="0.5019607843137255" cx="0" cy="0" rx="1" ry="1" /></g>
<g transform="translate(90.791831 56.131038) rotate(269.302134) scale(2.752106 39.518137)"><ellipse fill="#341310" fill-opacity="0.5019607843137255" cx="0" cy="0" rx="1" ry="1" /></g>
<g transform="translate(94.174412 215.202019) rotate(344.437187) scale(29.117217 8.991233)"><ellipse fill="#7b371a" fill-opacity="0.5019607843137255" cx="0" cy="0" rx="1" ry="1" /></g>
<g transform="translate(119.296781 78.986840) rotate(172.812928) scale(26.180970 29.866213)"><ellipse fill="#25211d" fill-opacity="0.5019607843137255" cx="0" cy="0" rx="1" ry="1" /></g>
<g transform="translate(18.761646 140.409682) rotate(195.647986) scale(12.197779 30.983123)"><ellipse fill="#7e4b21" fill-opacity="0.5019607843137255" cx="0" cy="0" rx="1" ry="1" /></g>
<g transform="translate(74.160693 44.311633) rotate(180.825667) scale(9.175654 10.939258)"><ellipse fill="#ffde5a" fill-opacity="0.5019607843137255" cx="0" cy="0" rx="1" ry="1" /></g>
<g transform="translate(28.009179 87.872079) rotate(255.971789) scale(27.655945 35.538927)"><ellipse fill="#2b362b" fill-opacity="0.5019607843137255" cx="0" cy="0" rx="1" ry="1" /></g>
<g transform="translate(84.370466 246.378143) rotate(348.162646) scale(99.856196 24.340531)"><ellipse fill="#040008" fill-opacity="0.5019607843137255" cx="0" cy="0" rx="1" ry="1" /></g>
<g transform="translate(59.613050 199.190258) rotate(20.041396) scale(17.326348 6.965302)"><ellipse fill="#f8aa32" fill-opacity="0.5019607843137255" cx="0" cy="0" rx="1" ry="1" /></g>
<g transform="translate(64.920562 143.442052) rotate(95.753692) scale(8.087366 26.063622)"><ellipse fill="#563823" fill-opacity="0.5019607843137255" cx="0" cy="0" rx="1" ry="1" /></g>
<g transform="translate(78.956935 125.194193) rotate(190.641155) scale(15.019530 12.630596)"><ellipse fill="#ffe15f" fill-opacity="0.5019607843137255" cx="0" cy="0" rx="1" ry="1" /></g>
<g transform="translate(79.707406 27.492091) rotate(166.171657) scale(17.761073 4.858553)"><ellipse fill="#37070d" fill-opacity="0.5019607843137255" cx="0" cy="0" rx="1" ry="1" /></g>
<g transform="translate(81.310345 176.881275) rotate(275.024823) scale(18.694601 39.004745)"><ellipse fill="#040109" fill-opacity="0.5019607843137255" cx="0" cy="0" rx="1" ry="1" /></g>
<g transform="translate(152.359095 116.667848) rotate(291.767961) scale(6.985642 14.700408)"><ellipse fill="#98841d" fill-opacity="0.5019607843137255" cx="0" cy="0" rx="1" ry="1" /></g>
<g transform="translate(90.181504 105.442119) rotate(106.338909) scale(8.196205 14.977389)"><ellipse fill="#ce7422" fill-opacity="0.5019607843137255" cx="0" cy="0" rx="1" ry="1" /></g>
<g transform="translate(168.000000 95.970206) rotate(266.815476) scale(26.192550 8.368993)"><ellipse fill="#061207" fill-opacity="0.5019607843137255" cx="0" cy="0" rx="1" ry="1" /></g>
<g transform="translate(147.730683 54.663562) rotate(77.918452) scale(17.980987 8.027582)"><ellipse fill="#ccbe4d" fill-opacity="0.5019607843137255" cx="0" cy="0" rx="1" ry="1" /></g>
<g transform="translate(108.609173 66.050452) rotate(176.815205) scale(8.798604 30.515765)"><ellipse fill="#0c0007" fill-opacity="0.5019607843137255" cx="0" cy="0" rx="1" ry="1" /></g>
<g transform="translate(109.382274 128.565933) rotate(342.663604) scale(21.076309 3.012818)"><ellipse fill="#bf7c2a" fill-opacity="0.5019607843137255" cx="0" cy="0" rx="1" ry="1" /></g>
<g transform="translate(65.565248 91.061106) rotate(323.905616) scale(5.724583 18.641425)"><ellipse fill="#160009" fill-opacity="0.5019607843137255" cx="0" cy="0" rx="1" ry="1" /></g>
<g transform="translate(16.743534 58.570268) rotate(178.855892) scale(23.210776 7.858656)"><ellipse fill="#656736" fill-opacity="0.5019607843137255" cx="0" cy="0" rx="1" ry="1" /></g>
<g transform="translate(0.000000 98.548651) rotate(86.999557) scale(59.103416 6.677000)"><ellipse fill="#151117" fill-opacity="0.5019607843137255" cx="0" cy="0" rx="1" ry="1" /></g>
<g transform="translate(68.989343 75.320310) rotate(155.217685) scale(4.856657 17.044083)"><ellipse fill="#e69c40" fill-opacity="0.5019607843137255" cx="0" cy="0" rx="1" ry="1" /></g>
<g transform="translate(32.412958 101.342891) rotate(68.705218) scale(6.735122 23.098520)"><ellipse fill="#605d3e" fill-opacity="0.5019607843137255" cx="0" cy="0" rx="1" ry="1" /></g>
<g transform="translate(100.589961 0.000000) rotate(89.515733) scale(7.474462 159.065926)"><ellipse fill="#60713e" fill-opacity="0.5019607843137255" cx="0" cy="0" rx="1" ry="1" /></g>
<g transform="translate(44.387591 49.710590) rotate(63.399792) scale(10.821597 8.580749)"><ellipse fill="#e0c463" fill-opacity="0.5019607843137255" cx="0" cy="0" rx="1" ry="1" /></g>
<g transform="translate(106.437975 116.827213) rotate(375.240068) scale(6.311168 14.069986)"><ellipse fill="#6f2110" fill-opacity="0.5019607843137255" cx="0" cy="0" rx="1" ry="1" /></g>
<g transform="translate(56.436412 109.856170) rotate(128.388832) scale(23.572437 10.337749)"><ellipse fill="#240e10" fill-opacity="0.5019607843137255" cx="0" cy="0" rx="1" ry="1" /></g>
<g transform="translate(48.755235 206.760116) rotate(123.454737) scale(3.490700 37.998020)"><ellipse fill="#562a17" fill-opacity="0.5019607843137255" cx="0" cy="0" rx="1" ry="1" /></g>
<g transform="translate(139.870863 134.702904) rotate(340.242679) scale(9.166138 16.068418)"><ellipse fill="#030009" fill-opacity="0.5019607843137255" cx="0" cy="0" rx="1" ry="1" /></g>
<g transform="translate(51.404508 21.765155) rotate(258.671343) scale(7.686092 47.546601)"><ellipse fill="#a79849" fill-opacity="0.5019607843137255" cx="0" cy="0" rx="1" ry="1" /></g>
<g transform="translate(132.631750 76.852347) rotate(86.264836) scale(25.452998 12.627248)"><ellipse fill="#4a582d" fill-opacity="0.5019607843137255" cx="0" cy="0" rx="1" ry="1" /></g>
<g transform="translate(49.657720 223.544546) rotate(201.543205) scale(3.803689 10.659173)"><ellipse fill="#ba6720" fill-opacity="0.5019607843137255" cx="0" cy="0" rx="1" ry="1" /></g>
<g transform="translate(156.000657 221.649673) rotate(258.249604) scale(54.219167 22.540869)"><ellipse fill="#010003" fill-opacity="0.5019607843137255" cx="0" cy="0" rx="1" ry="1" /></g>
<g transform="translate(74.230682 203.523443) rotate(291.925092) scale(2.202140 17.848890)"><ellipse fill="#f09228" fill-opacity="0.5019607843137255" cx="0" cy="0" rx="1" ry="1" /></g>
<g transform="translate(78.011923 214.103408) rotate(221.180733) scale(19.749859 2.094286)"><ellipse fill="#c3661d" fill-opacity="0.5019607843137255" cx="0" cy="0" rx="1" ry="1" /></g>
<g transform="translate(160.373380 143.675460) rotate(170.436332) scale(6.254089 19.348508)"><ellipse fill="#4b1812" fill-opacity="0.5019607843137255" cx="0" cy="0" rx="1" ry="1" /></g>
<g transform="translate(122.599321 153.162963) rotate(228.052188) scale(5.376222 11.277225)"><ellipse fill="#60402c" fill-opacity="0.5019607843137255" cx="0" cy="0" rx="1" ry="1" /></g>
<g transform="translate(42.223294 160.924929) rotate(343.809365) scale(12.539723 29.233333)"><ellipse fill="#120c11" fill-opacity="0.5019607843137255" cx="0" cy="0" rx="1" ry="1" /></g>
<g transform="translate(84.470167 68.243400) rotate(98.970575) scale(6.074787 5.406185)"><ellipse fill="#ffbf48" fill-opacity="0.5019607843137255" cx="0" cy="0" rx="1" ry="1" /></g>
<g transform="translate(22.469812 43.093838) rotate(269.132437) scale(6.185270 23.520977)"><ellipse fill="#d1ba5e" fill-opacity="0.5019607843137255" cx="0" cy="0" rx="1" ry="1" /></g>
<g transform="translate(57.389893 63.563076) rotate(4.443496) scale(3.245939 25.196329)"><ellipse fill="#340f10" fill-opacity="0.5019607843137255" cx="0" cy="0" rx="1" ry="1" /></g>
<g transform="translate(77.521832 77.648447) rotate(259.459127) scale(6.500113 4.769890)"><ellipse fill="#6b3418" fill-opacity="0.5019607843137255" cx="0" cy="0" rx="1" ry="1" /></g>
<g transform="translate(92.878715 91.266916) rotate(158.303721) scale(13.801385 6.143096)"><ellipse fill="#290913" fill-opacity="0.5019607843137255" cx="0" cy="0" rx="1" ry="1" /></g>
<g transform="translate(147.662626 67.898120) rotate(357.708471) scale(21.201098 3.004073)"><ellipse fill="#888936" fill-opacity="0.5019607843137255" cx="0" cy="0" rx="1" ry="1" /></g>
<g transform="translate(58.267028 123.724516) rotate(25.260773) scale(3.861853 10.012863)"><ellipse fill="#b36227" fill-opacity="0.5019607843137255" cx="0" cy="0" rx="1" ry="1" /></g>
<g transform="translate(142.908712 85.163216) rotate(15.373262) scale(24.350704 11.229944)"><ellipse fill="#27321d" fill-opacity="0.5019607843137255" cx="0" cy="0" rx="1" ry="1" /></g>
<g transform="translate(64.874240 33.585275) rotate(36.805646) scale(1.676994 10.284189)"><ellipse fill="#2f0f0e" fill-opacity="0.5019607843137255" cx="0" cy="0" rx="1" ry="1" /></g>
<g transform="translate(71.682961 66.481732) rotate(283.334390) scale(19.059797 3.077988)"><ellipse fill="#e7a542" fill-opacity="0.5019607843137255" cx="0" cy="0" rx="1" ry="1" /></g>
<g transform="translate(83.437053 212.233201) rotate(216.523867) scale(9.510933 1.659720)"><ellipse fill="#19030b" fill-opacity="0.5019607843137255" cx="0" cy="0" rx="1" ry="1" /></g>
<g transform="translate(16.754381 212.483262) rotate(350.157008) scale(36.627067 4.556717)"><ellipse fill="#04010d" fill-opacity="0.5019607843137255" cx="0" cy="0" rx="1" ry="1" /></g>
<g transform="translate(51.662142 43.676348) rotate(215.889110) scale(2.836281 22.859144)"><ellipse fill="#d4bd65" fill-opacity="0.5019607843137255" cx="0" cy="0" rx="1" ry="1" /></g>
<g transform="translate(42.951783 109.684212) rotate(270.965508) scale(6.687555 10.836055)"><ellipse fill="#11100b" fill-opacity="0.5019607843137255" cx="0" cy="0" rx="1" ry="1" /></g>
<g transform="translate(148.266588 107.166867) rotate(305.686739) scale(11.759270 4.150787)"><ellipse fill="#8e7920" fill-opacity="0.5019607843137255" cx="0" cy="0" rx="1" ry="1" /></g>
<g transform="translate(114.972712 15.858881) rotate(186.786520) scale(38.628045 11.277991)"><ellipse fill="#978945" fill-opacity="0.5019607843137255" cx="0" cy="0" rx="1" ry="1" /></g>
<g transform="translate(26.742191 191.233613) rotate(213.886814) scale(7.313264 10.471732)"><ellipse fill="#5a3520" fill-opacity="0.5019607843137255" cx="0" cy="0" rx="1" ry="1" /></g>
<g transform="translate(86.848329 43.506165) rotate(152.377619) scale(5.122246 11.015206)"><ellipse fill="#d38827" fill-opacity="0.5019607843137255" cx="0" cy="0" rx="1" ry="1" /></g>
<g transform="translate(129.652988 41.609353) rotate(50.256970) scale(14.591681 16.146693)"><ellipse fill="#b09f52" fill-opacity="0.5019607843137255" cx="0" cy="0" rx="1" ry="1" /></g>
<g transform="translate(12.376837 156.991800) rotate(258.369401) scale(5.510384 10.558119)"><ellipse fill="#876224" fill-opacity="0.5019607843137255" cx="0" cy="0" rx="1" ry="1" /></g>
<g transform="translate(27.968842 124.908926) rotate(129.686713) scale(3.898445 12.383760)"><ellipse fill="#847326" fill-opacity="0.5019607843137255" cx="0" cy="0" rx="1" ry="1" /></g>
<g transform="translate(3.172800 171.915883) rotate(365.816450) scale(36.061236 10.636901)"><ellipse fill="#181116" fill-opacity="0.5019607843137255" cx="0" cy="0" rx="1" ry="1" /></g>
<g transform="translate(66.939533 141.341499) rotate(115.365150) scale(5.969579 12.492546)"><ellipse fill="#6a4321" fill-opacity="0.5019607843137255" cx="0" cy="0" rx="1" ry="1" /></g>
<g transform="translate(16.444556 62.913412) rotate(220.757751) scale(19.095561 7.738234)"><ellipse fill="#626336" fill-opacity="0.5019607843137255" cx="0" cy="0" rx="1" ry="1" /></g>
<g transform="translate(168.000000 47.096719) rotate(13.656083) scale(7.485597 24.862545)"><ellipse fill="#8a7e1e" fill-opacity="0.5019607843137255" cx="0" cy="0" rx="1" ry="1" /></g>
<g transform="translate(13.472100 140.759753) rotate(292.275165) scale(5.703495 11.627371)"><ellipse fill="#913a1d" fill-opacity="0.5019607843137255" cx="0" cy="0" rx="1" ry="1" /></g>
<g transform="translate(92.890287 208.274139) rotate(175.831020) scale(11.893267 3.222756)"><ellipse fill="#965318" fill-opacity="0.5019607843137255" cx="0" cy="0" rx="1" ry="1" /></g>
<g transform="translate(97.004910 32.762185) rotate(292.564589) scale(4.867094 15.974285)"><ellipse fill="#1c020d" fill-opacity="0.5019607843137255" cx="0" cy="0" rx="1" ry="1" /></g>
<g transform="translate(76.332935 131.061231) rotate(278.252336) scale(6.852490 20.213577)"><ellipse fill="#f7c853" fill-opacity="0.5019607843137255" cx="0" cy="0" rx="1" ry="1" /></g>
<g transform="translate(0.000000 95.306388) rotate(80.418937) scale(9.225457 16.658171)"><ellipse fill="#0e1b16" fill-opacity="0.5019607843137255" cx="0" cy="0" rx="1" ry="1" /></g>
<g transform="translate(116.376374 115.950979) rotate(114.307596) scale(6.162909 4.774545)"><ellipse fill="#16000f" fill-opacity="0.5019607843137255" cx="0" cy="0" rx="1" ry="1" /></g>
<g transform="translate(68.369058 215.489236) rotate(307.887544) scale(1.837392 21.970164)"><ellipse fill="#a05219" fill-opacity="0.5019607843137255" cx="0" cy="0" rx="1" ry="1" /></g>
<g transform="translate(92.196501 75.225939) rotate(111.991413) scale(15.337791 3.015789)"><ellipse fill="#85431d" fill-opacity="0.5019607843137255" cx="0" cy="0" rx="1" ry="1" /></g>
<g transform="translate(54.348504 193.981634) rotate(297.035756) scale(4.568242 6.472145)"><ellipse fill="#f5b240" fill-opacity="0.5019607843137255" cx="0" cy="0" rx="1" ry="1" /></g>
<g transform="translate(122.181422 58.960764) rotate(350.667058) scale(6.239360 12.051107)"><ellipse fill="#55552a" fill-opacity="0.5019607843137255" cx="0" cy="0" rx="1" ry="1" /></g>
<g transform="translate(21.387045 20.121390) rotate(73.631478) scale(7.065603 25.451165)"><ellipse fill="#9c924a" fill-opacity="0.5019607843137255" cx="0" cy="0" rx="1" ry="1" /></g>
<g transform="translate(62.445285 245.568445) rotate(175.205631) scale(5.791875 29.872484)"><ellipse fill="#15060d" fill-opacity="0.5019607843137255" cx="0" cy="0" rx="1" ry="1" /></g>
<g transform="translate(51.799893 210.529727) rotate(70.363947) scale(2.155638 16.651842)"><ellipse fill="#a76420" fill-opacity="0.5019607843137255" cx="0" cy="0" rx="1" ry="1" /></g>
<g transform="translate(12.491594 123.791932) rotate(17.719045) scale(14.610786 3.317797)"><ellipse fill="#2f221a" fill-opacity="0.5019607843137255" cx="0" cy="0" rx="1" ry="1" /></g>
<g transform="translate(96.530340 175.531220) rotate(10.506870) scale(13.634265 31.051245)"><ellipse fill="#0d070a" fill-opacity="0.5019607843137255" cx="0" cy="0" rx="1" ry="1" /></g>
<g transform="translate(42.937866 98.529300) rotate(-11.319385) scale(7.254198 6.139298)"><ellipse fill="#696b4c" fill-opacity="0.5019607843137255" cx="0" cy="0" rx="1" ry="1" /></g>
<g transform="translate(82.323799 116.903006) rotate(177.614255) scale(14.261129 9.810714)"><ellipse fill="#f4bc48" fill-opacity="0.5019607843137255" cx="0" cy="0" rx="1" ry="1" /></g>
<g transform="translate(73.433297 106.467605) rotate(325.677028) scale(16.063586 1.697266)"><ellipse fill="#a26326" fill-opacity="0.5019607843137255" cx="0" cy="0" rx="1" ry="1" /></g>
<g transform="translate(82.076264 223.162680) rotate(227.658497) scale(16.226154 1.000000)"><ellipse fill="#2a0f0d" fill-opacity="0.5019607843137255" cx="0" cy="0" rx="1" ry="1" /></g>
<g transform="translate(0.000000 233.468698) rotate(-37.970740) scale(52.078024 13.968378)"><ellipse fill="#09060e" fill-opacity="0.5019607843137255" cx="0" cy="0" rx="1" ry="1" /></g>
<g transform="translate(78.341153 67.525098) rotate(266.625784) scale(13.904587 1.991433)"><ellipse fill="#80461f" fill-opacity="0.5019607843137255" cx="0" cy="0" rx="1" ry="1" /></g>
<g transform="translate(0.000000 21.051001) rotate(92.923809) scale(44.000070 2.009116)"><ellipse fill="#576335" fill-opacity="0.5019607843137255" cx="0" cy="0" rx="1" ry="1" /></g>
<g transform="translate(70.925763 82.485503) rotate(40.413239) scale(10.692047 3.139030)"><ellipse fill="#c68137" fill-opacity="0.5019607843137255" cx="0" cy="0" rx="1" ry="1" /></g>
<g transform="translate(137.779875 110.936717) rotate(103.328943) scale(1.720852 7.988921)"><ellipse fill="#8d812c" fill-opacity="0.5019607843137255" cx="0" cy="0" rx="1" ry="1" /></g>
<g transform="translate(111.421836 216.209761) rotate(261.534480) scale(4.552265 23.696760)"><ellipse fill="#331714" fill-opacity="0.5019607843137255" cx="0" cy="0" rx="1" ry="1" /></g>
<g transform="translate(75.896829 40.661325) rotate(-0.558754) scale(11.489948 5.006229)"><ellipse fill="#f8c550" fill-opacity="0.5019607843137255" cx="0" cy="0" rx="1" ry="1" /></g>
<g transform="translate(71.627299 200.284035) rotate(26.215458) scale(15.836872 3.920571)"><ellipse fill="#d78425" fill-opacity="0.5019607843137255" cx="0" cy="0" rx="1" ry="1" /></g>
<g transform="translate(57.943332 87.437321) rotate(182.495855) scale(2.926668 27.869292)"><ellipse fill="#250c11" fill-opacity="0.5019607843137255" cx="0" cy="0" rx="1" ry="1" /></g>
<g transform="translate(85.282613 195.719823) rotate(109.398487) scale(4.780070 25.421612)"><ellipse fill="#070307" fill-opacity="0.5019607843137255" cx="0" cy="0" rx="1" ry="1" /></g>
<g transform="translate(168.000000 136.999156) rotate(206.456500) scale(50.809670 3.760098)"><ellipse fill="#2d0f11" fill-opacity="0.5019607843137255" cx="0" cy="0" rx="1" ry="1" /></g>
<g transform="translate(168.000000 1.579409) rotate(163.062420) scale(7.142966 45.458299)"><ellipse fill="#5b6829" fill-opacity="0.5019607843137255" cx="0" cy="0" rx="1" ry="1" /></g>
<g transform="translate(105.429829 131.505159) rotate(149.521436) scale(28.300566 3.083697)"><ellipse fill="#7e5423" fill-opacity="0.5019607843137255" cx="0" cy="0" rx="1" ry="1" /></g>
<g transform="translate(65.295092 57.339246) rotate(275.981178) scale(2.219554 7.082001)"><ellipse fill="#572915" fill-opacity="0.5019607843137255" cx="0" cy="0" rx="1" ry="1" /></g>
<g transform="translate(132.354681 40.216430) rotate(3.017166) scale(19.757918 5.208799)"><ellipse fill="#c6ad58" fill-opacity="0.5019607843137255" cx="0" cy="0" rx="1" ry="1" /></g>
<g transform="translate(92.419003 155.377537) rotate(129.365254) scale(28.275313 8.003759)"><ellipse fill="#1b1313" fill-opacity="0.5019607843137255" cx="0" cy="0" rx="1" ry="1" /></g>
<g transform="translate(50.254912 216.244757) rotate(74.750300) scale(6.399209 3.233185)"><ellipse fill="#c78426" fill-opacity="0.5019607843137255" cx="0" cy="0" rx="1" ry="1" /></g>
<g transform="translate(89.905973 56.955391) rotate(166.672442) scale(5.768268 1.000000)"><ellipse fill="#17010a" fill-opacity="0.5019607843137255" cx="0" cy="0" rx="1" ry="1" /></g>
<g transform="translate(49.429840 34.359379) rotate(54.603077) scale(6.100651 29.513219)"><ellipse fill="#bea54d" fill-opacity="0.5019607843137255" cx="0" cy="0" rx="1" ry="1" /></g>
<g transform="translate(76.206757 92.427795) rotate(184.028982) scale(14.138486 2.179533)"><ellipse fill="#16030c" fill-opacity="0.5019607843137255" cx="0" cy="0" rx="1" ry="1" /></g>
<g transform="translate(41.738076 226.895666) rotate(240.297652) scale(10.621981 3.667371)"><ellipse fill="#5f2c1d" fill-opacity="0.5019607843137255" cx="0" cy="0" rx="1" ry="1" /></g>
<g transform="translate(97.541624 119.095657) rotate(88.101068) scale(16.142160 4.829065)"><ellipse fill="#d78c28" fill-opacity="0.5019607843137255" cx="0" cy="0" rx="1" ry="1" /></g>
<g transform="translate(2.491791 145.595349) rotate(206.287124) scale(8.790363 4.523297)"><ellipse fill="#170315" fill-opacity="0.5019607843137255" cx="0" cy="0" rx="1" ry="1" /></g>
<g transform="translate(164.645860 128.984632) rotate(15.231170) scale(2.855127 1.618257)"><ellipse fill="#be921c" fill-opacity="0.5019607843137255" cx="0" cy="0" rx="1" ry="1" /></g>
<g transform="translate(69.625173 68.651764) rotate(6.001882) scale(5.382552 4.568848)"><ellipse fill="#f2ba52" fill-opacity="0.5019607843137255" cx="0" cy="0" rx="1" ry="1" /></g>
<g transform="translate(126.239254 137.579536) rotate(232.796981) scale(8.842115 5.016169)"><ellipse fill="#08000e" fill-opacity="0.5019607843137255" cx="0" cy="0" rx="1" ry="1" /></g>
<g transform="translate(126.093631 104.885984) rotate(272.879863) scale(2.398372 21.991796)"><ellipse fill="#1d130e" fill-opacity="0.5019607843137255" cx="0" cy="0" rx="1" ry="1" /></g>
<g transform="translate(73.701277 218.899635) rotate(43.722373) scale(6.310159 2.059787)"><ellipse fill="#c8711e" fill-opacity="0.5019607843137255" cx="0" cy="0" rx="1" ry="1" /></g>
<g transform="translate(93.356237 43.680857) rotate(150.093109) scale(3.495034 8.864020)"><ellipse fill="#783f1d" fill-opacity="0.5019607843137255" cx="0" cy="0" rx="1" ry="1" /></g>
<g transform="translate(33.567677 48.083676) rotate(27.753220) scale(16.500000 3.156685)"><ellipse fill="#dec268" fill-opacity="0.5019607843137255" cx="0" cy="0" rx="1" ry="1" /></g>
<g transform="translate(108.371131 81.884328) rotate(91.823619) scale(29.255449 7.969477)"><ellipse fill="#1d080f" fill-opacity="0.5019607843137255" cx="0" cy="0" rx="1" ry="1" /></g>
<g transform="translate(95.764613 17.555289) rotate(86.842650) scale(3.796501 25.562842)"><ellipse fill="#a6974c" fill-opacity="0.5019607843137255" cx="0" cy="0" rx="1" ry="1" /></g>
<g transform="translate(55.295913 116.190048) rotate(223.829991) scale(3.772079 31.033874)"><ellipse fill="#160b10" fill-opacity="0.5019607843137255" cx="0" cy="0" rx="1" ry="1" /></g>
<g transform="translate(22.515060 116.712858) rotate(106.915000) scale(5.488877 9.469423)"><ellipse fill="#736421" fill-opacity="0.5019607843137255" cx="0" cy="0" rx="1" ry="1" /></g>
<g transform="translate(26.314785 134.278955) rotate(143.904079) scale(15.260541 2.381358)"><ellipse fill="#896022" fill-opacity="0.5019607843137255" cx="0" cy="0" rx="1" ry="1" /></g>
<g transform="translate(160.497007 34.540323) rotate(321.090846) scale(9.525909 19.461733)"><ellipse fill="#a79433" fill-opacity="0.5019607843137255" cx="0" cy="0" rx="1" ry="1" /></g>
<g transform="translate(75.913036 86.399345) rotate(103.140196) scale(2.315548 4.341273)"><ellipse fill="#f2b347" fill-opacity="0.5019607843137255" cx="0" cy="0" rx="1" ry="1" /></g>
<g transform="translate(81.213616 215.307566) rotate(130.276412) scale(1.000000 16.266764)"><ellipse fill="#c46a1d" fill-opacity="0.5019607843137255" cx="0" cy="0" rx="1" ry="1" /></g>
<g transform="translate(79.709277 100.913200) rotate(237.811428) scale(5.836878 1.987657)"><ellipse fill="#be8332" fill-opacity="0.5019607843137255" cx="0" cy="0" rx="1" ry="1" /></g>
<g transform="translate(151.397052 51.940140) rotate(304.867517) scale(12.161409 7.678871)"><ellipse fill="#c8b145" fill-opacity="0.5019607843137255" cx="0" cy="0" rx="1" ry="1" /></g>
<g transform="translate(152.870451 120.974663) rotate(271.469904) scale(1.042660 11.883186)"><ellipse fill="#aa8c29" fill-opacity="0.5019607843137255" cx="0" cy="0" rx="1" ry="1" /></g>
<g transform="translate(53.015234 57.601315) rotate(188.742473) scale(1.886793 12.586106)"><ellipse fill="#7d5c2c" fill-opacity="0.5019607843137255" cx="0" cy="0" rx="1" ry="1" /></g>
<g transform="translate(73.882535 55.668387) rotate(92.589146) scale(17.349804 1.000000)"><ellipse fill="#f7c452" fill-opacity="0.5019607843137255" cx="0" cy="0" rx="1" ry="1" /></g>
<g transform="translate(139.299931 100.159016) rotate(3.942954) scale(14.157104 2.002047)"><ellipse fill="#6d642a" fill-opacity="0.5019607843137255" cx="0" cy="0" rx="1" ry="1" /></g>
<g transform="translate(89.206292 64.456203) rotate(134.963204) scale(8.540619 3.292780)"><ellipse fill="#e5a238" fill-opacity="0.5019607843137255" cx="0" cy="0" rx="1" ry="1" /></g>
<g transform="translate(51.009831 203.989069) rotate(28.668335) scale(12.260960 3.050611)"><ellipse fill="#94541c" fill-opacity="0.5019607843137255" cx="0" cy="0" rx="1" ry="1" /></g>
<g transform="translate(64.081693 48.254965) rotate(202.300081) scale(3.172087 5.571714)"><ellipse fill="#d99237" fill-opacity="0.5019607843137255" cx="0" cy="0" rx="1" ry="1" /></g>
<g transform="translate(14.973949 53.863111) rotate(336.185006) scale(5.220181 11.485446)"><ellipse fill="#927f3d" fill-opacity="0.5019607843137255" cx="0" cy="0" rx="1" ry="1" /></g>
<g transform="translate(82.210530 140.585889) rotate(182.413166) scale(12.734242 1.974909)"><ellipse fill="#80451c" fill-opacity="0.5019607843137255" cx="0" cy="0" rx="1" ry="1" /></g>
<g transform="translate(102.414343 29.319107) rotate(36.343047) scale(7.777332 1.738334)"><ellipse fill="#300309" fill-opacity="0.5019607843137255" cx="0" cy="0" rx="1" ry="1" /></g>
<g transform="translate(61.397986 39.487399) rotate(114.631445) scale(9.410496 1.000000)"><ellipse fill="#2e120f" fill-opacity="0.5019607843137255" cx="0" cy="0" rx="1" ry="1" /></g>
<g transform="translate(136.008626 0.000000) rotate(92.323218) scale(1.707710 46.171108)"><ellipse fill="#487041" fill-opacity="0.5019607843137255" cx="0" cy="0" rx="1" ry="1" /></g>
<g transform="translate(151.145184 77.550904) rotate(244.427778) scale(6.192412 12.761868)"><ellipse fill="#384920" fill-opacity="0.5019607843137255" cx="0" cy="0" rx="1" ry="1" /></g>
<g transform="translate(36.255339 195.440847) rotate(135.404597) scale(10.506429 6.003474)"><ellipse fill="#422919" fill-opacity="0.5019607843137255" cx="0" cy="0" rx="1" ry="1" /></g>
<g transform="translate(76.053408 73.775425) rotate(264.813962) scale(1.000000 3.663137)"><ellipse fill="#1a000d" fill-opacity="0.5019607843137255" cx="0" cy="0" rx="1" ry="1" /></g>
<g transform="translate(115.657564 126.389740) rotate(85.150455) scale(3.158573 17.427720)"><ellipse fill="#805223" fill-opacity="0.5019607843137255" cx="0" cy="0" rx="1" ry="1" /></g>
<g transform="translate(68.410651 157.806950) rotate(214.694549) scale(20.509769 6.130992)"><ellipse fill="#1f1916" fill-opacity="0.5019607843137255" cx="0" cy="0" rx="1" ry="1" /></g>
<g transform="translate(27.436614 189.805791) rotate(142.806407) scale(3.598877 1.000000)"><ellipse fill="#9d6a2c" fill-opacity="0.5019607843137255" cx="0" cy="0" rx="1" ry="1" /></g>
<g transform="translate(66.593772 78.355559) rotate(84.833477) scale(5.115096 3.035926)"><ellipse fill="#a1632e" fill-opacity="0.5019607843137255" cx="0" cy="0" rx="1" ry="1" /></g>
<g transform="translate(73.915587 25.690469) rotate(51.322051) scale(2.621334 3.525666)"><ellipse fill="#461c16" fill-opacity="0.5019607843137255" cx="0" cy="0" rx="1" ry="1" /></g>
<g transform="translate(155.639224 109.515397) rotate(-26.858890) scale(6.490637 5.256784)"><ellipse fill="#494815" fill-opacity="0.5019607843137255" cx="0" cy="0" rx="1" ry="1" /></g>
<g transform="translate(17.609268 110.896673) rotate(248.910744) scale(3.577489 22.273425)"><ellipse fill="#412f14" fill-opacity="0.5019607843137255" cx="0" cy="0" rx="1" ry="1" /></g>
<g transform="translate(87.912079 58.716581) rotate(197.417871) scale(3.955204 1.580963)"><ellipse fill="#51250f" fill-opacity="0.5019607843137255" cx="0" cy="0" rx="1" ry="1" /></g>
<g transform="translate(9.068603 129.023591) rotate(270.465608) scale(3.475183 22.819770)"><ellipse fill="#4c321e" fill-opacity="0.5019607843137255" cx="0" cy="0" rx="1" ry="1" /></g>
<g transform="translate(41.853515 134.897215) rotate(137.715780) scale(15.224475 7.317983)"><ellipse fill="#1b1316" fill-opacity="0.5019607843137255" cx="0" cy="0" rx="1" ry="1" /></g>
<g transform="translate(96.508826 98.151678) rotate(271.815831) scale(3.857731 4.297942)"><ellipse fill="#864c1c" fill-opacity="0.5019607843137255" cx="0" cy="0" rx="1" ry="1" /></g>
<g transform="translate(59.557856 7.326603) rotate(90.943884) scale(5.427439 42.056768)"><ellipse fill="#807a3c" fill-opacity="0.5019607843137255" cx="0" cy="0" rx="1" ry="1" /></g>
<g transform="translate(17.488163 156.212358) rotate(278.172695) scale(5.661214 6.189373)"><ellipse fill="#8b5e21" fill-opacity="0.5019607843137255" cx="0" cy="0" rx="1" ry="1" /></g>
<g transform="translate(168.000000 58.875324) rotate(103.007609) scale(8.496971 5.013617)"><ellipse fill="#606629" fill-opacity="0.5019607843137255" cx="0" cy="0" rx="1" ry="1" /></g>
<g transform="translate(57.289143 85.696255) rotate(174.721354) scale(6.318154 25.035607)"><ellipse fill="#2e1717" fill-opacity="0.5019607843137255" cx="0" cy="0" rx="1" ry="1" /></g>
<g transform="translate(10.459255 183.350944) rotate(33.777103) scale(6.209153 26.390602)"><ellipse fill="#0e0a0e" fill-opacity="0.5019607843137255" cx="0" cy="0" rx="1" ry="1" /></g>
<g transform="translate(110.734527 208.405091) rotate(80.676340) scale(2.899781 15.989795)"><ellipse fill="#593218" fill-opacity="0.5019607843137255" cx="0" cy="0" rx="1" ry="1" /></g>
<g transform="translate(137.958531 69.688975) rotate(278.694384) scale(1.000000 18.124347)"><ellipse fill="#767d43" fill-opacity="0.5019607843137255" cx="0" cy="0" rx="1" ry="1" /></g>
<g transform="translate(136.428041 182.692678) rotate(266.437219) scale(20.073950 59.508137)"><ellipse fill="#0d070a" fill-opacity="0.5019607843137255" cx="0" cy="0" rx="1" ry="1" /></g>
<g transform="translate(69.199688 226.728176) rotate(183.600980) scale(16.257529 4.184382)"><ellipse fill="#361816" fill-opacity="0.5019607843137255" cx="0" cy="0" rx="1" ry="1" /></g>
<g transform="translate(20.526843 149.108720) rotate(87.573593) scale(2.482737 11.890230)"><ellipse fill="#531517" fill-opacity="0.5019607843137255" cx="0" cy="0" rx="1" ry="1" /></g>
<g transform="translate(35.735087 171.960430) rotate(519.483000) scale(5.028524 5.727315)"><ellipse fill="#3a2b1d" fill-opacity="0.5019607843137255" cx="0" cy="0" rx="1" ry="1" /></g>
<g transform="translate(114.266281 233.316681) rotate(214.849495) scale(45.354860 1.333722)"><ellipse fill="#0d0508" fill-opacity="0.5019607843137255" cx="0" cy="0" rx="1" ry="1" /></g>
<g transform="translate(9.209382 106.135847) rotate(261.025483) scale(4.186824 7.388140)"><ellipse fill="#3d4c3b" fill-opacity="0.5019607843137255" cx="0" cy="0" rx="1" ry="1" /></g>
<g transform="translate(82.933180 85.737801) rotate(58.636843) scale(1.508136 9.696232)"><ellipse fill="#9e5922" fill-opacity="0.5019607843137255" cx="0" cy="0" rx="1" ry="1" /></g>
<g transform="translate(83.246897 206.054399) rotate(38.488818) scale(7.702906 1.000000)"><ellipse fill="#f99729" fill-opacity="0.5019607843137255" cx="0" cy="0" rx="1" ry="1" /></g>
<g transform="translate(70.274698 0.000000) rotate(0.896598) scale(30.056954 2.443285)"><ellipse fill="#5b7e4d" fill-opacity="0.5019607843137255" cx="0" cy="0" rx="1" ry="1" /></g>
<g transform="translate(25.424011 133.155313) rotate(263.312462) scale(1.000000 10.307692)"><ellipse fill="#9a7729" fill-opacity="0.5019607843137255" cx="0" cy="0" rx="1" ry="1" /></g>
<g transform="translate(0.000000 129.349436) rotate(89.425909) scale(31.087072 1.720882)"><ellipse fill="#0e0a13" fill-opacity="0.5019607843137255" cx="0" cy="0" rx="1" ry="1" /></g>
<g transform="translate(27.096985 59.318030) rotate(249.000182) scale(3.786664 13.125619)"><ellipse fill="#665e2f" fill-opacity="0.5019607843137255" cx="0" cy="0" rx="1" ry="1" /></g>
<g transform="translate(66.152887 120.785751) rotate(93.337758) scale(11.759284 2.818640)"><ellipse fill="#e6b143" fill-opacity="0.5019607843137255" cx="0" cy="0" rx="1" ry="1" /></g>
<g transform="translate(83.582822 131.114363) rotate(177.555597) scale(11.991224 6.188832)"><ellipse fill="#f4d55f" fill-opacity="0.5019607843137255" cx="0" cy="0" rx="1" ry="1" /></g>
<g transform="translate(149.119541 105.414466) rotate(110.009561) scale(5.212809 2.600329)"><ellipse fill="#997921" fill-opacity="0.5019607843137255" cx="0" cy="0" rx="1" ry="1" /></g>
<g transform="translate(78.375261 56.953244) rotate(199.430640) scale(1.624284 4.872018)"><ellipse fill="#682d15" fill-opacity="0.5019607843137255" cx="0" cy="0" rx="1" ry="1" /></g>
<g transform="translate(72.058058 33.496064) rotate(247.020705) scale(1.000000 5.240620)"><ellipse fill="#cc7d2c" fill-opacity="0.5019607843137255" cx="0" cy="0" rx="1" ry="1" /></g>
<g transform="translate(103.543445 115.598445) rotate(93.517915) scale(14.144460 2.249366)"><ellipse fill="#7d381a" fill-opacity="0.5019607843137255" cx="0" cy="0" rx="1" ry="1" /></g>
<g transform="translate(158.322030 137.848027) rotate(202.320533) scale(10.551454 3.133824)"><ellipse fill="#4d1612" fill-opacity="0.5019607843137255" cx="0" cy="0" rx="1" ry="1" /></g>
<g transform="translate(58.966079 73.444417) rotate(0.229443) scale(1.000000 32.507108)"><ellipse fill="#1c0f11" fill-opacity="0.5019607843137255" cx="0" cy="0" rx="1" ry="1" /></g>
<g transform="translate(127.626085 51.483976) rotate(5.580682) scale(12.177841 2.825373)"><ellipse fill="#717237" fill-opacity="0.5019607843137255" cx="0" cy="0" rx="1" ry="1" /></g>
<g transform="translate(28.145141 98.126129) rotate(69.805293) scale(3.793344 26.380737)"><ellipse fill="#4f553f" fill-opacity="0.5019607843137255" cx="0" cy="0" rx="1" ry="1" /></g>
<g transform="translate(45.438284 63.861832) rotate(99.923121) scale(4.724623 3.153385)"><ellipse fill="#534f26" fill-opacity="0.5019607843137255" cx="0" cy="0" rx="1" ry="1" /></g>
<g transform="translate(134.125038 119.631676) rotate(319.268105) scale(2.902898 28.992263)"><ellipse fill="#150b11" fill-opacity="0.5019607843137255" cx="0" cy="0" rx="1" ry="1" /></g>
<g transform="translate(80.834502 219.440838) rotate(305.473381) scale(1.000000 13.831868)"><ellipse fill="#4b1c10" fill-opacity="0.5019607843137255" cx="0" cy="0" rx="1" ry="1" /></g>
<g transform="translate(82.661701 66.485412) rotate(355.076029) scale(4.009515 10.063194)"><ellipse fill="#d99638" fill-opacity="0.5019607843137255" cx="0" cy="0" rx="1" ry="1" /></g>
<g transform="translate(22.455603 141.691886) rotate(371.433590) scale(7.636432 1.000000)"><ellipse fill="#9a6c29" fill-opacity="0.5019607843137255" cx="0" cy="0" rx="1" ry="1" /></g>
<g transform="translate(40.316746 53.057545) rotate(173.378408) scale(1.923770 11.381714)"><ellipse fill="#c8af57" fill-opacity="0.5019607843137255" cx="0" cy="0" rx="1" ry="1" /></g>
</g>
</svg>