<svg xmlns="http://www.w3.org/2000/svg" version="1.1" width="507" height="768">
<rect x="0" y="0" width="507" height="768" fill="#4d3d1f" />
<g transform="scale(3) translate(0.5 0.5)">
<g transform="translate(46 26) rotate(195) scale(108 76)"><rect fill="#e8c85d" fill-opacity="0.5019607843137255" x="-0.5" y="-0.5" width="1" height="1" /></g>
<g transform="translate(148 24) rotate(138) scale(71 78)"><rect fill="#e7da5f" fill-opacity="0.5019607843137255" x="-0.5" y="-0.5" width="1" height="1" /></g>
<g transform="translate(81 123) rotate(314) scale(43 35)"><rect fill="#fffb5c" fill-opacity="0.5019607843137255" x="-0.5" y="-0.5" width="1" height="1" /></g>
<g transform="translate(127 204) rotate(166) scale(107 146)"><rect fill="#000000" fill-opacity="0.5019607843137255" x="-0.5" y="-0.5" width="1" height="1" /></g>
<g transform="translate(0 230) rotate(-47) scale(101 238)"><rect fill="#000001" fill-opacity="0.5019607843137255" x="-0.5" y="-0.5" width="1" height="1" /></g>
<g transform="translate(63 208) rotate(188) scale(41 31)"><rect fill="#fa8b26" fill-opacity="0.5019607843137255" x="-0.5" y="-0.5" width="1" height="1" /></g>
<g transform="translate(105 56) rotate(67) scale(80 19)"><rect fill="#040003" fill-opacity="0.5019607843137255" x="-0.5" y="-0.5" width="1" height="1" /></g>
<g transform="translate(45 163) rotate(381) scale(46 44)"><rect fill="#000008" fill-opacity="0.5019607843137255" x="-0.5" y="-0.5" width="1" height="1" /></g>
<g transform="translate(83 122) rotate(94) scale(31 34)"><rect fill="#ffcf50" fill-opacity="0.5019607843137255" x="-0.5" y="-0.5" width="1" height="1" /></g>
<g transform="translate(76 61) rotate(178) scale(24 53)"><rect fill="#fea237" fill-opacity="0.5019607843137255" x="-0.5" y="-0.5" width="1" height="1" /></g>
<g transform="translate(139 233) rotate(252) scale(151 87)"><rect fill="#000002" fill-opacity="0.5019607843137255" x="-0.5" y="-0.5" width="1" height="1" /></g>
<g transform="translate(29 38) rotate(377) scale(51 29)"><rect fill="#ddca66" fill-opacity="0.5019607843137255" x="-0.5" y="-0.5" width="1" height="1" /></g>
<g transform="translate(77 215) rotate(170) scale(83 15)"><rect fill="#8b431a" fill-opacity="0.5019607843137255" x="-0.5" y="-0.5" width="1" height="1" /></g>
<g transform="translate(52 116) rotate(299) scale(68 14)"><rect fill="#00000a" fill-opacity="0.5019607843137255" x="-0.5" y="-0.5" width="1" height="1" /></g>
<g transform="translate(57 63) rotate(188) scale(8 51)"><rect fill="#150007" fill-opacity="0.5019607843137255" x="-0.5" y="-0.5" width="1" height="1" /></g>
<g transform="translate(22 241) rotate(324) scale(47 124)"><rect fill="#00000b" fill-opacity="0.5019607843137255" x="-0.5" y="-0.5" width="1" height="1" /></g>
<g transform="translate(122 108) rotate(148) scale(18 86)"><rect fill="#09000c" fill-opacity="0.5019607843137255" x="-0.5" y="-0.5" width="1" height="1" /></g>
<g transform="translate(64 200) rotate(205) scale(35 11)"><rect fill="#ffae32" fill-opacity="0.5019607843137255" x="-0.5" y="-0.5" width="1" height="1" /></g>
<g transform="translate(86 29) rotate(102) scale(13 34)"><rect fill="#210005" fill-opacity="0.5019607843137255" x="-0.5" y="-0.5" width="1" height="1" /></g>
<g transform="translate(84 4) rotate(85) scale(37 208)"><rect fill="#7e7f40" fill-opacity="0.5019607843137255" x="-0.5" y="-0.5" width="1" height="1" /></g>
<g transform="translate(73 241) rotate(207) scale(46 35)"><rect fill="#000007" fill-opacity="0.5019607843137255" x="-0.5" y="-0.5" width="1" height="1" /></g>
<g transform="translate(86 64) rotate(377) scale(20 40)"><rect fill="#b06622" fill-opacity="0.5019607843137255" x="-0.5" y="-0.5" width="1" height="1" /></g>
<g transform="translate(74 179) rotate(295) scale(32 62)"><rect fill="#03000a" fill-opacity="0.5019607843137255" x="-0.5" y="-0.5" width="1" height="1" /></g>
<g transform="translate(138 42) rotate(203) scale(46 24)"><rect fill="#ceb554" fill-opacity="0.5019607843137255" x="-0.5" y="-0.5" width="1" height="1" /></g>
<g transform="translate(153 119) rotate(209) scale(36 9)"><rect fill="#a38920" fill-opacity="0.5019607843137255" x="-0.5" y="-0.5" width="1" height="1" /></g>
<g transform="translate(101 117) rotate(165) scale(11 37)"><rect fill="#b35719" fill-opacity="0.5019607843137255" x="-0.5" y="-0.5" width="1" height="1" /></g>
<g transform="translate(153 86) rotate(36) scale(67 25)"><rect fill="#25381e" fill-opacity="0.5019607843137255" x="-0.5" y="-0.5" width="1" height="1" /></g>
<g transform="translate(20 83) rotate(52) scale(31 58)"><rect fill="#24382d" fill-opacity="0.5019607843137255" x="-0.5" y="-0.5" width="1" height="1" /></g>
<g transform="translate(73 58) rotate(353) scale(43 6)"><rect fill="#512311" fill-opacity="0.5019607843137255" x="-0.5" y="-0.5" width="1" height="1" /></g>
<g transform="translate(74 45) rotate(222) scale(17 21)"><rect fill="#ffd655" fill-opacity="0.5019607843137255" x="-0.5" y="-0.5" width="1" height="1" /></g>
<g transform="translate(20 141) rotate(195) scale(17 42)"><rect fill="#955622" fill-opacity="0.5019607843137255" x="-0.5" y="-0.5" width="1" height="1" /></g>
<g transform="translate(79 125) rotate(103) scale(24 36)"><rect fill="#ffcb54" fill-opacity="0.5019607843137255" x="-0.5" y="-0.5" width="1" height="1" /></g>
<g transform="translate(78 97) rotate(244) scale(13 93)"><rect fill="#220b10" fill-opacity="0.5019607843137255" x="-0.5" y="-0.5" width="1" height="1" /></g>
<g transform="translate(69 143) rotate(100) scale(13 45)"><rect fill="#5a3323" fill-opacity="0.5019607843137255" x="-0.5" y="-0.5" width="1" height="1" /></g>
<g transform="translate(19 61) rotate(18) scale(31 18)"><rect fill="#6d6f39" fill-opacity="0.5019607843137255" x="-0.5" y="-0.5" width="1" height="1" /></g>
<g transform="translate(128 59) rotate(176) scale(21 22)"><rect fill="#606b38" fill-opacity="0.5019607843137255" x="-0.5" y="-0.5" width="1" height="1" /></g>
<g transform="translate(41 208) rotate(171) scale(25 6)"><rect fill="#00000f" fill-opacity="0.5019607843137255" x="-0.5" y="-0.5" width="1" height="1" /></g>
<g transform="translate(40 29) rotate(105) scale(26 41)"><rect fill="#bea650" fill-opacity="0.5019607843137255" x="-0.5" y="-0.5" width="1" height="1" /></g>
<g transform="translate(77 65) rotate(2) scale(32 12)"><rect fill="#eeac40" fill-opacity="0.5019607843137255" x="-0.5" y="-0.5" width="1" height="1" /></g>
<g transform="translate(97 19) rotate(198) scale(30 8)"><rect fill="#bea850" fill-opacity="0.5019607843137255" x="-0.5" y="-0.5" width="1" height="1" /></g>
<g transform="translate(148 234) rotate(318) scale(108 55)"><rect fill="#000003" fill-opacity="0.5019607843137255" x="-0.5" y="-0.5" width="1" height="1" /></g>
<g transform="translate(68 31) rotate(132) scale(21 3)"><rect fill="#240008" fill-opacity="0.5019607843137255" x="-0.5" y="-0.5" width="1" height="1" /></g>
<g transform="translate(116 126) rotate(249) scale(7 31)"><rect fill="#976729" fill-opacity="0.5019607843137255" x="-0.5" y="-0.5" width="1" height="1" /></g>
<g transform="translate(0 102) rotate(90) scale(104 12)"><rect fill="#131219" fill-opacity="0.5019607843137255" x="-0.5" y="-0.5" width="1" height="1" /></g>
<g transform="translate(89 105) rotate(372) scale(28 11)"><rect fill="#ca7b25" fill-opacity="0.5019607843137255" x="-0.5" y="-0.5" width="1" height="1" /></g>
<g transform="translate(85 208) rotate(43) scale(12 3)"><rect fill="#ff9a27" fill-opacity="0.5019607843137255" x="-0.5" y="-0.5" width="1" height="1" /></g>
<g transform="translate(49 221) rotate(333) scale(16 17)"><rect fill="#af6822" fill-opacity="0.5019607843137255" x="-0.5" y="-0.5" width="1" height="1" /></g>
<g transform="translate(101 0) rotate(90) scale(16 135)"><rect fill="#656d39" fill-opacity="0.5019607843137255" x="-0.5" y="-0.5" width="1" height="1" /></g>
<g transform="translate(57 79) rotate(340) scale(11 36)"><rect fill="#1f0b16" fill-opacity="0.5019607843137255" x="-0.5" y="-0.5" width="1" height="1" /></g>
<g transform="translate(168 63) rotate(-4) scale(55 13)"><rect fill="#a79d35" fill-opacity="0.5019607843137255" x="-0.5" y="-0.5" width="1" height="1" /></g>
</g>
</svg>