<svg xmlns="http://www.w3.org/2000/svg" version="1.1" width="768" height="429">
<rect x="0" y="0" width="768" height="429" fill="#ae7854" />
<g transform="scale(3) translate(0.5 0.5)">
<g transform="translate(248.338034 121.248831) rotate(224.045357) scale(14.785227 90.662757)"><ellipse fill="#000000" fill-opacity="0.5019607843137255" cx="0" cy="0" rx="1" ry="1" /></g>
<ellipse fill="#1b0000" fill-opacity="0.5019607843137255" cx="136" cy="142" rx="64" ry="27" />
<ellipse fill="#fff97b" fill-opacity="0.5019607843137255" cx="131" cy="63" rx="42" ry="21" />
<g transform="translate(207.606007 77.949127) rotate(128.681697) scale(62.267701 43.638456)"><ellipse fill="#ff9d4b" fill-opacity="0.5019607843137255" cx="0" cy="0" rx="1" ry="1" /></g>
<ellipse fill="#999cab" fill-opacity="0.5019607843137255" cx="33" cy="10" rx="61" ry="61" />
<g transform="translate(86 105) rotate(168) scale(29 75)"><rect fill="#540f08" fill-opacity="0.5019607843137255" x="-0.5" y="-0.5" width="1" height="1" /></g>
<polygon fill="#000000" fill-opacity="0.5019607843137255" points="146.939451,101.607631 163.974149,72.065003 117.893300,107.860016 109.849357,83.424953" />
<polygon fill="#370005" fill-opacity="0.5019607843137255" points="111,40 105,9 75,49" />
<ellipse fill="#7c6b84" fill-opacity="0.5019607843137255" cx="33" cy="9" rx="248" ry="18" />
<g transform="translate(255.000000 120.769767) rotate(324.889665) scale(66.447936 14.667669)"><ellipse fill="#040000" fill-opacity="0.5019607843137255" cx="0" cy="0" rx="1" ry="1" /></g>
<rect fill="#dfba96" fill-opacity="0.5019607843137255" x="2" y="28" width="76" height="39" />
<rect fill="#000000" fill-opacity="0.5019607843137255" x="135" y="135" width="72" height="8" />
<g transform="translate(128.562998 66.901538) rotate(266.858801) scale(9.160877 26.863967)"><ellipse fill="#cabfe3" fill-opacity="0.5019607843137255" cx="0" cy="0" rx="1" ry="1" /></g>
<g transform="translate(168.804801 34.824057) rotate(214.000463) scale(41.608422 15.822237)"><ellipse fill="#eb9d7d" fill-opacity="0.5019607843137255" cx="0" cy="0" rx="1" ry="1" /></g>
<rect fill="#000000" fill-opacity="0.5019607843137255" x="118" y="92" width="32" height="10" />
<g transform="translate(32.723219 23.334970) rotate(272.625552) scale(2.324006 44.336812)"><ellipse fill="#3d1904" fill-opacity="0.5019607843137255" cx="0" cy="0" rx="1" ry="1" /></g>
<g transform="translate(222.205728 92.124138) rotate(248.128660) scale(17.182064 46.215252)"><ellipse fill="#ffa53f" fill-opacity="0.5019607843137255" cx="0" cy="0" rx="1" ry="1" /></g>
<polygon fill="#d1aa8d" fill-opacity="0.5019607843137255" points="84,90 42,108 -10,67" />
<rect fill="#f4b515" fill-opacity="0.5019607843137255" x="91" y="45" width="16" height="38" />
<polygon fill="#f59f28" fill-opacity="0.5019607843137255" points="94.850021,82.834836 107.716254,122.625523 126.377281,116.515261 107.557404,83.931528" />
<polygon fill="#310d00" fill-opacity="0.5019607843137255" points="85.946496,39.157989 78.560681,54.744518 90.451709,75.931632 92.031105,85.016241" />
<ellipse fill="#3f352e" fill-opacity="0.5019607843137255" cx="9" cy="0" rx="27" ry="13" />
<g transform="translate(117 32) rotate(367) scale(17 7)"><rect fill="#ffffe7" fill-opacity="0.5019607843137255" x="-0.5" y="-0.5" width="1" height="1" /></g>
<polygon fill="#64110f" fill-opacity="0.5019607843137255" points="134,41 139,21 114,11" />
<polygon fill="#ffe2ba" fill-opacity="0.5019607843137255" points="57,110 91,102 64,117" />
<rect fill="#00001e" fill-opacity="0.5019607843137255" x="117" y="62" width="7" height="7" />
<g transform="translate(74.766575 59.427498) rotate(159.594631) scale(4.677962 30.135374)"><ellipse fill="#ddbc98" fill-opacity="0.5019607843137255" cx="0" cy="0" rx="1" ry="1" /></g>
<ellipse fill="#000028" fill-opacity="0.5019607843137255" cx="143" cy="65" rx="4" ry="4" />
<g transform="translate(157.644297 64.393612) rotate(169.675401) scale(4.177431 28.313754)"><ellipse fill="#ffe838" fill-opacity="0.5019607843137255" cx="0" cy="0" rx="1" ry="1" /></g>
<polygon fill="#150b23" fill-opacity="0.5019607843137255" points="54,74 37,67 49,84" />
<g transform="translate(83 100) rotate(339) scale(26 7)"><rect fill="#000000" fill-opacity="0.5019607843137255" x="-0.5" y="-0.5" width="1" height="1" /></g>
<g transform="translate(99 120) rotate(351) scale(33 9)"><rect fill="#fd665f" fill-opacity="0.5019607843137255" x="-0.5" y="-0.5" width="1" height="1" /></g>
<ellipse fill="#6f2115" fill-opacity="0.5019607843137255" cx="119" cy="40" rx="33" ry="5" />
<ellipse fill="#ea9541" fill-opacity="0.5019607843137255" cx="28" cy="124" rx="23" ry="15" />
<ellipse fill="#000000" fill-opacity="0.5019607843137255" cx="72" cy="81" rx="8" ry="5" />
<polygon fill="#570000" fill-opacity="0.5019607843137255" points="167.691401,119.544748 149.831721,107.623969 135.459626,131.338981 153.519484,129.148216" />
<ellipse fill="#a98283" fill-opacity="0.5019607843137255" cx="214" cy="5" rx="96" ry="27" />
<polygon fill="#270000" fill-opacity="0.5019607843137255" points="54,153 55,128 47,127" />
<ellipse fill="#ffca3e" fill-opacity="0.5019607843137255" cx="135" cy="49" rx="48" ry="7" />
<rect fill="#ffe191" fill-opacity="0.5019607843137255" x="124" y="83" width="17" height="10" />
<polygon fill="#b85c2e" fill-opacity="0.5019607843137255" points="166.735754,122.935730 65.622147,151.312815 206.710333,126.299722 177.709061,106.114394" />
<g transform="translate(146 94) rotate(302) scale(18 10)"><rect fill="#000000" fill-opacity="0.5019607843137255" x="-0.5" y="-0.5" width="1" height="1" /></g>
<polygon fill="#cf6d2a" fill-opacity="0.5019607843137255" points="111.045454,99.184245 154.246520,102.605781 143.143428,125.353005 128.511192,124.602568" />
<polygon fill="#5e1f1f" fill-opacity="0.5019607843137255" points="78.610482,31.342902 112.726695,5.909986 104.497969,10.589374 123.403190,15.604545" />
<ellipse fill="#936b49" fill-opacity="0.5019607843137255" cx="35" cy="53" rx="19" ry="7" />
<g transform="translate(116.591020 90.618227) rotate(133.641230) scale(4.229185 11.153442)"><ellipse fill="#000000" fill-opacity="0.5019607843137255" cx="0" cy="0" rx="1" ry="1" /></g>
<polygon fill="#fad6bd" fill-opacity="0.5019607843137255" points="90,28 94,40 76,29" />
<rect fill="#4f0000" fill-opacity="0.5019607843137255" x="78" y="125" width="58" height="18" />
<polygon fill="#020000" fill-opacity="0.5019607843137255" points="96,115 102,100 83,112" />
<ellipse fill="#b85d47" fill-opacity="0.5019607843137255" cx="194" cy="71" rx="31" ry="11" />
</g>
</svg>