<svg xmlns="http://www.w3.org/2000/svg" version="1.1" width="768" height="429">
<rect x="0" y="0" width="768" height="429" fill="#ae7854" />
<g transform="scale(3) translate(0.5 0.5)">
<g transform="translate(248.338034 121.248831) rotate(224.045357) scale(14.785227 90.662757)"><ellipse fill="#000000" fill-opacity="0.5019607843137255" cx="0" cy="0" rx="1" ry="1" /></g>
<ellipse fill="#1b0000" fill-opacity="0.5019607843137255" cx="136" cy="142" rx="64" ry="27" />
<ellipse fill="#fff97b" fill-opacity="0.5019607843137255" cx="131" cy="63" rx="42" ry="21" />
<g transform="translate(207.606007 77.949127) rotate(128.681697) scale(62.267701 43.638456)"><ellipse fill="#ff9d4b" fill-opacity="0.5019607843137255" cx="0" cy="0" rx="1" ry="1" /></g>
<ellipse fill="#999cab" fill-opacity="0.5019607843137255" cx="33" cy="10" rx="61" ry="61" />
<g transform="translate(86 105) rotate(168) scale(29 75)"><rect fill="#540f08" fill-opacity="0.5019607843137255" x="-0.5" y="-0.5" width="1" height="1" /></g>
<polygon fill="#000000" fill-opacity="0.5019607843137255" points="146.939451,101.607631 163.974149,72.065003 117.893300,107.860016 109.849357,83.424953" />
<polygon fill="#370005" fill-opacity="0.5019607843137255" points="111,40 105,9 75,49" />
<ellipse fill="#7c6b84" fill-opacity="0.5019607843137255" cx="33" cy="9" rx="248" ry="18" />
<g transform="translate(255.000000 120.769767) rotate(324.889665) scale(66.447936 14.667669)"><ellipse fill="#040000" fill-opacity="0.5019607843137255" cx="0" cy="0" rx="1" ry="1" /></g>
<rect fill="#dfba96" fill-opacity="0.5019607843137255" x="2" y="28" width="76" height="39" />
<rect fill="#000000" fill-opacity="0.5019607843137255" x="135" y="135" width="72" height="8" />
<g transform="translate(128.562998 66.901538) rotate(266.858801) scale(9.160877 26.863967)"><ellipse fill="#cabfe3" fill-opacity="0.5019607843137255" cx="0" cy="0" rx="1" ry="1" /></g>
<g transform="translate(168.804801 34.824057) rotate(214.000463) scale(41.608422 15.822237)"><ellipse fill="#eb9d7d" fill-opacity="0.5019607843137255" cx="0" cy="0" rx="1" ry="1" /></g>
<rect fill="#000000" fill-opacity="0.5019607843137255" x="118" y="92" width="32" height="10" />
<g transform="translate(32.723219 23.334970) rotate(272.625552) scale(2.324006 44.336812)"><ellipse fill="#3d1904" fill-opacity="0.5019607843137255" cx="0" cy="0" rx="1" ry="1" /></g>
<g transform="translate(222.205728 92.124138) rotate(248.128660) scale(17.182064 46.215252)"><ellipse fill="#ffa53f" fill-opacity="0.5019607843137255" cx="0" cy="0" rx="1" ry="1" /></g>
<polygon fill="#d1aa8d" fill-opacity="0.5019607843137255" points="84,90 42,108 -10,67" />
<rect fill="#f4b515" fill-opacity="0.5019607843137255" x="91" y="45" width="16" height="38" />
<polygon fill="#f59f28" fill-opacity="0.5019607843137255" points="94.850021,82.834836 107.716254,122.625523 126.377281,116.515261 107.557404,83.931528" />
<polygon fill="#310d00" fill-opacity="0.5019607843137255" points="85.946496,39.157989 78.560681,54.744518 90.451709,75.931632 92.031105,85.016241" />
<ellipse fill="#3f352e" fill-opacity="0.5019607843137255" cx="9" cy="0" rx="27" ry="13" />
<g transform="translate(117 32) rotate(367) scale(17 7)"><rect fill="#ffffe7" fill-opacity="0.5019607843137255" x="-0.5" y="-0.5" width="1" height="1" /></g>
<polygon fill="#64110f" fill-opacity="0.5019607843137255" points="134,41 139,21 114,11" />
<polygon fill="#ffe2ba" fill-opacity="0.5019607843137255" points="57,110 91,102 64,117" />
<rect fill="#00001e" fill-opacity="0.5019607843137255" x="117" y="62" width="7" height="7" />
<g transform="translate(74.766575 59.427498) rotate(159.594631) scale(4.677962 30.135374)"><ellipse fill="#ddbc98" fill-opacity="0.5019607843137255" cx="0" cy="0" rx="1" ry="1" /></g>
<ellipse fill="#000028" fill-opacity="0.5019607843137255" cx="143" cy="65" rx="4" ry="4" />
<g transform="translate(157.644297 64.393612) rotate(169.675401) scale(4.177431 28.313754)"><ellipse fill="#ffe838" fill-opacity="0.5019607843137255" cx="0" cy="0" rx="1" ry="1" /></g>
<polygon fill="#150b23" fill-opacity="0.5019607843137255" points="54,74 37,67 49,84" />
<g transform="translate(83 100) rotate(339) scale(26 7)"><rect fill="#000000" fill-opacity="0.5019607843137255" x="-0.5" y="-0.5" width="1" height="1" /></g>
<g transform="translate(99 120) rotate(351) scale(33 9)"><rect fill="#fd665f" fill-opacity="0.5019607843137255" x="-0.5" y="-0.5" width="1" height="1" /></g>
<ellipse fill="#6f2115" fill-opacity="0.5019607843137255" cx="119" cy="40" rx="33" ry="5" />
<ellipse fill="#ea9541" fill-opacity="0.5019607843137255" cx="28" cy="124" rx="23" ry="15" />
<ellipse fill="#000000" fill-opacity="0.5019607843137255" cx="72" cy="81" rx="8" ry="5" />
<polygon fill="#570000" fill-opacity="0.5019607843137255" points="167.691401,119.544748 149.831721,107.623969 135.459626,131.338981 153.519484,129.148216" />
<ellipse fill="#a98283" fill-opacity="0.5019607843137255" cx="214" cy="5" rx="96" ry="27" />
<polygon fill="#270000" fill-opacity="0.5019607843137255" points="54,153 55,128 47,127" />
<ellipse fill="#ffca3e" fill-opacity="0.5019607843137255" cx="135" cy="49" rx="48" ry="7" />
<rect fill="#ffe191" fill-opacity="0.5019607843137255" x="124" y="83" width="17" height="10" />
<polygon fill="#b85c2e" fill-opacity="0.5019607843137255" points="166.735754,122.935730 65.622147,151.312815 206.710333,126.299722 177.709061,106.114394" />
<g transform="translate(146 94) rotate(302) scale(18 10)"><rect fill="#000000" fill-opacity="0.5019607843137255" x="-0.5" y="-0.5" width="1" height="1" /></g>
<polygon fill="#cf6d2a" fill-opacity="0.5019607843137255" points="111.045454,99.184245 154.246520,102.605781 143.143428,125.353005 128.511192,124.602568" />
<polygon fill="#5e1f1f" fill-opacity="0.5019607843137255" points="78.610482,31.342902 112.726695,5.909986 104.497969,10.589374 123.403190,15.604545" />
<ellipse fill="#936b49" fill-opacity="0.5019607843137255" cx="35" cy="53" rx="19" ry="7" />
<g transform="translate(116.591020 90.618227) rotate(133.641230) scale(4.229185 11.153442)"><ellipse fill="#000000" fill-opacity="0.5019607843137255" cx="0" cy="0" rx="1" ry="1" /></g>
<polygon fill="#fad6bd" fill-opacity="0.5019607843137255" points="90,28 94,40 76,29" />
<rect fill="#4f0000" fill-opacity="0.5019607843137255" x="78" y="125" width="58" height="18" />
<polygon fill="#020000" fill-opacity="0.5019607843137255" points="96,115 102,100 83,112" />
<ellipse fill="#b85d47" fill-opacity="0.5019607843137255" cx="194" cy="71" rx="31" ry="11" />
<g transform="translate(222.643763 52.832534) rotate(97.765914) scale(12.490934 62.473111)"><ellipse fill="#fb9560" fill-opacity="0.5019607843137255" cx="0" cy="0" rx="1" ry="1" /></g>
<polygon fill="#f7a418" fill-opacity="0.5019607843137255" points="164,72 110,81 145,85" />
<g transform="translate(211 121) rotate(161) scale(27 26)"><rect fill="#e65e32" fill-opacity="0.5019607843137255" x="-0.5" y="-0.5" width="1" height="1" /></g>
<rect fill="#27130c" fill-opacity="0.5019607843137255" x="255" y="0" width="1" height="143" />
<ellipse fill="#000000" fill-opacity="0.5019607843137255" cx="164" cy="141" rx="24" ry="8" />
<ellipse fill="#211f1a" fill-opacity="0.5019607843137255" cx="0" cy="117" rx="1" ry="132" />
<polygon fill="#ffebb8" fill-opacity="0.5019607843137255" points="190,109 178,97 164,99" />
<polygon fill="#f0a770" fill-opacity="0.5019607843137255" points="82.585772,115.882142 56.815556,125.348362 59.007319,143.505861 73.294955,124.845103" />
<polygon fill="#fde5ec" fill-opacity="0.5019607843137255" points="140.875541,60.417202 109.087148,75.664604 126.148619,78.488939 138.417674,52.569175" />
<polygon fill="#dfc1a9" fill-opacity="0.5019607843137255" points="66.761081,67.107869 76.551097,53.898753 85.634862,29.952369 43.931319,30.511592" />
<polygon fill="#b5a0aa" fill-opacity="0.5019607843137255" points="79,97 53,89 61,76" />
<g transform="translate(82 53) rotate(348) scale(6 13)"><rect fill="#020000" fill-opacity="0.5019607843137255" x="-0.5" y="-0.5" width="1" height="1" /></g>
<g transform="translate(119 26) rotate(0) scale(11 13)"><rect fill="#f3bd9b" fill-opacity="0.5019607843137255" x="-0.5" y="-0.5" width="1" height="1" /></g>
<polygon fill="#826317" fill-opacity="0.5019607843137255" points="75,61 91,54 103,113" />
<ellipse fill="#000000" fill-opacity="0.5019607843137255" cx="66" cy="87" rx="2" ry="2" />
<polygon fill="#7a3f1f" fill-opacity="0.5019607843137255" points="19.015921,103.036932 39.846221,124.842231 39.342409,124.055253 40.547019,114.725737" />
<g transform="translate(83 26) rotate(272) scale(4 41)"><rect fill="#4b201b" fill-opacity="0.5019607843137255" x="-0.5" y="-0.5" width="1" height="1" /></g>
<polygon fill="#dfbd9f" fill-opacity="0.5019607843137255" points="56.554744,74.635872 84.161473,74.827350 41.804375,67.067183 81.969608,41.614171" />
<polygon fill="#e9a136" fill-opacity="0.5019607843137255" points="164.406036,117.351330 166.489878,81.336370 156.212770,89.957758 144.440363,108.254100" />
<g transform="translate(255.000000 112.640817) rotate(217.596499) scale(10.024178 64.615020)"><ellipse fill="#1b0000" fill-opacity="0.5019607843137255" cx="0" cy="0" rx="1" ry="1" /></g>
<polygon fill="#ff9d48" fill-opacity="0.5019607843137255" points="234,116 153,90 263,73" />
<polygon fill="#ffcd48" fill-opacity="0.5019607843137255" points="124,54 143,29 130,64" />
<polygon fill="#947662" fill-opacity="0.5019607843137255" points="31,62 55,91 -12,59" />
<polygon fill="#ffe9d4" fill-opacity="0.5019607843137255" points="140.048888,74.055642 149.225787,62.475483 158.325991,77.996670 108.414407,51.213309" />
<rect fill="#f59b48" fill-opacity="0.5019607843137255" x="188" y="141" width="19" height="2" />
<polygon fill="#8b4c36" fill-opacity="0.5019607843137255" points="69.963487,121.858202 81.548033,152.912563 65.208345,129.290445 104.108583,92.418277" />
<g transform="translate(79.603418 5.105925) rotate(81.614150) scale(13.309136 52.356203)"><ellipse fill="#908b9c" fill-opacity="0.5019607843137255" cx="0" cy="0" rx="1" ry="1" /></g>
<polygon fill="#270009" fill-opacity="0.5019607843137255" points="130.691323,85.796265 134.723647,104.988769 110.344419,86.951537 145.390569,102.617645" />
<polygon fill="#430300" fill-opacity="0.5019607843137255" points="142.836986,131.027578 166.876557,122.423070 150.138315,109.566891 137.629220,128.995675" />
<rect fill="#641e19" fill-opacity="0.5019607843137255" x="83" y="41" width="64" height="3" />
<polygon fill="#150d14" fill-opacity="0.5019607843137255" points="74.008028,75.434927 77.640853,84.236031 70.134401,85.646040 58.513632,76.817197" />
<polygon fill="#dd8d69" fill-opacity="0.5019607843137255" points="168,66 146,27 271,30" />
<polygon fill="#de4b30" fill-opacity="0.5019607843137255" points="73.892324,87.952043 70.790083,87.884325 93.098262,82.824905 68.612800,103.708827" />
<polygon fill="#cfb499" fill-opacity="0.5019607843137255" points="108,158 74,158 62,131" />
<g transform="translate(137 90) rotate(265) scale(5 6)"><rect fill="#ffffff" fill-opacity="0.5019607843137255" x="-0.5" y="-0.5" width="1" height="1" /></g>
<rect fill="#efe2f3" fill-opacity="0.5019607843137255" x="111" y="57" width="7" height="15" />
<polygon fill="#f1cd3f" fill-opacity="0.5019607843137255" points="38.069736,110.461008 48.365872,119.220835 46.206178,145.439760 43.295603,124.554452" />
<polygon fill="#000000" fill-opacity="0.5019607843137255" points="119,99 106,79 124,89" />
<polygon fill="#d99d39" fill-opacity="0.5019607843137255" points="105.182034,80.328797 119.480325,87.294531 124.606391,86.013037 88.498617,51.944607" />
<ellipse fill="#a58268" fill-opacity="0.5019607843137255" cx="17" cy="44" rx="17" ry="9" />
<g transform="translate(132 104) rotate(174) scale(19 8)"><rect fill="#fd4769" fill-opacity="0.5019607843137255" x="-0.5" y="-0.5" width="1" height="1" /></g>
<rect fill="#04203d" fill-opacity="0.5019607843137255" x="116" y="61" width="7" height="6" />
<g transform="translate(59 70) rotate(245) scale(3 7)"><rect fill="#000000" fill-opacity="0.5019607843137255" x="-0.5" y="-0.5" width="1" height="1" /></g>
<g transform="translate(122 138) rotate(251) scale(4 30)"><rect fill="#a96f34" fill-opacity="0.5019607843137255" x="-0.5" y="-0.5" width="1" height="1" /></g>
<polygon fill="#6c3114" fill-opacity="0.5019607843137255" points="7,109 8,124 -16,101" />
<polygon fill="#000000" fill-opacity="0.5019607843137255" points="156,82 143,86 146,103" />
<polygon fill="#ffd652" fill-opacity="0.5019607843137255" points="144.106600,86.167324 165.885582,49.952457 134.472850,48.637596 164.847497,75.909838" />
<rect fill="#d6b8a2" fill-opacity="0.5019607843137255" x="130" y="120" width="9" height="5" />
<ellipse fill="#040000" fill-opacity="0.5019607843137255" cx="85" cy="95" rx="3" ry="7" />
<polygon fill="#4d0e00" fill-opacity="0.5019607843137255" points="116.532525,121.875504 122.743719,110.403706 133.182193,129.875153 84.193045,142.899887" />
<g transform="translate(236.583942 86.104463) rotate(277.229918) scale(8.042742 19.822366)"><ellipse fill="#ffc155" fill-opacity="0.5019607843137255" cx="0" cy="0" rx="1" ry="1" /></g>
<polygon fill="#300000" fill-opacity="0.5019607843137255" points="92,30 97,45 107,39" />
<rect fill="#cc9e6c" fill-opacity="0.5019607843137255" x="2" y="84" width="53" height="17" />
<polygon fill="#ffffff" fill-opacity="0.5019607843137255" points="138,56 154,65 147,56" />
<polygon fill="#8b1919" fill-opacity="0.5019607843137255" points="118.840942,121.143374 82.074936,124.429397 68.237527,138.951631 125.650784,121.974662" />
<ellipse fill="#7f4909" fill-opacity="0.5019607843137255" cx="158" cy="99" rx="3" ry="7" />
<g transform="translate(30.969216 31.920300) rotate(93.145132) scale(3.962160 61.021839)"><ellipse fill="#cbb8b2" fill-opacity="0.5019607843137255" cx="0" cy="0" rx="1" ry="1" /></g>
<g transform="translate(142.418076 63.997214) rotate(-24.962696) scale(3.069720 3.991873)"><ellipse fill="#17405e" fill-opacity="0.5019607843137255" cx="0" cy="0" rx="1" ry="1" /></g>
<polygon fill="#df713b" fill-opacity="0.5019607843137255" points="171.878443,84.476749 235.163493,63.199145 253.495343,69.991447 176.501962,92.230406" />
<rect fill="#ffd646" fill-opacity="0.5019607843137255" x="88" y="45" width="75" height="9" />
<rect fill="#561c1c" fill-opacity="0.5019607843137255" x="103" y="13" width="20" height="8" />
<ellipse fill="#ff9e99" fill-opacity="0.5019607843137255" cx="161" cy="111" rx="8" ry="4" />
<ellipse fill="#000002" fill-opacity="0.5019607843137255" cx="173" cy="142" rx="19" ry="9" />
<g transform="translate(55.297228 125.289192) rotate(216.569826) scale(2.330848 7.070822)"><ellipse fill="#652905" fill-opacity="0.5019607843137255" cx="0" cy="0" rx="1" ry="1" /></g>
<polygon fill="#d8922b" fill-opacity="0.5019607843137255" points="130.811044,71.754151 128.072220,90.381967 157.119282,73.789456 138.044370,78.892071" />
<g transform="translate(60 85) rotate(201) scale(8 8)"><rect fill="#d5d0ce" fill-opacity="0.5019607843137255" x="-0.5" y="-0.5" width="1" height="1" /></g>
<polygon fill="#2e0000" fill-opacity="0.5019607843137255" points="98.272032,104.059959 100.473115,114.285824 88.536887,116.489689 78.095677,113.226804" />
<rect fill="#5a0c04" fill-opacity="0.5019607843137255" x="81" y="37" width="8" height="18" />
<ellipse fill="#ebba99" fill-opacity="0.5019607843137255" cx="110" cy="21" rx="7" ry="2" />
<rect fill="#be8267" fill-opacity="0.5019607843137255" x="138" y="18" width="107" height="15" />
<polygon fill="#d7a42d" fill-opacity="0.5019607843137255" points="133,114 101,102 99,82" />
<polygon fill="#b48668" fill-opacity="0.5019607843137255" points="67.521573,118.346344 90.920522,105.817603 90.792867,101.119344 54.243426,122.568658" />
<g transform="translate(83.912835 83.847684) rotate(230.617175) scale(5.556736 2.624845)"><ellipse fill="#fba179" fill-opacity="0.5019607843137255" cx="0" cy="0" rx="1" ry="1" /></g>
<polygon fill="#d5b99f" fill-opacity="0.5019607843137255" points="48.532081,73.295797 -16.000000,46.938863 35.677164,64.450973 78.388924,56.210227" />
<rect fill="#1e0002" fill-opacity="0.5019607843137255" x="80" y="131" width="29" height="8" />
<ellipse fill="#77503a" fill-opacity="0.5019607843137255" cx="17" cy="19" rx="6" ry="9" />
<g transform="translate(105.922599 116.272131) rotate(345.971047) scale(15.157091 3.515939)"><ellipse fill="#e77e6a" fill-opacity="0.5019607843137255" cx="0" cy="0" rx="1" ry="1" /></g>
<rect fill="#b97055" fill-opacity="0.5019607843137255" x="165" y="60" width="30" height="25" />
<g transform="translate(76 68) rotate(318) scale(20 10)"><rect fill="#907267" fill-opacity="0.5019607843137255" x="-0.5" y="-0.5" width="1" height="1" /></g>
<polygon fill="#daa235" fill-opacity="0.5019607843137255" points="89.590866,49.374760 87.287856,51.945234 89.968411,62.619509 124.548287,54.897836" />
<rect fill="#cf7b45" fill-opacity="0.5019607843137255" x="1" y="127" width="47" height="16" />
<polygon fill="#673c1c" fill-opacity="0.5019607843137255" points="218.921018,131.219923 262.484551,83.727238 208.180974,152.459427 206.454216,138.393942" />
<polygon fill="#e69e77" fill-opacity="0.5019607843137255" points="161.268777,54.585204 180.412031,58.115090 130.580654,13.658027 131.475475,17.566073" />
<g transform="translate(147 40) rotate(51) scale(10 3)"><rect fill="#4c0101" fill-opacity="0.5019607843137255" x="-0.5" y="-0.5" width="1" height="1" /></g>
<polygon fill="#a9908e" fill-opacity="0.5019607843137255" points="58.663141,13.456964 65.265746,23.339318 93.707490,7.044366 92.866539,26.834409" />
<polygon fill="#ce5f5c" fill-opacity="0.5019607843137255" points="45.162350,85.916637 64.636823,106.042953 79.243136,109.901564 44.961782,82.017463" />
<polygon fill="#c7733e" fill-opacity="0.5019607843137255" points="198.878357,89.981041 159.746779,135.228908 135.751314,133.708746 174.119589,122.576131" />
<ellipse fill="#f0e9ff" fill-opacity="0.5019607843137255" cx="128" cy="90" rx="3" ry="3" />
<polygon fill="#fa7b46" fill-opacity="0.5019607843137255" points="199.624766,88.595316 164.605906,95.830475 167.199952,98.404380 207.951925,105.921619" />
<polygon fill="#f2b94d" fill-opacity="0.5019607843137255" points="34.305694,126.687497 66.861212,125.668443 65.557026,137.174278 47.377980,117.117982" />
<g transform="translate(127 39) rotate(32) scale(1 3)"><rect fill="#fffff0" fill-opacity="0.5019607843137255" x="-0.5" y="-0.5" width="1" height="1" /></g>
<g transform="translate(14 43) rotate(107) scale(3 11)"><rect fill="#f3d7b8" fill-opacity="0.5019607843137255" x="-0.5" y="-0.5" width="1" height="1" /></g>
<polygon fill="#7a6763" fill-opacity="0.5019607843137255" points="19.241105,70.309802 20.808050,70.730992 34.526584,63.926559 63.096823,75.655171" />
<polygon fill="#762b25" fill-opacity="0.5019607843137255" points="104.496532,27.901974 122.301331,9.134788 94.181217,33.176209 112.241227,47.448915" />
<rect fill="#000002" fill-opacity="0.5019607843137255" x="127" y="140" width="56" height="3" />
<rect fill="#ff9c4b" fill-opacity="0.5019607843137255" x="209" y="50" width="46" height="15" />
<ellipse fill="#c56c5c" fill-opacity="0.5019607843137255" cx="78" cy="95" rx="4" ry="4" />
<polygon fill="#f9cc42" fill-opacity="0.5019607843137255" points="103,92 105,77 114,97" />
<polygon fill="#9a592c" fill-opacity="0.5019607843137255" points="47.849811,126.682379 30.645035,103.811760 5.766936,117.474800 12.534021,102.779332" />
<polygon fill="#bea1ba" fill-opacity="0.5019607843137255" points="119.225790,81.220649 127.729357,77.997170 108.536302,73.135581 117.306003,81.976055" />
<polygon fill="#130000" fill-opacity="0.5019607843137255" points="150.530109,94.762657 159.945259,76.751780 130.772645,102.542419 125.873802,93.118974" />
<ellipse fill="#ffd349" fill-opacity="0.5019607843137255" cx="160" cy="71" rx="4" ry="22" />
<polygon fill="#551b07" fill-opacity="0.5019607843137255" points="241.318473,131.809934 236.670475,137.285986 240.409095,153.974914 271.000000,120.579807" />
<ellipse fill="#000000" fill-opacity="0.5019607843137255" cx="177" cy="137" rx="25" ry="4" />
<g transform="translate(122 67) rotate(258) scale(5 7)"><rect fill="#0f2c4e" fill-opacity="0.5019607843137255" x="-0.5" y="-0.5" width="1" height="1" /></g>
<g transform="translate(129.862627 3.257012) rotate(182.418905) scale(96.784211 10.772551)"><ellipse fill="#927b83" fill-opacity="0.5019607843137255" cx="0" cy="0" rx="1" ry="1" /></g>
<polygon fill="#e59a81" fill-opacity="0.5019607843137255" points="146.118569,25.900743 141.563326,23.208628 133.203510,46.942502 141.458235,36.585189" />
<polygon fill="#f16a5f" fill-opacity="0.5019607843137255" points="53,74 48,90 62,77" />
<polygon fill="#fde2d8" fill-opacity="0.5019607843137255" points="137,55 127,78 117,78" />
<ellipse fill="#a5939b" fill-opacity="0.5019607843137255" cx="61" cy="29" rx="29" ry="3" />
<polygon fill="#fcc138" fill-opacity="0.5019607843137255" points="184.722465,105.476988 188.976829,123.600472 192.582822,105.431312 204.402982,104.613705" />
<g transform="translate(50 79) rotate(191) scale(3 7)"><rect fill="#000000" fill-opacity="0.5019607843137255" x="-0.5" y="-0.5" width="1" height="1" /></g>
<polygon fill="#6c2b0e" fill-opacity="0.5019607843137255" points="64.144076,120.873763 55.117488,118.429160 57.111863,158.000000 49.942482,128.747181" />
<polygon fill="#f77f3e" fill-opacity="0.5019607843137255" points="231.380822,117.787308 217.212631,131.784130 219.804901,95.807075 241.061093,89.873871" />
<polygon fill="#b99074" fill-opacity="0.5019607843137255" points="45.957591,64.883020 65.234785,55.796045 57.626843,38.624969 44.768907,54.675450" />
<g transform="translate(45 66) rotate(269) scale(3 18)"><rect fill="#eddbd7" fill-opacity="0.5019607843137255" x="-0.5" y="-0.5" width="1" height="1" /></g>
<g transform="translate(119.680103 26.155728) rotate(136.260056) scale(1.972971 2.499429)"><ellipse fill="#74392f" fill-opacity="0.5019607843137255" cx="0" cy="0" rx="1" ry="1" /></g>
<polygon fill="#795211" fill-opacity="0.5019607843137255" points="87.526381,51.356257 83.930006,77.008929 100.468180,116.923924 98.430548,99.901641" />
<polygon fill="#030001" fill-opacity="0.5019607843137255" points="121,101 113,93 124,86" />
<g transform="translate(76 122) rotate(124) scale(15 1)"><rect fill="#c9b8a4" fill-opacity="0.5019607843137255" x="-0.5" y="-0.5" width="1" height="1" /></g>
<polygon fill="#e79664" fill-opacity="0.5019607843137255" points="5.656263,118.960866 21.307211,109.700299 39.208172,125.072835 17.448994,125.304334" />
<g transform="translate(201 126) rotate(282) scale(18 24)"><rect fill="#cd7945" fill-opacity="0.5019607843137255" x="-0.5" y="-0.5" width="1" height="1" /></g>
<polygon fill="#ffee48" fill-opacity="0.5019607843137255" points="40,112 52,120 51,126" />
<polygon fill="#dcbb92" fill-opacity="0.5019607843137255" points="43,61 24,67 15,60" />
<polygon fill="#b0721a" fill-opacity="0.5019607843137255" points="123,115 143,114 121,102" />
<rect fill="#e7b298" fill-opacity="0.5019607843137255" x="110" y="27" width="4" height="14" />
<polygon fill="#b5a39a" fill-opacity="0.5019607843137255" points="40.394069,92.266425 43.577436,90.865689 31.219774,67.315525 46.132302,85.495163" />
<g transform="translate(19 51) rotate(199) scale(37 5)"><rect fill="#9a765b" fill-opacity="0.5019607843137255" x="-0.5" y="-0.5" width="1" height="1" /></g>
<g transform="translate(163.688360 117.150700) rotate(26.689435) scale(12.935120 2.049749)"><ellipse fill="#c2413b" fill-opacity="0.5019607843137255" cx="0" cy="0" rx="1" ry="1" /></g>
<polygon fill="#611814" fill-opacity="0.5019607843137255" points="136,35 125,13 136,24" />
<g transform="translate(64 142) rotate(348) scale(1 8)"><rect fill="#040000" fill-opacity="0.5019607843137255" x="-0.5" y="-0.5" width="1" height="1" /></g>
<polygon fill="#f5c03a" fill-opacity="0.5019607843137255" points="129,79 130,89 112,82" />
<polygon fill="#2c0004" fill-opacity="0.5019607843137255" points="89.193041,42.497118 83.592329,62.674000 79.005764,53.912740 90.471917,44.431910" />
<rect fill="#250000" fill-opacity="0.5019607843137255" x="138" y="53" width="2" height="3" />
<polygon fill="#1c0000" fill-opacity="0.5019607843137255" points="80,104 69,102 87,96" />
<polygon fill="#edc698" fill-opacity="0.5019607843137255" points="1,60 2,50 19,53" />
<rect fill="#0d0001" fill-opacity="0.5019607843137255" x="131" y="125" width="7" height="7" />
<polygon fill="#780600" fill-opacity="0.5019607843137255" points="71,127 73,137 67,127" />
<polygon fill="#ddbea4" fill-opacity="0.5019607843137255" points="37.614896,25.237994 83.855952,34.339672 66.062506,65.735144 60.610934,39.561141" />
<g transform="translate(134 56) rotate(121) scale(4 1)"><rect fill="#4d2817" fill-opacity="0.5019607843137255" x="-0.5" y="-0.5" width="1" height="1" /></g>
<polygon fill="#f5c342" fill-opacity="0.5019607843137255" points="89.397213,43.130136 92.124653,68.513631 89.625158,64.966828 105.559151,68.813897" />
<rect fill="#fad9b3" fill-opacity="0.5019607843137255" x="138" y="118" width="2" height="6" />
<rect fill="#954f19" fill-opacity="0.5019607843137255" x="107" y="80" width="16" height="2" />
<g transform="translate(101 54) rotate(164) scale(5 11)"><rect fill="#b16726" fill-opacity="0.5019607843137255" x="-0.5" y="-0.5" width="1" height="1" /></g>
<polygon fill="#fff3d9" fill-opacity="0.5019607843137255" points="172,102 166,98 183,101" />
<g transform="translate(66.773933 110.619223) rotate(345.361593) scale(10.641688 2.967275)"><ellipse fill="#efb590" fill-opacity="0.5019607843137255" cx="0" cy="0" rx="1" ry="1" /></g>
<polygon fill="#db982e" fill-opacity="0.5019607843137255" points="138,109 153,98 165,107" />
<g transform="translate(66 88) rotate(288) scale(2 4)"><rect fill="#000000" fill-opacity="0.5019607843137255" x="-0.5" y="-0.5" width="1" height="1" /></g>
<rect fill="#e9dcd8" fill-opacity="0.5019607843137255" x="114" y="68" width="40" height="4" />
<g transform="translate(146 91) rotate(4) scale(11 9)"><rect fill="#000004" fill-opacity="0.5019607843137255" x="-0.5" y="-0.5" width="1" height="1" /></g>
</g>
</svg>