<svg xmlns="http://www.w3.org/2000/svg" version="1.1" width="768" height="429">
<rect x="0" y="0" width="768" height="429" fill="#ae7854" />
<g transform="scale(3) translate(0.5 0.5)">
<ellipse fill="#000000" fill-opacity="0.5019607843137255" cx="255" cy="137" rx="35" ry="33" />
<ellipse fill="#1b0000" fill-opacity="0.5019607843137255" cx="136" cy="142" rx="64" ry="27" />
<ellipse fill="#ffb55c" fill-opacity="0.5019607843137255" cx="215" cy="62" rx="125" ry="36" />
<ellipse fill="#a29da1" fill-opacity="0.5019607843137255" cx="38" cy="30" rx="43" ry="73" />
<ellipse fill="#000000" fill-opacity="0.5019607843137255" cx="135" cy="93" rx="23" ry="9" />
<ellipse fill="#ff8c3c" fill-opacity="0.5019607843137255" cx="194" cy="102" rx="43" ry="32" />
<ellipse fill="#5c1a07" fill-opacity="0.5019607843137255" cx="85" cy="109" rx="12" ry="74" />
<ellipse fill="#e7e3a4" fill-opacity="0.5019607843137255" cx="132" cy="68" rx="21" ry="25" />
<ellipse fill="#796a87" fill-opacity="0.5019607843137255" cx="27" cy="8" rx="249" ry="20" />
<ellipse fill="#2d0000" fill-opacity="0.5019607843137255" cx="100" cy="29" rx="9" ry="15" />
<ellipse fill="#000000" fill-opacity="0.5019607843137255" cx="191" cy="142" rx="60" ry="9" />
<ellipse fill="#0c0000" fill-opacity="0.5019607843137255" cx="253" cy="127" rx="16" ry="30" />
<ellipse fill="#530c0e" fill-opacity="0.5019607843137255" cx="116" cy="40" rx="35" ry="5" />
<ellipse fill="#ebc7a6" fill-opacity="0.5019607843137255" cx="55" cy="47" rx="23" ry="21" />
<ellipse fill="#ffeb33" fill-opacity="0.5019607843137255" cx="129" cy="49" rx="43" ry="6" />
<ellipse fill="#000004" fill-opacity="0.5019607843137255" cx="70" cy="82" rx="8" ry="8" />
<ellipse fill="#462512" fill-opacity="0.5019607843137255" cx="28" cy="23" rx="48" ry="3" />
<ellipse fill="#ff913f" fill-opacity="0.5019607843137255" cx="223" cy="82" rx="27" ry="36" />
<ellipse fill="#c2c2df" fill-opacity="0.5019607843137255" cx="130" cy="66" rx="24" ry="10" />
<ellipse fill="#000000" fill-opacity="0.5019607843137255" cx="149" cy="88" rx="7" ry="6" />
<ellipse fill="#b05a47" fill-opacity="0.5019607843137255" cx="196" cy="72" rx="33" ry="12" />
<ellipse fill="#3f352f" fill-opacity="0.5019607843137255" cx="9" cy="0" rx="27" ry="13" />
<ellipse fill="#300308" fill-opacity="0.5019607843137255" cx="48" cy="76" rx="7" ry="7" />
<ellipse fill="#2e1305" fill-opacity="0.5019607843137255" cx="90" cy="103" rx="11" ry="14" />
<ellipse fill="#dc944b" fill-opacity="0.5019607843137255" cx="30" cy="114" rx="21" ry="36" />
<ellipse fill="#00113d" fill-opacity="0.5019607843137255" cx="120" cy="65" rx="5" ry="5" />
<ellipse fill="#000000" fill-opacity="0.5019607843137255" cx="117" cy="88" rx="7" ry="4" />
<ellipse fill="#420000" fill-opacity="0.5019607843137255" cx="113" cy="16" rx="15" ry="4" />
<ellipse fill="#c18a80" fill-opacity="0.5019607843137255" cx="170" cy="19" rx="35" ry="21" />
<ellipse fill="#000000" fill-opacity="0.5019607843137255" cx="133" cy="96" rx="19" ry="4" />
<ellipse fill="#f36154" fill-opacity="0.5019607843137255" cx="96" cy="120" rx="22" ry="5" />
<ellipse fill="#3c0000" fill-opacity="0.5019607843137255" cx="151" cy="120" rx="10" ry="9" />
<ellipse fill="#4b0000" fill-opacity="0.5019607843137255" cx="131" cy="28" rx="6" ry="9" />
<ellipse fill="#f7cb2c" fill-opacity="0.5019607843137255" cx="98" cy="62" rx="9" ry="18" />
<ellipse fill="#ceb9b1" fill-opacity="0.5019607843137255" cx="33" cy="33" rx="59" ry="7" />
<ellipse fill="#ffd8b9" fill-opacity="0.5019607843137255" cx="116" cy="28" rx="8" ry="8" />
<ellipse fill="#f0a011" fill-opacity="0.5019607843137255" cx="135" cy="81" rx="15" ry="7" />
<ellipse fill="#5b0001" fill-opacity="0.5019607843137255" cx="100" cy="132" rx="33" ry="9" />
<ellipse fill="#cc8f75" fill-opacity="0.5019607843137255" cx="67" cy="142" rx="10" ry="59" />
<ellipse fill="#000635" fill-opacity="0.5019607843137255" cx="141" cy="64" rx="4" ry="4" />
<ellipse fill="#200c0c" fill-opacity="0.5019607843137255" cx="255" cy="30" rx="1" ry="103" />
<ellipse fill="#e17321" fill-opacity="0.5019607843137255" cx="125" cy="108" rx="27" ry="9" />
<ellipse fill="#030000" fill-opacity="0.5019607843137255" cx="78" cy="102" rx="9" ry="4" />
<ellipse fill="#2a0600" fill-opacity="0.5019607843137255" cx="242" cy="139" rx="28" ry="17" />
<ellipse fill="#986f4d" fill-opacity="0.5019607843137255" cx="41" cy="53" rx="18" ry="7" />
<ellipse fill="#fff948" fill-opacity="0.5019607843137255" cx="157" cy="62" rx="6" ry="17" />
<ellipse fill="#290000" fill-opacity="0.5019607843137255" cx="52" cy="133" rx="4" ry="8" />
<ellipse fill="#fccead" fill-opacity="0.5019607843137255" cx="84" cy="106" rx="6" ry="3" />
<ellipse fill="#ffa150" fill-opacity="0.5019607843137255" cx="204" cy="96" rx="44" ry="16" />
<ellipse fill="#56271d" fill-opacity="0.5019607843137255" cx="87" cy="25" rx="39" ry="2" />
<ellipse fill="#c08871" fill-opacity="0.5019607843137255" cx="79" cy="77" rx="5" ry="21" />
<ellipse fill="#9592a3" fill-opacity="0.5019607843137255" cx="65" cy="12" rx="35" ry="11" />
<ellipse fill="#f3bc19" fill-opacity="0.5019607843137255" cx="104" cy="93" rx="7" ry="11" />
<ellipse fill="#a8817f" fill-opacity="0.5019607843137255" cx="221" cy="8" rx="102" ry="22" />
<ellipse fill="#000000" fill-opacity="0.5019607843137255" cx="73" cy="80" rx="7" ry="6" />
<ellipse fill="#070000" fill-opacity="0.5019607843137255" cx="82" cy="50" rx="4" ry="9" />
<ellipse fill="#201f1a" fill-opacity="0.5019607843137255" cx="0" cy="62" rx="1" ry="107" />
<ellipse fill="#e8ad81" fill-opacity="0.5019607843137255" cx="136" cy="121" rx="7" ry="4" />
<ellipse fill="#000000" fill-opacity="0.5019607843137255" cx="168" cy="140" rx="22" ry="6" />
<ellipse fill="#e07d35" fill-opacity="0.5019607843137255" cx="154" cy="131" rx="11" ry="4" />
<ellipse fill="#f58d67" fill-opacity="0.5019607843137255" cx="207" cy="49" rx="50" ry="14" />
<ellipse fill="#e4673a" fill-opacity="0.5019607843137255" cx="208" cy="121" rx="13" ry="16" />
<ellipse fill="#d9c0c4" fill-opacity="0.5019607843137255" cx="60" cy="89" rx="5" ry="10" />
<ellipse fill="#1a0000" fill-opacity="0.5019607843137255" cx="94" cy="110" rx="9" ry="5" />
<ellipse fill="#ffa756" fill-opacity="0.5019607843137255" cx="255" cy="142" rx="5" ry="5" />
<ellipse fill="#000000" fill-opacity="0.5019607843137255" cx="155" cy="82" rx="2" ry="4" />
<ellipse fill="#fad4a3" fill-opacity="0.5019607843137255" cx="0" cy="55" rx="18" ry="5" />
<ellipse fill="#825a49" fill-opacity="0.5019607843137255" cx="47" cy="73" rx="29" ry="5" />
<ellipse fill="#ffc44e" fill-opacity="0.5019607843137255" cx="237" cy="84" rx="27" ry="8" />
<ellipse fill="#efdce4" fill-opacity="0.5019607843137255" cx="119" cy="73" rx="11" ry="6" />
<ellipse fill="#000000" fill-opacity="0.5019607843137255" cx="111" cy="85" rx="3" ry="4" />
<ellipse fill="#f4c6a3" fill-opacity="0.5019607843137255" cx="72" cy="109" rx="11" ry="3" />
<ellipse fill="#000000" fill-opacity="0.5019607843137255" cx="144" cy="95" rx="5" ry="8" />
<ellipse fill="#e99d5a" fill-opacity="0.5019607843137255" cx="170" cy="99" rx="20" ry="16" />
<ellipse fill="#000000" fill-opacity="0.5019607843137255" cx="120" cy="95" rx="4" ry="8" />
<ellipse fill="#1a0000" fill-opacity="0.5019607843137255" cx="254" cy="114" rx="6" ry="21" />
<ellipse fill="#ef9e4a" fill-opacity="0.5019607843137255" cx="111" cy="108" rx="7" ry="14" />
<ellipse fill="#f4d1a7" fill-opacity="0.5019607843137255" cx="70" cy="53" rx="8" ry="11" />
<ellipse fill="#1b0000" fill-opacity="0.5019607843137255" cx="97" cy="134" rx="18" ry="5" />
<ellipse fill="#3f0000" fill-opacity="0.5019607843137255" cx="157" cy="120" rx="11" ry="4" />
<ellipse fill="#ffffef" fill-opacity="0.5019607843137255" cx="174" cy="101" rx="8" ry="2" />
<ellipse fill="#ecaa2b" fill-opacity="0.5019607843137255" cx="129" cy="83" rx="17" ry="4" />
<ellipse fill="#fffefb" fill-opacity="0.5019607843137255" cx="138" cy="89" rx="3" ry="4" />
<ellipse fill="#be6f50" fill-opacity="0.5019607843137255" cx="184" cy="74" rx="20" ry="17" />
<ellipse fill="#905330" fill-opacity="0.5019607843137255" cx="19" cy="108" rx="21" ry="4" />
<ellipse fill="#330000" fill-opacity="0.5019607843137255" cx="138" cy="127" rx="14" ry="3" />
<ellipse fill="#e6c095" fill-opacity="0.5019607843137255" cx="44" cy="63" rx="28" ry="4" />
<ellipse fill="#ffcf28" fill-opacity="0.5019607843137255" cx="128" cy="53" rx="6" ry="9" />
<ellipse fill="#c97f63" fill-opacity="0.5019607843137255" cx="209" cy="28" rx="72" ry="10" />
<ellipse fill="#fff5ff" fill-opacity="0.5019607843137255" cx="127" cy="90" rx="4" ry="3" />
<ellipse fill="#976305" fill-opacity="0.5019607843137255" cx="158" cy="100" rx="4" ry="8" />
<ellipse fill="#c79972" fill-opacity="0.5019607843137255" cx="34" cy="94" rx="33" ry="11" />
<ellipse fill="#ffc895" fill-opacity="0.5019607843137255" cx="84" cy="83" rx="3" ry="4" />
<ellipse fill="#ffd3a7" fill-opacity="0.5019607843137255" cx="62" cy="112" rx="7" ry="4" />
<ellipse fill="#ffd735" fill-opacity="0.5019607843137255" cx="46" cy="123" rx="6" ry="6" />
<ellipse fill="#000000" fill-opacity="0.5019607843137255" cx="117" cy="90" rx="6" ry="4" />
<ellipse fill="#b16128" fill-opacity="0.5019607843137255" cx="138" cy="134" rx="15" ry="3" />
<ellipse fill="#ffe0c3" fill-opacity="0.5019607843137255" cx="118" cy="31" rx="8" ry="4" />
<ellipse fill="#ffb05c" fill-opacity="0.5019607843137255" cx="60" cy="131" rx="6" ry="7" />
<ellipse fill="#c4b3b2" fill-opacity="0.5019607843137255" cx="0" cy="28" rx="17" ry="5" />
<ellipse fill="#ffe4c5" fill-opacity="0.5019607843137255" cx="63" cy="73" rx="5" ry="2" />
<ellipse fill="#ffefec" fill-opacity="0.5019607843137255" cx="136" cy="64" rx="4" ry="8" />
<ellipse fill="#000000" fill-opacity="0.5019607843137255" cx="147" cy="88" rx="6" ry="3" />
<ellipse fill="#f13177" fill-opacity="0.5019607843137255" cx="133" cy="103" rx="11" ry="3" />
<ellipse fill="#77361b" fill-opacity="0.5019607843137255" cx="35" cy="116" rx="5" ry="5" />
<ellipse fill="#cb7b39" fill-opacity="0.5019607843137255" cx="199" cy="142" rx="13" ry="3" />
<ellipse fill="#927c87" fill-opacity="0.5019607843137255" cx="159" cy="4" rx="96" ry="10" />
<ellipse fill="#000000" fill-opacity="0.5019607843137255" cx="175" cy="138" rx="30" ry="4" />
<ellipse fill="#efe6ed" fill-opacity="0.5019607843137255" cx="113" cy="62" rx="5" ry="6" />
<ellipse fill="#bb871d" fill-opacity="0.5019607843137255" cx="105" cy="80" rx="15" ry="3" />
<ellipse fill="#ffe13b" fill-opacity="0.5019607843137255" cx="160" cy="76" rx="4" ry="17" />
<ellipse fill="#f8d8b0" fill-opacity="0.5019607843137255" cx="77" cy="38" rx="4" ry="8" />
<ellipse fill="#00152d" fill-opacity="0.5019607843137255" cx="143" cy="65" rx="4" ry="3" />
<ellipse fill="#fdcf44" fill-opacity="0.5019607843137255" cx="92" cy="54" rx="5" ry="10" />
<ellipse fill="#ddac73" fill-opacity="0.5019607843137255" cx="11" cy="75" rx="13" ry="5" />
<ellipse fill="#61391c" fill-opacity="0.5019607843137255" cx="58" cy="121" rx="5" ry="4" />
<ellipse fill="#6e3517" fill-opacity="0.5019607843137255" cx="2" cy="115" rx="6" ry="7" />
<ellipse fill="#ef5d4d" fill-opacity="0.5019607843137255" cx="75" cy="92" rx="5" ry="6" />
<ellipse fill="#50070c" fill-opacity="0.5019607843137255" cx="146" cy="39" rx="3" ry="5" />
<ellipse fill="#170201" fill-opacity="0.5019607843137255" cx="241" cy="126" rx="11" ry="11" />
<ellipse fill="#fec42c" fill-opacity="0.5019607843137255" cx="147" cy="78" rx="5" ry="7" />
<ellipse fill="#ca7443" fill-opacity="0.5019607843137255" cx="203" cy="126" rx="18" ry="10" />
<ellipse fill="#dca78e" fill-opacity="0.5019607843137255" cx="106" cy="22" rx="3" ry="3" />
<ellipse fill="#000000" fill-opacity="0.5019607843137255" cx="49" cy="79" rx="2" ry="4" />
<ellipse fill="#ffffe6" fill-opacity="0.5019607843137255" cx="150" cy="67" rx="4" ry="7" />
<ellipse fill="#000000" fill-opacity="0.5019607843137255" cx="152" cy="85" rx="4" ry="3" />
<ellipse fill="#ee6551" fill-opacity="0.5019607843137255" cx="53" cy="82" rx="2" ry="13" />
<ellipse fill="#000016" fill-opacity="0.5019607843137255" cx="121" cy="66" rx="3" ry="3" />
<ellipse fill="#ad8a75" fill-opacity="0.5019607843137255" cx="27" cy="38" rx="26" ry="4" />
<ellipse fill="#69422e" fill-opacity="0.5019607843137255" cx="4" cy="21" rx="33" ry="3" />
<ellipse fill="#bd8a35" fill-opacity="0.5019607843137255" cx="103" cy="104" rx="20" ry="3" />
<ellipse fill="#ff8c40" fill-opacity="0.5019607843137255" cx="244" cy="63" rx="11" ry="17" />
<ellipse fill="#a5652f" fill-opacity="0.5019607843137255" cx="119" cy="138" rx="11" ry="3" />
<ellipse fill="#d66531" fill-opacity="0.5019607843137255" cx="227" cy="69" rx="17" ry="6" />
<ellipse fill="#ffac81" fill-opacity="0.5019607843137255" cx="137" cy="39" rx="3" ry="4" />
<ellipse fill="#932124" fill-opacity="0.5019607843137255" cx="85" cy="126" rx="10" ry="7" />
<ellipse fill="#000000" fill-opacity="0.5019607843137255" cx="146" cy="142" rx="23" ry="3" />
<ellipse fill="#270000" fill-opacity="0.5019607843137255" cx="75" cy="101" rx="6" ry="4" />
<ellipse fill="#e88e5c" fill-opacity="0.5019607843137255" cx="19" cy="120" rx="13" ry="10" />
<ellipse fill="#b55f3e" fill-opacity="0.5019607843137255" cx="178" cy="120" rx="10" ry="13" />
<ellipse fill="#000000" fill-opacity="0.5019607843137255" cx="86" cy="97" rx="3" ry="6" />
<ellipse fill="#896a46" fill-opacity="0.5019607843137255" cx="31" cy="74" rx="6" ry="9" />
<ellipse fill="#d7cdd4" fill-opacity="0.5019607843137255" cx="48" cy="67" rx="9" ry="3" />
<ellipse fill="#460001" fill-opacity="0.5019607843137255" cx="98" cy="38" rx="5" ry="8" />
<ellipse fill="#ffc93d" fill-opacity="0.5019607843137255" cx="192" cy="110" rx="8" ry="6" />
<ellipse fill="#f1d0a9" fill-opacity="0.5019607843137255" cx="16" cy="43" rx="7" ry="3" />
<ellipse fill="#520000" fill-opacity="0.5019607843137255" cx="128" cy="19" rx="3" ry="3" />
<ellipse fill="#ffd8b9" fill-opacity="0.5019607843137255" cx="90" cy="36" rx="2" ry="3" />
<ellipse fill="#654d00" fill-opacity="0.5019607843137255" cx="87" cy="70" rx="3" ry="14" />
<ellipse fill="#fdcf44" fill-opacity="0.5019607843137255" cx="130" cy="50" rx="31" ry="6" />
<ellipse fill="#601600" fill-opacity="0.5019607843137255" cx="122" cy="126" rx="7" ry="9" />
<ellipse fill="#781301" fill-opacity="0.5019607843137255" cx="69" cy="131" rx="3" ry="5" />
<ellipse fill="#b3c2d0" fill-opacity="0.5019607843137255" cx="65" cy="92" rx="6" ry="3" />
<ellipse fill="#000000" fill-opacity="0.5019607843137255" cx="132" cy="93" rx="1" ry="6" />
<ellipse fill="#6a1b00" fill-opacity="0.5019607843137255" cx="53" cy="141" rx="4" ry="12" />
<ellipse fill="#ffceb5" fill-opacity="0.5019607843137255" cx="164" cy="110" rx="5" ry="3" />
<ellipse fill="#b66d26" fill-opacity="0.5019607843137255" cx="100" cy="55" rx="4" ry="6" />
<ellipse fill="#58230f" fill-opacity="0.5019607843137255" cx="245" cy="137" rx="8" ry="7" />
<ellipse fill="#806a5a" fill-opacity="0.5019607843137255" cx="31" cy="71" rx="21" ry="4" />
<ellipse fill="#7b5546" fill-opacity="0.5019607843137255" cx="16" cy="12" rx="5" ry="15" />
<ellipse fill="#a55b2b" fill-opacity="0.5019607843137255" cx="169" cy="128" rx="14" ry="5" />
<ellipse fill="#fffff0" fill-opacity="0.5019607843137255" cx="182" cy="104" rx="2" ry="3" />
<ellipse fill="#f97f3f" fill-opacity="0.5019607843137255" cx="193" cy="94" rx="19" ry="9" />
<ellipse fill="#cf977b" fill-opacity="0.5019607843137255" cx="148" cy="25" rx="11" ry="11" />
<ellipse fill="#e4936c" fill-opacity="0.5019607843137255" cx="178" cy="41" rx="29" ry="9" />
<ellipse fill="#1c0000" fill-opacity="0.5019607843137255" cx="90" cy="113" rx="10" ry="3" />
<ellipse fill="#583330" fill-opacity="0.5019607843137255" cx="82" cy="26" rx="26" ry="2" />
<ellipse fill="#4d0b00" fill-opacity="0.5019607843137255" cx="148" cy="121" rx="8" ry="8" />
<ellipse fill="#000000" fill-opacity="0.5019607843137255" cx="67" cy="88" rx="2" ry="2" />
<ellipse fill="#f8f1e6" fill-opacity="0.5019607843137255" cx="63" cy="83" rx="3" ry="2" />
<ellipse fill="#fed1b3" fill-opacity="0.5019607843137255" cx="111" cy="34" rx="2" ry="6" />
<ellipse fill="#fff7f2" fill-opacity="0.5019607843137255" cx="124" cy="61" rx="3" ry="3" />
<ellipse fill="#000000" fill-opacity="0.5019607843137255" cx="148" cy="91" rx="5" ry="6" />
<ellipse fill="#f07b73" fill-opacity="0.5019607843137255" cx="110" cy="115" rx="10" ry="4" />
<ellipse fill="#ffd549" fill-opacity="0.5019607843137255" cx="155" cy="54" rx="6" ry="12" />
<ellipse fill="#250000" fill-opacity="0.5019607843137255" cx="131" cy="97" rx="9" ry="4" />
<ellipse fill="#a78d72" fill-opacity="0.5019607843137255" cx="78" cy="72" rx="5" ry="7" />
<ellipse fill="#ffffff" fill-opacity="0.5019607843137255" cx="127" cy="38" rx="1" ry="2" />
<ellipse fill="#ddbd9a" fill-opacity="0.5019607843137255" cx="24" cy="87" rx="7" ry="5" />
<ellipse fill="#332b2e" fill-opacity="0.5019607843137255" cx="46" cy="75" rx="7" ry="4" />
<ellipse fill="#492d27" fill-opacity="0.5019607843137255" cx="37" cy="23" rx="26" ry="2" />
<ellipse fill="#220000" fill-opacity="0.5019607843137255" cx="83" cy="53" rx="3" ry="8" />
<ellipse fill="#d17f46" fill-opacity="0.5019607843137255" cx="24" cy="139" rx="24" ry="23" />
<ellipse fill="#000001" fill-opacity="0.5019607843137255" cx="145" cy="95" rx="4" ry="9" />
<ellipse fill="#ddc5b8" fill-opacity="0.5019607843137255" cx="32" cy="32" rx="36" ry="2" />
<ellipse fill="#b0795a" fill-opacity="0.5019607843137255" cx="49" cy="105" rx="23" ry="5" />
<ellipse fill="#68241d" fill-opacity="0.5019607843137255" cx="119" cy="27" rx="2" ry="2" />
<ellipse fill="#a6949a" fill-opacity="0.5019607843137255" cx="60" cy="29" rx="31" ry="3" />
<ellipse fill="#76580c" fill-opacity="0.5019607843137255" cx="95" cy="93" rx="4" ry="13" />
<ellipse fill="#d08a30" fill-opacity="0.5019607843137255" cx="138" cy="82" rx="7" ry="6" />
<ellipse fill="#a16a16" fill-opacity="0.5019607843137255" cx="133" cy="113" rx="14" ry="5" />
<ellipse fill="#fbec4f" fill-opacity="0.5019607843137255" cx="41" cy="114" rx="3" ry="4" />
<ellipse fill="#000000" fill-opacity="0.5019607843137255" cx="59" cy="69" rx="2" ry="2" />
<ellipse fill="#ffd8b1" fill-opacity="0.5019607843137255" cx="82" cy="80" rx="2" ry="3" />
<ellipse fill="#240000" fill-opacity="0.5019607843137255" cx="63" cy="142" rx="2" ry="3" />
<ellipse fill="#fff8e9" fill-opacity="0.5019607843137255" cx="127" cy="69" rx="3" ry="8" />
<ellipse fill="#000000" fill-opacity="0.5019607843137255" cx="66" cy="87" rx="2" ry="2" />
<ellipse fill="#180b06" fill-opacity="0.5019607843137255" cx="226" cy="142" rx="14" ry="13" />
<ellipse fill="#fff8f9" fill-opacity="0.5019607843137255" cx="141" cy="58" rx="5" ry="3" />
<ellipse fill="#fac6a3" fill-opacity="0.5019607843137255" cx="115" cy="28" rx="2" ry="7" />
</g>
</svg>