<svg xmlns="http://www.w3.org/2000/svg" version="1.1" width="768" height="429">
<rect x="0" y="0" width="768" height="429" fill="#ae7854" />
<g transform="scale(3) translate(0.5 0.5)">
<path stroke="#000000" stroke-opacity="0.5019607843137255" fill="none" d="M 254.993646 92.808274 Q 259.296814 156.631927, 69.904777 136.876137" stroke-width="0.500000" />
<path stroke="#000000" stroke-opacity="0.5019607843137255" fill="none" d="M 254.983932 107.762382 Q 250.783051 158.000000, 67.904957 131.737197" stroke-width="0.500000" />
<path stroke="#000000" stroke-opacity="0.5019607843137255" fill="none" d="M 267.793224 92.433616 Q 248.879058 158.000000, 76.365144 138.208638" stroke-width="0.500000" />
<path stroke="#000000" stroke-opacity="0.5019607843137255" fill="none" d="M 82.853387 128.316845 Q 237.229877 158.000000, 253.396403 101.721486" stroke-width="0.500000" />
<path stroke="#000000" stroke-opacity="0.5019607843137255" fill="none" d="M 252.675842 108.672975 Q 246.816225 156.564283, 66.331174 130.252323" stroke-width="0.500000" />
<path stroke="#000000" stroke-opacity="0.5019607843137255" fill="none" d="M 74.470145 133.685418 Q 253.111425 157.109586, 255.148337 111.788024" stroke-width="0.500000" />
<path stroke="#000000" stroke-opacity="0.5019607843137255" fill="none" d="M 271.000000 137.023022 Q 241.123878 144.264209, 77.338643 130.772633" stroke-width="0.500000" />
<path stroke="#000000" stroke-opacity="0.5019607843137255" fill="none" d="M 69.257969 135.529868 Q 257.055077 158.000000, 255.749537 85.098143" stroke-width="0.500000" />
<path stroke="#000000" stroke-opacity="0.5019607843137255" fill="none" d="M 271.000000 138.289299 Q 91.408985 133.449335, 78.787276 135.478470" stroke-width="0.500000" />
<path stroke="#000000" stroke-opacity="0.5019607843137255" fill="none" d="M 107.528942 80.333159 Q 139.019219 144.845861, 246.496639 141.431151" stroke-width="0.500000" />
<path stroke="#000000" stroke-opacity="0.5019607843137255" fill="none" d="M 255.300454 119.379476 Q 253.169918 155.480211, 76.178923 126.024412" stroke-width="0.500000" />
<path stroke="#000000" stroke-opacity="0.5019607843137255" fill="none" d="M 106.104060 79.931196 Q 141.103210 116.489688, 156.128650 80.902111" stroke-width="0.500000" />
<path stroke="#090000" stroke-opacity="0.5019607843137255" fill="none" d="M 100.930268 127.053634 Q 245.689456 158.000000, 259.047966 83.408558" stroke-width="0.500000" />
<path stroke="#000000" stroke-opacity="0.5019607843137255" fill="none" d="M 155.984218 79.699283 Q 128.702467 117.871655, 57.348025 75.040795" stroke-width="0.500000" />
<path stroke="#1e0000" stroke-opacity="0.5019607843137255" fill="none" d="M 87.109528 68.760812 Q 80.544175 158.000000, 161.118910 119.493443" stroke-width="0.500000" />
<path stroke="#000000" stroke-opacity="0.5019607843137255" fill="none" d="M 253.596531 138.951959 Q 200.367667 144.104635, 77.435941 141.995242" stroke-width="0.500000" />
<path stroke="#000000" stroke-opacity="0.5019607843137255" fill="none" d="M 255.815199 91.223489 Q 258.000177 158.000000, 150.782230 130.674832" stroke-width="0.500000" />
<path stroke="#100000" stroke-opacity="0.5019607843137255" fill="none" d="M 190.598004 141.885942 Q 171.256833 111.667354, 76.141135 139.698837" stroke-width="0.500000" />
<path stroke="#000000" stroke-opacity="0.5019607843137255" fill="none" d="M 271.000000 130.227648 Q 131.727864 147.970154, 66.302091 132.465323" stroke-width="0.500000" />
<path stroke="#180000" stroke-opacity="0.5019607843137255" fill="none" d="M 73.532367 128.103327 Q 126.218242 124.678747, 271.000000 147.681007" stroke-width="0.500000" />
<path stroke="#000000" stroke-opacity="0.5019607843137255" fill="none" d="M 153.493155 84.765278 Q 141.099718 104.665234, 67.513402 102.442229" stroke-width="0.500000" />
<path stroke="#000000" stroke-opacity="0.5019607843137255" fill="none" d="M 255.685846 103.774649 Q 259.409742 158.000000, 147.683569 137.047381" stroke-width="0.500000" />
<path stroke="#340000" stroke-opacity="0.5019607843137255" fill="none" d="M 69.562514 98.421005 Q 136.711275 144.974779, 271.000000 134.365143" stroke-width="0.500000" />
<path stroke="#000000" stroke-opacity="0.5019607843137255" fill="none" d="M 158.127083 80.648159 Q 138.261316 118.515165, 107.654897 81.975503" stroke-width="0.500000" />
<path stroke="#000000" stroke-opacity="0.5019607843137255" fill="none" d="M 109.484218 80.678704 Q 127.035408 116.671717, 156.093149 83.615551" stroke-width="0.500000" />
<path stroke="#000000" stroke-opacity="0.5019607843137255" fill="none" d="M 257.732266 121.080646 Q 243.051353 158.000000, 104.271075 121.571071" stroke-width="0.500000" />
<path stroke="#000000" stroke-opacity="0.5019607843137255" fill="none" d="M 250.738860 97.991692 Q 267.128070 148.535932, 211.899723 141.953421" stroke-width="0.500000" />
<path stroke="#000000" stroke-opacity="0.5019607843137255" fill="none" d="M 144.033892 138.072861 Q 252.538479 151.298315, 255.480814 94.233991" stroke-width="0.500000" />
<path stroke="#000000" stroke-opacity="0.5019607843137255" fill="none" d="M 68.689203 101.330691 Q 134.533490 91.815666, 152.306956 94.789539" stroke-width="0.500000" />
<path stroke="#0c0000" stroke-opacity="0.5019607843137255" fill="none" d="M 271.000000 115.648505 Q 256.173303 138.326252, 51.452812 143.994243" stroke-width="0.500000" />
<path stroke="#000000" stroke-opacity="0.5019607843137255" fill="none" d="M 74.802942 138.678122 Q 88.187157 148.669692, 162.576968 117.912616" stroke-width="0.500000" />
<path stroke="#ffd996" stroke-opacity="0.5019607843137255" fill="none" d="M 251.441867 46.046157 Q 94.835914 77.101673, 29.045549 39.966578" stroke-width="0.500000" />
<path stroke="#fffa8b" stroke-opacity="0.5019607843137255" fill="none" d="M 42.617394 69.336478 Q 141.089261 20.373562, 171.342241 95.998603" stroke-width="0.500000" />
<path stroke="#fffcc4" stroke-opacity="0.5019607843137255" fill="none" d="M 165.062027 82.834860 Q 97.576817 40.939373, 11.437228 28.414897" stroke-width="0.500000" />
<path stroke="#ffd96f" stroke-opacity="0.5019607843137255" fill="none" d="M 271.000000 50.520631 Q 151.570714 55.209752, 4.894423 40.547341" stroke-width="0.500000" />
<path stroke="#050000" stroke-opacity="0.5019607843137255" fill="none" d="M 76.622474 128.556257 Q 184.655240 149.941947, 270.097677 130.375799" stroke-width="0.500000" />
<path stroke="#0d001a" stroke-opacity="0.5019607843137255" fill="none" d="M -16.000000 19.908475 Q 103.229375 30.619239, 109.978949 23.109349" stroke-width="0.500000" />
<path stroke="#ffffff" stroke-opacity="0.5019607843137255" fill="none" d="M 112.237532 56.783952 Q 116.832322 88.414597, 156.247213 65.790684" stroke-width="0.500000" />
<path stroke="#340000" stroke-opacity="0.5019607843137255" fill="none" d="M 114.884797 150.751461 Q 52.213818 29.729503, 119.035849 14.739439" stroke-width="0.500000" />
<path stroke="#180000" stroke-opacity="0.5019607843137255" fill="none" d="M 179.894700 152.984188 Q 161.977045 85.491165, 82.827194 142.982336" stroke-width="0.500000" />
<path stroke="#000000" stroke-opacity="0.5019607843137255" fill="none" d="M 156.421699 77.946011 Q 137.554911 113.841687, 109.519977 81.042380" stroke-width="0.500000" />
<path stroke="#ffffeb" stroke-opacity="0.5019607843137255" fill="none" d="M 110.675542 61.894100 Q 117.031709 86.039923, 174.698043 56.305923" stroke-width="0.500000" />
<path stroke="#210000" stroke-opacity="0.5019607843137255" fill="none" d="M 100.170011 143.348759 Q 98.055081 80.010310, 49.267783 73.393537" stroke-width="0.500000" />
<path stroke="#ffe751" stroke-opacity="0.5019607843137255" fill="none" d="M 87.737986 48.709093 Q 121.923810 39.902272, 254.098349 64.755190" stroke-width="0.500000" />
<path stroke="#140000" stroke-opacity="0.5019607843137255" fill="none" d="M 168.837580 120.504759 Q 159.521609 116.353686, 27.569844 158.000000" stroke-width="0.500000" />
<path stroke="#000000" stroke-opacity="0.5019607843137255" fill="none" d="M 152.136166 91.153205 Q 68.146140 105.992815, 68.132750 99.598616" stroke-width="0.500000" />
<path stroke="#290000" stroke-opacity="0.5019607843137255" fill="none" d="M 109.265965 158.000000 Q 85.197346 71.657185, 81.091806 39.461989" stroke-width="0.500000" />
<path stroke="#ffde9b" stroke-opacity="0.5019607843137255" fill="none" d="M 229.839661 48.835326 Q 70.573023 66.656037, 12.933268 66.371183" stroke-width="0.500000" />
<path stroke="#410000" stroke-opacity="0.5019607843137255" fill="none" d="M 84.203474 38.887458 Q 88.733759 47.236480, 92.236823 158.000000" stroke-width="0.500000" />
<path stroke="#f8f8fa" stroke-opacity="0.5019607843137255" fill="none" d="M -13.056445 30.675604 Q 41.578542 34.056637, 90.397549 35.283261" stroke-width="0.500000" />
<path stroke="#000000" stroke-opacity="0.5019607843137255" fill="none" d="M 87.300115 137.267386 Q 248.304761 158.000000, 253.926371 98.527805" stroke-width="0.500000" />
<path stroke="#000000" stroke-opacity="0.5019607843137255" fill="none" d="M 154.501689 81.761390 Q 157.334231 103.956543, 117.198224 100.166187" stroke-width="0.500000" />
<path stroke="#ffe64a" stroke-opacity="0.5019607843137255" fill="none" d="M 86.907386 47.717383 Q 185.854377 57.351653, 271.000000 51.177612" stroke-width="0.500000" />
<path stroke="#000000" stroke-opacity="0.5019607843137255" fill="none" d="M 107.765503 80.023267 Q 129.826818 112.305501, 155.983831 78.345095" stroke-width="0.500000" />
<path stroke="#000000" stroke-opacity="0.5019607843137255" fill="none" d="M 259.936146 92.981244 Q 261.714190 94.765942, 196.734695 158.000000" stroke-width="0.500000" />
<path stroke="#340000" stroke-opacity="0.5019607843137255" fill="none" d="M 70.332485 71.017606 Q 86.669143 158.000000, 163.161891 121.971168" stroke-width="0.500000" />
<path stroke="#000000" stroke-opacity="0.5019607843137255" fill="none" d="M 250.979655 94.340591 Q 271.000000 127.007657, 205.024576 144.380455" stroke-width="0.500000" />
<path stroke="#010000" stroke-opacity="0.5019607843137255" fill="none" d="M 167.871134 119.685791 Q 98.973148 143.611565, 81.456657 135.670893" stroke-width="0.500000" />
<path stroke="#f0e2bc" stroke-opacity="0.5019607843137255" fill="none" d="M 1.125925 26.442244 Q 140.268496 93.836406, 166.783571 62.055311" stroke-width="0.500000" />
<path stroke="#fffffd" stroke-opacity="0.5019607843137255" fill="none" d="M 117.211501 77.413079 Q 144.327870 43.427807, 160.221730 73.683718" stroke-width="0.500000" />
<path stroke="#21000e" stroke-opacity="0.5019607843137255" fill="none" d="M 67.995404 88.337673 Q 83.654796 39.963246, 118.974899 12.302110" stroke-width="0.500000" />
<path stroke="#ffff44" stroke-opacity="0.5019607843137255" fill="none" d="M 97.385966 50.175184 Q 171.690353 33.348390, 164.448823 112.174982" stroke-width="0.500000" />
<path stroke="#e5e4e8" stroke-opacity="0.5019607843137255" fill="none" d="M -13.656025 33.437368 Q 66.960505 31.900241, 93.227054 32.637543" stroke-width="0.500000" />
<path stroke="#1d0919" stroke-opacity="0.5019607843137255" fill="none" d="M 105.972625 32.176855 Q 96.530024 24.167799, -16.000000 19.910062" stroke-width="0.500000" />
<path stroke="#ffe462" stroke-opacity="0.5019607843137255" fill="none" d="M 256.191781 70.914797 Q 176.680968 152.717656, 145.129734 48.864425" stroke-width="0.500000" />
<path stroke="#ffd582" stroke-opacity="0.5019607843137255" fill="none" d="M 17.193095 64.404901 Q 180.863868 51.064064, 251.731127 64.889722" stroke-width="0.500000" />
<path stroke="#110000" stroke-opacity="0.5019607843137255" fill="none" d="M 134.807257 42.981668 Q 81.323590 33.780129, 81.790944 57.676016" stroke-width="0.500000" />
<path stroke="#ffffe9" stroke-opacity="0.5019607843137255" fill="none" d="M 107.873448 68.710308 Q 130.013087 84.577930, 156.079313 36.211229" stroke-width="0.500000" />
<path stroke="#000000" stroke-opacity="0.5019607843137255" fill="none" d="M 124.989264 140.907699 Q 234.602683 147.763949, 253.910342 101.981984" stroke-width="0.500000" />
<path stroke="#3e0000" stroke-opacity="0.5019607843137255" fill="none" d="M 151.801017 113.810097 Q 147.547145 134.406641, 68.302746 124.337377" stroke-width="0.500000" />
<path stroke="#000000" stroke-opacity="0.5019607843137255" fill="none" d="M 216.040982 142.463993 Q 271.000000 146.472772, 249.687915 99.462669" stroke-width="0.500000" />
<path stroke="#030000" stroke-opacity="0.5019607843137255" fill="none" d="M 148.393910 100.898444 Q 142.505330 84.174739, 71.024500 104.896325" stroke-width="0.500000" />
<path stroke="#ffff39" stroke-opacity="0.5019607843137255" fill="none" d="M 89.947927 49.073665 Q 180.339826 29.672170, 159.840876 112.480116" stroke-width="0.500000" />
<path stroke="#340000" stroke-opacity="0.5019607843137255" fill="none" d="M 169.624715 125.397873 Q 78.632881 138.464539, 85.601891 89.530464" stroke-width="0.500000" />
<path stroke="#000000" stroke-opacity="0.5019607843137255" fill="none" d="M 108.319060 87.287805 Q 145.560156 108.769704, 151.142194 95.450222" stroke-width="0.500000" />
<path stroke="#350000" stroke-opacity="0.5019607843137255" fill="none" d="M 73.897348 141.963219 Q 135.531291 112.786542, 166.100418 119.534171" stroke-width="0.500000" />
<path stroke="#000000" stroke-opacity="0.5019607843137255" fill="none" d="M 256.910279 117.285056 Q 244.044732 147.922989, 142.946082 136.213693" stroke-width="0.500000" />
<path stroke="#e8e8eb" stroke-opacity="0.5019607843137255" fill="none" d="M -9.178454 32.256314 Q 62.410506 20.297396, 76.665121 57.016744" stroke-width="0.500000" />
<path stroke="#ffffd3" stroke-opacity="0.5019607843137255" fill="none" d="M 105.003664 59.591045 Q 132.986707 99.054052, 163.010422 47.055090" stroke-width="0.500000" />
<path stroke="#0d0000" stroke-opacity="0.5019607843137255" fill="none" d="M 75.393257 137.516672 Q 113.893272 137.930763, 158.788820 117.289032" stroke-width="0.500000" />
<path stroke="#000000" stroke-opacity="0.5019607843137255" fill="none" d="M 253.710160 98.199245 Q 219.281625 130.737331, 255.543547 145.967217" stroke-width="0.500000" />
<path stroke="#ffdf85" stroke-opacity="0.5019607843137255" fill="none" d="M 110.622313 22.062897 Q 113.748485 19.969627, 212.265487 140.066999" stroke-width="0.500000" />
<path stroke="#2f0418" stroke-opacity="0.5019607843137255" fill="none" d="M 72.332277 88.870105 Q 89.348790 4.585426, 117.363812 15.191844" stroke-width="0.500000" />
<path stroke="#1a000b" stroke-opacity="0.5019607843137255" fill="none" d="M 37.781172 73.499406 Q 96.090666 73.119280, 91.308067 119.493735" stroke-width="0.500000" />
<path stroke="#ffdf4b" stroke-opacity="0.5019607843137255" fill="none" d="M 258.474697 54.471888 Q 131.901124 55.686600, 88.987762 49.869524" stroke-width="0.500000" />
<path stroke="#000000" stroke-opacity="0.5019607843137255" fill="none" d="M 250.337642 95.781889 Q 246.632512 158.000000, 182.941949 133.613770" stroke-width="0.500000" />
<path stroke="#480200" stroke-opacity="0.5019607843137255" fill="none" d="M 91.957603 143.659401 Q 107.859565 126.315304, 81.850718 39.477247" stroke-width="0.500000" />
<path stroke="#ffcf54" stroke-opacity="0.5019607843137255" fill="none" d="M 87.658591 54.963891 Q 147.498850 44.741296, 271.000000 51.809295" stroke-width="0.500000" />
<path stroke="#230006" stroke-opacity="0.5019607843137255" fill="none" d="M 133.659342 21.132422 Q 96.605617 1.577098, 82.104537 60.565294" stroke-width="0.500000" />
<path stroke="#fdd095" stroke-opacity="0.5019607843137255" fill="none" d="M -15.990374 56.731798 Q 166.993739 77.573001, 222.961699 26.570155" stroke-width="0.500000" />
<path stroke="#f6ede1" stroke-opacity="0.5019607843137255" fill="none" d="M 25.703884 65.464136 Q 77.557423 73.765599, 79.695831 31.387633" stroke-width="0.500000" />
<path stroke="#000000" stroke-opacity="0.5019607843137255" fill="none" d="M 110.063237 90.584125 Q 152.495618 109.572679, 155.703388 80.961837" stroke-width="0.500000" />
<path stroke="#000000" stroke-opacity="0.5019607843137255" fill="none" d="M 107.734941 80.594137 Q 120.775560 116.418459, 153.042436 84.419430" stroke-width="0.500000" />
<path stroke="#200000" stroke-opacity="0.5019607843137255" fill="none" d="M 144.363100 85.863374 Q 142.764474 148.939351, 258.252785 139.453448" stroke-width="0.500000" />
<path stroke="#fffffa" stroke-opacity="0.5019607843137255" fill="none" d="M 160.097446 74.003197 Q 142.961379 74.376266, 112.504060 55.605201" stroke-width="0.500000" />
<path stroke="#ffffff" stroke-opacity="0.5019607843137255" fill="none" d="M 151.387768 65.251315 Q 139.931877 50.557549, 118.384692 79.251301" stroke-width="0.500000" />
<path stroke="#e8e0e1" stroke-opacity="0.5019607843137255" fill="none" d="M 0.270899 32.237873 Q 53.475091 37.381496, 91.555660 36.467526" stroke-width="0.500000" />
<path stroke="#000000" stroke-opacity="0.5019607843137255" fill="none" d="M 271.000000 136.390515 Q 255.549883 140.481535, 152.658155 136.792311" stroke-width="0.500000" />
<path stroke="#000000" stroke-opacity="0.5019607843137255" fill="none" d="M 256.481881 94.221541 Q 258.243297 147.548196, 161.559346 135.478615" stroke-width="0.500000" />
<path stroke="#ffffff" stroke-opacity="0.5019607843137255" fill="none" d="M 108.749816 77.392333 Q 119.244460 65.061610, 154.292124 71.774793" stroke-width="0.500000" />
<path stroke="#260000" stroke-opacity="0.5019607843137255" fill="none" d="M 133.680934 36.428781 Q 79.318028 36.067671, 79.177075 57.126040" stroke-width="0.500000" />
<path stroke="#6576ad" stroke-opacity="0.5019607843137255" fill="none" d="M -15.000134 31.894390 Q -16.000000 -7.535362, 271.000000 2.293700" stroke-width="0.500000" />
<path stroke="#ffd45c" stroke-opacity="0.5019607843137255" fill="none" d="M 248.133782 35.863573 Q 128.246881 54.694528, 92.842338 45.859183" stroke-width="0.500000" />
<path stroke="#560000" stroke-opacity="0.5019607843137255" fill="none" d="M 74.912934 124.878818 Q 170.067655 128.322661, 169.917279 118.592655" stroke-width="0.500000" />
<path stroke="#7581b6" stroke-opacity="0.5019607843137255" fill="none" d="M -1.586127 17.260849 Q 104.647318 -4.793016, 252.558454 3.590122" stroke-width="0.500000" />
<path stroke="#000000" stroke-opacity="0.5019607843137255" fill="none" d="M 240.835558 142.929713 Q 219.029687 122.210885, 271.000000 80.601878" stroke-width="0.500000" />
<path stroke="#e1dee0" stroke-opacity="0.5019607843137255" fill="none" d="M 2.167449 32.047075 Q 74.921122 30.256873, 90.603475 33.455013" stroke-width="0.500000" />
<path stroke="#320000" stroke-opacity="0.5019607843137255" fill="none" d="M 83.573406 127.021036 Q 237.143474 139.889711, 271.000000 146.320238" stroke-width="0.500000" />
<path stroke="#fffd63" stroke-opacity="0.5019607843137255" fill="none" d="M 112.821172 101.315397 Q 88.173387 48.265283, 162.838023 45.391226" stroke-width="0.500000" />
<path stroke="#f4e8d3" stroke-opacity="0.5019607843137255" fill="none" d="M 76.896192 28.989638 Q 71.825773 81.317968, 3.386413 58.198127" stroke-width="0.500000" />
<path stroke="#ffbe4e" stroke-opacity="0.5019607843137255" fill="none" d="M 162.565240 99.553812 Q 265.933946 136.583211, 253.529924 34.267924" stroke-width="0.500000" />
<path stroke="#000000" stroke-opacity="0.5019607843137255" fill="none" d="M 151.498623 94.720372 Q 145.790733 106.968352, 109.485826 83.513587" stroke-width="0.500000" />
<path stroke="#fffff8" stroke-opacity="0.5019607843137255" fill="none" d="M 157.131436 67.297161 Q 128.798370 77.401242, 107.106088 71.621404" stroke-width="0.500000" />
<path stroke="#ffdc67" stroke-opacity="0.5019607843137255" fill="none" d="M 110.718791 47.278154 Q 172.021588 111.205840, 264.730714 76.480470" stroke-width="0.500000" />
<path stroke="#000000" stroke-opacity="0.5019607843137255" fill="none" d="M 225.365740 125.606996 Q 251.361568 106.784253, 255.654950 136.343196" stroke-width="0.500000" />
<path stroke="#1b0000" stroke-opacity="0.5019607843137255" fill="none" d="M 70.756631 106.301403 Q 104.715207 99.254760, 79.014959 49.743776" stroke-width="0.500000" />
<path stroke="#7e84b6" stroke-opacity="0.5019607843137255" fill="none" d="M 254.844838 6.858816 Q 125.771921 -4.589039, -6.280414 19.671113" stroke-width="0.500000" />
<path stroke="#ffb249" stroke-opacity="0.5019607843137255" fill="none" d="M 87.456014 119.219063 Q 242.926021 82.948365, 271.000000 81.048839" stroke-width="0.500000" />
<path stroke="#000000" stroke-opacity="0.5019607843137255" fill="none" d="M 243.603531 104.743959 Q 264.392229 136.587443, 225.281623 141.429201" stroke-width="0.500000" />
<path stroke="#ffcc73" stroke-opacity="0.5019607843137255" fill="none" d="M 91.579528 70.036480 Q 125.256717 45.102212, 264.776673 62.356888" stroke-width="0.500000" />
<path stroke="#230000" stroke-opacity="0.5019607843137255" fill="none" d="M 135.562166 26.886751 Q 111.567798 57.307989, 93.116354 31.743654" stroke-width="0.500000" />
<path stroke="#e9e4e3" stroke-opacity="0.5019607843137255" fill="none" d="M 0.300331 30.475672 Q 76.918801 27.020581, 70.214639 63.486733" stroke-width="0.500000" />
<path stroke="#8889b5" stroke-opacity="0.5019607843137255" fill="none" d="M 269.303618 8.252333 Q 119.343995 4.338561, -15.493862 18.837056" stroke-width="0.500000" />
<path stroke="#0e0000" stroke-opacity="0.5019607843137255" fill="none" d="M 124.095035 16.692468 Q 88.114125 9.228127, 99.653446 44.226590" stroke-width="0.500000" />
<path stroke="#300000" stroke-opacity="0.5019607843137255" fill="none" d="M 93.871687 117.672994 Q 91.705899 84.753395, 48.261661 75.702207" stroke-width="0.500000" />
<path stroke="#ffff38" stroke-opacity="0.5019607843137255" fill="none" d="M 95.647430 61.321934 Q 149.783264 24.688533, 163.725627 71.831504" stroke-width="0.500000" />
<path stroke="#440800" stroke-opacity="0.5019607843137255" fill="none" d="M 77.764388 49.663474 Q 118.299037 104.402648, 70.222232 158.000000" stroke-width="0.500000" />
<path stroke="#2b0000" stroke-opacity="0.5019607843137255" fill="none" d="M 74.550432 127.576952 Q 102.655068 143.023171, 162.376841 117.833150" stroke-width="0.500000" />
<path stroke="#150000" stroke-opacity="0.5019607843137255" fill="none" d="M 151.482370 96.976260 Q 129.788262 88.473984, 74.245206 116.407743" stroke-width="0.500000" />
<path stroke="#ffffe2" stroke-opacity="0.5019607843137255" fill="none" d="M 153.698074 64.340907 Q 119.089752 96.338406, 107.375702 56.379171" stroke-width="0.500000" />
<path stroke="#ffc461" stroke-opacity="0.5019607843137255" fill="none" d="M 163.315729 98.866803 Q 271.000000 126.836478, 250.363245 24.009764" stroke-width="0.500000" />
<path stroke="#f2cbb7" stroke-opacity="0.5019607843137255" fill="none" d="M 67.163770 141.743944 Q 50.286276 48.038689, 82.912355 28.991459" stroke-width="0.500000" />
<path stroke="#ffcf5b" stroke-opacity="0.5019607843137255" fill="none" d="M 90.639856 67.503593 Q 163.173633 31.004283, 250.730455 60.556084" stroke-width="0.500000" />
<path stroke="#ffc651" stroke-opacity="0.5019607843137255" fill="none" d="M 89.412065 71.509478 Q 193.498283 89.476727, 271.000000 89.714689" stroke-width="0.500000" />
<path stroke="#ffcf3b" stroke-opacity="0.5019607843137255" fill="none" d="M 249.769214 71.408689 Q 166.015201 124.416062, 149.859350 51.256414" stroke-width="0.500000" />
<path stroke="#4c0000" stroke-opacity="0.5019607843137255" fill="none" d="M 167.379752 124.143233 Q 115.883845 104.645734, 77.680672 143.698865" stroke-width="0.500000" />
<path stroke="#3e0000" stroke-opacity="0.5019607843137255" fill="none" d="M 79.360198 140.935825 Q 145.856950 106.126811, 166.215769 122.122018" stroke-width="0.500000" />
<path stroke="#ffffff" stroke-opacity="0.5019607843137255" fill="none" d="M 121.706748 79.505113 Q 128.325277 47.453616, 152.707648 62.086187" stroke-width="0.500000" />
<path stroke="#fff642" stroke-opacity="0.5019607843137255" fill="none" d="M 89.244597 51.542023 Q 164.528816 28.723609, 167.492170 111.750245" stroke-width="0.500000" />
<path stroke="#000000" stroke-opacity="0.5019607843137255" fill="none" d="M 157.837437 78.264561 Q 143.093066 112.304310, 109.580362 86.220384" stroke-width="0.500000" />
<path stroke="#010000" stroke-opacity="0.5019607843137255" fill="none" d="M 62.560286 79.427583 Q 85.620595 71.997322, 89.310430 116.443589" stroke-width="0.500000" />
<path stroke="#ffcc59" stroke-opacity="0.5019607843137255" fill="none" d="M 254.116089 40.641893 Q 99.900355 38.078123, 97.370215 69.049808" stroke-width="0.500000" />
<path stroke="#000000" stroke-opacity="0.5019607843137255" fill="none" d="M 219.522850 143.833645 Q 226.473222 145.368757, 271.000000 69.498912" stroke-width="0.500000" />
<path stroke="#201322" stroke-opacity="0.5019607843137255" fill="none" d="M 92.269996 26.481627 Q 59.150017 22.097998, 6.683768 23.497481" stroke-width="0.500000" />
<path stroke="#f7e7d1" stroke-opacity="0.5019607843137255" fill="none" d="M 3.850488 51.306533 Q 66.036961 86.071421, 77.163972 45.989567" stroke-width="0.500000" />
<path stroke="#ffa748" stroke-opacity="0.5019607843137255" fill="none" d="M 243.261193 30.949034 Q 262.197146 133.421579, 146.948207 107.559289" stroke-width="0.500000" />
<path stroke="#000000" stroke-opacity="0.5019607843137255" fill="none" d="M 223.774462 126.038720 Q 248.470488 104.664401, 255.774468 129.238468" stroke-width="0.500000" />
<path stroke="#000000" stroke-opacity="0.5019607843137255" fill="none" d="M 255.225399 101.651854 Q 253.167236 143.201866, 221.574563 133.584557" stroke-width="0.500000" />
<path stroke="#1d0000" stroke-opacity="0.5019607843137255" fill="none" d="M 71.698243 102.014519 Q 100.656515 100.462824, 83.178294 47.462972" stroke-width="0.500000" />
<path stroke="#c9ccdb" stroke-opacity="0.5019607843137255" fill="none" d="M 91.345065 35.586350 Q 61.439988 26.286985, -5.521582 28.971319" stroke-width="0.500000" />
<path stroke="#fffff9" stroke-opacity="0.5019607843137255" fill="none" d="M 129.352902 92.387041 Q 112.833288 81.747430, 142.697400 55.386787" stroke-width="0.500000" />
<path stroke="#ffcd3f" stroke-opacity="0.5019607843137255" fill="none" d="M 254.648745 68.713132 Q 178.372055 148.660185, 146.177141 46.331263" stroke-width="0.500000" />
<path stroke="#000000" stroke-opacity="0.5019607843137255" fill="none" d="M 110.566540 91.601627 Q 129.131882 109.053429, 150.684340 83.389673" stroke-width="0.500000" />
<path stroke="#390000" stroke-opacity="0.5019607843137255" fill="none" d="M 157.530755 113.804526 Q 128.889428 133.800193, 73.937821 132.544688" stroke-width="0.500000" />
<path stroke="#000000" stroke-opacity="0.5019607843137255" fill="none" d="M 103.704533 14.729597 Q 79.717041 32.034989, 105.735104 43.741954" stroke-width="0.500000" />
<path stroke="#ffb13c" stroke-opacity="0.5019607843137255" fill="none" d="M 253.152038 50.347119 Q 222.297595 131.903249, 102.219364 101.612015" stroke-width="0.500000" />
<path stroke="#8a8cb3" stroke-opacity="0.5019607843137255" fill="none" d="M 194.856378 1.947929 Q 67.064234 19.218956, 0.036600 15.253564" stroke-width="0.500000" />
<path stroke="#ffc85d" stroke-opacity="0.5019607843137255" fill="none" d="M 94.733158 73.698002 Q 156.704577 20.611478, 263.426134 92.995830" stroke-width="0.500000" />
<path stroke="#ff9c42" stroke-opacity="0.5019607843137255" fill="none" d="M 256.867455 59.075014 Q 193.653495 112.516729, 86.446001 117.591567" stroke-width="0.500000" />
<path stroke="#fff32c" stroke-opacity="0.5019607843137255" fill="none" d="M 96.610488 70.303199 Q 149.716920 109.963151, 160.613356 52.117965" stroke-width="0.500000" />
<path stroke="#ffc650" stroke-opacity="0.5019607843137255" fill="none" d="M 155.619548 87.072009 Q 217.982127 145.024343, 253.000838 52.835803" stroke-width="0.500000" />
<path stroke="#f8e3c0" stroke-opacity="0.5019607843137255" fill="none" d="M 77.952502 37.150712 Q 68.928127 79.480306, 0.897489 55.313532" stroke-width="0.500000" />
<path stroke="#220004" stroke-opacity="0.5019607843137255" fill="none" d="M 95.062016 17.522097 Q 139.020812 14.772416, 136.798085 31.522690" stroke-width="0.500000" />
<path stroke="#000000" stroke-opacity="0.5019607843137255" fill="none" d="M 253.129161 100.610836 Q 227.136022 124.526031, 254.556082 135.202761" stroke-width="0.500000" />
<path stroke="#e2d7c9" stroke-opacity="0.5019607843137255" fill="none" d="M 84.737100 33.110768 Q 7.741049 62.329576, 2.652190 26.706386" stroke-width="0.500000" />
<path stroke="#2f0000" stroke-opacity="0.5019607843137255" fill="none" d="M 170.011937 121.106795 Q 85.982608 146.137505, 84.008468 140.642704" stroke-width="0.500000" />
<path stroke="#ffffff" stroke-opacity="0.5019607843137255" fill="none" d="M 124.949360 80.594043 Q 133.936644 55.601841, 112.618878 57.484582" stroke-width="0.500000" />
<path stroke="#e6ddd8" stroke-opacity="0.5019607843137255" fill="none" d="M 8.760418 32.134147 Q 86.139335 39.237667, 89.137267 31.870017" stroke-width="0.500000" />
<path stroke="#000000" stroke-opacity="0.5019607843137255" fill="none" d="M 151.787680 138.578511 Q 255.785837 158.000000, 250.467773 100.723843" stroke-width="0.500000" />
<path stroke="#3c0500" stroke-opacity="0.5019607843137255" fill="none" d="M 108.951920 110.166379 Q 55.682925 116.604127, 47.634928 135.499939" stroke-width="0.500000" />
<path stroke="#ffa946" stroke-opacity="0.5019607843137255" fill="none" d="M 93.754305 118.932694 Q 194.806698 94.396662, 267.899610 85.094640" stroke-width="0.500000" />
<path stroke="#fffffb" stroke-opacity="0.5019607843137255" fill="none" d="M 108.019110 62.107661 Q 151.918755 51.813460, 151.478007 73.114622" stroke-width="0.500000" />
<path stroke="#000000" stroke-opacity="0.5019607843137255" fill="none" d="M 109.537963 84.806745 Q 122.026330 111.630501, 157.538069 78.773533" stroke-width="0.500000" />
<path stroke="#ffcd45" stroke-opacity="0.5019607843137255" fill="none" d="M 252.589441 65.601122 Q 93.133975 45.567074, 89.580928 59.069885" stroke-width="0.500000" />
<path stroke="#580403" stroke-opacity="0.5019607843137255" fill="none" d="M 150.148714 44.064615 Q 113.406198 36.354437, 77.553495 47.780652" stroke-width="0.500000" />
<path stroke="#ffc657" stroke-opacity="0.5019607843137255" fill="none" d="M 92.809584 58.653137 Q 191.587621 28.152928, 253.106041 58.802476" stroke-width="0.500000" />
<path stroke="#1e0000" stroke-opacity="0.5019607843137255" fill="none" d="M 101.484635 113.572875 Q 81.075688 88.509074, 62.013303 79.789791" stroke-width="0.500000" />
<path stroke="#000000" stroke-opacity="0.5019607843137255" fill="none" d="M 200.039488 156.627949 Q 254.838566 114.950818, 255.731331 99.665794" stroke-width="0.500000" />
<path stroke="#ffc847" stroke-opacity="0.5019607843137255" fill="none" d="M 255.774058 80.000386 Q 184.601658 158.000000, 152.772351 57.131562" stroke-width="0.500000" />
<path stroke="#500000" stroke-opacity="0.5019607843137255" fill="none" d="M 78.300077 145.518344 Q 119.347443 107.709885, 164.544435 118.047960" stroke-width="0.500000" />
<path stroke="#360000" stroke-opacity="0.5019607843137255" fill="none" d="M 75.438873 129.589987 Q 111.983020 91.100909, 63.241819 78.589054" stroke-width="0.500000" />
<path stroke="#3f0000" stroke-opacity="0.5019607843137255" fill="none" d="M 142.855079 86.444320 Q 157.676562 128.320448, 67.831574 135.449816" stroke-width="0.500000" />
<path stroke="#f9fff1" stroke-opacity="0.5019607843137255" fill="none" d="M 160.489149 61.615246 Q 116.372561 81.580106, 110.748281 59.859845" stroke-width="0.500000" />
<path stroke="#2f1828" stroke-opacity="0.5019607843137255" fill="none" d="M 13.810354 24.230620 Q 110.286460 22.022963, 109.515752 42.784434" stroke-width="0.500000" />
<path stroke="#000000" stroke-opacity="0.5019607843137255" fill="none" d="M 113.548242 83.993657 Q 134.458045 109.769132, 155.278450 83.072879" stroke-width="0.500000" />
<path stroke="#5c70a2" stroke-opacity="0.5019607843137255" fill="none" d="M 164.255467 2.498863 Q -2.067006 -8.113978, -16.000000 31.462665" stroke-width="0.500000" />
<path stroke="#8887af" stroke-opacity="0.5019607843137255" fill="none" d="M 0.903837 17.955347 Q 76.433970 10.304782, 257.154603 8.368636" stroke-width="0.500000" />
<path stroke="#220000" stroke-opacity="0.5019607843137255" fill="none" d="M 131.141270 18.422106 Q 97.838613 3.664600, 95.991879 41.436401" stroke-width="0.500000" />
<path stroke="#ffc655" stroke-opacity="0.5019607843137255" fill="none" d="M 255.602639 82.238304 Q 160.054129 83.153130, 165.601095 114.333113" stroke-width="0.500000" />
<path stroke="#ffa843" stroke-opacity="0.5019607843137255" fill="none" d="M 104.283048 107.398918 Q 259.337403 105.112456, 251.187134 51.664557" stroke-width="0.500000" />
<path stroke="#000000" stroke-opacity="0.5019607843137255" fill="none" d="M 138.152251 139.128208 Q 230.650541 151.627806, 262.839149 97.212726" stroke-width="0.500000" />
<path stroke="#000000" stroke-opacity="0.5019607843137255" fill="none" d="M 219.245804 131.507238 Q 266.230629 139.389357, 252.564512 98.502188" stroke-width="0.500000" />
<path stroke="#fff2b5" stroke-opacity="0.5019607843137255" fill="none" d="M 139.933707 92.078873 Q 139.458858 33.429726, 109.133598 29.391847" stroke-width="0.500000" />
<path stroke="#ffb342" stroke-opacity="0.5019607843137255" fill="none" d="M 253.910244 85.483098 Q 234.915824 134.846433, 142.948188 70.874120" stroke-width="0.500000" />
<path stroke="#ecc9b5" stroke-opacity="0.5019607843137255" fill="none" d="M 88.384248 35.332056 Q 51.506672 34.425190, 67.372528 138.685453" stroke-width="0.500000" />
<path stroke="#ff9957" stroke-opacity="0.5019607843137255" fill="none" d="M 204.977134 144.676703 Q 271.000000 53.422509, 137.000621 26.624522" stroke-width="0.500000" />
<path stroke="#4c0000" stroke-opacity="0.5019607843137255" fill="none" d="M 76.972405 133.449513 Q 149.787899 119.071715, 215.499975 142.363338" stroke-width="0.500000" />
<path stroke="#fffc3c" stroke-opacity="0.5019607843137255" fill="none" d="M 89.439505 46.779865 Q 162.546033 37.036021, 162.419972 85.152408" stroke-width="0.500000" />
<path stroke="#e5d9c9" stroke-opacity="0.5019607843137255" fill="none" d="M 3.829755 60.071548 Q 67.607998 29.032943, 79.820784 42.701523" stroke-width="0.500000" />
<path stroke="#7a7aa2" stroke-opacity="0.5019607843137255" fill="none" d="M -11.956933 -1.316333 Q 87.108593 13.166767, 271.000000 2.820217" stroke-width="0.500000" />
</g>
</svg>