<svg xmlns="http://www.w3.org/2000/svg" version="1.1" width="768" height="429">
<rect x="0" y="0" width="768" height="429" fill="#ae7854" />
<g transform="scale(3) translate(0.5 0.5)">
<rect fill="#2f0000" fill-opacity="0.5019607843137255" x="76" y="117" width="180" height="26" />
<rect fill="#ff9f4e" fill-opacity="0.5019607843137255" x="156" y="30" width="79" height="103" />
<rect fill="#ffff80" fill-opacity="0.5019607843137255" x="92" y="45" width="71" height="35" />
<rect fill="#cfc5bc" fill-opacity="0.5019607843137255" x="2" y="26" width="78" height="42" />
<rect fill="#6c280a" fill-opacity="0.5019607843137255" x="75" y="86" width="86" height="57" />
<rect fill="#000000" fill-opacity="0.5019607843137255" x="230" y="106" width="26" height="37" />
<rect fill="#7c7192" fill-opacity="0.5019607843137255" x="0" y="0" width="256" height="27" />
<rect fill="#ff9f4f" fill-opacity="0.5019607843137255" x="212" y="20" width="43" height="79" />
<rect fill="#ff9846" fill-opacity="0.5019607843137255" x="100" y="101" width="140" height="15" />
<rect fill="#350000" fill-opacity="0.5019607843137255" x="92" y="15" width="17" height="30" />
<rect fill="#000000" fill-opacity="0.5019607843137255" x="115" y="93" width="36" height="8" />
<rect fill="#5a2d0f" fill-opacity="0.5019607843137255" x="79" y="38" width="14" height="79" />
<rect fill="#000000" fill-opacity="0.5019607843137255" x="135" y="135" width="104" height="8" />
<rect fill="#000000" fill-opacity="0.5019607843137255" x="64" y="76" width="15" height="11" />
<rect fill="#c8bfee" fill-opacity="0.5019607843137255" x="110" y="57" width="40" height="18" />
<rect fill="#ff7e6e" fill-opacity="0.5019607843137255" x="75" y="116" width="42" height="8" />
<rect fill="#ffd679" fill-opacity="0.5019607843137255" x="123" y="74" width="18" height="19" />
<rect fill="#000000" fill-opacity="0.5019607843137255" x="245" y="98" width="11" height="31" />
<rect fill="#d29d6b" fill-opacity="0.5019607843137255" x="10" y="82" width="60" height="46" />
<rect fill="#e0a51b" fill-opacity="0.5019607843137255" x="90" y="46" width="19" height="51" />
<rect fill="#010000" fill-opacity="0.5019607843137255" x="222" y="125" width="18" height="18" />
<rect fill="#000000" fill-opacity="0.5019607843137255" x="144" y="85" width="10" height="11" />
<rect fill="#40281e" fill-opacity="0.5019607843137255" x="18" y="22" width="70" height="5" />
<rect fill="#000031" fill-opacity="0.5019607843137255" x="117" y="62" width="8" height="8" />
<rect fill="#000000" fill-opacity="0.5019607843137255" x="113" y="87" width="11" height="10" />
<rect fill="#f4803e" fill-opacity="0.5019607843137255" x="198" y="74" width="16" height="69" />
<rect fill="#330000" fill-opacity="0.5019607843137255" x="48" y="127" width="7" height="16" />
<rect fill="#560101" fill-opacity="0.5019607843137255" x="128" y="19" width="8" height="24" />
<rect fill="#cc8671" fill-opacity="0.5019607843137255" x="137" y="16" width="115" height="24" />
<rect fill="#2e0a0c" fill-opacity="0.5019607843137255" x="84" y="87" width="13" height="29" />
<rect fill="#8b92aa" fill-opacity="0.5019607843137255" x="32" y="0" width="64" height="21" />
<rect fill="#ff9c43" fill-opacity="0.5019607843137255" x="215" y="48" width="37" height="54" />
<rect fill="#3f3f41" fill-opacity="0.5019607843137255" x="0" y="0" width="30" height="13" />
<rect fill="#ffefd8" fill-opacity="0.5019607843137255" x="108" y="28" width="19" height="7" />
<rect fill="#360000" fill-opacity="0.5019607843137255" x="145" y="114" width="21" height="13" />
<rect fill="#ffd32e" fill-opacity="0.5019607843137255" x="88" y="44" width="72" height="12" />
<rect fill="#060000" fill-opacity="0.5019607843137255" x="70" y="98" width="13" height="8" />
<rect fill="#00001a" fill-opacity="0.5019607843137255" x="43" y="72" width="9" height="11" />
<rect fill="#3f0000" fill-opacity="0.5019607843137255" x="100" y="14" width="29" height="6" />
<rect fill="#00002d" fill-opacity="0.5019607843137255" x="139" y="61" width="7" height="7" />
<rect fill="#200000" fill-opacity="0.5019607843137255" x="79" y="129" width="32" height="12" />
<rect fill="#ffa04c" fill-opacity="0.5019607843137255" x="155" y="86" width="87" height="25" />
<rect fill="#d5c3bd" fill-opacity="0.5019607843137255" x="3" y="30" width="89" height="7" />
<rect fill="#d38039" fill-opacity="0.5019607843137255" x="8" y="106" width="41" height="37" />
<rect fill="#ebc59e" fill-opacity="0.5019607843137255" x="129" y="118" width="12" height="7" />
<rect fill="#6e2319" fill-opacity="0.5019607843137255" x="82" y="36" width="68" height="9" />
<rect fill="#b55a43" fill-opacity="0.5019607843137255" x="165" y="64" width="71" height="14" />
<rect fill="#efa348" fill-opacity="0.5019607843137255" x="103" y="95" width="14" height="25" />
<rect fill="#e0b79c" fill-opacity="0.5019607843137255" x="77" y="104" width="14" height="5" />
<rect fill="#000000" fill-opacity="0.5019607843137255" x="155" y="134" width="35" height="9" />
<rect fill="#b19273" fill-opacity="0.5019607843137255" x="1" y="36" width="45" height="63" />
<rect fill="#170000" fill-opacity="0.5019607843137255" x="78" y="44" width="8" height="14" />
<rect fill="#de9774" fill-opacity="0.5019607843137255" x="79" y="64" width="6" height="27" />
<rect fill="#000000" fill-opacity="0.5019607843137255" x="141" y="86" width="7" height="17" />
<rect fill="#efa721" fill-opacity="0.5019607843137255" x="129" y="73" width="22" height="12" />
<rect fill="#f4996b" fill-opacity="0.5019607843137255" x="151" y="37" width="103" height="23" />
<rect fill="#f9d7af" fill-opacity="0.5019607843137255" x="63" y="37" width="15" height="24" />
<rect fill="#000000" fill-opacity="0.5019607843137255" x="152" y="81" width="5" height="6" />
<rect fill="#bfcae5" fill-opacity="0.5019607843137255" x="56" y="81" width="9" height="14" />
<rect fill="#fbe7ed" fill-opacity="0.5019607843137255" x="115" y="68" width="16" height="11" />
<rect fill="#000000" fill-opacity="0.5019607843137255" x="110" y="84" width="6" height="8" />
<rect fill="#0d0000" fill-opacity="0.5019607843137255" x="250" y="94" width="6" height="23" />
<rect fill="#bd723d" fill-opacity="0.5019607843137255" x="136" y="129" width="25" height="7" />
<rect fill="#ffda4e" fill-opacity="0.5019607843137255" x="99" y="88" width="12" height="7" />
<rect fill="#905735" fill-opacity="0.5019607843137255" x="0" y="104" width="39" height="9" />
<rect fill="#150d1b" fill-opacity="0.5019607843137255" x="64" y="76" width="11" height="13" />
<rect fill="#ffffff" fill-opacity="0.5019607843137255" x="134" y="88" width="7" height="4" />
<rect fill="#51301f" fill-opacity="0.5019607843137255" x="0" y="20" width="51" height="4" />
<rect fill="#fdccab" fill-opacity="0.5019607843137255" x="60" y="107" width="17" height="7" />
<rect fill="#ffe039" fill-opacity="0.5019607843137255" x="157" y="50" width="7" height="43" />
<rect fill="#0a0000" fill-opacity="0.5019607843137255" x="88" y="107" width="13" height="8" />
<rect fill="#ffffde" fill-opacity="0.5019607843137255" x="147" y="59" width="7" height="15" />
<rect fill="#946b4d" fill-opacity="0.5019607843137255" x="20" y="49" width="31" height="10" />
<rect fill="#ffba6e" fill-opacity="0.5019607843137255" x="56" y="126" width="11" height="12" />
<rect fill="#fff7e5" fill-opacity="0.5019607843137255" x="169" y="100" width="15" height="4" />
<rect fill="#e16963" fill-opacity="0.5019607843137255" x="69" y="86" width="13" height="13" />
<rect fill="#76450e" fill-opacity="0.5019607843137255" x="86" y="67" width="10" height="28" />
<rect fill="#4c0000" fill-opacity="0.5019607843137255" x="94" y="125" width="55" height="7" />
<rect fill="#ffce55" fill-opacity="0.5019607843137255" x="225" y="78" width="30" height="14" />
<rect fill="#fdc128" fill-opacity="0.5019607843137255" x="119" y="81" width="27" height="6" />
<rect fill="#000000" fill-opacity="0.5019607843137255" x="115" y="94" width="36" height="5" />
<rect fill="#ec7947" fill-opacity="0.5019607843137255" x="160" y="109" width="74" height="10" />
<rect fill="#645c62" fill-opacity="0.5019607843137255" x="23" y="68" width="36" height="7" />
<rect fill="#202628" fill-opacity="0.5019607843137255" x="0" y="0" width="1" height="143" />
<rect fill="#fbc096" fill-opacity="0.5019607843137255" x="103" y="21" width="24" height="3" />
<rect fill="#ff9849" fill-opacity="0.5019607843137255" x="251" y="138" width="5" height="5" />
<rect fill="#a58486" fill-opacity="0.5019607843137255" x="123" y="1" width="124" height="15" />
<rect fill="#f2e3e2" fill-opacity="0.5019607843137255" x="38" y="65" width="19" height="4" />
<rect fill="#160000" fill-opacity="0.5019607843137255" x="238" y="109" width="13" height="25" />
<rect fill="#58260a" fill-opacity="0.5019607843137255" x="53" y="119" width="8" height="7" />
<rect fill="#000000" fill-opacity="0.5019607843137255" x="144" y="137" width="72" height="3" />
<rect fill="#d9bda8" fill-opacity="0.5019607843137255" x="42" y="31" width="39" height="14" />
<rect fill="#ecefff" fill-opacity="0.5019607843137255" x="124" y="88" width="7" height="5" />
<rect fill="#ffda4e" fill-opacity="0.5019607843137255" x="117" y="44" width="43" height="15" />
<rect fill="#000000" fill-opacity="0.5019607843137255" x="126" y="140" width="58" height="3" />
<rect fill="#1a0000" fill-opacity="0.5019607843137255" x="95" y="35" width="6" height="11" />
<rect fill="#51292c" fill-opacity="0.5019607843137255" x="61" y="24" width="44" height="4" />
<rect fill="#b19897" fill-opacity="0.5019607843137255" x="63" y="14" width="30" height="10" />
<rect fill="#ffca36" fill-opacity="0.5019607843137255" x="152" y="94" width="4" height="12" />
<rect fill="#ffb07c" fill-opacity="0.5019607843137255" x="135" y="35" width="5" height="8" />
<rect fill="#702219" fill-opacity="0.5019607843137255" x="125" y="23" width="13" height="10" />
<rect fill="#4f2e15" fill-opacity="0.5019607843137255" x="255" y="0" width="1" height="99" />
<rect fill="#fbecf5" fill-opacity="0.5019607843137255" x="134" y="57" width="6" height="15" />
<rect fill="#180700" fill-opacity="0.5019607843137255" x="107" y="80" width="4" height="6" />
<rect fill="#140000" fill-opacity="0.5019607843137255" x="71" y="99" width="13" height="6" />
<rect fill="#000000" fill-opacity="0.5019607843137255" x="132" y="89" width="2" height="5" />
<rect fill="#2e0000" fill-opacity="0.5019607843137255" x="147" y="112" width="8" height="10" />
<rect fill="#632916" fill-opacity="0.5019607843137255" x="32" y="112" width="7" height="8" />
<rect fill="#000000" fill-opacity="0.5019607843137255" x="149" y="84" width="6" height="10" />
<rect fill="#861216" fill-opacity="0.5019607843137255" x="77" y="122" width="44" height="9" />
<rect fill="#f53d77" fill-opacity="0.5019607843137255" x="125" y="101" width="18" height="6" />
<rect fill="#2b0b05" fill-opacity="0.5019607843137255" x="227" y="121" width="26" height="19" />
<rect fill="#f8d436" fill-opacity="0.5019607843137255" x="41" y="118" width="10" height="10" />
<rect fill="#d69348" fill-opacity="0.5019607843137255" x="189" y="141" width="18" height="2" />
<rect fill="#f9ad9b" fill-opacity="0.5019607843137255" x="157" y="108" width="13" height="8" />
<rect fill="#ff8d62" fill-opacity="0.5019607843137255" x="82" y="83" width="7" height="6" />
<rect fill="#f0693b" fill-opacity="0.5019607843137255" x="204" y="108" width="21" height="20" />
<rect fill="#000000" fill-opacity="0.5019607843137255" x="66" y="80" width="14" height="4" />
<rect fill="#d7ae82" fill-opacity="0.5019607843137255" x="16" y="83" width="30" height="13" />
<rect fill="#dfc7d9" fill-opacity="0.5019607843137255" x="107" y="59" width="10" height="13" />
<rect fill="#2c0000" fill-opacity="0.5019607843137255" x="0" y="115" width="6" height="5" />
<rect fill="#eccaa6" fill-opacity="0.5019607843137255" x="0" y="52" width="17" height="8" />
<rect fill="#000000" fill-opacity="0.5019607843137255" x="112" y="87" width="12" height="6" />
<rect fill="#001529" fill-opacity="0.5019607843137255" x="119" y="61" width="4" height="9" />
<rect fill="#fdc9bf" fill-opacity="0.5019607843137255" x="59" y="71" width="10" height="4" />
<rect fill="#803f1d" fill-opacity="0.5019607843137255" x="161" y="125" width="18" height="9" />
<rect fill="#a55c2d" fill-opacity="0.5019607843137255" x="116" y="135" width="28" height="4" />
<rect fill="#886e56" fill-opacity="0.5019607843137255" x="67" y="65" width="18" height="12" />
<rect fill="#958f9f" fill-opacity="0.5019607843137255" x="22" y="10" width="30" height="11" />
<rect fill="#e1a27f" fill-opacity="0.5019607843137255" x="138" y="22" width="18" height="14" />
<rect fill="#bc8825" fill-opacity="0.5019607843137255" x="153" y="91" width="10" height="18" />
<rect fill="#f2eadf" fill-opacity="0.5019607843137255" x="61" y="83" width="6" height="3" />
<rect fill="#000000" fill-opacity="0.5019607843137255" x="83" y="92" width="6" height="11" />
<rect fill="#edc498" fill-opacity="0.5019607843137255" x="26" y="61" width="45" height="5" />
<rect fill="#e0b88b" fill-opacity="0.5019607843137255" x="1" y="74" width="22" height="6" />
<rect fill="#e7a52e" fill-opacity="0.5019607843137255" x="127" y="77" width="26" height="6" />
<rect fill="#3d0008" fill-opacity="0.5019607843137255" x="69" y="132" width="52" height="5" />
<rect fill="#a99aab" fill-opacity="0.5019607843137255" x="22" y="26" width="35" height="4" />
<rect fill="#f09242" fill-opacity="0.5019607843137255" x="188" y="83" width="10" height="51" />
<rect fill="#bc8d68" fill-opacity="0.5019607843137255" x="86" y="102" width="9" height="5" />
<rect fill="#0f334d" fill-opacity="0.5019607843137255" x="140" y="63" width="7" height="6" />
<rect fill="#be6d52" fill-opacity="0.5019607843137255" x="169" y="59" width="26" height="29" />
<rect fill="#63171a" fill-opacity="0.5019607843137255" x="91" y="28" width="18" height="8" />
<rect fill="#a7796a" fill-opacity="0.5019607843137255" x="200" y="13" width="53" height="16" />
<rect fill="#d89c36" fill-opacity="0.5019607843137255" x="99" y="53" width="9" height="49" />
<rect fill="#ffca31" fill-opacity="0.5019607843137255" x="153" y="46" width="6" height="34" />
<rect fill="#ffffdf" fill-opacity="0.5019607843137255" x="90" y="36" width="3" height="3" />
<rect fill="#9b705b" fill-opacity="0.5019607843137255" x="73" y="111" width="5" height="32" />
<rect fill="#bc4948" fill-opacity="0.5019607843137255" x="58" y="97" width="14" height="11" />
<rect fill="#3c3b46" fill-opacity="0.5019607843137255" x="39" y="69" width="7" height="9" />
<rect fill="#b35d49" fill-opacity="0.5019607843137255" x="171" y="105" width="9" height="17" />
<rect fill="#742500" fill-opacity="0.5019607843137255" x="51" y="126" width="6" height="17" />
<rect fill="#0f0000" fill-opacity="0.5019607843137255" x="154" y="79" width="4" height="5" />
<rect fill="#ffffe1" fill-opacity="0.5019607843137255" x="122" y="58" width="5" height="6" />
<rect fill="#ffd137" fill-opacity="0.5019607843137255" x="127" y="43" width="6" height="19" />
<rect fill="#5a0d10" fill-opacity="0.5019607843137255" x="102" y="13" width="20" height="4" />
<rect fill="#f4807d" fill-opacity="0.5019607843137255" x="108" y="110" width="11" height="9" />
<rect fill="#f2d3b8" fill-opacity="0.5019607843137255" x="126" y="37" width="4" height="4" />
<rect fill="#b2a1a7" fill-opacity="0.5019607843137255" x="57" y="89" width="15" height="9" />
<rect fill="#06030e" fill-opacity="0.5019607843137255" x="57" y="68" width="6" height="3" />
<rect fill="#000000" fill-opacity="0.5019607843137255" x="142" y="86" width="7" height="16" />
<rect fill="#210d08" fill-opacity="0.5019607843137255" x="219" y="130" width="21" height="13" />
<rect fill="#000000" fill-opacity="0.5019607843137255" x="81" y="51" width="4" height="10" />
<rect fill="#fff7ff" fill-opacity="0.5019607843137255" x="136" y="56" width="9" height="4" />
<rect fill="#ddcdd0" fill-opacity="0.5019607843137255" x="134" y="67" width="11" height="9" />
<rect fill="#f29d6a" fill-opacity="0.5019607843137255" x="14" y="111" width="13" height="11" />
<rect fill="#fc8f42" fill-opacity="0.5019607843137255" x="228" y="49" width="27" height="31" />
<rect fill="#c8b9af" fill-opacity="0.5019607843137255" x="65" y="137" width="7" height="6" />
<rect fill="#835845" fill-opacity="0.5019607843137255" x="49" y="109" width="8" height="10" />
<rect fill="#fc9140" fill-opacity="0.5019607843137255" x="186" y="89" width="53" height="23" />
<rect fill="#e7c09c" fill-opacity="0.5019607843137255" x="65" y="55" width="15" height="6" />
<rect fill="#210000" fill-opacity="0.5019607843137255" x="82" y="110" width="21" height="4" />
<rect fill="#ffc82c" fill-opacity="0.5019607843137255" x="113" y="81" width="12" height="4" />
<rect fill="#b0b5c4" fill-opacity="0.5019607843137255" x="2" y="14" width="10" height="5" />
<rect fill="#936a53" fill-opacity="0.5019607843137255" x="2" y="62" width="16" height="7" />
<rect fill="#4f494f" fill-opacity="0.5019607843137255" x="24" y="0" width="12" height="7" />
<rect fill="#bfb0b1" fill-opacity="0.5019607843137255" x="0" y="25" width="15" height="10" />
<rect fill="#c6774b" fill-opacity="0.5019607843137255" x="204" y="120" width="10" height="18" />
<rect fill="#ffd24c" fill-opacity="0.5019607843137255" x="91" y="46" width="7" height="19" />
<rect fill="#fffbcd" fill-opacity="0.5019607843137255" x="115" y="20" width="2" height="8" />
<rect fill="#ad8976" fill-opacity="0.5019607843137255" x="1" y="35" width="33" height="16" />
<rect fill="#ffdd3d" fill-opacity="0.5019607843137255" x="109" y="93" width="4" height="7" />
<rect fill="#d39238" fill-opacity="0.5019607843137255" x="129" y="75" width="15" height="12" />
<rect fill="#ffc4a1" fill-opacity="0.5019607843137255" x="81" y="80" width="5" height="6" />
<rect fill="#e6a637" fill-opacity="0.5019607843137255" x="149" y="98" width="7" height="9" />
<rect fill="#4a0005" fill-opacity="0.5019607843137255" x="119" y="99" width="15" height="3" />
<rect fill="#840c00" fill-opacity="0.5019607843137255" x="67" y="129" width="5" height="6" />
<rect fill="#775344" fill-opacity="0.5019607843137255" x="13" y="0" width="8" height="26" />
<rect fill="#f4d9b9" fill-opacity="0.5019607843137255" x="12" y="41" width="8" height="5" />
<rect fill="#efd0b1" fill-opacity="0.5019607843137255" x="35" y="43" width="12" height="5" />
<rect fill="#ffd1b1" fill-opacity="0.5019607843137255" x="110" y="29" width="16" height="7" />
<rect fill="#000002" fill-opacity="0.5019607843137255" x="150" y="135" width="50" height="4" />
<rect fill="#fffff5" fill-opacity="0.5019607843137255" x="165" y="99" width="8" height="2" />
<rect fill="#c29481" fill-opacity="0.5019607843137255" x="133" y="13" width="19" height="9" />
<rect fill="#ffeff1" fill-opacity="0.5019607843137255" x="113" y="56" width="9" height="5" />
<rect fill="#d3825d" fill-opacity="0.5019607843137255" x="204" y="28" width="46" height="20" />
<rect fill="#fdad4f" fill-opacity="0.5019607843137255" x="203" y="82" width="49" height="15" />
<rect fill="#09000d" fill-opacity="0.5019607843137255" x="130" y="126" width="12" height="5" />
<rect fill="#3b0000" fill-opacity="0.5019607843137255" x="143" y="120" width="25" height="3" />
<rect fill="#af6a38" fill-opacity="0.5019607843137255" x="108" y="138" width="14" height="3" />
</g>
</svg>