<svg xmlns="http://www.w3.org/2000/svg" version="1.1" width="768" height="429">
<rect x="0" y="0" width="768" height="429" fill="#ae7854" />
<g transform="scale(3) translate(0.5 0.5)">
<rect fill="#2f0000" fill-opacity="0.5019607843137255" x="76" y="117" width="180" height="26" />
<rect fill="#ff9f4e" fill-opacity="0.5019607843137255" x="156" y="30" width="79" height="103" />
<rect fill="#ffff80" fill-opacity="0.5019607843137255" x="92" y="45" width="71" height="35" />
<rect fill="#cfc5bc" fill-opacity="0.5019607843137255" x="2" y="26" width="78" height="42" />
<rect fill="#6c280a" fill-opacity="0.5019607843137255" x="75" y="86" width="86" height="57" />
<rect fill="#000000" fill-opacity="0.5019607843137255" x="230" y="106" width="26" height="37" />
<rect fill="#7c7192" fill-opacity="0.5019607843137255" x="0" y="0" width="256" height="27" />
<rect fill="#ff9f4f" fill-opacity="0.5019607843137255" x="212" y="20" width="43" height="79" />
<rect fill="#ff9846" fill-opacity="0.5019607843137255" x="100" y="101" width="140" height="15" />
<rect fill="#350000" fill-opacity="0.5019607843137255" x="92" y="15" width="17" height="30" />
<rect fill="#000000" fill-opacity="0.5019607843137255" x="115" y="93" width="36" height="8" />
<rect fill="#5a2d0f" fill-opacity="0.5019607843137255" x="79" y="38" width="14" height="79" />
<rect fill="#000000" fill-opacity="0.5019607843137255" x="135" y="135" width="104" height="8" />
<rect fill="#000000" fill-opacity="0.5019607843137255" x="64" y="76" width="15" height="11" />
<rect fill="#c8bfee" fill-opacity="0.5019607843137255" x="110" y="57" width="40" height="18" />
<rect fill="#ff7e6e" fill-opacity="0.5019607843137255" x="75" y="116" width="42" height="8" />
<rect fill="#ffd679" fill-opacity="0.5019607843137255" x="123" y="74" width="18" height="19" />
<rect fill="#000000" fill-opacity="0.5019607843137255" x="245" y="98" width="11" height="31" />
<rect fill="#d29d6b" fill-opacity="0.5019607843137255" x="10" y="82" width="60" height="46" />
<rect fill="#e0a51b" fill-opacity="0.5019607843137255" x="90" y="46" width="19" height="51" />
<rect fill="#010000" fill-opacity="0.5019607843137255" x="222" y="125" width="18" height="18" />
<rect fill="#000000" fill-opacity="0.5019607843137255" x="144" y="85" width="10" height="11" />
<rect fill="#40281e" fill-opacity="0.5019607843137255" x="18" y="22" width="70" height="5" />
<rect fill="#000031" fill-opacity="0.5019607843137255" x="117" y="62" width="8" height="8" />
<rect fill="#000000" fill-opacity="0.5019607843137255" x="113" y="87" width="11" height="10" />
<rect fill="#f4803e" fill-opacity="0.5019607843137255" x="198" y="74" width="16" height="69" />
<rect fill="#330000" fill-opacity="0.5019607843137255" x="48" y="127" width="7" height="16" />
<rect fill="#560101" fill-opacity="0.5019607843137255" x="128" y="19" width="8" height="24" />
<rect fill="#cc8671" fill-opacity="0.5019607843137255" x="137" y="16" width="115" height="24" />
<rect fill="#2e0a0c" fill-opacity="0.5019607843137255" x="84" y="87" width="13" height="29" />
<rect fill="#8b92aa" fill-opacity="0.5019607843137255" x="32" y="0" width="64" height="21" />
<rect fill="#ff9c43" fill-opacity="0.5019607843137255" x="215" y="48" width="37" height="54" />
<rect fill="#3f3f41" fill-opacity="0.5019607843137255" x="0" y="0" width="30" height="13" />
<rect fill="#ffefd8" fill-opacity="0.5019607843137255" x="108" y="28" width="19" height="7" />
<rect fill="#360000" fill-opacity="0.5019607843137255" x="145" y="114" width="21" height="13" />
<rect fill="#ffd32e" fill-opacity="0.5019607843137255" x="88" y="44" width="72" height="12" />
<rect fill="#060000" fill-opacity="0.5019607843137255" x="70" y="98" width="13" height="8" />
<rect fill="#00001a" fill-opacity="0.5019607843137255" x="43" y="72" width="9" height="11" />
<rect fill="#3f0000" fill-opacity="0.5019607843137255" x="100" y="14" width="29" height="6" />
<rect fill="#00002d" fill-opacity="0.5019607843137255" x="139" y="61" width="7" height="7" />
<rect fill="#200000" fill-opacity="0.5019607843137255" x="79" y="129" width="32" height="12" />
<rect fill="#ffa04c" fill-opacity="0.5019607843137255" x="155" y="86" width="87" height="25" />
<rect fill="#d5c3bd" fill-opacity="0.5019607843137255" x="3" y="30" width="89" height="7" />
<rect fill="#d38039" fill-opacity="0.5019607843137255" x="8" y="106" width="41" height="37" />
<rect fill="#ebc59e" fill-opacity="0.5019607843137255" x="129" y="118" width="12" height="7" />
<rect fill="#6e2319" fill-opacity="0.5019607843137255" x="82" y="36" width="68" height="9" />
<rect fill="#b55a43" fill-opacity="0.5019607843137255" x="165" y="64" width="71" height="14" />
<rect fill="#efa348" fill-opacity="0.5019607843137255" x="103" y="95" width="14" height="25" />
<rect fill="#e0b79c" fill-opacity="0.5019607843137255" x="77" y="104" width="14" height="5" />
<rect fill="#000000" fill-opacity="0.5019607843137255" x="155" y="134" width="35" height="9" />
</g>
</svg>