<svg xmlns="http://www.w3.org/2000/svg" version="1.1" width="768" height="429">
<rect x="0" y="0" width="768" height="429" fill="#ae7854" />
<g transform="scale(3) translate(0.5 0.5)">
<g transform="translate(243 128) rotate(314) scale(109 30)"><rect fill="#000000" fill-opacity="0.5019607843137255" x="-0.5" y="-0.5" width="1" height="1" /></g>
<g transform="translate(146 142) rotate(30) scale(150 64)"><rect fill="#4b0700" fill-opacity="0.5019607843137255" x="-0.5" y="-0.5" width="1" height="1" /></g>
<g transform="translate(208 72) rotate(-14) scale(113 76)"><rect fill="#ffab50" fill-opacity="0.5019607843137255" x="-0.5" y="-0.5" width="1" height="1" /></g>
<g transform="translate(129 63) rotate(85) scale(38 70)"><rect fill="#fffa7f" fill-opacity="0.5019607843137255" x="-0.5" y="-0.5" width="1" height="1" /></g>
<g transform="translate(47 38) rotate(206) scale(68 128)"><rect fill="#a8a1a4" fill-opacity="0.5019607843137255" x="-0.5" y="-0.5" width="1" height="1" /></g>
<g transform="translate(108 104) rotate(61) scale(37 18)"><rect fill="#ffc648" fill-opacity="0.5019607843137255" x="-0.5" y="-0.5" width="1" height="1" /></g>
<g transform="translate(147 91) rotate(25) scale(12 22)"><rect fill="#000000" fill-opacity="0.5019607843137255" x="-0.5" y="-0.5" width="1" height="1" /></g>
<g transform="translate(44 11) rotate(92) scale(32 142)"><rect fill="#5b5575" fill-opacity="0.5019607843137255" x="-0.5" y="-0.5" width="1" height="1" /></g>
<g transform="translate(164 142) rotate(359) scale(67 15)"><rect fill="#000000" fill-opacity="0.5019607843137255" x="-0.5" y="-0.5" width="1" height="1" /></g>
<g transform="translate(81 87) rotate(71) scale(34 30)"><rect fill="#481c0e" fill-opacity="0.5019607843137255" x="-0.5" y="-0.5" width="1" height="1" /></g>
<g transform="translate(239 130) rotate(222) scale(23 83)"><rect fill="#000000" fill-opacity="0.5019607843137255" x="-0.5" y="-0.5" width="1" height="1" /></g>
<g transform="translate(93 42) rotate(140) scale(38 11)"><rect fill="#330000" fill-opacity="0.5019607843137255" x="-0.5" y="-0.5" width="1" height="1" /></g>
<g transform="translate(59 47) rotate(91) scale(35 38)"><rect fill="#eecba9" fill-opacity="0.5019607843137255" x="-0.5" y="-0.5" width="1" height="1" /></g>
<g transform="translate(149 0) rotate(5) scale(225 37)"><rect fill="#93809b" fill-opacity="0.5019607843137255" x="-0.5" y="-0.5" width="1" height="1" /></g>
<g transform="translate(226 95) rotate(314) scale(81 37)"><rect fill="#ff9537" fill-opacity="0.5019607843137255" x="-0.5" y="-0.5" width="1" height="1" /></g>
<g transform="translate(129 67) rotate(264) scale(17 43)"><rect fill="#c4bff0" fill-opacity="0.5019607843137255" x="-0.5" y="-0.5" width="1" height="1" /></g>
<g transform="translate(137 108) rotate(175) scale(70 13)"><rect fill="#fb964c" fill-opacity="0.5019607843137255" x="-0.5" y="-0.5" width="1" height="1" /></g>
<g transform="translate(105 132) rotate(164) scale(53 17)"><rect fill="#330000" fill-opacity="0.5019607843137255" x="-0.5" y="-0.5" width="1" height="1" /></g>
<g transform="translate(137 97) rotate(186) scale(48 8)"><rect fill="#020000" fill-opacity="0.5019607843137255" x="-0.5" y="-0.5" width="1" height="1" /></g>
<g transform="translate(145 80) rotate(246) scale(10 44)"><rect fill="#ffc63d" fill-opacity="0.5019607843137255" x="-0.5" y="-0.5" width="1" height="1" /></g>
<g transform="translate(36 127) rotate(313) scale(81 55)"><rect fill="#d2884d" fill-opacity="0.5019607843137255" x="-0.5" y="-0.5" width="1" height="1" /></g>
<g transform="translate(47 76) rotate(128) scale(9 13)"><rect fill="#0a0000" fill-opacity="0.5019607843137255" x="-0.5" y="-0.5" width="1" height="1" /></g>
<g transform="translate(96 68) rotate(191) scale(23 41)"><rect fill="#d69c1a" fill-opacity="0.5019607843137255" x="-0.5" y="-0.5" width="1" height="1" /></g>
<g transform="translate(112 17) rotate(270) scale(8 29)"><rect fill="#470005" fill-opacity="0.5019607843137255" x="-0.5" y="-0.5" width="1" height="1" /></g>
<g transform="translate(172 36) rotate(298) scale(24 65)"><rect fill="#ea997e" fill-opacity="0.5019607843137255" x="-0.5" y="-0.5" width="1" height="1" /></g>
<g transform="translate(27 32) rotate(92) scale(7 127)"><rect fill="#dacac5" fill-opacity="0.5019607843137255" x="-0.5" y="-0.5" width="1" height="1" /></g>
<g transform="translate(120 65) rotate(177) scale(9 9)"><rect fill="#001c46" fill-opacity="0.5019607843137255" x="-0.5" y="-0.5" width="1" height="1" /></g>
<g transform="translate(53 138) rotate(262) scale(22 8)"><rect fill="#2d0000" fill-opacity="0.5019607843137255" x="-0.5" y="-0.5" width="1" height="1" /></g>
<g transform="translate(115 40) rotate(180) scale(70 7)"><rect fill="#631310" fill-opacity="0.5019607843137255" x="-0.5" y="-0.5" width="1" height="1" /></g>
<g transform="translate(66 91) rotate(39) scale(19 11)"><rect fill="#d0b4bb" fill-opacity="0.5019607843137255" x="-0.5" y="-0.5" width="1" height="1" /></g>
<g transform="translate(177 109) rotate(300) scale(28 56)"><rect fill="#f3934b" fill-opacity="0.5019607843137255" x="-0.5" y="-0.5" width="1" height="1" /></g>
<g transform="translate(131 27) rotate(-19) scale(10 16)"><rect fill="#48000b" fill-opacity="0.5019607843137255" x="-0.5" y="-0.5" width="1" height="1" /></g>
<g transform="translate(118 27) rotate(3) scale(18 15)"><rect fill="#f9cab1" fill-opacity="0.5019607843137255" x="-0.5" y="-0.5" width="1" height="1" /></g>
<g transform="translate(147 124) rotate(65) scale(8 33)"><rect fill="#2b0000" fill-opacity="0.5019607843137255" x="-0.5" y="-0.5" width="1" height="1" /></g>
<g transform="translate(112 50) rotate(356) scale(42 11)"><rect fill="#ffe132" fill-opacity="0.5019607843137255" x="-0.5" y="-0.5" width="1" height="1" /></g>
<g transform="translate(98 120) rotate(-5) scale(29 9)"><rect fill="#f7635c" fill-opacity="0.5019607843137255" x="-0.5" y="-0.5" width="1" height="1" /></g>
<g transform="translate(143 64) rotate(48) scale(8 5)"><rect fill="#00001d" fill-opacity="0.5019607843137255" x="-0.5" y="-0.5" width="1" height="1" /></g>
<g transform="translate(116 88) rotate(126) scale(4 18)"><rect fill="#000000" fill-opacity="0.5019607843137255" x="-0.5" y="-0.5" width="1" height="1" /></g>
<g transform="translate(72 25) rotate(273) scale(3 133)"><rect fill="#562313" fill-opacity="0.5019607843137255" x="-0.5" y="-0.5" width="1" height="1" /></g>
<g transform="translate(190 74) rotate(-4) scale(51 19)"><rect fill="#b75947" fill-opacity="0.5019607843137255" x="-0.5" y="-0.5" width="1" height="1" /></g>
<g transform="translate(154 142) rotate(353) scale(71 8)"><rect fill="#000000" fill-opacity="0.5019607843137255" x="-0.5" y="-0.5" width="1" height="1" /></g>
<g transform="translate(88 69) rotate(164) scale(8 47)"><rect fill="#4c2b06" fill-opacity="0.5019607843137255" x="-0.5" y="-0.5" width="1" height="1" /></g>
<g transform="translate(94 110) rotate(154) scale(16 9)"><rect fill="#0a0000" fill-opacity="0.5019607843137255" x="-0.5" y="-0.5" width="1" height="1" /></g>
<g transform="translate(80 100) rotate(339) scale(20 8)"><rect fill="#0a0000" fill-opacity="0.5019607843137255" x="-0.5" y="-0.5" width="1" height="1" /></g>
<g transform="translate(151 90) rotate(120) scale(24 4)"><rect fill="#000000" fill-opacity="0.5019607843137255" x="-0.5" y="-0.5" width="1" height="1" /></g>
<g transform="translate(72 82) rotate(222) scale(12 8)"><rect fill="#000000" fill-opacity="0.5019607843137255" x="-0.5" y="-0.5" width="1" height="1" /></g>
<g transform="translate(31 50) rotate(105) scale(33 59)"><rect fill="#c09e81" fill-opacity="0.5019607843137255" x="-0.5" y="-0.5" width="1" height="1" /></g>
<g transform="translate(65 16) rotate(4) scale(54 13)"><rect fill="#ab9da7" fill-opacity="0.5019607843137255" x="-0.5" y="-0.5" width="1" height="1" /></g>
<g transform="translate(69 110) rotate(167) scale(37 4)"><rect fill="#e0bda6" fill-opacity="0.5019607843137255" x="-0.5" y="-0.5" width="1" height="1" /></g>
<g transform="translate(77 72) rotate(234) scale(40 3)"><rect fill="#e7b39b" fill-opacity="0.5019607843137255" x="-0.5" y="-0.5" width="1" height="1" /></g>
<g transform="translate(77 93) rotate(176) scale(11 10)"><rect fill="#fc6851" fill-opacity="0.5019607843137255" x="-0.5" y="-0.5" width="1" height="1" /></g>
<g transform="translate(184 123) rotate(364) scale(44 21)"><rect fill="#c5673c" fill-opacity="0.5019607843137255" x="-0.5" y="-0.5" width="1" height="1" /></g>
<g transform="translate(149 133) rotate(257) scale(6 42)"><rect fill="#b8682c" fill-opacity="0.5019607843137255" x="-0.5" y="-0.5" width="1" height="1" /></g>
<g transform="translate(176 102) rotate(288) scale(3 22)"><rect fill="#fff5d8" fill-opacity="0.5019607843137255" x="-0.5" y="-0.5" width="1" height="1" /></g>
<g transform="translate(34 54) rotate(277) scale(11 32)"><rect fill="#946c4c" fill-opacity="0.5019607843137255" x="-0.5" y="-0.5" width="1" height="1" /></g>
<g transform="translate(0 71) rotate(269) scale(163 1)"><rect fill="#191b1b" fill-opacity="0.5019607843137255" x="-0.5" y="-0.5" width="1" height="1" /></g>
<g transform="translate(98 31) rotate(345) scale(14 17)"><rect fill="#50080f" fill-opacity="0.5019607843137255" x="-0.5" y="-0.5" width="1" height="1" /></g>
<g transform="translate(209 47) rotate(92) scale(31 91)"><rect fill="#f28f63" fill-opacity="0.5019607843137255" x="-0.5" y="-0.5" width="1" height="1" /></g>
<g transform="translate(133 122) rotate(169) scale(14 7)"><rect fill="#c99c73" fill-opacity="0.5019607843137255" x="-0.5" y="-0.5" width="1" height="1" /></g>
<g transform="translate(137 90) rotate(281) scale(4 7)"><rect fill="#ffffff" fill-opacity="0.5019607843137255" x="-0.5" y="-0.5" width="1" height="1" /></g>
<g transform="translate(234 86) rotate(359) scale(39 14)"><rect fill="#ffc958" fill-opacity="0.5019607843137255" x="-0.5" y="-0.5" width="1" height="1" /></g>
<g transform="translate(32 71) rotate(8) scale(54 8)"><rect fill="#7f5947" fill-opacity="0.5019607843137255" x="-0.5" y="-0.5" width="1" height="1" /></g>
<g transform="translate(147 92) rotate(103) scale(11 10)"><rect fill="#000000" fill-opacity="0.5019607843137255" x="-0.5" y="-0.5" width="1" height="1" /></g>
<g transform="translate(133 49) rotate(54) scale(13 23)"><rect fill="#ffc835" fill-opacity="0.5019607843137255" x="-0.5" y="-0.5" width="1" height="1" /></g>
<g transform="translate(205 96) rotate(166) scale(44 34)"><rect fill="#ff9140" fill-opacity="0.5019607843137255" x="-0.5" y="-0.5" width="1" height="1" /></g>
<g transform="translate(106 93) rotate(59) scale(26 11)"><rect fill="#e9b237" fill-opacity="0.5019607843137255" x="-0.5" y="-0.5" width="1" height="1" /></g>
<g transform="translate(120 94) rotate(50) scale(14 10)"><rect fill="#000000" fill-opacity="0.5019607843137255" x="-0.5" y="-0.5" width="1" height="1" /></g>
<g transform="translate(225 27) rotate(271) scale(21 138)"><rect fill="#be7f69" fill-opacity="0.5019607843137255" x="-0.5" y="-0.5" width="1" height="1" /></g>
<g transform="translate(20 84) rotate(308) scale(23 94)"><rect fill="#c19560" fill-opacity="0.5019607843137255" x="-0.5" y="-0.5" width="1" height="1" /></g>
<g transform="translate(118 72) rotate(125) scale(8 19)"><rect fill="#fbe2e5" fill-opacity="0.5019607843137255" x="-0.5" y="-0.5" width="1" height="1" /></g>
<g transform="translate(255 114) rotate(30) scale(22 107)"><rect fill="#240000" fill-opacity="0.5019607843137255" x="-0.5" y="-0.5" width="1" height="1" /></g>
<g transform="translate(17 0) rotate(170) scale(33 21)"><rect fill="#4f4a4c" fill-opacity="0.5019607843137255" x="-0.5" y="-0.5" width="1" height="1" /></g>
<g transform="translate(150 67) rotate(245) scale(14 4)"><rect fill="#ffffff" fill-opacity="0.5019607843137255" x="-0.5" y="-0.5" width="1" height="1" /></g>
<g transform="translate(129 65) rotate(302) scale(2 32)"><rect fill="#ffeeeb" fill-opacity="0.5019607843137255" x="-0.5" y="-0.5" width="1" height="1" /></g>
<g transform="translate(34 114) rotate(45) scale(16 6)"><rect fill="#6e2f14" fill-opacity="0.5019607843137255" x="-0.5" y="-0.5" width="1" height="1" /></g>
<g transform="translate(142 80) rotate(170) scale(48 6)"><rect fill="#edac2d" fill-opacity="0.5019607843137255" x="-0.5" y="-0.5" width="1" height="1" /></g>
<g transform="translate(157 118) rotate(28) scale(22 5)"><rect fill="#4e0000" fill-opacity="0.5019607843137255" x="-0.5" y="-0.5" width="1" height="1" /></g>
<g transform="translate(72 47) rotate(293) scale(33 11)"><rect fill="#ebcca6" fill-opacity="0.5019607843137255" x="-0.5" y="-0.5" width="1" height="1" /></g>
<g transform="translate(44 125) rotate(209) scale(13 17)"><rect fill="#f1c537" fill-opacity="0.5019607843137255" x="-0.5" y="-0.5" width="1" height="1" /></g>
<g transform="translate(8 33) rotate(89) scale(19 14)"><rect fill="#c0b1b0" fill-opacity="0.5019607843137255" x="-0.5" y="-0.5" width="1" height="1" /></g>
<g transform="translate(62 131) rotate(168) scale(9 13)"><rect fill="#ffbe7a" fill-opacity="0.5019607843137255" x="-0.5" y="-0.5" width="1" height="1" /></g>
<g transform="translate(92 134) rotate(360) scale(30 11)"><rect fill="#330000" fill-opacity="0.5019607843137255" x="-0.5" y="-0.5" width="1" height="1" /></g>
<g transform="translate(55 119) rotate(150) scale(5 16)"><rect fill="#673d29" fill-opacity="0.5019607843137255" x="-0.5" y="-0.5" width="1" height="1" /></g>
<g transform="translate(74 127) rotate(101) scale(12 2)"><rect fill="#d7c5b3" fill-opacity="0.5019607843137255" x="-0.5" y="-0.5" width="1" height="1" /></g>
<g transform="translate(71 70) rotate(71) scale(11 29)"><rect fill="#986e58" fill-opacity="0.5019607843137255" x="-0.5" y="-0.5" width="1" height="1" /></g>
<g transform="translate(158 68) rotate(256) scale(51 7)"><rect fill="#ffd938" fill-opacity="0.5019607843137255" x="-0.5" y="-0.5" width="1" height="1" /></g>
<g transform="translate(70 86) rotate(154) scale(12 3)"><rect fill="#120002" fill-opacity="0.5019607843137255" x="-0.5" y="-0.5" width="1" height="1" /></g>
<g transform="translate(113 89) rotate(152) scale(2 23)"><rect fill="#000000" fill-opacity="0.5019607843137255" x="-0.5" y="-0.5" width="1" height="1" /></g>
<g transform="translate(226 71) rotate(83) scale(12 28)"><rect fill="#d25a31" fill-opacity="0.5019607843137255" x="-0.5" y="-0.5" width="1" height="1" /></g>
<g transform="translate(128 91) rotate(353) scale(8 5)"><rect fill="#edf3ff" fill-opacity="0.5019607843137255" x="-0.5" y="-0.5" width="1" height="1" /></g>
<g transform="translate(121 65) rotate(328) scale(5 7)"><rect fill="#00000f" fill-opacity="0.5019607843137255" x="-0.5" y="-0.5" width="1" height="1" /></g>
<g transform="translate(117 31) rotate(82) scale(10 15)"><rect fill="#ffd7b8" fill-opacity="0.5019607843137255" x="-0.5" y="-0.5" width="1" height="1" /></g>
<g transform="translate(10 113) rotate(58) scale(3 28)"><rect fill="#6c2d0c" fill-opacity="0.5019607843137255" x="-0.5" y="-0.5" width="1" height="1" /></g>
<g transform="translate(194 139) rotate(355) scale(32 4)"><rect fill="#030000" fill-opacity="0.5019607843137255" x="-0.5" y="-0.5" width="1" height="1" /></g>
<g transform="translate(132 96) rotate(358) scale(29 6)"><rect fill="#000000" fill-opacity="0.5019607843137255" x="-0.5" y="-0.5" width="1" height="1" /></g>
<g transform="translate(133 92) rotate(165) scale(1 10)"><rect fill="#000000" fill-opacity="0.5019607843137255" x="-0.5" y="-0.5" width="1" height="1" /></g>
<g transform="translate(39 66) rotate(94) scale(4 35)"><rect fill="#decdc2" fill-opacity="0.5019607843137255" x="-0.5" y="-0.5" width="1" height="1" /></g>
<g transform="translate(197 142) rotate(263) scale(1 24)"><rect fill="#d08e43" fill-opacity="0.5019607843137255" x="-0.5" y="-0.5" width="1" height="1" /></g>
<g transform="translate(144 9) rotate(207) scale(62 28)"><rect fill="#a58482" fill-opacity="0.5019607843137255" x="-0.5" y="-0.5" width="1" height="1" /></g>
<g transform="translate(215 122) rotate(138) scale(32 15)"><rect fill="#e7633d" fill-opacity="0.5019607843137255" x="-0.5" y="-0.5" width="1" height="1" /></g>
<g transform="translate(131 66) rotate(48) scale(4 29)"><rect fill="#ffede5" fill-opacity="0.5019607843137255" x="-0.5" y="-0.5" width="1" height="1" /></g>
<g transform="translate(255 43) rotate(180) scale(1 113)"><rect fill="#301f1a" fill-opacity="0.5019607843137255" x="-0.5" y="-0.5" width="1" height="1" /></g>
<g transform="translate(107 124) rotate(350) scale(47 6)"><rect fill="#901914" fill-opacity="0.5019607843137255" x="-0.5" y="-0.5" width="1" height="1" /></g>
<g transform="translate(6 16) rotate(262) scale(4 12)"><rect fill="#c5c9dc" fill-opacity="0.5019607843137255" x="-0.5" y="-0.5" width="1" height="1" /></g>
<g transform="translate(84 49) rotate(371) scale(3 23)"><rect fill="#240003" fill-opacity="0.5019607843137255" x="-0.5" y="-0.5" width="1" height="1" /></g>
<g transform="translate(91 37) rotate(55) scale(10 1)"><rect fill="#ffedc0" fill-opacity="0.5019607843137255" x="-0.5" y="-0.5" width="1" height="1" /></g>
<g transform="translate(10 56) rotate(100) scale(8 18)"><rect fill="#efceaa" fill-opacity="0.5019607843137255" x="-0.5" y="-0.5" width="1" height="1" /></g>
<g transform="translate(165 112) rotate(264) scale(8 10)"><rect fill="#ffb6a1" fill-opacity="0.5019607843137255" x="-0.5" y="-0.5" width="1" height="1" /></g>
<g transform="translate(94 55) rotate(266) scale(20 9)"><rect fill="#ffcc47" fill-opacity="0.5019607843137255" x="-0.5" y="-0.5" width="1" height="1" /></g>
<g transform="translate(158 140) rotate(260) scale(8 43)"><rect fill="#000001" fill-opacity="0.5019607843137255" x="-0.5" y="-0.5" width="1" height="1" /></g>
<g transform="translate(26 126) rotate(307) scale(14 35)"><rect fill="#e58d52" fill-opacity="0.5019607843137255" x="-0.5" y="-0.5" width="1" height="1" /></g>
<g transform="translate(41 10) rotate(67) scale(8 37)"><rect fill="#9094a7" fill-opacity="0.5019607843137255" x="-0.5" y="-0.5" width="1" height="1" /></g>
<g transform="translate(98 100) rotate(160) scale(6 29)"><rect fill="#7b550e" fill-opacity="0.5019607843137255" x="-0.5" y="-0.5" width="1" height="1" /></g>
<g transform="translate(133 105) rotate(176) scale(15 9)"><rect fill="#f85a64" fill-opacity="0.5019607843137255" x="-0.5" y="-0.5" width="1" height="1" /></g>
<g transform="translate(155 38) rotate(229) scale(51 9)"><rect fill="#e59f79" fill-opacity="0.5019607843137255" x="-0.5" y="-0.5" width="1" height="1" /></g>
<g transform="translate(108 79) rotate(292) scale(4 31)"><rect fill="#e29c2b" fill-opacity="0.5019607843137255" x="-0.5" y="-0.5" width="1" height="1" /></g>
<g transform="translate(64 114) rotate(23) scale(12 10)"><rect fill="#f3c29f" fill-opacity="0.5019607843137255" x="-0.5" y="-0.5" width="1" height="1" /></g>
<g transform="translate(56 72) rotate(145) scale(14 1)"><rect fill="#360e0f" fill-opacity="0.5019607843137255" x="-0.5" y="-0.5" width="1" height="1" /></g>
<g transform="translate(55 79) rotate(20) scale(6 13)"><rect fill="#e76452" fill-opacity="0.5019607843137255" x="-0.5" y="-0.5" width="1" height="1" /></g>
<g transform="translate(131 112) rotate(-4) scale(27 9)"><rect fill="#bb8122" fill-opacity="0.5019607843137255" x="-0.5" y="-0.5" width="1" height="1" /></g>
<g transform="translate(116 30) rotate(128) scale(1 33)"><rect fill="#dba78c" fill-opacity="0.5019607843137255" x="-0.5" y="-0.5" width="1" height="1" /></g>
<g transform="translate(30 87) rotate(93) scale(8 31)"><rect fill="#dbb48b" fill-opacity="0.5019607843137255" x="-0.5" y="-0.5" width="1" height="1" /></g>
<g transform="translate(70 74) rotate(275) scale(2 25)"><rect fill="#deb59e" fill-opacity="0.5019607843137255" x="-0.5" y="-0.5" width="1" height="1" /></g>
<g transform="translate(74 95) rotate(139) scale(31 5)"><rect fill="#d75343" fill-opacity="0.5019607843137255" x="-0.5" y="-0.5" width="1" height="1" /></g>
<g transform="translate(151 120) rotate(146) scale(14 13)"><rect fill="#410000" fill-opacity="0.5019607843137255" x="-0.5" y="-0.5" width="1" height="1" /></g>
<g transform="translate(90 113) rotate(-6) scale(19 6)"><rect fill="#150000" fill-opacity="0.5019607843137255" x="-0.5" y="-0.5" width="1" height="1" /></g>
<g transform="translate(146 82) rotate(337) scale(11 6)"><rect fill="#ffe54c" fill-opacity="0.5019607843137255" x="-0.5" y="-0.5" width="1" height="1" /></g>
<g transform="translate(143 66) rotate(350) scale(6 5)"><rect fill="#001234" fill-opacity="0.5019607843137255" x="-0.5" y="-0.5" width="1" height="1" /></g>
<g transform="translate(117 59) rotate(74) scale(5 9)"><rect fill="#fff3fb" fill-opacity="0.5019607843137255" x="-0.5" y="-0.5" width="1" height="1" /></g>
<g transform="translate(1 116) rotate(317) scale(2 18)"><rect fill="#330900" fill-opacity="0.5019607843137255" x="-0.5" y="-0.5" width="1" height="1" /></g>
<g transform="translate(152 100) rotate(214) scale(4 25)"><rect fill="#e6b429" fill-opacity="0.5019607843137255" x="-0.5" y="-0.5" width="1" height="1" /></g>
<g transform="translate(70 78) rotate(88) scale(5 16)"><rect fill="#090d19" fill-opacity="0.5019607843137255" x="-0.5" y="-0.5" width="1" height="1" /></g>
<g transform="translate(148 96) rotate(31) scale(3 18)"><rect fill="#000000" fill-opacity="0.5019607843137255" x="-0.5" y="-0.5" width="1" height="1" /></g>
<g transform="translate(33 73) rotate(391) scale(11 13)"><rect fill="#7e6449" fill-opacity="0.5019607843137255" x="-0.5" y="-0.5" width="1" height="1" /></g>
<g transform="translate(230 56) rotate(360) scale(48 17)"><rect fill="#ff9a4d" fill-opacity="0.5019607843137255" x="-0.5" y="-0.5" width="1" height="1" /></g>
<g transform="translate(181 67) rotate(525) scale(35 14)"><rect fill="#b66f58" fill-opacity="0.5019607843137255" x="-0.5" y="-0.5" width="1" height="1" /></g>
<g transform="translate(247 103) rotate(313) scale(75 2)"><rect fill="#7f4e28" fill-opacity="0.5019607843137255" x="-0.5" y="-0.5" width="1" height="1" /></g>
<g transform="translate(133 37) rotate(287) scale(12 5)"><rect fill="#5e1317" fill-opacity="0.5019607843137255" x="-0.5" y="-0.5" width="1" height="1" /></g>
<g transform="translate(85 107) rotate(152) scale(18 4)"><rect fill="#b48d6f" fill-opacity="0.5019607843137255" x="-0.5" y="-0.5" width="1" height="1" /></g>
<g transform="translate(49 79) rotate(267) scale(7 3)"><rect fill="#000000" fill-opacity="0.5019607843137255" x="-0.5" y="-0.5" width="1" height="1" /></g>
<g transform="translate(155 83) rotate(299) scale(9 1)"><rect fill="#000000" fill-opacity="0.5019607843137255" x="-0.5" y="-0.5" width="1" height="1" /></g>
<g transform="translate(105 116) rotate(165) scale(38 4)"><rect fill="#e98370" fill-opacity="0.5019607843137255" x="-0.5" y="-0.5" width="1" height="1" /></g>
<g transform="translate(125 20) rotate(123) scale(8 17)"><rect fill="#6a2e2d" fill-opacity="0.5019607843137255" x="-0.5" y="-0.5" width="1" height="1" /></g>
<g transform="translate(60 88) rotate(155) scale(9 12)"><rect fill="#c5c7c6" fill-opacity="0.5019607843137255" x="-0.5" y="-0.5" width="1" height="1" /></g>
<g transform="translate(149 55) rotate(127) scale(6 31)"><rect fill="#ffd739" fill-opacity="0.5019607843137255" x="-0.5" y="-0.5" width="1" height="1" /></g>
<g transform="translate(121 125) rotate(115) scale(21 11)"><rect fill="#602300" fill-opacity="0.5019607843137255" x="-0.5" y="-0.5" width="1" height="1" /></g>
<g transform="translate(228 96) rotate(222) scale(34 30)"><rect fill="#ff9f4a" fill-opacity="0.5019607843137255" x="-0.5" y="-0.5" width="1" height="1" /></g>
<g transform="translate(100 41) rotate(287) scale(2 10)"><rect fill="#000000" fill-opacity="0.5019607843137255" x="-0.5" y="-0.5" width="1" height="1" /></g>
<g transform="translate(67 120) rotate(157) scale(33 1)"><rect fill="#6e3a29" fill-opacity="0.5019607843137255" x="-0.5" y="-0.5" width="1" height="1" /></g>
<g transform="translate(86 96) rotate(64) scale(9 5)"><rect fill="#070000" fill-opacity="0.5019607843137255" x="-0.5" y="-0.5" width="1" height="1" /></g>
<g transform="translate(144 40) rotate(95) scale(8 9)"><rect fill="#751810" fill-opacity="0.5019607843137255" x="-0.5" y="-0.5" width="1" height="1" /></g>
<g transform="translate(69 142) rotate(246) scale(17 4)"><rect fill="#cbb6a9" fill-opacity="0.5019607843137255" x="-0.5" y="-0.5" width="1" height="1" /></g>
<g transform="translate(139 80) rotate(240) scale(5 17)"><rect fill="#c36f24" fill-opacity="0.5019607843137255" x="-0.5" y="-0.5" width="1" height="1" /></g>
<g transform="translate(110 95) rotate(50) scale(28 3)"><rect fill="#f2bc3f" fill-opacity="0.5019607843137255" x="-0.5" y="-0.5" width="1" height="1" /></g>
<g transform="translate(101 55) rotate(387) scale(7 8)"><rect fill="#b66326" fill-opacity="0.5019607843137255" x="-0.5" y="-0.5" width="1" height="1" /></g>
<g transform="translate(139 37) rotate(130) scale(13 1)"><rect fill="#ffcaaf" fill-opacity="0.5019607843137255" x="-0.5" y="-0.5" width="1" height="1" /></g>
<g transform="translate(66 84) rotate(43) scale(13 1)"><rect fill="#e7d5ca" fill-opacity="0.5019607843137255" x="-0.5" y="-0.5" width="1" height="1" /></g>
<g transform="translate(20 108) rotate(269) scale(6 40)"><rect fill="#9e6137" fill-opacity="0.5019607843137255" x="-0.5" y="-0.5" width="1" height="1" /></g>
<g transform="translate(190 110) rotate(70) scale(11 8)"><rect fill="#fddc45" fill-opacity="0.5019607843137255" x="-0.5" y="-0.5" width="1" height="1" /></g>
<g transform="translate(165 119) rotate(119) scale(1 48)"><rect fill="#b55032" fill-opacity="0.5019607843137255" x="-0.5" y="-0.5" width="1" height="1" /></g>
<g transform="translate(72 122) rotate(149) scale(28 1)"><rect fill="#cea488" fill-opacity="0.5019607843137255" x="-0.5" y="-0.5" width="1" height="1" /></g>
<g transform="translate(116 54) rotate(121) scale(3 1)"><rect fill="#320300" fill-opacity="0.5019607843137255" x="-0.5" y="-0.5" width="1" height="1" /></g>
<g transform="translate(111 74) rotate(318) scale(5 21)"><rect fill="#ad846c" fill-opacity="0.5019607843137255" x="-0.5" y="-0.5" width="1" height="1" /></g>
<g transform="translate(114 0) rotate(164) scale(64 21)"><rect fill="#937e83" fill-opacity="0.5019607843137255" x="-0.5" y="-0.5" width="1" height="1" /></g>
<g transform="translate(91 65) rotate(80) scale(37 2)"><rect fill="#b98a2f" fill-opacity="0.5019607843137255" x="-0.5" y="-0.5" width="1" height="1" /></g>
<g transform="translate(131 69) rotate(347) scale(1 22)"><rect fill="#eaae38" fill-opacity="0.5019607843137255" x="-0.5" y="-0.5" width="1" height="1" /></g>
<g transform="translate(98 136) rotate(160) scale(28 11)"><rect fill="#2f0000" fill-opacity="0.5019607843137255" x="-0.5" y="-0.5" width="1" height="1" /></g>
<g transform="translate(44 116) rotate(31) scale(14 1)"><rect fill="#fffd4f" fill-opacity="0.5019607843137255" x="-0.5" y="-0.5" width="1" height="1" /></g>
<g transform="translate(98 20) rotate(128) scale(8 4)"><rect fill="#4f0811" fill-opacity="0.5019607843137255" x="-0.5" y="-0.5" width="1" height="1" /></g>
<g transform="translate(112 117) rotate(120) scale(9 11)"><rect fill="#e57264" fill-opacity="0.5019607843137255" x="-0.5" y="-0.5" width="1" height="1" /></g>
<g transform="translate(56 24) rotate(188) scale(63 1)"><rect fill="#4e3329" fill-opacity="0.5019607843137255" x="-0.5" y="-0.5" width="1" height="1" /></g>
<g transform="translate(50 64) rotate(191) scale(31 4)"><rect fill="#ebbe8f" fill-opacity="0.5019607843137255" x="-0.5" y="-0.5" width="1" height="1" /></g>
<g transform="translate(11 95) rotate(328) scale(19 10)"><rect fill="#c89d62" fill-opacity="0.5019607843137255" x="-0.5" y="-0.5" width="1" height="1" /></g>
<g transform="translate(81 101) rotate(346) scale(19 4)"><rect fill="#160000" fill-opacity="0.5019607843137255" x="-0.5" y="-0.5" width="1" height="1" /></g>
<g transform="translate(206 0) rotate(90) scale(26 94)"><rect fill="#927782" fill-opacity="0.5019607843137255" x="-0.5" y="-0.5" width="1" height="1" /></g>
<g transform="translate(117 90) rotate(191) scale(12 8)"><rect fill="#000003" fill-opacity="0.5019607843137255" x="-0.5" y="-0.5" width="1" height="1" /></g>
<g transform="translate(148 90) rotate(58) scale(7 14)"><rect fill="#000000" fill-opacity="0.5019607843137255" x="-0.5" y="-0.5" width="1" height="1" /></g>
<g transform="translate(123 25) rotate(26) scale(1 11)"><rect fill="#f8cdad" fill-opacity="0.5019607843137255" x="-0.5" y="-0.5" width="1" height="1" /></g>
<g transform="translate(180 92) rotate(189) scale(28 17)"><rect fill="#f47f4d" fill-opacity="0.5019607843137255" x="-0.5" y="-0.5" width="1" height="1" /></g>
<g transform="translate(176 113) rotate(343) scale(11 16)"><rect fill="#c26249" fill-opacity="0.5019607843137255" x="-0.5" y="-0.5" width="1" height="1" /></g>
<g transform="translate(140 127) rotate(89) scale(4 27)"><rect fill="#450000" fill-opacity="0.5019607843137255" x="-0.5" y="-0.5" width="1" height="1" /></g>
<g transform="translate(130 135) rotate(78) scale(1 47)"><rect fill="#ae6b35" fill-opacity="0.5019607843137255" x="-0.5" y="-0.5" width="1" height="1" /></g>
<g transform="translate(68 123) rotate(293) scale(7 2)"><rect fill="#e8d4c8" fill-opacity="0.5019607843137255" x="-0.5" y="-0.5" width="1" height="1" /></g>
<g transform="translate(119 26) rotate(246) scale(5 1)"><rect fill="#500d08" fill-opacity="0.5019607843137255" x="-0.5" y="-0.5" width="1" height="1" /></g>
<g transform="translate(104 99) rotate(164) scale(7 44)"><rect fill="#c57f33" fill-opacity="0.5019607843137255" x="-0.5" y="-0.5" width="1" height="1" /></g>
<g transform="translate(141 59) rotate(198) scale(15 1)"><rect fill="#fffdf7" fill-opacity="0.5019607843137255" x="-0.5" y="-0.5" width="1" height="1" /></g>
<g transform="translate(97 44) rotate(2) scale(7 3)"><rect fill="#5d0600" fill-opacity="0.5019607843137255" x="-0.5" y="-0.5" width="1" height="1" /></g>
<g transform="translate(55 108) rotate(327) scale(21 8)"><rect fill="#9f6e58" fill-opacity="0.5019607843137255" x="-0.5" y="-0.5" width="1" height="1" /></g>
<g transform="translate(18 19) rotate(-16) scale(8 18)"><rect fill="#734e3d" fill-opacity="0.5019607843137255" x="-0.5" y="-0.5" width="1" height="1" /></g>
<g transform="translate(106 58) rotate(202) scale(4 21)"><rect fill="#ffdc47" fill-opacity="0.5019607843137255" x="-0.5" y="-0.5" width="1" height="1" /></g>
<g transform="translate(110 23) rotate(54) scale(13 1)"><rect fill="#6f3527" fill-opacity="0.5019607843137255" x="-0.5" y="-0.5" width="1" height="1" /></g>
<g transform="translate(125 44) rotate(268) scale(1 53)"><rect fill="#a86322" fill-opacity="0.5019607843137255" x="-0.5" y="-0.5" width="1" height="1" /></g>
<g transform="translate(171 38) rotate(96) scale(15 41)"><rect fill="#de9164" fill-opacity="0.5019607843137255" x="-0.5" y="-0.5" width="1" height="1" /></g>
<g transform="translate(64 141) rotate(75) scale(6 1)"><rect fill="#040000" fill-opacity="0.5019607843137255" x="-0.5" y="-0.5" width="1" height="1" /></g>
<g transform="translate(135 123) rotate(352) scale(11 1)"><rect fill="#f0c59a" fill-opacity="0.5019607843137255" x="-0.5" y="-0.5" width="1" height="1" /></g>
<g transform="translate(116 24) rotate(374) scale(1 6)"><rect fill="#fffedd" fill-opacity="0.5019607843137255" x="-0.5" y="-0.5" width="1" height="1" /></g>
<g transform="translate(2 83) rotate(201) scale(19 6)"><rect fill="#8f633d" fill-opacity="0.5019607843137255" x="-0.5" y="-0.5" width="1" height="1" /></g>
<g transform="translate(148 107) rotate(247) scale(6 32)"><rect fill="#c28625" fill-opacity="0.5019607843137255" x="-0.5" y="-0.5" width="1" height="1" /></g>
<g transform="translate(118 49) rotate(221) scale(7 11)"><rect fill="#ffdd49" fill-opacity="0.5019607843137255" x="-0.5" y="-0.5" width="1" height="1" /></g>
<g transform="translate(29 50) rotate(185) scale(57 6)"><rect fill="#a68065" fill-opacity="0.5019607843137255" x="-0.5" y="-0.5" width="1" height="1" /></g>
</g>
</svg>