<svg xmlns="http://www.w3.org/2000/svg" version="1.1" width="768" height="429">
<rect x="0" y="0" width="768" height="429" fill="#ae7854" />
<g transform="scale(3) translate(0.5 0.5)">
<g transform="translate(186.529146 132.636747) rotate(179.427963) scale(119.146126 17.888012)"><ellipse fill="#320000" fill-opacity="0.5019607843137255" cx="0" cy="0" rx="1" ry="1" /></g>
<g transform="translate(196.008669 80.735757) rotate(239.459113) scale(55.066275 51.514198)"><ellipse fill="#ffa64e" fill-opacity="0.5019607843137255" cx="0" cy="0" rx="1" ry="1" /></g>
<g transform="translate(128.754582 64.503251) rotate(183.791465) scale(39.033807 21.508758)"><ellipse fill="#fff478" fill-opacity="0.5019607843137255" cx="0" cy="0" rx="1" ry="1" /></g>
<g transform="translate(41.320574 38.616401) rotate(314.816127) scale(82.579895 32.769905)"><ellipse fill="#a4a1a7" fill-opacity="0.5019607843137255" cx="0" cy="0" rx="1" ry="1" /></g>
<g transform="translate(255.000000 116.446289) rotate(46.236356) scale(16.306664 63.161995)"><ellipse fill="#000000" fill-opacity="0.5019607843137255" cx="0" cy="0" rx="1" ry="1" /></g>
<g transform="translate(134.526331 92.994152) rotate(175.524628) scale(20.340554 9.536227)"><ellipse fill="#000000" fill-opacity="0.5019607843137255" cx="0" cy="0" rx="1" ry="1" /></g>
<g transform="translate(87.313254 104.834670) rotate(86.077436) scale(64.443566 11.847128)"><ellipse fill="#581705" fill-opacity="0.5019607843137255" cx="0" cy="0" rx="1" ry="1" /></g>
<g transform="translate(222.884272 77.378789) rotate(210.483052) scale(32.587936 57.164276)"><ellipse fill="#ff9048" fill-opacity="0.5019607843137255" cx="0" cy="0" rx="1" ry="1" /></g>
<g transform="translate(74.250715 5.173264) rotate(180.965308) scale(185.148171 22.887835)"><ellipse fill="#7a6986" fill-opacity="0.5019607843137255" cx="0" cy="0" rx="1" ry="1" /></g>
<g transform="translate(99.759229 31.550155) rotate(87.870685) scale(15.168363 8.450008)"><ellipse fill="#370000" fill-opacity="0.5019607843137255" cx="0" cy="0" rx="1" ry="1" /></g>
<g transform="translate(135.810058 74.756748) rotate(36.869064) scale(14.783458 20.790845)"><ellipse fill="#e7c7ae" fill-opacity="0.5019607843137255" cx="0" cy="0" rx="1" ry="1" /></g>
<g transform="translate(163.074371 142.000000) rotate(265.856124) scale(8.516474 39.142526)"><ellipse fill="#000000" fill-opacity="0.5019607843137255" cx="0" cy="0" rx="1" ry="1" /></g>
<g transform="translate(57.096616 49.297841) rotate(-28.865867) scale(23.919726 19.307891)"><ellipse fill="#eac7a6" fill-opacity="0.5019607843137255" cx="0" cy="0" rx="1" ry="1" /></g>
<g transform="translate(148.275231 90.916851) rotate(31.191307) scale(6.744195 12.572593)"><ellipse fill="#000000" fill-opacity="0.5019607843137255" cx="0" cy="0" rx="1" ry="1" /></g>
<g transform="translate(70.644841 80.378127) rotate(23.049755) scale(8.659354 4.374112)"><ellipse fill="#000000" fill-opacity="0.5019607843137255" cx="0" cy="0" rx="1" ry="1" /></g>
<g transform="translate(118.033954 93.064400) rotate(321.089080) scale(4.727209 12.290098)"><ellipse fill="#000000" fill-opacity="0.5019607843137255" cx="0" cy="0" rx="1" ry="1" /></g>
<g transform="translate(40.134001 23.469804) rotate(272.151345) scale(1.936097 49.924451)"><ellipse fill="#371400" fill-opacity="0.5019607843137255" cx="0" cy="0" rx="1" ry="1" /></g>
<g transform="translate(167.622130 26.637278) rotate(39.899480) scale(49.072377 21.537685)"><ellipse fill="#d4937f" fill-opacity="0.5019607843137255" cx="0" cy="0" rx="1" ry="1" /></g>
<g transform="translate(119.722598 68.747351) rotate(58.422284) scale(12.751085 10.249573)"><ellipse fill="#c6c0f0" fill-opacity="0.5019607843137255" cx="0" cy="0" rx="1" ry="1" /></g>
<g transform="translate(101.509847 81.548204) rotate(73.421155) scale(35.791709 7.509553)"><ellipse fill="#ebad1a" fill-opacity="0.5019607843137255" cx="0" cy="0" rx="1" ry="1" /></g>
<g transform="translate(38.916757 117.523212) rotate(56.493610) scale(54.296174 28.807430)"><ellipse fill="#cc8c53" fill-opacity="0.5019607843137255" cx="0" cy="0" rx="1" ry="1" /></g>
<g transform="translate(137.968683 81.553791) rotate(168.582115) scale(21.262829 6.571651)"><ellipse fill="#e49c10" fill-opacity="0.5019607843137255" cx="0" cy="0" rx="1" ry="1" /></g>
<g transform="translate(121.356096 65.895449) rotate(41.671989) scale(3.934557 2.783586)"><ellipse fill="#00000d" fill-opacity="0.5019607843137255" cx="0" cy="0" rx="1" ry="1" /></g>
<g transform="translate(82.454432 101.086596) rotate(346.745830) scale(13.283020 3.169757)"><ellipse fill="#000000" fill-opacity="0.5019607843137255" cx="0" cy="0" rx="1" ry="1" /></g>
<g transform="translate(115.833067 132.826827) rotate(165.708538) scale(47.321826 5.427826)"><ellipse fill="#3d0000" fill-opacity="0.5019607843137255" cx="0" cy="0" rx="1" ry="1" /></g>
<g transform="translate(193.862069 73.048024) rotate(-1.221796) scale(31.460032 10.485337)"><ellipse fill="#af5c46" fill-opacity="0.5019607843137255" cx="0" cy="0" rx="1" ry="1" /></g>
<g transform="translate(132.231378 49.291254) rotate(91.197679) scale(5.064748 41.255409)"><ellipse fill="#ffe337" fill-opacity="0.5019607843137255" cx="0" cy="0" rx="1" ry="1" /></g>
<g transform="translate(101.989321 40.692143) rotate(178.512848) scale(20.539252 5.151520)"><ellipse fill="#520e09" fill-opacity="0.5019607843137255" cx="0" cy="0" rx="1" ry="1" /></g>
<g transform="translate(78.392729 68.398045) rotate(73.949399) scale(20.987438 3.931865)"><ellipse fill="#dbb896" fill-opacity="0.5019607843137255" cx="0" cy="0" rx="1" ry="1" /></g>
<g transform="translate(46.868824 75.526007) rotate(28.729135) scale(9.859870 5.273816)"><ellipse fill="#321521" fill-opacity="0.5019607843137255" cx="0" cy="0" rx="1" ry="1" /></g>
<g transform="translate(255.000000 106.563794) rotate(34.916739) scale(7.890895 58.527102)"><ellipse fill="#070000" fill-opacity="0.5019607843137255" cx="0" cy="0" rx="1" ry="1" /></g>
<g transform="translate(52.525988 142.000000) rotate(5.703305) scale(3.376558 23.513677)"><ellipse fill="#4a0b00" fill-opacity="0.5019607843137255" cx="0" cy="0" rx="1" ry="1" /></g>
<g transform="translate(126.218870 20.840205) rotate(302.410690) scale(4.580263 14.592768)"><ellipse fill="#680e02" fill-opacity="0.5019607843137255" cx="0" cy="0" rx="1" ry="1" /></g>
<g transform="translate(142.034061 64.731982) rotate(130.473060) scale(3.884676 5.921970)"><ellipse fill="#174990" fill-opacity="0.5019607843137255" cx="0" cy="0" rx="1" ry="1" /></g>
<g transform="translate(61.379849 100.157426) rotate(-14.547510) scale(7.840442 26.135722)"><ellipse fill="#d59b94" fill-opacity="0.5019607843137255" cx="0" cy="0" rx="1" ry="1" /></g>
<g transform="translate(93.804811 111.304883) rotate(260.555726) scale(4.991903 10.032987)"><ellipse fill="#0e0000" fill-opacity="0.5019607843137255" cx="0" cy="0" rx="1" ry="1" /></g>
<g transform="translate(118.281580 32.407210) rotate(273.417140) scale(3.825596 10.067981)"><ellipse fill="#ffdbc5" fill-opacity="0.5019607843137255" cx="0" cy="0" rx="1" ry="1" /></g>
<g transform="translate(14.025530 0.000000) rotate(174.107473) scale(23.314007 13.278837)"><ellipse fill="#3e3f43" fill-opacity="0.5019607843137255" cx="0" cy="0" rx="1" ry="1" /></g>
<g transform="translate(110.082682 114.195273) rotate(68.601728) scale(7.220525 35.090444)"><ellipse fill="#e0583b" fill-opacity="0.5019607843137255" cx="0" cy="0" rx="1" ry="1" /></g>
<g transform="translate(36.579530 32.561750) rotate(361.942562) scale(55.133154 5.832203)"><ellipse fill="#d1bcb4" fill-opacity="0.5019607843137255" cx="0" cy="0" rx="1" ry="1" /></g>
<g transform="translate(178.038827 1.197367) rotate(99.389726) scale(26.304217 87.259463)"><ellipse fill="#a48182" fill-opacity="0.5019607843137255" cx="0" cy="0" rx="1" ry="1" /></g>
<g transform="translate(39.384127 54.254462) rotate(268.812384) scale(6.076917 16.337835)"><ellipse fill="#966b47" fill-opacity="0.5019607843137255" cx="0" cy="0" rx="1" ry="1" /></g>
<g transform="translate(129.057430 36.012010) rotate(39.566483) scale(5.171731 12.613973)"><ellipse fill="#69231f" fill-opacity="0.5019607843137255" cx="0" cy="0" rx="1" ry="1" /></g>
<g transform="translate(109.049525 16.046857) rotate(267.603907) scale(3.796450 9.676109)"><ellipse fill="#410001" fill-opacity="0.5019607843137255" cx="0" cy="0" rx="1" ry="1" /></g>
<g transform="translate(165.600157 142.000000) rotate(171.310840) scale(27.321800 8.017390)"><ellipse fill="#000000" fill-opacity="0.5019607843137255" cx="0" cy="0" rx="1" ry="1" /></g>
<g transform="translate(118.443456 90.653718) rotate(40.072191) scale(15.481337 3.615514)"><ellipse fill="#0c0000" fill-opacity="0.5019607843137255" cx="0" cy="0" rx="1" ry="1" /></g>
<g transform="translate(154.476127 119.034088) rotate(16.269812) scale(11.407599 6.099435)"><ellipse fill="#4a0000" fill-opacity="0.5019607843137255" cx="0" cy="0" rx="1" ry="1" /></g>
<g transform="translate(233.333456 86.861538) rotate(352.077852) scale(31.454723 10.867064)"><ellipse fill="#ffb948" fill-opacity="0.5019607843137255" cx="0" cy="0" rx="1" ry="1" /></g>
<g transform="translate(137.793491 114.576910) rotate(35.253143) scale(7.484318 13.054433)"><ellipse fill="#c77c2f" fill-opacity="0.5019607843137255" cx="0" cy="0" rx="1" ry="1" /></g>
<g transform="translate(132.385359 66.553752) rotate(314.939126) scale(15.268991 4.110505)"><ellipse fill="#fce9e8" fill-opacity="0.5019607843137255" cx="0" cy="0" rx="1" ry="1" /></g>
<g transform="translate(173.619588 125.774987) rotate(74.871318) scale(4.323826 55.535379)"><ellipse fill="#c25e30" fill-opacity="0.5019607843137255" cx="0" cy="0" rx="1" ry="1" /></g>
<g transform="translate(73.622267 110.027209) rotate(342.330360) scale(15.557310 2.904006)"><ellipse fill="#f1c7a1" fill-opacity="0.5019607843137255" cx="0" cy="0" rx="1" ry="1" /></g>
<g transform="translate(0.000000 92.227346) rotate(270.020444) scale(126.570972 1.000000)"><ellipse fill="#271f16" fill-opacity="0.5019607843137255" cx="0" cy="0" rx="1" ry="1" /></g>
<g transform="translate(81.985877 53.790775) rotate(161.284565) scale(3.580277 6.478117)"><ellipse fill="#000000" fill-opacity="0.5019607843137255" cx="0" cy="0" rx="1" ry="1" /></g>
<g transform="translate(149.614836 92.410452) rotate(28.377374) scale(3.183173 14.647913)"><ellipse fill="#000000" fill-opacity="0.5019607843137255" cx="0" cy="0" rx="1" ry="1" /></g>
<g transform="translate(40.515871 92.084334) rotate(274.242307) scale(8.519363 32.594437)"><ellipse fill="#caa486" fill-opacity="0.5019607843137255" cx="0" cy="0" rx="1" ry="1" /></g>
<g transform="translate(181.501001 104.312352) rotate(288.084234) scale(2.691011 19.216606)"><ellipse fill="#ffdc90" fill-opacity="0.5019607843137255" cx="0" cy="0" rx="1" ry="1" /></g>
<g transform="translate(132.643091 89.575051) rotate(275.765991) scale(3.434133 9.125681)"><ellipse fill="#e9ccb6" fill-opacity="0.5019607843137255" cx="0" cy="0" rx="1" ry="1" /></g>
<g transform="translate(133.164258 96.443354) rotate(179.615518) scale(10.145883 4.169277)"><ellipse fill="#0c0000" fill-opacity="0.5019607843137255" cx="0" cy="0" rx="1" ry="1" /></g>
<g transform="translate(215.736309 46.120629) rotate(178.292217) scale(58.358560 16.712626)"><ellipse fill="#eb9164" fill-opacity="0.5019607843137255" cx="0" cy="0" rx="1" ry="1" /></g>
<g transform="translate(17.290521 59.371247) rotate(104.863317) scale(3.929121 31.932656)"><ellipse fill="#e3bf94" fill-opacity="0.5019607843137255" cx="0" cy="0" rx="1" ry="1" /></g>
<g transform="translate(158.166269 65.080107) rotate(349.062238) scale(4.113660 39.568909)"><ellipse fill="#ffcf46" fill-opacity="0.5019607843137255" cx="0" cy="0" rx="1" ry="1" /></g>
<g transform="translate(70.331647 82.276099) rotate(302.927432) scale(8.412566 5.534073)"><ellipse fill="#121628" fill-opacity="0.5019607843137255" cx="0" cy="0" rx="1" ry="1" /></g>
<g transform="translate(75.233157 94.304678) rotate(229.233308) scale(4.175584 16.475976)"><ellipse fill="#d24f43" fill-opacity="0.5019607843137255" cx="0" cy="0" rx="1" ry="1" /></g>
<g transform="translate(208.848597 123.425354) rotate(136.125219) scale(15.050784 12.225062)"><ellipse fill="#e46c43" fill-opacity="0.5019607843137255" cx="0" cy="0" rx="1" ry="1" /></g>
<g transform="translate(31.985919 111.421867) rotate(50.064953) scale(12.709460 3.891634)"><ellipse fill="#874723" fill-opacity="0.5019607843137255" cx="0" cy="0" rx="1" ry="1" /></g>
<g transform="translate(94.748402 133.218423) rotate(82.004424) scale(7.995723 19.175927)"><ellipse fill="#420000" fill-opacity="0.5019607843137255" cx="0" cy="0" rx="1" ry="1" /></g>
<g transform="translate(156.278223 90.305506) rotate(112.334884) scale(26.788975 1.877369)"><ellipse fill="#ebb32f" fill-opacity="0.5019607843137255" cx="0" cy="0" rx="1" ry="1" /></g>
<g transform="translate(47.525425 121.723746) rotate(309.446384) scale(4.754110 6.793545)"><ellipse fill="#fdd633" fill-opacity="0.5019607843137255" cx="0" cy="0" rx="1" ry="1" /></g>
<g transform="translate(98.375471 55.301359) rotate(39.649325) scale(11.760604 10.297356)"><ellipse fill="#f2ba33" fill-opacity="0.5019607843137255" cx="0" cy="0" rx="1" ry="1" /></g>
<g transform="translate(119.552037 27.478353) rotate(48.219906) scale(9.877296 3.999158)"><ellipse fill="#f6bf99" fill-opacity="0.5019607843137255" cx="0" cy="0" rx="1" ry="1" /></g>
<g transform="translate(143.906127 40.324020) rotate(339.182838) scale(5.196784 3.517552)"><ellipse fill="#630000" fill-opacity="0.5019607843137255" cx="0" cy="0" rx="1" ry="1" /></g>
<g transform="translate(87.599318 96.071761) rotate(336.792241) scale(4.311307 6.227560)"><ellipse fill="#190000" fill-opacity="0.5019607843137255" cx="0" cy="0" rx="1" ry="1" /></g>
<g transform="translate(215.808298 27.233421) rotate(90.500343) scale(10.173490 79.897005)"><ellipse fill="#c38165" fill-opacity="0.5019607843137255" cx="0" cy="0" rx="1" ry="1" /></g>
<g transform="translate(0.000000 115.632496) rotate(63.852052) scale(4.932772 20.702180)"><ellipse fill="#7e3f1f" fill-opacity="0.5019607843137255" cx="0" cy="0" rx="1" ry="1" /></g>
<g transform="translate(76.134838 101.444775) rotate(89.620257) scale(3.148290 6.972520)"><ellipse fill="#1b0000" fill-opacity="0.5019607843137255" cx="0" cy="0" rx="1" ry="1" /></g>
<g transform="translate(142.817921 64.017714) rotate(-37.831456) scale(1.860017 3.677670)"><ellipse fill="#00000c" fill-opacity="0.5019607843137255" cx="0" cy="0" rx="1" ry="1" /></g>
<g transform="translate(72.035406 56.205050) rotate(223.121108) scale(8.538749 7.077266)"><ellipse fill="#edcfac" fill-opacity="0.5019607843137255" cx="0" cy="0" rx="1" ry="1" /></g>
<g transform="translate(68.104723 25.853112) rotate(183.240815) scale(41.057532 1.015311)"><ellipse fill="#4b2823" fill-opacity="0.5019607843137255" cx="0" cy="0" rx="1" ry="1" /></g>
<g transform="translate(90.263090 113.865942) rotate(181.230989) scale(9.573432 2.173485)"><ellipse fill="#080000" fill-opacity="0.5019607843137255" cx="0" cy="0" rx="1" ry="1" /></g>
<g transform="translate(30.571746 74.141699) rotate(311.699352) scale(8.739786 7.750028)"><ellipse fill="#7e634b" fill-opacity="0.5019607843137255" cx="0" cy="0" rx="1" ry="1" /></g>
<g transform="translate(60.363596 83.651306) rotate(189.048932) scale(6.290825 3.261596)"><ellipse fill="#d4c8c8" fill-opacity="0.5019607843137255" cx="0" cy="0" rx="1" ry="1" /></g>
<g transform="translate(25.328301 127.726296) rotate(224.682229) scale(19.403652 13.056261)"><ellipse fill="#e78b4d" fill-opacity="0.5019607843137255" cx="0" cy="0" rx="1" ry="1" /></g>
<g transform="translate(121.569072 64.717470) rotate(241.742314) scale(3.532436 2.905553)"><ellipse fill="#000326" fill-opacity="0.5019607843137255" cx="0" cy="0" rx="1" ry="1" /></g>
<g transform="translate(100.691527 117.348456) rotate(165.825048) scale(17.937140 2.836970)"><ellipse fill="#ec826e" fill-opacity="0.5019607843137255" cx="0" cy="0" rx="1" ry="1" /></g>
<g transform="translate(57.902946 14.066361) rotate(94.414551) scale(7.968361 30.865116)"><ellipse fill="#9793a3" fill-opacity="0.5019607843137255" cx="0" cy="0" rx="1" ry="1" /></g>
<g transform="translate(122.671152 123.131597) rotate(106.984798) scale(8.748330 6.010770)"><ellipse fill="#631a00" fill-opacity="0.5019607843137255" cx="0" cy="0" rx="1" ry="1" /></g>
<g transform="translate(54.556001 125.916541) rotate(305.346937) scale(11.917743 2.750923)"><ellipse fill="#66371a" fill-opacity="0.5019607843137255" cx="0" cy="0" rx="1" ry="1" /></g>
<g transform="translate(212.694684 102.202686) rotate(91.067812) scale(13.571570 26.890204)"><ellipse fill="#ff8a3a" fill-opacity="0.5019607843137255" cx="0" cy="0" rx="1" ry="1" /></g>
<g transform="translate(135.435917 121.720677) rotate(275.686636) scale(2.860662 6.126641)"><ellipse fill="#c7a491" fill-opacity="0.5019607843137255" cx="0" cy="0" rx="1" ry="1" /></g>
<g transform="translate(149.095370 66.754096) rotate(79.848126) scale(7.154386 1.810147)"><ellipse fill="#ffffff" fill-opacity="0.5019607843137255" cx="0" cy="0" rx="1" ry="1" /></g>
<g transform="translate(85.122275 46.243141) rotate(6.006465) scale(3.495917 10.311605)"><ellipse fill="#420103" fill-opacity="0.5019607843137255" cx="0" cy="0" rx="1" ry="1" /></g>
<g transform="translate(113.081495 99.777969) rotate(329.461204) scale(3.204021 16.252240)"><ellipse fill="#ecb636" fill-opacity="0.5019607843137255" cx="0" cy="0" rx="1" ry="1" /></g>
<g transform="translate(93.509971 90.316714) rotate(68.894078) scale(19.499828 4.261286)"><ellipse fill="#715305" fill-opacity="0.5019607843137255" cx="0" cy="0" rx="1" ry="1" /></g>
<g transform="translate(88.852047 35.789440) rotate(222.421752) scale(6.926866 2.143250)"><ellipse fill="#e5b297" fill-opacity="0.5019607843137255" cx="0" cy="0" rx="1" ry="1" /></g>
<g transform="translate(146.061249 81.216667) rotate(71.702079) scale(3.759852 8.279620)"><ellipse fill="#ffcb3f" fill-opacity="0.5019607843137255" cx="0" cy="0" rx="1" ry="1" /></g>
<g transform="translate(123.899106 50.562055) rotate(95.975949) scale(4.609459 34.022515)"><ellipse fill="#ffd042" fill-opacity="0.5019607843137255" cx="0" cy="0" rx="1" ry="1" /></g>
<g transform="translate(157.755790 98.166380) rotate(100.650385) scale(6.512661 3.016643)"><ellipse fill="#996103" fill-opacity="0.5019607843137255" cx="0" cy="0" rx="1" ry="1" /></g>
<g transform="translate(133.354024 92.031568) rotate(263.053504) scale(4.398758 1.258853)"><ellipse fill="#1f0000" fill-opacity="0.5019607843137255" cx="0" cy="0" rx="1" ry="1" /></g>
<g transform="translate(74.422756 82.313386) rotate(339.381044) scale(5.169826 4.727087)"><ellipse fill="#110000" fill-opacity="0.5019607843137255" cx="0" cy="0" rx="1" ry="1" /></g>
<g transform="translate(65.910562 137.171053) rotate(301.389803) scale(3.233106 12.099825)"><ellipse fill="#dcaa85" fill-opacity="0.5019607843137255" cx="0" cy="0" rx="1" ry="1" /></g>
<g transform="translate(247.290686 69.975860) rotate(177.209404) scale(7.406313 27.858527)"><ellipse fill="#ffa44b" fill-opacity="0.5019607843137255" cx="0" cy="0" rx="1" ry="1" /></g>
<g transform="translate(49.112002 78.752198) rotate(291.627949) scale(6.766247 1.852604)"><ellipse fill="#230004" fill-opacity="0.5019607843137255" cx="0" cy="0" rx="1" ry="1" /></g>
<g transform="translate(119.683551 137.058160) rotate(164.180020) scale(18.562242 1.000000)"><ellipse fill="#b97133" fill-opacity="0.5019607843137255" cx="0" cy="0" rx="1" ry="1" /></g>
<g transform="translate(225.377563 70.382257) rotate(91.384392) scale(6.404409 22.075858)"><ellipse fill="#d56833" fill-opacity="0.5019607843137255" cx="0" cy="0" rx="1" ry="1" /></g>
<g transform="translate(147.985813 142.000000) rotate(261.686760) scale(3.986395 37.771340)"><ellipse fill="#000000" fill-opacity="0.5019607843137255" cx="0" cy="0" rx="1" ry="1" /></g>
<g transform="translate(116.505707 82.489365) rotate(195.352757) scale(6.817620 3.229231)"><ellipse fill="#d68d23" fill-opacity="0.5019607843137255" cx="0" cy="0" rx="1" ry="1" /></g>
<g transform="translate(159.889803 3.735013) rotate(268.754949) scale(9.636157 98.583654)"><ellipse fill="#917b86" fill-opacity="0.5019607843137255" cx="0" cy="0" rx="1" ry="1" /></g>
<g transform="translate(115.246244 91.870231) rotate(56.777474) scale(11.655259 3.142235)"><ellipse fill="#050001" fill-opacity="0.5019607843137255" cx="0" cy="0" rx="1" ry="1" /></g>
<g transform="translate(18.638744 20.469798) rotate(60.106836) scale(9.406698 4.842288)"><ellipse fill="#714b38" fill-opacity="0.5019607843137255" cx="0" cy="0" rx="1" ry="1" /></g>
<g transform="translate(57.064467 70.320348) rotate(72.516238) scale(1.000000 4.978131)"><ellipse fill="#06000e" fill-opacity="0.5019607843137255" cx="0" cy="0" rx="1" ry="1" /></g>
<g transform="translate(150.707470 120.093269) rotate(378.871266) scale(9.800201 9.502682)"><ellipse fill="#581302" fill-opacity="0.5019607843137255" cx="0" cy="0" rx="1" ry="1" /></g>
<g transform="translate(113.863630 22.879490) rotate(360.803152) scale(13.821483 1.000000)"><ellipse fill="#e0b193" fill-opacity="0.5019607843137255" cx="0" cy="0" rx="1" ry="1" /></g>
<g transform="translate(178.507056 69.550077) rotate(272.483548) scale(11.617797 15.313739)"><ellipse fill="#ba6f58" fill-opacity="0.5019607843137255" cx="0" cy="0" rx="1" ry="1" /></g>
<g transform="translate(3.433563 15.235515) rotate(278.506779) scale(2.529619 10.270649)"><ellipse fill="#a0aabd" fill-opacity="0.5019607843137255" cx="0" cy="0" rx="1" ry="1" /></g>
<g transform="translate(134.719748 71.442549) rotate(177.096530) scale(21.377540 2.770074)"><ellipse fill="#f2dbd2" fill-opacity="0.5019607843137255" cx="0" cy="0" rx="1" ry="1" /></g>
<g transform="translate(99.240213 39.004007) rotate(300.553232) scale(2.913288 6.277562)"><ellipse fill="#0f0000" fill-opacity="0.5019607843137255" cx="0" cy="0" rx="1" ry="1" /></g>
<g transform="translate(165.289803 112.328207) rotate(208.691463) scale(7.579352 4.625571)"><ellipse fill="#ff9f87" fill-opacity="0.5019607843137255" cx="0" cy="0" rx="1" ry="1" /></g>
<g transform="translate(68.250859 119.028566) rotate(172.519580) scale(16.517280 2.743869)"><ellipse fill="#9f7151" fill-opacity="0.5019607843137255" cx="0" cy="0" rx="1" ry="1" /></g>
<g transform="translate(197.414589 142.000000) rotate(84.855402) scale(1.729494 12.492827)"><ellipse fill="#c8843d" fill-opacity="0.5019607843137255" cx="0" cy="0" rx="1" ry="1" /></g>
<g transform="translate(118.612416 90.135534) rotate(69.342520) scale(1.972436 6.112888)"><ellipse fill="#000000" fill-opacity="0.5019607843137255" cx="0" cy="0" rx="1" ry="1" /></g>
<g transform="translate(72.014910 134.737586) rotate(142.207793) scale(2.208847 9.137802)"><ellipse fill="#7b241e" fill-opacity="0.5019607843137255" cx="0" cy="0" rx="1" ry="1" /></g>
<g transform="translate(54.788947 106.809771) rotate(15.700003) scale(5.744023 13.570959)"><ellipse fill="#a17253" fill-opacity="0.5019607843137255" cx="0" cy="0" rx="1" ry="1" /></g>
<g transform="translate(62.071890 128.442516) rotate(133.119429) scale(9.090041 3.390970)"><ellipse fill="#ffb370" fill-opacity="0.5019607843137255" cx="0" cy="0" rx="1" ry="1" /></g>
<g transform="translate(16.099530 42.588580) rotate(202.184470) scale(6.010242 2.452843)"><ellipse fill="#f5d4ad" fill-opacity="0.5019607843137255" cx="0" cy="0" rx="1" ry="1" /></g>
<g transform="translate(52.530470 137.953261) rotate(157.990661) scale(3.172778 11.122813)"><ellipse fill="#5a1e01" fill-opacity="0.5019607843137255" cx="0" cy="0" rx="1" ry="1" /></g>
<g transform="translate(0.987461 116.830263) rotate(224.510498) scale(9.579999 2.284258)"><ellipse fill="#58240a" fill-opacity="0.5019607843137255" cx="0" cy="0" rx="1" ry="1" /></g>
<g transform="translate(147.789906 89.973010) rotate(164.541572) scale(6.921216 4.806771)"><ellipse fill="#000000" fill-opacity="0.5019607843137255" cx="0" cy="0" rx="1" ry="1" /></g>
<g transform="translate(139.858188 33.030850) rotate(109.042336) scale(10.349336 2.019119)"><ellipse fill="#ffaa84" fill-opacity="0.5019607843137255" cx="0" cy="0" rx="1" ry="1" /></g>
<g transform="translate(84.078653 82.633929) rotate(226.498050) scale(5.526584 1.155865)"><ellipse fill="#ffdfb0" fill-opacity="0.5019607843137255" cx="0" cy="0" rx="1" ry="1" /></g>
<g transform="translate(137.066482 104.211586) rotate(88.805393) scale(4.314829 6.483213)"><ellipse fill="#f55268" fill-opacity="0.5019607843137255" cx="0" cy="0" rx="1" ry="1" /></g>
<g transform="translate(61.902423 73.325471) rotate(94.293374) scale(1.209424 6.632259)"><ellipse fill="#ffc8c2" fill-opacity="0.5019607843137255" cx="0" cy="0" rx="1" ry="1" /></g>
<g transform="translate(139.257310 90.661929) rotate(-25.783895) scale(1.856008 2.395172)"><ellipse fill="#ffffff" fill-opacity="0.5019607843137255" cx="0" cy="0" rx="1" ry="1" /></g>
<g transform="translate(255.000000 113.886444) rotate(45.425763) scale(8.933280 41.841776)"><ellipse fill="#1b0100" fill-opacity="0.5019607843137255" cx="0" cy="0" rx="1" ry="1" /></g>
<g transform="translate(132.895906 32.659793) rotate(185.097331) scale(5.158936 10.425989)"><ellipse fill="#7e2a20" fill-opacity="0.5019607843137255" cx="0" cy="0" rx="1" ry="1" /></g>
<g transform="translate(134.381535 77.188494) rotate(66.009276) scale(7.691986 3.224103)"><ellipse fill="#c98738" fill-opacity="0.5019607843137255" cx="0" cy="0" rx="1" ry="1" /></g>
<g transform="translate(255.000000 141.108631) rotate(137.078662) scale(15.645832 2.120921)"><ellipse fill="#ff9447" fill-opacity="0.5019607843137255" cx="0" cy="0" rx="1" ry="1" /></g>
<g transform="translate(114.042188 116.776037) rotate(29.785657) scale(4.988820 7.871673)"><ellipse fill="#f07d64" fill-opacity="0.5019607843137255" cx="0" cy="0" rx="1" ry="1" /></g>
<g transform="translate(147.048767 40.549278) rotate(244.754196) scale(4.639471 2.948589)"><ellipse fill="#641a07" fill-opacity="0.5019607843137255" cx="0" cy="0" rx="1" ry="1" /></g>
<g transform="translate(3.483114 65.836432) rotate(105.532158) scale(5.649352 28.148988)"><ellipse fill="#9e7450" fill-opacity="0.5019607843137255" cx="0" cy="0" rx="1" ry="1" /></g>
<g transform="translate(118.777925 63.930886) rotate(118.557798) scale(3.835120 2.177489)"><ellipse fill="#1b4060" fill-opacity="0.5019607843137255" cx="0" cy="0" rx="1" ry="1" /></g>
<g transform="translate(70.787429 49.250783) rotate(119.007278) scale(18.892591 5.597588)"><ellipse fill="#eac9a4" fill-opacity="0.5019607843137255" cx="0" cy="0" rx="1" ry="1" /></g>
<g transform="translate(178.687567 121.179153) rotate(94.540550) scale(12.542602 9.189371)"><ellipse fill="#bc653f" fill-opacity="0.5019607843137255" cx="0" cy="0" rx="1" ry="1" /></g>
<g transform="translate(255.000000 6.206953) rotate(88.767999) scale(255.000000 1.000000)"><ellipse fill="#6a493c" fill-opacity="0.5019607843137255" cx="0" cy="0" rx="1" ry="1" /></g>
<g transform="translate(176.693833 101.533520) rotate(190.424629) scale(10.079597 1.000000)"><ellipse fill="#fff0df" fill-opacity="0.5019607843137255" cx="0" cy="0" rx="1" ry="1" /></g>
<g transform="translate(115.097782 59.673668) rotate(333.385565) scale(4.744426 3.092896)"><ellipse fill="#ffeceb" fill-opacity="0.5019607843137255" cx="0" cy="0" rx="1" ry="1" /></g>
<g transform="translate(100.351949 55.485646) rotate(359.819648) scale(3.313085 5.998832)"><ellipse fill="#bd7224" fill-opacity="0.5019607843137255" cx="0" cy="0" rx="1" ry="1" /></g>
<g transform="translate(125.083893 21.605816) rotate(204.645868) scale(2.897110 1.000000)"><ellipse fill="#f1c6a5" fill-opacity="0.5019607843137255" cx="0" cy="0" rx="1" ry="1" /></g>
<g transform="translate(126.999374 91.291850) rotate(175.075911) scale(2.965380 2.350935)"><ellipse fill="#ebdcde" fill-opacity="0.5019607843137255" cx="0" cy="0" rx="1" ry="1" /></g>
<g transform="translate(139.211934 109.621657) rotate(166.180360) scale(22.671015 3.964529)"><ellipse fill="#c68020" fill-opacity="0.5019607843137255" cx="0" cy="0" rx="1" ry="1" /></g>
<g transform="translate(97.282321 127.220474) rotate(262.807102) scale(3.488989 21.752914)"><ellipse fill="#820810" fill-opacity="0.5019607843137255" cx="0" cy="0" rx="1" ry="1" /></g>
<g transform="translate(162.468365 47.771757) rotate(139.097747) scale(5.808487 19.406744)"><ellipse fill="#f2a477" fill-opacity="0.5019607843137255" cx="0" cy="0" rx="1" ry="1" /></g>
<g transform="translate(112.568497 33.384366) rotate(103.816371) scale(6.246586 1.969550)"><ellipse fill="#f4c6a8" fill-opacity="0.5019607843137255" cx="0" cy="0" rx="1" ry="1" /></g>
<g transform="translate(183.340429 124.649635) rotate(293.195560) scale(3.737100 31.994271)"><ellipse fill="#c67149" fill-opacity="0.5019607843137255" cx="0" cy="0" rx="1" ry="1" /></g>
<g transform="translate(88.447013 105.099877) rotate(156.295083) scale(5.499046 2.291657)"><ellipse fill="#b19176" fill-opacity="0.5019607843137255" cx="0" cy="0" rx="1" ry="1" /></g>
<g transform="translate(62.872000 91.823580) rotate(389.431417) scale(10.739745 4.351877)"><ellipse fill="#b2a3a8" fill-opacity="0.5019607843137255" cx="0" cy="0" rx="1" ry="1" /></g>
<g transform="translate(76.854905 67.554007) rotate(50.100340) scale(6.274647 9.699656)"><ellipse fill="#957960" fill-opacity="0.5019607843137255" cx="0" cy="0" rx="1" ry="1" /></g>
<g transform="translate(14.650371 78.913466) rotate(296.714507) scale(4.471959 19.108765)"><ellipse fill="#d0a97d" fill-opacity="0.5019607843137255" cx="0" cy="0" rx="1" ry="1" /></g>
<g transform="translate(0.000000 90.962857) rotate(234.289198) scale(3.269630 19.901822)"><ellipse fill="#8f6943" fill-opacity="0.5019607843137255" cx="0" cy="0" rx="1" ry="1" /></g>
<g transform="translate(127.091615 37.486974) rotate(53.411132) scale(2.919884 2.126201)"><ellipse fill="#d2aa90" fill-opacity="0.5019607843137255" cx="0" cy="0" rx="1" ry="1" /></g>
<g transform="translate(42.667976 116.123244) rotate(320.049816) scale(1.743652 7.266359)"><ellipse fill="#fce04a" fill-opacity="0.5019607843137255" cx="0" cy="0" rx="1" ry="1" /></g>
<g transform="translate(73.643648 142.000000) rotate(9.641362) scale(7.121128 3.242306)"><ellipse fill="#a39783" fill-opacity="0.5019607843137255" cx="0" cy="0" rx="1" ry="1" /></g>
<g transform="translate(161.119388 142.000000) rotate(352.693851) scale(41.218783 4.893743)"><ellipse fill="#000003" fill-opacity="0.5019607843137255" cx="0" cy="0" rx="1" ry="1" /></g>
<g transform="translate(149.974955 65.372877) rotate(249.221957) scale(9.198329 2.570161)"><ellipse fill="#fff1da" fill-opacity="0.5019607843137255" cx="0" cy="0" rx="1" ry="1" /></g>
<g transform="translate(89.969271 112.589889) rotate(269.462524) scale(3.591372 9.049739)"><ellipse fill="#250000" fill-opacity="0.5019607843137255" cx="0" cy="0" rx="1" ry="1" /></g>
<g transform="translate(58.536467 112.960729) rotate(50.150055) scale(30.197922 1.729892)"><ellipse fill="#c49979" fill-opacity="0.5019607843137255" cx="0" cy="0" rx="1" ry="1" /></g>
<g transform="translate(11.371648 54.164047) rotate(270.671685) scale(3.207097 9.470934)"><ellipse fill="#e4be9b" fill-opacity="0.5019607843137255" cx="0" cy="0" rx="1" ry="1" /></g>
<g transform="translate(5.831585 31.672227) rotate(362.044417) scale(75.884704 2.927060)"><ellipse fill="#d3bcaf" fill-opacity="0.5019607843137255" cx="0" cy="0" rx="1" ry="1" /></g>
<g transform="translate(28.072570 141.307732) rotate(197.468979) scale(26.826343 11.372240)"><ellipse fill="#c77442" fill-opacity="0.5019607843137255" cx="0" cy="0" rx="1" ry="1" /></g>
<g transform="translate(123.717870 60.650461) rotate(126.874117) scale(1.949059 6.709524)"><ellipse fill="#fff2de" fill-opacity="0.5019607843137255" cx="0" cy="0" rx="1" ry="1" /></g>
<g transform="translate(118.922141 26.184052) rotate(27.304744) scale(2.588766 2.336404)"><ellipse fill="#935844" fill-opacity="0.5019607843137255" cx="0" cy="0" rx="1" ry="1" /></g>
<g transform="translate(180.851948 93.358751) rotate(173.559983) scale(15.980591 6.360604)"><ellipse fill="#ff854b" fill-opacity="0.5019607843137255" cx="0" cy="0" rx="1" ry="1" /></g>
<g transform="translate(86.560653 40.875385) rotate(203.190188) scale(5.799623 4.140986)"><ellipse fill="#661b18" fill-opacity="0.5019607843137255" cx="0" cy="0" rx="1" ry="1" /></g>
<g transform="translate(94.889281 43.905408) rotate(203.633249) scale(4.758374 1.190095)"><ellipse fill="#390000" fill-opacity="0.5019607843137255" cx="0" cy="0" rx="1" ry="1" /></g>
<g transform="translate(51.779550 84.718216) rotate(210.753546) scale(2.934856 5.476065)"><ellipse fill="#d35043" fill-opacity="0.5019607843137255" cx="0" cy="0" rx="1" ry="1" /></g>
<g transform="translate(27.034989 52.773157) rotate(287.799398) scale(3.354853 28.696229)"><ellipse fill="#a57c5b" fill-opacity="0.5019607843137255" cx="0" cy="0" rx="1" ry="1" /></g>
<g transform="translate(97.101471 135.846854) rotate(266.996153) scale(4.888985 14.420762)"><ellipse fill="#250004" fill-opacity="0.5019607843137255" cx="0" cy="0" rx="1" ry="1" /></g>
<g transform="translate(190.255138 110.800764) rotate(56.570750) scale(7.694495 4.544487)"><ellipse fill="#f4c036" fill-opacity="0.5019607843137255" cx="0" cy="0" rx="1" ry="1" /></g>
<g transform="translate(165.356780 130.599850) rotate(349.937997) scale(13.495629 3.753221)"><ellipse fill="#a2602a" fill-opacity="0.5019607843137255" cx="0" cy="0" rx="1" ry="1" /></g>
<g transform="translate(240.024418 85.359615) rotate(269.282632) scale(5.796369 14.687406)"><ellipse fill="#ffc658" fill-opacity="0.5019607843137255" cx="0" cy="0" rx="1" ry="1" /></g>
<g transform="translate(128.258232 55.319141) rotate(70.718062) scale(7.733437 4.254098)"><ellipse fill="#ffd743" fill-opacity="0.5019607843137255" cx="0" cy="0" rx="1" ry="1" /></g>
<g transform="translate(39.771186 125.766350) rotate(0.468572) scale(13.191491 3.573559)"><ellipse fill="#e3a942" fill-opacity="0.5019607843137255" cx="0" cy="0" rx="1" ry="1" /></g>
<g transform="translate(63.736802 142.000000) rotate(254.068224) scale(2.566837 2.391172)"><ellipse fill="#602d22" fill-opacity="0.5019607843137255" cx="0" cy="0" rx="1" ry="1" /></g>
<g transform="translate(152.546487 86.639125) rotate(214.130697) scale(2.594437 8.452061)"><ellipse fill="#030005" fill-opacity="0.5019607843137255" cx="0" cy="0" rx="1" ry="1" /></g>
<g transform="translate(160.655878 68.970984) rotate(264.442245) scale(24.781536 2.721558)"><ellipse fill="#fed644" fill-opacity="0.5019607843137255" cx="0" cy="0" rx="1" ry="1" /></g>
<g transform="translate(41.854368 82.536206) rotate(231.660506) scale(6.210974 2.511093)"><ellipse fill="#9e99ab" fill-opacity="0.5019607843137255" cx="0" cy="0" rx="1" ry="1" /></g>
<g transform="translate(66.383649 87.117550) rotate(294.494479) scale(1.000000 2.934200)"><ellipse fill="#000205" fill-opacity="0.5019607843137255" cx="0" cy="0" rx="1" ry="1" /></g>
<g transform="translate(120.545252 39.979022) rotate(40.503072) scale(7.364527 2.173881)"><ellipse fill="#602920" fill-opacity="0.5019607843137255" cx="0" cy="0" rx="1" ry="1" /></g>
<g transform="translate(78.339724 119.334071) rotate(232.796319) scale(1.000000 6.566599)"><ellipse fill="#d1af98" fill-opacity="0.5019607843137255" cx="0" cy="0" rx="1" ry="1" /></g>
<g transform="translate(136.853375 96.896304) rotate(283.281260) scale(2.588842 12.370262)"><ellipse fill="#050000" fill-opacity="0.5019607843137255" cx="0" cy="0" rx="1" ry="1" /></g>
<g transform="translate(137.885505 81.118150) rotate(350.669210) scale(17.048311 6.241423)"><ellipse fill="#e9ad3a" fill-opacity="0.5019607843137255" cx="0" cy="0" rx="1" ry="1" /></g>
<g transform="translate(68.425675 109.911958) rotate(166.243627) scale(8.964820 1.628857)"><ellipse fill="#ffd3a9" fill-opacity="0.5019607843137255" cx="0" cy="0" rx="1" ry="1" /></g>
<g transform="translate(80.086474 125.607474) rotate(-25.213314) scale(3.952619 4.141748)"><ellipse fill="#67151a" fill-opacity="0.5019607843137255" cx="0" cy="0" rx="1" ry="1" /></g>
<g transform="translate(132.073958 104.299957) rotate(109.195845) scale(2.387730 9.225567)"><ellipse fill="#e94361" fill-opacity="0.5019607843137255" cx="0" cy="0" rx="1" ry="1" /></g>
<g transform="translate(112.990507 17.567239) rotate(268.387555) scale(2.596676 18.002300)"><ellipse fill="#582527" fill-opacity="0.5019607843137255" cx="0" cy="0" rx="1" ry="1" /></g>
<g transform="translate(201.583333 52.746276) rotate(-2.143819) scale(47.655457 2.522661)"><ellipse fill="#ffa458" fill-opacity="0.5019607843137255" cx="0" cy="0" rx="1" ry="1" /></g>
<g transform="translate(72.365684 120.957558) rotate(104.468797) scale(13.272899 1.000000)"><ellipse fill="#854030" fill-opacity="0.5019607843137255" cx="0" cy="0" rx="1" ry="1" /></g>
<g transform="translate(136.392389 43.275358) rotate(285.446883) scale(1.342708 3.867289)"><ellipse fill="#973512" fill-opacity="0.5019607843137255" cx="0" cy="0" rx="1" ry="1" /></g>
<g transform="translate(137.905494 69.788808) rotate(254.040109) scale(7.538435 2.911408)"><ellipse fill="#e4d3db" fill-opacity="0.5019607843137255" cx="0" cy="0" rx="1" ry="1" /></g>
<g transform="translate(104.472471 47.751956) rotate(155.008780) scale(3.028960 4.629055)"><ellipse fill="#ffd44a" fill-opacity="0.5019607843137255" cx="0" cy="0" rx="1" ry="1" /></g>
</g>
</svg>