<svg xmlns="http://www.w3.org/2000/svg" version="1.1" width="768" height="429">
<rect x="0" y="0" width="768" height="429" fill="#ae7854" />
<g transform="scale(3) translate(0.5 0.5)">
<polygon fill="#300000" fill-opacity="0.5019607843137255" points="50,134 241,158 271,103" />
<polygon fill="#ffb457" fill-opacity="0.5019607843137255" points="271,28 213,147 82,48" />
<polygon fill="#5e1b05" fill-opacity="0.5019607843137255" points="158,87 65,77 87,158" />
<polygon fill="#a6a1a7" fill-opacity="0.5019607843137255" points="111,-16 42,116 -16,20" />
<polygon fill="#000000" fill-opacity="0.5019607843137255" points="271,78 196,153 245,158" />
<polygon fill="#efdb96" fill-opacity="0.5019607843137255" points="190,27 133,94 92,65" />
<polygon fill="#ffc43b" fill-opacity="0.5019607843137255" points="122,117 101,119 93,43" />
<polygon fill="#000000" fill-opacity="0.5019607843137255" points="160,79 116,99 146,101" />
<polygon fill="#32000a" fill-opacity="0.5019607843137255" points="109,38 76,55 106,4" />
<polygon fill="#706a88" fill-opacity="0.5019607843137255" points="8,-16 -16,37 194,3" />
<polygon fill="#ff9041" fill-opacity="0.5019607843137255" points="271,70 215,134 124,104" />
<polygon fill="#401002" fill-opacity="0.5019607843137255" points="41,154 147,110 208,139" />
<polygon fill="#e9caae" fill-opacity="0.5019607843137255" points="76,64 79,31 -11,24" />
<polygon fill="#e97d43" fill-opacity="0.5019607843137255" points="257,89 215,133 140,132" />
<polygon fill="#a68492" fill-opacity="0.5019607843137255" points="201,39 271,-3 92,2" />
<polygon fill="#4c2606" fill-opacity="0.5019607843137255" points="82,113 104,116 83,36" />
<polygon fill="#d69e6b" fill-opacity="0.5019607843137255" points="66,143 -4,70 74,90" />
<polygon fill="#3b1011" fill-opacity="0.5019607843137255" points="78,78 31,67 46,81" />
<polygon fill="#000000" fill-opacity="0.5019607843137255" points="119,143 214,158 178,131" />
<polygon fill="#bcc3ea" fill-opacity="0.5019607843137255" points="113,78 111,55 158,68" />
<polygon fill="#000000" fill-opacity="0.5019607843137255" points="120,101 131,95 103,77" />
<polygon fill="#ffec38" fill-opacity="0.5019607843137255" points="128,60 84,46 165,43" />
<polygon fill="#f68b59" fill-opacity="0.5019607843137255" points="255,92 253,25 136,29" />
<polygon fill="#721c1d" fill-opacity="0.5019607843137255" points="151,43 128,43 124,10" />
<polygon fill="#5a3523" fill-opacity="0.5019607843137255" points="16,15 -16,27 55,24" />
<polygon fill="#bd573e" fill-opacity="0.5019607843137255" points="256,69 166,59 170,86" />
<polygon fill="#000000" fill-opacity="0.5019607843137255" points="123,60 118,64 123,69" />
<polygon fill="#000000" fill-opacity="0.5019607843137255" points="133,97 149,103 156,80" />
<polygon fill="#e87c4c" fill-opacity="0.5019607843137255" points="118,101 81,124 175,107" />
<polygon fill="#4a0b00" fill-opacity="0.5019607843137255" points="56,119 55,152 47,128" />
<polygon fill="#e9ad3a" fill-opacity="0.5019607843137255" points="155,73 138,92 102,78" />
<polygon fill="#5c2d31" fill-opacity="0.5019607843137255" points="54,25 127,11 101,29" />
<polygon fill="#db9350" fill-opacity="0.5019607843137255" points="93,103 6,114 19,146" />
<polygon fill="#00002f" fill-opacity="0.5019607843137255" points="144,68 146,63 138,61" />
<polygon fill="#ffd8c4" fill-opacity="0.5019607843137255" points="108,34 129,34 118,19" />
<polygon fill="#fb7b66" fill-opacity="0.5019607843137255" points="89,87 61,103 84,77" />
<polygon fill="#ffec3b" fill-opacity="0.5019607843137255" points="142,43 163,53 163,91" />
<polygon fill="#000000" fill-opacity="0.5019607843137255" points="75,105 96,98 67,99" />
<polygon fill="#463f41" fill-opacity="0.5019607843137255" points="-16,2 16,16 45,-6" />
<polygon fill="#efc89e" fill-opacity="0.5019607843137255" points="69,66 34,67 85,31" />
<polygon fill="#000008" fill-opacity="0.5019607843137255" points="81,85 71,72 67,84" />
<polygon fill="#5b160f" fill-opacity="0.5019607843137255" points="133,41 99,31 75,46" />
<polygon fill="#ca9594" fill-opacity="0.5019607843137255" points="68,136 52,70 72,87" />
<polygon fill="#ffffe8" fill-opacity="0.5019607843137255" points="88,35 95,40 89,30" />
<polygon fill="#ffac44" fill-opacity="0.5019607843137255" points="271,58 201,84 233,119" />
<polygon fill="#fac79b" fill-opacity="0.5019607843137255" points="128,123 142,124 140,117" />
<polygon fill="#f6b89a" fill-opacity="0.5019607843137255" points="140,20 136,41 151,26" />
<polygon fill="#160000" fill-opacity="0.5019607843137255" points="258,136 216,153 266,75" />
<polygon fill="#b99675" fill-opacity="0.5019607843137255" points="1,22 2,104 66,45" />
<polygon fill="#300000" fill-opacity="0.5019607843137255" points="79,53 90,69 82,37" />
</g>
</svg>