<svg xmlns="http://www.w3.org/2000/svg" version="1.1" width="768" height="429">
<rect x="0" y="0" width="768" height="429" fill="#ae7854" />
<g transform="scale(3) translate(0.5 0.5)">
<polygon fill="#300000" fill-opacity="0.5019607843137255" points="50,134 241,158 271,103" />
<polygon fill="#ffb457" fill-opacity="0.5019607843137255" points="271,28 213,147 82,48" />
<polygon fill="#5e1b05" fill-opacity="0.5019607843137255" points="158,87 65,77 87,158" />
<polygon fill="#a6a1a7" fill-opacity="0.5019607843137255" points="111,-16 42,116 -16,20" />
<polygon fill="#000000" fill-opacity="0.5019607843137255" points="271,78 196,153 245,158" />
<polygon fill="#efdb96" fill-opacity="0.5019607843137255" points="190,27 133,94 92,65" />
<polygon fill="#ffc43b" fill-opacity="0.5019607843137255" points="122,117 101,119 93,43" />
<polygon fill="#000000" fill-opacity="0.5019607843137255" points="160,79 116,99 146,101" />
<polygon fill="#32000a" fill-opacity="0.5019607843137255" points="109,38 76,55 106,4" />
<polygon fill="#706a88" fill-opacity="0.5019607843137255" points="8,-16 -16,37 194,3" />
<polygon fill="#ff9041" fill-opacity="0.5019607843137255" points="271,70 215,134 124,104" />
<polygon fill="#401002" fill-opacity="0.5019607843137255" points="41,154 147,110 208,139" />
<polygon fill="#e9caae" fill-opacity="0.5019607843137255" points="76,64 79,31 -11,24" />
<polygon fill="#e97d43" fill-opacity="0.5019607843137255" points="257,89 215,133 140,132" />
<polygon fill="#a68492" fill-opacity="0.5019607843137255" points="201,39 271,-3 92,2" />
<polygon fill="#4c2606" fill-opacity="0.5019607843137255" points="82,113 104,116 83,36" />
<polygon fill="#d69e6b" fill-opacity="0.5019607843137255" points="66,143 -4,70 74,90" />
<polygon fill="#3b1011" fill-opacity="0.5019607843137255" points="78,78 31,67 46,81" />
<polygon fill="#000000" fill-opacity="0.5019607843137255" points="119,143 214,158 178,131" />
<polygon fill="#bcc3ea" fill-opacity="0.5019607843137255" points="113,78 111,55 158,68" />
<polygon fill="#000000" fill-opacity="0.5019607843137255" points="120,101 131,95 103,77" />
<polygon fill="#ffec38" fill-opacity="0.5019607843137255" points="128,60 84,46 165,43" />
<polygon fill="#f68b59" fill-opacity="0.5019607843137255" points="255,92 253,25 136,29" />
<polygon fill="#721c1d" fill-opacity="0.5019607843137255" points="151,43 128,43 124,10" />
<polygon fill="#5a3523" fill-opacity="0.5019607843137255" points="16,15 -16,27 55,24" />
<polygon fill="#bd573e" fill-opacity="0.5019607843137255" points="256,69 166,59 170,86" />
<polygon fill="#000000" fill-opacity="0.5019607843137255" points="123,60 118,64 123,69" />
<polygon fill="#000000" fill-opacity="0.5019607843137255" points="133,97 149,103 156,80" />
<polygon fill="#e87c4c" fill-opacity="0.5019607843137255" points="118,101 81,124 175,107" />
<polygon fill="#4a0b00" fill-opacity="0.5019607843137255" points="56,119 55,152 47,128" />
<polygon fill="#e9ad3a" fill-opacity="0.5019607843137255" points="155,73 138,92 102,78" />
<polygon fill="#5c2d31" fill-opacity="0.5019607843137255" points="54,25 127,11 101,29" />
<polygon fill="#db9350" fill-opacity="0.5019607843137255" points="93,103 6,114 19,146" />
<polygon fill="#00002f" fill-opacity="0.5019607843137255" points="144,68 146,63 138,61" />
<polygon fill="#ffd8c4" fill-opacity="0.5019607843137255" points="108,34 129,34 118,19" />
<polygon fill="#fb7b66" fill-opacity="0.5019607843137255" points="89,87 61,103 84,77" />
<polygon fill="#ffec3b" fill-opacity="0.5019607843137255" points="142,43 163,53 163,91" />
<polygon fill="#000000" fill-opacity="0.5019607843137255" points="75,105 96,98 67,99" />
<polygon fill="#463f41" fill-opacity="0.5019607843137255" points="-16,2 16,16 45,-6" />
<polygon fill="#efc89e" fill-opacity="0.5019607843137255" points="69,66 34,67 85,31" />
<polygon fill="#000008" fill-opacity="0.5019607843137255" points="81,85 71,72 67,84" />
<polygon fill="#5b160f" fill-opacity="0.5019607843137255" points="133,41 99,31 75,46" />
<polygon fill="#ca9594" fill-opacity="0.5019607843137255" points="68,136 52,70 72,87" />
<polygon fill="#ffffe8" fill-opacity="0.5019607843137255" points="88,35 95,40 89,30" />
<polygon fill="#ffac44" fill-opacity="0.5019607843137255" points="271,58 201,84 233,119" />
<polygon fill="#fac79b" fill-opacity="0.5019607843137255" points="128,123 142,124 140,117" />
<polygon fill="#f6b89a" fill-opacity="0.5019607843137255" points="140,20 136,41 151,26" />
<polygon fill="#160000" fill-opacity="0.5019607843137255" points="258,136 216,153 266,75" />
<polygon fill="#b99675" fill-opacity="0.5019607843137255" points="1,22 2,104 66,45" />
<polygon fill="#300000" fill-opacity="0.5019607843137255" points="79,53 90,69 82,37" />
<polygon fill="#3d0000" fill-opacity="0.5019607843137255" points="162,125 151,108 135,130" />
<polygon fill="#e5deff" fill-opacity="0.5019607843137255" points="126,92 139,92 139,87" />
<polygon fill="#e2ae2b" fill-opacity="0.5019607843137255" points="107,43 109,114 87,56" />
<polygon fill="#f8e5e3" fill-opacity="0.5019607843137255" points="147,56 131,56 116,80" />
<polygon fill="#998f9c" fill-opacity="0.5019607843137255" points="8,16 92,-8 93,24" />
<polygon fill="#a45c2d" fill-opacity="0.5019607843137255" points="164,133 100,143 129,129" />
<polygon fill="#000000" fill-opacity="0.5019607843137255" points="149,136 130,158 209,135" />
<polygon fill="#480002" fill-opacity="0.5019607843137255" points="77,146 78,125 152,124" />
<polygon fill="#ffffe8" fill-opacity="0.5019607843137255" points="165,98 178,98 186,106" />
<polygon fill="#55151b" fill-opacity="0.5019607843137255" points="95,19 137,20 110,10" />
<polygon fill="#181514" fill-opacity="0.5019607843137255" points="-1,73 -16,132 1,146" />
<polygon fill="#090000" fill-opacity="0.5019607843137255" points="94,105 76,114 102,113" />
<polygon fill="#803e1b" fill-opacity="0.5019607843137255" points="40,122 21,107 37,104" />
<polygon fill="#ffffff" fill-opacity="0.5019607843137255" points="145,59 152,62 153,77" />
<polygon fill="#c3911d" fill-opacity="0.5019607843137255" points="157,86 165,103 141,114" />
<polygon fill="#edc6a8" fill-opacity="0.5019607843137255" points="59,109 58,118 86,105" />
<polygon fill="#987b82" fill-opacity="0.5019607843137255" points="271,21 101,11 226,-16" />
<polygon fill="#6c4939" fill-opacity="0.5019607843137255" points="58,124 68,118 43,110" />
<polygon fill="#b76b43" fill-opacity="0.5019607843137255" points="171,101 217,131 174,132" />
<polygon fill="#4c1612" fill-opacity="0.5019607843137255" points="46,73 62,68 46,84" />
<polygon fill="#d68c6c" fill-opacity="0.5019607843137255" points="258,33 135,15 168,63" />
<polygon fill="#ffb26f" fill-opacity="0.5019607843137255" points="58,124 70,136 56,140" />
<polygon fill="#7c5939" fill-opacity="0.5019607843137255" points="19,71 36,82 35,64" />
<polygon fill="#000734" fill-opacity="0.5019607843137255" points="125,66 118,60 116,67" />
<polygon fill="#000000" fill-opacity="0.5019607843137255" points="107,80 118,99 122,88" />
<polygon fill="#c69784" fill-opacity="0.5019607843137255" points="115,32 104,20 123,19" />
<polygon fill="#f5d6b3" fill-opacity="0.5019607843137255" points="20,53 -3,50 8,59" />
<polygon fill="#292d28" fill-opacity="0.5019607843137255" points="0,-6 -14,31 0,76" />
<polygon fill="#000000" fill-opacity="0.5019607843137255" points="135,93 132,95 132,88" />
<polygon fill="#000000" fill-opacity="0.5019607843137255" points="64,86 68,85 69,88" />
<polygon fill="#ef716e" fill-opacity="0.5019607843137255" points="82,120 118,120 112,110" />
<polygon fill="#4f1806" fill-opacity="0.5019607843137255" points="137,129 109,137 120,115" />
<polygon fill="#c1aca8" fill-opacity="0.5019607843137255" points="14,43 -16,23 45,27" />
<polygon fill="#ffd3a5" fill-opacity="0.5019607843137255" points="87,86 83,86 81,73" />
<polygon fill="#b1714d" fill-opacity="0.5019607843137255" points="50,114 82,93 17,104" />
<polygon fill="#642305" fill-opacity="0.5019607843137255" points="12,110 6,122 0,117" />
<polygon fill="#f4b64c" fill-opacity="0.5019607843137255" points="106,83 123,109 115,116" />
<polygon fill="#f63e6e" fill-opacity="0.5019607843137255" points="141,99 136,108 123,101" />
<polygon fill="#000000" fill-opacity="0.5019607843137255" points="159,78 145,104 141,92" />
<polygon fill="#3f2817" fill-opacity="0.5019607843137255" points="255,50 255,87 270,88" />
<polygon fill="#ffdd43" fill-opacity="0.5019607843137255" points="155,92 166,92 161,70" />
<polygon fill="#30140b" fill-opacity="0.5019607843137255" points="41,20 61,23 49,25" />
<polygon fill="#000000" fill-opacity="0.5019607843137255" points="82,98 92,100 85,88" />
<polygon fill="#fff0fb" fill-opacity="0.5019607843137255" points="118,56 108,61 128,60" />
<polygon fill="#ffde4b" fill-opacity="0.5019607843137255" points="148,44 110,55 89,44" />
<polygon fill="#a27c61" fill-opacity="0.5019607843137255" points="68,57 19,36 18,56" />
<polygon fill="#f37b61" fill-opacity="0.5019607843137255" points="65,72 54,70 49,88" />
<polygon fill="#010107" fill-opacity="0.5019607843137255" points="72,87 62,77 77,76" />
<polygon fill="#edca33" fill-opacity="0.5019607843137255" points="53,120 45,136 39,110" />
<polygon fill="#98775b" fill-opacity="0.5019607843137255" points="61,67 89,56 81,78" />
<polygon fill="#cb7a14" fill-opacity="0.5019607843137255" points="133,86 131,75 148,76" />
<polygon fill="#f3dae0" fill-opacity="0.5019607843137255" points="106,62 122,80 129,73" />
<polygon fill="#d3b9ab" fill-opacity="0.5019607843137255" points="25,50 48,26 89,33" />
<polygon fill="#c4cfd1" fill-opacity="0.5019607843137255" points="62,80 54,83 69,96" />
<polygon fill="#291521" fill-opacity="0.5019607843137255" points="271,29 255,-1 257,68" />
<polygon fill="#ffedd7" fill-opacity="0.5019607843137255" points="130,92 124,91 124,84" />
<polygon fill="#ab887a" fill-opacity="0.5019607843137255" points="75,106 97,100 69,117" />
<polygon fill="#e5c3a2" fill-opacity="0.5019607843137255" points="53,69 18,61 69,58" />
<polygon fill="#9b5b48" fill-opacity="0.5019607843137255" points="81,154 77,109 66,130" />
<polygon fill="#001f41" fill-opacity="0.5019607843137255" points="140,60 146,64 141,68" />
<polygon fill="#e38a4e" fill-opacity="0.5019607843137255" points="22,107 64,158 5,118" />
<polygon fill="#ffc859" fill-opacity="0.5019607843137255" points="254,78 252,93 211,84" />
<polygon fill="#1e0000" fill-opacity="0.5019607843137255" points="84,45 78,47 85,64" />
<polygon fill="#000000" fill-opacity="0.5019607843137255" points="106,42 94,33 96,40" />
<polygon fill="#bf813b" fill-opacity="0.5019607843137255" points="199,139 239,158 161,147" />
<polygon fill="#dfaa2c" fill-opacity="0.5019607843137255" points="122,54 131,64 133,55" />
<polygon fill="#8a620f" fill-opacity="0.5019607843137255" points="99,89 83,76 87,47" />
<polygon fill="#ffffff" fill-opacity="0.5019607843137255" points="141,86 136,91 139,92" />
<polygon fill="#541600" fill-opacity="0.5019607843137255" points="54,127 47,129 58,145" />
<polygon fill="#d8b38f" fill-opacity="0.5019607843137255" points="59,126 82,116 73,125" />
<polygon fill="#b87e68" fill-opacity="0.5019607843137255" points="255,38 148,27 254,8" />
<polygon fill="#000005" fill-opacity="0.5019607843137255" points="133,147 167,131 208,138" />
<polygon fill="#5c2221" fill-opacity="0.5019607843137255" points="132,40 135,20 125,26" />
<polygon fill="#fc8741" fill-opacity="0.5019607843137255" points="165,94 216,73 228,116" />
<polygon fill="#ff9953" fill-opacity="0.5019607843137255" points="254,46 168,50 254,69" />
<polygon fill="#ffc4a1" fill-opacity="0.5019607843137255" points="163,105 173,115 158,110" />
<polygon fill="#b38b7f" fill-opacity="0.5019607843137255" points="164,3 116,7 155,33" />
<polygon fill="#f6caab" fill-opacity="0.5019607843137255" points="113,39 110,38 113,28" />
<polygon fill="#b37c1f" fill-opacity="0.5019607843137255" points="131,121 121,106 153,107" />
<polygon fill="#9b1a1e" fill-opacity="0.5019607843137255" points="100,118 75,127 127,128" />
<polygon fill="#180805" fill-opacity="0.5019607843137255" points="236,139 216,131 203,158" />
<polygon fill="#5f3d23" fill-opacity="0.5019607843137255" points="255,92 247,108 229,118" />
<polygon fill="#e7c7a4" fill-opacity="0.5019607843137255" points="68,36 80,57 63,66" />
<polygon fill="#ab9291" fill-opacity="0.5019607843137255" points="47,19 107,7 90,22" />
<polygon fill="#ffd23e" fill-opacity="0.5019607843137255" points="196,103 185,103 189,120" />
<polygon fill="#290000" fill-opacity="0.5019607843137255" points="95,95 67,101 78,105" />
<polygon fill="#391419" fill-opacity="0.5019607843137255" points="55,158 66,146 65,136" />
<polygon fill="#5d2823" fill-opacity="0.5019607843137255" points="122,15 117,13 120,28" />
<polygon fill="#b36f5a" fill-opacity="0.5019607843137255" points="168,84 206,58 163,64" />
<polygon fill="#ffe0bd" fill-opacity="0.5019607843137255" points="124,28 124,35 110,29" />
<polygon fill="#e5a726" fill-opacity="0.5019607843137255" points="105,79 145,81 127,87" />
<polygon fill="#cdb7a4" fill-opacity="0.5019607843137255" points="65,129 78,149 66,158" />
<polygon fill="#807c90" fill-opacity="0.5019607843137255" points="35,12 141,-1 37,-16" />
<polygon fill="#dd7437" fill-opacity="0.5019607843137255" points="263,70 221,61 177,86" />
<polygon fill="#000002" fill-opacity="0.5019607843137255" points="149,99 142,87 155,84" />
<polygon fill="#ffd93c" fill-opacity="0.5019607843137255" points="159,49 149,83 162,69" />
<polygon fill="#f8e2de" fill-opacity="0.5019607843137255" points="149,69 129,65 139,75" />
<polygon fill="#69320c" fill-opacity="0.5019607843137255" points="160,96 161,102 155,98" />
<polygon fill="#ad8f7e" fill-opacity="0.5019607843137255" points="26,32 54,37 10,49" />
<polygon fill="#3a0000" fill-opacity="0.5019607843137255" points="146,36 150,40 149,44" />
<polygon fill="#4c2727" fill-opacity="0.5019607843137255" points="98,23 89,28 72,23" />
<polygon fill="#faf1ff" fill-opacity="0.5019607843137255" points="132,61 147,58 137,55" />
<polygon fill="#570c16" fill-opacity="0.5019607843137255" points="90,40 85,55 82,36" />
<polygon fill="#010000" fill-opacity="0.5019607843137255" points="115,87 123,102 124,86" />
<polygon fill="#725671" fill-opacity="0.5019607843137255" points="109,73 106,71 107,61" />
<polygon fill="#d9bba1" fill-opacity="0.5019607843137255" points="73,27 90,27 64,64" />
<polygon fill="#724938" fill-opacity="0.5019607843137255" points="17,27 11,4 28,24" />
<polygon fill="#cd6942" fill-opacity="0.5019607843137255" points="211,137 163,118 228,113" />
<polygon fill="#000000" fill-opacity="0.5019607843137255" points="48,78 50,83 50,75" />
<polygon fill="#5e2823" fill-opacity="0.5019607843137255" points="126,45 114,35 125,35" />
<polygon fill="#fff2d1" fill-opacity="0.5019607843137255" points="123,23 112,20 113,23" />
<polygon fill="#f1bd37" fill-opacity="0.5019607843137255" points="136,75 123,87 131,71" />
<polygon fill="#000006" fill-opacity="0.5019607843137255" points="137,95 157,78 145,103" />
<polygon fill="#0b0602" fill-opacity="0.5019607843137255" points="58,67 54,71 62,69" />
<polygon fill="#fcce40" fill-opacity="0.5019607843137255" points="90,64 104,66 90,44" />
<polygon fill="#862510" fill-opacity="0.5019607843137255" points="72,123 72,137 67,131" />
<polygon fill="#9b5e2f" fill-opacity="0.5019607843137255" points="187,133 152,132 158,122" />
<polygon fill="#d04e41" fill-opacity="0.5019607843137255" points="63,103 75,90 66,108" />
<polygon fill="#230003" fill-opacity="0.5019607843137255" points="73,136 110,128 107,138" />
<polygon fill="#9f7859" fill-opacity="0.5019607843137255" points="28,58 24,38 53,60" />
<polygon fill="#59230c" fill-opacity="0.5019607843137255" points="271,111 251,141 219,156" />
<polygon fill="#bcb5be" fill-opacity="0.5019607843137255" points="0,18 1,13 12,14" />
<polygon fill="#debb90" fill-opacity="0.5019607843137255" points="16,84 24,94 33,82" />
<polygon fill="#eecfaa" fill-opacity="0.5019607843137255" points="18,40 26,47 11,43" />
<polygon fill="#d4a37e" fill-opacity="0.5019607843137255" points="57,115 63,110 78,135" />
<polygon fill="#fac146" fill-opacity="0.5019607843137255" points="176,56 156,44 117,54" />
<polygon fill="#914e25" fill-opacity="0.5019607843137255" points="23,108 1,106 4,113" />
<polygon fill="#530000" fill-opacity="0.5019607843137255" points="169,121 153,111 144,120" />
<polygon fill="#8e6c53" fill-opacity="0.5019607843137255" points="41,81 12,60 27,81" />
<polygon fill="#5f2104" fill-opacity="0.5019607843137255" points="111,133 133,129 122,112" />
<polygon fill="#733a19" fill-opacity="0.5019607843137255" points="70,118 49,130 53,122" />
<polygon fill="#db9839" fill-opacity="0.5019607843137255" points="140,108 169,108 151,99" />
<polygon fill="#553c31" fill-opacity="0.5019607843137255" points="77,26 52,26 60,20" />
<polygon fill="#ffe3b7" fill-opacity="0.5019607843137255" points="172,103 160,97 183,101" />
<polygon fill="#cb7843" fill-opacity="0.5019607843137255" points="49,128 -2,123 18,158" />
<polygon fill="#dbae95" fill-opacity="0.5019607843137255" points="126,40 129,38 123,31" />
<polygon fill="#ffae77" fill-opacity="0.5019607843137255" points="135,36 144,29 136,42" />
<polygon fill="#ea9b73" fill-opacity="0.5019607843137255" points="187,51 172,62 137,23" />
<polygon fill="#000000" fill-opacity="0.5019607843137255" points="66,86 69,89 64,87" />
<polygon fill="#7d412c" fill-opacity="0.5019607843137255" points="70,124 72,114 81,111" />
<polygon fill="#08293b" fill-opacity="0.5019607843137255" points="118,68 122,60 118,60" />
<polygon fill="#977a7e" fill-opacity="0.5019607843137255" points="185,-16 271,16 86,10" />
<polygon fill="#cb5647" fill-opacity="0.5019607843137255" points="55,76 46,86 53,94" />
<polygon fill="#070000" fill-opacity="0.5019607843137255" points="91,116 84,114 92,108" />
<polygon fill="#df715e" fill-opacity="0.5019607843137255" points="115,122 120,110 83,118" />
<polygon fill="#b4adae" fill-opacity="0.5019607843137255" points="52,84 62,97 72,92" />
<polygon fill="#dfcdcf" fill-opacity="0.5019607843137255" points="110,59 107,69 129,76" />
<polygon fill="#ca5b4c" fill-opacity="0.5019607843137255" points="80,84 83,97 70,87" />
<polygon fill="#6f2625" fill-opacity="0.5019607843137255" points="94,22 114,25 91,29" />
<polygon fill="#fed346" fill-opacity="0.5019607843137255" points="138,49 104,55 116,42" />
</g>
</svg>