<svg xmlns="http://www.w3.org/2000/svg" version="1.1" width="744" height="768">
<rect x="0" y="0" width="744" height="768" fill="#8d8b8c" />
<g transform="scale(3) translate(0.5 0.5)">
<g transform="translate(137.667678 229.156076) rotate(-25.322815) scale(233.533787 76.499073)"><ellipse fill="#000000" fill-opacity="0.5019607843137255" cx="0" cy="0" rx="1" ry="1" /></g>
<g transform="translate(68.806121 82.395355) rotate(433.267751) scale(65.213964 186.609809)"><ellipse fill="#ffffff" fill-opacity="0.5019607843137255" cx="0" cy="0" rx="1" ry="1" /></g>
<g transform="translate(112.490885 180.430722) rotate(101.754780) scale(25.526180 75.968883)"><ellipse fill="#bbb9bd" fill-opacity="0.5019607843137255" cx="0" cy="0" rx="1" ry="1" /></g>
<g transform="translate(224.801439 196.204334) rotate(79.379714) scale(74.143762 42.697914)"><ellipse fill="#000000" fill-opacity="0.5019607843137255" cx="0" cy="0" rx="1" ry="1" /></g>
<ellipse fill="#ffffff" fill-opacity="0.5019607843137255" cx="75" cy="80" rx="106" ry="43" />
<g transform="translate(209.853521 86.877889) rotate(276.265497) scale(23.688827 31.789247)"><ellipse fill="#4b4b4e" fill-opacity="0.5019607843137255" cx="0" cy="0" rx="1" ry="1" /></g>
<g transform="translate(69.852509 249.666810) rotate(371.714746) scale(247.000000 33.602781)"><ellipse fill="#0f0f13" fill-opacity="0.5019607843137255" cx="0" cy="0" rx="1" ry="1" /></g>
<g transform="translate(151.539151 142.996360) rotate(187.907949) scale(56.117746 16.878245)"><ellipse fill="#222227" fill-opacity="0.5019607843137255" cx="0" cy="0" rx="1" ry="1" /></g>
<g transform="translate(210.736418 52.525237) rotate(191.512158) scale(87.349614 16.111450)"><ellipse fill="#f6efec" fill-opacity="0.5019607843137255" cx="0" cy="0" rx="1" ry="1" /></g>
<ellipse fill="#5c5d5f" fill-opacity="0.5019607843137255" cx="33" cy="205" rx="162" ry="19" />
<polygon fill="#fbf4ee" fill-opacity="0.5019607843137255" points="163.478863,120.741577 206.053846,116.413873 132.427399,59.686492 -13.830575,87.330736" />
<g transform="translate(96.247633 7.955799) rotate(83.193476) scale(35.288803 195.841616)"><ellipse fill="#b0adae" fill-opacity="0.5019607843137255" cx="0" cy="0" rx="1" ry="1" /></g>
<g transform="translate(223.167840 165.719610) rotate(186.737592) scale(67.049751 21.190925)"><ellipse fill="#000005" fill-opacity="0.5019607843137255" cx="0" cy="0" rx="1" ry="1" /></g>
<g transform="translate(113.556188 164.458783) rotate(200.945005) scale(50.726872 12.767132)"><ellipse fill="#b9b7b8" fill-opacity="0.5019607843137255" cx="0" cy="0" rx="1" ry="1" /></g>
<ellipse fill="#9c999a" fill-opacity="0.5019607843137255" cx="104" cy="129" rx="31" ry="14" />
<g transform="translate(214.162503 70.401339) rotate(191.406626) scale(19.389777 10.610199)"><ellipse fill="#78777b" fill-opacity="0.5019607843137255" cx="0" cy="0" rx="1" ry="1" /></g>
<ellipse fill="#e8e2de" fill-opacity="0.5019607843137255" cx="2" cy="97" rx="73" ry="73" />
<polygon fill="#656568" fill-opacity="0.5019607843137255" points="204.272813,234.797378 -16.000000,177.882218 183.274871,206.848587 218.434659,221.453948" />
<g transform="translate(235.117235 164.542812) rotate(24.775837) scale(28.117710 49.879288)"><ellipse fill="#03010e" fill-opacity="0.5019607843137255" cx="0" cy="0" rx="1" ry="1" /></g>
<polygon fill="#626366" fill-opacity="0.5019607843137255" points="140,127 205,135 252,111" />
<ellipse fill="#959497" fill-opacity="0.5019607843137255" cx="147" cy="5" rx="191" ry="9" />
<g transform="translate(168.077902 62.349728) rotate(144.763886) scale(34.349164 15.436315)"><ellipse fill="#fef8f3" fill-opacity="0.5019607843137255" cx="0" cy="0" rx="1" ry="1" /></g>
<g transform="translate(26.669653 161.314565) rotate(79.337717) scale(11.686140 78.141709)"><ellipse fill="#b2b0b2" fill-opacity="0.5019607843137255" cx="0" cy="0" rx="1" ry="1" /></g>
<g transform="translate(52.756456 184.960195) rotate(166.206820) scale(27.781626 16.611453)"><ellipse fill="#79787b" fill-opacity="0.5019607843137255" cx="0" cy="0" rx="1" ry="1" /></g>
<polygon fill="#edeae9" fill-opacity="0.5019607843137255" points="237.987056,75.980274 263.000000,97.852116 255.229455,40.998355 232.402021,65.854904" />
<ellipse fill="#18171c" fill-opacity="0.5019607843137255" cx="112" cy="255" rx="247" ry="17" />
<g transform="translate(131.199543 40.319711) rotate(172.744549) scale(80.090454 15.416646)"><ellipse fill="#ddd8d5" fill-opacity="0.5019607843137255" cx="0" cy="0" rx="1" ry="1" /></g>
<g transform="translate(166.258355 158.065694) rotate(103.984575) scale(10.151226 44.810119)"><ellipse fill="#121118" fill-opacity="0.5019607843137255" cx="0" cy="0" rx="1" ry="1" /></g>
<ellipse fill="#f6f2ef" fill-opacity="0.5019607843137255" cx="18" cy="93" rx="58" ry="32" />
<polygon fill="#07080d" fill-opacity="0.5019607843137255" points="27,134 23,135 27,128" />
<polygon fill="#99979b" fill-opacity="0.5019607843137255" points="176.135240,121.191094 153.810214,114.744887 73.775996,138.721716 141.711974,130.612731" />
<g transform="translate(43.395532 23.029483) rotate(348.771874) scale(69.376643 12.790133)"><ellipse fill="#b0afb0" fill-opacity="0.5019607843137255" cx="0" cy="0" rx="1" ry="1" /></g>
<polygon fill="#363739" fill-opacity="0.5019607843137255" points="106,243 211,244 263,202" />
<polygon fill="#4e4f51" fill-opacity="0.5019607843137255" points="223.377783,106.564091 185.830461,106.653986 243.602589,89.037118 237.819107,106.688703" />
<ellipse fill="#000000" fill-opacity="0.5019607843137255" cx="65" cy="115" rx="2" ry="2" />
<polygon fill="#918f93" fill-opacity="0.5019607843137255" points="187,206 43,167 164,167" />
<g transform="translate(239.879304 22.061575) rotate(296.364417) scale(10.886747 35.370711)"><ellipse fill="#aaa8a9" fill-opacity="0.5019607843137255" cx="0" cy="0" rx="1" ry="1" /></g>
<ellipse fill="#000000" fill-opacity="0.5019607843137255" cx="47" cy="133" rx="2" ry="2" />
<polygon fill="#b2b0b3" fill-opacity="0.5019607843137255" points="263.000000,103.835980 233.241238,117.297965 216.772503,117.746312 191.254616,111.429696" />
<ellipse fill="#38383a" fill-opacity="0.5019607843137255" cx="43" cy="222" rx="101" ry="10" />
<polygon fill="#333435" fill-opacity="0.5019607843137255" points="259,123 188,155 108,141" />
<ellipse fill="#333238" fill-opacity="0.5019607843137255" cx="28" cy="126" rx="2" ry="3" />
<ellipse fill="#515154" fill-opacity="0.5019607843137255" cx="0" cy="204" rx="60" ry="10" />
<g transform="translate(29 97) rotate(-51) scale(7 1)"><rect fill="#28282d" fill-opacity="0.5019607843137255" x="-0.5" y="-0.5" width="1" height="1" /></g>
<polygon fill="#f0ece9" fill-opacity="0.5019607843137255" points="103.924844,57.668724 155.947818,116.832495 186.225778,114.580106 156.111200,40.753556" />
<polygon fill="#a4a1a4" fill-opacity="0.5019607843137255" points="230,60 178,80 190,62" />
<polygon fill="#545456" fill-opacity="0.5019607843137255" points="184.074124,123.494710 263.000000,111.405268 150.318972,146.600637 92.906308,141.166136" />
<polygon fill="#777679" fill-opacity="0.5019607843137255" points="90.787059,143.522036 84.335579,130.218352 127.354220,140.056157 161.871166,125.908454" />
<polygon fill="#cdcac9" fill-opacity="0.5019607843137255" points="51.503081,27.125108 132.835985,44.022158 52.629836,55.528520 -9.571508,55.339198" />
<g transform="translate(92.011770 121.591566) rotate(352.370726) scale(86.417321 3.496744)"><ellipse fill="#dbd6d5" fill-opacity="0.5019607843137255" cx="0" cy="0" rx="1" ry="1" /></g>
<polygon fill="#6d6d70" fill-opacity="0.5019607843137255" points="188,110 191,76 242,87" />
<g transform="translate(15 116) rotate(341) scale(6 1)"><rect fill="#1f2024" fill-opacity="0.5019607843137255" x="-0.5" y="-0.5" width="1" height="1" /></g>
<ellipse fill="#000000" fill-opacity="0.5019607843137255" cx="96" cy="117" rx="1" ry="4" />
<rect fill="#0d0b13" fill-opacity="0.5019607843137255" x="193" y="140" width="38" height="75" />
<rect fill="#1b1b1f" fill-opacity="0.5019607843137255" x="65" y="111" width="3" height="6" />
<polygon fill="#9e9c9e" fill-opacity="0.5019607843137255" points="181.086844,178.777965 181.678945,182.049947 -16.000000,168.499079 127.684913,158.002635" />
<polygon fill="#4b4c4e" fill-opacity="0.5019607843137255" points="214.907869,145.358684 210.143158,113.831031 216.165458,110.487324 204.048371,95.993009" />
<rect fill="#f8f5f2" fill-opacity="0.5019607843137255" x="198" y="108" width="6" height="5" />
<g transform="translate(177.518425 206.058081) rotate(129.270367) scale(7.077504 24.707833)"><ellipse fill="#6a6a6c" fill-opacity="0.5019607843137255" cx="0" cy="0" rx="1" ry="1" /></g>
<ellipse fill="#000000" fill-opacity="0.5019607843137255" cx="31" cy="98" rx="1" ry="1" />
<g transform="translate(11.283790 0.000000) rotate(177.203959) scale(29.526537 9.736789)"><ellipse fill="#807e82" fill-opacity="0.5019607843137255" cx="0" cy="0" rx="1" ry="1" /></g>
<polygon fill="#f3efec" fill-opacity="0.5019607843137255" points="140,69 235,54 199,41" />
<polygon fill="#454649" fill-opacity="0.5019607843137255" points="48.141667,134.327746 45.586929,134.825461 46.318717,129.445234 48.067182,128.140047" />
<polygon fill="#c0bdbd" fill-opacity="0.5019607843137255" points="261.591681,-9.590764 246.495414,99.127935 243.448311,53.917937 226.690432,41.561578" />
<polygon fill="#8e8c8f" fill-opacity="0.5019607843137255" points="216.146982,68.899349 174.813366,84.953933 224.020523,58.502688 245.919622,86.554349" />
<ellipse fill="#131317" fill-opacity="0.5019607843137255" cx="157" cy="160" rx="12" ry="7" />
<rect fill="#c7c4c3" fill-opacity="0.5019607843137255" x="0" y="144" width="97" height="11" />
<g transform="translate(132.476840 225.885700) rotate(362.928600) scale(56.421319 10.555792)"><ellipse fill="#414244" fill-opacity="0.5019607843137255" cx="0" cy="0" rx="1" ry="1" /></g>
<polygon fill="#ebe7e6" fill-opacity="0.5019607843137255" points="64.400666,115.359524 35.112446,139.037771 29.512493,129.275070 72.527076,95.930112" />
<rect fill="#202021" fill-opacity="0.5019607843137255" x="226" y="119" width="22" height="21" />
<g transform="translate(217 180) rotate(113) scale(20 96)"><rect fill="#06040e" fill-opacity="0.5019607843137255" x="-0.5" y="-0.5" width="1" height="1" /></g>
<polygon fill="#e9e4e3" fill-opacity="0.5019607843137255" points="-16,108 28,120 20,145" />
<polygon fill="#58585b" fill-opacity="0.5019607843137255" points="228.586024,102.480195 228.937229,87.538870 246.754279,83.427774 237.255069,108.510463" />
<rect fill="#7d7c7e" fill-opacity="0.5019607843137255" x="0" y="181" width="153" height="12" />
<rect fill="#201f22" fill-opacity="0.5019607843137255" x="174" y="138" width="45" height="23" />
<path stroke="#07070b" stroke-opacity="0.5019607843137255" fill="none" d="M 23.629588 132.430846 Q 25.687008 131.597237, 25.540832 128.429862" stroke-width="0.500000" />
<g transform="translate(97 118) rotate(208) scale(1 5)"><rect fill="#05060a" fill-opacity="0.5019607843137255" x="-0.5" y="-0.5" width="1" height="1" /></g>
<polygon fill="#e5e0df" fill-opacity="0.5019607843137255" points="180.348130,97.749028 70.848417,112.359304 114.268964,117.531651 193.149933,113.491909" />
<g transform="translate(161.191068 178.270792) rotate(290.217437) scale(10.020296 21.526903)"><ellipse fill="#8e8d90" fill-opacity="0.5019607843137255" cx="0" cy="0" rx="1" ry="1" /></g>
<polygon fill="#c7c5c5" fill-opacity="0.5019607843137255" points="226.671374,107.201198 240.318553,110.646249 218.475140,113.850451 213.373564,112.598085" />
<polygon fill="#aeacad" fill-opacity="0.5019607843137255" points="-4.338235,160.322062 104.311186,146.857790 111.151219,149.613418 143.816530,165.894728" />
<polygon fill="#767578" fill-opacity="0.5019607843137255" points="84.609007,136.943168 99.939346,135.668940 145.160222,123.570042 107.917334,149.176868" />
<polygon fill="#3d3e3e" fill-opacity="0.5019607843137255" points="112.805877,149.882566 134.344959,157.666490 137.393845,150.300527 115.616364,137.828664" />
<polygon fill="#f8f4f0" fill-opacity="0.5019607843137255" points="-16,121 30,101 -6,52" />
<polygon fill="#3c3d40" fill-opacity="0.5019607843137255" points="25,134 27,130 29,136" />
<polygon fill="#b5b3b5" fill-opacity="0.5019607843137255" points="247.871155,104.850747 263.000000,127.831226 244.039619,97.352114 237.003890,107.995122" />
<polygon fill="#222326" fill-opacity="0.5019607843137255" points="189.093005,211.030489 197.227714,216.171434 214.608925,217.948920 179.795233,177.549060" />
<g transform="translate(46.544840 253.788894) rotate(379.943383) scale(41.149323 20.983811)"><ellipse fill="#1c1b1f" fill-opacity="0.5019607843137255" cx="0" cy="0" rx="1" ry="1" /></g>
<polygon fill="#646566" fill-opacity="0.5019607843137255" points="-16.000000,192.313970 74.615526,190.680955 113.923100,202.449610 27.800963,204.697114" />
<polygon fill="#141319" fill-opacity="0.5019607843137255" points="171.941635,163.434822 149.300474,152.069672 169.172584,173.312577 191.097459,179.482006" />
<polygon fill="#686769" fill-opacity="0.5019607843137255" points="189.858567,212.438009 188.641668,197.955273 174.959284,220.363494 175.754764,187.865651" />
<polygon fill="#ddd9d8" fill-opacity="0.5019607843137255" points="238,49 263,60 238,79" />
<g transform="translate(247.000000 112.394424) rotate(347.679678) scale(37.233831 2.222913)"><ellipse fill="#7f7e80" fill-opacity="0.5019607843137255" cx="0" cy="0" rx="1" ry="1" /></g>
<ellipse fill="#b0aeae" fill-opacity="0.5019607843137255" cx="180" cy="14" rx="132" ry="4" />
<g transform="translate(149.585180 123.834608) rotate(352.473023) scale(54.008784 2.836539)"><ellipse fill="#99979a" fill-opacity="0.5019607843137255" cx="0" cy="0" rx="1" ry="1" /></g>
<g transform="translate(78.135794 32.493234) rotate(353.581138) scale(108.015646 6.547109)"><ellipse fill="#c3c1c1" fill-opacity="0.5019607843137255" cx="0" cy="0" rx="1" ry="1" /></g>
<g transform="translate(128.827005 212.558101) rotate(101.576876) scale(8.296599 39.734390)"><ellipse fill="#555556" fill-opacity="0.5019607843137255" cx="0" cy="0" rx="1" ry="1" /></g>
<ellipse fill="#28282b" fill-opacity="0.5019607843137255" cx="45" cy="133" rx="2" ry="2" />
<polygon fill="#ece8e5" fill-opacity="0.5019607843137255" points="53.130846,87.312151 73.054431,123.311793 128.681976,61.612703 -16.000000,61.688831" />
<polygon fill="#a3a1a2" fill-opacity="0.5019607843137255" points="164.046019,178.427787 157.542768,170.165164 138.815080,160.616873 53.258039,157.329874" />
<g transform="translate(15 115) rotate(156) scale(1 7)"><rect fill="#4c4c50" fill-opacity="0.5019607843137255" x="-0.5" y="-0.5" width="1" height="1" /></g>
<rect fill="#5a5a5e" fill-opacity="0.5019607843137255" x="28" y="121" width="2" height="8" />
<g transform="translate(39 127) rotate(250) scale(4 25)"><rect fill="#e9e5e4" fill-opacity="0.5019607843137255" x="-0.5" y="-0.5" width="1" height="1" /></g>
<polygon fill="#a4a2a3" fill-opacity="0.5019607843137255" points="185.890763,66.331151 181.110771,92.956045 197.711779,110.483104 176.582950,92.945157" />
<g transform="translate(169.041464 73.231904) rotate(226.314165) scale(9.031827 22.413362)"><ellipse fill="#f7f3ef" fill-opacity="0.5019607843137255" cx="0" cy="0" rx="1" ry="1" /></g>
<g transform="translate(188 71) rotate(225) scale(4 22)"><rect fill="#b0adae" fill-opacity="0.5019607843137255" x="-0.5" y="-0.5" width="1" height="1" /></g>
<rect fill="#dbd8d8" fill-opacity="0.5019607843137255" x="115" y="111" width="93" height="4" />
<g transform="translate(189 3) rotate(187) scale(119 9)"><rect fill="#9d9b9d" fill-opacity="0.5019607843137255" x="-0.5" y="-0.5" width="1" height="1" /></g>
<polygon fill="#303032" fill-opacity="0.5019607843137255" points="163,250 109,233 215,234" />
<g transform="translate(72 127) rotate(339) scale(48 10)"><rect fill="#d4d0cf" fill-opacity="0.5019607843137255" x="-0.5" y="-0.5" width="1" height="1" /></g>
<polygon fill="#69696b" fill-opacity="0.5019607843137255" points="244.037901,78.625569 185.245817,109.187029 263.000000,88.544517 246.347323,102.221871" />
<rect fill="#e2dede" fill-opacity="0.5019607843137255" x="116" y="34" width="110" height="14" />
<ellipse fill="#000000" fill-opacity="0.5019607843137255" cx="29" cy="97" rx="1" ry="1" />
<ellipse fill="#2f2f31" fill-opacity="0.5019607843137255" cx="20" cy="227" rx="81" ry="8" />
<ellipse fill="#8d8b8e" fill-opacity="0.5019607843137255" cx="14" cy="177" rx="129" ry="6" />
<g transform="translate(94.072538 6.354251) rotate(263.809269) scale(4.887252 93.483660)"><ellipse fill="#a19ea1" fill-opacity="0.5019607843137255" cx="0" cy="0" rx="1" ry="1" /></g>
<polygon fill="#4e4d50" fill-opacity="0.5019607843137255" points="173,230 175,215 219,218" />
<polygon fill="#7d7b7d" fill-opacity="0.5019607843137255" points="231.368428,77.705449 184.219278,102.537575 213.295096,65.551266 241.033167,74.039659" />
<polygon fill="#515153" fill-opacity="0.5019607843137255" points="222,99 242,96 207,113" />
<rect fill="#8a898b" fill-opacity="0.5019607843137255" x="63" y="117" width="6" height="1" />
<g transform="translate(247 88) rotate(381) scale(4 7)"><rect fill="#d3d2d4" fill-opacity="0.5019607843137255" x="-0.5" y="-0.5" width="1" height="1" /></g>
<polygon fill="#363639" fill-opacity="0.5019607843137255" points="220,121 208,138 246,118" />
<g transform="translate(236.206266 252.754142) rotate(112.471344) scale(22.844892 10.537172)"><ellipse fill="#13121a" fill-opacity="0.5019607843137255" cx="0" cy="0" rx="1" ry="1" /></g>
<rect fill="#111017" fill-opacity="0.5019607843137255" x="237" y="125" width="11" height="63" />
<polygon fill="#232325" fill-opacity="0.5019607843137255" points="176.277799,187.586880 208.956973,194.796741 181.768974,201.740368 183.927562,187.148530" />
<g transform="translate(224.038031 39.693668) rotate(305.388906) scale(5.578132 32.063778)"><ellipse fill="#d3cecc" fill-opacity="0.5019607843137255" cx="0" cy="0" rx="1" ry="1" /></g>
<g transform="translate(26 113) rotate(244) scale(19 19)"><rect fill="#f1edea" fill-opacity="0.5019607843137255" x="-0.5" y="-0.5" width="1" height="1" /></g>
<polygon fill="#777678" fill-opacity="0.5019607843137255" points="36.489516,186.292043 48.010206,175.914784 183.968663,202.512490 24.467182,189.901559" />
<polygon fill="#a8a6a8" fill-opacity="0.5019607843137255" points="135.263237,121.313701 66.159225,131.610675 65.732876,132.251025 84.393699,138.414812" />
<ellipse fill="#b4b2b3" fill-opacity="0.5019607843137255" cx="52" cy="24" rx="55" ry="6" />
<g transform="translate(227.175813 219.195773) rotate(232.552663) scale(4.062893 23.839983)"><ellipse fill="#363739" fill-opacity="0.5019607843137255" cx="0" cy="0" rx="1" ry="1" /></g>
<polygon fill="#f0ece9" fill-opacity="0.5019607843137255" points="184.711214,98.430606 186.868564,107.955972 35.975822,93.538821 109.167039,72.745274" />
<ellipse fill="#464648" fill-opacity="0.5019607843137255" cx="37" cy="212" rx="60" ry="5" />
<g transform="translate(143.455470 116.660338) rotate(270.006448) scale(2.148095 21.585956)"><ellipse fill="#d1cecd" fill-opacity="0.5019607843137255" cx="0" cy="0" rx="1" ry="1" /></g>
<polygon fill="#79787b" fill-opacity="0.5019607843137255" points="172.414533,130.577969 144.929930,130.145524 154.601799,122.093963 172.490515,122.670796" />
<g transform="translate(158.793513 141.576137) rotate(167.520205) scale(46.142226 4.559276)"><ellipse fill="#39393b" fill-opacity="0.5019607843137255" cx="0" cy="0" rx="1" ry="1" /></g>
<polygon fill="#e6e2e0" fill-opacity="0.5019607843137255" points="184.323827,109.789137 97.783682,119.550976 94.107732,127.115901 112.311285,97.008607" />
<g transform="translate(21.216028 157.515773) rotate(84.545762) scale(3.460718 66.050697)"><ellipse fill="#bab9ba" fill-opacity="0.5019607843137255" cx="0" cy="0" rx="1" ry="1" /></g>
<polygon fill="#767678" fill-opacity="0.5019607843137255" points="193.838865,92.851148 184.444567,84.595252 191.120332,112.290163 226.582405,72.375772" />
<rect fill="#222224" fill-opacity="0.5019607843137255" x="130" y="148" width="56" height="10" />
<polygon fill="#d4d0ce" fill-opacity="0.5019607843137255" points="68.405758,117.104425 63.530227,86.924351 74.535769,148.875325 41.424874,146.958664" />
<g transform="translate(50 117) rotate(243) scale(9 27)"><rect fill="#e9e5e2" fill-opacity="0.5019607843137255" x="-0.5" y="-0.5" width="1" height="1" /></g>
<polygon fill="#a9a6a8" fill-opacity="0.5019607843137255" points="263,14 227,12 263,47" />
<polygon fill="#5d5d5f" fill-opacity="0.5019607843137255" points="223.227763,97.540585 263.000000,98.684227 217.306521,90.280969 236.316595,101.971838" />
<path stroke="#38383d" stroke-opacity="0.5019607843137255" fill="none" d="M 31.060896 98.801607 Q 28.186375 97.981591, 31.218385 92.801292" stroke-width="0.500000" />
<ellipse fill="#414142" fill-opacity="0.5019607843137255" cx="165" cy="176" rx="2" ry="1" />
<g transform="translate(45.085929 58.921371) rotate(270.343989) scale(7.002833 60.531776)"><ellipse fill="#e2dedc" fill-opacity="0.5019607843137255" cx="0" cy="0" rx="1" ry="1" /></g>
<g transform="translate(23 166) rotate(174) scale(197 6)"><rect fill="#a7a5a6" fill-opacity="0.5019607843137255" x="-0.5" y="-0.5" width="1" height="1" /></g>
<g transform="translate(237 0) rotate(379) scale(19 9)"><rect fill="#89878b" fill-opacity="0.5019607843137255" x="-0.5" y="-0.5" width="1" height="1" /></g>
<polygon fill="#252527" fill-opacity="0.5019607843137255" points="207.262487,238.861730 263.000000,207.021544 207.917577,253.802799 131.926675,247.716262" />
<polygon fill="#e8e3e0" fill-opacity="0.5019607843137255" points="93,118 105,102 58,120" />
<g transform="translate(137.348022 181.973435) rotate(180.887728) scale(47.338586 3.376520)"><ellipse fill="#8f8d90" fill-opacity="0.5019607843137255" cx="0" cy="0" rx="1" ry="1" /></g>
<polygon fill="#7e7c7f" fill-opacity="0.5019607843137255" points="175.270098,201.678570 182.714242,191.542349 163.427829,190.115076 73.552599,186.196122" />
<polygon fill="#e2dedd" fill-opacity="0.5019607843137255" points="66.620139,123.070626 26.720813,131.532123 41.237869,142.368237 51.841791,108.368772" />
<polygon fill="#e3dfde" fill-opacity="0.5019607843137255" points="226.929849,62.471605 250.168587,81.268091 234.469481,51.277397 188.118716,35.841218" />
<g transform="translate(60.878998 17.182150) rotate(172.986034) scale(46.248158 4.727290)"><ellipse fill="#aba9aa" fill-opacity="0.5019607843137255" cx="0" cy="0" rx="1" ry="1" /></g>
<polygon fill="#f5f1ed" fill-opacity="0.5019607843137255" points="61,82 25,102 55,113" />
<rect fill="#212225" fill-opacity="0.5019607843137255" x="25" y="130" width="2" height="6" />
<polygon fill="#908e91" fill-opacity="0.5019607843137255" points="215.735751,65.291309 209.165105,60.149675 178.089481,86.084974 193.668191,86.775996" />
<path stroke="#222225" stroke-opacity="0.5019607843137255" fill="none" d="M 48.041036 128.927463 Q 47.078974 132.327557, 46.204759 131.946451" stroke-width="0.500000" />
<polygon fill="#eeeae7" fill-opacity="0.5019607843137255" points="19.382478,130.042845 -5.605233,73.744452 8.175662,121.991754 29.279974,109.590148" />
<polygon fill="#18171c" fill-opacity="0.5019607843137255" points="153.630754,148.123662 180.511291,168.204021 148.920541,165.813888 138.333804,154.412185" />
<rect fill="#19181d" fill-opacity="0.5019607843137255" x="12" y="248" width="123" height="8" />
<polygon fill="#636365" fill-opacity="0.5019607843137255" points="160.400269,215.691756 198.520375,213.222669 120.434902,199.239548 84.383729,198.538293" />
<g transform="translate(93 241) rotate(98) scale(9 148)"><rect fill="#262627" fill-opacity="0.5019607843137255" x="-0.5" y="-0.5" width="1" height="1" /></g>
<ellipse fill="#110f15" fill-opacity="0.5019607843137255" cx="67" cy="115" rx="1" ry="1" />
<polygon fill="#d7d3d2" fill-opacity="0.5019607843137255" points="238.437378,29.254071 133.298233,41.292489 74.573178,56.549462 128.870597,28.457829" />
<polygon fill="#9c999d" fill-opacity="0.5019607843137255" points="125,167 164,168 156,182" />
<rect fill="#d0cdcc" fill-opacity="0.5019607843137255" x="194" y="109" width="11" height="5" />
<polygon fill="#555557" fill-opacity="0.5019607843137255" points="61.922974,202.042555 -16.000000,201.099258 32.760869,212.180046 59.493096,197.996842" />
<polygon fill="#969497" fill-opacity="0.5019607843137255" points="131.233605,158.116127 159.901247,180.409091 152.616959,170.615267 136.753567,158.455840" />
<polygon fill="#ece8e6" fill-opacity="0.5019607843137255" points="136.124965,64.960901 224.184563,56.946559 178.767502,36.115687 78.723984,76.028912" />
<polygon fill="#b7b5b6" fill-opacity="0.5019607843137255" points="122.103716,122.494150 182.985773,119.847658 126.078759,118.226555 73.513177,126.510531" />
<rect fill="#908e91" fill-opacity="0.5019607843137255" x="28" y="135" width="2" height="5" />
<polygon fill="#dad5d5" fill-opacity="0.5019607843137255" points="-16.000000,142.601966 21.489827,132.768373 34.283877,143.029730 30.125532,149.405376" />
<polygon fill="#141419" fill-opacity="0.5019607843137255" points="230,213 200,186 196,215" />
<polygon fill="#606163" fill-opacity="0.5019607843137255" points="111,142 138,139 137,129" />
<g transform="translate(66 112) rotate(95) scale(2 1)"><rect fill="#191a1c" fill-opacity="0.5019607843137255" x="-0.5" y="-0.5" width="1" height="1" /></g>
<ellipse fill="#b8b5b6" fill-opacity="0.5019607843137255" cx="156" cy="13" rx="29" ry="5" />
<path stroke="#29292e" stroke-opacity="0.5019607843137255" fill="none" d="M 28.335067 126.080711 Q 29.733038 127.510983, 30.335067 126.080711" stroke-width="0.500000" />
<g transform="translate(177 134) rotate(170) scale(65 4)"><rect fill="#48484a" fill-opacity="0.5019607843137255" x="-0.5" y="-0.5" width="1" height="1" /></g>
<path stroke="#78777a" stroke-opacity="0.5019607843137255" fill="none" d="M 243.179183 77.276055 Q 224.093759 97.094853, 174.865592 92.738726" stroke-width="0.500000" />
<polygon fill="#39383b" fill-opacity="0.5019607843137255" points="118,224 158,242 207,233" />
<ellipse fill="#a4a3a6" fill-opacity="0.5019607843137255" cx="197" cy="116" rx="11" ry="3" />
<polygon fill="#8e8c8f" fill-opacity="0.5019607843137255" points="166.369379,193.894003 158.974589,189.633640 166.988193,175.279043 179.238037,176.434761" />
<g transform="translate(48.147258 170.024320) rotate(174.602291) scale(62.091137 4.611608)"><ellipse fill="#9a989b" fill-opacity="0.5019607843137255" cx="0" cy="0" rx="1" ry="1" /></g>
<polygon fill="#0b0913" fill-opacity="0.5019607843137255" points="189.176310,157.300629 182.184501,169.277323 171.558260,176.668878 218.256241,166.939239" />
<polygon fill="#07050e" fill-opacity="0.5019607843137255" points="240.296363,173.502050 210.101306,164.224195 212.319549,199.437937 240.510838,202.581533" />
<ellipse fill="#505054" fill-opacity="0.5019607843137255" cx="64" cy="117" rx="1" ry="1" />
<g transform="translate(223 119) rotate(265) scale(1 24)"><rect fill="#6c6b6e" fill-opacity="0.5019607843137255" x="-0.5" y="-0.5" width="1" height="1" /></g>
<polygon fill="#1c1c20" fill-opacity="0.5019607843137255" points="201.187318,210.560335 177.573787,175.522593 165.736920,170.435214 178.331182,170.647960" />
<polygon fill="#575658" fill-opacity="0.5019607843137255" points="239.293695,102.665227 245.568557,100.117370 219.092453,103.097163 238.541009,106.397605" />
<polygon fill="#dddad9" fill-opacity="0.5019607843137255" points="56.573613,139.328937 32.776433,135.582504 48.456948,134.641762 65.535130,111.284962" />
<path stroke="#202124" stroke-opacity="0.5019607843137255" fill="none" d="M 25.059469 133.120499 Q 25.423279 135.743873, 28.071456 133.322879" stroke-width="0.500000" />
<polygon fill="#515053" fill-opacity="0.5019607843137255" points="207.970046,118.947229 210.565040,139.308753 210.400073,102.620538 208.883538,107.747710" />
<polygon fill="#323334" fill-opacity="0.5019607843137255" points="148.239501,161.339635 124.179908,156.212569 131.618865,142.813683 140.846083,161.000465" />
<g transform="translate(66 114) rotate(116) scale(2 3)"><rect fill="#141417" fill-opacity="0.5019607843137255" x="-0.5" y="-0.5" width="1" height="1" /></g>
<polygon fill="#6a6a6c" fill-opacity="0.5019607843137255" points="230.753146,100.465005 195.248938,96.759547 209.730700,114.850682 211.896083,82.054659" />
<polygon fill="#100e16" fill-opacity="0.5019607843137255" points="224.304039,138.788486 257.255306,148.044632 263.000000,185.489046 198.060613,149.507933" />
<path stroke="#c8c5c5" stroke-opacity="0.5019607843137255" fill="none" d="M 228.683246 51.932799 Q 253.801177 68.840825, 242.626710 101.157283" stroke-width="0.500000" />
</g>
</svg>