<svg xmlns="http://www.w3.org/2000/svg" version="1.1" width="744" height="768">
<rect x="0" y="0" width="744" height="768" fill="#8d8b8c" />
<g transform="scale(3) translate(0.5 0.5)">
<ellipse fill="#000000" fill-opacity="0.5019607843137255" cx="189" cy="255" rx="136" ry="136" />
<ellipse fill="#ffffff" fill-opacity="0.5019607843137255" cx="62" cy="8" rx="156" ry="156" />
<ellipse fill="#000000" fill-opacity="0.5019607843137255" cx="30" cy="255" rx="62" ry="62" />
<ellipse fill="#8b8a8e" fill-opacity="0.5019607843137255" cx="117" cy="170" rx="49" ry="49" />
<ellipse fill="#000000" fill-opacity="0.5019607843137255" cx="237" cy="174" rx="59" ry="59" />
<ellipse fill="#fffefd" fill-opacity="0.5019607843137255" cx="239" cy="42" rx="31" ry="31" />
<ellipse fill="#fffdf8" fill-opacity="0.5019607843137255" cx="51" cy="87" rx="54" ry="54" />
<ellipse fill="#ffffff" fill-opacity="0.5019607843137255" cx="137" cy="74" rx="44" ry="44" />
<ellipse fill="#18181c" fill-opacity="0.5019607843137255" cx="147" cy="143" rx="23" ry="23" />
<ellipse fill="#a2a1a5" fill-opacity="0.5019607843137255" cx="158" cy="191" rx="24" ry="24" />
<ellipse fill="#5b5b5e" fill-opacity="0.5019607843137255" cx="209" cy="85" rx="27" ry="27" />
<ellipse fill="#b1afb2" fill-opacity="0.5019607843137255" cx="112" cy="174" rx="26" ry="26" />
<ellipse fill="#949092" fill-opacity="0.5019607843137255" cx="48" cy="0" rx="49" ry="49" />
<ellipse fill="#06060c" fill-opacity="0.5019607843137255" cx="26" cy="253" rx="35" ry="35" />
<ellipse fill="#07070e" fill-opacity="0.5019607843137255" cx="216" cy="255" rx="34" ry="34" />
<ellipse fill="#363538" fill-opacity="0.5019607843137255" cx="117" cy="140" rx="13" ry="13" />
<ellipse fill="#1a1b20" fill-opacity="0.5019607843137255" cx="122" cy="255" rx="44" ry="44" />
<ellipse fill="#000008" fill-opacity="0.5019607843137255" cx="222" cy="174" rx="37" ry="37" />
<ellipse fill="#010008" fill-opacity="0.5019607843137255" cx="175" cy="156" rx="18" ry="18" />
<ellipse fill="#fffbf6" fill-opacity="0.5019607843137255" cx="188" cy="46" rx="21" ry="21" />
<ellipse fill="#e7e2e1" fill-opacity="0.5019607843137255" cx="177" cy="111" rx="15" ry="15" />
<ellipse fill="#58595d" fill-opacity="0.5019607843137255" cx="52" cy="205" rx="27" ry="27" />
<ellipse fill="#a4a1a1" fill-opacity="0.5019607843137255" cx="131" cy="0" rx="38" ry="38" />
<ellipse fill="#d9d4d3" fill-opacity="0.5019607843137255" cx="9" cy="143" rx="30" ry="30" />
<ellipse fill="#a6a3a4" fill-opacity="0.5019607843137255" cx="203" cy="0" rx="35" ry="35" />
<ellipse fill="#b7b4b7" fill-opacity="0.5019607843137255" cx="136" cy="171" rx="12" ry="12" />
<ellipse fill="#aeabac" fill-opacity="0.5019607843137255" cx="69" cy="152" rx="32" ry="32" />
<ellipse fill="#565658" fill-opacity="0.5019607843137255" cx="123" cy="210" rx="27" ry="27" />
<ellipse fill="#ece7e4" fill-opacity="0.5019607843137255" cx="36" cy="88" rx="58" ry="58" />
<ellipse fill="#e9e4e2" fill-opacity="0.5019607843137255" cx="210" cy="42" rx="22" ry="22" />
<ellipse fill="#4f5053" fill-opacity="0.5019607843137255" cx="227" cy="93" rx="15" ry="15" />
<ellipse fill="#817f83" fill-opacity="0.5019607843137255" cx="19" cy="0" rx="22" ry="22" />
<ellipse fill="#67686b" fill-opacity="0.5019607843137255" cx="16" cy="196" rx="17" ry="17" />
<ellipse fill="#000004" fill-opacity="0.5019607843137255" cx="155" cy="157" rx="10" ry="10" />
<ellipse fill="#7e7d80" fill-opacity="0.5019607843137255" cx="162" cy="127" rx="11" ry="11" />
<ellipse fill="#606064" fill-opacity="0.5019607843137255" cx="208" cy="127" rx="12" ry="12" />
<ellipse fill="#dedbdb" fill-opacity="0.5019607843137255" cx="200" cy="114" rx="7" ry="7" />
<ellipse fill="#fbf4ee" fill-opacity="0.5019607843137255" cx="145" cy="77" rx="33" ry="33" />
<ellipse fill="#807e81" fill-opacity="0.5019607843137255" cx="197" cy="84" rx="20" ry="20" />
<ellipse fill="#262728" fill-opacity="0.5019607843137255" cx="128" cy="147" rx="10" ry="10" />
<ellipse fill="#16171a" fill-opacity="0.5019607843137255" cx="172" cy="255" rx="21" ry="21" />
<ellipse fill="#6a6b6e" fill-opacity="0.5019607843137255" cx="175" cy="209" rx="16" ry="16" />
<ellipse fill="#ebe5e3" fill-opacity="0.5019607843137255" cx="247" cy="62" rx="17" ry="17" />
<ellipse fill="#626164" fill-opacity="0.5019607843137255" cx="101" cy="138" rx="8" ry="8" />
<ellipse fill="#dfdad8" fill-opacity="0.5019607843137255" cx="141" cy="40" rx="25" ry="25" />
<ellipse fill="#2a2c30" fill-opacity="0.5019607843137255" cx="27" cy="134" rx="3" ry="3" />
<ellipse fill="#434345" fill-opacity="0.5019607843137255" cx="210" cy="228" rx="15" ry="15" />
<ellipse fill="#a5a3a5" fill-opacity="0.5019607843137255" cx="229" cy="0" rx="33" ry="33" />
<ellipse fill="#b2afaf" fill-opacity="0.5019607843137255" cx="141" cy="122" rx="10" ry="10" />
<ellipse fill="#cdcac9" fill-opacity="0.5019607843137255" cx="65" cy="40" rx="22" ry="22" />
<ellipse fill="#1a1a1d" fill-opacity="0.5019607843137255" cx="119" cy="255" rx="29" ry="29" />
<ellipse fill="#343337" fill-opacity="0.5019607843137255" cx="66" cy="114" rx="3" ry="3" />
<ellipse fill="#b1aeb0" fill-opacity="0.5019607843137255" cx="113" cy="165" rx="14" ry="14" />
<ellipse fill="#222225" fill-opacity="0.5019607843137255" cx="41" cy="241" rx="29" ry="29" />
<ellipse fill="#f3eee9" fill-opacity="0.5019607843137255" cx="111" cy="91" rx="28" ry="28" />
<ellipse fill="#0a0911" fill-opacity="0.5019607843137255" cx="247" cy="132" rx="15" ry="15" />
<ellipse fill="#9c999d" fill-opacity="0.5019607843137255" cx="170" cy="184" rx="11" ry="11" />
<ellipse fill="#29292d" fill-opacity="0.5019607843137255" cx="46" cy="132" rx="3" ry="3" />
<ellipse fill="#bbb9b9" fill-opacity="0.5019607843137255" cx="24" cy="33" rx="22" ry="22" />
<ellipse fill="#727174" fill-opacity="0.5019607843137255" cx="61" cy="189" rx="19" ry="19" />
<ellipse fill="#141317" fill-opacity="0.5019607843137255" cx="230" cy="255" rx="28" ry="28" />
<ellipse fill="#f6f2ee" fill-opacity="0.5019607843137255" cx="41" cy="93" rx="31" ry="31" />
<ellipse fill="#959396" fill-opacity="0.5019607843137255" cx="133" cy="179" rx="20" ry="20" />
<ellipse fill="#010208" fill-opacity="0.5019607843137255" cx="29" cy="98" rx="2" ry="2" />
<ellipse fill="#89888a" fill-opacity="0.5019607843137255" cx="127" cy="130" rx="11" ry="11" />
<ellipse fill="#000000" fill-opacity="0.5019607843137255" cx="96" cy="117" rx="2" ry="2" />
<ellipse fill="#444447" fill-opacity="0.5019607843137255" cx="83" cy="217" rx="19" ry="19" />
<ellipse fill="#58575b" fill-opacity="0.5019607843137255" cx="29" cy="125" rx="3" ry="3" />
<ellipse fill="#b5b4b7" fill-opacity="0.5019607843137255" cx="227" cy="113" rx="7" ry="7" />
<ellipse fill="#0d0d10" fill-opacity="0.5019607843137255" cx="143" cy="154" rx="8" ry="8" />
<ellipse fill="#979598" fill-opacity="0.5019607843137255" cx="114" cy="0" rx="18" ry="18" />
<ellipse fill="#727277" fill-opacity="0.5019607843137255" cx="186" cy="124" rx="8" ry="8" />
<ellipse fill="#58585a" fill-opacity="0.5019607843137255" cx="153" cy="214" rx="17" ry="17" />
<ellipse fill="#aaa9ab" fill-opacity="0.5019607843137255" cx="29" cy="163" rx="13" ry="13" />
<ellipse fill="#99979a" fill-opacity="0.5019607843137255" cx="63" cy="0" rx="23" ry="23" />
<ellipse fill="#14151a" fill-opacity="0.5019607843137255" cx="15" cy="115" rx="2" ry="2" />
<ellipse fill="#f4efec" fill-opacity="0.5019607843137255" cx="175" cy="105" rx="11" ry="11" />
<ellipse fill="#8a898c" fill-opacity="0.5019607843137255" cx="219" cy="74" rx="14" ry="14" />
<ellipse fill="#9f9d9e" fill-opacity="0.5019607843137255" cx="178" cy="0" rx="19" ry="19" />
<ellipse fill="#c7c4c4" fill-opacity="0.5019607843137255" cx="69" cy="140" rx="16" ry="16" />
<ellipse fill="#f9f5f1" fill-opacity="0.5019607843137255" cx="0" cy="88" rx="29" ry="29" />
<ellipse fill="#1c1b21" fill-opacity="0.5019607843137255" cx="180" cy="155" rx="21" ry="21" />
<ellipse fill="#404141" fill-opacity="0.5019607843137255" cx="167" cy="141" rx="12" ry="12" />
<ellipse fill="#a19fa2" fill-opacity="0.5019607843137255" cx="159" cy="176" rx="9" ry="9" />
<ellipse fill="#515254" fill-opacity="0.5019607843137255" cx="211" cy="102" rx="9" ry="9" />
<ellipse fill="#302f33" fill-opacity="0.5019607843137255" cx="237" cy="219" rx="16" ry="16" />
<ellipse fill="#a09ea0" fill-opacity="0.5019607843137255" cx="86" cy="130" rx="10" ry="10" />
<ellipse fill="#999799" fill-opacity="0.5019607843137255" cx="145" cy="0" rx="14" ry="14" />
<ellipse fill="#3d3e40" fill-opacity="0.5019607843137255" cx="19" cy="219" rx="14" ry="14" />
<ellipse fill="#424346" fill-opacity="0.5019607843137255" cx="25" cy="130" rx="2" ry="2" />
<ellipse fill="#68696b" fill-opacity="0.5019607843137255" cx="200" cy="123" rx="8" ry="8" />
<ellipse fill="#717073" fill-opacity="0.5019607843137255" cx="91" cy="191" rx="14" ry="14" />
<ellipse fill="#f4f0ec" fill-opacity="0.5019607843137255" cx="167" cy="60" rx="20" ry="20" />
<ellipse fill="#747476" fill-opacity="0.5019607843137255" cx="32" cy="192" rx="13" ry="13" />
<ellipse fill="#9e9c9e" fill-opacity="0.5019607843137255" cx="194" cy="72" rx="11" ry="11" />
<ellipse fill="#cfcdce" fill-opacity="0.5019607843137255" cx="218" cy="112" rx="4" ry="4" />
<ellipse fill="#03000c" fill-opacity="0.5019607843137255" cx="225" cy="182" rx="20" ry="20" />
<ellipse fill="#908e90" fill-opacity="0.5019607843137255" cx="0" cy="2" rx="25" ry="25" />
<ellipse fill="#606061" fill-opacity="0.5019607843137255" cx="228" cy="92" rx="15" ry="15" />
<ellipse fill="#9a989a" fill-opacity="0.5019607843137255" cx="111" cy="131" rx="7" ry="7" />
<ellipse fill="#c8c4c3" fill-opacity="0.5019607843137255" cx="104" cy="31" rx="20" ry="20" />
<ellipse fill="#d3d0cf" fill-opacity="0.5019607843137255" cx="183" cy="27" rx="13" ry="13" />
<ellipse fill="#757579" fill-opacity="0.5019607843137255" cx="173" cy="125" rx="8" ry="8" />
<ellipse fill="#ede9e6" fill-opacity="0.5019607843137255" cx="95" cy="80" rx="36" ry="36" />
<ellipse fill="#333437" fill-opacity="0.5019607843137255" cx="227" cy="128" rx="11" ry="11" />
<ellipse fill="#949396" fill-opacity="0.5019607843137255" cx="55" cy="171" rx="15" ry="15" />
<ellipse fill="#e1dddd" fill-opacity="0.5019607843137255" cx="36" cy="132" rx="8" ry="8" />
<ellipse fill="#01000b" fill-opacity="0.5019607843137255" cx="179" cy="167" rx="9" ry="9" />
<ellipse fill="#c0bebf" fill-opacity="0.5019607843137255" cx="194" cy="114" rx="7" ry="7" />
<ellipse fill="#cbc7c7" fill-opacity="0.5019607843137255" cx="220" cy="28" rx="15" ry="15" />
<ellipse fill="#eae5e3" fill-opacity="0.5019607843137255" cx="224" cy="50" rx="11" ry="11" />
<ellipse fill="#626166" fill-opacity="0.5019607843137255" cx="191" cy="107" rx="3" ry="3" />
<ellipse fill="#5b5b5e" fill-opacity="0.5019607843137255" cx="30" cy="95" rx="2" ry="2" />
<ellipse fill="#9f9d9f" fill-opacity="0.5019607843137255" cx="143" cy="173" rx="10" ry="10" />
<ellipse fill="#3d3d3f" fill-opacity="0.5019607843137255" cx="117" cy="145" rx="6" ry="6" />
<ellipse fill="#0b0c0f" fill-opacity="0.5019607843137255" cx="26" cy="134" rx="2" ry="2" />
<ellipse fill="#727274" fill-opacity="0.5019607843137255" cx="205" cy="88" rx="17" ry="17" />
<ellipse fill="#7a797b" fill-opacity="0.5019607843137255" cx="229" cy="77" rx="9" ry="9" />
<ellipse fill="#121216" fill-opacity="0.5019607843137255" cx="66" cy="115" rx="2" ry="2" />
<ellipse fill="#1e1d21" fill-opacity="0.5019607843137255" cx="206" cy="147" rx="15" ry="15" />
<ellipse fill="#f1edea" fill-opacity="0.5019607843137255" cx="27" cy="110" rx="12" ry="12" />
<ellipse fill="#2b2b2e" fill-opacity="0.5019607843137255" cx="189" cy="190" rx="10" ry="10" />
<ellipse fill="#939094" fill-opacity="0.5019607843137255" cx="205" cy="70" rx="11" ry="11" />
<ellipse fill="#e6e2e1" fill-opacity="0.5019607843137255" cx="39" cy="124" rx="9" ry="9" />
<ellipse fill="#979597" fill-opacity="0.5019607843137255" cx="205" cy="0" rx="13" ry="13" />
<ellipse fill="#4e4e50" fill-opacity="0.5019607843137255" cx="59" cy="206" rx="13" ry="13" />
<ellipse fill="#101114" fill-opacity="0.5019607843137255" cx="46" cy="133" rx="2" ry="2" />
<ellipse fill="#e0dcdb" fill-opacity="0.5019607843137255" cx="77" cy="116" rx="10" ry="10" />
<ellipse fill="#aeacac" fill-opacity="0.5019607843137255" cx="105" cy="158" rx="11" ry="11" />
<ellipse fill="#494a4d" fill-opacity="0.5019607843137255" cx="193" cy="224" rx="12" ry="12" />
<ellipse fill="#929094" fill-opacity="0.5019607843137255" cx="15" cy="176" rx="12" ry="12" />
<ellipse fill="#a5a3a5" fill-opacity="0.5019607843137255" cx="98" cy="11" rx="16" ry="16" />
<ellipse fill="#9e9b9e" fill-opacity="0.5019607843137255" cx="154" cy="123" rx="6" ry="6" />
<ellipse fill="#d8d5d4" fill-opacity="0.5019607843137255" cx="246" cy="75" rx="7" ry="7" />
<ellipse fill="#b5b3b6" fill-opacity="0.5019607843137255" cx="243" cy="105" rx="5" ry="5" />
<ellipse fill="#878589" fill-opacity="0.5019607843137255" cx="82" cy="180" rx="11" ry="11" />
<ellipse fill="#4c4d4f" fill-opacity="0.5019607843137255" cx="233" cy="100" rx="7" ry="7" />
<ellipse fill="#212329" fill-opacity="0.5019607843137255" cx="64" cy="117" rx="1" ry="1" />
<ellipse fill="#5e5e60" fill-opacity="0.5019607843137255" cx="9" cy="200" rx="11" ry="11" />
<ellipse fill="#79787b" fill-opacity="0.5019607843137255" cx="135" cy="192" rx="15" ry="15" />
<ellipse fill="#a4a2a3" fill-opacity="0.5019607843137255" cx="131" cy="168" rx="11" ry="11" />
<ellipse fill="#272729" fill-opacity="0.5019607843137255" cx="131" cy="151" rx="7" ry="7" />
<ellipse fill="#e5e0de" fill-opacity="0.5019607843137255" cx="168" cy="41" rx="13" ry="13" />
<ellipse fill="#515153" fill-opacity="0.5019607843137255" cx="141" cy="135" rx="8" ry="8" />
<ellipse fill="#0c0b13" fill-opacity="0.5019607843137255" cx="217" cy="189" rx="27" ry="27" />
<ellipse fill="#383839" fill-opacity="0.5019607843137255" cx="220" cy="225" rx="12" ry="12" />
<ellipse fill="#16151a" fill-opacity="0.5019607843137255" cx="30" cy="255" rx="19" ry="19" />
<ellipse fill="#dbd6d5" fill-opacity="0.5019607843137255" cx="94" cy="52" rx="15" ry="15" />
<ellipse fill="#7e7c80" fill-opacity="0.5019607843137255" cx="92" cy="137" rx="5" ry="5" />
<ellipse fill="#737375" fill-opacity="0.5019607843137255" cx="172" cy="203" rx="12" ry="12" />
<ellipse fill="#828082" fill-opacity="0.5019607843137255" cx="184" cy="91" rx="7" ry="7" />
<ellipse fill="#3c3b3f" fill-opacity="0.5019607843137255" cx="28" cy="126" rx="2" ry="2" />
<ellipse fill="#d4d0cf" fill-opacity="0.5019607843137255" cx="37" cy="141" rx="11" ry="11" />
<ellipse fill="#3d3e41" fill-opacity="0.5019607843137255" cx="166" cy="232" rx="13" ry="13" />
<ellipse fill="#efebe8" fill-opacity="0.5019607843137255" cx="211" cy="51" rx="9" ry="9" />
<ellipse fill="#6d6d70" fill-opacity="0.5019607843137255" cx="220" cy="119" rx="5" ry="5" />
<ellipse fill="#39393b" fill-opacity="0.5019607843137255" cx="137" cy="232" rx="12" ry="12" />
<ellipse fill="#47484b" fill-opacity="0.5019607843137255" cx="245" cy="116" rx="4" ry="4" />
<ellipse fill="#bfbdbe" fill-opacity="0.5019607843137255" cx="232" cy="109" rx="4" ry="4" />
<ellipse fill="#969497" fill-opacity="0.5019607843137255" cx="247" cy="0" rx="20" ry="20" />
<ellipse fill="#dbd7d6" fill-opacity="0.5019607843137255" cx="58" cy="128" rx="11" ry="11" />
<ellipse fill="#dcd8d8" fill-opacity="0.5019607843137255" cx="39" cy="55" rx="14" ry="14" />
<ellipse fill="#b9b7b8" fill-opacity="0.5019607843137255" cx="56" cy="26" rx="14" ry="14" />
<ellipse fill="#888689" fill-opacity="0.5019607843137255" cx="169" cy="187" rx="13" ry="13" />
<ellipse fill="#18171b" fill-opacity="0.5019607843137255" cx="174" cy="255" rx="10" ry="10" />
<ellipse fill="#f6f1ee" fill-opacity="0.5019607843137255" cx="185" cy="55" rx="10" ry="10" />
<ellipse fill="#646465" fill-opacity="0.5019607843137255" cx="107" cy="141" rx="7" ry="7" />
<ellipse fill="#e6e1de" fill-opacity="0.5019607843137255" cx="159" cy="110" rx="9" ry="9" />
<ellipse fill="#05020e" fill-opacity="0.5019607843137255" cx="193" cy="169" rx="12" ry="12" />
<ellipse fill="#222225" fill-opacity="0.5019607843137255" cx="96" cy="119" rx="1" ry="1" />
<ellipse fill="#b3b1b2" fill-opacity="0.5019607843137255" cx="8" cy="25" rx="13" ry="13" />
<ellipse fill="#d5d4d5" fill-opacity="0.5019607843137255" cx="247" cy="90" rx="3" ry="3" />
<ellipse fill="#3e3e40" fill-opacity="0.5019607843137255" cx="109" cy="223" rx="14" ry="14" />
<ellipse fill="#878488" fill-opacity="0.5019607843137255" cx="110" cy="181" rx="11" ry="11" />
<ellipse fill="#c2c0c1" fill-opacity="0.5019607843137255" cx="9" cy="156" rx="10" ry="10" />
<ellipse fill="#d1cccb" fill-opacity="0.5019607843137255" cx="91" cy="121" rx="5" ry="5" />
<ellipse fill="#595a5b" fill-opacity="0.5019607843137255" cx="85" cy="204" rx="10" ry="10" />
<ellipse fill="#6a6a6e" fill-opacity="0.5019607843137255" cx="239" cy="84" rx="6" ry="6" />
<ellipse fill="#ece8e7" fill-opacity="0.5019607843137255" cx="20" cy="124" rx="7" ry="7" />
<ellipse fill="#1b1a1f" fill-opacity="0.5019607843137255" cx="203" cy="202" rx="14" ry="14" />
<ellipse fill="#2b2b2b" fill-opacity="0.5019607843137255" cx="182" cy="147" rx="10" ry="10" />
<ellipse fill="#303033" fill-opacity="0.5019607843137255" cx="5" cy="225" rx="10" ry="10" />
<ellipse fill="#18181b" fill-opacity="0.5019607843137255" cx="164" cy="157" rx="11" ry="11" />
<ellipse fill="#ebe7e6" fill-opacity="0.5019607843137255" cx="233" cy="60" rx="7" ry="7" />
<ellipse fill="#2a2a2c" fill-opacity="0.5019607843137255" cx="87" cy="233" rx="12" ry="12" />
<ellipse fill="#c2c0c1" fill-opacity="0.5019607843137255" cx="85" cy="147" rx="8" ry="8" />
<ellipse fill="#15141a" fill-opacity="0.5019607843137255" cx="247" cy="243" rx="19" ry="19" />
<ellipse fill="#323234" fill-opacity="0.5019607843137255" cx="190" cy="237" rx="11" ry="11" />
<ellipse fill="#3f3f42" fill-opacity="0.5019607843137255" cx="199" cy="133" rx="7" ry="7" />
<ellipse fill="#b6b4b6" fill-opacity="0.5019607843137255" cx="142" cy="16" rx="9" ry="9" />
<ellipse fill="#e1dedc" fill-opacity="0.5019607843137255" cx="187" cy="112" rx="4" ry="4" />
<ellipse fill="#4c4d51" fill-opacity="0.5019607843137255" cx="247" cy="96" rx="3" ry="3" />
<ellipse fill="#bbb8b8" fill-opacity="0.5019607843137255" cx="247" cy="40" rx="12" ry="12" />
<ellipse fill="#d9d6d4" fill-opacity="0.5019607843137255" cx="201" cy="112" rx="4" ry="4" />
<ellipse fill="#1b1b1e" fill-opacity="0.5019607843137255" cx="239" cy="131" rx="12" ry="12" />
<ellipse fill="#e9e5e3" fill-opacity="0.5019607843137255" cx="53" cy="115" rx="11" ry="11" />
<ellipse fill="#767678" fill-opacity="0.5019607843137255" cx="64" cy="187" rx="11" ry="11" />
<ellipse fill="#535155" fill-opacity="0.5019607843137255" cx="15" cy="113" rx="1" ry="1" />
<ellipse fill="#6f6f73" fill-opacity="0.5019607843137255" cx="234" cy="116" rx="4" ry="4" />
<ellipse fill="#f1edea" fill-opacity="0.5019607843137255" cx="78" cy="97" rx="19" ry="19" />
</g>
</svg>