<svg xmlns="http://www.w3.org/2000/svg" version="1.1" width="744" height="768">
<rect x="0" y="0" width="744" height="768" fill="#8d8b8c" />
<g transform="scale(3) translate(0.5 0.5)">
<ellipse fill="#000000" fill-opacity="0.5019607843137255" cx="189" cy="255" rx="136" ry="136" />
<ellipse fill="#ffffff" fill-opacity="0.5019607843137255" cx="62" cy="8" rx="156" ry="156" />
<ellipse fill="#000000" fill-opacity="0.5019607843137255" cx="30" cy="255" rx="62" ry="62" />
<ellipse fill="#8b8a8e" fill-opacity="0.5019607843137255" cx="117" cy="170" rx="49" ry="49" />
<ellipse fill="#000000" fill-opacity="0.5019607843137255" cx="237" cy="174" rx="59" ry="59" />
<ellipse fill="#fffefd" fill-opacity="0.5019607843137255" cx="239" cy="42" rx="31" ry="31" />
<ellipse fill="#fffdf8" fill-opacity="0.5019607843137255" cx="51" cy="87" rx="54" ry="54" />
<ellipse fill="#ffffff" fill-opacity="0.5019607843137255" cx="137" cy="74" rx="44" ry="44" />
<ellipse fill="#18181c" fill-opacity="0.5019607843137255" cx="147" cy="143" rx="23" ry="23" />
<ellipse fill="#a2a1a5" fill-opacity="0.5019607843137255" cx="158" cy="191" rx="24" ry="24" />
<ellipse fill="#5b5b5e" fill-opacity="0.5019607843137255" cx="209" cy="85" rx="27" ry="27" />
<ellipse fill="#b1afb2" fill-opacity="0.5019607843137255" cx="112" cy="174" rx="26" ry="26" />
<ellipse fill="#949092" fill-opacity="0.5019607843137255" cx="48" cy="0" rx="49" ry="49" />
<ellipse fill="#06060c" fill-opacity="0.5019607843137255" cx="26" cy="253" rx="35" ry="35" />
<ellipse fill="#07070e" fill-opacity="0.5019607843137255" cx="216" cy="255" rx="34" ry="34" />
<ellipse fill="#363538" fill-opacity="0.5019607843137255" cx="117" cy="140" rx="13" ry="13" />
<ellipse fill="#1a1b20" fill-opacity="0.5019607843137255" cx="122" cy="255" rx="44" ry="44" />
<ellipse fill="#000008" fill-opacity="0.5019607843137255" cx="222" cy="174" rx="37" ry="37" />
<ellipse fill="#010008" fill-opacity="0.5019607843137255" cx="175" cy="156" rx="18" ry="18" />
<ellipse fill="#fffbf6" fill-opacity="0.5019607843137255" cx="188" cy="46" rx="21" ry="21" />
<ellipse fill="#e7e2e1" fill-opacity="0.5019607843137255" cx="177" cy="111" rx="15" ry="15" />
<ellipse fill="#58595d" fill-opacity="0.5019607843137255" cx="52" cy="205" rx="27" ry="27" />
<ellipse fill="#a4a1a1" fill-opacity="0.5019607843137255" cx="131" cy="0" rx="38" ry="38" />
<ellipse fill="#d9d4d3" fill-opacity="0.5019607843137255" cx="9" cy="143" rx="30" ry="30" />
<ellipse fill="#a6a3a4" fill-opacity="0.5019607843137255" cx="203" cy="0" rx="35" ry="35" />
<ellipse fill="#b7b4b7" fill-opacity="0.5019607843137255" cx="136" cy="171" rx="12" ry="12" />
<ellipse fill="#aeabac" fill-opacity="0.5019607843137255" cx="69" cy="152" rx="32" ry="32" />
<ellipse fill="#565658" fill-opacity="0.5019607843137255" cx="123" cy="210" rx="27" ry="27" />
<ellipse fill="#ece7e4" fill-opacity="0.5019607843137255" cx="36" cy="88" rx="58" ry="58" />
<ellipse fill="#e9e4e2" fill-opacity="0.5019607843137255" cx="210" cy="42" rx="22" ry="22" />
<ellipse fill="#4f5053" fill-opacity="0.5019607843137255" cx="227" cy="93" rx="15" ry="15" />
<ellipse fill="#817f83" fill-opacity="0.5019607843137255" cx="19" cy="0" rx="22" ry="22" />
<ellipse fill="#67686b" fill-opacity="0.5019607843137255" cx="16" cy="196" rx="17" ry="17" />
<ellipse fill="#000004" fill-opacity="0.5019607843137255" cx="155" cy="157" rx="10" ry="10" />
<ellipse fill="#7e7d80" fill-opacity="0.5019607843137255" cx="162" cy="127" rx="11" ry="11" />
<ellipse fill="#606064" fill-opacity="0.5019607843137255" cx="208" cy="127" rx="12" ry="12" />
<ellipse fill="#dedbdb" fill-opacity="0.5019607843137255" cx="200" cy="114" rx="7" ry="7" />
<ellipse fill="#fbf4ee" fill-opacity="0.5019607843137255" cx="145" cy="77" rx="33" ry="33" />
<ellipse fill="#807e81" fill-opacity="0.5019607843137255" cx="197" cy="84" rx="20" ry="20" />
<ellipse fill="#262728" fill-opacity="0.5019607843137255" cx="128" cy="147" rx="10" ry="10" />
<ellipse fill="#16171a" fill-opacity="0.5019607843137255" cx="172" cy="255" rx="21" ry="21" />
<ellipse fill="#6a6b6e" fill-opacity="0.5019607843137255" cx="175" cy="209" rx="16" ry="16" />
<ellipse fill="#ebe5e3" fill-opacity="0.5019607843137255" cx="247" cy="62" rx="17" ry="17" />
<ellipse fill="#626164" fill-opacity="0.5019607843137255" cx="101" cy="138" rx="8" ry="8" />
<ellipse fill="#dfdad8" fill-opacity="0.5019607843137255" cx="141" cy="40" rx="25" ry="25" />
<ellipse fill="#2a2c30" fill-opacity="0.5019607843137255" cx="27" cy="134" rx="3" ry="3" />
<ellipse fill="#434345" fill-opacity="0.5019607843137255" cx="210" cy="228" rx="15" ry="15" />
<ellipse fill="#a5a3a5" fill-opacity="0.5019607843137255" cx="229" cy="0" rx="33" ry="33" />
<ellipse fill="#b2afaf" fill-opacity="0.5019607843137255" cx="141" cy="122" rx="10" ry="10" />
<ellipse fill="#cdcac9" fill-opacity="0.5019607843137255" cx="65" cy="40" rx="22" ry="22" />
</g>
</svg>