<svg xmlns="http://www.w3.org/2000/svg" version="1.1" width="744" height="768">
<rect x="0" y="0" width="744" height="768" fill="#8d8b8c" />
<g transform="scale(3) translate(0.5 0.5)">
<ellipse fill="#000000" fill-opacity="0.5019607843137255" cx="228" cy="233" rx="230" ry="107" />
<ellipse fill="#ffffff" fill-opacity="0.5019607843137255" cx="68" cy="36" rx="128" ry="151" />
<ellipse fill="#000006" fill-opacity="0.5019607843137255" cx="208" cy="143" rx="103" ry="25" />
<ellipse fill="#f8f2ee" fill-opacity="0.5019607843137255" cx="102" cy="54" rx="227" ry="29" />
<ellipse fill="#afadb2" fill-opacity="0.5019607843137255" cx="132" cy="186" rx="49" ry="24" />
<ellipse fill="#000000" fill-opacity="0.5019607843137255" cx="223" cy="205" rx="37" ry="71" />
<ellipse fill="#fffffe" fill-opacity="0.5019607843137255" cx="39" cy="92" rx="140" ry="33" />
<ellipse fill="#a29fa1" fill-opacity="0.5019607843137255" cx="24" cy="15" rx="247" ry="24" />
<ellipse fill="#515156" fill-opacity="0.5019607843137255" cx="210" cy="85" rx="32" ry="24" />
<ellipse fill="#06070c" fill-opacity="0.5019607843137255" cx="49" cy="252" rx="148" ry="28" />
<ellipse fill="#868589" fill-opacity="0.5019607843137255" cx="30" cy="182" rx="151" ry="23" />
<ellipse fill="#e8e4e3" fill-opacity="0.5019607843137255" cx="226" cy="39" rx="112" ry="25" />
<ellipse fill="#6e6d6f" fill-opacity="0.5019607843137255" cx="110" cy="134" rx="31" ry="11" />
<ellipse fill="#d9d4d3" fill-opacity="0.5019607843137255" cx="160" cy="113" rx="47" ry="13" />
<ellipse fill="#00000b" fill-opacity="0.5019607843137255" cx="224" cy="173" rx="46" ry="33" />
<ellipse fill="#8b898b" fill-opacity="0.5019607843137255" cx="0" cy="0" rx="194" ry="16" />
<ellipse fill="#525356" fill-opacity="0.5019607843137255" cx="140" cy="217" rx="68" ry="22" />
<ellipse fill="#747375" fill-opacity="0.5019607843137255" cx="169" cy="127" rx="50" ry="10" />
<ellipse fill="#121314" fill-opacity="0.5019607843137255" cx="142" cy="150" rx="21" ry="9" />
<ellipse fill="#666669" fill-opacity="0.5019607843137255" cx="43" cy="194" rx="78" ry="17" />
<ellipse fill="#faf4ef" fill-opacity="0.5019607843137255" cx="148" cy="79" rx="30" ry="37" />
<ellipse fill="#1e1c22" fill-opacity="0.5019607843137255" cx="247" cy="142" rx="43" ry="28" />
<ellipse fill="#f0e9e5" fill-opacity="0.5019607843137255" cx="23" cy="103" rx="56" ry="45" />
<ellipse fill="#a09ea0" fill-opacity="0.5019607843137255" cx="120" cy="173" rx="30" ry="18" />
<ellipse fill="#7a7a7c" fill-opacity="0.5019607843137255" cx="167" cy="206" rx="21" ry="13" />
<ellipse fill="#000007" fill-opacity="0.5019607843137255" cx="185" cy="167" rx="20" ry="10" />
<ellipse fill="#3a3b3e" fill-opacity="0.5019607843137255" cx="26" cy="217" rx="79" ry="17" />
<ellipse fill="#b6b3b5" fill-opacity="0.5019607843137255" cx="94" cy="156" rx="28" ry="9" />
<ellipse fill="#b1adae" fill-opacity="0.5019607843137255" cx="114" cy="123" rx="40" ry="8" />
<ellipse fill="#414144" fill-opacity="0.5019607843137255" cx="180" cy="227" rx="53" ry="14" />
<ellipse fill="#8e8c8f" fill-opacity="0.5019607843137255" cx="70" cy="179" rx="110" ry="13" />
<ellipse fill="#292b2e" fill-opacity="0.5019607843137255" cx="26" cy="133" rx="3" ry="4" />
<ellipse fill="#b2b0b1" fill-opacity="0.5019607843137255" cx="216" cy="14" rx="171" ry="10" />
<ellipse fill="#c5c2c2" fill-opacity="0.5019607843137255" cx="28" cy="40" rx="103" ry="10" />
<ellipse fill="#515253" fill-opacity="0.5019607843137255" cx="230" cy="94" rx="13" ry="13" />
<ellipse fill="#fcf7f4" fill-opacity="0.5019607843137255" cx="178" cy="107" rx="9" ry="10" />
<ellipse fill="#f5f1ef" fill-opacity="0.5019607843137255" cx="197" cy="49" rx="33" ry="11" />
<ellipse fill="#000000" fill-opacity="0.5019607843137255" cx="66" cy="114" rx="2" ry="3" />
<ellipse fill="#0c0a13" fill-opacity="0.5019607843137255" cx="213" cy="186" rx="32" ry="31" />
<ellipse fill="#dbd8d8" fill-opacity="0.5019607843137255" cx="244" cy="61" rx="13" ry="20" />
<ellipse fill="#000000" fill-opacity="0.5019607843137255" cx="47" cy="133" rx="2" ry="2" />
<ellipse fill="#141218" fill-opacity="0.5019607843137255" cx="173" cy="160" rx="30" ry="8" />
<ellipse fill="#404041" fill-opacity="0.5019607843137255" cx="162" cy="139" rx="29" ry="9" />
<ellipse fill="#29292e" fill-opacity="0.5019607843137255" cx="28" cy="126" rx="2" ry="3" />
<ellipse fill="#a9a7a8" fill-opacity="0.5019607843137255" cx="63" cy="163" rx="80" ry="10" />
<ellipse fill="#f1ece9" fill-opacity="0.5019607843137255" cx="72" cy="85" rx="106" ry="28" />
<ellipse fill="#666568" fill-opacity="0.5019607843137255" cx="109" cy="139" rx="16" ry="8" />
<ellipse fill="#939296" fill-opacity="0.5019607843137255" cx="209" cy="67" rx="22" ry="8" />
<ellipse fill="#cecccd" fill-opacity="0.5019607843137255" cx="229" cy="110" rx="13" ry="3" />
<ellipse fill="#7e7c80" fill-opacity="0.5019607843137255" cx="0" cy="1" rx="46" ry="10" />
<ellipse fill="#16141a" fill-opacity="0.5019607843137255" cx="31" cy="254" rx="119" ry="14" />
<ellipse fill="#2b2b2d" fill-opacity="0.5019607843137255" cx="61" cy="232" rx="113" ry="12" />
<ellipse fill="#535455" fill-opacity="0.5019607843137255" cx="208" cy="104" rx="20" ry="5" />
<ellipse fill="#757576" fill-opacity="0.5019607843137255" cx="28" cy="97" rx="4" ry="3" />
<ellipse fill="#adabad" fill-opacity="0.5019607843137255" cx="247" cy="31" rx="15" ry="21" />
<ellipse fill="#4a4b4c" fill-opacity="0.5019607843137255" cx="216" cy="127" rx="15" ry="11" />
<ellipse fill="#a4a2a5" fill-opacity="0.5019607843137255" cx="138" cy="172" rx="27" ry="7" />
<ellipse fill="#5a5a5b" fill-opacity="0.5019607843137255" cx="48" cy="205" rx="109" ry="9" />
<ellipse fill="#222123" fill-opacity="0.5019607843137255" cx="97" cy="117" rx="2" ry="3" />
<ellipse fill="#4d4d50" fill-opacity="0.5019607843137255" cx="15" cy="114" rx="2" ry="3" />
<ellipse fill="#717173" fill-opacity="0.5019607843137255" cx="72" cy="190" rx="76" ry="9" />
<ellipse fill="#5f5f61" fill-opacity="0.5019607843137255" cx="169" cy="216" rx="28" ry="8" />
<ellipse fill="#79787b" fill-opacity="0.5019607843137255" cx="216" cy="82" rx="28" ry="11" />
<ellipse fill="#f9f6f2" fill-opacity="0.5019607843137255" cx="13" cy="95" rx="15" ry="20" />
<ellipse fill="#e2dddc" fill-opacity="0.5019607843137255" cx="63" cy="61" rx="60" ry="14" />
<ellipse fill="#7b7a7d" fill-opacity="0.5019607843137255" cx="215" cy="118" rx="21" ry="3" />
<ellipse fill="#252426" fill-opacity="0.5019607843137255" cx="195" cy="146" rx="21" ry="15" />
<ellipse fill="#313131" fill-opacity="0.5019607843137255" cx="190" cy="194" rx="9" ry="12" />
<ellipse fill="#c6c4c3" fill-opacity="0.5019607843137255" cx="154" cy="23" rx="60" ry="7" />
<ellipse fill="#ddd9d9" fill-opacity="0.5019607843137255" cx="171" cy="113" rx="36" ry="3" />
<ellipse fill="#202023" fill-opacity="0.5019607843137255" cx="151" cy="153" rx="22" ry="9" />
<ellipse fill="#8b8a8d" fill-opacity="0.5019607843137255" cx="113" cy="132" rx="14" ry="6" />
<ellipse fill="#979597" fill-opacity="0.5019607843137255" cx="188" cy="84" rx="6" ry="20" />
<ellipse fill="#323236" fill-opacity="0.5019607843137255" cx="46" cy="132" rx="2" ry="3" />
<ellipse fill="#9e9c9d" fill-opacity="0.5019607843137255" cx="19" cy="15" rx="38" ry="8" />
<ellipse fill="#cecaca" fill-opacity="0.5019607843137255" cx="75" cy="124" rx="26" ry="8" />
<ellipse fill="#848285" fill-opacity="0.5019607843137255" cx="170" cy="195" rx="12" ry="11" />
<ellipse fill="#faf6f3" fill-opacity="0.5019607843137255" cx="167" cy="66" rx="17" ry="11" />
<ellipse fill="#303032" fill-opacity="0.5019607843137255" cx="170" cy="240" rx="43" ry="6" />
<ellipse fill="#939194" fill-opacity="0.5019607843137255" cx="153" cy="182" rx="31" ry="6" />
<ellipse fill="#0f0e15" fill-opacity="0.5019607843137255" cx="242" cy="147" rx="16" ry="30" />
<ellipse fill="#3f4041" fill-opacity="0.5019607843137255" cx="140" cy="143" rx="29" ry="4" />
<ellipse fill="#100e18" fill-opacity="0.5019607843137255" cx="247" cy="255" rx="35" ry="19" />
<ellipse fill="#bebcbe" fill-opacity="0.5019607843137255" cx="221" cy="113" rx="10" ry="3" />
<ellipse fill="#545456" fill-opacity="0.5019607843137255" cx="211" cy="104" rx="7" ry="8" />
<ellipse fill="#343438" fill-opacity="0.5019607843137255" cx="247" cy="215" rx="17" ry="13" />
<ellipse fill="#706f72" fill-opacity="0.5019607843137255" cx="155" cy="202" rx="34" ry="6" />
<ellipse fill="#7e7c7e" fill-opacity="0.5019607843137255" cx="190" cy="92" rx="14" ry="5" />
<ellipse fill="#bab8b9" fill-opacity="0.5019607843137255" cx="162" cy="118" rx="28" ry="3" />
<ellipse fill="#b9b7b7" fill-opacity="0.5019607843137255" cx="0" cy="164" rx="18" ry="11" />
<ellipse fill="#b5b3b4" fill-opacity="0.5019607843137255" cx="80" cy="151" rx="33" ry="6" />
<ellipse fill="#d7d5d6" fill-opacity="0.5019607843137255" cx="247" cy="85" rx="3" ry="8" />
<ellipse fill="#e7e2e0" fill-opacity="0.5019607843137255" cx="116" cy="113" rx="21" ry="5" />
<ellipse fill="#dedad9" fill-opacity="0.5019607843137255" cx="162" cy="41" rx="63" ry="9" />
<ellipse fill="#b8b7b9" fill-opacity="0.5019607843137255" cx="247" cy="105" rx="9" ry="5" />
<ellipse fill="#454547" fill-opacity="0.5019607843137255" cx="232" cy="101" rx="7" ry="5" />
<ellipse fill="#8a878b" fill-opacity="0.5019607843137255" cx="57" cy="177" rx="70" ry="8" />
<ellipse fill="#000000" fill-opacity="0.5019607843137255" cx="30" cy="98" rx="2" ry="1" />
<ellipse fill="#444446" fill-opacity="0.5019607843137255" cx="211" cy="221" rx="22" ry="6" />
<ellipse fill="#d4d0ce" fill-opacity="0.5019607843137255" cx="17" cy="141" rx="71" ry="6" />
<ellipse fill="#e2dedd" fill-opacity="0.5019607843137255" cx="235" cy="56" rx="9" ry="14" />
<ellipse fill="#edeae7" fill-opacity="0.5019607843137255" cx="170" cy="53" rx="40" ry="12" />
<ellipse fill="#15151a" fill-opacity="0.5019607843137255" cx="156" cy="161" rx="10" ry="6" />
<ellipse fill="#a3a1a3" fill-opacity="0.5019607843137255" cx="225" cy="6" rx="57" ry="12" />
<ellipse fill="#04020c" fill-opacity="0.5019607843137255" cx="224" cy="181" rx="22" ry="16" />
<ellipse fill="#706f73" fill-opacity="0.5019607843137255" cx="192" cy="106" rx="4" ry="4" />
<ellipse fill="#e9e5e4" fill-opacity="0.5019607843137255" cx="35" cy="132" rx="8" ry="7" />
<ellipse fill="#080710" fill-opacity="0.5019607843137255" cx="202" cy="169" rx="34" ry="9" />
<ellipse fill="#414144" fill-opacity="0.5019607843137255" cx="1" cy="213" rx="83" ry="6" />
<ellipse fill="#b6b3b4" fill-opacity="0.5019607843137255" cx="79" cy="142" rx="8" ry="16" />
<ellipse fill="#565558" fill-opacity="0.5019607843137255" cx="15" cy="115" rx="2" ry="3" />
<ellipse fill="#48484c" fill-opacity="0.5019607843137255" cx="28" cy="123" rx="1" ry="3" />
<ellipse fill="#b7b5b5" fill-opacity="0.5019607843137255" cx="188" cy="15" rx="48" ry="5" />
<ellipse fill="#f4f0eb" fill-opacity="0.5019607843137255" cx="91" cy="92" rx="61" ry="11" />
<ellipse fill="#f3efec" fill-opacity="0.5019607843137255" cx="31" cy="110" rx="16" ry="12" />
<ellipse fill="#dedbd9" fill-opacity="0.5019607843137255" cx="239" cy="64" rx="2" ry="17" />
<ellipse fill="#a5a3a5" fill-opacity="0.5019607843137255" cx="104" cy="160" rx="24" ry="9" />
<ellipse fill="#444446" fill-opacity="0.5019607843137255" cx="166" cy="227" rx="46" ry="7" />
<ellipse fill="#57575b" fill-opacity="0.5019607843137255" cx="30" cy="96" rx="2" ry="3" />
<ellipse fill="#c8c5c4" fill-opacity="0.5019607843137255" cx="17" cy="40" rx="102" ry="4" />
<ellipse fill="#17171c" fill-opacity="0.5019607843137255" cx="200" cy="198" rx="9" ry="18" />
<ellipse fill="#272828" fill-opacity="0.5019607843137255" cx="231" cy="131" rx="11" ry="8" />
<ellipse fill="#e8e4e3" fill-opacity="0.5019607843137255" cx="16" cy="128" rx="9" ry="12" />
<ellipse fill="#f0ece9" fill-opacity="0.5019607843137255" cx="23" cy="112" rx="6" ry="17" />
<ellipse fill="#4b4b4d" fill-opacity="0.5019607843137255" cx="209" cy="120" rx="2" ry="15" />
<ellipse fill="#efebe9" fill-opacity="0.5019607843137255" cx="40" cy="96" rx="9" ry="41" />
<ellipse fill="#56565a" fill-opacity="0.5019607843137255" cx="65" cy="114" rx="2" ry="4" />
<ellipse fill="#f0ece9" fill-opacity="0.5019607843137255" cx="48" cy="109" rx="18" ry="14" />
<ellipse fill="#dad6d5" fill-opacity="0.5019607843137255" cx="58" cy="132" rx="10" ry="10" />
<ellipse fill="#d8d5d4" fill-opacity="0.5019607843137255" cx="199" cy="110" rx="6" ry="3" />
<ellipse fill="#606062" fill-opacity="0.5019607843137255" cx="7" cy="199" rx="112" ry="5" />
<ellipse fill="#646567" fill-opacity="0.5019607843137255" cx="155" cy="130" rx="29" ry="3" />
<ellipse fill="#050509" fill-opacity="0.5019607843137255" cx="96" cy="118" rx="1" ry="3" />
<ellipse fill="#201f23" fill-opacity="0.5019607843137255" cx="236" cy="231" rx="20" ry="12" />
<ellipse fill="#b2b0b1" fill-opacity="0.5019607843137255" cx="5" cy="27" rx="67" ry="6" />
<ellipse fill="#3e4043" fill-opacity="0.5019607843137255" cx="247" cy="96" rx="2" ry="3" />
<ellipse fill="#cbc8c8" fill-opacity="0.5019607843137255" cx="228" cy="37" rx="11" ry="12" />
<ellipse fill="#646466" fill-opacity="0.5019607843137255" cx="234" cy="85" rx="11" ry="5" />
<ellipse fill="#9f9d9f" fill-opacity="0.5019607843137255" cx="212" cy="63" rx="14" ry="5" />
<ellipse fill="#dbd7d5" fill-opacity="0.5019607843137255" cx="104" cy="119" rx="7" ry="3" />
<ellipse fill="#787679" fill-opacity="0.5019607843137255" cx="223" cy="74" rx="14" ry="5" />
<ellipse fill="#8d8b8f" fill-opacity="0.5019607843137255" cx="240" cy="0" rx="14" ry="10" />
<ellipse fill="#717173" fill-opacity="0.5019607843137255" cx="235" cy="115" rx="14" ry="2" />
<ellipse fill="#0a0a0e" fill-opacity="0.5019607843137255" cx="66" cy="114" rx="1" ry="3" />
<ellipse fill="#1c1c20" fill-opacity="0.5019607843137255" cx="38" cy="246" rx="59" ry="11" />
<ellipse fill="#606063" fill-opacity="0.5019607843137255" cx="156" cy="211" rx="35" ry="5" />
<ellipse fill="#eee9e7" fill-opacity="0.5019607843137255" cx="116" cy="81" rx="29" ry="31" />
<ellipse fill="#767677" fill-opacity="0.5019607843137255" cx="139" cy="197" rx="35" ry="4" />
<ellipse fill="#e1dddc" fill-opacity="0.5019607843137255" cx="148" cy="111" rx="41" ry="6" />
<ellipse fill="#ebe6e3" fill-opacity="0.5019607843137255" cx="81" cy="107" rx="15" ry="17" />
<ellipse fill="#ede9e7" fill-opacity="0.5019607843137255" cx="173" cy="104" rx="15" ry="5" />
<ellipse fill="#262628" fill-opacity="0.5019607843137255" cx="185" cy="189" rx="4" ry="14" />
<ellipse fill="#b4b2b4" fill-opacity="0.5019607843137255" cx="183" cy="75" rx="4" ry="5" />
<ellipse fill="#d8d4d3" fill-opacity="0.5019607843137255" cx="33" cy="50" rx="81" ry="5" />
<ellipse fill="#dbd8d8" fill-opacity="0.5019607843137255" cx="27" cy="129" rx="1" ry="3" />
<ellipse fill="#9c9a9c" fill-opacity="0.5019607843137255" cx="74" cy="169" rx="90" ry="5" />
<ellipse fill="#67686a" fill-opacity="0.5019607843137255" cx="180" cy="125" rx="14" ry="3" />
<ellipse fill="#818083" fill-opacity="0.5019607843137255" cx="140" cy="127" rx="20" ry="3" />
<ellipse fill="#d6d2d0" fill-opacity="0.5019607843137255" cx="201" cy="29" rx="22" ry="5" />
<ellipse fill="#06070a" fill-opacity="0.5019607843137255" cx="26" cy="133" rx="1" ry="2" />
<ellipse fill="#3d3d3f" fill-opacity="0.5019607843137255" cx="182" cy="136" rx="26" ry="3" />
<ellipse fill="#4f5156" fill-opacity="0.5019607843137255" cx="28" cy="136" rx="1" ry="2" />
<ellipse fill="#d0cdcb" fill-opacity="0.5019607843137255" cx="126" cy="34" rx="29" ry="6" />
<ellipse fill="#6a6a6c" fill-opacity="0.5019607843137255" cx="105" cy="141" rx="4" ry="7" />
<ellipse fill="#383839" fill-opacity="0.5019607843137255" cx="125" cy="148" rx="12" ry="5" />
<ellipse fill="#090710" fill-opacity="0.5019607843137255" cx="229" cy="151" rx="24" ry="7" />
<ellipse fill="#39393b" fill-opacity="0.5019607843137255" cx="31" cy="222" rx="103" ry="5" />
<ellipse fill="#aeadae" fill-opacity="0.5019607843137255" cx="186" cy="116" rx="21" ry="2" />
<ellipse fill="#bfbdbd" fill-opacity="0.5019607843137255" cx="5" cy="158" rx="35" ry="6" />
<ellipse fill="#707173" fill-opacity="0.5019607843137255" cx="198" cy="101" rx="8" ry="8" />
<ellipse fill="#89878a" fill-opacity="0.5019607843137255" cx="193" cy="83" rx="16" ry="9" />
<ellipse fill="#807e81" fill-opacity="0.5019607843137255" cx="61" cy="182" rx="49" ry="6" />
<ellipse fill="#1b1a1f" fill-opacity="0.5019607843137255" cx="191" cy="255" rx="41" ry="7" />
<ellipse fill="#b3b1b2" fill-opacity="0.5019607843137255" cx="91" cy="150" rx="10" ry="9" />
<ellipse fill="#2f3031" fill-opacity="0.5019607843137255" cx="183" cy="187" rx="4" ry="3" />
<ellipse fill="#6a6a6c" fill-opacity="0.5019607843137255" cx="170" cy="206" rx="20" ry="6" />
<ellipse fill="#0d0b14" fill-opacity="0.5019607843137255" cx="190" cy="166" rx="27" ry="9" />
<ellipse fill="#d0ccca" fill-opacity="0.5019607843137255" cx="17" cy="147" rx="52" ry="4" />
<ellipse fill="#646466" fill-opacity="0.5019607843137255" cx="214" cy="99" rx="13" ry="11" />
<ellipse fill="#2b2b2c" fill-opacity="0.5019607843137255" cx="133" cy="152" rx="8" ry="6" />
<ellipse fill="#e3dfde" fill-opacity="0.5019607843137255" cx="41" cy="123" rx="9" ry="9" />
<ellipse fill="#868386" fill-opacity="0.5019607843137255" cx="131" cy="187" rx="26" ry="6" />
<ellipse fill="#a7a5a8" fill-opacity="0.5019607843137255" cx="92" cy="130" rx="16" ry="4" />
<ellipse fill="#aaa9aa" fill-opacity="0.5019607843137255" cx="243" cy="101" rx="4" ry="4" />
<ellipse fill="#9b999c" fill-opacity="0.5019607843137255" cx="63" cy="4" rx="34" ry="8" />
<ellipse fill="#565657" fill-opacity="0.5019607843137255" cx="185" cy="219" rx="17" ry="5" />
<ellipse fill="#57575a" fill-opacity="0.5019607843137255" cx="235" cy="96" rx="5" ry="11" />
<ellipse fill="#47484c" fill-opacity="0.5019607843137255" cx="47" cy="130" rx="1" ry="3" />
<ellipse fill="#939296" fill-opacity="0.5019607843137255" cx="158" cy="122" rx="23" ry="2" />
<ellipse fill="#1d1d20" fill-opacity="0.5019607843137255" cx="142" cy="154" rx="6" ry="8" />
<ellipse fill="#e9e5e4" fill-opacity="0.5019607843137255" cx="226" cy="56" rx="13" ry="4" />
<ellipse fill="#a2a0a2" fill-opacity="0.5019607843137255" cx="194" cy="69" rx="7" ry="7" />
<ellipse fill="#6b6a6a" fill-opacity="0.5019607843137255" cx="44" cy="134" rx="1" ry="2" />
<ellipse fill="#000000" fill-opacity="0.5019607843137255" cx="46" cy="133" rx="2" ry="1" />
<ellipse fill="#f4f0ed" fill-opacity="0.5019607843137255" cx="7" cy="88" rx="24" ry="17" />
<ellipse fill="#cbc8c6" fill-opacity="0.5019607843137255" cx="243" cy="50" rx="9" ry="7" />
<ellipse fill="#101215" fill-opacity="0.5019607843137255" cx="26" cy="134" rx="2" ry="1" />
<ellipse fill="#acaaab" fill-opacity="0.5019607843137255" cx="52" cy="160" rx="25" ry="4" />
<ellipse fill="#929094" fill-opacity="0.5019607843137255" cx="195" cy="118" rx="13" ry="2" />
<ellipse fill="#e1dddd" fill-opacity="0.5019607843137255" cx="59" cy="59" rx="46" ry="6" />
</g>
</svg>