<svg xmlns="http://www.w3.org/2000/svg" version="1.1" width="744" height="768">
<rect x="0" y="0" width="744" height="768" fill="#8d8b8c" />
<g transform="scale(3) translate(0.5 0.5)">
<polygon fill="#000000" fill-opacity="0.5019607843137255" points="-16.000000,262.094692 -3.739642,213.624722 247.827721,106.565111 249.434910,271.000000" />
<polygon fill="#ffffff" fill-opacity="0.5019607843137255" points="263.000000,11.387257 -0.783148,14.852251 -16.000000,177.471215 175.171771,112.839707" />
<polygon fill="#000001" fill-opacity="0.5019607843137255" points="176.172779,177.620283 242.930649,271.000000 263.000000,118.883842 82.742289,136.159138" />
<polygon fill="#bdbbbd" fill-opacity="0.5019607843137255" points="39.274255,121.976682 183.448588,178.165558 179.209187,212.171396 61.202759,198.555249" />
<polygon fill="#fffffa" fill-opacity="0.5019607843137255" points="-8.043168,50.353977 263.000000,31.402090 250.038456,58.092708 1.314489,148.222034" />
<polygon fill="#525256" fill-opacity="0.5019607843137255" points="207.745324,57.488074 263.000000,100.550870 192.155261,110.179634 175.859039,79.235298" />
<polygon fill="#07070c" fill-opacity="0.5019607843137255" points="263.000000,240.694991 -4.286302,220.832321 0.939972,271.000000 263.000000,266.575301" />
<polygon fill="#fbf4f1" fill-opacity="0.5019607843137255" points="177.758420,24.992840 3.123415,113.617107 211.487954,118.680877 179.665365,99.052889" />
<polygon fill="#868588" fill-opacity="0.5019607843137255" points="103.713932,148.950544 87.992978,141.754991 77.663174,125.941218 263.000000,108.559945" />
<polygon fill="#5c5d60" fill-opacity="0.5019607843137255" points="208.578315,209.457243 -12.088824,212.916550 8.044973,176.478935 -16.000000,173.009877" />
<polygon fill="#f3eeed" fill-opacity="0.5019607843137255" points="225.591408,59.894791 263.000000,103.430119 238.171578,114.622211 257.939425,43.239878" />
<polygon fill="#aeabad" fill-opacity="0.5019607843137255" points="-4.979186,34.979551 263.000000,20.491141 205.046489,-16.000000 -14.253079,9.734066" />
<polygon fill="#000008" fill-opacity="0.5019607843137255" points="254.345536,132.392843 171.553378,155.903711 193.954490,217.077599 263.000000,199.400052" />
<polygon fill="#aba9ab" fill-opacity="0.5019607843137255" points="176.091915,186.026777 -16.000000,168.050108 84.488165,139.527742 175.938942,174.443003" />
<polygon fill="#515254" fill-opacity="0.5019607843137255" points="232.728181,135.010627 195.535711,98.421307 251.304632,93.434033 162.698006,138.463242" />
<polygon fill="#666669" fill-opacity="0.5019607843137255" points="184.269473,223.333249 226.260459,223.811538 72.656115,171.581142 -12.024801,201.207130" />
<polygon fill="#5c595c" fill-opacity="0.5019607843137255" points="23.379602,135.473227 28.898674,119.869914 29.999723,131.449884 28.629017,138.024433" />
<polygon fill="#868487" fill-opacity="0.5019607843137255" points="193.068079,112.424841 230.490619,60.958824 189.908163,62.679202 176.142333,88.283833" />
<polygon fill="#b6b5b6" fill-opacity="0.5019607843137255" points="263.000000,53.229998 246.918302,105.467203 126.235413,122.934064 252.833530,114.666759" />
<polygon fill="#cbc7c6" fill-opacity="0.5019607843137255" points="99.458874,150.078938 68.071843,107.400548 60.769206,118.397442 27.132469,166.225706" />
<polygon fill="#39393b" fill-opacity="0.5019607843137255" points="-4.151950,198.429167 231.077214,244.002523 -10.929806,230.225853 1.128719,234.358828" />
<polygon fill="#dcd6d4" fill-opacity="0.5019607843137255" points="213.821376,49.741882 -14.904308,49.954577 230.398011,21.887452 263.000000,101.931577" />
<polygon fill="#b0aeaf" fill-opacity="0.5019607843137255" points="209.243300,21.602381 35.665429,6.976126 261.115643,5.460221 254.055997,63.539236" />
<polygon fill="#fdf6f2" fill-opacity="0.5019607843137255" points="87.132237,72.941685 29.182687,95.427461 -14.909051,137.084953 -16.000000,60.411707" />
<polygon fill="#414144" fill-opacity="0.5019607843137255" points="263.000000,118.710855 178.524075,122.255540 111.819850,143.888939 123.275256,155.517987" />
<polygon fill="#8b898d" fill-opacity="0.5019607843137255" points="183.028216,189.103212 50.400676,193.441106 -16.000000,182.962429 84.610654,160.854794" />
<polygon fill="#9e9d9e" fill-opacity="0.5019607843137255" points="0.614406,14.997941 -16.000000,30.628551 104.171689,17.295920 53.066043,-6.213370" />
<polygon fill="#f1ede9" fill-opacity="0.5019607843137255" points="176.413581,89.500817 194.162105,28.805132 39.887454,109.926558 190.508789,114.276752" />
<polygon fill="#232327" fill-opacity="0.5019607843137255" points="131.570529,158.641291 223.364769,158.006545 130.370587,141.676533 120.174359,155.220568" />
<polygon fill="#8b898c" fill-opacity="0.5019607843137255" points="105.112452,147.461686 68.686017,132.695399 165.988059,120.119468 104.417902,142.658056" />
<polygon fill="#363639" fill-opacity="0.5019607843137255" points="216.865103,238.440740 263.000000,201.112383 194.848115,222.286154 134.992145,246.015744" />
<polygon fill="#474549" fill-opacity="0.5019607843137255" points="66.191034,122.297284 66.308190,118.171091 63.508788,115.121690 67.993314,112.047964" />
<polygon fill="#818184" fill-opacity="0.5019607843137255" points="213.944805,122.537925 263.000000,111.988606 263.000000,69.365619 232.336655,112.432406" />
<polygon fill="#16161a" fill-opacity="0.5019607843137255" points="13.480445,237.349316 129.347018,246.767351 260.793969,253.383145 -16.000000,271.000000" />
<polygon fill="#ddd8d6" fill-opacity="0.5019607843137255" points="48.668433,134.731326 115.422835,96.664104 52.633108,151.535756 -16.000000,143.555184" />
<polygon fill="#06030f" fill-opacity="0.5019607843137255" points="165.713424,171.649433 180.100842,177.839009 248.777997,205.694474 242.590215,146.299432" />
<polygon fill="#615f61" fill-opacity="0.5019607843137255" points="27.505450,97.970664 28.662715,97.811740 30.780643,90.311199 32.202767,100.509977" />
<polygon fill="#535355" fill-opacity="0.5019607843137255" points="238.072940,107.450175 212.130715,103.461984 204.827830,121.115161 244.708069,76.600923" />
<polygon fill="#aba9aa" fill-opacity="0.5019607843137255" points="88.276420,145.464750 102.179026,170.751005 163.591795,167.384964 166.594930,171.836405" />
<polygon fill="#1f1e22" fill-opacity="0.5019607843137255" points="208.410277,257.744838 235.198665,259.171597 177.969178,186.583338 203.265058,179.260628" />
<polygon fill="#cfcccc" fill-opacity="0.5019607843137255" points="153.813200,119.169684 210.935516,114.411504 208.861672,113.275547 201.890826,107.143460" />
<polygon fill="#464345" fill-opacity="0.5019607843137255" points="97.154724,123.030915 95.273433,114.946502 99.388344,115.996648 98.523529,116.582501" />
<polygon fill="#4d4c4d" fill-opacity="0.5019607843137255" points="48.881824,132.335565 49.843713,138.601041 46.700594,127.843101 45.591854,135.660738" />
<polygon fill="#6a6a6d" fill-opacity="0.5019607843137255" points="103.869627,133.000815 210.896877,129.303464 221.523732,117.315028 154.803926,125.526947" />
<polygon fill="#696a6c" fill-opacity="0.5019607843137255" points="187.965036,213.858618 154.259129,217.019498 148.945839,193.498010 190.092469,200.994921" />
<polygon fill="#ece7e5" fill-opacity="0.5019607843137255" points="242.081573,57.437135 191.534354,61.590071 0.439321,84.840509 201.901914,34.398671" />
<polygon fill="#d2cdcc" fill-opacity="0.5019607843137255" points="156.924078,17.151808 -16.000000,49.698800 63.464407,63.104536 211.339346,21.218765" />
<polygon fill="#adaaac" fill-opacity="0.5019607843137255" points="199.589665,69.296983 230.477884,56.833186 186.837810,63.912458 174.940771,85.887147" />
<polygon fill="#646063" fill-opacity="0.5019607843137255" points="15.058297,112.465633 16.552372,115.627421 14.909703,120.893869 13.946011,115.348945" />
<polygon fill="#4c4d4f" fill-opacity="0.5019607843137255" points="248.702072,229.069446 0.972114,195.184055 6.104526,203.124057 -0.195484,213.597784" />
</g>
</svg>