<svg xmlns="http://www.w3.org/2000/svg" version="1.1" width="744" height="768">
<rect x="0" y="0" width="744" height="768" fill="#8d8b8c" />
<g transform="scale(3) translate(0.5 0.5)">
<path stroke="#000000" stroke-opacity="0.5019607843137255" fill="none" d="M 245.607864 109.329978 Q 263.000000 269.649798, -5.110170 251.921921" stroke-width="0.500000" />
<path stroke="#000000" stroke-opacity="0.5019607843137255" fill="none" d="M 246.511709 112.020339 Q 263.000000 270.711952, 0.815817 254.162846" stroke-width="0.500000" />
<path stroke="#000000" stroke-opacity="0.5019607843137255" fill="none" d="M 244.203872 115.593253 Q 253.888698 271.000000, -13.559839 249.358833" stroke-width="0.500000" />
<path stroke="#000000" stroke-opacity="0.5019607843137255" fill="none" d="M -12.617951 244.908163 Q 251.829116 271.000000, 240.093013 116.961796" stroke-width="0.500000" />
<path stroke="#000000" stroke-opacity="0.5019607843137255" fill="none" d="M 238.957171 109.961871 Q 251.813642 271.000000, -16.000000 242.492512" stroke-width="0.500000" />
<path stroke="#000000" stroke-opacity="0.5019607843137255" fill="none" d="M 233.869659 91.363686 Q 263.000000 270.082277, -8.770032 241.037023" stroke-width="0.500000" />
<path stroke="#000000" stroke-opacity="0.5019607843137255" fill="none" d="M -6.622925 252.879907 Q 262.549288 269.368583, 246.775065 134.739175" stroke-width="0.500000" />
<path stroke="#000000" stroke-opacity="0.5019607843137255" fill="none" d="M -8.099697 248.540135 Q 257.109592 268.245740, 240.861789 113.985171" stroke-width="0.500000" />
<path stroke="#000000" stroke-opacity="0.5019607843137255" fill="none" d="M 231.139801 115.396918 Q 247.574317 268.066551, -16.000000 237.417754" stroke-width="0.500000" />
<path stroke="#000000" stroke-opacity="0.5019607843137255" fill="none" d="M -5.062903 245.622130 Q 255.273909 238.671032, 232.954355 116.854573" stroke-width="0.500000" />
<path stroke="#000000" stroke-opacity="0.5019607843137255" fill="none" d="M 242.793891 120.825873 Q 260.040689 265.883159, 64.034033 255.117171" stroke-width="0.500000" />
<path stroke="#000000" stroke-opacity="0.5019607843137255" fill="none" d="M 225.741570 81.978136 Q 262.941310 271.000000, -8.589442 233.767635" stroke-width="0.500000" />
<path stroke="#000000" stroke-opacity="0.5019607843137255" fill="none" d="M 238.144743 118.477314 Q 246.960688 254.734075, -1.339431 233.864093" stroke-width="0.500000" />
<path stroke="#000000" stroke-opacity="0.5019607843137255" fill="none" d="M 230.352779 118.312817 Q 197.409115 271.000000, -15.136690 223.789172" stroke-width="0.500000" />
<path stroke="#000000" stroke-opacity="0.5019607843137255" fill="none" d="M 243.505251 109.375058 Q 263.000000 271.000000, 97.487484 254.197609" stroke-width="0.500000" />
<path stroke="#000000" stroke-opacity="0.5019607843137255" fill="none" d="M 245.960513 149.808105 Q 263.000000 271.000000, -3.315890 246.811640" stroke-width="0.500000" />
<path stroke="#000000" stroke-opacity="0.5019607843137255" fill="none" d="M 234.354555 122.739761 Q 263.000000 271.000000, 46.957679 251.604671" stroke-width="0.500000" />
<path stroke="#000000" stroke-opacity="0.5019607843137255" fill="none" d="M 246.066172 256.825581 Q 263.000000 153.567558, 102.964380 146.954342" stroke-width="0.500000" />
<path stroke="#000000" stroke-opacity="0.5019607843137255" fill="none" d="M 238.359152 114.948858 Q 209.749573 258.212487, 2.106907 226.932052" stroke-width="0.500000" />
<path stroke="#000000" stroke-opacity="0.5019607843137255" fill="none" d="M 226.228584 115.608476 Q 244.576628 254.557756, -9.454670 224.216674" stroke-width="0.500000" />
<path stroke="#ffffff" stroke-opacity="0.5019607843137255" fill="none" d="M 254.238559 59.490668 Q -16.000000 37.698021, 4.234763 165.121303" stroke-width="0.500000" />
<path stroke="#000000" stroke-opacity="0.5019607843137255" fill="none" d="M 0.715004 237.279770 Q 212.301548 261.558703, 241.049190 111.058009" stroke-width="0.500000" />
<path stroke="#ffffff" stroke-opacity="0.5019607843137255" fill="none" d="M 261.027796 58.977708 Q -16.000000 24.649676, 3.019488 166.897112" stroke-width="0.500000" />
<path stroke="#000000" stroke-opacity="0.5019607843137255" fill="none" d="M -0.323094 251.174543 Q 252.167653 263.556946, 247.430506 176.502709" stroke-width="0.500000" />
<path stroke="#000000" stroke-opacity="0.5019607843137255" fill="none" d="M 263.000000 250.344526 Q 118.797941 265.016551, -2.113437 227.210745" stroke-width="0.500000" />
<path stroke="#000000" stroke-opacity="0.5019607843137255" fill="none" d="M 236.001406 111.631895 Q 221.852028 240.561354, -16.000000 233.108763" stroke-width="0.500000" />
<path stroke="#000000" stroke-opacity="0.5019607843137255" fill="none" d="M -16.000000 246.075915 Q 246.868886 249.868327, 263.000000 257.316904" stroke-width="0.500000" />
<path stroke="#000000" stroke-opacity="0.5019607843137255" fill="none" d="M 224.531506 127.640794 Q 205.957672 239.409117, -4.460880 223.566682" stroke-width="0.500000" />
<path stroke="#000000" stroke-opacity="0.5019607843137255" fill="none" d="M 239.794693 115.109494 Q 217.380089 261.361301, 19.766101 241.554880" stroke-width="0.500000" />
<path stroke="#ffffff" stroke-opacity="0.5019607843137255" fill="none" d="M 248.495024 19.691785 Q 52.588595 175.653623, 0.262029 45.153586" stroke-width="0.500000" />
<path stroke="#ffffff" stroke-opacity="0.5019607843137255" fill="none" d="M -2.444500 17.218652 Q 51.870269 177.868372, 235.555747 25.831978" stroke-width="0.500000" />
<path stroke="#ffffff" stroke-opacity="0.5019607843137255" fill="none" d="M 249.426379 51.892099 Q -14.732924 33.298050, 1.352308 148.363536" stroke-width="0.500000" />
<path stroke="#000000" stroke-opacity="0.5019607843137255" fill="none" d="M 247.935514 118.546944 Q 223.828322 259.118309, -8.748038 240.291999" stroke-width="0.500000" />
<path stroke="#000000" stroke-opacity="0.5019607843137255" fill="none" d="M 241.962276 259.230200 Q 263.000000 103.230458, 123.961100 155.603355" stroke-width="0.500000" />
<path stroke="#ffffff" stroke-opacity="0.5019607843137255" fill="none" d="M 8.816576 164.563968 Q -11.317875 81.319803, 250.822229 51.816524" stroke-width="0.500000" />
<path stroke="#000000" stroke-opacity="0.5019607843137255" fill="none" d="M 109.118827 148.810343 Q 262.433254 156.461854, 239.692160 260.468486" stroke-width="0.500000" />
<path stroke="#000000" stroke-opacity="0.5019607843137255" fill="none" d="M 221.648631 119.318326 Q 245.428102 226.681131, -1.377543 240.588683" stroke-width="0.500000" />
<path stroke="#000000" stroke-opacity="0.5019607843137255" fill="none" d="M -2.917033 213.587008 Q 135.967755 271.000000, 250.833565 245.930916" stroke-width="0.500000" />
<path stroke="#ffffff" stroke-opacity="0.5019607843137255" fill="none" d="M 0.711811 169.968455 Q 12.148681 39.899285, 260.579716 61.233911" stroke-width="0.500000" />
<path stroke="#000000" stroke-opacity="0.5019607843137255" fill="none" d="M -4.493685 211.348236 Q 161.537103 271.000000, 263.000000 235.447560" stroke-width="0.500000" />
<path stroke="#000000" stroke-opacity="0.5019607843137255" fill="none" d="M -16.000000 241.133635 Q 235.927870 271.000000, 251.040481 104.233491" stroke-width="0.500000" />
<path stroke="#000000" stroke-opacity="0.5019607843137255" fill="none" d="M 240.458334 126.254201 Q 239.909698 264.875773, -3.626822 247.744557" stroke-width="0.500000" />
<path stroke="#ffffff" stroke-opacity="0.5019607843137255" fill="none" d="M 4.435404 170.543845 Q -4.010079 1.566163, 248.476375 56.661923" stroke-width="0.500000" />
<path stroke="#ffffff" stroke-opacity="0.5019607843137255" fill="none" d="M -2.068108 32.757345 Q 53.407068 169.002111, 240.579518 19.599739" stroke-width="0.500000" />
<path stroke="#ffffff" stroke-opacity="0.5019607843137255" fill="none" d="M 0.823630 50.963947 Q 56.277633 177.697066, 255.837563 15.394454" stroke-width="0.500000" />
<path stroke="#ffffff" stroke-opacity="0.5019607843137255" fill="none" d="M 237.287531 15.073391 Q 79.255692 195.301353, -6.191529 32.477094" stroke-width="0.500000" />
<path stroke="#000000" stroke-opacity="0.5019607843137255" fill="none" d="M 119.245689 150.978401 Q 263.000000 163.548242, 235.795160 256.544484" stroke-width="0.500000" />
<path stroke="#000000" stroke-opacity="0.5019607843137255" fill="none" d="M 126.845312 150.128343 Q 263.000000 103.879975, 244.307244 256.315832" stroke-width="0.500000" />
<path stroke="#000000" stroke-opacity="0.5019607843137255" fill="none" d="M 263.000000 87.027437 Q 156.365400 271.000000, -6.921846 215.954804" stroke-width="0.500000" />
<path stroke="#ffffff" stroke-opacity="0.5019607843137255" fill="none" d="M -8.246964 -0.238630 Q 53.443992 177.417255, 232.790601 19.336286" stroke-width="0.500000" />
</g>
</svg>