<svg xmlns="http://www.w3.org/2000/svg" version="1.1" width="744" height="768">
<rect x="0" y="0" width="744" height="768" fill="#8d8b8c" />
<g transform="scale(3) translate(0.5 0.5)">
<rect fill="#000000" fill-opacity="0.5019607843137255" x="109" y="126" width="139" height="130" />
<rect fill="#ffffff" fill-opacity="0.5019607843137255" x="0" y="13" width="194" height="119" />
<rect fill="#000000" fill-opacity="0.5019607843137255" x="0" y="196" width="109" height="60" />
<rect fill="#f7f1ee" fill-opacity="0.5019607843137255" x="0" y="27" width="248" height="52" />
<rect fill="#b5b4b9" fill-opacity="0.5019607843137255" x="109" y="162" width="66" height="46" />
<rect fill="#000002" fill-opacity="0.5019607843137255" x="180" y="118" width="68" height="138" />
<rect fill="#f9f4f0" fill-opacity="0.5019607843137255" x="0" y="62" width="121" height="103" />
<rect fill="#515155" fill-opacity="0.5019607843137255" x="183" y="66" width="55" height="42" />
<rect fill="#4f4f53" fill-opacity="0.5019607843137255" x="90" y="121" width="118" height="27" />
<rect fill="#fef9f5" fill-opacity="0.5019607843137255" x="0" y="57" width="178" height="58" />
<rect fill="#000008" fill-opacity="0.5019607843137255" x="147" y="140" width="101" height="29" />
<rect fill="#08080e" fill-opacity="0.5019607843137255" x="0" y="228" width="180" height="28" />
<rect fill="#b6b3b5" fill-opacity="0.5019607843137255" x="0" y="0" width="248" height="40" />
<rect fill="#69696d" fill-opacity="0.5019607843137255" x="0" y="183" width="190" height="33" />
<rect fill="#efebe8" fill-opacity="0.5019607843137255" x="145" y="21" width="94" height="40" />
<rect fill="#a5a3a7" fill-opacity="0.5019607843137255" x="0" y="157" width="139" height="21" />
<rect fill="#525255" fill-opacity="0.5019607843137255" x="125" y="216" width="96" height="22" />
<rect fill="#000006" fill-opacity="0.5019607843137255" x="183" y="163" width="65" height="38" />
<rect fill="#9e9b9e" fill-opacity="0.5019607843137255" x="108" y="177" width="73" height="16" />
<rect fill="#cbc7c7" fill-opacity="0.5019607843137255" x="64" y="110" width="144" height="13" />
<rect fill="#000000" fill-opacity="0.5019607843137255" x="166" y="159" width="19" height="15" />
<rect fill="#9a999b" fill-opacity="0.5019607843137255" x="0" y="0" width="95" height="32" />
<rect fill="#2d2d2e" fill-opacity="0.5019607843137255" x="112" y="141" width="83" height="12" />
<rect fill="#a6a3a6" fill-opacity="0.5019607843137255" x="73" y="122" width="60" height="15" />
<rect fill="#b7b5b8" fill-opacity="0.5019607843137255" x="134" y="167" width="29" height="10" />
<rect fill="#606062" fill-opacity="0.5019607843137255" x="156" y="119" width="67" height="14" />
<rect fill="#f2eeed" fill-opacity="0.5019607843137255" x="230" y="53" width="18" height="19" />
<rect fill="#f0ece9" fill-opacity="0.5019607843137255" x="72" y="97" width="115" height="19" />
<rect fill="#dcd8d8" fill-opacity="0.5019607843137255" x="0" y="125" width="71" height="25" />
<rect fill="#676769" fill-opacity="0.5019607843137255" x="144" y="199" width="49" height="23" />
<rect fill="#6f6f71" fill-opacity="0.5019607843137255" x="178" y="80" width="66" height="18" />
<rect fill="#0e0b15" fill-opacity="0.5019607843137255" x="234" y="115" width="14" height="89" />
<rect fill="#313235" fill-opacity="0.5019607843137255" x="0" y="210" width="109" height="23" />
<rect fill="#a2a0a2" fill-opacity="0.5019607843137255" x="37" y="154" width="90" height="17" />
<rect fill="#646365" fill-opacity="0.5019607843137255" x="24" y="123" width="5" height="13" />
<rect fill="#000000" fill-opacity="0.5019607843137255" x="65" y="112" width="3" height="5" />
<rect fill="#828184" fill-opacity="0.5019607843137255" x="200" y="60" width="26" height="26" />
<rect fill="#bab8b8" fill-opacity="0.5019607843137255" x="56" y="10" width="192" height="21" />
<rect fill="#d7d3d2" fill-opacity="0.5019607843137255" x="0" y="40" width="110" height="34" />
<rect fill="#1c1b1f" fill-opacity="0.5019607843137255" x="129" y="147" width="83" height="12" />
<rect fill="#f5f0ed" fill-opacity="0.5019607843137255" x="107" y="50" width="72" height="54" />
<rect fill="#36363b" fill-opacity="0.5019607843137255" x="29" y="93" width="3" height="7" />
<rect fill="#4d4e50" fill-opacity="0.5019607843137255" x="214" y="90" width="27" height="16" />
<rect fill="#000000" fill-opacity="0.5019607843137255" x="45" y="133" width="4" height="2" />
<rect fill="#c4c2c4" fill-opacity="0.5019607843137255" x="220" y="107" width="22" height="7" />
<rect fill="#08090d" fill-opacity="0.5019607843137255" x="96" y="114" width="2" height="7" />
<rect fill="#5a5b5d" fill-opacity="0.5019607843137255" x="96" y="134" width="65" height="11" />
<rect fill="#f3efed" fill-opacity="0.5019607843137255" x="179" y="39" width="48" height="20" />
<rect fill="#a8a6a8" fill-opacity="0.5019607843137255" x="82" y="123" width="19" height="43" />
<rect fill="#0a0712" fill-opacity="0.5019607843137255" x="189" y="161" width="47" height="50" />
</g>
</svg>