<svg xmlns="http://www.w3.org/2000/svg" version="1.1" width="744" height="768">
<rect x="0" y="0" width="744" height="768" fill="#8d8b8c" />
<g transform="scale(3) translate(0.5 0.5)">
<rect fill="#000000" fill-opacity="0.5019607843137255" x="109" y="126" width="139" height="130" />
<rect fill="#ffffff" fill-opacity="0.5019607843137255" x="0" y="13" width="194" height="119" />
<rect fill="#000000" fill-opacity="0.5019607843137255" x="0" y="196" width="109" height="60" />
<rect fill="#f7f1ee" fill-opacity="0.5019607843137255" x="0" y="27" width="248" height="52" />
<rect fill="#b5b4b9" fill-opacity="0.5019607843137255" x="109" y="162" width="66" height="46" />
<rect fill="#000002" fill-opacity="0.5019607843137255" x="180" y="118" width="68" height="138" />
<rect fill="#f9f4f0" fill-opacity="0.5019607843137255" x="0" y="62" width="121" height="103" />
<rect fill="#515155" fill-opacity="0.5019607843137255" x="183" y="66" width="55" height="42" />
<rect fill="#4f4f53" fill-opacity="0.5019607843137255" x="90" y="121" width="118" height="27" />
<rect fill="#fef9f5" fill-opacity="0.5019607843137255" x="0" y="57" width="178" height="58" />
<rect fill="#000008" fill-opacity="0.5019607843137255" x="147" y="140" width="101" height="29" />
<rect fill="#08080e" fill-opacity="0.5019607843137255" x="0" y="228" width="180" height="28" />
<rect fill="#b6b3b5" fill-opacity="0.5019607843137255" x="0" y="0" width="248" height="40" />
<rect fill="#69696d" fill-opacity="0.5019607843137255" x="0" y="183" width="190" height="33" />
<rect fill="#efebe8" fill-opacity="0.5019607843137255" x="145" y="21" width="94" height="40" />
<rect fill="#a5a3a7" fill-opacity="0.5019607843137255" x="0" y="157" width="139" height="21" />
<rect fill="#525255" fill-opacity="0.5019607843137255" x="125" y="216" width="96" height="22" />
<rect fill="#000006" fill-opacity="0.5019607843137255" x="183" y="163" width="65" height="38" />
<rect fill="#9e9b9e" fill-opacity="0.5019607843137255" x="108" y="177" width="73" height="16" />
<rect fill="#cbc7c7" fill-opacity="0.5019607843137255" x="64" y="110" width="144" height="13" />
<rect fill="#000000" fill-opacity="0.5019607843137255" x="166" y="159" width="19" height="15" />
<rect fill="#9a999b" fill-opacity="0.5019607843137255" x="0" y="0" width="95" height="32" />
<rect fill="#2d2d2e" fill-opacity="0.5019607843137255" x="112" y="141" width="83" height="12" />
<rect fill="#a6a3a6" fill-opacity="0.5019607843137255" x="73" y="122" width="60" height="15" />
<rect fill="#b7b5b8" fill-opacity="0.5019607843137255" x="134" y="167" width="29" height="10" />
<rect fill="#606062" fill-opacity="0.5019607843137255" x="156" y="119" width="67" height="14" />
<rect fill="#f2eeed" fill-opacity="0.5019607843137255" x="230" y="53" width="18" height="19" />
<rect fill="#f0ece9" fill-opacity="0.5019607843137255" x="72" y="97" width="115" height="19" />
<rect fill="#dcd8d8" fill-opacity="0.5019607843137255" x="0" y="125" width="71" height="25" />
<rect fill="#676769" fill-opacity="0.5019607843137255" x="144" y="199" width="49" height="23" />
<rect fill="#6f6f71" fill-opacity="0.5019607843137255" x="178" y="80" width="66" height="18" />
<rect fill="#0e0b15" fill-opacity="0.5019607843137255" x="234" y="115" width="14" height="89" />
<rect fill="#313235" fill-opacity="0.5019607843137255" x="0" y="210" width="109" height="23" />
<rect fill="#a2a0a2" fill-opacity="0.5019607843137255" x="37" y="154" width="90" height="17" />
<rect fill="#646365" fill-opacity="0.5019607843137255" x="24" y="123" width="5" height="13" />
<rect fill="#000000" fill-opacity="0.5019607843137255" x="65" y="112" width="3" height="5" />
<rect fill="#828184" fill-opacity="0.5019607843137255" x="200" y="60" width="26" height="26" />
<rect fill="#bab8b8" fill-opacity="0.5019607843137255" x="56" y="10" width="192" height="21" />
<rect fill="#d7d3d2" fill-opacity="0.5019607843137255" x="0" y="40" width="110" height="34" />
<rect fill="#1c1b1f" fill-opacity="0.5019607843137255" x="129" y="147" width="83" height="12" />
<rect fill="#f5f0ed" fill-opacity="0.5019607843137255" x="107" y="50" width="72" height="54" />
<rect fill="#36363b" fill-opacity="0.5019607843137255" x="29" y="93" width="3" height="7" />
<rect fill="#4d4e50" fill-opacity="0.5019607843137255" x="214" y="90" width="27" height="16" />
<rect fill="#000000" fill-opacity="0.5019607843137255" x="45" y="133" width="4" height="2" />
<rect fill="#c4c2c4" fill-opacity="0.5019607843137255" x="220" y="107" width="22" height="7" />
<rect fill="#08090d" fill-opacity="0.5019607843137255" x="96" y="114" width="2" height="7" />
<rect fill="#5a5b5d" fill-opacity="0.5019607843137255" x="96" y="134" width="65" height="11" />
<rect fill="#f3efed" fill-opacity="0.5019607843137255" x="179" y="39" width="48" height="20" />
<rect fill="#a8a6a8" fill-opacity="0.5019607843137255" x="82" y="123" width="19" height="43" />
<rect fill="#0a0712" fill-opacity="0.5019607843137255" x="189" y="161" width="47" height="50" />
<rect fill="#aba9aa" fill-opacity="0.5019607843137255" x="108" y="158" width="27" height="16" />
<rect fill="#6f6f71" fill-opacity="0.5019607843137255" x="0" y="188" width="182" height="14" />
<rect fill="#151419" fill-opacity="0.5019607843137255" x="3" y="243" width="136" height="13" />
<rect fill="#878588" fill-opacity="0.5019607843137255" x="0" y="0" width="37" height="16" />
<rect fill="#f3efec" fill-opacity="0.5019607843137255" x="0" y="63" width="27" height="66" />
<rect fill="#2c2c2f" fill-opacity="0.5019607843137255" x="12" y="115" width="6" height="2" />
<rect fill="#c0bfbe" fill-opacity="0.5019607843137255" x="0" y="24" width="104" height="23" />
<rect fill="#0d0b13" fill-opacity="0.5019607843137255" x="150" y="157" width="39" height="10" />
<rect fill="#d3d0cf" fill-opacity="0.5019607843137255" x="59" y="121" width="58" height="6" />
<rect fill="#535355" fill-opacity="0.5019607843137255" x="62" y="201" width="85" height="17" />
<rect fill="#434447" fill-opacity="0.5019607843137255" x="205" y="102" width="11" height="9" />
<rect fill="#89888b" fill-opacity="0.5019607843137255" x="175" y="116" width="64" height="4" />
<rect fill="#eeeae7" fill-opacity="0.5019607843137255" x="83" y="56" width="104" height="18" />
<rect fill="#dddada" fill-opacity="0.5019607843137255" x="245" y="65" width="3" height="27" />
<rect fill="#918f92" fill-opacity="0.5019607843137255" x="138" y="176" width="41" height="20" />
<rect fill="#dedbd9" fill-opacity="0.5019607843137255" x="191" y="109" width="14" height="6" />
<rect fill="#363738" fill-opacity="0.5019607843137255" x="94" y="225" width="114" height="20" />
<rect fill="#8d8a8e" fill-opacity="0.5019607843137255" x="180" y="73" width="23" height="21" />
<rect fill="#3f3f40" fill-opacity="0.5019607843137255" x="146" y="130" width="36" height="18" />
<rect fill="#828084" fill-opacity="0.5019607843137255" x="9" y="173" width="101" height="13" />
<rect fill="#a7a4a6" fill-opacity="0.5019607843137255" x="116" y="118" width="70" height="7" />
<rect fill="#05030f" fill-opacity="0.5019607843137255" x="173" y="166" width="64" height="10" />
<rect fill="#454547" fill-opacity="0.5019607843137255" x="98" y="217" width="133" height="13" />
<rect fill="#a5a3a5" fill-opacity="0.5019607843137255" x="0" y="164" width="150" height="5" />
<rect fill="#000000" fill-opacity="0.5019607843137255" x="46" y="130" width="2" height="4" />
<rect fill="#969498" fill-opacity="0.5019607843137255" x="190" y="63" width="38" height="8" />
<rect fill="#676668" fill-opacity="0.5019607843137255" x="190" y="96" width="5" height="15" />
<rect fill="#18181c" fill-opacity="0.5019607843137255" x="143" y="153" width="77" height="10" />
<rect fill="#454449" fill-opacity="0.5019607843137255" x="28" y="122" width="3" height="6" />
<rect fill="#262627" fill-opacity="0.5019607843137255" x="182" y="180" width="22" height="20" />
<rect fill="#838185" fill-opacity="0.5019607843137255" x="81" y="131" width="49" height="8" />
<rect fill="#19181e" fill-opacity="0.5019607843137255" x="207" y="227" width="41" height="29" />
<rect fill="#efeae9" fill-opacity="0.5019607843137255" x="30" y="114" width="13" height="28" />
<rect fill="#6d6d70" fill-opacity="0.5019607843137255" x="213" y="70" width="21" height="29" />
<rect fill="#222326" fill-opacity="0.5019607843137255" x="25" y="132" width="3" height="5" />
<rect fill="#aeadaf" fill-opacity="0.5019607843137255" x="58" y="150" width="57" height="9" />
<rect fill="#b1afb2" fill-opacity="0.5019607843137255" x="239" y="99" width="9" height="10" />
<rect fill="#f3eeec" fill-opacity="0.5019607843137255" x="177" y="102" width="12" height="6" />
<rect fill="#e3dfde" fill-opacity="0.5019607843137255" x="0" y="123" width="25" height="24" />
<rect fill="#dbd7d6" fill-opacity="0.5019607843137255" x="122" y="26" width="97" height="17" />
<rect fill="#ebe7e5" fill-opacity="0.5019607843137255" x="69" y="56" width="61" height="60" />
<rect fill="#6a6a6c" fill-opacity="0.5019607843137255" x="122" y="129" width="36" height="7" />
<rect fill="#37383a" fill-opacity="0.5019607843137255" x="106" y="143" width="66" height="6" />
<rect fill="#575759" fill-opacity="0.5019607843137255" x="168" y="212" width="29" height="17" />
<rect fill="#c7c5c7" fill-opacity="0.5019607843137255" x="215" y="110" width="13" height="5" />
<rect fill="#bebcbd" fill-opacity="0.5019607843137255" x="220" y="18" width="21" height="27" />
<rect fill="#363639" fill-opacity="0.5019607843137255" x="231" y="207" width="17" height="16" />
<rect fill="#b3b1b1" fill-opacity="0.5019607843137255" x="65" y="126" width="41" height="7" />
<rect fill="#2e2f31" fill-opacity="0.5019607843137255" x="219" y="119" width="20" height="17" />
<rect fill="#bebdbe" fill-opacity="0.5019607843137255" x="50" y="144" width="51" height="7" />
<rect fill="#5b5a5e" fill-opacity="0.5019607843137255" x="14" y="113" width="2" height="7" />
<rect fill="#9a989b" fill-opacity="0.5019607843137255" x="60" y="161" width="82" height="16" />
<rect fill="#626364" fill-opacity="0.5019607843137255" x="231" y="113" width="17" height="6" />
<rect fill="#1e1e24" fill-opacity="0.5019607843137255" x="27" y="97" width="2" height="2" />
<rect fill="#58585a" fill-opacity="0.5019607843137255" x="229" y="83" width="14" height="15" />
<rect fill="#8e8d91" fill-opacity="0.5019607843137255" x="226" y="0" width="22" height="13" />
<rect fill="#232324" fill-opacity="0.5019607843137255" x="167" y="137" width="44" height="20" />
<rect fill="#dad6d5" fill-opacity="0.5019607843137255" x="234" y="46" width="14" height="27" />
<rect fill="#a5a3a4" fill-opacity="0.5019607843137255" x="1" y="9" width="130" height="9" />
<rect fill="#0c0a14" fill-opacity="0.5019607843137255" x="168" y="162" width="80" height="11" />
<rect fill="#787779" fill-opacity="0.5019607843137255" x="170" y="191" width="13" height="22" />
<rect fill="#f2eeeb" fill-opacity="0.5019607843137255" x="21" y="99" width="38" height="22" />
<rect fill="#4d4e50" fill-opacity="0.5019607843137255" x="208" y="107" width="3" height="24" />
<rect fill="#9a989b" fill-opacity="0.5019607843137255" x="133" y="172" width="36" height="9" />
<rect fill="#58585a" fill-opacity="0.5019607843137255" x="206" y="99" width="18" height="10" />
<rect fill="#f2eeeb" fill-opacity="0.5019607843137255" x="0" y="67" width="69" height="27" />
<rect fill="#d7d3d2" fill-opacity="0.5019607843137255" x="21" y="136" width="56" height="9" />
<rect fill="#b0aeaf" fill-opacity="0.5019607843137255" x="123" y="6" width="76" height="10" />
<rect fill="#303032" fill-opacity="0.5019607843137255" x="0" y="223" width="137" height="9" />
<rect fill="#0b0a0d" fill-opacity="0.5019607843137255" x="159" y="162" width="7" height="6" />
<rect fill="#f5f1ee" fill-opacity="0.5019607843137255" x="120" y="67" width="51" height="30" />
<rect fill="#1b1b1f" fill-opacity="0.5019607843137255" x="123" y="153" width="32" height="3" />
<rect fill="#626264" fill-opacity="0.5019607843137255" x="0" y="192" width="111" height="12" />
<rect fill="#ffffff" fill-opacity="0.5019607843137255" x="27" y="129" width="2" height="3" />
<rect fill="#ece8e6" fill-opacity="0.5019607843137255" x="10" y="118" width="17" height="11" />
<rect fill="#3c3c3f" fill-opacity="0.5019607843137255" x="95" y="116" width="4" height="4" />
<rect fill="#eeeae7" fill-opacity="0.5019607843137255" x="166" y="36" width="38" height="26" />
<rect fill="#616163" fill-opacity="0.5019607843137255" x="173" y="122" width="34" height="6" />
<rect fill="#0b0a12" fill-opacity="0.5019607843137255" x="200" y="145" width="32" height="69" />
<rect fill="#eeeae7" fill-opacity="0.5019607843137255" x="67" y="68" width="34" height="46" />
<rect fill="#cac7c7" fill-opacity="0.5019607843137255" x="97" y="118" width="32" height="5" />
<rect fill="#19191d" fill-opacity="0.5019607843137255" x="135" y="156" width="87" height="4" />
<rect fill="#eae5e3" fill-opacity="0.5019607843137255" x="171" y="96" width="14" height="14" />
<rect fill="#777679" fill-opacity="0.5019607843137255" x="185" y="89" width="14" height="13" />
<rect fill="#68676a" fill-opacity="0.5019607843137255" x="99" y="137" width="17" height="9" />
<rect fill="#06040e" fill-opacity="0.5019607843137255" x="179" y="175" width="62" height="4" />
<rect fill="#373739" fill-opacity="0.5019607843137255" x="182" y="130" width="43" height="7" />
<rect fill="#2e2f31" fill-opacity="0.5019607843137255" x="24" y="131" width="3" height="4" />
<rect fill="#313133" fill-opacity="0.5019607843137255" x="204" y="215" width="29" height="25" />
<rect fill="#aaa8a9" fill-opacity="0.5019607843137255" x="120" y="160" width="20" height="10" />
<rect fill="#858387" fill-opacity="0.5019607843137255" x="0" y="0" width="45" height="6" />
<rect fill="#25272a" fill-opacity="0.5019607843137255" x="64" y="115" width="1" height="3" />
<rect fill="#464647" fill-opacity="0.5019607843137255" x="0" y="206" width="83" height="11" />
<rect fill="#9b999c" fill-opacity="0.5019607843137255" x="121" y="166" width="33" height="7" />
<rect fill="#c5c2c2" fill-opacity="0.5019607843137255" x="116" y="18" width="103" height="11" />
<rect fill="#4c4c4e" fill-opacity="0.5019607843137255" x="227" y="97" width="13" height="8" />
<rect fill="#434548" fill-opacity="0.5019607843137255" x="246" y="94" width="2" height="6" />
<rect fill="#a8a6a8" fill-opacity="0.5019607843137255" x="184" y="67" width="6" height="18" />
<rect fill="#202022" fill-opacity="0.5019607843137255" x="4" y="237" width="130" height="11" />
<rect fill="#202125" fill-opacity="0.5019607843137255" x="44" y="132" width="5" height="2" />
<rect fill="#f0ece9" fill-opacity="0.5019607843137255" x="17" y="97" width="11" height="28" />
<rect fill="#b7b5b6" fill-opacity="0.5019607843137255" x="0" y="157" width="23" height="14" />
<rect fill="#1e1e21" fill-opacity="0.5019607843137255" x="192" y="189" width="18" height="24" />
<rect fill="#aaa8a8" fill-opacity="0.5019607843137255" x="79" y="155" width="46" height="7" />
<rect fill="#faf6f2" fill-opacity="0.5019607843137255" x="170" y="58" width="15" height="12" />
<rect fill="#f5f1ee" fill-opacity="0.5019607843137255" x="5" y="80" width="8" height="37" />
<rect fill="#e0dbdb" fill-opacity="0.5019607843137255" x="75" y="44" width="48" height="20" />
<rect fill="#a7a5a8" fill-opacity="0.5019607843137255" x="212" y="112" width="25" height="4" />
<rect fill="#aaa8aa" fill-opacity="0.5019607843137255" x="93" y="147" width="15" height="8" />
<rect fill="#959396" fill-opacity="0.5019607843137255" x="104" y="125" width="62" height="2" />
<rect fill="#c0bebe" fill-opacity="0.5019607843137255" x="167" y="114" width="33" height="3" />
<rect fill="#929093" fill-opacity="0.5019607843137255" x="156" y="181" width="26" height="5" />
<rect fill="#e5e1e0" fill-opacity="0.5019607843137255" x="27" y="130" width="18" height="3" />
<rect fill="#89878a" fill-opacity="0.5019607843137255" x="177" y="90" width="7" height="5" />
<rect fill="#18171b" fill-opacity="0.5019607843137255" x="148" y="152" width="18" height="13" />
<rect fill="#68686a" fill-opacity="0.5019607843137255" x="137" y="203" width="52" height="8" />
<rect fill="#dfdbda" fill-opacity="0.5019607843137255" x="110" y="108" width="38" height="11" />
<rect fill="#3b3c3f" fill-opacity="0.5019607843137255" x="114" y="146" width="12" height="6" />
<rect fill="#e6e2e1" fill-opacity="0.5019607843137255" x="227" y="52" width="12" height="13" />
<rect fill="#e7e3e2" fill-opacity="0.5019607843137255" x="69" y="107" width="24" height="14" />
<rect fill="#dfdbda" fill-opacity="0.5019607843137255" x="239" y="68" width="8" height="9" />
<rect fill="#f0ece9" fill-opacity="0.5019607843137255" x="31" y="74" width="52" height="24" />
<rect fill="#e5e1e0" fill-opacity="0.5019607843137255" x="6" y="119" width="19" height="15" />
<rect fill="#777579" fill-opacity="0.5019607843137255" x="187" y="106" width="3" height="3" />
<rect fill="#414143" fill-opacity="0.5019607843137255" x="113" y="223" width="101" height="9" />
<rect fill="#7a797b" fill-opacity="0.5019607843137255" x="136" y="191" width="44" height="11" />
<rect fill="#141219" fill-opacity="0.5019607843137255" x="225" y="237" width="23" height="19" />
<rect fill="#e0dcdb" fill-opacity="0.5019607843137255" x="113" y="36" width="114" height="11" />
<rect fill="#c4c1c1" fill-opacity="0.5019607843137255" x="56" y="142" width="38" height="6" />
<rect fill="#42444a" fill-opacity="0.5019607843137255" x="28" y="136" width="2" height="2" />
<rect fill="#dad6d4" fill-opacity="0.5019607843137255" x="193" y="110" width="13" height="3" />
<rect fill="#323437" fill-opacity="0.5019607843137255" x="28" y="96" width="3" height="2" />
<rect fill="#d2cecd" fill-opacity="0.5019607843137255" x="47" y="37" width="72" height="12" />
<rect fill="#555557" fill-opacity="0.5019607843137255" x="160" y="128" width="32" height="6" />
<rect fill="#c5c3c5" fill-opacity="0.5019607843137255" x="0" y="150" width="48" height="9" />
<rect fill="#696a6c" fill-opacity="0.5019607843137255" x="219" y="83" width="27" height="5" />
<rect fill="#a2a0a4" fill-opacity="0.5019607843137255" x="237" y="78" width="8" height="3" />
<rect fill="#424245" fill-opacity="0.5019607843137255" x="25" y="129" width="2" height="5" />
<rect fill="#ece8e6" fill-opacity="0.5019607843137255" x="232" y="64" width="9" height="5" />
<rect fill="#7c7a7e" fill-opacity="0.5019607843137255" x="88" y="136" width="17" height="5" />
<rect fill="#aeacad" fill-opacity="0.5019607843137255" x="94" y="151" width="22" height="6" />
<rect fill="#47484a" fill-opacity="0.5019607843137255" x="202" y="121" width="26" height="7" />
<rect fill="#969496" fill-opacity="0.5019607843137255" x="187" y="65" width="44" height="8" />
<rect fill="#969497" fill-opacity="0.5019607843137255" x="6" y="168" width="115" height="7" />
<rect fill="#717174" fill-opacity="0.5019607843137255" x="46" y="129" width="3" height="2" />
<rect fill="#5e5e60" fill-opacity="0.5019607843137255" x="207" y="97" width="9" height="15" />
<rect fill="#dbd7d6" fill-opacity="0.5019607843137255" x="60" y="118" width="36" height="6" />
<rect fill="#d9d4d3" fill-opacity="0.5019607843137255" x="48" y="126" width="17" height="7" />
<rect fill="#6e6d70" fill-opacity="0.5019607843137255" x="219" y="116" width="11" height="4" />
<rect fill="#7d7c7f" fill-opacity="0.5019607843137255" x="205" y="69" width="28" height="11" />
</g>
</svg>