<svg xmlns="http://www.w3.org/2000/svg" version="1.1" width="744" height="768">
<rect x="0" y="0" width="744" height="768" fill="#8d8b8c" />
<g transform="scale(3) translate(0.5 0.5)">
<g transform="translate(138.911510 227.231284) rotate(425.634147) scale(74.417680 247.000000)"><ellipse fill="#000000" fill-opacity="0.5019607843137255" cx="0" cy="0" rx="1" ry="1" /></g>
<g transform="translate(55.953191 86.313488) rotate(163.815471) scale(200.900391 65.565331)"><ellipse fill="#ffffff" fill-opacity="0.5019607843137255" cx="0" cy="0" rx="1" ry="1" /></g>
<g transform="translate(104.990658 177.969193) rotate(192.641908) scale(80.984304 25.818778)"><ellipse fill="#bcbabe" fill-opacity="0.5019607843137255" cx="0" cy="0" rx="1" ry="1" /></g>
<g transform="translate(246.648035 201.121401) rotate(231.871024) scale(85.137554 54.769095)"><ellipse fill="#000000" fill-opacity="0.5019607843137255" cx="0" cy="0" rx="1" ry="1" /></g>
<g transform="translate(75.491767 81.917004) rotate(76.277909) scale(41.135192 127.650910)"><ellipse fill="#fffffe" fill-opacity="0.5019607843137255" cx="0" cy="0" rx="1" ry="1" /></g>
<g transform="translate(210.526819 85.781640) rotate(11.181358) scale(32.527041 23.256566)"><ellipse fill="#49494d" fill-opacity="0.5019607843137255" cx="0" cy="0" rx="1" ry="1" /></g>
<g transform="translate(90.870517 250.990514) rotate(3.748015) scale(169.906169 23.561675)"><ellipse fill="#06070b" fill-opacity="0.5019607843137255" cx="0" cy="0" rx="1" ry="1" /></g>
<g transform="translate(150.193956 144.938074) rotate(281.218696) scale(15.806967 55.658849)"><ellipse fill="#1b1c20" fill-opacity="0.5019607843137255" cx="0" cy="0" rx="1" ry="1" /></g>
<g transform="translate(36.446816 200.391201) rotate(2.985551) scale(158.228451 14.716995)"><ellipse fill="#5c5d60" fill-opacity="0.5019607843137255" cx="0" cy="0" rx="1" ry="1" /></g>
<g transform="translate(154.278034 102.789187) rotate(105.603742) scale(13.214959 41.495095)"><ellipse fill="#fffcf8" fill-opacity="0.5019607843137255" cx="0" cy="0" rx="1" ry="1" /></g>
<g transform="translate(247.000000 63.632624) rotate(26.872798) scale(77.427339 13.519381)"><ellipse fill="#f5efec" fill-opacity="0.5019607843137255" cx="0" cy="0" rx="1" ry="1" /></g>
<g transform="translate(78.625644 12.256888) rotate(89.500765) scale(17.001143 200.468223)"><ellipse fill="#a9a7a8" fill-opacity="0.5019607843137255" cx="0" cy="0" rx="1" ry="1" /></g>
<g transform="translate(239.392667 175.638858) rotate(15.827228) scale(85.152936 27.274059)"><ellipse fill="#000009" fill-opacity="0.5019607843137255" cx="0" cy="0" rx="1" ry="1" /></g>
<g transform="translate(105.473186 164.011740) rotate(375.277945) scale(79.550732 13.692252)"><ellipse fill="#b5b2b3" fill-opacity="0.5019607843137255" cx="0" cy="0" rx="1" ry="1" /></g>
<g transform="translate(114.344661 131.210061) rotate(169.995361) scale(38.897375 9.688473)"><ellipse fill="#928f91" fill-opacity="0.5019607843137255" cx="0" cy="0" rx="1" ry="1" /></g>
<g transform="translate(179.002687 139.917761) rotate(-11.593389) scale(59.494890 16.961272)"><ellipse fill="#363638" fill-opacity="0.5019607843137255" cx="0" cy="0" rx="1" ry="1" /></g>
<g transform="translate(25.806769 216.242199) rotate(98.283134) scale(12.312921 192.332686)"><ellipse fill="#363639" fill-opacity="0.5019607843137255" cx="0" cy="0" rx="1" ry="1" /></g>
<g transform="translate(55.371345 186.009880) rotate(178.363331) scale(34.530136 16.459365)"><ellipse fill="#777679" fill-opacity="0.5019607843137255" cx="0" cy="0" rx="1" ry="1" /></g>
<g transform="translate(45.910688 80.301024) rotate(99.564240) scale(29.293400 139.008362)"><ellipse fill="#f6efea" fill-opacity="0.5019607843137255" cx="0" cy="0" rx="1" ry="1" /></g>
<g transform="translate(60.746843 33.982751) rotate(357.994398) scale(91.840291 20.416953)"><ellipse fill="#c4c0bf" fill-opacity="0.5019607843137255" cx="0" cy="0" rx="1" ry="1" /></g>
<g transform="translate(175.387151 216.849940) rotate(371.506900) scale(47.127920 8.494650)"><ellipse fill="#5f6062" fill-opacity="0.5019607843137255" cx="0" cy="0" rx="1" ry="1" /></g>
<g transform="translate(23.085845 138.253633) rotate(187.579133) scale(85.688491 8.410133)"><ellipse fill="#d8d4d2" fill-opacity="0.5019607843137255" cx="0" cy="0" rx="1" ry="1" /></g>
<g transform="translate(231.076680 148.223575) rotate(122.531988) scale(34.721722 13.744022)"><ellipse fill="#080610" fill-opacity="0.5019607843137255" cx="0" cy="0" rx="1" ry="1" /></g>
<g transform="translate(220.722395 73.948263) rotate(208.562058) scale(19.814916 12.998822)"><ellipse fill="#858386" fill-opacity="0.5019607843137255" cx="0" cy="0" rx="1" ry="1" /></g>
<g transform="translate(154.602947 159.223178) rotate(285.758867) scale(8.036866 18.232859)"><ellipse fill="#0f0e13" fill-opacity="0.5019607843137255" cx="0" cy="0" rx="1" ry="1" /></g>
<g transform="translate(6.476916 165.917983) rotate(258.152250) scale(8.656953 96.483425)"><ellipse fill="#b6b4b5" fill-opacity="0.5019607843137255" cx="0" cy="0" rx="1" ry="1" /></g>
<g transform="translate(66.738641 113.682753) rotate(-6.949547) scale(1.000000 3.244931)"><ellipse fill="#0d0c10" fill-opacity="0.5019607843137255" cx="0" cy="0" rx="1" ry="1" /></g>
<g transform="translate(200.100844 113.725489) rotate(-11.206243) scale(6.561099 5.784848)"><ellipse fill="#dcd9d9" fill-opacity="0.5019607843137255" cx="0" cy="0" rx="1" ry="1" /></g>
<g transform="translate(152.759664 73.822689) rotate(56.615535) scale(26.333732 33.986714)"><ellipse fill="#f7f2ed" fill-opacity="0.5019607843137255" cx="0" cy="0" rx="1" ry="1" /></g>
<g transform="translate(173.618740 6.213962) rotate(266.010785) scale(9.369811 192.959205)"><ellipse fill="#a2a0a3" fill-opacity="0.5019607843137255" cx="0" cy="0" rx="1" ry="1" /></g>
<g transform="translate(240.602904 63.829985) rotate(52.455274) scale(42.889089 8.997218)"><ellipse fill="#e0dcdb" fill-opacity="0.5019607843137255" cx="0" cy="0" rx="1" ry="1" /></g>
<g transform="translate(27.689420 127.657444) rotate(288.488749) scale(8.511653 1.000000)"><ellipse fill="#4b494b" fill-opacity="0.5019607843137255" cx="0" cy="0" rx="1" ry="1" /></g>
<g transform="translate(223.080519 191.016843) rotate(47.740660) scale(20.069445 28.735394)"><ellipse fill="#04010d" fill-opacity="0.5019607843137255" cx="0" cy="0" rx="1" ry="1" /></g>
<g transform="translate(238.398429 111.906470) rotate(267.484168) scale(4.642119 25.883892)"><ellipse fill="#b2b0b3" fill-opacity="0.5019607843137255" cx="0" cy="0" rx="1" ry="1" /></g>
<g transform="translate(98.158085 117.182807) rotate(133.464492) scale(3.161028 2.511193)"><ellipse fill="#676466" fill-opacity="0.5019607843137255" cx="0" cy="0" rx="1" ry="1" /></g>
<g transform="translate(176.233513 129.106000) rotate(169.300842) scale(56.457812 7.003409)"><ellipse fill="#636365" fill-opacity="0.5019607843137255" cx="0" cy="0" rx="1" ry="1" /></g>
<g transform="translate(30.110309 97.551911) rotate(182.100663) scale(3.487952 3.502961)"><ellipse fill="#929192" fill-opacity="0.5019607843137255" cx="0" cy="0" rx="1" ry="1" /></g>
<g transform="translate(233.002038 94.922150) rotate(-65.667532) scale(12.871118 10.481464)"><ellipse fill="#545557" fill-opacity="0.5019607843137255" cx="0" cy="0" rx="1" ry="1" /></g>
<g transform="translate(102.089712 176.257340) rotate(271.430166) scale(8.521976 76.899889)"><ellipse fill="#908e92" fill-opacity="0.5019607843137255" cx="0" cy="0" rx="1" ry="1" /></g>
<g transform="translate(64.963508 255.000000) rotate(271.685316) scale(15.459231 80.864080)"><ellipse fill="#16151a" fill-opacity="0.5019607843137255" cx="0" cy="0" rx="1" ry="1" /></g>
<g transform="translate(79.679676 204.446252) rotate(273.525746) scale(8.372036 116.499843)"><ellipse fill="#5d5d5f" fill-opacity="0.5019607843137255" cx="0" cy="0" rx="1" ry="1" /></g>
<g transform="translate(199.797984 92.816722) rotate(299.770200) scale(19.536706 7.701813)"><ellipse fill="#6f6e71" fill-opacity="0.5019607843137255" cx="0" cy="0" rx="1" ry="1" /></g>
<g transform="translate(46.920565 132.872167) rotate(277.845644) scale(2.789018 1.000000)"><ellipse fill="#000000" fill-opacity="0.5019607843137255" cx="0" cy="0" rx="1" ry="1" /></g>
<g transform="translate(218.485243 224.342918) rotate(158.320362) scale(63.035766 9.612332)"><ellipse fill="#333437" fill-opacity="0.5019607843137255" cx="0" cy="0" rx="1" ry="1" /></g>
<g transform="translate(157.778278 122.574617) rotate(263.533627) scale(3.625996 64.932667)"><ellipse fill="#9b999d" fill-opacity="0.5019607843137255" cx="0" cy="0" rx="1" ry="1" /></g>
<g transform="translate(44.659609 55.118623) rotate(183.446945) scale(60.517139 13.163170)"><ellipse fill="#ded9d9" fill-opacity="0.5019607843137255" cx="0" cy="0" rx="1" ry="1" /></g>
<g transform="translate(170.552278 29.604112) rotate(358.404646) scale(47.539311 10.124766)"><ellipse fill="#d6d1cf" fill-opacity="0.5019607843137255" cx="0" cy="0" rx="1" ry="1" /></g>
<g transform="translate(26.317228 134.665905) rotate(87.099901) scale(1.420478 1.961354)"><ellipse fill="#000000" fill-opacity="0.5019607843137255" cx="0" cy="0" rx="1" ry="1" /></g>
<g transform="translate(100.476994 140.154580) rotate(114.259498) scale(5.187074 14.059165)"><ellipse fill="#717174" fill-opacity="0.5019607843137255" cx="0" cy="0" rx="1" ry="1" /></g>
<g transform="translate(199.998960 50.377313) rotate(266.465700) scale(9.973589 22.808891)"><ellipse fill="#f5efec" fill-opacity="0.5019607843137255" cx="0" cy="0" rx="1" ry="1" /></g>
</g>
</svg>