<svg xmlns="http://www.w3.org/2000/svg" version="1.1" width="744" height="768">
<rect x="0" y="0" width="744" height="768" fill="#8d8b8c" />
<g transform="scale(3) translate(0.5 0.5)">
<g transform="translate(144 230) rotate(246) scale(147 255)"><rect fill="#000000" fill-opacity="0.5019607843137255" x="-0.5" y="-0.5" width="1" height="1" /></g>
<g transform="translate(105 58) rotate(64) scale(139 255)"><rect fill="#ffffff" fill-opacity="0.5019607843137255" x="-0.5" y="-0.5" width="1" height="1" /></g>
<g transform="translate(118 177) rotate(381) scale(122 43)"><rect fill="#c1bfc3" fill-opacity="0.5019607843137255" x="-0.5" y="-0.5" width="1" height="1" /></g>
<g transform="translate(242 194) rotate(62) scale(138 99)"><rect fill="#000000" fill-opacity="0.5019607843137255" x="-0.5" y="-0.5" width="1" height="1" /></g>
<g transform="translate(91 82) rotate(178) scale(187 79)"><rect fill="#ffffff" fill-opacity="0.5019607843137255" x="-0.5" y="-0.5" width="1" height="1" /></g>
<g transform="translate(122 255) rotate(95) scale(47 255)"><rect fill="#030409" fill-opacity="0.5019607843137255" x="-0.5" y="-0.5" width="1" height="1" /></g>
<g transform="translate(209 87) rotate(251) scale(46 50)"><rect fill="#535356" fill-opacity="0.5019607843137255" x="-0.5" y="-0.5" width="1" height="1" /></g>
<g transform="translate(151 142) rotate(265) scale(25 71)"><rect fill="#151619" fill-opacity="0.5019607843137255" x="-0.5" y="-0.5" width="1" height="1" /></g>
<g transform="translate(120 2) rotate(447) scale(43 255)"><rect fill="#989598" fill-opacity="0.5019607843137255" x="-0.5" y="-0.5" width="1" height="1" /></g>
<g transform="translate(90 200) rotate(183) scale(184 30)"><rect fill="#68696c" fill-opacity="0.5019607843137255" x="-0.5" y="-0.5" width="1" height="1" /></g>
<g transform="translate(207 43) rotate(-7) scale(164 39)"><rect fill="#f0e9e6" fill-opacity="0.5019607843137255" x="-0.5" y="-0.5" width="1" height="1" /></g>
<g transform="translate(226 172) rotate(150) scale(85 66)"><rect fill="#000009" fill-opacity="0.5019607843137255" x="-0.5" y="-0.5" width="1" height="1" /></g>
<g transform="translate(14 109) rotate(45) scale(75 106)"><rect fill="#f4eee8" fill-opacity="0.5019607843137255" x="-0.5" y="-0.5" width="1" height="1" /></g>
<g transform="translate(112 131) rotate(-13) scale(64 17)"><rect fill="#878588" fill-opacity="0.5019607843137255" x="-0.5" y="-0.5" width="1" height="1" /></g>
<g transform="translate(179 111) rotate(95) scale(7 56)"><rect fill="#fff9f6" fill-opacity="0.5019607843137255" x="-0.5" y="-0.5" width="1" height="1" /></g>
<g transform="translate(69 179) rotate(367) scale(121 35)"><rect fill="#8c8a8d" fill-opacity="0.5019607843137255" x="-0.5" y="-0.5" width="1" height="1" /></g>
<g transform="translate(117 168) rotate(21) scale(93 28)"><rect fill="#aba9ab" fill-opacity="0.5019607843137255" x="-0.5" y="-0.5" width="1" height="1" /></g>
<g transform="translate(154 159) rotate(292) scale(12 92)"><rect fill="#0d0c14" fill-opacity="0.5019607843137255" x="-0.5" y="-0.5" width="1" height="1" /></g>
<g transform="translate(240 67) rotate(46) scale(49 13)"><rect fill="#f5f0ee" fill-opacity="0.5019607843137255" x="-0.5" y="-0.5" width="1" height="1" /></g>
<g transform="translate(84 255) rotate(191) scale(213 79)"><rect fill="#2b2b2d" fill-opacity="0.5019607843137255" x="-0.5" y="-0.5" width="1" height="1" /></g>
<g transform="translate(224 114) rotate(81) scale(9 21)"><rect fill="#cccacd" fill-opacity="0.5019607843137255" x="-0.5" y="-0.5" width="1" height="1" /></g>
<g transform="translate(194 86) rotate(354) scale(31 19)"><rect fill="#787579" fill-opacity="0.5019607843137255" x="-0.5" y="-0.5" width="1" height="1" /></g>
<g transform="translate(28 129) rotate(190) scale(4 13)"><rect fill="#3e3e43" fill-opacity="0.5019607843137255" x="-0.5" y="-0.5" width="1" height="1" /></g>
<g transform="translate(181 219) rotate(280) scale(17 93)"><rect fill="#515155" fill-opacity="0.5019607843137255" x="-0.5" y="-0.5" width="1" height="1" /></g>
<g transform="translate(46 35) rotate(361) scale(133 35)"><rect fill="#c3bfbd" fill-opacity="0.5019607843137255" x="-0.5" y="-0.5" width="1" height="1" /></g>
<g transform="translate(195 124) rotate(80) scale(6 102)"><rect fill="#5a5b5e" fill-opacity="0.5019607843137255" x="-0.5" y="-0.5" width="1" height="1" /></g>
<g transform="translate(234 95) rotate(108) scale(26 15)"><rect fill="#48494c" fill-opacity="0.5019607843137255" x="-0.5" y="-0.5" width="1" height="1" /></g>
<g transform="translate(218 14) rotate(209) scale(66 31)"><rect fill="#abaaab" fill-opacity="0.5019607843137255" x="-0.5" y="-0.5" width="1" height="1" /></g>
<g transform="translate(143 79) rotate(3) scale(75 56)"><rect fill="#f9f3ed" fill-opacity="0.5019607843137255" x="-0.5" y="-0.5" width="1" height="1" /></g>
<g transform="translate(83 255) rotate(96) scale(25 176)"><rect fill="#151418" fill-opacity="0.5019607843137255" x="-0.5" y="-0.5" width="1" height="1" /></g>
<g transform="translate(109 141) rotate(198) scale(35 11)"><rect fill="#636465" fill-opacity="0.5019607843137255" x="-0.5" y="-0.5" width="1" height="1" /></g>
<g transform="translate(34 197) rotate(169) scale(94 26)"><rect fill="#656567" fill-opacity="0.5019607843137255" x="-0.5" y="-0.5" width="1" height="1" /></g>
<g transform="translate(128 0) rotate(-3) scale(202 21)"><rect fill="#979597" fill-opacity="0.5019607843137255" x="-0.5" y="-0.5" width="1" height="1" /></g>
<g transform="translate(121 120) rotate(93) scale(8 60)"><rect fill="#bdb9b8" fill-opacity="0.5019607843137255" x="-0.5" y="-0.5" width="1" height="1" /></g>
<g transform="translate(176 197) rotate(261) scale(39 14)"><rect fill="#88878a" fill-opacity="0.5019607843137255" x="-0.5" y="-0.5" width="1" height="1" /></g>
<g transform="translate(66 113) rotate(181) scale(3 7)"><rect fill="#151314" fill-opacity="0.5019607843137255" x="-0.5" y="-0.5" width="1" height="1" /></g>
<g transform="translate(203 67) rotate(77) scale(12 32)"><rect fill="#979497" fill-opacity="0.5019607843137255" x="-0.5" y="-0.5" width="1" height="1" /></g>
<g transform="translate(196 51) rotate(260) scale(22 36)"><rect fill="#f8f4f1" fill-opacity="0.5019607843137255" x="-0.5" y="-0.5" width="1" height="1" /></g>
<g transform="translate(30 97) rotate(342) scale(4 4)"><rect fill="#191a1e" fill-opacity="0.5019607843137255" x="-0.5" y="-0.5" width="1" height="1" /></g>
<g transform="translate(49 157) rotate(83) scale(21 98)"><rect fill="#b7b5b5" fill-opacity="0.5019607843137255" x="-0.5" y="-0.5" width="1" height="1" /></g>
<g transform="translate(228 132) rotate(250) scale(15 150)"><rect fill="#222226" fill-opacity="0.5019607843137255" x="-0.5" y="-0.5" width="1" height="1" /></g>
<g transform="translate(73 90) rotate(-2) scale(80 44)"><rect fill="#f6f1eb" fill-opacity="0.5019607843137255" x="-0.5" y="-0.5" width="1" height="1" /></g>
<g transform="translate(139 203) rotate(101) scale(16 97)"><rect fill="#656567" fill-opacity="0.5019607843137255" x="-0.5" y="-0.5" width="1" height="1" /></g>
<g transform="translate(179 105) rotate(212) scale(15 14)"><rect fill="#f4efed" fill-opacity="0.5019607843137255" x="-0.5" y="-0.5" width="1" height="1" /></g>
<g transform="translate(46 133) rotate(333) scale(4 3)"><rect fill="#030203" fill-opacity="0.5019607843137255" x="-0.5" y="-0.5" width="1" height="1" /></g>
<g transform="translate(219 103) rotate(334) scale(29 10)"><rect fill="#4d4e50" fill-opacity="0.5019607843137255" x="-0.5" y="-0.5" width="1" height="1" /></g>
<g transform="translate(225 79) rotate(247) scale(19 23)"><rect fill="#727174" fill-opacity="0.5019607843137255" x="-0.5" y="-0.5" width="1" height="1" /></g>
<g transform="translate(121 184) rotate(186) scale(121 19)"><rect fill="#868487" fill-opacity="0.5019607843137255" x="-0.5" y="-0.5" width="1" height="1" /></g>
<g transform="translate(15 116) rotate(62) scale(1 4)"><rect fill="#000002" fill-opacity="0.5019607843137255" x="-0.5" y="-0.5" width="1" height="1" /></g>
<g transform="translate(97 119) rotate(167) scale(1 10)"><rect fill="#373638" fill-opacity="0.5019607843137255" x="-0.5" y="-0.5" width="1" height="1" /></g>
<g transform="translate(155 152) rotate(63) scale(25 23)"><rect fill="#1e1d21" fill-opacity="0.5019607843137255" x="-0.5" y="-0.5" width="1" height="1" /></g>
<g transform="translate(233 110) rotate(79) scale(7 32)"><rect fill="#b8b5b7" fill-opacity="0.5019607843137255" x="-0.5" y="-0.5" width="1" height="1" /></g>
<g transform="translate(157 235) rotate(183) scale(140 15)"><rect fill="#363639" fill-opacity="0.5019607843137255" x="-0.5" y="-0.5" width="1" height="1" /></g>
<g transform="translate(190 89) rotate(102) scale(16 24)"><rect fill="#818082" fill-opacity="0.5019607843137255" x="-0.5" y="-0.5" width="1" height="1" /></g>
<g transform="translate(56 125) rotate(78) scale(36 17)"><rect fill="#e9e3e0" fill-opacity="0.5019607843137255" x="-0.5" y="-0.5" width="1" height="1" /></g>
<g transform="translate(71 49) rotate(177) scale(160 22)"><rect fill="#dbd6d4" fill-opacity="0.5019607843137255" x="-0.5" y="-0.5" width="1" height="1" /></g>
<g transform="translate(161 22) rotate(181) scale(104 16)"><rect fill="#c5c2c2" fill-opacity="0.5019607843137255" x="-0.5" y="-0.5" width="1" height="1" /></g>
<g transform="translate(34 169) rotate(264) scale(12 180)"><rect fill="#9f9d9f" fill-opacity="0.5019607843137255" x="-0.5" y="-0.5" width="1" height="1" /></g>
<g transform="translate(33 22) rotate(266) scale(23 128)"><rect fill="#acabad" fill-opacity="0.5019607843137255" x="-0.5" y="-0.5" width="1" height="1" /></g>
<g transform="translate(71 213) rotate(367) scale(143 14)"><rect fill="#4b4b4e" fill-opacity="0.5019607843137255" x="-0.5" y="-0.5" width="1" height="1" /></g>
<g transform="translate(25 132) rotate(87) scale(7 3)"><rect fill="#2a2b2e" fill-opacity="0.5019607843137255" x="-0.5" y="-0.5" width="1" height="1" /></g>
<g transform="translate(26 128) rotate(117) scale(4 61)"><rect fill="#eae5e3" fill-opacity="0.5019607843137255" x="-0.5" y="-0.5" width="1" height="1" /></g>
<g transform="translate(188 114) rotate(81) scale(8 35)"><rect fill="#c9c6c6" fill-opacity="0.5019607843137255" x="-0.5" y="-0.5" width="1" height="1" /></g>
<g transform="translate(236 186) rotate(291) scale(25 79)"><rect fill="#02000b" fill-opacity="0.5019607843137255" x="-0.5" y="-0.5" width="1" height="1" /></g>
<g transform="translate(247 66) rotate(329) scale(21 90)"><rect fill="#d2cfce" fill-opacity="0.5019607843137255" x="-0.5" y="-0.5" width="1" height="1" /></g>
<g transform="translate(203 128) rotate(86) scale(11 55)"><rect fill="#4c4d4f" fill-opacity="0.5019607843137255" x="-0.5" y="-0.5" width="1" height="1" /></g>
<g transform="translate(194 190) rotate(267) scale(20 25)"><rect fill="#232327" fill-opacity="0.5019607843137255" x="-0.5" y="-0.5" width="1" height="1" /></g>
<g transform="translate(26 145) rotate(263) scale(15 89)"><rect fill="#d5d0cf" fill-opacity="0.5019607843137255" x="-0.5" y="-0.5" width="1" height="1" /></g>
<g transform="translate(149 173) rotate(188) scale(32 13)"><rect fill="#9f9da0" fill-opacity="0.5019607843137255" x="-0.5" y="-0.5" width="1" height="1" /></g>
<g transform="translate(235 217) rotate(157) scale(124 14)"><rect fill="#343437" fill-opacity="0.5019607843137255" x="-0.5" y="-0.5" width="1" height="1" /></g>
<g transform="translate(174 139) rotate(169) scale(108 9)"><rect fill="#39393b" fill-opacity="0.5019607843137255" x="-0.5" y="-0.5" width="1" height="1" /></g>
<g transform="translate(97 117) rotate(65) scale(1 4)"><rect fill="#060509" fill-opacity="0.5019607843137255" x="-0.5" y="-0.5" width="1" height="1" /></g>
<g transform="translate(120 134) rotate(273) scale(12 32)"><rect fill="#7c7b7e" fill-opacity="0.5019607843137255" x="-0.5" y="-0.5" width="1" height="1" /></g>
<g transform="translate(215 255) rotate(336) scale(92 44)"><rect fill="#1e1d22" fill-opacity="0.5019607843137255" x="-0.5" y="-0.5" width="1" height="1" /></g>
<g transform="translate(9 87) rotate(112) scale(39 43)"><rect fill="#f9f5f1" fill-opacity="0.5019607843137255" x="-0.5" y="-0.5" width="1" height="1" /></g>
<g transform="translate(168 119) rotate(175) scale(79 2)"><rect fill="#acaaac" fill-opacity="0.5019607843137255" x="-0.5" y="-0.5" width="1" height="1" /></g>
<g transform="translate(184 77) rotate(125) scale(19 7)"><rect fill="#b2b0b1" fill-opacity="0.5019607843137255" x="-0.5" y="-0.5" width="1" height="1" /></g>
<g transform="translate(77 226) rotate(184) scale(218 13)"><rect fill="#3b3b3d" fill-opacity="0.5019607843137255" x="-0.5" y="-0.5" width="1" height="1" /></g>
<g transform="translate(176 165) rotate(107) scale(13 65)"><rect fill="#0b0913" fill-opacity="0.5019607843137255" x="-0.5" y="-0.5" width="1" height="1" /></g>
<g transform="translate(89 127) rotate(70) scale(7 33)"><rect fill="#bebcbb" fill-opacity="0.5019607843137255" x="-0.5" y="-0.5" width="1" height="1" /></g>
<g transform="translate(155 112) rotate(355) scale(47 10)"><rect fill="#e4dfdd" fill-opacity="0.5019607843137255" x="-0.5" y="-0.5" width="1" height="1" /></g>
<g transform="translate(42 120) rotate(222) scale(21 24)"><rect fill="#eae6e4" fill-opacity="0.5019607843137255" x="-0.5" y="-0.5" width="1" height="1" /></g>
<g transform="translate(119 161) rotate(196) scale(46 11)"><rect fill="#adabac" fill-opacity="0.5019607843137255" x="-0.5" y="-0.5" width="1" height="1" /></g>
<g transform="translate(171 66) rotate(210) scale(26 40)"><rect fill="#f4f0ed" fill-opacity="0.5019607843137255" x="-0.5" y="-0.5" width="1" height="1" /></g>
<g transform="translate(65 116) rotate(216) scale(1 5)"><rect fill="#0b0b0d" fill-opacity="0.5019607843137255" x="-0.5" y="-0.5" width="1" height="1" /></g>
<g transform="translate(237 23) rotate(113) scale(20 34)"><rect fill="#b5b4b5" fill-opacity="0.5019607843137255" x="-0.5" y="-0.5" width="1" height="1" /></g>
<g transform="translate(199 149) rotate(311) scale(15 31)"><rect fill="#1b1a1e" fill-opacity="0.5019607843137255" x="-0.5" y="-0.5" width="1" height="1" /></g>
<g transform="translate(172 182) rotate(-17) scale(15 9)"><rect fill="#9b989c" fill-opacity="0.5019607843137255" x="-0.5" y="-0.5" width="1" height="1" /></g>
<g transform="translate(152 194) rotate(278) scale(13 58)"><rect fill="#7b797c" fill-opacity="0.5019607843137255" x="-0.5" y="-0.5" width="1" height="1" /></g>
<g transform="translate(15 115) rotate(11) scale(3 5)"><rect fill="#4b4a4f" fill-opacity="0.5019607843137255" x="-0.5" y="-0.5" width="1" height="1" /></g>
<g transform="translate(187 100) rotate(233) scale(23 3)"><rect fill="#8f8e90" fill-opacity="0.5019607843137255" x="-0.5" y="-0.5" width="1" height="1" /></g>
<g transform="translate(226 58) rotate(35) scale(51 9)"><rect fill="#e4e0df" fill-opacity="0.5019607843137255" x="-0.5" y="-0.5" width="1" height="1" /></g>
<g transform="translate(236 85) rotate(243) scale(6 20)"><rect fill="#6f6f71" fill-opacity="0.5019607843137255" x="-0.5" y="-0.5" width="1" height="1" /></g>
<g transform="translate(243 114) rotate(263) scale(2 93)"><rect fill="#87868a" fill-opacity="0.5019607843137255" x="-0.5" y="-0.5" width="1" height="1" /></g>
<g transform="translate(201 204) rotate(203) scale(17 23)"><rect fill="#1b191f" fill-opacity="0.5019607843137255" x="-0.5" y="-0.5" width="1" height="1" /></g>
<g transform="translate(247 88) rotate(281) scale(7 3)"><rect fill="#e0dedf" fill-opacity="0.5019607843137255" x="-0.5" y="-0.5" width="1" height="1" /></g>
<g transform="translate(28 137) rotate(90) scale(3 2)"><rect fill="#4d4d52" fill-opacity="0.5019607843137255" x="-0.5" y="-0.5" width="1" height="1" /></g>
<g transform="translate(66 122) rotate(-8) scale(59 8)"><rect fill="#e0dad8" fill-opacity="0.5019607843137255" x="-0.5" y="-0.5" width="1" height="1" /></g>
<g transform="translate(47 130) rotate(315) scale(2 1)"><rect fill="#232328" fill-opacity="0.5019607843137255" x="-0.5" y="-0.5" width="1" height="1" /></g>
<g transform="translate(76 142) rotate(200) scale(27 11)"><rect fill="#cccac8" fill-opacity="0.5019607843137255" x="-0.5" y="-0.5" width="1" height="1" /></g>
<g transform="translate(14 200) rotate(181) scale(58 10)"><rect fill="#616163" fill-opacity="0.5019607843137255" x="-0.5" y="-0.5" width="1" height="1" /></g>
<g transform="translate(159 128) rotate(353) scale(46 4)"><rect fill="#727174" fill-opacity="0.5019607843137255" x="-0.5" y="-0.5" width="1" height="1" /></g>
<g transform="translate(196 73) rotate(49) scale(9 33)"><rect fill="#959396" fill-opacity="0.5019607843137255" x="-0.5" y="-0.5" width="1" height="1" /></g>
<g transform="translate(161 170) rotate(204) scale(7 5)"><rect fill="#99979b" fill-opacity="0.5019607843137255" x="-0.5" y="-0.5" width="1" height="1" /></g>
<g transform="translate(29 126) rotate(147) scale(5 1)"><rect fill="#2e2e33" fill-opacity="0.5019607843137255" x="-0.5" y="-0.5" width="1" height="1" /></g>
<g transform="translate(247 135) rotate(259) scale(31 15)"><rect fill="#121117" fill-opacity="0.5019607843137255" x="-0.5" y="-0.5" width="1" height="1" /></g>
<g transform="translate(173 222) rotate(266) scale(20 37)"><rect fill="#505052" fill-opacity="0.5019607843137255" x="-0.5" y="-0.5" width="1" height="1" /></g>
<g transform="translate(30 181) rotate(265) scale(14 70)"><rect fill="#858387" fill-opacity="0.5019607843137255" x="-0.5" y="-0.5" width="1" height="1" /></g>
<g transform="translate(115 145) rotate(27) scale(23 10)"><rect fill="#525354" fill-opacity="0.5019607843137255" x="-0.5" y="-0.5" width="1" height="1" /></g>
<g transform="translate(175 164) rotate(25) scale(9 23)"><rect fill="#14131a" fill-opacity="0.5019607843137255" x="-0.5" y="-0.5" width="1" height="1" /></g>
<g transform="translate(230 99) rotate(287) scale(13 19)"><rect fill="#59595b" fill-opacity="0.5019607843137255" x="-0.5" y="-0.5" width="1" height="1" /></g>
<g transform="translate(151 50) rotate(262) scale(16 104)"><rect fill="#e7e3e1" fill-opacity="0.5019607843137255" x="-0.5" y="-0.5" width="1" height="1" /></g>
<g transform="translate(215 97) rotate(241) scale(17 28)"><rect fill="#646567" fill-opacity="0.5019607843137255" x="-0.5" y="-0.5" width="1" height="1" /></g>
<g transform="translate(93 0) rotate(173) scale(110 16)"><rect fill="#9b999c" fill-opacity="0.5019607843137255" x="-0.5" y="-0.5" width="1" height="1" /></g>
<g transform="translate(208 84) rotate(138) scale(28 16)"><rect fill="#777679" fill-opacity="0.5019607843137255" x="-0.5" y="-0.5" width="1" height="1" /></g>
<g transform="translate(230 130) rotate(8) scale(18 19)"><rect fill="#2a2a2c" fill-opacity="0.5019607843137255" x="-0.5" y="-0.5" width="1" height="1" /></g>
<g transform="translate(97 134) rotate(346) scale(27 4)"><rect fill="#939094" fill-opacity="0.5019607843137255" x="-0.5" y="-0.5" width="1" height="1" /></g>
<g transform="translate(200 220) rotate(7) scale(28 6)"><rect fill="#515152" fill-opacity="0.5019607843137255" x="-0.5" y="-0.5" width="1" height="1" /></g>
<g transform="translate(119 154) rotate(244) scale(5 3)"><rect fill="#b8b6b8" fill-opacity="0.5019607843137255" x="-0.5" y="-0.5" width="1" height="1" /></g>
<g transform="translate(178 103) rotate(123) scale(13 20)"><rect fill="#e8e4e2" fill-opacity="0.5019607843137255" x="-0.5" y="-0.5" width="1" height="1" /></g>
<g transform="translate(221 190) rotate(225) scale(46 26)"><rect fill="#080710" fill-opacity="0.5019607843137255" x="-0.5" y="-0.5" width="1" height="1" /></g>
<g transform="translate(226 65) rotate(48) scale(13 5)"><rect fill="#a2a0a2" fill-opacity="0.5019607843137255" x="-0.5" y="-0.5" width="1" height="1" /></g>
<g transform="translate(236 117) rotate(350) scale(77 2)"><rect fill="#616164" fill-opacity="0.5019607843137255" x="-0.5" y="-0.5" width="1" height="1" /></g>
<g transform="translate(47 101) rotate(146) scale(21 28)"><rect fill="#f3efed" fill-opacity="0.5019607843137255" x="-0.5" y="-0.5" width="1" height="1" /></g>
<g transform="translate(246 103) rotate(318) scale(2 13)"><rect fill="#bdbbbd" fill-opacity="0.5019607843137255" x="-0.5" y="-0.5" width="1" height="1" /></g>
<g transform="translate(33 115) rotate(145) scale(15 29)"><rect fill="#f0ece9" fill-opacity="0.5019607843137255" x="-0.5" y="-0.5" width="1" height="1" /></g>
<g transform="translate(30 94) rotate(230) scale(3 1)"><rect fill="#434348" fill-opacity="0.5019607843137255" x="-0.5" y="-0.5" width="1" height="1" /></g>
<g transform="translate(10 133) rotate(42) scale(18 30)"><rect fill="#e1dddd" fill-opacity="0.5019607843137255" x="-0.5" y="-0.5" width="1" height="1" /></g>
<g transform="translate(17 153) rotate(283) scale(13 27)"><rect fill="#c6c3c3" fill-opacity="0.5019607843137255" x="-0.5" y="-0.5" width="1" height="1" /></g>
<g transform="translate(210 111) rotate(276) scale(26 2)"><rect fill="#555557" fill-opacity="0.5019607843137255" x="-0.5" y="-0.5" width="1" height="1" /></g>
<g transform="translate(247 97) rotate(40) scale(5 6)"><rect fill="#4b4d50" fill-opacity="0.5019607843137255" x="-0.5" y="-0.5" width="1" height="1" /></g>
<g transform="translate(29 130) rotate(44) scale(1 5)"><rect fill="#ffffff" fill-opacity="0.5019607843137255" x="-0.5" y="-0.5" width="1" height="1" /></g>
<g transform="translate(51 158) rotate(172) scale(107 8)"><rect fill="#b2b0b1" fill-opacity="0.5019607843137255" x="-0.5" y="-0.5" width="1" height="1" /></g>
<g transform="translate(166 181) rotate(31) scale(24 17)"><rect fill="#908e91" fill-opacity="0.5019607843137255" x="-0.5" y="-0.5" width="1" height="1" /></g>
<g transform="translate(239 76) rotate(197) scale(1 10)"><rect fill="#d9d8d7" fill-opacity="0.5019607843137255" x="-0.5" y="-0.5" width="1" height="1" /></g>
<g transform="translate(104 107) rotate(197) scale(22 20)"><rect fill="#ebe5e3" fill-opacity="0.5019607843137255" x="-0.5" y="-0.5" width="1" height="1" /></g>
<g transform="translate(15 0) rotate(84) scale(12 33)"><rect fill="#818084" fill-opacity="0.5019607843137255" x="-0.5" y="-0.5" width="1" height="1" /></g>
<g transform="translate(47 236) rotate(94) scale(14 176)"><rect fill="#272728" fill-opacity="0.5019607843137255" x="-0.5" y="-0.5" width="1" height="1" /></g>
<g transform="translate(107 122) rotate(263) scale(4 67)"><rect fill="#c6c3c3" fill-opacity="0.5019607843137255" x="-0.5" y="-0.5" width="1" height="1" /></g>
<g transform="translate(46 133) rotate(220) scale(4 1)"><rect fill="#000000" fill-opacity="0.5019607843137255" x="-0.5" y="-0.5" width="1" height="1" /></g>
<g transform="translate(156 142) rotate(10) scale(21 10)"><rect fill="#434445" fill-opacity="0.5019607843137255" x="-0.5" y="-0.5" width="1" height="1" /></g>
<g transform="translate(68 107) rotate(143) scale(7 15)"><rect fill="#ede9e7" fill-opacity="0.5019607843137255" x="-0.5" y="-0.5" width="1" height="1" /></g>
<g transform="translate(139 150) rotate(88) scale(10 34)"><rect fill="#2a2b2b" fill-opacity="0.5019607843137255" x="-0.5" y="-0.5" width="1" height="1" /></g>
<g transform="translate(209 8) rotate(184) scale(89 6)"><rect fill="#a3a0a2" fill-opacity="0.5019607843137255" x="-0.5" y="-0.5" width="1" height="1" /></g>
<g transform="translate(59 170) rotate(175) scale(99 8)"><rect fill="#989699" fill-opacity="0.5019607843137255" x="-0.5" y="-0.5" width="1" height="1" /></g>
<g transform="translate(138 33) rotate(259) scale(7 66)"><rect fill="#d3cecd" fill-opacity="0.5019607843137255" x="-0.5" y="-0.5" width="1" height="1" /></g>
<g transform="translate(198 98) rotate(212) scale(1 30)"><rect fill="#6d6e70" fill-opacity="0.5019607843137255" x="-0.5" y="-0.5" width="1" height="1" /></g>
<g transform="translate(108 200) rotate(367) scale(61 7)"><rect fill="#656567" fill-opacity="0.5019607843137255" x="-0.5" y="-0.5" width="1" height="1" /></g>
<g transform="translate(192 129) rotate(256) scale(8 41)"><rect fill="#545456" fill-opacity="0.5019607843137255" x="-0.5" y="-0.5" width="1" height="1" /></g>
<g transform="translate(73 187) rotate(273) scale(9 84)"><rect fill="#79787a" fill-opacity="0.5019607843137255" x="-0.5" y="-0.5" width="1" height="1" /></g>
<g transform="translate(186 212) rotate(164) scale(9 17)"><rect fill="#656568" fill-opacity="0.5019607843137255" x="-0.5" y="-0.5" width="1" height="1" /></g>
<g transform="translate(194 113) rotate(351) scale(28 1)"><rect fill="#dad7d5" fill-opacity="0.5019607843137255" x="-0.5" y="-0.5" width="1" height="1" /></g>
<g transform="translate(18 16) rotate(176) scale(55 12)"><rect fill="#a09ea0" fill-opacity="0.5019607843137255" x="-0.5" y="-0.5" width="1" height="1" /></g>
<g transform="translate(90 133) rotate(85) scale(4 34)"><rect fill="#a09ea0" fill-opacity="0.5019607843137255" x="-0.5" y="-0.5" width="1" height="1" /></g>
<g transform="translate(187 187) rotate(110) scale(11 11)"><rect fill="#2e2e2f" fill-opacity="0.5019607843137255" x="-0.5" y="-0.5" width="1" height="1" /></g>
<g transform="translate(26 134) rotate(42) scale(2 1)"><rect fill="#060609" fill-opacity="0.5019607843137255" x="-0.5" y="-0.5" width="1" height="1" /></g>
<g transform="translate(47 255) rotate(97) scale(16 96)"><rect fill="#19191d" fill-opacity="0.5019607843137255" x="-0.5" y="-0.5" width="1" height="1" /></g>
<g transform="translate(127 126) rotate(353) scale(50 2)"><rect fill="#9a999c" fill-opacity="0.5019607843137255" x="-0.5" y="-0.5" width="1" height="1" /></g>
<g transform="translate(16 126) rotate(46) scale(12 19)"><rect fill="#e9e4e3" fill-opacity="0.5019607843137255" x="-0.5" y="-0.5" width="1" height="1" /></g>
<g transform="translate(170 120) rotate(86) scale(3 31)"><rect fill="#a4a2a6" fill-opacity="0.5019607843137255" x="-0.5" y="-0.5" width="1" height="1" /></g>
<g transform="translate(38 69) rotate(270) scale(18 151)"><rect fill="#ebe6e3" fill-opacity="0.5019607843137255" x="-0.5" y="-0.5" width="1" height="1" /></g>
<g transform="translate(40 140) rotate(152) scale(16 6)"><rect fill="#dfdbd9" fill-opacity="0.5019607843137255" x="-0.5" y="-0.5" width="1" height="1" /></g>
<g transform="translate(28 122) rotate(128) scale(1 4)"><rect fill="#858589" fill-opacity="0.5019607843137255" x="-0.5" y="-0.5" width="1" height="1" /></g>
<g transform="translate(216 231) rotate(68) scale(8 72)"><rect fill="#2d2d2e" fill-opacity="0.5019607843137255" x="-0.5" y="-0.5" width="1" height="1" /></g>
<g transform="translate(144 159) rotate(301) scale(4 22)"><rect fill="#232324" fill-opacity="0.5019607843137255" x="-0.5" y="-0.5" width="1" height="1" /></g>
<g transform="translate(55 41) rotate(88) scale(9 107)"><rect fill="#cac8c6" fill-opacity="0.5019607843137255" x="-0.5" y="-0.5" width="1" height="1" /></g>
<g transform="translate(215 63) rotate(184) scale(17 5)"><rect fill="#a4a2a4" fill-opacity="0.5019607843137255" x="-0.5" y="-0.5" width="1" height="1" /></g>
<g transform="translate(184 153) rotate(189) scale(42 7)"><rect fill="#262527" fill-opacity="0.5019607843137255" x="-0.5" y="-0.5" width="1" height="1" /></g>
<g transform="translate(136 137) rotate(59) scale(5 23)"><rect fill="#58595b" fill-opacity="0.5019607843137255" x="-0.5" y="-0.5" width="1" height="1" /></g>
<g transform="translate(53 29) rotate(-5) scale(154 8)"><rect fill="#bdbbbc" fill-opacity="0.5019607843137255" x="-0.5" y="-0.5" width="1" height="1" /></g>
<g transform="translate(31 98) rotate(162) scale(1 1)"><rect fill="#000000" fill-opacity="0.5019607843137255" x="-0.5" y="-0.5" width="1" height="1" /></g>
<g transform="translate(29 98) rotate(64) scale(1 3)"><rect fill="#212024" fill-opacity="0.5019607843137255" x="-0.5" y="-0.5" width="1" height="1" /></g>
<g transform="translate(107 136) rotate(264) scale(6 35)"><rect fill="#818083" fill-opacity="0.5019607843137255" x="-0.5" y="-0.5" width="1" height="1" /></g>
<g transform="translate(193 82) rotate(330) scale(28 11)"><rect fill="#868487" fill-opacity="0.5019607843137255" x="-0.5" y="-0.5" width="1" height="1" /></g>
<g transform="translate(26 131) rotate(338) scale(1 5)"><rect fill="#38383b" fill-opacity="0.5019607843137255" x="-0.5" y="-0.5" width="1" height="1" /></g>
<g transform="translate(228 99) rotate(149) scale(36 4)"><rect fill="#565557" fill-opacity="0.5019607843137255" x="-0.5" y="-0.5" width="1" height="1" /></g>
<g transform="translate(233 39) rotate(35) scale(50 9)"><rect fill="#c9c6c5" fill-opacity="0.5019607843137255" x="-0.5" y="-0.5" width="1" height="1" /></g>
<g transform="translate(125 152) rotate(302) scale(5 17)"><rect fill="#3c3c3d" fill-opacity="0.5019607843137255" x="-0.5" y="-0.5" width="1" height="1" /></g>
<g transform="translate(67 115) rotate(48) scale(1 2)"><rect fill="#151318" fill-opacity="0.5019607843137255" x="-0.5" y="-0.5" width="1" height="1" /></g>
<g transform="translate(133 12) rotate(175) scale(93 9)"><rect fill="#b0aeaf" fill-opacity="0.5019607843137255" x="-0.5" y="-0.5" width="1" height="1" /></g>
<g transform="translate(220 112) rotate(72) scale(3 20)"><rect fill="#bcbbbb" fill-opacity="0.5019607843137255" x="-0.5" y="-0.5" width="1" height="1" /></g>
<g transform="translate(178 184) rotate(171) scale(7 4)"><rect fill="#8c8b8e" fill-opacity="0.5019607843137255" x="-0.5" y="-0.5" width="1" height="1" /></g>
<g transform="translate(63 194) rotate(-3) scale(65 8)"><rect fill="#6d6d6f" fill-opacity="0.5019607843137255" x="-0.5" y="-0.5" width="1" height="1" /></g>
<g transform="translate(19 137) rotate(291) scale(4 19)"><rect fill="#dfdada" fill-opacity="0.5019607843137255" x="-0.5" y="-0.5" width="1" height="1" /></g>
<g transform="translate(247 169) rotate(159) scale(35 58)"><rect fill="#0c0913" fill-opacity="0.5019607843137255" x="-0.5" y="-0.5" width="1" height="1" /></g>
<g transform="translate(8 214) rotate(181) scale(86 9)"><rect fill="#444446" fill-opacity="0.5019607843137255" x="-0.5" y="-0.5" width="1" height="1" /></g>
<g transform="translate(239 107) rotate(308) scale(16 1)"><rect fill="#b6b5b5" fill-opacity="0.5019607843137255" x="-0.5" y="-0.5" width="1" height="1" /></g>
<g transform="translate(91 143) rotate(24) scale(50 1)"><rect fill="#bdbabb" fill-opacity="0.5019607843137255" x="-0.5" y="-0.5" width="1" height="1" /></g>
<g transform="translate(233 92) rotate(358) scale(19 11)"><rect fill="#606163" fill-opacity="0.5019607843137255" x="-0.5" y="-0.5" width="1" height="1" /></g>
<g transform="translate(217 55) rotate(187) scale(6 10)"><rect fill="#efebe9" fill-opacity="0.5019607843137255" x="-0.5" y="-0.5" width="1" height="1" /></g>
<g transform="translate(236 213) rotate(233) scale(7 27)"><rect fill="#363639" fill-opacity="0.5019607843137255" x="-0.5" y="-0.5" width="1" height="1" /></g>
<g transform="translate(25 120) rotate(194) scale(7 18)"><rect fill="#ede9e6" fill-opacity="0.5019607843137255" x="-0.5" y="-0.5" width="1" height="1" /></g>
<g transform="translate(164 174) rotate(21) scale(1 8)"><rect fill="#676669" fill-opacity="0.5019607843137255" x="-0.5" y="-0.5" width="1" height="1" /></g>
<g transform="translate(163 42) rotate(357) scale(100 11)"><rect fill="#e1dddc" fill-opacity="0.5019607843137255" x="-0.5" y="-0.5" width="1" height="1" /></g>
<g transform="translate(144 83) rotate(268) scale(29 61)"><rect fill="#f4efec" fill-opacity="0.5019607843137255" x="-0.5" y="-0.5" width="1" height="1" /></g>
<g transform="translate(60 113) rotate(210) scale(10 1)"><rect fill="#f2eeeb" fill-opacity="0.5019607843137255" x="-0.5" y="-0.5" width="1" height="1" /></g>
<g transform="translate(191 69) rotate(234) scale(1 30)"><rect fill="#a8a6a7" fill-opacity="0.5019607843137255" x="-0.5" y="-0.5" width="1" height="1" /></g>
<g transform="translate(210 17) rotate(8) scale(93 6)"><rect fill="#b1afb0" fill-opacity="0.5019607843137255" x="-0.5" y="-0.5" width="1" height="1" /></g>
<g transform="translate(235 101) rotate(215) scale(10 8)"><rect fill="#515153" fill-opacity="0.5019607843137255" x="-0.5" y="-0.5" width="1" height="1" /></g>
<g transform="translate(85 214) rotate(98) scale(7 88)"><rect fill="#48484a" fill-opacity="0.5019607843137255" x="-0.5" y="-0.5" width="1" height="1" /></g>
</g>
</svg>