<svg xmlns="http://www.w3.org/2000/svg" version="1.1" width="744" height="768">
<rect x="0" y="0" width="744" height="768" fill="#8d8b8c" />
<g transform="scale(3) translate(0.5 0.5)">
<polygon fill="#000000" fill-opacity="0.5019607843137255" points="242,87 263,271 -16,251" />
<polygon fill="#ffffff" fill-opacity="0.5019607843137255" points="8,191 263,31 -16,3" />
<polygon fill="#fffffe" fill-opacity="0.5019607843137255" points="-16,109 183,120 187,-16" />
<polygon fill="#000000" fill-opacity="0.5019607843137255" points="257,122 95,138 263,218" />
<polygon fill="#c5c3c5" fill-opacity="0.5019607843137255" points="140,217 190,180 -16,102" />
<polygon fill="#0e0e13" fill-opacity="0.5019607843137255" points="4,271 -13,188 263,252" />
<polygon fill="#d4d0cf" fill-opacity="0.5019607843137255" points="61,2 263,8 263,83" />
<polygon fill="#f9f2ed" fill-opacity="0.5019607843137255" points="-16,167 -16,49 238,40" />
<polygon fill="#dedbdd" fill-opacity="0.5019607843137255" points="260,105 158,110 206,123" />
<polygon fill="#000007" fill-opacity="0.5019607843137255" points="263,104 244,271 172,170" />
<polygon fill="#606164" fill-opacity="0.5019607843137255" points="-13,220 237,224 11,159" />
<polygon fill="#a4a1a3" fill-opacity="0.5019607843137255" points="263,-11 102,46 -16,7" />
<polygon fill="#6d6d71" fill-opacity="0.5019607843137255" points="171,85 211,57 263,115" />
<polygon fill="#99969a" fill-opacity="0.5019607843137255" points="-16,152 167,167 93,201" />
<polygon fill="#606165" fill-opacity="0.5019607843137255" points="250,113 160,148 75,132" />
<polygon fill="#faf5f1" fill-opacity="0.5019607843137255" points="163,50 189,111 123,122" />
<polygon fill="#fffaf8" fill-opacity="0.5019607843137255" points="258,94 218,50 263,44" />
<polygon fill="#1a1b1e" fill-opacity="0.5019607843137255" points="-15,203 -11,264 196,266" />
<polygon fill="#58585b" fill-opacity="0.5019607843137255" points="210,112 249,83 175,92" />
<polygon fill="#99979b" fill-opacity="0.5019607843137255" points="179,176 110,154 185,218" />
<polygon fill="#979597" fill-opacity="0.5019607843137255" points="2,33 -7,-13 145,-5" />
<polygon fill="#b8b5b5" fill-opacity="0.5019607843137255" points="22,130 -16,185 166,117" />
<polygon fill="#d6d1d0" fill-opacity="0.5019607843137255" points="-16,42 96,66 226,15" />
<polygon fill="#444446" fill-opacity="0.5019607843137255" points="191,240 140,203 17,225" />
<polygon fill="#6c6c6f" fill-opacity="0.5019607843137255" points="78,135 114,149 140,127" />
<polygon fill="#1b1b1f" fill-opacity="0.5019607843137255" points="203,271 183,167 263,250" />
<polygon fill="#bfbdbf" fill-opacity="0.5019607843137255" points="212,112 243,113 261,95" />
<polygon fill="#69696b" fill-opacity="0.5019607843137255" points="-16,197 93,174 204,217" />
<polygon fill="#fbf7f4" fill-opacity="0.5019607843137255" points="1,128 49,64 -3,59" />
<polygon fill="#232328" fill-opacity="0.5019607843137255" points="114,150 170,169 263,117" />
<polygon fill="#8e8b8f" fill-opacity="0.5019607843137255" points="186,63 231,65 176,95" />
<polygon fill="#000000" fill-opacity="0.5019607843137255" points="65,113 68,113 66,117" />
<polygon fill="#565759" fill-opacity="0.5019607843137255" points="28,121 28,132 23,138" />
<polygon fill="#dbd7d5" fill-opacity="0.5019607843137255" points="65,148 89,106 -16,154" />
<polygon fill="#000000" fill-opacity="0.5019607843137255" points="46,134 47,130 44,133" />
<polygon fill="#ece8e6" fill-opacity="0.5019607843137255" points="90,63 208,27 238,58" />
<polygon fill="#4c4c4e" fill-opacity="0.5019607843137255" points="209,139 242,115 139,131" />
<polygon fill="#505053" fill-opacity="0.5019607843137255" points="34,100 31,93 27,96" />
<polygon fill="#3c3d3e" fill-opacity="0.5019607843137255" points="164,241 226,232 263,194" />
<polygon fill="#070410" fill-opacity="0.5019607843137255" points="155,158 263,156 228,215" />
<polygon fill="#a19fa2" fill-opacity="0.5019607843137255" points="85,9 263,13 176,-16" />
<polygon fill="#8f8d90" fill-opacity="0.5019607843137255" points="203,116 143,116 180,128" />
<polygon fill="#f4efec" fill-opacity="0.5019607843137255" points="114,104 189,106 150,58" />
<polygon fill="#6a6a6c" fill-opacity="0.5019607843137255" points="177,190 107,196 201,223" />
<polygon fill="#4b4b4d" fill-opacity="0.5019607843137255" points="127,214 53,195 -16,216" />
<polygon fill="#a9a7a8" fill-opacity="0.5019607843137255" points="89,143 166,170 121,176" />
<polygon fill="#646567" fill-opacity="0.5019607843137255" points="228,68 248,97 190,109" />
<polygon fill="#dedbd9" fill-opacity="0.5019607843137255" points="209,114 202,107 180,112" />
<polygon fill="#4a4748" fill-opacity="0.5019607843137255" points="99,116 93,121 95,115" />
<polygon fill="#828083" fill-opacity="0.5019607843137255" points="-16,198 1,172 87,180" />
</g>
</svg>