<svg xmlns="http://www.w3.org/2000/svg" version="1.1" width="744" height="768">
<rect x="0" y="0" width="744" height="768" fill="#8d8b8c" />
<g transform="scale(3) translate(0.5 0.5)">
<polygon fill="#000000" fill-opacity="0.5019607843137255" points="242,87 263,271 -16,251" />
<polygon fill="#ffffff" fill-opacity="0.5019607843137255" points="8,191 263,31 -16,3" />
<polygon fill="#fffffe" fill-opacity="0.5019607843137255" points="-16,109 183,120 187,-16" />
<polygon fill="#000000" fill-opacity="0.5019607843137255" points="257,122 95,138 263,218" />
<polygon fill="#c5c3c5" fill-opacity="0.5019607843137255" points="140,217 190,180 -16,102" />
<polygon fill="#0e0e13" fill-opacity="0.5019607843137255" points="4,271 -13,188 263,252" />
<polygon fill="#d4d0cf" fill-opacity="0.5019607843137255" points="61,2 263,8 263,83" />
<polygon fill="#f9f2ed" fill-opacity="0.5019607843137255" points="-16,167 -16,49 238,40" />
<polygon fill="#dedbdd" fill-opacity="0.5019607843137255" points="260,105 158,110 206,123" />
<polygon fill="#000007" fill-opacity="0.5019607843137255" points="263,104 244,271 172,170" />
<polygon fill="#606164" fill-opacity="0.5019607843137255" points="-13,220 237,224 11,159" />
<polygon fill="#a4a1a3" fill-opacity="0.5019607843137255" points="263,-11 102,46 -16,7" />
<polygon fill="#6d6d71" fill-opacity="0.5019607843137255" points="171,85 211,57 263,115" />
<polygon fill="#99969a" fill-opacity="0.5019607843137255" points="-16,152 167,167 93,201" />
<polygon fill="#606165" fill-opacity="0.5019607843137255" points="250,113 160,148 75,132" />
<polygon fill="#faf5f1" fill-opacity="0.5019607843137255" points="163,50 189,111 123,122" />
<polygon fill="#fffaf8" fill-opacity="0.5019607843137255" points="258,94 218,50 263,44" />
<polygon fill="#1a1b1e" fill-opacity="0.5019607843137255" points="-15,203 -11,264 196,266" />
<polygon fill="#58585b" fill-opacity="0.5019607843137255" points="210,112 249,83 175,92" />
<polygon fill="#99979b" fill-opacity="0.5019607843137255" points="179,176 110,154 185,218" />
<polygon fill="#979597" fill-opacity="0.5019607843137255" points="2,33 -7,-13 145,-5" />
<polygon fill="#b8b5b5" fill-opacity="0.5019607843137255" points="22,130 -16,185 166,117" />
<polygon fill="#d6d1d0" fill-opacity="0.5019607843137255" points="-16,42 96,66 226,15" />
<polygon fill="#444446" fill-opacity="0.5019607843137255" points="191,240 140,203 17,225" />
<polygon fill="#6c6c6f" fill-opacity="0.5019607843137255" points="78,135 114,149 140,127" />
<polygon fill="#1b1b1f" fill-opacity="0.5019607843137255" points="203,271 183,167 263,250" />
<polygon fill="#bfbdbf" fill-opacity="0.5019607843137255" points="212,112 243,113 261,95" />
<polygon fill="#69696b" fill-opacity="0.5019607843137255" points="-16,197 93,174 204,217" />
<polygon fill="#fbf7f4" fill-opacity="0.5019607843137255" points="1,128 49,64 -3,59" />
<polygon fill="#232328" fill-opacity="0.5019607843137255" points="114,150 170,169 263,117" />
<polygon fill="#8e8b8f" fill-opacity="0.5019607843137255" points="186,63 231,65 176,95" />
<polygon fill="#000000" fill-opacity="0.5019607843137255" points="65,113 68,113 66,117" />
<polygon fill="#565759" fill-opacity="0.5019607843137255" points="28,121 28,132 23,138" />
<polygon fill="#dbd7d5" fill-opacity="0.5019607843137255" points="65,148 89,106 -16,154" />
<polygon fill="#000000" fill-opacity="0.5019607843137255" points="46,134 47,130 44,133" />
<polygon fill="#ece8e6" fill-opacity="0.5019607843137255" points="90,63 208,27 238,58" />
<polygon fill="#4c4c4e" fill-opacity="0.5019607843137255" points="209,139 242,115 139,131" />
<polygon fill="#505053" fill-opacity="0.5019607843137255" points="34,100 31,93 27,96" />
<polygon fill="#3c3d3e" fill-opacity="0.5019607843137255" points="164,241 226,232 263,194" />
<polygon fill="#070410" fill-opacity="0.5019607843137255" points="155,158 263,156 228,215" />
<polygon fill="#a19fa2" fill-opacity="0.5019607843137255" points="85,9 263,13 176,-16" />
<polygon fill="#8f8d90" fill-opacity="0.5019607843137255" points="203,116 143,116 180,128" />
<polygon fill="#f4efec" fill-opacity="0.5019607843137255" points="114,104 189,106 150,58" />
<polygon fill="#6a6a6c" fill-opacity="0.5019607843137255" points="177,190 107,196 201,223" />
<polygon fill="#4b4b4d" fill-opacity="0.5019607843137255" points="127,214 53,195 -16,216" />
<polygon fill="#a9a7a8" fill-opacity="0.5019607843137255" points="89,143 166,170 121,176" />
<polygon fill="#646567" fill-opacity="0.5019607843137255" points="228,68 248,97 190,109" />
<polygon fill="#dedbd9" fill-opacity="0.5019607843137255" points="209,114 202,107 180,112" />
<polygon fill="#4a4748" fill-opacity="0.5019607843137255" points="99,116 93,121 95,115" />
<polygon fill="#828083" fill-opacity="0.5019607843137255" points="-16,198 1,172 87,180" />
<polygon fill="#c1bfbf" fill-opacity="0.5019607843137255" points="263,38 143,24 219,12" />
<polygon fill="#a2a0a2" fill-opacity="0.5019607843137255" points="263,104 263,42 233,117" />
<polygon fill="#868488" fill-opacity="0.5019607843137255" points="-16,19 15,-16 36,10" />
<polygon fill="#989698" fill-opacity="0.5019607843137255" points="66,155 1,171 126,186" />
<polygon fill="#f4f0ed" fill-opacity="0.5019607843137255" points="38,133 11,95 67,105" />
<polygon fill="#121116" fill-opacity="0.5019607843137255" points="179,186 201,215 226,208" />
<polygon fill="#2b2a2c" fill-opacity="0.5019607843137255" points="172,142 252,137 263,111" />
<polygon fill="#26282c" fill-opacity="0.5019607843137255" points="15,113 17,115 12,116" />
<polygon fill="#323234" fill-opacity="0.5019607843137255" points="113,146 129,157 173,132" />
<polygon fill="#b8b6b6" fill-opacity="0.5019607843137255" points="-16,35 65,38 79,7" />
<polygon fill="#565658" fill-opacity="0.5019607843137255" points="238,104 206,100 206,111" />
<polygon fill="#e3dfdd" fill-opacity="0.5019607843137255" points="94,107 58,108 95,125" />
<polygon fill="#e7e3e1" fill-opacity="0.5019607843137255" points="62,142 26,127 33,141" />
<polygon fill="#4e4e51" fill-opacity="0.5019607843137255" points="65,118 64,113 67,110" />
<polygon fill="#323234" fill-opacity="0.5019607843137255" points="132,239 -16,228 48,209" />
<polygon fill="#9a979a" fill-opacity="0.5019607843137255" points="71,133 116,134 116,122" />
<polygon fill="#1b1c1f" fill-opacity="0.5019607843137255" points="25,136 28,135 25,129" />
<polygon fill="#cdcac9" fill-opacity="0.5019607843137255" points="-14,130 -16,169 79,143" />
<polygon fill="#bdbbbb" fill-opacity="0.5019607843137255" points="73,131 53,165 108,150" />
<polygon fill="#18171b" fill-opacity="0.5019607843137255" points="153,166 131,146 188,156" />
<polygon fill="#232429" fill-opacity="0.5019607843137255" points="27,128 29,124 30,125" />
<polygon fill="#4d4e50" fill-opacity="0.5019607843137255" points="227,219 105,206 154,233" />
<polygon fill="#16141a" fill-opacity="0.5019607843137255" points="32,239 -5,255 86,255" />
<polygon fill="#9f9c9e" fill-opacity="0.5019607843137255" points="199,60 223,59 176,79" />
<polygon fill="#79787b" fill-opacity="0.5019607843137255" points="197,109 233,70 180,90" />
<polygon fill="#c3c0c1" fill-opacity="0.5019607843137255" points="253,42 235,17 247,89" />
<polygon fill="#f4f1ed" fill-opacity="0.5019607843137255" points="17,114 23,132 42,87" />
<polygon fill="#848285" fill-opacity="0.5019607843137255" points="103,169 43,178 156,201" />
<polygon fill="#18171b" fill-opacity="0.5019607843137255" points="140,251 263,237 256,269" />
<polygon fill="#f1edea" fill-opacity="0.5019607843137255" points="170,113 184,54 -16,86" />
<polygon fill="#dcd8d7" fill-opacity="0.5019607843137255" points="201,21 241,78 251,58" />
<polygon fill="#dad5d4" fill-opacity="0.5019607843137255" points="105,118 142,100 205,115" />
<polygon fill="#4d4d4f" fill-opacity="0.5019607843137255" points="210,112 197,134 213,131" />
<polygon fill="#c3c1c1" fill-opacity="0.5019607843137255" points="37,34 109,37 142,10" />
<polygon fill="#e5e1e0" fill-opacity="0.5019607843137255" points="3,99 -16,141 30,144" />
<polygon fill="#a3a1a3" fill-opacity="0.5019607843137255" points="85,-16 192,1 -16,24" />
<polygon fill="#817f83" fill-opacity="0.5019607843137255" points="178,204 134,186 181,181" />
<polygon fill="#929094" fill-opacity="0.5019607843137255" points="241,74 222,61 192,62" />
<polygon fill="#6d6c6f" fill-opacity="0.5019607843137255" points="225,118 263,101 249,116" />
<polygon fill="#f3efec" fill-opacity="0.5019607843137255" points="182,65 224,53 185,46" />
<polygon fill="#232324" fill-opacity="0.5019607843137255" points="207,192 184,200 183,177" />
<polygon fill="#9c9a9d" fill-opacity="0.5019607843137255" points="90,174 135,157 177,182" />
<polygon fill="#5e5e60" fill-opacity="0.5019607843137255" points="176,122 208,122 167,134" />
<polygon fill="#6a6a6b" fill-opacity="0.5019607843137255" points="14,183 -16,200 67,197" />
<polygon fill="#ede9e6" fill-opacity="0.5019607843137255" points="72,55 178,108 67,112" />
<polygon fill="#e8e4e2" fill-opacity="0.5019607843137255" points="-16,60 81,81 168,49" />
<polygon fill="#a8a6a9" fill-opacity="0.5019607843137255" points="149,126 127,118 179,117" />
<polygon fill="#1b1a1e" fill-opacity="0.5019607843137255" points="185,155 197,135 225,165" />
<polygon fill="#d7d3d1" fill-opacity="0.5019607843137255" points="31,46 88,57 153,28" />
<polygon fill="#b3b2b3" fill-opacity="0.5019607843137255" points="71,155 -16,174 -7,151" />
<polygon fill="#e3dfdf" fill-opacity="0.5019607843137255" points="63,118 81,111 99,120" />
<polygon fill="#5a595b" fill-opacity="0.5019607843137255" points="238,106 221,99 243,77" />
<polygon fill="#737275" fill-opacity="0.5019607843137255" points="165,126 100,145 122,125" />
<polygon fill="#d2cdcc" fill-opacity="0.5019607843137255" points="255,60 185,24 223,22" />
<polygon fill="#a6a5a6" fill-opacity="0.5019607843137255" points="181,180 173,177 176,175" />
<polygon fill="#a5a3a5" fill-opacity="0.5019607843137255" points="258,12 204,20 137,-16" />
<polygon fill="#606062" fill-opacity="0.5019607843137255" points="188,219 188,201 142,215" />
<polygon fill="#525355" fill-opacity="0.5019607843137255" points="252,105 263,87 244,95" />
<polygon fill="#a6a4a5" fill-opacity="0.5019607843137255" points="190,64 178,76 187,83" />
<polygon fill="#e4e0df" fill-opacity="0.5019607843137255" points="59,141 65,110 43,121" />
<polygon fill="#a7a5a6" fill-opacity="0.5019607843137255" points="51,165 108,148 149,166" />
<polygon fill="#5c5c5f" fill-opacity="0.5019607843137255" points="75,194 159,208 107,214" />
<polygon fill="#5c5c5e" fill-opacity="0.5019607843137255" points="27,99 28,95 30,96" />
<polygon fill="#f7f3f0" fill-opacity="0.5019607843137255" points="19,110 -16,62 30,92" />
<polygon fill="#2b2b2c" fill-opacity="0.5019607843137255" points="261,205 223,242 157,251" />
<polygon fill="#e5e1e1" fill-opacity="0.5019607843137255" points="38,137 54,119 26,128" />
<polygon fill="#c6c4c5" fill-opacity="0.5019607843137255" points="234,109 226,106 222,112" />
<polygon fill="#cecccc" fill-opacity="0.5019607843137255" points="176,94 185,97 191,105" />
<polygon fill="#606062" fill-opacity="0.5019607843137255" points="188,106 207,93 226,107" />
<polygon fill="#131419" fill-opacity="0.5019607843137255" points="47,134 47,130 48,133" />
<polygon fill="#444446" fill-opacity="0.5019607843137255" points="31,222 -16,204 72,212" />
<polygon fill="#5d5e60" fill-opacity="0.5019607843137255" points="97,140 113,138 125,155" />
<polygon fill="#b2b0b1" fill-opacity="0.5019607843137255" points="84,137 99,118 71,132" />
<polygon fill="#b4b1b2" fill-opacity="0.5019607843137255" points="235,111 243,97 248,102" />
<polygon fill="#343436" fill-opacity="0.5019607843137255" points="212,124 242,117 225,136" />
<polygon fill="#3a3b3d" fill-opacity="0.5019607843137255" points="219,228 156,243 94,222" />
<polygon fill="#bcbbbb" fill-opacity="0.5019607843137255" points="204,15 250,51 263,33" />
<polygon fill="#1a191d" fill-opacity="0.5019607843137255" points="108,269 41,239 148,252" />
<polygon fill="#979597" fill-opacity="0.5019607843137255" points="176,115 163,125 201,116" />
<polygon fill="#acaaab" fill-opacity="0.5019607843137255" points="102,15 60,6 22,30" />
<polygon fill="#131118" fill-opacity="0.5019607843137255" points="153,157 175,175 195,156" />
<polygon fill="#888689" fill-opacity="0.5019607843137255" points="188,102 205,67 181,81" />
<polygon fill="#e5e1e0" fill-opacity="0.5019607843137255" points="196,28 256,65 129,43" />
<polygon fill="#878588" fill-opacity="0.5019607843137255" points="-8,180 25,189 52,174" />
<polygon fill="#99979b" fill-opacity="0.5019607843137255" points="203,-2 239,-16 263,24" />
<polygon fill="#d6d2d0" fill-opacity="0.5019607843137255" points="61,123 83,142 43,140" />
<polygon fill="#3f4042" fill-opacity="0.5019607843137255" points="113,140 125,140 126,156" />
<polygon fill="#242426" fill-opacity="0.5019607843137255" points="193,178 198,216 180,186" />
<polygon fill="#939194" fill-opacity="0.5019607843137255" points="178,194 165,167 143,167" />
<polygon fill="#7f7e81" fill-opacity="0.5019607843137255" points="238,73 193,80 223,66" />
<polygon fill="#3b3c3e" fill-opacity="0.5019607843137255" points="28,133 26,131 26,135" />
<polygon fill="#262627" fill-opacity="0.5019607843137255" points="64,235 -16,224 -2,244" />
<polygon fill="#b7b5b7" fill-opacity="0.5019607843137255" points="211,116 216,109 225,106" />
<polygon fill="#e5e0df" fill-opacity="0.5019607843137255" points="163,110 118,102 97,119" />
<polygon fill="#333335" fill-opacity="0.5019607843137255" points="207,229 252,211 243,201" />
<polygon fill="#bcbaba" fill-opacity="0.5019607843137255" points="131,114 129,123 108,122" />
<polygon fill="#28282a" fill-opacity="0.5019607843137255" points="155,166 118,148 140,149" />
<polygon fill="#d1cdcc" fill-opacity="0.5019607843137255" points="23,154 -2,118 -16,157" />
<polygon fill="#d9d5d3" fill-opacity="0.5019607843137255" points="238,80 258,57 240,60" />
<polygon fill="#656567" fill-opacity="0.5019607843137255" points="125,203 31,200 81,188" />
<polygon fill="#444446" fill-opacity="0.5019607843137255" points="140,136 153,146 177,134" />
<polygon fill="#c2bfbf" fill-opacity="0.5019607843137255" points="44,40 -11,21 -16,42" />
<polygon fill="#b2b0b1" fill-opacity="0.5019607843137255" points="150,10 89,26 87,8" />
<polygon fill="#06040e" fill-opacity="0.5019607843137255" points="263,212 223,164 169,161" />
<polygon fill="#d3d2d3" fill-opacity="0.5019607843137255" points="263,100 245,89 259,63" />
<polygon fill="#0f0d14" fill-opacity="0.5019607843137255" points="263,186 197,206 224,214" />
<polygon fill="#969497" fill-opacity="0.5019607843137255" points="189,104 193,109 185,111" />
<polygon fill="#bdbbbc" fill-opacity="0.5019607843137255" points="217,21 195,10 162,25" />
<polygon fill="#2e2e2f" fill-opacity="0.5019607843137255" points="166,147 182,155 183,133" />
<polygon fill="#c3c1c2" fill-opacity="0.5019607843137255" points="196,109 207,111 208,118" />
<polygon fill="#565759" fill-opacity="0.5019607843137255" points="199,102 237,99 211,111" />
<polygon fill="#f1edea" fill-opacity="0.5019607843137255" points="32,96 84,74 59,122" />
<polygon fill="#8e8c8f" fill-opacity="0.5019607843137255" points="144,120 140,128 168,122" />
<polygon fill="#7a787b" fill-opacity="0.5019607843137255" points="90,138 115,131 104,145" />
<polygon fill="#6d6d6f" fill-opacity="0.5019607843137255" points="189,201 174,211 140,197" />
<polygon fill="#e6e2e1" fill-opacity="0.5019607843137255" points="25,132 57,111 42,131" />
<polygon fill="#0f0d16" fill-opacity="0.5019607843137255" points="263,181 189,145 263,143" />
<polygon fill="#69696b" fill-opacity="0.5019607843137255" points="189,108 237,74 233,93" />
<polygon fill="#d1cdcc" fill-opacity="0.5019607843137255" points="95,115 94,125 62,125" />
<polygon fill="#c2c0c0" fill-opacity="0.5019607843137255" points="163,117 139,121 146,115" />
<polygon fill="#5a5b5c" fill-opacity="0.5019607843137255" points="134,130 161,130 130,139" />
<polygon fill="#4f4d4e" fill-opacity="0.5019607843137255" points="97,121 95,122 97,116" />
<polygon fill="#ddd8d6" fill-opacity="0.5019607843137255" points="98,123 105,115 94,122" />
<polygon fill="#f5f1ee" fill-opacity="0.5019607843137255" points="161,58 171,87 188,61" />
<polygon fill="#bebcbd" fill-opacity="0.5019607843137255" points="230,110 214,115 217,109" />
<polygon fill="#a4a2a4" fill-opacity="0.5019607843137255" points="-16,181 4,162 23,167" />
<polygon fill="#d2cfcd" fill-opacity="0.5019607843137255" points="145,30 208,36 197,21" />
<polygon fill="#5a5a5c" fill-opacity="0.5019607843137255" points="236,108 233,98 244,82" />
<polygon fill="#444446" fill-opacity="0.5019607843137255" points="197,215 218,224 166,235" />
<polygon fill="#ece8e6" fill-opacity="0.5019607843137255" points="26,127 30,113 3,121" />
<polygon fill="#363638" fill-opacity="0.5019607843137255" points="120,148 131,158 135,145" />
<polygon fill="#929093" fill-opacity="0.5019607843137255" points="107,126 111,133 137,124" />
<polygon fill="#e6e2e1" fill-opacity="0.5019607843137255" points="26,135 34,141 18,135" />
<polygon fill="#757578" fill-opacity="0.5019607843137255" points="170,173 166,170 160,178" />
<polygon fill="#aeacae" fill-opacity="0.5019607843137255" points="263,26 233,10 242,36" />
<polygon fill="#929094" fill-opacity="0.5019607843137255" points="238,80 245,82 244,76" />
<polygon fill="#464649" fill-opacity="0.5019607843137255" points="64,114 67,111 65,117" />
<polygon fill="#f0ece9" fill-opacity="0.5019607843137255" points="69,113 39,67 58,78" />
<polygon fill="#eae6e4" fill-opacity="0.5019607843137255" points="27,111 31,125 64,114" />
<polygon fill="#555557" fill-opacity="0.5019607843137255" points="93,199 53,213 16,202" />
<polygon fill="#b3b1b2" fill-opacity="0.5019607843137255" points="225,59 203,58 211,63" />
<polygon fill="#adabac" fill-opacity="0.5019607843137255" points="83,160 105,147 120,153" />
<polygon fill="#d7d3d2" fill-opacity="0.5019607843137255" points="42,44 9,55 -9,44" />
<polygon fill="#a6a4a5" fill-opacity="0.5019607843137255" points="50,172 23,164 69,152" />
<polygon fill="#c8c5c5" fill-opacity="0.5019607843137255" points="174,118 188,113 160,113" />
<polygon fill="#bbb9b9" fill-opacity="0.5019607843137255" points="86,151 50,145 25,159" />
<polygon fill="#868487" fill-opacity="0.5019607843137255" points="-16,7 20,8 24,-10" />
<polygon fill="#777678" fill-opacity="0.5019607843137255" points="29,122 26,124 28,125" />
<polygon fill="#e4e0df" fill-opacity="0.5019607843137255" points="242,74 227,62 232,50" />
<polygon fill="#e9e6e4" fill-opacity="0.5019607843137255" points="-4,121 25,128 29,115" />
</g>
</svg>