<svg xmlns="http://www.w3.org/2000/svg" version="1.1" width="636" height="768">
<rect x="0" y="0" width="636" height="768" fill="#66614a" />
<g transform="scale(3) translate(0.5 0.5)">
<g transform="translate(124.634722 7.661867) rotate(0.929965) scale(186.351260 68.891512)"><ellipse fill="#f6fccd" fill-opacity="0.5019607843137255" cx="0" cy="0" rx="1" ry="1" /></g>
<ellipse fill="#000000" fill-opacity="0.5019607843137255" cx="104" cy="255" rx="123" ry="123" />
<g transform="translate(149.987200 147.815482) rotate(267.305990) scale(69.424078 15.584418)"><ellipse fill="#f1ddac" fill-opacity="0.5019607843137255" cx="0" cy="0" rx="1" ry="1" /></g>
<ellipse fill="#000000" fill-opacity="0.5019607843137255" cx="191" cy="180" rx="28" ry="84" />
<polygon fill="#f2c280" fill-opacity="0.5019607843137255" points="61,27 12,129 58,151" />
<g transform="translate(161.449669 70.935827) rotate(97.841429) scale(38.166756 12.832847)"><ellipse fill="#592c04" fill-opacity="0.5019607843137255" cx="0" cy="0" rx="1" ry="1" /></g>
<polygon fill="#060e15" fill-opacity="0.5019607843137255" points="80,271 133,110 87,94" />
<polygon fill="#ddeecd" fill-opacity="0.5019607843137255" points="210.407374,-16.000000 213.855658,66.456685 158.512084,98.665810 161.179998,97.811316" />
<ellipse fill="#2b1a0c" fill-opacity="0.5019607843137255" cx="92" cy="48" rx="9" ry="22" />
<g transform="translate(40.818920 201.063251) rotate(273.721818) scale(54.688582 73.652662)"><ellipse fill="#1d1104" fill-opacity="0.5019607843137255" cx="0" cy="0" rx="1" ry="1" /></g>
<rect fill="#fffdbc" fill-opacity="0.5019607843137255" x="140" y="112" width="27" height="39" />
<polygon fill="#6e5d1f" fill-opacity="0.5019607843137255" points="60.099509,66.070442 85.377162,82.715790 59.535230,47.449604 -16.000000,61.268376" />
<ellipse fill="#646d69" fill-opacity="0.5019607843137255" cx="150" cy="199" rx="16" ry="49" />
<g transform="translate(114 241) rotate(100) scale(24 24)"><rect fill="#c3864e" fill-opacity="0.5019607843137255" x="-0.5" y="-0.5" width="1" height="1" /></g>
<g transform="translate(138.916406 77.278004) rotate(250.587469) scale(36.263256 13.448875)"><ellipse fill="#b0753f" fill-opacity="0.5019607843137255" cx="0" cy="0" rx="1" ry="1" /></g>
<ellipse fill="#b7d3c4" fill-opacity="0.5019607843137255" cx="128" cy="15" rx="211" ry="13" />
<g transform="translate(192.383146 141.079503) rotate(65.032276) scale(48.239606 14.702693)"><ellipse fill="#00070a" fill-opacity="0.5019607843137255" cx="0" cy="0" rx="1" ry="1" /></g>
<g transform="translate(63.035613 138.726826) rotate(85.016067) scale(5.029969 24.491006)"><ellipse fill="#d1bf91" fill-opacity="0.5019607843137255" cx="0" cy="0" rx="1" ry="1" /></g>
<g transform="translate(187 98) rotate(20) scale(69 17)"><rect fill="#85602d" fill-opacity="0.5019607843137255" x="-0.5" y="-0.5" width="1" height="1" /></g>
<ellipse fill="#c4e0b7" fill-opacity="0.5019607843137255" cx="13" cy="32" rx="53" ry="18" />
<rect fill="#e9bc76" fill-opacity="0.5019607843137255" x="101" y="26" width="56" height="27" />
<polygon fill="#11181e" fill-opacity="0.5019607843137255" points="93,119 138,246 128,100" />
<polygon fill="#604a30" fill-opacity="0.5019607843137255" points="49,136 69,58 96,121" />
<polygon fill="#dfb276" fill-opacity="0.5019607843137255" points="67,63 34,56 42,141" />
<ellipse fill="#1e271c" fill-opacity="0.5019607843137255" cx="5" cy="120" rx="8" ry="25" />
<polygon fill="#dbce97" fill-opacity="0.5019607843137255" points="13,130 15,104 55,143" />
<rect fill="#976f56" fill-opacity="0.5019607843137255" x="189" y="71" width="23" height="39" />
<g transform="translate(163.215590 65.110248) rotate(46.669600) scale(11.339462 16.392752)"><ellipse fill="#584023" fill-opacity="0.5019607843137255" cx="0" cy="0" rx="1" ry="1" /></g>
<polygon fill="#a08056" fill-opacity="0.5019607843137255" points="51,57 91,8 105,19" />
<polygon fill="#35280f" fill-opacity="0.5019607843137255" points="-16,188 30,135 77,180" />
<polygon fill="#b7864a" fill-opacity="0.5019607843137255" points="165.126662,28.662534 149.036565,21.980725 130.522171,84.572316 141.265600,82.526548" />
<ellipse fill="#69888f" fill-opacity="0.5019607843137255" cx="0" cy="0" rx="130" ry="6" />
<polygon fill="#131718" fill-opacity="0.5019607843137255" points="164.535547,156.014025 167.081038,129.988400 211.606026,99.103533 212.793858,271.000000" />
<polygon fill="#736a3f" fill-opacity="0.5019607843137255" points="-11,78 35,47 37,120" />
<ellipse fill="#e3d99f" fill-opacity="0.5019607843137255" cx="105" cy="89" rx="30" ry="2" />
<rect fill="#081017" fill-opacity="0.5019607843137255" x="127" y="102" width="6" height="82" />
<polygon fill="#f1e9ae" fill-opacity="0.5019607843137255" points="185,88 189,55 169,77" />
<rect fill="#e0cf9b" fill-opacity="0.5019607843137255" x="133" y="111" width="33" height="35" />
<g transform="translate(193.548699 34.700832) rotate(113.920381) scale(28.010863 20.393556)"><ellipse fill="#c6d9b6" fill-opacity="0.5019607843137255" cx="0" cy="0" rx="1" ry="1" /></g>
<rect fill="#565a55" fill-opacity="0.5019607843137255" x="137" y="195" width="28" height="42" />
<rect fill="#c49d65" fill-opacity="0.5019607843137255" x="74" y="65" width="71" height="11" />
<ellipse fill="#02080c" fill-opacity="0.5019607843137255" cx="8" cy="234" rx="8" ry="67" />
<ellipse fill="#7a654a" fill-opacity="0.5019607843137255" cx="115" cy="205" rx="2" ry="66" />
<polygon fill="#1a2123" fill-opacity="0.5019607843137255" points="77.578202,161.429621 69.751513,134.814886 127.639613,169.608717 70.642026,271.000000" />
<polygon fill="#e9e3b2" fill-opacity="0.5019607843137255" points="66,145 61,137 72,136" />
<polygon fill="#462e11" fill-opacity="0.5019607843137255" points="168,81 149,108 159,109" />
<g transform="translate(139.360421 60.016653) rotate(223.942040) scale(7.241231 4.209050)"><ellipse fill="#483a2e" fill-opacity="0.5019607843137255" cx="0" cy="0" rx="1" ry="1" /></g>
<g transform="translate(61.911681 118.085640) rotate(288.179559) scale(44.501186 4.019729)"><ellipse fill="#5a3e22" fill-opacity="0.5019607843137255" cx="0" cy="0" rx="1" ry="1" /></g>
<g transform="translate(54 82) rotate(226) scale(6 6)"><rect fill="#342923" fill-opacity="0.5019607843137255" x="-0.5" y="-0.5" width="1" height="1" /></g>
<polygon fill="#fff1ba" fill-opacity="0.5019607843137255" points="52,139 44,146 27,123" />
</g>
</svg>