<svg xmlns="http://www.w3.org/2000/svg" version="1.1" width="636" height="768">
<rect x="0" y="0" width="636" height="768" fill="#66614a" />
<g transform="scale(3) translate(0.5 0.5)">
<g transform="translate(124.634722 7.661867) rotate(0.929965) scale(186.351260 68.891512)"><ellipse fill="#f6fccd" fill-opacity="0.5019607843137255" cx="0" cy="0" rx="1" ry="1" /></g>
<ellipse fill="#000000" fill-opacity="0.5019607843137255" cx="104" cy="255" rx="123" ry="123" />
<g transform="translate(149.987200 147.815482) rotate(267.305990) scale(69.424078 15.584418)"><ellipse fill="#f1ddac" fill-opacity="0.5019607843137255" cx="0" cy="0" rx="1" ry="1" /></g>
<ellipse fill="#000000" fill-opacity="0.5019607843137255" cx="191" cy="180" rx="28" ry="84" />
<polygon fill="#f2c280" fill-opacity="0.5019607843137255" points="61,27 12,129 58,151" />
<g transform="translate(161.449669 70.935827) rotate(97.841429) scale(38.166756 12.832847)"><ellipse fill="#592c04" fill-opacity="0.5019607843137255" cx="0" cy="0" rx="1" ry="1" /></g>
<polygon fill="#060e15" fill-opacity="0.5019607843137255" points="80,271 133,110 87,94" />
<polygon fill="#ddeecd" fill-opacity="0.5019607843137255" points="210.407374,-16.000000 213.855658,66.456685 158.512084,98.665810 161.179998,97.811316" />
<ellipse fill="#2b1a0c" fill-opacity="0.5019607843137255" cx="92" cy="48" rx="9" ry="22" />
<g transform="translate(40.818920 201.063251) rotate(273.721818) scale(54.688582 73.652662)"><ellipse fill="#1d1104" fill-opacity="0.5019607843137255" cx="0" cy="0" rx="1" ry="1" /></g>
<rect fill="#fffdbc" fill-opacity="0.5019607843137255" x="140" y="112" width="27" height="39" />
<polygon fill="#6e5d1f" fill-opacity="0.5019607843137255" points="60.099509,66.070442 85.377162,82.715790 59.535230,47.449604 -16.000000,61.268376" />
<ellipse fill="#646d69" fill-opacity="0.5019607843137255" cx="150" cy="199" rx="16" ry="49" />
<g transform="translate(114 241) rotate(100) scale(24 24)"><rect fill="#c3864e" fill-opacity="0.5019607843137255" x="-0.5" y="-0.5" width="1" height="1" /></g>
<g transform="translate(138.916406 77.278004) rotate(250.587469) scale(36.263256 13.448875)"><ellipse fill="#b0753f" fill-opacity="0.5019607843137255" cx="0" cy="0" rx="1" ry="1" /></g>
<ellipse fill="#b7d3c4" fill-opacity="0.5019607843137255" cx="128" cy="15" rx="211" ry="13" />
<g transform="translate(192.383146 141.079503) rotate(65.032276) scale(48.239606 14.702693)"><ellipse fill="#00070a" fill-opacity="0.5019607843137255" cx="0" cy="0" rx="1" ry="1" /></g>
<g transform="translate(63.035613 138.726826) rotate(85.016067) scale(5.029969 24.491006)"><ellipse fill="#d1bf91" fill-opacity="0.5019607843137255" cx="0" cy="0" rx="1" ry="1" /></g>
<g transform="translate(187 98) rotate(20) scale(69 17)"><rect fill="#85602d" fill-opacity="0.5019607843137255" x="-0.5" y="-0.5" width="1" height="1" /></g>
<ellipse fill="#c4e0b7" fill-opacity="0.5019607843137255" cx="13" cy="32" rx="53" ry="18" />
<rect fill="#e9bc76" fill-opacity="0.5019607843137255" x="101" y="26" width="56" height="27" />
<polygon fill="#11181e" fill-opacity="0.5019607843137255" points="93,119 138,246 128,100" />
<polygon fill="#604a30" fill-opacity="0.5019607843137255" points="49,136 69,58 96,121" />
<polygon fill="#dfb276" fill-opacity="0.5019607843137255" points="67,63 34,56 42,141" />
<ellipse fill="#1e271c" fill-opacity="0.5019607843137255" cx="5" cy="120" rx="8" ry="25" />
<polygon fill="#dbce97" fill-opacity="0.5019607843137255" points="13,130 15,104 55,143" />
<rect fill="#976f56" fill-opacity="0.5019607843137255" x="189" y="71" width="23" height="39" />
<g transform="translate(163.215590 65.110248) rotate(46.669600) scale(11.339462 16.392752)"><ellipse fill="#584023" fill-opacity="0.5019607843137255" cx="0" cy="0" rx="1" ry="1" /></g>
<polygon fill="#a08056" fill-opacity="0.5019607843137255" points="51,57 91,8 105,19" />
<polygon fill="#35280f" fill-opacity="0.5019607843137255" points="-16,188 30,135 77,180" />
<polygon fill="#b7864a" fill-opacity="0.5019607843137255" points="165.126662,28.662534 149.036565,21.980725 130.522171,84.572316 141.265600,82.526548" />
<ellipse fill="#69888f" fill-opacity="0.5019607843137255" cx="0" cy="0" rx="130" ry="6" />
<polygon fill="#131718" fill-opacity="0.5019607843137255" points="164.535547,156.014025 167.081038,129.988400 211.606026,99.103533 212.793858,271.000000" />
<polygon fill="#736a3f" fill-opacity="0.5019607843137255" points="-11,78 35,47 37,120" />
<ellipse fill="#e3d99f" fill-opacity="0.5019607843137255" cx="105" cy="89" rx="30" ry="2" />
<rect fill="#081017" fill-opacity="0.5019607843137255" x="127" y="102" width="6" height="82" />
<polygon fill="#f1e9ae" fill-opacity="0.5019607843137255" points="185,88 189,55 169,77" />
<rect fill="#e0cf9b" fill-opacity="0.5019607843137255" x="133" y="111" width="33" height="35" />
<g transform="translate(193.548699 34.700832) rotate(113.920381) scale(28.010863 20.393556)"><ellipse fill="#c6d9b6" fill-opacity="0.5019607843137255" cx="0" cy="0" rx="1" ry="1" /></g>
<rect fill="#565a55" fill-opacity="0.5019607843137255" x="137" y="195" width="28" height="42" />
<rect fill="#c49d65" fill-opacity="0.5019607843137255" x="74" y="65" width="71" height="11" />
<ellipse fill="#02080c" fill-opacity="0.5019607843137255" cx="8" cy="234" rx="8" ry="67" />
<ellipse fill="#7a654a" fill-opacity="0.5019607843137255" cx="115" cy="205" rx="2" ry="66" />
<polygon fill="#1a2123" fill-opacity="0.5019607843137255" points="77.578202,161.429621 69.751513,134.814886 127.639613,169.608717 70.642026,271.000000" />
<polygon fill="#e9e3b2" fill-opacity="0.5019607843137255" points="66,145 61,137 72,136" />
<polygon fill="#462e11" fill-opacity="0.5019607843137255" points="168,81 149,108 159,109" />
<g transform="translate(139.360421 60.016653) rotate(223.942040) scale(7.241231 4.209050)"><ellipse fill="#483a2e" fill-opacity="0.5019607843137255" cx="0" cy="0" rx="1" ry="1" /></g>
<g transform="translate(61.911681 118.085640) rotate(288.179559) scale(44.501186 4.019729)"><ellipse fill="#5a3e22" fill-opacity="0.5019607843137255" cx="0" cy="0" rx="1" ry="1" /></g>
<g transform="translate(54 82) rotate(226) scale(6 6)"><rect fill="#342923" fill-opacity="0.5019607843137255" x="-0.5" y="-0.5" width="1" height="1" /></g>
<polygon fill="#fff1ba" fill-opacity="0.5019607843137255" points="52,139 44,146 27,123" />
<polygon fill="#c2dac6" fill-opacity="0.5019607843137255" points="158,6 122,35 97,12" />
<g transform="translate(44 53) rotate(361) scale(21 11)"><rect fill="#575932" fill-opacity="0.5019607843137255" x="-0.5" y="-0.5" width="1" height="1" /></g>
<rect fill="#a99971" fill-opacity="0.5019607843137255" x="16" y="95" width="14" height="40" />
<polygon fill="#3d3926" fill-opacity="0.5019607843137255" points="170.541740,33.085324 161.761594,27.175358 160.647546,27.271415 171.404117,46.333813" />
<rect fill="#9a8d6e" fill-opacity="0.5019607843137255" x="108" y="92" width="11" height="15" />
<ellipse fill="#e3c487" fill-opacity="0.5019607843137255" cx="80" cy="48" rx="5" ry="18" />
<rect fill="#c59966" fill-opacity="0.5019607843137255" x="135" y="62" width="15" height="36" />
<rect fill="#61522e" fill-opacity="0.5019607843137255" x="79" y="76" width="49" height="13" />
<rect fill="#0b1014" fill-opacity="0.5019607843137255" x="128" y="239" width="26" height="17" />
<polygon fill="#bf9e5f" fill-opacity="0.5019607843137255" points="30.424516,78.354968 34.831365,54.443546 68.937351,83.427802 67.690530,62.711011" />
<g transform="translate(166.133269 0.316769) rotate(271.452820) scale(4.909238 71.851617)"><ellipse fill="#86a7ab" fill-opacity="0.5019607843137255" cx="0" cy="0" rx="1" ry="1" /></g>
<g transform="translate(38.663010 191.016813) rotate(77.985537) scale(49.726680 27.466980)"><ellipse fill="#38280d" fill-opacity="0.5019607843137255" cx="0" cy="0" rx="1" ry="1" /></g>
<g transform="translate(29.645960 153.600531) rotate(310.825951) scale(1.000000 12.861014)"><ellipse fill="#968b6c" fill-opacity="0.5019607843137255" cx="0" cy="0" rx="1" ry="1" /></g>
<polygon fill="#dacc9b" fill-opacity="0.5019607843137255" points="169.095981,115.538915 165.334948,144.453523 144.345633,157.962405 165.949284,111.405301" />
<g transform="translate(105 249) rotate(298) scale(14 17)"><rect fill="#866132" fill-opacity="0.5019607843137255" x="-0.5" y="-0.5" width="1" height="1" /></g>
<rect fill="#8a856d" fill-opacity="0.5019607843137255" x="91" y="96" width="5" height="19" />
<rect fill="#757060" fill-opacity="0.5019607843137255" x="90" y="125" width="2" height="51" />
<polygon fill="#0d100f" fill-opacity="0.5019607843137255" points="166.481393,217.864705 167.023769,271.000000 224.932455,271.000000 187.202325,135.323341" />
<polygon fill="#000507" fill-opacity="0.5019607843137255" points="182,109 166,95 172,119" />
<polygon fill="#95977c" fill-opacity="0.5019607843137255" points="63.141744,143.144990 67.242561,128.199891 84.899239,145.144032 76.033311,115.084339" />
<g transform="translate(6 50) rotate(275) scale(9 35)"><rect fill="#dae1b3" fill-opacity="0.5019607843137255" x="-0.5" y="-0.5" width="1" height="1" /></g>
<polygon fill="#544427" fill-opacity="0.5019607843137255" points="30,69 25,90 38,114" />
<rect fill="#6d6653" fill-opacity="0.5019607843137255" x="113" y="100" width="2" height="88" />
<polygon fill="#a3a282" fill-opacity="0.5019607843137255" points="147,172 137,146 164,150" />
<ellipse fill="#76402c" fill-opacity="0.5019607843137255" cx="211" cy="107" rx="15" ry="9" />
<polygon fill="#070806" fill-opacity="0.5019607843137255" points="76.958546,155.682108 87.490132,146.575565 74.127302,137.846142 63.326303,153.301614" />
<g transform="translate(134.564559 231.885296) rotate(162.003165) scale(18.904699 3.517262)"><ellipse fill="#78634a" fill-opacity="0.5019607843137255" cx="0" cy="0" rx="1" ry="1" /></g>
<polygon fill="#747e43" fill-opacity="0.5019607843137255" points="18.289879,58.164985 -9.556877,51.492399 14.023093,78.115229 45.091923,49.473911" />
<ellipse fill="#454530" fill-opacity="0.5019607843137255" cx="137" cy="152" rx="1" ry="41" />
<g transform="translate(50.967658 92.168779) rotate(83.655932) scale(5.951305 20.134108)"><ellipse fill="#cda476" fill-opacity="0.5019607843137255" cx="0" cy="0" rx="1" ry="1" /></g>
<polygon fill="#071a23" fill-opacity="0.5019607843137255" points="50,159 38,159 53,141" />
<polygon fill="#1b2121" fill-opacity="0.5019607843137255" points="134.181664,96.069645 133.168367,98.817984 91.373091,124.971146 131.192454,192.706664" />
<rect fill="#948565" fill-opacity="0.5019607843137255" x="1" y="100" width="2" height="45" />
<g transform="translate(94 103) rotate(86) scale(18 29)"><rect fill="#414023" fill-opacity="0.5019607843137255" x="-0.5" y="-0.5" width="1" height="1" /></g>
<g transform="translate(75.829713 250.020381) rotate(95.827186) scale(62.994728 20.464238)"><ellipse fill="#181513" fill-opacity="0.5019607843137255" cx="0" cy="0" rx="1" ry="1" /></g>
<rect fill="#5f5741" fill-opacity="0.5019607843137255" x="85" y="37" width="17" height="29" />
<ellipse fill="#f3e3ab" fill-opacity="0.5019607843137255" cx="93" cy="48" rx="1" ry="13" />
<polygon fill="#baa875" fill-opacity="0.5019607843137255" points="13,108 37,123 13,136" />
<g transform="translate(67 24) rotate(45) scale(13 58)"><rect fill="#bbd2bc" fill-opacity="0.5019607843137255" x="-0.5" y="-0.5" width="1" height="1" /></g>
<rect fill="#243f34" fill-opacity="0.5019607843137255" x="0" y="97" width="16" height="11" />
<rect fill="#877758" fill-opacity="0.5019607843137255" x="189" y="72" width="23" height="28" />
<g transform="translate(159.044750 54.537560) rotate(166.313983) scale(4.696130 1.670143)"><ellipse fill="#000000" fill-opacity="0.5019607843137255" cx="0" cy="0" rx="1" ry="1" /></g>
<ellipse fill="#525646" fill-opacity="0.5019607843137255" cx="23" cy="0" rx="70" ry="1" />
<g transform="translate(113 58) rotate(196) scale(16 19)"><rect fill="#dfb674" fill-opacity="0.5019607843137255" x="-0.5" y="-0.5" width="1" height="1" /></g>
<ellipse fill="#85866e" fill-opacity="0.5019607843137255" cx="162" cy="166" rx="4" ry="24" />
<g transform="translate(150.931945 100.524130) rotate(7.713125) scale(9.507929 3.335883)"><ellipse fill="#5f3f20" fill-opacity="0.5019607843137255" cx="0" cy="0" rx="1" ry="1" /></g>
<g transform="translate(176.346079 136.963120) rotate(99.348646) scale(39.386893 9.811952)"><ellipse fill="#232923" fill-opacity="0.5019607843137255" cx="0" cy="0" rx="1" ry="1" /></g>
<polygon fill="#a0b2a0" fill-opacity="0.5019607843137255" points="8.643752,22.363794 -16.000000,48.614470 -16.000000,3.058714 112.467374,2.887332" />
<polygon fill="#6a6f0e" fill-opacity="0.5019607843137255" points="174,94 192,78 179,105" />
<rect fill="#1c2326" fill-opacity="0.5019607843137255" x="95" y="147" width="19" height="82" />
<ellipse fill="#464b4a" fill-opacity="0.5019607843137255" cx="151" cy="236" rx="15" ry="15" />
<ellipse fill="#6f644c" fill-opacity="0.5019607843137255" cx="54" cy="162" rx="14" ry="2" />
<g transform="translate(130 83) rotate(260) scale(13 6)"><rect fill="#3b412e" fill-opacity="0.5019607843137255" x="-0.5" y="-0.5" width="1" height="1" /></g>
<g transform="translate(81 30) rotate(45) scale(10 41)"><rect fill="#a59570" fill-opacity="0.5019607843137255" x="-0.5" y="-0.5" width="1" height="1" /></g>
<polygon fill="#6b7567" fill-opacity="0.5019607843137255" points="78,89 72,138 65,121" />
<polygon fill="#32312e" fill-opacity="0.5019607843137255" points="94.017533,28.707063 85.872001,48.739268 86.735062,33.955360 93.494442,26.172232" />
<polygon fill="#d4be8a" fill-opacity="0.5019607843137255" points="78.964547,80.581511 77.196234,47.575441 106.834860,7.337760 68.298124,51.560317" />
<polygon fill="#d9e3c8" fill-opacity="0.5019607843137255" points="207,71 186,67 226,20" />
<rect fill="#f1e7b4" fill-opacity="0.5019607843137255" x="170" y="77" width="18" height="7" />
<g transform="translate(32 146) rotate(50) scale(13 10)"><rect fill="#061b27" fill-opacity="0.5019607843137255" x="-0.5" y="-0.5" width="1" height="1" /></g>
<polygon fill="#383310" fill-opacity="0.5019607843137255" points="75.117137,79.112753 78.161525,77.205739 72.666070,98.121300 69.628688,59.509967" />
<rect fill="#c1b289" fill-opacity="0.5019607843137255" x="0" y="89" width="30" height="2" />
<polygon fill="#311e0c" fill-opacity="0.5019607843137255" points="55.121526,262.006204 75.224256,172.871357 55.668408,139.827594 62.815866,142.140964" />
<rect fill="#57371e" fill-opacity="0.5019607843137255" x="61" y="81" width="3" height="55" />
<g transform="translate(144.133461 196.204848) rotate(78.253648) scale(31.071227 6.611247)"><ellipse fill="#68685a" fill-opacity="0.5019607843137255" cx="0" cy="0" rx="1" ry="1" /></g>
<polygon fill="#d2be8a" fill-opacity="0.5019607843137255" points="94.572138,26.825915 104.965288,43.262834 110.710121,20.912614 96.672164,15.333170" />
<polygon fill="#8b825a" fill-opacity="0.5019607843137255" points="201,93 223,101 225,26" />
<g transform="translate(46.009320 77.597702) rotate(207.025331) scale(3.818179 16.765418)"><ellipse fill="#dfc492" fill-opacity="0.5019607843137255" cx="0" cy="0" rx="1" ry="1" /></g>
<polygon fill="#cb9c69" fill-opacity="0.5019607843137255" points="40.814396,98.292702 61.172947,101.927395 33.267117,129.438466 57.825837,141.748670" />
<polygon fill="#7d7860" fill-opacity="0.5019607843137255" points="100.555881,196.545230 162.217483,189.928651 150.284884,168.383468 126.856425,195.841534" />
<polygon fill="#e8c487" fill-opacity="0.5019607843137255" points="129,33 128,62 148,22" />
<polygon fill="#957853" fill-opacity="0.5019607843137255" points="-10,146 13,147 -16,170" />
<polygon fill="#836f44" fill-opacity="0.5019607843137255" points="43.205553,71.707747 36.744035,78.202711 29.334951,73.815463 37.009312,89.904232" />
<g transform="translate(95.131393 10.525272) rotate(134.803086) scale(56.271931 1.000000)"><ellipse fill="#d7cc9c" fill-opacity="0.5019607843137255" cx="0" cy="0" rx="1" ry="1" /></g>
<polygon fill="#c7d1a5" fill-opacity="0.5019607843137255" points="64,33 12,57 -5,38" />
<rect fill="#6f5732" fill-opacity="0.5019607843137255" x="151" y="56" width="19" height="33" />
<g transform="translate(93 56) rotate(-5) scale(1 25)"><rect fill="#c1b286" fill-opacity="0.5019607843137255" x="-0.5" y="-0.5" width="1" height="1" /></g>
<polygon fill="#000000" fill-opacity="0.5019607843137255" points="120,271 145,260 132,240" />
<polygon fill="#151512" fill-opacity="0.5019607843137255" points="115.885903,235.111180 122.248410,229.059732 133.827431,231.640240 135.540509,195.196193" />
<polygon fill="#4e3413" fill-opacity="0.5019607843137255" points="126,259 113,268 126,234" />
<ellipse fill="#c58a49" fill-opacity="0.5019607843137255" cx="56" cy="146" rx="4" ry="4" />
<rect fill="#ebd294" fill-opacity="0.5019607843137255" x="138" y="109" width="9" height="40" />
<g transform="translate(37 136) rotate(129) scale(7 13)"><rect fill="#f8e5b3" fill-opacity="0.5019607843137255" x="-0.5" y="-0.5" width="1" height="1" /></g>
<g transform="translate(115 193) rotate(90) scale(11 1)"><rect fill="#e2d8b6" fill-opacity="0.5019607843137255" x="-0.5" y="-0.5" width="1" height="1" /></g>
<polygon fill="#866e49" fill-opacity="0.5019607843137255" points="149.247416,135.322184 156.586947,88.708088 173.571756,44.784854 156.457771,65.657312" />
<polygon fill="#7e7158" fill-opacity="0.5019607843137255" points="73.195879,42.710263 91.988500,18.075475 37.070890,69.710011 81.662008,32.387558" />
<ellipse fill="#acc0b3" fill-opacity="0.5019607843137255" cx="137" cy="8" rx="83" ry="7" />
<rect fill="#c57b65" fill-opacity="0.5019607843137255" x="189" y="99" width="6" height="10" />
<g transform="translate(56 47) rotate(135) scale(109 1)"><rect fill="#5b5338" fill-opacity="0.5019607843137255" x="-0.5" y="-0.5" width="1" height="1" /></g>
<polygon fill="#503824" fill-opacity="0.5019607843137255" points="170.915034,55.423927 170.725314,72.335939 175.675352,66.896215 177.879303,54.856725" />
<ellipse fill="#cabc8c" fill-opacity="0.5019607843137255" cx="76" cy="48" rx="32" ry="1" />
<polygon fill="#7a725c" fill-opacity="0.5019607843137255" points="129,101 106,107 114,91" />
<polygon fill="#becfab" fill-opacity="0.5019607843137255" points="187,51 148,7 203,12" />
<polygon fill="#d9ad71" fill-opacity="0.5019607843137255" points="139,89 131,75 144,77" />
<rect fill="#45462f" fill-opacity="0.5019607843137255" x="78" y="100" width="14" height="30" />
<ellipse fill="#857a64" fill-opacity="0.5019607843137255" cx="114" cy="161" rx="1" ry="30" />
<polygon fill="#5c5443" fill-opacity="0.5019607843137255" points="91,177 93,187 105,195" />
<g transform="translate(125.341007 46.551767) rotate(15.072201) scale(1.676891 19.237316)"><ellipse fill="#9d916f" fill-opacity="0.5019607843137255" cx="0" cy="0" rx="1" ry="1" /></g>
<polygon fill="#c2c499" fill-opacity="0.5019607843137255" points="179.569330,45.854524 171.706285,100.400938 166.704097,94.165383 187.688049,72.022069" />
<rect fill="#40301d" fill-opacity="0.5019607843137255" x="134" y="54" width="7" height="6" />
<g transform="translate(110 101) rotate(105) scale(10 1)"><rect fill="#f0d89b" fill-opacity="0.5019607843137255" x="-0.5" y="-0.5" width="1" height="1" /></g>
<g transform="translate(160 218) rotate(78) scale(48 7)"><rect fill="#515653" fill-opacity="0.5019607843137255" x="-0.5" y="-0.5" width="1" height="1" /></g>
<polygon fill="#604c29" fill-opacity="0.5019607843137255" points="148.669225,74.140649 167.345903,94.337607 140.271528,90.757048 180.921308,88.504471" />
<rect fill="#61573c" fill-opacity="0.5019607843137255" x="84" y="68" width="22" height="2" />
<polygon fill="#bba874" fill-opacity="0.5019607843137255" points="150,190 158,185 161,166" />
<polygon fill="#bf9f63" fill-opacity="0.5019607843137255" points="40.687995,52.555701 55.331631,83.164648 73.806543,74.896483 32.912453,70.823140" />
<rect fill="#dcd199" fill-opacity="0.5019607843137255" x="106" y="89" width="29" height="2" />
<g transform="translate(107 23) rotate(45) scale(52 1)"><rect fill="#68725e" fill-opacity="0.5019607843137255" x="-0.5" y="-0.5" width="1" height="1" /></g>
<rect fill="#3f281e" fill-opacity="0.5019607843137255" x="197" y="100" width="15" height="5" />
<polygon fill="#b7a87e" fill-opacity="0.5019607843137255" points="70.079333,145.415325 55.243870,137.481168 84.585000,136.794151 72.220554,131.375121" />
<g transform="translate(93 106) rotate(373) scale(4 18)"><rect fill="#7c786b" fill-opacity="0.5019607843137255" x="-0.5" y="-0.5" width="1" height="1" /></g>
<rect fill="#766f52" fill-opacity="0.5019607843137255" x="76" y="76" width="14" height="13" />
<polygon fill="#77583f" fill-opacity="0.5019607843137255" points="47.349761,107.832588 67.169363,98.732956 47.792308,125.255779 79.060866,100.141956" />
<polygon fill="#21272a" fill-opacity="0.5019607843137255" points="165,199 165,158 185,131" />
<polygon fill="#7f7250" fill-opacity="0.5019607843137255" points="22.565879,148.060724 45.276186,163.437318 23.987861,153.757536 19.771502,112.441792" />
<path stroke="#726643" stroke-opacity="0.5019607843137255" fill="none" d="M 127.429559 35.147855 Q 136.797876 21.624510, 155.373576 24.977915" stroke-width="0.500000" />
<rect fill="#2c2e1f" fill-opacity="0.5019607843137255" x="4" y="109" width="8" height="33" />
<rect fill="#1a1d1d" fill-opacity="0.5019607843137255" x="169" y="115" width="43" height="28" />
<g transform="translate(154 121) rotate(183) scale(28 10)"><rect fill="#e8d8a1" fill-opacity="0.5019607843137255" x="-0.5" y="-0.5" width="1" height="1" /></g>
<g transform="translate(202 0) rotate(4) scale(72 3)"><rect fill="#6f867e" fill-opacity="0.5019607843137255" x="-0.5" y="-0.5" width="1" height="1" /></g>
<ellipse fill="#b38f52" fill-opacity="0.5019607843137255" cx="157" cy="37" rx="5" ry="13" />
<g transform="translate(103 25) rotate(224) scale(31 1)"><rect fill="#a38c5d" fill-opacity="0.5019607843137255" x="-0.5" y="-0.5" width="1" height="1" /></g>
<g transform="translate(83 136) rotate(284) scale(10 4)"><rect fill="#b6a87c" fill-opacity="0.5019607843137255" x="-0.5" y="-0.5" width="1" height="1" /></g>
<polygon fill="#ad825a" fill-opacity="0.5019607843137255" points="103,242 105,230 111,229" />
<polygon fill="#171d1f" fill-opacity="0.5019607843137255" points="98,111 124,104 84,139" />
<rect fill="#e2dcab" fill-opacity="0.5019607843137255" x="170" y="73" width="16" height="10" />
<g transform="translate(35 20) rotate(359) scale(58 16)"><rect fill="#b3c5a7" fill-opacity="0.5019607843137255" x="-0.5" y="-0.5" width="1" height="1" /></g>
<rect fill="#a59a75" fill-opacity="0.5019607843137255" x="150" y="109" width="14" height="6" />
<rect fill="#c0c99a" fill-opacity="0.5019607843137255" x="173" y="33" width="18" height="21" />
<ellipse fill="#503d22" fill-opacity="0.5019607843137255" cx="53" cy="55" rx="4" ry="4" />
<rect fill="#dacf9c" fill-opacity="0.5019607843137255" x="78" y="89" width="29" height="2" />
<rect fill="#181b19" fill-opacity="0.5019607843137255" x="65" y="198" width="50" height="31" />
<polygon fill="#212828" fill-opacity="0.5019607843137255" points="5.697950,164.360475 -16.000000,184.380820 1.923279,251.086272 3.841597,189.187553" />
<polygon fill="#948158" fill-opacity="0.5019607843137255" points="24.400358,122.371262 13.235985,130.785341 30.845435,155.422174 15.768370,140.053000" />
<polygon fill="#1f2525" fill-opacity="0.5019607843137255" points="113.379176,138.715128 138.906993,165.758958 134.422905,151.026432 128.565744,100.916486" />
<rect fill="#cebb88" fill-opacity="0.5019607843137255" x="80" y="66" width="17" height="3" />
<rect fill="#eae6c0" fill-opacity="0.5019607843137255" x="134" y="120" width="2" height="24" />
<rect fill="#2b190e" fill-opacity="0.5019607843137255" x="15" y="231" width="55" height="25" />
<polygon fill="#f0d6a3" fill-opacity="0.5019607843137255" points="54,92 60,95 57,82" />
<g transform="translate(93 32) rotate(276) scale(10 1)"><rect fill="#101310" fill-opacity="0.5019607843137255" x="-0.5" y="-0.5" width="1" height="1" /></g>
<polygon fill="#504525" fill-opacity="0.5019607843137255" points="32.867278,74.197594 26.402933,93.599188 39.550662,109.023833 26.382291,83.211631" />
<polygon fill="#1a1f1f" fill-opacity="0.5019607843137255" points="124.923885,109.748768 135.620005,96.365849 116.951827,186.163730 114.221864,132.634888" />
<rect fill="#725f49" fill-opacity="0.5019607843137255" x="189" y="71" width="10" height="13" />
<g transform="translate(156 166) rotate(198) scale(3 24)"><rect fill="#4e5a5b" fill-opacity="0.5019607843137255" x="-0.5" y="-0.5" width="1" height="1" /></g>
<g transform="translate(53.384600 82.114222) rotate(302.300609) scale(4.657440 2.095035)"><ellipse fill="#5a4a3b" fill-opacity="0.5019607843137255" cx="0" cy="0" rx="1" ry="1" /></g>
<ellipse fill="#767667" fill-opacity="0.5019607843137255" cx="90" cy="131" rx="1" ry="23" />
<ellipse fill="#3f3a1e" fill-opacity="0.5019607843137255" cx="101" cy="102" rx="7" ry="8" />
<rect fill="#7c6045" fill-opacity="0.5019607843137255" x="115" y="193" width="3" height="43" />
<polygon fill="#c3d6ba" fill-opacity="0.5019607843137255" points="137,15 101,15 124,38" />
<ellipse fill="#422f13" fill-opacity="0.5019607843137255" cx="152" cy="77" rx="4" ry="4" />
</g>
</svg>