<svg xmlns="http://www.w3.org/2000/svg" version="1.1" width="636" height="768">
<rect x="0" y="0" width="636" height="768" fill="#66614a" />
<g transform="scale(3) translate(0.5 0.5)">
<ellipse fill="#e0ddaf" fill-opacity="0.5019607843137255" cx="109" cy="0" rx="112" ry="112" />
<ellipse fill="#0d0907" fill-opacity="0.5019607843137255" cx="139" cy="242" rx="152" ry="152" />
<ellipse fill="#ffffe4" fill-opacity="0.5019607843137255" cx="150" cy="130" rx="22" ry="22" />
<ellipse fill="#dbb37b" fill-opacity="0.5019607843137255" cx="48" cy="116" rx="32" ry="32" />
<ellipse fill="#deffe3" fill-opacity="0.5019607843137255" cx="211" cy="31" rx="42" ry="42" />
<ellipse fill="#3f3928" fill-opacity="0.5019607843137255" cx="93" cy="102" rx="35" ry="35" />
<ellipse fill="#b9bca1" fill-opacity="0.5019607843137255" cx="150" cy="168" rx="18" ry="18" />
<ellipse fill="#8d5f2e" fill-opacity="0.5019607843137255" cx="149" cy="81" rx="31" ry="31" />
<ellipse fill="#bde0c3" fill-opacity="0.5019607843137255" cx="24" cy="9" rx="48" ry="48" />
<ellipse fill="#000000" fill-opacity="0.5019607843137255" cx="211" cy="208" rx="49" ry="49" />
<ellipse fill="#cce0c9" fill-opacity="0.5019607843137255" cx="135" cy="0" rx="40" ry="40" />
<ellipse fill="#00020b" fill-opacity="0.5019607843137255" cx="194" cy="139" rx="29" ry="29" />
<ellipse fill="#160b00" fill-opacity="0.5019607843137255" cx="39" cy="210" rx="66" ry="66" />
<ellipse fill="#ffe89d" fill-opacity="0.5019607843137255" cx="150" cy="123" rx="19" ry="19" />
<ellipse fill="#8e9284" fill-opacity="0.5019607843137255" cx="151" cy="198" rx="17" ry="17" />
<ellipse fill="#000d19" fill-opacity="0.5019607843137255" cx="112" cy="131" rx="22" ry="22" />
<ellipse fill="#ffeea9" fill-opacity="0.5019607843137255" cx="43" cy="133" rx="11" ry="11" />
<ellipse fill="#442d14" fill-opacity="0.5019607843137255" cx="163" cy="62" rx="14" ry="14" />
<ellipse fill="#96743d" fill-opacity="0.5019607843137255" cx="43" cy="78" rx="32" ry="32" />
<ellipse fill="#ba8049" fill-opacity="0.5019607843137255" cx="111" cy="242" rx="13" ry="13" />
<ellipse fill="#35291a" fill-opacity="0.5019607843137255" cx="93" cy="43" rx="10" ry="10" />
<ellipse fill="#ffffd8" fill-opacity="0.5019607843137255" cx="178" cy="77" rx="9" ry="9" />
<ellipse fill="#e0d29b" fill-opacity="0.5019607843137255" cx="150" cy="146" rx="16" ry="16" />
<ellipse fill="#131a1e" fill-opacity="0.5019607843137255" cx="101" cy="171" rx="35" ry="35" />
<ellipse fill="#deb676" fill-opacity="0.5019607843137255" cx="127" cy="48" rx="27" ry="27" />
<ellipse fill="#656e6d" fill-opacity="0.5019607843137255" cx="151" cy="222" rx="16" ry="16" />
<ellipse fill="#9d6c2e" fill-opacity="0.5019607843137255" cx="158" cy="39" rx="14" ry="14" />
<ellipse fill="#efc391" fill-opacity="0.5019607843137255" cx="47" cy="96" rx="13" ry="13" />
<ellipse fill="#3e3221" fill-opacity="0.5019607843137255" cx="92" cy="58" rx="9" ry="9" />
<ellipse fill="#a07250" fill-opacity="0.5019607843137255" cx="206" cy="92" rx="22" ry="22" />
<ellipse fill="#c9c194" fill-opacity="0.5019607843137255" cx="79" cy="134" rx="7" ry="7" />
<ellipse fill="#bedad2" fill-opacity="0.5019607843137255" cx="73" cy="15" rx="13" ry="13" />
<ellipse fill="#4c2d0a" fill-opacity="0.5019607843137255" cx="159" cy="82" rx="10" ry="10" />
<ellipse fill="#cedbaa" fill-opacity="0.5019607843137255" cx="11" cy="38" rx="20" ry="20" />
<ellipse fill="#eac27f" fill-opacity="0.5019607843137255" cx="49" cy="69" rx="12" ry="12" />
<ellipse fill="#ce9967" fill-opacity="0.5019607843137255" cx="143" cy="99" rx="10" ry="10" />
<ellipse fill="#d2c287" fill-opacity="0.5019607843137255" cx="22" cy="126" rx="11" ry="11" />
<ellipse fill="#dde3bd" fill-opacity="0.5019607843137255" cx="195" cy="54" rx="18" ry="18" />
<ellipse fill="#564f3c" fill-opacity="0.5019607843137255" cx="76" cy="111" rx="21" ry="21" />
<ellipse fill="#a19a7a" fill-opacity="0.5019607843137255" cx="116" cy="97" rx="9" ry="9" />
<ellipse fill="#050b0d" fill-opacity="0.5019607843137255" cx="199" cy="231" rx="35" ry="35" />
<ellipse fill="#0c1314" fill-opacity="0.5019607843137255" cx="191" cy="169" rx="27" ry="27" />
<ellipse fill="#46391e" fill-opacity="0.5019607843137255" cx="26" cy="158" rx="20" ry="20" />
<ellipse fill="#1d2117" fill-opacity="0.5019607843137255" cx="0" cy="120" rx="13" ry="13" />
<ellipse fill="#e8eec4" fill-opacity="0.5019607843137255" cx="66" cy="139" rx="5" ry="5" />
<ellipse fill="#131a19" fill-opacity="0.5019607843137255" cx="184" cy="123" rx="17" ry="17" />
<ellipse fill="#402f24" fill-opacity="0.5019607843137255" cx="138" cy="59" rx="6" ry="6" />
<ellipse fill="#64633d" fill-opacity="0.5019607843137255" cx="13" cy="77" rx="22" ry="22" />
<ellipse fill="#c6aa73" fill-opacity="0.5019607843137255" cx="99" cy="67" rx="10" ry="10" />
<ellipse fill="#1c2222" fill-opacity="0.5019607843137255" cx="116" cy="120" rx="18" ry="18" />
<ellipse fill="#dcc186" fill-opacity="0.5019607843137255" cx="82" cy="69" rx="8" ry="8" />
<ellipse fill="#ffefb7" fill-opacity="0.5019607843137255" cx="44" cy="139" rx="7" ry="7" />
<ellipse fill="#40382c" fill-opacity="0.5019607843137255" cx="93" cy="33" rx="6" ry="6" />
<ellipse fill="#ebcb8a" fill-opacity="0.5019607843137255" cx="76" cy="52" rx="10" ry="10" />
<ellipse fill="#3e3e28" fill-opacity="0.5019607843137255" cx="124" cy="81" rx="8" ry="8" />
<ellipse fill="#82806a" fill-opacity="0.5019607843137255" cx="150" cy="182" rx="16" ry="16" />
<ellipse fill="#c4d0b3" fill-opacity="0.5019607843137255" cx="113" cy="21" rx="19" ry="19" />
<ellipse fill="#6e7d7f" fill-opacity="0.5019607843137255" cx="11" cy="0" rx="12" ry="12" />
<ellipse fill="#524b25" fill-opacity="0.5019607843137255" cx="49" cy="55" rx="7" ry="7" />
<ellipse fill="#663b1f" fill-opacity="0.5019607843137255" cx="57" cy="128" rx="9" ry="9" />
<ellipse fill="#342613" fill-opacity="0.5019607843137255" cx="71" cy="82" rx="7" ry="7" />
<ellipse fill="#000000" fill-opacity="0.5019607843137255" cx="133" cy="250" rx="9" ry="9" />
<ellipse fill="#a9c1b0" fill-opacity="0.5019607843137255" cx="180" cy="1" rx="32" ry="32" />
<ellipse fill="#613f1d" fill-opacity="0.5019607843137255" cx="155" cy="101" rx="9" ry="9" />
<ellipse fill="#0f171e" fill-opacity="0.5019607843137255" cx="90" cy="213" rx="24" ry="24" />
<ellipse fill="#deaf6b" fill-opacity="0.5019607843137255" cx="145" cy="39" rx="16" ry="16" />
<ellipse fill="#7d8f8e" fill-opacity="0.5019607843137255" cx="38" cy="0" rx="14" ry="14" />
<ellipse fill="#193127" fill-opacity="0.5019607843137255" cx="7" cy="104" rx="8" ry="8" />
<ellipse fill="#ecdba2" fill-opacity="0.5019607843137255" cx="152" cy="133" rx="15" ry="15" />
<ellipse fill="#f6e5ae" fill-opacity="0.5019607843137255" cx="137" cy="111" rx="4" ry="4" />
<ellipse fill="#3c2809" fill-opacity="0.5019607843137255" cx="43" cy="188" rx="31" ry="31" />
<ellipse fill="#6b5b3d" fill-opacity="0.5019607843137255" cx="164" cy="43" rx="9" ry="9" />
<ellipse fill="#e8ac6c" fill-opacity="0.5019607843137255" cx="139" cy="78" rx="8" ry="8" />
<ellipse fill="#e1e7bb" fill-opacity="0.5019607843137255" cx="183" cy="67" rx="8" ry="8" />
<ellipse fill="#787e23" fill-opacity="0.5019607843137255" cx="178" cy="93" rx="10" ry="10" />
<ellipse fill="#c1b281" fill-opacity="0.5019607843137255" cx="19" cy="114" rx="8" ry="8" />
<ellipse fill="#bfcfae" fill-opacity="0.5019607843137255" cx="50" cy="26" rx="22" ry="22" />
<ellipse fill="#091115" fill-opacity="0.5019607843137255" cx="128" cy="204" rx="10" ry="10" />
<ellipse fill="#63712b" fill-opacity="0.5019607843137255" cx="33" cy="55" rx="7" ry="7" />
<ellipse fill="#000b1c" fill-opacity="0.5019607843137255" cx="130" cy="106" rx="5" ry="5" />
<ellipse fill="#121512" fill-opacity="0.5019607843137255" cx="187" cy="198" rx="24" ry="24" />
<ellipse fill="#191d1b" fill-opacity="0.5019607843137255" cx="193" cy="138" rx="27" ry="27" />
<ellipse fill="#592a1b" fill-opacity="0.5019607843137255" cx="207" cy="108" rx="9" ry="9" />
<ellipse fill="#635d48" fill-opacity="0.5019607843137255" cx="92" cy="57" rx="10" ry="10" />
<ellipse fill="#9eb6ae" fill-opacity="0.5019607843137255" cx="75" cy="0" rx="22" ry="22" />
<ellipse fill="#d0934d" fill-opacity="0.5019607843137255" cx="56" cy="147" rx="4" ry="4" />
<ellipse fill="#676853" fill-opacity="0.5019607843137255" cx="28" cy="104" rx="9" ry="9" />
<ellipse fill="#d29558" fill-opacity="0.5019607843137255" cx="44" cy="126" rx="8" ry="8" />
<ellipse fill="#a9c7bf" fill-opacity="0.5019607843137255" cx="128" cy="6" rx="22" ry="22" />
<ellipse fill="#c28050" fill-opacity="0.5019607843137255" cx="126" cy="233" rx="4" ry="4" />
<ellipse fill="#212625" fill-opacity="0.5019607843137255" cx="110" cy="139" rx="23" ry="23" />
<ellipse fill="#000000" fill-opacity="0.5019607843137255" cx="75" cy="146" rx="7" ry="7" />
<ellipse fill="#2f3424" fill-opacity="0.5019607843137255" cx="5" cy="135" rx="8" ry="8" />
<ellipse fill="#b7a481" fill-opacity="0.5019607843137255" cx="116" cy="195" rx="3" ry="3" />
<ellipse fill="#041822" fill-opacity="0.5019607843137255" cx="32" cy="146" rx="7" ry="7" />
<ellipse fill="#382710" fill-opacity="0.5019607843137255" cx="71" cy="72" rx="4" ry="4" />
<ellipse fill="#81836f" fill-opacity="0.5019607843137255" cx="152" cy="162" rx="13" ry="13" />
<ellipse fill="#080d10" fill-opacity="0.5019607843137255" cx="0" cy="235" rx="22" ry="22" />
<ellipse fill="#b7c18f" fill-opacity="0.5019607843137255" cx="183" cy="42" rx="12" ry="12" />
<ellipse fill="#091014" fill-opacity="0.5019607843137255" cx="129" cy="221" rx="9" ry="9" />
<ellipse fill="#cfb47a" fill-opacity="0.5019607843137255" cx="111" cy="66" rx="10" ry="10" />
<ellipse fill="#c77d60" fill-opacity="0.5019607843137255" cx="192" cy="104" rx="5" ry="5" />
<ellipse fill="#ae8c64" fill-opacity="0.5019607843137255" cx="128" cy="66" rx="11" ry="11" />
<ellipse fill="#4e3a31" fill-opacity="0.5019607843137255" cx="53" cy="82" rx="4" ry="4" />
<ellipse fill="#e1ad72" fill-opacity="0.5019607843137255" cx="45" cy="112" rx="8" ry="8" />
<ellipse fill="#a49571" fill-opacity="0.5019607843137255" cx="23" cy="103" rx="8" ry="8" />
<ellipse fill="#ddc286" fill-opacity="0.5019607843137255" cx="110" cy="39" rx="10" ry="10" />
<ellipse fill="#707a6b" fill-opacity="0.5019607843137255" cx="73" cy="121" rx="8" ry="8" />
<ellipse fill="#fff5c1" fill-opacity="0.5019607843137255" cx="36" cy="134" rx="5" ry="5" />
<ellipse fill="#ae9e7b" fill-opacity="0.5019607843137255" cx="111" cy="103" rx="4" ry="4" />
<ellipse fill="#0a150b" fill-opacity="0.5019607843137255" cx="173" cy="106" rx="7" ry="7" />
<ellipse fill="#2a2b0e" fill-opacity="0.5019607843137255" cx="84" cy="100" rx="6" ry="6" />
<ellipse fill="#cbad6e" fill-opacity="0.5019607843137255" cx="43" cy="66" rx="11" ry="11" />
<ellipse fill="#966d49" fill-opacity="0.5019607843137255" cx="111" cy="236" rx="9" ry="9" />
<ellipse fill="#e8d196" fill-opacity="0.5019607843137255" cx="80" cy="42" rx="5" ry="5" />
<ellipse fill="#829a98" fill-opacity="0.5019607843137255" cx="203" cy="0" rx="9" ry="9" />
<ellipse fill="#c2905f" fill-opacity="0.5019607843137255" cx="144" cy="88" rx="10" ry="10" />
<ellipse fill="#bac9a5" fill-opacity="0.5019607843137255" cx="15" cy="30" rx="26" ry="26" />
<ellipse fill="#171a1b" fill-opacity="0.5019607843137255" cx="84" cy="231" rx="19" ry="19" />
<ellipse fill="#c9b784" fill-opacity="0.5019607843137255" cx="81" cy="138" rx="4" ry="4" />
<ellipse fill="#4d5452" fill-opacity="0.5019607843137255" cx="150" cy="231" rx="16" ry="16" />
<ellipse fill="#75562f" fill-opacity="0.5019607843137255" cx="111" cy="249" rx="15" ry="15" />
<ellipse fill="#5f6157" fill-opacity="0.5019607843137255" cx="150" cy="206" rx="16" ry="16" />
<ellipse fill="#0e0502" fill-opacity="0.5019607843137255" cx="61" cy="144" rx="3" ry="3" />
<ellipse fill="#55431d" fill-opacity="0.5019607843137255" cx="68" cy="63" rx="4" ry="4" />
<ellipse fill="#e0dda7" fill-opacity="0.5019607843137255" cx="181" cy="77" rx="8" ry="8" />
<ellipse fill="#d8b078" fill-opacity="0.5019607843137255" cx="56" cy="69" rx="10" ry="10" />
<ellipse fill="#202423" fill-opacity="0.5019607843137255" cx="106" cy="166" rx="30" ry="30" />
<ellipse fill="#c5b98c" fill-opacity="0.5019607843137255" cx="67" cy="141" rx="4" ry="4" />
<ellipse fill="#584621" fill-opacity="0.5019607843137255" cx="111" cy="82" rx="7" ry="7" />
<ellipse fill="#a4a17e" fill-opacity="0.5019607843137255" cx="163" cy="111" rx="5" ry="5" />
<ellipse fill="#665032" fill-opacity="0.5019607843137255" cx="162" cy="63" rx="13" ry="13" />
<ellipse fill="#574930" fill-opacity="0.5019607843137255" cx="24" cy="80" rx="9" ry="9" />
<ellipse fill="#586137" fill-opacity="0.5019607843137255" cx="40" cy="52" rx="5" ry="5" />
<ellipse fill="#86978f" fill-opacity="0.5019607843137255" cx="60" cy="0" rx="11" ry="11" />
<ellipse fill="#e0e9cd" fill-opacity="0.5019607843137255" cx="203" cy="63" rx="8" ry="8" />
<ellipse fill="#594130" fill-opacity="0.5019607843137255" cx="64" cy="84" rx="5" ry="5" />
<ellipse fill="#615235" fill-opacity="0.5019607843137255" cx="19" cy="145" rx="11" ry="11" />
<ellipse fill="#5c4b25" fill-opacity="0.5019607843137255" cx="98" cy="82" rx="7" ry="7" />
<ellipse fill="#e0bd89" fill-opacity="0.5019607843137255" cx="43" cy="83" rx="6" ry="6" />
<ellipse fill="#888b45" fill-opacity="0.5019607843137255" cx="4" cy="62" rx="8" ry="8" />
<ellipse fill="#97aba2" fill-opacity="0.5019607843137255" cx="113" cy="0" rx="13" ry="13" />
<ellipse fill="#524d3e" fill-opacity="0.5019607843137255" cx="92" cy="39" rx="8" ry="8" />
<ellipse fill="#d8b375" fill-opacity="0.5019607843137255" cx="102" cy="26" rx="7" ry="7" />
<ellipse fill="#7a6c53" fill-opacity="0.5019607843137255" cx="195" cy="78" rx="8" ry="8" />
<ellipse fill="#0c262c" fill-opacity="0.5019607843137255" cx="132" cy="100" rx="3" ry="3" />
<ellipse fill="#070909" fill-opacity="0.5019607843137255" cx="179" cy="255" rx="14" ry="14" />
<ellipse fill="#777862" fill-opacity="0.5019607843137255" cx="123" cy="95" rx="9" ry="9" />
<ellipse fill="#2e3028" fill-opacity="0.5019607843137255" cx="166" cy="33" rx="3" ry="3" />
<ellipse fill="#c2d2ae" fill-opacity="0.5019607843137255" cx="185" cy="23" rx="19" ry="19" />
<ellipse fill="#f8e8b2" fill-opacity="0.5019607843137255" cx="45" cy="144" rx="3" ry="3" />
<ellipse fill="#35230b" fill-opacity="0.5019607843137255" cx="37" cy="229" rx="22" ry="22" />
<ellipse fill="#c2aa74" fill-opacity="0.5019607843137255" cx="93" cy="71" rx="6" ry="6" />
<ellipse fill="#c8bb8a" fill-opacity="0.5019607843137255" cx="142" cy="132" rx="10" ry="10" />
<ellipse fill="#c5d9c4" fill-opacity="0.5019607843137255" cx="75" cy="15" rx="8" ry="8" />
<ellipse fill="#131e1e" fill-opacity="0.5019607843137255" cx="30" cy="142" rx="5" ry="5" />
<ellipse fill="#171112" fill-opacity="0.5019607843137255" cx="77" cy="255" rx="19" ry="19" />
<ellipse fill="#171614" fill-opacity="0.5019607843137255" cx="93" cy="29" rx="3" ry="3" />
<ellipse fill="#1d201e" fill-opacity="0.5019607843137255" cx="181" cy="126" rx="14" ry="14" />
<ellipse fill="#e2d6aa" fill-opacity="0.5019607843137255" cx="170" cy="96" rx="2" ry="2" />
<ellipse fill="#8e8965" fill-opacity="0.5019607843137255" cx="211" cy="81" rx="12" ry="12" />
<ellipse fill="#d6c089" fill-opacity="0.5019607843137255" cx="77" cy="57" rx="8" ry="8" />
<ellipse fill="#000000" fill-opacity="0.5019607843137255" cx="158" cy="54" rx="2" ry="2" />
<ellipse fill="#3c3010" fill-opacity="0.5019607843137255" cx="33" cy="100" rx="3" ry="3" />
<ellipse fill="#5d5a0d" fill-opacity="0.5019607843137255" cx="181" cy="99" rx="8" ry="8" />
<ellipse fill="#a7774a" fill-opacity="0.5019607843137255" cx="52" cy="132" rx="6" ry="6" />
<ellipse fill="#928b6d" fill-opacity="0.5019607843137255" cx="157" cy="186" rx="8" ry="8" />
<ellipse fill="#3b2f22" fill-opacity="0.5019607843137255" cx="137" cy="57" rx="4" ry="4" />
<ellipse fill="#c19e63" fill-opacity="0.5019607843137255" cx="152" cy="43" rx="10" ry="10" />
<ellipse fill="#423c26" fill-opacity="0.5019607843137255" cx="130" cy="85" rx="4" ry="4" />
<ellipse fill="#cbab7a" fill-opacity="0.5019607843137255" cx="140" cy="108" rx="7" ry="7" />
<ellipse fill="#0f1314" fill-opacity="0.5019607843137255" cx="0" cy="205" rx="19" ry="19" />
<ellipse fill="#71552d" fill-opacity="0.5019607843137255" cx="159" cy="73" rx="11" ry="11" />
<ellipse fill="#44381a" fill-opacity="0.5019607843137255" cx="163" cy="95" rx="6" ry="6" />
<ellipse fill="#7d7355" fill-opacity="0.5019607843137255" cx="30" cy="154" rx="3" ry="3" />
<ellipse fill="#403517" fill-opacity="0.5019607843137255" cx="70" cy="67" rx="3" ry="3" />
<ellipse fill="#181b1a" fill-opacity="0.5019607843137255" cx="139" cy="254" rx="17" ry="17" />
<ellipse fill="#68492f" fill-opacity="0.5019607843137255" cx="66" cy="101" rx="9" ry="9" />
<ellipse fill="#1d2120" fill-opacity="0.5019607843137255" cx="114" cy="125" rx="19" ry="19" />
<ellipse fill="#242417" fill-opacity="0.5019607843137255" cx="8" cy="115" rx="5" ry="5" />
<ellipse fill="#e7e0a6" fill-opacity="0.5019607843137255" cx="100" cy="89" rx="2" ry="2" />
<ellipse fill="#e4d09d" fill-opacity="0.5019607843137255" cx="92" cy="48" rx="2" ry="2" />
<ellipse fill="#b5966a" fill-opacity="0.5019607843137255" cx="16" cy="142" rx="3" ry="3" />
<ellipse fill="#b9a97a" fill-opacity="0.5019607843137255" cx="21" cy="119" rx="9" ry="9" />
<ellipse fill="#fff9c5" fill-opacity="0.5019607843137255" cx="60" cy="139" rx="2" ry="2" />
<ellipse fill="#8aa09f" fill-opacity="0.5019607843137255" cx="187" cy="0" rx="8" ry="8" />
<ellipse fill="#d3be89" fill-opacity="0.5019607843137255" cx="113" cy="48" rx="12" ry="12" />
<ellipse fill="#503d27" fill-opacity="0.5019607843137255" cx="175" cy="56" rx="3" ry="3" />
<ellipse fill="#bc9060" fill-opacity="0.5019607843137255" cx="141" cy="70" rx="9" ry="9" />
<ellipse fill="#9e8560" fill-opacity="0.5019607843137255" cx="68" cy="42" rx="7" ry="7" />
<ellipse fill="#6c5f3e" fill-opacity="0.5019607843137255" cx="82" cy="81" rx="7" ry="7" />
<ellipse fill="#151714" fill-opacity="0.5019607843137255" cx="197" cy="190" rx="33" ry="33" />
<ellipse fill="#ebdd9c" fill-opacity="0.5019607843137255" cx="164" cy="116" rx="4" ry="4" />
<ellipse fill="#725e3e" fill-opacity="0.5019607843137255" cx="167" cy="48" rx="6" ry="6" />
<ellipse fill="#bc915c" fill-opacity="0.5019607843137255" cx="62" cy="73" rx="8" ry="8" />
<ellipse fill="#f2cd99" fill-opacity="0.5019607843137255" cx="57" cy="86" rx="3" ry="3" />
<ellipse fill="#a19971" fill-opacity="0.5019607843137255" cx="93" cy="37" rx="3" ry="3" />
<ellipse fill="#787a6b" fill-opacity="0.5019607843137255" cx="92" cy="112" rx="4" ry="4" />
<ellipse fill="#767869" fill-opacity="0.5019607843137255" cx="138" cy="154" rx="4" ry="4" />
<ellipse fill="#746c51" fill-opacity="0.5019607843137255" cx="35" cy="158" rx="3" ry="3" />
</g>
</svg>