<svg xmlns="http://www.w3.org/2000/svg" version="1.1" width="636" height="768">
<rect x="0" y="0" width="636" height="768" fill="#66614a" />
<g transform="scale(3) translate(0.5 0.5)">
<ellipse fill="#f7fdce" fill-opacity="0.5019607843137255" cx="152" cy="22" rx="185" ry="55" />
<ellipse fill="#000000" fill-opacity="0.5019607843137255" cx="131" cy="205" rx="211" ry="64" />
<ellipse fill="#ecdaa9" fill-opacity="0.5019607843137255" cx="150" cy="147" rx="17" ry="68" />
<ellipse fill="#e8bb7a" fill-opacity="0.5019607843137255" cx="38" cy="101" rx="23" ry="43" />
<ellipse fill="#000001" fill-opacity="0.5019607843137255" cx="190" cy="175" rx="27" ry="81" />
<ellipse fill="#764312" fill-opacity="0.5019607843137255" cx="158" cy="67" rx="18" ry="42" />
<ellipse fill="#00000b" fill-opacity="0.5019607843137255" cx="109" cy="128" rx="24" ry="27" />
<ellipse fill="#251407" fill-opacity="0.5019607843137255" cx="93" cy="48" rx="9" ry="21" />
<ellipse fill="#d6f2d6" fill-opacity="0.5019607843137255" cx="197" cy="36" rx="25" ry="35" />
<ellipse fill="#fff4b6" fill-opacity="0.5019607843137255" cx="149" cy="132" rx="17" ry="22" />
<ellipse fill="#ffffdc" fill-opacity="0.5019607843137255" cx="178" cy="79" rx="10" ry="8" />
<ellipse fill="#967a47" fill-opacity="0.5019607843137255" cx="62" cy="71" rx="112" ry="22" />
<ellipse fill="#626a67" fill-opacity="0.5019607843137255" cx="150" cy="202" rx="16" ry="50" />
<ellipse fill="#b77e47" fill-opacity="0.5019607843137255" cx="111" cy="252" rx="14" ry="25" />
<ellipse fill="#b4d0c0" fill-opacity="0.5019607843137255" cx="117" cy="15" rx="211" ry="13" />
<ellipse fill="#1a0d00" fill-opacity="0.5019607843137255" cx="44" cy="217" rx="61" ry="55" />
<ellipse fill="#9f754d" fill-opacity="0.5019607843137255" cx="206" cy="91" rx="26" ry="21" />
<ellipse fill="#e4bb83" fill-opacity="0.5019607843137255" cx="47" cy="86" rx="13" ry="28" />
<ellipse fill="#ffeab1" fill-opacity="0.5019607843137255" cx="52" cy="139" rx="19" ry="4" />
<ellipse fill="#e6c07e" fill-opacity="0.5019607843137255" cx="131" cy="38" rx="31" ry="18" />
<ellipse fill="#c7e3b8" fill-opacity="0.5019607843137255" cx="19" cy="34" rx="46" ry="16" />
<ellipse fill="#595939" fill-opacity="0.5019607843137255" cx="27" cy="83" rx="10" ry="29" />
<ellipse fill="#151e22" fill-opacity="0.5019607843137255" cx="110" cy="166" rx="26" ry="59" />
<ellipse fill="#4f381c" fill-opacity="0.5019607843137255" cx="159" cy="79" rx="10" ry="29" />
<ellipse fill="#c9925c" fill-opacity="0.5019607843137255" cx="141" cy="74" rx="9" ry="37" />
<ellipse fill="#3b2a0d" fill-opacity="0.5019607843137255" cx="28" cy="168" rx="20" ry="30" />
<ellipse fill="#d0bd87" fill-opacity="0.5019607843137255" cx="29" cy="124" rx="17" ry="14" />
<ellipse fill="#141e14" fill-opacity="0.5019607843137255" cx="7" cy="122" rx="5" ry="28" />
<ellipse fill="#070f0b" fill-opacity="0.5019607843137255" cx="175" cy="121" rx="8" ry="25" />
<ellipse fill="#608089" fill-opacity="0.5019607843137255" cx="0" cy="0" rx="121" ry="5" />
<ellipse fill="#585b24" fill-opacity="0.5019607843137255" cx="41" cy="54" rx="15" ry="7" />
<ellipse fill="#7d4f2f" fill-opacity="0.5019607843137255" cx="57" cy="123" rx="6" ry="27" />
<ellipse fill="#0e1318" fill-opacity="0.5019607843137255" cx="196" cy="137" rx="30" ry="26" />
<ellipse fill="#e9d39b" fill-opacity="0.5019607843137255" cx="79" cy="60" rx="6" ry="16" />
<ellipse fill="#0a0f0f" fill-opacity="0.5019607843137255" cx="191" cy="239" rx="25" ry="76" />
<ellipse fill="#524931" fill-opacity="0.5019607843137255" cx="90" cy="82" rx="42" ry="7" />
<ellipse fill="#4e4630" fill-opacity="0.5019607843137255" cx="83" cy="104" rx="27" ry="14" />
<ellipse fill="#80694d" fill-opacity="0.5019607843137255" cx="115" cy="195" rx="2" ry="57" />
<ellipse fill="#f6e4a8" fill-opacity="0.5019607843137255" cx="161" cy="122" rx="7" ry="12" />
<ellipse fill="#e1c58a" fill-opacity="0.5019607843137255" cx="111" cy="54" rx="10" ry="21" />
<ellipse fill="#fffbbd" fill-opacity="0.5019607843137255" cx="106" cy="90" rx="30" ry="1" />
<ellipse fill="#0e0a05" fill-opacity="0.5019607843137255" cx="75" cy="157" rx="10" ry="18" />
<ellipse fill="#2b251f" fill-opacity="0.5019607843137255" cx="137" cy="58" rx="5" ry="5" />
<ellipse fill="#fafbc4" fill-opacity="0.5019607843137255" cx="105" cy="89" rx="30" ry="1" />
<ellipse fill="#000d16" fill-opacity="0.5019607843137255" cx="126" cy="111" rx="8" ry="10" />
<ellipse fill="#fffabc" fill-opacity="0.5019607843137255" cx="44" cy="140" rx="5" ry="7" />
<ellipse fill="#d2ae71" fill-opacity="0.5019607843137255" cx="50" cy="71" rx="18" ry="11" />
<ellipse fill="#c0ba91" fill-opacity="0.5019607843137255" cx="75" cy="135" rx="11" ry="4" />
<ellipse fill="#d3dfb2" fill-opacity="0.5019607843137255" cx="14" cy="48" rx="16" ry="8" />
<ellipse fill="#f0efb5" fill-opacity="0.5019607843137255" cx="180" cy="76" rx="9" ry="9" />
</g>
</svg>