<svg xmlns="http://www.w3.org/2000/svg" version="1.1" width="636" height="768">
<rect x="0" y="0" width="636" height="768" fill="#66614a" />
<g transform="scale(3) translate(0.5 0.5)">
<polygon fill="#f5faca" fill-opacity="0.5019607843137255" points="-16.000000,1.471606 9.517714,70.522831 227.000000,80.526683 223.128569,-1.054943" />
<polygon fill="#000000" fill-opacity="0.5019607843137255" points="227.000000,253.348802 3.412849,271.000000 -16.000000,162.124252 120.467145,127.838963" />
<polygon fill="#000000" fill-opacity="0.5019607843137255" points="227.000000,258.909666 163.329391,255.476945 167.791290,106.178877 227.000000,112.139303" />
<polygon fill="#e1d0a2" fill-opacity="0.5019607843137255" points="165.817483,114.582390 164.118607,223.646529 137.395543,208.277968 131.514278,64.957975" />
<polygon fill="#f5c381" fill-opacity="0.5019607843137255" points="17.343686,107.967192 61.673063,45.809595 58.182699,150.600902 11.172389,130.909534" />
<polygon fill="#131110" fill-opacity="0.5019607843137255" points="178.566071,67.998869 84.927332,124.733434 76.348748,271.000000 165.898829,24.732471" />
<polygon fill="#967542" fill-opacity="0.5019607843137255" points="219.556351,78.504449 82.526244,37.014758 -16.000000,63.929455 153.998916,111.371654" />
<polygon fill="#dff5d8" fill-opacity="0.5019607843137255" points="180.446483,86.942722 167.310265,83.034510 205.114202,-5.913312 227.000000,44.948524" />
<polygon fill="#fff5b6" fill-opacity="0.5019607843137255" points="136.572218,108.943090 170.082571,116.716403 161.881527,150.578452 132.221476,147.485505" />
<polygon fill="#72695a" fill-opacity="0.5019607843137255" points="103.081171,271.000000 166.732194,179.726689 164.825475,243.932106 102.738345,229.548298" />
<polygon fill="#00070b" fill-opacity="0.5019607843137255" points="171.185618,96.904578 227.000000,131.513354 210.949201,271.000000 163.076217,181.094149" />
<polygon fill="#322e27" fill-opacity="0.5019607843137255" points="83.744019,61.700502 99.525416,67.159823 100.561269,34.183487 87.482830,24.503317" />
<polygon fill="#1e1000" fill-opacity="0.5019607843137255" points="30.480028,133.032144 -16.000000,249.801074 76.420058,269.751405 107.386750,228.310414" />
<polygon fill="#c0e0c5" fill-opacity="0.5019607843137255" points="100.153613,1.133348 2.845644,13.147625 -8.058098,56.460241 54.937142,46.822968" />
<polygon fill="#ccd5b8" fill-opacity="0.5019607843137255" points="99.212713,-0.791645 104.019349,74.315429 140.734341,34.862644 227.000000,9.019798" />
<polygon fill="#f0e3ae" fill-opacity="0.5019607843137255" points="14.003308,118.962753 68.826945,144.829836 80.222021,128.413756 41.681808,145.852144" />
<polygon fill="#161f22" fill-opacity="0.5019607843137255" points="145.894091,221.046638 73.786788,94.767762 131.925614,107.899710 135.403905,171.545126" />
<polygon fill="#5d5e31" fill-opacity="0.5019607843137255" points="4.996109,63.392923 40.604656,46.471193 33.295794,55.589306 36.861822,117.950036" />
<polygon fill="#ca9a5c" fill-opacity="0.5019607843137255" points="76.212973,76.200627 135.552924,74.753435 172.084714,37.604109 148.643380,20.692770" />
<polygon fill="#563e24" fill-opacity="0.5019607843137255" points="45.530559,162.301514 72.053276,101.420283 90.907499,134.841055 70.460600,59.140798" />
<polygon fill="#a76f39" fill-opacity="0.5019607843137255" points="130.154407,231.202902 122.293650,252.188304 95.197767,253.313772 105.599415,228.083266" />
<polygon fill="#dcb277" fill-opacity="0.5019607843137255" points="67.857595,63.252070 55.218928,104.473545 42.040171,137.870049 32.192821,62.054164" />
<polygon fill="#60401d" fill-opacity="0.5019607843137255" points="150.987050,55.282780 149.307354,112.706797 173.678645,101.401366 162.843639,47.042261" />
<polygon fill="#e7d49d" fill-opacity="0.5019607843137255" points="95.719761,22.332710 66.742945,50.321200 79.177430,78.726543 85.722530,36.085196" />
<polygon fill="#1b1e14" fill-opacity="0.5019607843137255" points="1.734119,100.417942 11.358775,271.000000 12.759728,123.083324 13.373947,93.967789" />
<polygon fill="#5b645d" fill-opacity="0.5019607843137255" points="168.951083,143.571539 134.422904,177.054773 136.179109,240.298379 163.890072,208.631396" />
<polygon fill="#a6c3b8" fill-opacity="0.5019607843137255" points="215.634021,-2.549283 -16.000000,4.739660 162.287395,24.416785 184.269872,53.120462" />
<polygon fill="#855f40" fill-opacity="0.5019607843137255" points="180.522750,104.382866 190.245135,70.739242 211.154795,71.195122 227.000000,124.059313" />
<polygon fill="#d69962" fill-opacity="0.5019607843137255" points="136.404437,73.256183 148.957605,68.329395 152.575795,93.018060 134.762530,107.972220" />
<polygon fill="#575628" fill-opacity="0.5019607843137255" points="73.735281,57.488219 30.712938,59.503312 40.085319,46.697610 66.369185,58.071315" />
<polygon fill="#c2b689" fill-opacity="0.5019607843137255" points="71.521005,134.884860 82.882214,143.147052 87.727057,130.917247 77.915536,132.244844" />
<polygon fill="#39280d" fill-opacity="0.5019607843137255" points="82.495821,172.341922 29.183153,137.416009 1.739217,156.714277 38.859275,256.684604" />
<polygon fill="#131719" fill-opacity="0.5019607843137255" points="111.907174,206.088445 77.415284,142.189025 57.981713,150.162301 86.855104,271.000000" />
<polygon fill="#47372b" fill-opacity="0.5019607843137255" points="148.281864,62.691579 129.395323,59.907229 138.963626,52.489900 153.535525,67.990068" />
<polygon fill="#aaa176" fill-opacity="0.5019607843137255" points="19.200258,85.344029 23.771572,90.964380 33.860199,141.071908 12.158393,120.355501" />
<polygon fill="#e1dba8" fill-opacity="0.5019607843137255" points="66.632392,89.529971 148.589463,89.554999 82.423456,91.018947 96.204997,92.133154" />
<polygon fill="#020708" fill-opacity="0.5019607843137255" points="137.855030,221.157911 120.443430,211.690574 151.363572,265.667137 121.786718,264.800338" />
<polygon fill="#769092" fill-opacity="0.5019607843137255" points="71.989916,5.696195 161.826691,-0.744417 -10.987733,0.332160 -10.003954,6.809288" />
<polygon fill="#d7b87c" fill-opacity="0.5019607843137255" points="96.789086,19.115056 111.325702,76.973315 123.384986,54.150415 167.602187,51.813627" />
<polygon fill="#534c33" fill-opacity="0.5019607843137255" points="113.653952,88.601152 32.209956,81.818120 116.324341,77.352759 144.786777,88.593026" />
<polygon fill="#3a360c" fill-opacity="0.5019607843137255" points="182.776262,138.308906 186.556648,109.379268 136.863797,98.825494 189.326782,95.801270" />
<polygon fill="#1d2526" fill-opacity="0.5019607843137255" points="86.303579,133.068338 91.535957,203.559169 124.340011,181.849104 136.304012,95.318215" />
<polygon fill="#cddbb4" fill-opacity="0.5019607843137255" points="178.345267,67.826409 208.675827,72.627420 226.837752,18.934258 169.477124,16.963035" />
<polygon fill="#674d29" fill-opacity="0.5019607843137255" points="163.682393,83.885509 169.691239,29.835706 173.447807,50.146454 179.767703,61.556668" />
<polygon fill="#705e41" fill-opacity="0.5019607843137255" points="50.920400,165.775984 9.201023,137.486590 -16.000000,190.521861 10.527813,150.737079" />
<polygon fill="#8c7556" fill-opacity="0.5019607843137255" points="94.284289,11.850253 53.461717,56.368920 92.092637,26.629641 96.036665,38.630356" />
<polygon fill="#eedea9" fill-opacity="0.5019607843137255" points="51.395386,140.094397 30.067921,123.634549 34.376276,140.164152 47.643814,148.725564" />
<polygon fill="#74644e" fill-opacity="0.5019607843137255" points="115.375683,134.073134 115.148711,229.671292 119.550639,196.313860 112.203441,189.649338" />
<polygon fill="#e7d7a0" fill-opacity="0.5019607843137255" points="166.988751,139.728571 167.876343,111.856918 139.688626,121.637341 142.359521,154.167435" />
<polygon fill="#e9e4af" fill-opacity="0.5019607843137255" points="188.345554,82.281137 174.377276,85.283746 178.107600,56.931822 186.122664,64.448748" />
</g>
</svg>