<svg xmlns="http://www.w3.org/2000/svg" version="1.1" width="636" height="768">
<rect x="0" y="0" width="636" height="768" fill="#66614a" />
<g transform="scale(3) translate(0.5 0.5)">
<g transform="translate(106 12) rotate(274) scale(127 223)"><rect fill="#f4f8c9" fill-opacity="0.5019607843137255" x="-0.5" y="-0.5" width="1" height="1" /></g>
<g transform="translate(67 212) rotate(79) scale(136 150)"><rect fill="#000000" fill-opacity="0.5019607843137255" x="-0.5" y="-0.5" width="1" height="1" /></g>
<g transform="translate(190 189) rotate(182) scale(50 173)"><rect fill="#000000" fill-opacity="0.5019607843137255" x="-0.5" y="-0.5" width="1" height="1" /></g>
<g transform="translate(150 133) rotate(92) scale(49 33)"><rect fill="#ffffce" fill-opacity="0.5019607843137255" x="-0.5" y="-0.5" width="1" height="1" /></g>
<g transform="translate(41 101) rotate(286) scale(81 34)"><rect fill="#f8c680" fill-opacity="0.5019607843137255" x="-0.5" y="-0.5" width="1" height="1" /></g>
<g transform="translate(161 72) rotate(272) scale(80 23)"><rect fill="#64370c" fill-opacity="0.5019607843137255" x="-0.5" y="-0.5" width="1" height="1" /></g>
<g transform="translate(111 135) rotate(175) scale(47 58)"><rect fill="#000814" fill-opacity="0.5019607843137255" x="-0.5" y="-0.5" width="1" height="1" /></g>
<g transform="translate(93 47) rotate(271) scale(38 16)"><rect fill="#2c1c0f" fill-opacity="0.5019607843137255" x="-0.5" y="-0.5" width="1" height="1" /></g>
<g transform="translate(202 188) rotate(273) scale(153 68)"><rect fill="#000006" fill-opacity="0.5019607843137255" x="-0.5" y="-0.5" width="1" height="1" /></g>
<g transform="translate(195 39) rotate(75) scale(64 46)"><rect fill="#d8f3d6" fill-opacity="0.5019607843137255" x="-0.5" y="-0.5" width="1" height="1" /></g>
<g transform="translate(23 72) rotate(259) scale(37 99)"><rect fill="#7c6733" fill-opacity="0.5019607843137255" x="-0.5" y="-0.5" width="1" height="1" /></g>
<g transform="translate(143 72) rotate(178) scale(18 74)"><rect fill="#d58f4e" fill-opacity="0.5019607843137255" x="-0.5" y="-0.5" width="1" height="1" /></g>
<g transform="translate(113 244) rotate(102) scale(28 23)"><rect fill="#bb8049" fill-opacity="0.5019607843137255" x="-0.5" y="-0.5" width="1" height="1" /></g>
<g transform="translate(38 214) rotate(310) scale(108 116)"><rect fill="#1d1002" fill-opacity="0.5019607843137255" x="-0.5" y="-0.5" width="1" height="1" /></g>
<g transform="translate(96 17) rotate(348) scale(211 33)"><rect fill="#bad4bf" fill-opacity="0.5019607843137255" x="-0.5" y="-0.5" width="1" height="1" /></g>
<g transform="translate(154 130) rotate(277) scale(36 26)"><rect fill="#ffeaa8" fill-opacity="0.5019607843137255" x="-0.5" y="-0.5" width="1" height="1" /></g>
<g transform="translate(201 92) rotate(188) scale(28 41)"><rect fill="#8e6043" fill-opacity="0.5019607843137255" x="-0.5" y="-0.5" width="1" height="1" /></g>
<g transform="translate(54 140) rotate(184) scale(32 11)"><rect fill="#f4d7a0" fill-opacity="0.5019607843137255" x="-0.5" y="-0.5" width="1" height="1" /></g>
<g transform="translate(149 188) rotate(91) scale(77 26)"><rect fill="#7a7f74" fill-opacity="0.5019607843137255" x="-0.5" y="-0.5" width="1" height="1" /></g>
<g transform="translate(178 79) rotate(282) scale(13 16)"><rect fill="#ffffc4" fill-opacity="0.5019607843137255" x="-0.5" y="-0.5" width="1" height="1" /></g>
<g transform="translate(163 68) rotate(110) scale(36 23)"><rect fill="#573d1f" fill-opacity="0.5019607843137255" x="-0.5" y="-0.5" width="1" height="1" /></g>
<g transform="translate(50 83) rotate(109) scale(42 20)"><rect fill="#e8bd89" fill-opacity="0.5019607843137255" x="-0.5" y="-0.5" width="1" height="1" /></g>
<g transform="translate(134 40) rotate(-4) scale(58 30)"><rect fill="#e2bb79" fill-opacity="0.5019607843137255" x="-0.5" y="-0.5" width="1" height="1" /></g>
<g transform="translate(153 235) rotate(167) scale(29 49)"><rect fill="#363d42" fill-opacity="0.5019607843137255" x="-0.5" y="-0.5" width="1" height="1" /></g>
<g transform="translate(0 119) rotate(358) scale(26 47)"><rect fill="#1e281d" fill-opacity="0.5019607843137255" x="-0.5" y="-0.5" width="1" height="1" /></g>
<g transform="translate(77 36) rotate(134) scale(59 13)"><rect fill="#aa8758" fill-opacity="0.5019607843137255" x="-0.5" y="-0.5" width="1" height="1" /></g>
<g transform="translate(29 86) rotate(352) scale(12 55)"><rect fill="#595636" fill-opacity="0.5019607843137255" x="-0.5" y="-0.5" width="1" height="1" /></g>
<g transform="translate(132 67) rotate(199) scale(26 29)"><rect fill="#9e7345" fill-opacity="0.5019607843137255" x="-0.5" y="-0.5" width="1" height="1" /></g>
<g transform="translate(30 128) rotate(38) scale(41 11)"><rect fill="#e4d59f" fill-opacity="0.5019607843137255" x="-0.5" y="-0.5" width="1" height="1" /></g>
<g transform="translate(106 90) rotate(181) scale(63 1)"><rect fill="#ffffbc" fill-opacity="0.5019607843137255" x="-0.5" y="-0.5" width="1" height="1" /></g>
<g transform="translate(93 106) rotate(90) scale(21 28)"><rect fill="#34331b" fill-opacity="0.5019607843137255" x="-0.5" y="-0.5" width="1" height="1" /></g>
<g transform="translate(91 182) rotate(88) scale(77 43)"><rect fill="#13191c" fill-opacity="0.5019607843137255" x="-0.5" y="-0.5" width="1" height="1" /></g>
<g transform="translate(93 33) rotate(52) scale(9 10)"><rect fill="#392d1e" fill-opacity="0.5019607843137255" x="-0.5" y="-0.5" width="1" height="1" /></g>
<g transform="translate(69 0) rotate(88) scale(8 139)"><rect fill="#61828b" fill-opacity="0.5019607843137255" x="-0.5" y="-0.5" width="1" height="1" /></g>
<g transform="translate(55 170) rotate(312) scale(50 41)"><rect fill="#3a280e" fill-opacity="0.5019607843137255" x="-0.5" y="-0.5" width="1" height="1" /></g>
<g transform="translate(22 116) rotate(7) scale(18 33)"><rect fill="#aea074" fill-opacity="0.5019607843137255" x="-0.5" y="-0.5" width="1" height="1" /></g>
<g transform="translate(79 135) rotate(294) scale(11 12)"><rect fill="#bcb085" fill-opacity="0.5019607843137255" x="-0.5" y="-0.5" width="1" height="1" /></g>
<g transform="translate(143 255) rotate(289) scale(20 34)"><rect fill="#020506" fill-opacity="0.5019607843137255" x="-0.5" y="-0.5" width="1" height="1" /></g>
<g transform="translate(109 147) rotate(267) scale(70 49)"><rect fill="#1e2423" fill-opacity="0.5019607843137255" x="-0.5" y="-0.5" width="1" height="1" /></g>
<g transform="translate(154 171) rotate(89) scale(44 21)"><rect fill="#949074" fill-opacity="0.5019607843137255" x="-0.5" y="-0.5" width="1" height="1" /></g>
<g transform="translate(14 151) rotate(156) scale(31 25)"><rect fill="#604d2f" fill-opacity="0.5019607843137255" x="-0.5" y="-0.5" width="1" height="1" /></g>
<g transform="translate(115 184) rotate(265) scale(57 1)"><rect fill="#998a74" fill-opacity="0.5019607843137255" x="-0.5" y="-0.5" width="1" height="1" /></g>
<g transform="translate(72 77) rotate(263) scale(33 6)"><rect fill="#322102" fill-opacity="0.5019607843137255" x="-0.5" y="-0.5" width="1" height="1" /></g>
<g transform="translate(139 58) rotate(64) scale(8 5)"><rect fill="#04080c" fill-opacity="0.5019607843137255" x="-0.5" y="-0.5" width="1" height="1" /></g>
<g transform="translate(74 56) rotate(59) scale(19 10)"><rect fill="#edcc8c" fill-opacity="0.5019607843137255" x="-0.5" y="-0.5" width="1" height="1" /></g>
<g transform="translate(55 138) rotate(84) scale(25 8)"><rect fill="#b77f4c" fill-opacity="0.5019607843137255" x="-0.5" y="-0.5" width="1" height="1" /></g>
<g transform="translate(41 52) rotate(179) scale(25 7)"><rect fill="#4e5824" fill-opacity="0.5019607843137255" x="-0.5" y="-0.5" width="1" height="1" /></g>
<g transform="translate(126 19) rotate(46) scale(21 31)"><rect fill="#c1dccb" fill-opacity="0.5019607843137255" x="-0.5" y="-0.5" width="1" height="1" /></g>
<g transform="translate(76 111) rotate(372) scale(38 38)"><rect fill="#63533b" fill-opacity="0.5019607843137255" x="-0.5" y="-0.5" width="1" height="1" /></g>
<g transform="translate(0 72) rotate(106) scale(36 39)"><rect fill="#646440" fill-opacity="0.5019607843137255" x="-0.5" y="-0.5" width="1" height="1" /></g>
<g transform="translate(211 82) rotate(148) scale(63 23)"><rect fill="#87744d" fill-opacity="0.5019607843137255" x="-0.5" y="-0.5" width="1" height="1" /></g>
<g transform="translate(142 82) rotate(81) scale(31 16)"><rect fill="#c89c68" fill-opacity="0.5019607843137255" x="-0.5" y="-0.5" width="1" height="1" /></g>
<g transform="translate(28 32) rotate(344) scale(52 43)"><rect fill="#bdd1a7" fill-opacity="0.5019607843137255" x="-0.5" y="-0.5" width="1" height="1" /></g>
<g transform="translate(179 110) rotate(84) scale(23 21)"><rect fill="#171f09" fill-opacity="0.5019607843137255" x="-0.5" y="-0.5" width="1" height="1" /></g>
<g transform="translate(8 228) rotate(89) scale(85 14)"><rect fill="#01090e" fill-opacity="0.5019607843137255" x="-0.5" y="-0.5" width="1" height="1" /></g>
<g transform="translate(134 232) rotate(74) scale(6 31)"><rect fill="#816d54" fill-opacity="0.5019607843137255" x="-0.5" y="-0.5" width="1" height="1" /></g>
<g transform="translate(59 83) rotate(177) scale(16 6)"><rect fill="#55412f" fill-opacity="0.5019607843137255" x="-0.5" y="-0.5" width="1" height="1" /></g>
<g transform="translate(92 71) rotate(1) scale(37 10)"><rect fill="#c5a164" fill-opacity="0.5019607843137255" x="-0.5" y="-0.5" width="1" height="1" /></g>
<g transform="translate(43 140) rotate(219) scale(15 7)"><rect fill="#fff2bb" fill-opacity="0.5019607843137255" x="-0.5" y="-0.5" width="1" height="1" /></g>
<g transform="translate(37 199) rotate(257) scale(87 41)"><rect fill="#3b280a" fill-opacity="0.5019607843137255" x="-0.5" y="-0.5" width="1" height="1" /></g>
<g transform="translate(179 77) rotate(270) scale(13 18)"><rect fill="#e7dfad" fill-opacity="0.5019607843137255" x="-0.5" y="-0.5" width="1" height="1" /></g>
<g transform="translate(197 105) rotate(205) scale(67 10)"><rect fill="#866633" fill-opacity="0.5019607843137255" x="-0.5" y="-0.5" width="1" height="1" /></g>
<g transform="translate(81 244) rotate(211) scale(28 66)"><rect fill="#101319" fill-opacity="0.5019607843137255" x="-0.5" y="-0.5" width="1" height="1" /></g>
<g transform="translate(110 47) rotate(350) scale(16 53)"><rect fill="#dbbb7f" fill-opacity="0.5019607843137255" x="-0.5" y="-0.5" width="1" height="1" /></g>
<g transform="translate(180 137) rotate(99) scale(48 25)"><rect fill="#192022" fill-opacity="0.5019607843137255" x="-0.5" y="-0.5" width="1" height="1" /></g>
<g transform="translate(167 0) rotate(272) scale(11 113)"><rect fill="#85a2a5" fill-opacity="0.5019607843137255" x="-0.5" y="-0.5" width="1" height="1" /></g>
<g transform="translate(166 33) rotate(318) scale(2 19)"><rect fill="#332f1e" fill-opacity="0.5019607843137255" x="-0.5" y="-0.5" width="1" height="1" /></g>
<g transform="translate(126 201) rotate(355) scale(15 47)"><rect fill="#0f1418" fill-opacity="0.5019607843137255" x="-0.5" y="-0.5" width="1" height="1" /></g>
<g transform="translate(125 107) rotate(155) scale(19 5)"><rect fill="#000a11" fill-opacity="0.5019607843137255" x="-0.5" y="-0.5" width="1" height="1" /></g>
<g transform="translate(2 123) rotate(182) scale(1 80)"><rect fill="#86795f" fill-opacity="0.5019607843137255" x="-0.5" y="-0.5" width="1" height="1" /></g>
<g transform="translate(93 45) rotate(7) scale(1 20)"><rect fill="#d5c695" fill-opacity="0.5019607843137255" x="-0.5" y="-0.5" width="1" height="1" /></g>
<g transform="translate(55 10) rotate(-2) scale(139 14)"><rect fill="#a5bbb0" fill-opacity="0.5019607843137255" x="-0.5" y="-0.5" width="1" height="1" /></g>
<g transform="translate(32 155) rotate(220) scale(22 1)"><rect fill="#a8a07d" fill-opacity="0.5019607843137255" x="-0.5" y="-0.5" width="1" height="1" /></g>
<g transform="translate(69 152) rotate(328) scale(27 12)"><rect fill="#060a0d" fill-opacity="0.5019607843137255" x="-0.5" y="-0.5" width="1" height="1" /></g>
<g transform="translate(73 37) rotate(225) scale(1 60)"><rect fill="#5f5446" fill-opacity="0.5019607843137255" x="-0.5" y="-0.5" width="1" height="1" /></g>
<g transform="translate(61 123) rotate(104) scale(31 7)"><rect fill="#5f371a" fill-opacity="0.5019607843137255" x="-0.5" y="-0.5" width="1" height="1" /></g>
<g transform="translate(137 144) rotate(271) scale(56 1)"><rect fill="#494123" fill-opacity="0.5019607843137255" x="-0.5" y="-0.5" width="1" height="1" /></g>
<g transform="translate(49 68) rotate(361) scale(32 17)"><rect fill="#d0af6f" fill-opacity="0.5019607843137255" x="-0.5" y="-0.5" width="1" height="1" /></g>
<g transform="translate(110 100) rotate(187) scale(4 15)"><rect fill="#c4af80" fill-opacity="0.5019607843137255" x="-0.5" y="-0.5" width="1" height="1" /></g>
<g transform="translate(158 56) rotate(208) scale(6 29)"><rect fill="#51422b" fill-opacity="0.5019607843137255" x="-0.5" y="-0.5" width="1" height="1" /></g>
<g transform="translate(30 57) rotate(329) scale(28 11)"><rect fill="#79833c" fill-opacity="0.5019607843137255" x="-0.5" y="-0.5" width="1" height="1" /></g>
<g transform="translate(69 136) rotate(39) scale(7 18)"><rect fill="#b1b392" fill-opacity="0.5019607843137255" x="-0.5" y="-0.5" width="1" height="1" /></g>
<g transform="translate(48 116) rotate(21) scale(13 39)"><rect fill="#ce9b68" fill-opacity="0.5019607843137255" x="-0.5" y="-0.5" width="1" height="1" /></g>
<g transform="translate(195 63) rotate(186) scale(28 17)"><rect fill="#dfe3c1" fill-opacity="0.5019607843137255" x="-0.5" y="-0.5" width="1" height="1" /></g>
<g transform="translate(117 82) rotate(358) scale(28 14)"><rect fill="#5f502c" fill-opacity="0.5019607843137255" x="-0.5" y="-0.5" width="1" height="1" /></g>
<g transform="translate(162 17) rotate(201) scale(44 19)"><rect fill="#b8cdb4" fill-opacity="0.5019607843137255" x="-0.5" y="-0.5" width="1" height="1" /></g>
<g transform="translate(135 130) rotate(277) scale(30 2)"><rect fill="#ddd6af" fill-opacity="0.5019607843137255" x="-0.5" y="-0.5" width="1" height="1" /></g>
<g transform="translate(115 123) rotate(363) scale(35 26)"><rect fill="#151a1c" fill-opacity="0.5019607843137255" x="-0.5" y="-0.5" width="1" height="1" /></g>
<g transform="translate(171 90) rotate(386) scale(8 15)"><rect fill="#9ba074" fill-opacity="0.5019607843137255" x="-0.5" y="-0.5" width="1" height="1" /></g>
<g transform="translate(34 147) rotate(310) scale(11 16)"><rect fill="#0a1c20" fill-opacity="0.5019607843137255" x="-0.5" y="-0.5" width="1" height="1" /></g>
<g transform="translate(109 253) rotate(31) scale(29 13)"><rect fill="#6a4e29" fill-opacity="0.5019607843137255" x="-0.5" y="-0.5" width="1" height="1" /></g>
<g transform="translate(32 97) rotate(159) scale(3 29)"><rect fill="#514125" fill-opacity="0.5019607843137255" x="-0.5" y="-0.5" width="1" height="1" /></g>
<g transform="translate(151 217) rotate(181) scale(27 43)"><rect fill="#565b56" fill-opacity="0.5019607843137255" x="-0.5" y="-0.5" width="1" height="1" /></g>
<g transform="translate(42 104) rotate(323) scale(4 33)"><rect fill="#dbaa73" fill-opacity="0.5019607843137255" x="-0.5" y="-0.5" width="1" height="1" /></g>
<g transform="translate(17 90) rotate(185) scale(21 1)"><rect fill="#cec19a" fill-opacity="0.5019607843137255" x="-0.5" y="-0.5" width="1" height="1" /></g>
<g transform="translate(79 46) rotate(183) scale(10 19)"><rect fill="#e0c68b" fill-opacity="0.5019607843137255" x="-0.5" y="-0.5" width="1" height="1" /></g>
<g transform="translate(174 62) rotate(276) scale(14 5)"><rect fill="#462a17" fill-opacity="0.5019607843137255" x="-0.5" y="-0.5" width="1" height="1" /></g>
<g transform="translate(150 242) rotate(251) scale(21 24)"><rect fill="#343837" fill-opacity="0.5019607843137255" x="-0.5" y="-0.5" width="1" height="1" /></g>
<g transform="translate(90 153) rotate(90) scale(43 1)"><rect fill="#8b846d" fill-opacity="0.5019607843137255" x="-0.5" y="-0.5" width="1" height="1" /></g>
<g transform="translate(48 162) rotate(7) scale(34 1)"><rect fill="#796c51" fill-opacity="0.5019607843137255" x="-0.5" y="-0.5" width="1" height="1" /></g>
<g transform="translate(148 114) rotate(88) scale(9 27)"><rect fill="#d8c592" fill-opacity="0.5019607843137255" x="-0.5" y="-0.5" width="1" height="1" /></g>
<g transform="translate(88 48) rotate(182) scale(4 29)"><rect fill="#332f27" fill-opacity="0.5019607843137255" x="-0.5" y="-0.5" width="1" height="1" /></g>
<g transform="translate(180 37) rotate(171) scale(17 29)"><rect fill="#b8c593" fill-opacity="0.5019607843137255" x="-0.5" y="-0.5" width="1" height="1" /></g>
<g transform="translate(116 221) rotate(182) scale(1 63)"><rect fill="#8e704d" fill-opacity="0.5019607843137255" x="-0.5" y="-0.5" width="1" height="1" /></g>
<g transform="translate(179 96) rotate(-33) scale(12 14)"><rect fill="#5f6a03" fill-opacity="0.5019607843137255" x="-0.5" y="-0.5" width="1" height="1" /></g>
<g transform="translate(93 105) rotate(90) scale(23 3)"><rect fill="#878a7b" fill-opacity="0.5019607843137255" x="-0.5" y="-0.5" width="1" height="1" /></g>
<g transform="translate(114 142) rotate(269) scale(19 2)"><rect fill="#7e725b" fill-opacity="0.5019607843137255" x="-0.5" y="-0.5" width="1" height="1" /></g>
<g transform="translate(72 119) rotate(188) scale(12 26)"><rect fill="#696f63" fill-opacity="0.5019607843137255" x="-0.5" y="-0.5" width="1" height="1" /></g>
<g transform="translate(204 85) rotate(96) scale(23 32)"><rect fill="#7d6d57" fill-opacity="0.5019607843137255" x="-0.5" y="-0.5" width="1" height="1" /></g>
<g transform="translate(193 220) rotate(357) scale(52 73)"><rect fill="#0c110d" fill-opacity="0.5019607843137255" x="-0.5" y="-0.5" width="1" height="1" /></g>
<g transform="translate(156 86) rotate(14) scale(6 54)"><rect fill="#8b6741" fill-opacity="0.5019607843137255" x="-0.5" y="-0.5" width="1" height="1" /></g>
<g transform="translate(158 32) rotate(313) scale(8 16)"><rect fill="#ad8248" fill-opacity="0.5019607843137255" x="-0.5" y="-0.5" width="1" height="1" /></g>
<g transform="translate(19 121) rotate(-1) scale(13 26)"><rect fill="#b9a676" fill-opacity="0.5019607843137255" x="-0.5" y="-0.5" width="1" height="1" /></g>
<g transform="translate(210 107) rotate(183) scale(24 14)"><rect fill="#562925" fill-opacity="0.5019607843137255" x="-0.5" y="-0.5" width="1" height="1" /></g>
<g transform="translate(148 158) rotate(274) scale(17 15)"><rect fill="#a8a482" fill-opacity="0.5019607843137255" x="-0.5" y="-0.5" width="1" height="1" /></g>
<g transform="translate(93 69) rotate(186) scale(26 1)"><rect fill="#60543c" fill-opacity="0.5019607843137255" x="-0.5" y="-0.5" width="1" height="1" /></g>
<g transform="translate(130 192) rotate(65) scale(1 35)"><rect fill="#6f6653" fill-opacity="0.5019607843137255" x="-0.5" y="-0.5" width="1" height="1" /></g>
<g transform="translate(84 136) rotate(8) scale(3 13)"><rect fill="#afa680" fill-opacity="0.5019607843137255" x="-0.5" y="-0.5" width="1" height="1" /></g>
<g transform="translate(29 108) rotate(142) scale(8 30)"><rect fill="#817b5f" fill-opacity="0.5019607843137255" x="-0.5" y="-0.5" width="1" height="1" /></g>
<g transform="translate(85 48) rotate(90) scale(1 31)"><rect fill="#ead49c" fill-opacity="0.5019607843137255" x="-0.5" y="-0.5" width="1" height="1" /></g>
<g transform="translate(8 122) rotate(178) scale(9 27)"><rect fill="#2b2d20" fill-opacity="0.5019607843137255" x="-0.5" y="-0.5" width="1" height="1" /></g>
<g transform="translate(46 80) rotate(301) scale(32 8)"><rect fill="#ddbe8b" fill-opacity="0.5019607843137255" x="-0.5" y="-0.5" width="1" height="1" /></g>
<g transform="translate(68 25) rotate(135) scale(42 9)"><rect fill="#c5dbc1" fill-opacity="0.5019607843137255" x="-0.5" y="-0.5" width="1" height="1" /></g>
<g transform="translate(61 101) rotate(289) scale(57 6)"><rect fill="#886042" fill-opacity="0.5019607843137255" x="-0.5" y="-0.5" width="1" height="1" /></g>
<g transform="translate(158 55) rotate(273) scale(3 11)"><rect fill="#020404" fill-opacity="0.5019607843137255" x="-0.5" y="-0.5" width="1" height="1" /></g>
<g transform="translate(36 134) rotate(293) scale(9 7)"><rect fill="#fff3bf" fill-opacity="0.5019607843137255" x="-0.5" y="-0.5" width="1" height="1" /></g>
<g transform="translate(58 87) rotate(170) scale(2 15)"><rect fill="#fbd59b" fill-opacity="0.5019607843137255" x="-0.5" y="-0.5" width="1" height="1" /></g>
<g transform="translate(77 145) rotate(122) scale(9 13)"><rect fill="#080803" fill-opacity="0.5019607843137255" x="-0.5" y="-0.5" width="1" height="1" /></g>
<g transform="translate(133 229) rotate(183) scale(1 71)"><rect fill="#020301" fill-opacity="0.5019607843137255" x="-0.5" y="-0.5" width="1" height="1" /></g>
<g transform="translate(32 0) rotate(267) scale(1 95)"><rect fill="#555a4b" fill-opacity="0.5019607843137255" x="-0.5" y="-0.5" width="1" height="1" /></g>
<g transform="translate(143 130) rotate(273) scale(39 9)"><rect fill="#f0d597" fill-opacity="0.5019607843137255" x="-0.5" y="-0.5" width="1" height="1" /></g>
<g transform="translate(47 54) rotate(106) scale(8 21)"><rect fill="#645635" fill-opacity="0.5019607843137255" x="-0.5" y="-0.5" width="1" height="1" /></g>
<g transform="translate(84 112) rotate(4) scale(9 35)"><rect fill="#3d3e22" fill-opacity="0.5019607843137255" x="-0.5" y="-0.5" width="1" height="1" /></g>
<g transform="translate(73 76) rotate(77) scale(18 3)"><rect fill="#322c0c" fill-opacity="0.5019607843137255" x="-0.5" y="-0.5" width="1" height="1" /></g>
<g transform="translate(113 29) rotate(224) scale(65 1)"><rect fill="#908a69" fill-opacity="0.5019607843137255" x="-0.5" y="-0.5" width="1" height="1" /></g>
<g transform="translate(135 40) rotate(213) scale(10 21)"><rect fill="#edca8a" fill-opacity="0.5019607843137255" x="-0.5" y="-0.5" width="1" height="1" /></g>
<g transform="translate(113 108) rotate(181) scale(1 51)"><rect fill="#7d7761" fill-opacity="0.5019607843137255" x="-0.5" y="-0.5" width="1" height="1" /></g>
<g transform="translate(63 42) rotate(314) scale(26 1)"><rect fill="#e9e0ac" fill-opacity="0.5019607843137255" x="-0.5" y="-0.5" width="1" height="1" /></g>
<g transform="translate(149 45) rotate(238) scale(21 21)"><rect fill="#c59d60" fill-opacity="0.5019607843137255" x="-0.5" y="-0.5" width="1" height="1" /></g>
<g transform="translate(157 164) rotate(293) scale(41 3)"><rect fill="#62665d" fill-opacity="0.5019607843137255" x="-0.5" y="-0.5" width="1" height="1" /></g>
<g transform="translate(179 69) rotate(12) scale(7 27)"><rect fill="#d7d7a9" fill-opacity="0.5019607843137255" x="-0.5" y="-0.5" width="1" height="1" /></g>
<g transform="translate(197 125) rotate(287) scale(26 47)"><rect fill="#1c201f" fill-opacity="0.5019607843137255" x="-0.5" y="-0.5" width="1" height="1" /></g>
<g transform="translate(192 98) rotate(262) scale(23 3)"><rect fill="#bd7265" fill-opacity="0.5019607843137255" x="-0.5" y="-0.5" width="1" height="1" /></g>
<g transform="translate(18 157) rotate(328) scale(16 18)"><rect fill="#3a2913" fill-opacity="0.5019607843137255" x="-0.5" y="-0.5" width="1" height="1" /></g>
<g transform="translate(9 48) rotate(277) scale(13 27)"><rect fill="#d3d5a4" fill-opacity="0.5019607843137255" x="-0.5" y="-0.5" width="1" height="1" /></g>
<g transform="translate(71 32) rotate(134) scale(59 1)"><rect fill="#6e6e5a" fill-opacity="0.5019607843137255" x="-0.5" y="-0.5" width="1" height="1" /></g>
<g transform="translate(109 240) rotate(95) scale(21 11)"><rect fill="#99724d" fill-opacity="0.5019607843137255" x="-0.5" y="-0.5" width="1" height="1" /></g>
<g transform="translate(204 38) rotate(361) scale(13 37)"><rect fill="#d1e2c7" fill-opacity="0.5019607843137255" x="-0.5" y="-0.5" width="1" height="1" /></g>
<g transform="translate(6 149) rotate(328) scale(30 5)"><rect fill="#8b7554" fill-opacity="0.5019607843137255" x="-0.5" y="-0.5" width="1" height="1" /></g>
<g transform="translate(125 175) rotate(180) scale(17 28)"><rect fill="#0f151b" fill-opacity="0.5019607843137255" x="-0.5" y="-0.5" width="1" height="1" /></g>
<g transform="translate(142 106) rotate(32) scale(16 8)"><rect fill="#cca16e" fill-opacity="0.5019607843137255" x="-0.5" y="-0.5" width="1" height="1" /></g>
<g transform="translate(55 140) rotate(85) scale(1 33)"><rect fill="#dfd2a1" fill-opacity="0.5019607843137255" x="-0.5" y="-0.5" width="1" height="1" /></g>
<g transform="translate(139 82) rotate(239) scale(9 11)"><rect fill="#d9ac6e" fill-opacity="0.5019607843137255" x="-0.5" y="-0.5" width="1" height="1" /></g>
<g transform="translate(171 51) rotate(170) scale(2 31)"><rect fill="#423829" fill-opacity="0.5019607843137255" x="-0.5" y="-0.5" width="1" height="1" /></g>
<g transform="translate(93 61) rotate(-7) scale(1 14)"><rect fill="#d4c292" fill-opacity="0.5019607843137255" x="-0.5" y="-0.5" width="1" height="1" /></g>
<g transform="translate(61 144) rotate(133) scale(3 10)"><rect fill="#0d0705" fill-opacity="0.5019607843137255" x="-0.5" y="-0.5" width="1" height="1" /></g>
<g transform="translate(62 105) rotate(84) scale(1 25)"><rect fill="#5a4034" fill-opacity="0.5019607843137255" x="-0.5" y="-0.5" width="1" height="1" /></g>
<g transform="translate(106 38) rotate(56) scale(36 5)"><rect fill="#dcc791" fill-opacity="0.5019607843137255" x="-0.5" y="-0.5" width="1" height="1" /></g>
<g transform="translate(29 84) rotate(97) scale(19 3)"><rect fill="#382e11" fill-opacity="0.5019607843137255" x="-0.5" y="-0.5" width="1" height="1" /></g>
<g transform="translate(211 81) rotate(200) scale(12 30)"><rect fill="#8b825b" fill-opacity="0.5019607843137255" x="-0.5" y="-0.5" width="1" height="1" /></g>
<g transform="translate(133 105) rotate(0) scale(2 8)"><rect fill="#09131d" fill-opacity="0.5019607843137255" x="-0.5" y="-0.5" width="1" height="1" /></g>
<g transform="translate(179 10) rotate(1) scale(86 14)"><rect fill="#b0c3b3" fill-opacity="0.5019607843137255" x="-0.5" y="-0.5" width="1" height="1" /></g>
<g transform="translate(109 171) rotate(91) scale(46 9)"><rect fill="#171f21" fill-opacity="0.5019607843137255" x="-0.5" y="-0.5" width="1" height="1" /></g>
<g transform="translate(96 36) rotate(332) scale(4 20)"><rect fill="#403d2f" fill-opacity="0.5019607843137255" x="-0.5" y="-0.5" width="1" height="1" /></g>
<g transform="translate(106 195) rotate(101) scale(1 17)"><rect fill="#766a59" fill-opacity="0.5019607843137255" x="-0.5" y="-0.5" width="1" height="1" /></g>
<g transform="translate(48 153) rotate(151) scale(12 13)"><rect fill="#112229" fill-opacity="0.5019607843137255" x="-0.5" y="-0.5" width="1" height="1" /></g>
<g transform="translate(189 91) rotate(275) scale(35 1)"><rect fill="#51372e" fill-opacity="0.5019607843137255" x="-0.5" y="-0.5" width="1" height="1" /></g>
<g transform="translate(156 65) rotate(82) scale(15 3)"><rect fill="#a58459" fill-opacity="0.5019607843137255" x="-0.5" y="-0.5" width="1" height="1" /></g>
<g transform="translate(125 251) rotate(185) scale(6 32)"><rect fill="#4e3313" fill-opacity="0.5019607843137255" x="-0.5" y="-0.5" width="1" height="1" /></g>
<g transform="translate(65 110) rotate(201) scale(4 36)"><rect fill="#59371b" fill-opacity="0.5019607843137255" x="-0.5" y="-0.5" width="1" height="1" /></g>
<g transform="translate(0 209) rotate(270) scale(99 1)"><rect fill="#3c4745" fill-opacity="0.5019607843137255" x="-0.5" y="-0.5" width="1" height="1" /></g>
<g transform="translate(169 73) rotate(31) scale(3 25)"><rect fill="#5d441b" fill-opacity="0.5019607843137255" x="-0.5" y="-0.5" width="1" height="1" /></g>
<g transform="translate(13 102) rotate(182) scale(5 10)"><rect fill="#1a4132" fill-opacity="0.5019607843137255" x="-0.5" y="-0.5" width="1" height="1" /></g>
<g transform="translate(53 83) rotate(115) scale(7 5)"><rect fill="#463b31" fill-opacity="0.5019607843137255" x="-0.5" y="-0.5" width="1" height="1" /></g>
<g transform="translate(100 75) rotate(268) scale(1 50)"><rect fill="#b3aa7a" fill-opacity="0.5019607843137255" x="-0.5" y="-0.5" width="1" height="1" /></g>
<g transform="translate(158 110) rotate(58) scale(1 19)"><rect fill="#a39d7a" fill-opacity="0.5019607843137255" x="-0.5" y="-0.5" width="1" height="1" /></g>
<g transform="translate(161 99) rotate(243) scale(9 17)"><rect fill="#453215" fill-opacity="0.5019607843137255" x="-0.5" y="-0.5" width="1" height="1" /></g>
<g transform="translate(103 216) rotate(176) scale(22 27)"><rect fill="#161d21" fill-opacity="0.5019607843137255" x="-0.5" y="-0.5" width="1" height="1" /></g>
<g transform="translate(135 57) rotate(315) scale(7 4)"><rect fill="#392c1e" fill-opacity="0.5019607843137255" x="-0.5" y="-0.5" width="1" height="1" /></g>
<g transform="translate(130 55) rotate(208) scale(4 16)"><rect fill="#dab780" fill-opacity="0.5019607843137255" x="-0.5" y="-0.5" width="1" height="1" /></g>
<g transform="translate(65 84) rotate(173) scale(10 7)"><rect fill="#4f3f2a" fill-opacity="0.5019607843137255" x="-0.5" y="-0.5" width="1" height="1" /></g>
<g transform="translate(156 136) rotate(275) scale(28 7)"><rect fill="#f2dfaf" fill-opacity="0.5019607843137255" x="-0.5" y="-0.5" width="1" height="1" /></g>
<g transform="translate(9 61) rotate(205) scale(19 8)"><rect fill="#677737" fill-opacity="0.5019607843137255" x="-0.5" y="-0.5" width="1" height="1" /></g>
<g transform="translate(111 18) rotate(50) scale(28 8)"><rect fill="#c2d4b9" fill-opacity="0.5019607843137255" x="-0.5" y="-0.5" width="1" height="1" /></g>
<g transform="translate(102 105) rotate(95) scale(21 12)"><rect fill="#34331e" fill-opacity="0.5019607843137255" x="-0.5" y="-0.5" width="1" height="1" /></g>
<g transform="translate(78 27) rotate(224) scale(1 45)"><rect fill="#e5d49d" fill-opacity="0.5019607843137255" x="-0.5" y="-0.5" width="1" height="1" /></g>
<g transform="translate(78 35) rotate(220) scale(5 53)"><rect fill="#9a8b6c" fill-opacity="0.5019607843137255" x="-0.5" y="-0.5" width="1" height="1" /></g>
<g transform="translate(143 184) rotate(297) scale(21 12)"><rect fill="#717263" fill-opacity="0.5019607843137255" x="-0.5" y="-0.5" width="1" height="1" /></g>
<g transform="translate(91 162) rotate(270) scale(38 1)"><rect fill="#6f6350" fill-opacity="0.5019607843137255" x="-0.5" y="-0.5" width="1" height="1" /></g>
<g transform="translate(100 19) rotate(136) scale(1 23)"><rect fill="#fcdc97" fill-opacity="0.5019607843137255" x="-0.5" y="-0.5" width="1" height="1" /></g>
<g transform="translate(57 141) rotate(106) scale(18 2)"><rect fill="#b48d59" fill-opacity="0.5019607843137255" x="-0.5" y="-0.5" width="1" height="1" /></g>
<g transform="translate(96 34) rotate(301) scale(17 1)"><rect fill="#c9bc8e" fill-opacity="0.5019607843137255" x="-0.5" y="-0.5" width="1" height="1" /></g>
<g transform="translate(131 32) rotate(223) scale(1 17)"><rect fill="#7d7c65" fill-opacity="0.5019607843137255" x="-0.5" y="-0.5" width="1" height="1" /></g>
<g transform="translate(161 44) rotate(196) scale(12 15)"><rect fill="#90784d" fill-opacity="0.5019607843137255" x="-0.5" y="-0.5" width="1" height="1" /></g>
<g transform="translate(101 57) rotate(269) scale(26 1)"><rect fill="#896b40" fill-opacity="0.5019607843137255" x="-0.5" y="-0.5" width="1" height="1" /></g>
<g transform="translate(143 67) rotate(356) scale(6 21)"><rect fill="#92734f" fill-opacity="0.5019607843137255" x="-0.5" y="-0.5" width="1" height="1" /></g>
<g transform="translate(109 31) rotate(224) scale(51 1)"><rect fill="#a38e60" fill-opacity="0.5019607843137255" x="-0.5" y="-0.5" width="1" height="1" /></g>
<g transform="translate(76 61) rotate(147) scale(8 29)"><rect fill="#ccb885" fill-opacity="0.5019607843137255" x="-0.5" y="-0.5" width="1" height="1" /></g>
<g transform="translate(153 71) rotate(185) scale(4 15)"><rect fill="#3e290e" fill-opacity="0.5019607843137255" x="-0.5" y="-0.5" width="1" height="1" /></g>
<g transform="translate(94 111) rotate(160) scale(39 4)"><rect fill="#5f5b47" fill-opacity="0.5019607843137255" x="-0.5" y="-0.5" width="1" height="1" /></g>
</g>
</svg>