<svg xmlns="http://www.w3.org/2000/svg" version="1.1" width="636" height="768">
<rect x="0" y="0" width="636" height="768" fill="#66614a" />
<g transform="scale(3) translate(0.5 0.5)">
<g transform="translate(120.482747 33.503848) rotate(272.104655) scale(43.349604 149.242565)"><ellipse fill="#f7fccd" fill-opacity="0.5019607843137255" cx="0" cy="0" rx="1" ry="1" /></g>
<g transform="translate(146.520019 223.804863) rotate(98.632589) scale(75.999287 191.118578)"><ellipse fill="#000000" fill-opacity="0.5019607843137255" cx="0" cy="0" rx="1" ry="1" /></g>
<g transform="translate(149.977915 147.903973) rotate(177.226459) scale(16.114672 66.541712)"><ellipse fill="#ecdaaa" fill-opacity="0.5019607843137255" cx="0" cy="0" rx="1" ry="1" /></g>
<g transform="translate(193.314699 147.873643) rotate(165.964466) scale(24.571029 46.166376)"><ellipse fill="#000000" fill-opacity="0.5019607843137255" cx="0" cy="0" rx="1" ry="1" /></g>
<g transform="translate(38.101851 102.116225) rotate(18.678795) scale(22.059532 40.982109)"><ellipse fill="#ecbf7d" fill-opacity="0.5019607843137255" cx="0" cy="0" rx="1" ry="1" /></g>
<g transform="translate(151.761652 72.164876) rotate(103.808004) scale(43.828476 24.059357)"><ellipse fill="#8b5826" fill-opacity="0.5019607843137255" cx="0" cy="0" rx="1" ry="1" /></g>
<g transform="translate(109.977352 136.825054) rotate(192.909812) scale(23.958061 31.762526)"><ellipse fill="#00000f" fill-opacity="0.5019607843137255" cx="0" cy="0" rx="1" ry="1" /></g>
<g transform="translate(93.249448 50.135769) rotate(88.983596) scale(21.048935 9.287398)"><ellipse fill="#352311" fill-opacity="0.5019607843137255" cx="0" cy="0" rx="1" ry="1" /></g>
<g transform="translate(198.186814 39.407296) rotate(205.260279) scale(13.727707 53.162463)"><ellipse fill="#def3d1" fill-opacity="0.5019607843137255" cx="0" cy="0" rx="1" ry="1" /></g>
<g transform="translate(200.681999 194.760414) rotate(277.459224) scale(82.394040 33.289710)"><ellipse fill="#000207" fill-opacity="0.5019607843137255" cx="0" cy="0" rx="1" ry="1" /></g>
<g transform="translate(150.611589 128.392591) rotate(188.979862) scale(18.051924 23.052667)"><ellipse fill="#f9eaad" fill-opacity="0.5019607843137255" cx="0" cy="0" rx="1" ry="1" /></g>
<g transform="translate(43.160575 133.693866) rotate(71.709023) scale(12.766122 9.360329)"><ellipse fill="#ffeca7" fill-opacity="0.5019607843137255" cx="0" cy="0" rx="1" ry="1" /></g>
<g transform="translate(49.628522 214.079075) rotate(221.543327) scale(56.732172 73.889968)"><ellipse fill="#1a1004" fill-opacity="0.5019607843137255" cx="0" cy="0" rx="1" ry="1" /></g>
<g transform="translate(149.978640 216.931007) rotate(174.632217) scale(14.715205 54.423267)"><ellipse fill="#59625f" fill-opacity="0.5019607843137255" cx="0" cy="0" rx="1" ry="1" /></g>
<g transform="translate(37.747945 57.554969) rotate(167.515028) scale(27.661396 7.641276)"><ellipse fill="#6b6019" fill-opacity="0.5019607843137255" cx="0" cy="0" rx="1" ry="1" /></g>
<g transform="translate(111.518987 245.418928) rotate(26.256809) scale(13.398912 19.924546)"><ellipse fill="#ae7742" fill-opacity="0.5019607843137255" cx="0" cy="0" rx="1" ry="1" /></g>
<g transform="translate(75.637206 16.808916) rotate(177.422432) scale(183.849708 12.147683)"><ellipse fill="#b6d4c5" fill-opacity="0.5019607843137255" cx="0" cy="0" rx="1" ry="1" /></g>
<g transform="translate(160.221505 74.316064) rotate(191.047806) scale(11.115622 37.929615)"><ellipse fill="#573f21" fill-opacity="0.5019607843137255" cx="0" cy="0" rx="1" ry="1" /></g>
<g transform="translate(28.874902 92.236413) rotate(169.157406) scale(7.990159 23.962980)"><ellipse fill="#575035" fill-opacity="0.5019607843137255" cx="0" cy="0" rx="1" ry="1" /></g>
<g transform="translate(141.660935 56.043117) rotate(275.378947) scale(37.726965 9.469193)"><ellipse fill="#dcad6e" fill-opacity="0.5019607843137255" cx="0" cy="0" rx="1" ry="1" /></g>
<g transform="translate(29.488317 34.694952) rotate(76.499920) scale(14.686957 53.028096)"><ellipse fill="#c6ddb3" fill-opacity="0.5019607843137255" cx="0" cy="0" rx="1" ry="1" /></g>
<g transform="translate(64.666209 59.312969) rotate(299.874366) scale(52.615661 10.558586)"><ellipse fill="#c19966" fill-opacity="0.5019607843137255" cx="0" cy="0" rx="1" ry="1" /></g>
<g transform="translate(77.431533 85.537262) rotate(158.521328) scale(3.611665 32.840846)"><ellipse fill="#4a3f1f" fill-opacity="0.5019607843137255" cx="0" cy="0" rx="1" ry="1" /></g>
<g transform="translate(5.207642 120.350415) rotate(179.709119) scale(7.788226 25.158448)"><ellipse fill="#1f281d" fill-opacity="0.5019607843137255" cx="0" cy="0" rx="1" ry="1" /></g>
<g transform="translate(114.009637 122.165373) rotate(315.837794) scale(27.806323 11.237500)"><ellipse fill="#09161a" fill-opacity="0.5019607843137255" cx="0" cy="0" rx="1" ry="1" /></g>
<g transform="translate(26.019088 161.928866) rotate(262.230631) scale(26.736389 18.896040)"><ellipse fill="#413013" fill-opacity="0.5019607843137255" cx="0" cy="0" rx="1" ry="1" /></g>
<g transform="translate(201.715870 41.106716) rotate(233.181006) scale(31.420889 29.403381)"><ellipse fill="#c9dcbb" fill-opacity="0.5019607843137255" cx="0" cy="0" rx="1" ry="1" /></g>
<g transform="translate(181.213969 116.891244) rotate(323.755560) scale(9.692889 21.355572)"><ellipse fill="#060e0a" fill-opacity="0.5019607843137255" cx="0" cy="0" rx="1" ry="1" /></g>
<g transform="translate(65.927685 137.951679) rotate(322.390609) scale(15.282584 6.691166)"><ellipse fill="#b49f75" fill-opacity="0.5019607843137255" cx="0" cy="0" rx="1" ry="1" /></g>
<g transform="translate(201.957958 88.290428) rotate(28.927812) scale(8.600135 23.698755)"><ellipse fill="#a97f5c" fill-opacity="0.5019607843137255" cx="0" cy="0" rx="1" ry="1" /></g>
<g transform="translate(99.116899 90.410631) rotate(90.522006) scale(1.000000 41.459255)"><ellipse fill="#cab985" fill-opacity="0.5019607843137255" cx="0" cy="0" rx="1" ry="1" /></g>
<g transform="translate(178.256186 76.467934) rotate(140.697130) scale(10.006288 8.963569)"><ellipse fill="#ece1a6" fill-opacity="0.5019607843137255" cx="0" cy="0" rx="1" ry="1" /></g>
<g transform="translate(110.984839 165.928924) rotate(83.716899) scale(65.090269 25.856007)"><ellipse fill="#202727" fill-opacity="0.5019607843137255" cx="0" cy="0" rx="1" ry="1" /></g>
<g transform="translate(139.135031 57.240508) rotate(366.817767) scale(5.792926 4.339655)"><ellipse fill="#30271e" fill-opacity="0.5019607843137255" cx="0" cy="0" rx="1" ry="1" /></g>
<g transform="translate(133.497242 39.223193) rotate(98.442983) scale(14.280892 32.353037)"><ellipse fill="#dfbe7f" fill-opacity="0.5019607843137255" cx="0" cy="0" rx="1" ry="1" /></g>
<g transform="translate(195.804368 159.610750) rotate(258.619876) scale(35.786925 31.425251)"><ellipse fill="#181d1d" fill-opacity="0.5019607843137255" cx="0" cy="0" rx="1" ry="1" /></g>
<g transform="translate(42.616198 93.919871) rotate(353.737304) scale(7.605968 38.425395)"><ellipse fill="#d6a96f" fill-opacity="0.5019607843137255" cx="0" cy="0" rx="1" ry="1" /></g>
<g transform="translate(166.724702 62.413425) rotate(205.268251) scale(10.872831 12.495173)"><ellipse fill="#59472c" fill-opacity="0.5019607843137255" cx="0" cy="0" rx="1" ry="1" /></g>
<g transform="translate(145.630587 255.000000) rotate(121.349440) scale(14.808381 20.942881)"><ellipse fill="#0c0d0e" fill-opacity="0.5019607843137255" cx="0" cy="0" rx="1" ry="1" /></g>
<g transform="translate(75.088692 0.000000) rotate(176.977530) scale(79.570241 6.181479)"><ellipse fill="#73959c" fill-opacity="0.5019607843137255" cx="0" cy="0" rx="1" ry="1" /></g>
<g transform="translate(109.347053 68.912415) rotate(354.656190) scale(37.962752 7.103253)"><ellipse fill="#bb945d" fill-opacity="0.5019607843137255" cx="0" cy="0" rx="1" ry="1" /></g>
<g transform="translate(115.746587 193.802344) rotate(88.550578) scale(86.346848 1.245908)"><ellipse fill="#776349" fill-opacity="0.5019607843137255" cx="0" cy="0" rx="1" ry="1" /></g>
<g transform="translate(143.601117 94.488561) rotate(2.657609) scale(8.992880 20.956160)"><ellipse fill="#c49666" fill-opacity="0.5019607843137255" cx="0" cy="0" rx="1" ry="1" /></g>
<g transform="translate(74.504643 37.891183) rotate(44.265431) scale(3.735727 32.929041)"><ellipse fill="#897859" fill-opacity="0.5019607843137255" cx="0" cy="0" rx="1" ry="1" /></g>
<g transform="translate(35.410974 134.395404) rotate(133.304060) scale(4.627625 18.961821)"><ellipse fill="#e6d7a4" fill-opacity="0.5019607843137255" cx="0" cy="0" rx="1" ry="1" /></g>
<g transform="translate(63.440050 107.725586) rotate(195.872892) scale(7.046102 28.306034)"><ellipse fill="#6b4022" fill-opacity="0.5019607843137255" cx="0" cy="0" rx="1" ry="1" /></g>
<g transform="translate(151.180803 211.849217) rotate(201.105244) scale(12.301280 23.708554)"><ellipse fill="#61645b" fill-opacity="0.5019607843137255" cx="0" cy="0" rx="1" ry="1" /></g>
<g transform="translate(75.473306 144.946904) rotate(167.388459) scale(4.643515 6.293648)"><ellipse fill="#000000" fill-opacity="0.5019607843137255" cx="0" cy="0" rx="1" ry="1" /></g>
<g transform="translate(43.041225 198.036249) rotate(196.523416) scale(20.033372 59.751244)"><ellipse fill="#3a270c" fill-opacity="0.5019607843137255" cx="0" cy="0" rx="1" ry="1" /></g>
<g transform="translate(9.766272 72.691151) rotate(294.601671) scale(15.643891 30.218204)"><ellipse fill="#726a3c" fill-opacity="0.5019607843137255" cx="0" cy="0" rx="1" ry="1" /></g>
<g transform="translate(49.470264 131.099988) rotate(65.558587) scale(22.606461 5.341246)"><ellipse fill="#c4905b" fill-opacity="0.5019607843137255" cx="0" cy="0" rx="1" ry="1" /></g>
<g transform="translate(159.118164 133.471313) rotate(198.698833) scale(6.847160 21.701387)"><ellipse fill="#e8daa5" fill-opacity="0.5019607843137255" cx="0" cy="0" rx="1" ry="1" /></g>
<g transform="translate(114.029933 89.680365) rotate(269.552071) scale(1.000000 38.587087)"><ellipse fill="#cabc8a" fill-opacity="0.5019607843137255" cx="0" cy="0" rx="1" ry="1" /></g>
<g transform="translate(93.645213 112.522429) rotate(294.301133) scale(20.333506 14.723815)"><ellipse fill="#393825" fill-opacity="0.5019607843137255" cx="0" cy="0" rx="1" ry="1" /></g>
<g transform="translate(200.172702 102.628984) rotate(27.928969) scale(34.283868 8.783127)"><ellipse fill="#7e5728" fill-opacity="0.5019607843137255" cx="0" cy="0" rx="1" ry="1" /></g>
<g transform="translate(160.733161 60.129274) rotate(189.872462) scale(9.742422 31.867766)"><ellipse fill="#735b37" fill-opacity="0.5019607843137255" cx="0" cy="0" rx="1" ry="1" /></g>
<g transform="translate(137.195591 171.378671) rotate(180.243460) scale(1.000000 62.052304)"><ellipse fill="#70705b" fill-opacity="0.5019607843137255" cx="0" cy="0" rx="1" ry="1" /></g>
<g transform="translate(131.269579 18.460741) rotate(233.257447) scale(9.658833 23.224326)"><ellipse fill="#bdd7c6" fill-opacity="0.5019607843137255" cx="0" cy="0" rx="1" ry="1" /></g>
<g transform="translate(9.764034 227.744782) rotate(177.393518) scale(6.284775 51.327337)"><ellipse fill="#00070b" fill-opacity="0.5019607843137255" cx="0" cy="0" rx="1" ry="1" /></g>
<g transform="translate(66.267995 140.160379) rotate(230.648748) scale(5.074337 4.848377)"><ellipse fill="#cfcfa7" fill-opacity="0.5019607843137255" cx="0" cy="0" rx="1" ry="1" /></g>
<g transform="translate(92.507179 48.537630) rotate(274.237322) scale(21.536655 8.101176)"><ellipse fill="#5c5643" fill-opacity="0.5019607843137255" cx="0" cy="0" rx="1" ry="1" /></g>
<g transform="translate(26.625621 150.739544) rotate(311.313925) scale(1.000000 19.410248)"><ellipse fill="#928060" fill-opacity="0.5019607843137255" cx="0" cy="0" rx="1" ry="1" /></g>
<g transform="translate(113.284502 55.573622) rotate(68.011292) scale(15.749726 11.629280)"><ellipse fill="#dab375" fill-opacity="0.5019607843137255" cx="0" cy="0" rx="1" ry="1" /></g>
<g transform="translate(32.959516 146.268569) rotate(38.398287) scale(10.318480 7.189901)"><ellipse fill="#152529" fill-opacity="0.5019607843137255" cx="0" cy="0" rx="1" ry="1" /></g>
<g transform="translate(196.888899 78.993930) rotate(131.795174) scale(7.692499 9.605829)"><ellipse fill="#846d51" fill-opacity="0.5019607843137255" cx="0" cy="0" rx="1" ry="1" /></g>
<g transform="translate(109.783199 99.840533) rotate(272.336908) scale(10.064050 1.385871)"><ellipse fill="#c2af80" fill-opacity="0.5019607843137255" cx="0" cy="0" rx="1" ry="1" /></g>
<g transform="translate(93.070996 52.569145) rotate(271.374557) scale(16.211286 1.000000)"><ellipse fill="#beb083" fill-opacity="0.5019607843137255" cx="0" cy="0" rx="1" ry="1" /></g>
<g transform="translate(23.342408 124.646157) rotate(185.189946) scale(10.662462 16.199042)"><ellipse fill="#b0a778" fill-opacity="0.5019607843137255" cx="0" cy="0" rx="1" ry="1" /></g>
<g transform="translate(79.243768 53.382598) rotate(95.966329) scale(17.624111 5.774489)"><ellipse fill="#dec78c" fill-opacity="0.5019607843137255" cx="0" cy="0" rx="1" ry="1" /></g>
<g transform="translate(46.522789 53.519902) rotate(194.336636) scale(16.943666 2.957178)"><ellipse fill="#5d572f" fill-opacity="0.5019607843137255" cx="0" cy="0" rx="1" ry="1" /></g>
<g transform="translate(77.960995 135.852554) rotate(31.825090) scale(7.776271 3.265821)"><ellipse fill="#c3b687" fill-opacity="0.5019607843137255" cx="0" cy="0" rx="1" ry="1" /></g>
<g transform="translate(165.698033 101.644841) rotate(183.377257) scale(21.636121 4.580789)"><ellipse fill="#463a0e" fill-opacity="0.5019607843137255" cx="0" cy="0" rx="1" ry="1" /></g>
<g transform="translate(83.912295 219.282965) rotate(266.219232) scale(39.717057 15.356413)"><ellipse fill="#0e161b" fill-opacity="0.5019607843137255" cx="0" cy="0" rx="1" ry="1" /></g>
<g transform="translate(207.781958 57.873375) rotate(17.922041) scale(5.473514 14.049517)"><ellipse fill="#e0edd7" fill-opacity="0.5019607843137255" cx="0" cy="0" rx="1" ry="1" /></g>
<g transform="translate(48.696368 69.167546) rotate(379.379469) scale(17.682088 8.179273)"><ellipse fill="#d1b06e" fill-opacity="0.5019607843137255" cx="0" cy="0" rx="1" ry="1" /></g>
<g transform="translate(52.882159 82.486523) rotate(1.481475) scale(2.752078 3.563792)"><ellipse fill="#2c2424" fill-opacity="0.5019607843137255" cx="0" cy="0" rx="1" ry="1" /></g>
<g transform="translate(211.000000 0.965788) rotate(179.033954) scale(79.677380 3.665549)"><ellipse fill="#80a1a7" fill-opacity="0.5019607843137255" cx="0" cy="0" rx="1" ry="1" /></g>
<g transform="translate(193.072448 231.654277) rotate(-13.317199) scale(24.597967 61.455361)"><ellipse fill="#0c0f0c" fill-opacity="0.5019607843137255" cx="0" cy="0" rx="1" ry="1" /></g>
<g transform="translate(124.576219 234.193879) rotate(-16.054180) scale(24.987170 2.735943)"><ellipse fill="#8c6c4c" fill-opacity="0.5019607843137255" cx="0" cy="0" rx="1" ry="1" /></g>
<g transform="translate(42.327876 0.000000) rotate(89.955014) scale(1.000000 71.717447)"><ellipse fill="#585f4f" fill-opacity="0.5019607843137255" cx="0" cy="0" rx="1" ry="1" /></g>
<g transform="translate(44.077905 139.016695) rotate(7.382449) scale(9.003039 5.617370)"><ellipse fill="#f4dca6" fill-opacity="0.5019607843137255" cx="0" cy="0" rx="1" ry="1" /></g>
<g transform="translate(129.080615 203.690311) rotate(83.941010) scale(29.151238 5.460193)"><ellipse fill="#0f1413" fill-opacity="0.5019607843137255" cx="0" cy="0" rx="1" ry="1" /></g>
<g transform="translate(72.562143 83.171964) rotate(354.631045) scale(2.806152 22.186831)"><ellipse fill="#453b1c" fill-opacity="0.5019607843137255" cx="0" cy="0" rx="1" ry="1" /></g>
<g transform="translate(181.406600 132.070125) rotate(103.159326) scale(25.491497 14.259402)"><ellipse fill="#161b1d" fill-opacity="0.5019607843137255" cx="0" cy="0" rx="1" ry="1" /></g>
<g transform="translate(47.697297 91.850620) rotate(-9.857602) scale(13.863893 7.198988)"><ellipse fill="#dbb586" fill-opacity="0.5019607843137255" cx="0" cy="0" rx="1" ry="1" /></g>
<g transform="translate(149.355049 125.079988) rotate(49.992821) scale(23.177028 7.605724)"><ellipse fill="#e2d5a0" fill-opacity="0.5019607843137255" cx="0" cy="0" rx="1" ry="1" /></g>
<g transform="translate(99.515976 22.574383) rotate(57.905706) scale(11.661877 6.618772)"><ellipse fill="#cdab72" fill-opacity="0.5019607843137255" cx="0" cy="0" rx="1" ry="1" /></g>
<g transform="translate(28.126302 107.532551) rotate(56.502477) scale(24.161278 4.422742)"><ellipse fill="#857e62" fill-opacity="0.5019607843137255" cx="0" cy="0" rx="1" ry="1" /></g>
<g transform="translate(124.127579 63.220049) rotate(94.858254) scale(19.396094 3.926745)"><ellipse fill="#9d7a52" fill-opacity="0.5019607843137255" cx="0" cy="0" rx="1" ry="1" /></g>
<g transform="translate(118.401194 81.644729) rotate(279.271271) scale(5.655902 14.864629)"><ellipse fill="#564a28" fill-opacity="0.5019607843137255" cx="0" cy="0" rx="1" ry="1" /></g>
<g transform="translate(153.381663 40.378216) rotate(198.215859) scale(8.106498 17.175616)"><ellipse fill="#c29758" fill-opacity="0.5019607843137255" cx="0" cy="0" rx="1" ry="1" /></g>
<g transform="translate(55.064689 37.746023) rotate(128.862707) scale(14.030963 6.022281)"><ellipse fill="#c6dcbb" fill-opacity="0.5019607843137255" cx="0" cy="0" rx="1" ry="1" /></g>
<g transform="translate(15.384799 143.557537) rotate(317.581905) scale(11.988782 5.572666)"><ellipse fill="#6e5d3c" fill-opacity="0.5019607843137255" cx="0" cy="0" rx="1" ry="1" /></g>
<g transform="translate(171.398104 92.347223) rotate(100.127832) scale(6.237015 3.965372)"><ellipse fill="#939b64" fill-opacity="0.5019607843137255" cx="0" cy="0" rx="1" ry="1" /></g>
<g transform="translate(29.359634 84.740631) rotate(269.247970) scale(12.829074 2.567192)"><ellipse fill="#42361a" fill-opacity="0.5019607843137255" cx="0" cy="0" rx="1" ry="1" /></g>
<g transform="translate(93.253379 105.732914) rotate(188.789393) scale(1.882034 20.648639)"><ellipse fill="#77735f" fill-opacity="0.5019607843137255" cx="0" cy="0" rx="1" ry="1" /></g>
<g transform="translate(127.662745 122.384868) rotate(196.084626) scale(3.797292 26.745230)"><ellipse fill="#151e21" fill-opacity="0.5019607843137255" cx="0" cy="0" rx="1" ry="1" /></g>
<g transform="translate(148.726035 174.509374) rotate(104.558823) scale(25.374646 12.585913)"><ellipse fill="#80816b" fill-opacity="0.5019607843137255" cx="0" cy="0" rx="1" ry="1" /></g>
<g transform="translate(189.580910 18.667988) rotate(169.743452) scale(27.744738 15.563520)"><ellipse fill="#b9cdb4" fill-opacity="0.5019607843137255" cx="0" cy="0" rx="1" ry="1" /></g>
<g transform="translate(0.000000 142.529388) rotate(182.792852) scale(2.728614 35.274712)"><ellipse fill="#72654d" fill-opacity="0.5019607843137255" cx="0" cy="0" rx="1" ry="1" /></g>
<g transform="translate(112.460663 240.649241) rotate(60.007410) scale(12.881983 7.248658)"><ellipse fill="#936d46" fill-opacity="0.5019607843137255" cx="0" cy="0" rx="1" ry="1" /></g>
<g transform="translate(68.152569 92.374531) rotate(149.965925) scale(5.751444 14.049758)"><ellipse fill="#6f583b" fill-opacity="0.5019607843137255" cx="0" cy="0" rx="1" ry="1" /></g>
<g transform="translate(89.449621 35.119089) rotate(31.363297) scale(2.492691 9.213922)"><ellipse fill="#31302d" fill-opacity="0.5019607843137255" cx="0" cy="0" rx="1" ry="1" /></g>
<g transform="translate(90.348607 134.237499) rotate(268.398942) scale(46.373259 1.000000)"><ellipse fill="#585541" fill-opacity="0.5019607843137255" cx="0" cy="0" rx="1" ry="1" /></g>
<g transform="translate(122.486297 99.195401) rotate(65.309158) scale(4.857326 16.194185)"><ellipse fill="#797762" fill-opacity="0.5019607843137255" cx="0" cy="0" rx="1" ry="1" /></g>
<g transform="translate(50.317453 162.226626) rotate(184.254383) scale(13.705064 1.000000)"><ellipse fill="#7c7258" fill-opacity="0.5019607843137255" cx="0" cy="0" rx="1" ry="1" /></g>
<g transform="translate(26.656342 48.651789) rotate(61.054918) scale(3.278062 17.232577)"><ellipse fill="#cedbaf" fill-opacity="0.5019607843137255" cx="0" cy="0" rx="1" ry="1" /></g>
<g transform="translate(5.470607 104.856894) rotate(334.636693) scale(11.970506 7.855216)"><ellipse fill="#324435" fill-opacity="0.5019607843137255" cx="0" cy="0" rx="1" ry="1" /></g>
<g transform="translate(48.368985 75.717534) rotate(123.969884) scale(18.077837 4.877883)"><ellipse fill="#dabc8b" fill-opacity="0.5019607843137255" cx="0" cy="0" rx="1" ry="1" /></g>
<g transform="translate(11.739348 89.893977) rotate(269.901269) scale(1.000000 17.466390)"><ellipse fill="#beb085" fill-opacity="0.5019607843137255" cx="0" cy="0" rx="1" ry="1" /></g>
<g transform="translate(158.036725 55.969875) rotate(262.433762) scale(2.442227 5.499738)"><ellipse fill="#1d1812" fill-opacity="0.5019607843137255" cx="0" cy="0" rx="1" ry="1" /></g>
<g transform="translate(184.478812 44.292426) rotate(230.003830) scale(8.416334 13.187836)"><ellipse fill="#bec797" fill-opacity="0.5019607843137255" cx="0" cy="0" rx="1" ry="1" /></g>
<g transform="translate(68.092889 152.886265) rotate(163.762117) scale(22.956774 5.702815)"><ellipse fill="#0c1419" fill-opacity="0.5019607843137255" cx="0" cy="0" rx="1" ry="1" /></g>
<g transform="translate(210.794446 107.191956) rotate(199.040831) scale(13.921393 6.732563)"><ellipse fill="#5b2a26" fill-opacity="0.5019607843137255" cx="0" cy="0" rx="1" ry="1" /></g>
<g transform="translate(62.997815 120.884338) rotate(182.566402) scale(3.292770 15.551207)"><ellipse fill="#50351e" fill-opacity="0.5019607843137255" cx="0" cy="0" rx="1" ry="1" /></g>
<g transform="translate(189.803947 168.335238) rotate(139.337918) scale(28.222625 21.675451)"><ellipse fill="#171a17" fill-opacity="0.5019607843137255" cx="0" cy="0" rx="1" ry="1" /></g>
<g transform="translate(194.110303 98.393429) rotate(86.684344) scale(12.264322 5.377776)"><ellipse fill="#9a6a5a" fill-opacity="0.5019607843137255" cx="0" cy="0" rx="1" ry="1" /></g>
<g transform="translate(180.894311 77.745100) rotate(35.488861) scale(8.411148 7.496518)"><ellipse fill="#dfd9a6" fill-opacity="0.5019607843137255" cx="0" cy="0" rx="1" ry="1" /></g>
<g transform="translate(125.110507 169.093466) rotate(284.763499) scale(21.158381 8.520241)"><ellipse fill="#11181b" fill-opacity="0.5019607843137255" cx="0" cy="0" rx="1" ry="1" /></g>
<g transform="translate(62.765398 64.369993) rotate(75.345139) scale(16.529493 4.715551)"><ellipse fill="#ae8651" fill-opacity="0.5019607843137255" cx="0" cy="0" rx="1" ry="1" /></g>
<g transform="translate(147.207725 156.617519) rotate(-43.043544) scale(5.421270 10.660627)"><ellipse fill="#a9aa8a" fill-opacity="0.5019607843137255" cx="0" cy="0" rx="1" ry="1" /></g>
<g transform="translate(173.735751 78.557940) rotate(367.658589) scale(3.956824 6.594973)"><ellipse fill="#dedcae" fill-opacity="0.5019607843137255" cx="0" cy="0" rx="1" ry="1" /></g>
<g transform="translate(117.166615 194.920724) rotate(84.458241) scale(1.000000 14.480962)"><ellipse fill="#6c614e" fill-opacity="0.5019607843137255" cx="0" cy="0" rx="1" ry="1" /></g>
<g transform="translate(84.647734 17.542848) rotate(314.047365) scale(48.132145 1.000000)"><ellipse fill="#8a9381" fill-opacity="0.5019607843137255" cx="0" cy="0" rx="1" ry="1" /></g>
<g transform="translate(35.702698 107.229823) rotate(168.272751) scale(2.000091 9.296438)"><ellipse fill="#4f4a30" fill-opacity="0.5019607843137255" cx="0" cy="0" rx="1" ry="1" /></g>
<g transform="translate(27.750485 58.607265) rotate(53.744991) scale(5.242880 17.567478)"><ellipse fill="#728143" fill-opacity="0.5019607843137255" cx="0" cy="0" rx="1" ry="1" /></g>
<g transform="translate(179.444825 98.059653) rotate(327.809659) scale(6.594102 9.289229)"><ellipse fill="#5d680a" fill-opacity="0.5019607843137255" cx="0" cy="0" rx="1" ry="1" /></g>
<g transform="translate(197.743092 118.471246) rotate(295.554197) scale(4.419281 32.580656)"><ellipse fill="#0f1313" fill-opacity="0.5019607843137255" cx="0" cy="0" rx="1" ry="1" /></g>
<g transform="translate(52.101721 8.899871) rotate(176.628789) scale(100.353694 5.009166)"><ellipse fill="#a4b8ab" fill-opacity="0.5019607843137255" cx="0" cy="0" rx="1" ry="1" /></g>
<g transform="translate(90.502309 67.469166) rotate(265.780519) scale(1.000000 13.578486)"><ellipse fill="#d8c08a" fill-opacity="0.5019607843137255" cx="0" cy="0" rx="1" ry="1" /></g>
<g transform="translate(116.649491 200.060379) rotate(352.932896) scale(1.000000 19.193394)"><ellipse fill="#7d6c59" fill-opacity="0.5019607843137255" cx="0" cy="0" rx="1" ry="1" /></g>
<g transform="translate(173.521023 62.705430) rotate(295.483780) scale(8.182884 2.474757)"><ellipse fill="#4b311c" fill-opacity="0.5019607843137255" cx="0" cy="0" rx="1" ry="1" /></g>
<g transform="translate(156.716204 167.371986) rotate(289.699565) scale(8.346870 1.679262)"><ellipse fill="#3b4b56" fill-opacity="0.5019607843137255" cx="0" cy="0" rx="1" ry="1" /></g>
<g transform="translate(136.856507 187.575957) rotate(231.628350) scale(1.000000 13.048938)"><ellipse fill="#666352" fill-opacity="0.5019607843137255" cx="0" cy="0" rx="1" ry="1" /></g>
<g transform="translate(160.974215 205.563825) rotate(181.921703) scale(4.055464 28.923989)"><ellipse fill="#5d645c" fill-opacity="0.5019607843137255" cx="0" cy="0" rx="1" ry="1" /></g>
<g transform="translate(34.130330 86.606585) rotate(301.160975) scale(27.883008 1.302011)"><ellipse fill="#8f7d55" fill-opacity="0.5019607843137255" cx="0" cy="0" rx="1" ry="1" /></g>
<g transform="translate(112.994170 131.157584) rotate(303.642182) scale(18.653200 21.313465)"><ellipse fill="#181e1f" fill-opacity="0.5019607843137255" cx="0" cy="0" rx="1" ry="1" /></g>
<g transform="translate(163.097804 31.679290) rotate(41.666298) scale(6.979207 3.302870)"><ellipse fill="#6a5c3d" fill-opacity="0.5019607843137255" cx="0" cy="0" rx="1" ry="1" /></g>
<g transform="translate(145.283881 255.000000) rotate(359.468471) scale(102.979264 1.000000)"><ellipse fill="#16120b" fill-opacity="0.5019607843137255" cx="0" cy="0" rx="1" ry="1" /></g>
<g transform="translate(139.967955 181.894264) rotate(262.596786) scale(29.140986 3.707237)"><ellipse fill="#616359" fill-opacity="0.5019607843137255" cx="0" cy="0" rx="1" ry="1" /></g>
<g transform="translate(142.236956 63.153784) rotate(119.645146) scale(3.507394 4.146409)"><ellipse fill="#66503f" fill-opacity="0.5019607843137255" cx="0" cy="0" rx="1" ry="1" /></g>
<g transform="translate(80.188021 147.188031) rotate(53.710475) scale(12.551674 2.443292)"><ellipse fill="#0d110d" fill-opacity="0.5019607843137255" cx="0" cy="0" rx="1" ry="1" /></g>
<g transform="translate(147.115076 88.009646) rotate(59.542888) scale(3.477429 15.884114)"><ellipse fill="#a0744d" fill-opacity="0.5019607843137255" cx="0" cy="0" rx="1" ry="1" /></g>
<g transform="translate(152.989973 70.832383) rotate(352.944606) scale(2.626090 9.706008)"><ellipse fill="#452d13" fill-opacity="0.5019607843137255" cx="0" cy="0" rx="1" ry="1" /></g>
<g transform="translate(85.114251 101.857421) rotate(215.887380) scale(5.609315 8.125431)"><ellipse fill="#36351e" fill-opacity="0.5019607843137255" cx="0" cy="0" rx="1" ry="1" /></g>
<g transform="translate(203.929712 86.209060) rotate(52.316134) scale(14.925755 13.515571)"><ellipse fill="#87795b" fill-opacity="0.5019607843137255" cx="0" cy="0" rx="1" ry="1" /></g>
<g transform="translate(48.596789 130.925079) rotate(122.756418) scale(4.601512 15.002711)"><ellipse fill="#b68653" fill-opacity="0.5019607843137255" cx="0" cy="0" rx="1" ry="1" /></g>
<g transform="translate(114.983491 49.164219) rotate(180.396284) scale(52.302715 1.000000)"><ellipse fill="#cab17d" fill-opacity="0.5019607843137255" cx="0" cy="0" rx="1" ry="1" /></g>
<g transform="translate(157.196881 106.802481) rotate(182.706062) scale(5.146172 2.930360)"><ellipse fill="#694820" fill-opacity="0.5019607843137255" cx="0" cy="0" rx="1" ry="1" /></g>
<g transform="translate(151.606988 243.288335) rotate(195.870394) scale(15.660957 5.956105)"><ellipse fill="#393c3a" fill-opacity="0.5019607843137255" cx="0" cy="0" rx="1" ry="1" /></g>
<g transform="translate(18.791945 123.181130) rotate(108.330047) scale(14.282981 4.339045)"><ellipse fill="#b7a678" fill-opacity="0.5019607843137255" cx="0" cy="0" rx="1" ry="1" /></g>
<g transform="translate(195.438336 78.036451) rotate(46.722994) scale(8.844425 4.272256)"><ellipse fill="#79664c" fill-opacity="0.5019607843137255" cx="0" cy="0" rx="1" ry="1" /></g>
<g transform="translate(74.209998 19.619481) rotate(315.917410) scale(21.350885 6.007601)"><ellipse fill="#b7ccbc" fill-opacity="0.5019607843137255" cx="0" cy="0" rx="1" ry="1" /></g>
<g transform="translate(109.677376 40.486029) rotate(319.546458) scale(3.713415 21.823587)"><ellipse fill="#ddc993" fill-opacity="0.5019607843137255" cx="0" cy="0" rx="1" ry="1" /></g>
<g transform="translate(181.514977 125.450740) rotate(334.032354) scale(5.546648 30.367105)"><ellipse fill="#161817" fill-opacity="0.5019607843137255" cx="0" cy="0" rx="1" ry="1" /></g>
<g transform="translate(8.816648 63.573170) rotate(280.311160) scale(6.307858 26.747068)"><ellipse fill="#7e814b" fill-opacity="0.5019607843137255" cx="0" cy="0" rx="1" ry="1" /></g>
<g transform="translate(151.781536 136.286059) rotate(133.406424) scale(18.333671 7.198529)"><ellipse fill="#e3d39d" fill-opacity="0.5019607843137255" cx="0" cy="0" rx="1" ry="1" /></g>
<g transform="translate(211.000000 73.093191) rotate(117.794717) scale(24.497667 3.965088)"><ellipse fill="#857f5a" fill-opacity="0.5019607843137255" cx="0" cy="0" rx="1" ry="1" /></g>
<g transform="translate(67.230038 148.375889) rotate(36.717796) scale(11.462769 1.267212)"><ellipse fill="#10100d" fill-opacity="0.5019607843137255" cx="0" cy="0" rx="1" ry="1" /></g>
<g transform="translate(65.898766 91.521945) rotate(164.462971) scale(2.202727 7.322320)"><ellipse fill="#a9815b" fill-opacity="0.5019607843137255" cx="0" cy="0" rx="1" ry="1" /></g>
<g transform="translate(110.617308 80.079620) rotate(175.222647) scale(21.345037 4.224746)"><ellipse fill="#625533" fill-opacity="0.5019607843137255" cx="0" cy="0" rx="1" ry="1" /></g>
<g transform="translate(47.692130 107.079488) rotate(302.127820) scale(4.241747 12.937831)"><ellipse fill="#d3a473" fill-opacity="0.5019607843137255" cx="0" cy="0" rx="1" ry="1" /></g>
<g transform="translate(58.191014 139.801838) rotate(88.251470) scale(1.000000 13.796030)"><ellipse fill="#d9cea0" fill-opacity="0.5019607843137255" cx="0" cy="0" rx="1" ry="1" /></g>
<g transform="translate(113.938648 19.547375) rotate(143.403228) scale(6.243338 21.518001)"><ellipse fill="#c0d2b7" fill-opacity="0.5019607843137255" cx="0" cy="0" rx="1" ry="1" /></g>
<g transform="translate(133.314699 37.105206) rotate(28.291948) scale(3.515649 8.986540)"><ellipse fill="#f6d08f" fill-opacity="0.5019607843137255" cx="0" cy="0" rx="1" ry="1" /></g>
<g transform="translate(130.112090 32.325028) rotate(312.779017) scale(7.658372 1.000000)"><ellipse fill="#88856c" fill-opacity="0.5019607843137255" cx="0" cy="0" rx="1" ry="1" /></g>
<g transform="translate(7.980899 118.403486) rotate(276.651312) scale(14.169455 4.221881)"><ellipse fill="#2c2d21" fill-opacity="0.5019607843137255" cx="0" cy="0" rx="1" ry="1" /></g>
<g transform="translate(148.718803 141.946407) rotate(277.666483) scale(32.754098 1.834820)"><ellipse fill="#aeae87" fill-opacity="0.5019607843137255" cx="0" cy="0" rx="1" ry="1" /></g>
<g transform="translate(39.430525 204.943605) rotate(63.624489) scale(42.728413 21.315413)"><ellipse fill="#332309" fill-opacity="0.5019607843137255" cx="0" cy="0" rx="1" ry="1" /></g>
<g transform="translate(78.791311 81.546050) rotate(178.945769) scale(2.623231 12.422938)"><ellipse fill="#9c9270" fill-opacity="0.5019607843137255" cx="0" cy="0" rx="1" ry="1" /></g>
<g transform="translate(82.258036 135.207000) rotate(313.958421) scale(4.487698 3.404243)"><ellipse fill="#a69c75" fill-opacity="0.5019607843137255" cx="0" cy="0" rx="1" ry="1" /></g>
<g transform="translate(155.338861 183.652912) rotate(298.217854) scale(8.190536 1.546772)"><ellipse fill="#bfa872" fill-opacity="0.5019607843137255" cx="0" cy="0" rx="1" ry="1" /></g>
<g transform="translate(47.378871 152.342720) rotate(207.546935) scale(3.037932 10.044413)"><ellipse fill="#17262a" fill-opacity="0.5019607843137255" cx="0" cy="0" rx="1" ry="1" /></g>
<g transform="translate(33.175331 23.252957) rotate(176.618880) scale(37.605510 12.086836)"><ellipse fill="#b2c5a4" fill-opacity="0.5019607843137255" cx="0" cy="0" rx="1" ry="1" /></g>
<g transform="translate(48.916571 99.037391) rotate(17.566691) scale(12.550988 2.730485)"><ellipse fill="#d7ad7d" fill-opacity="0.5019607843137255" cx="0" cy="0" rx="1" ry="1" /></g>
<g transform="translate(157.086605 16.970884) rotate(11.009284) scale(28.708354 7.845627)"><ellipse fill="#bdceb3" fill-opacity="0.5019607843137255" cx="0" cy="0" rx="1" ry="1" /></g>
<g transform="translate(5.485313 148.695311) rotate(331.232692) scale(16.844975 4.434588)"><ellipse fill="#806b4c" fill-opacity="0.5019607843137255" cx="0" cy="0" rx="1" ry="1" /></g>
<g transform="translate(160.280366 63.609783) rotate(241.920029) scale(8.280699 5.407706)"><ellipse fill="#836b48" fill-opacity="0.5019607843137255" cx="0" cy="0" rx="1" ry="1" /></g>
<g transform="translate(133.243659 253.789682) rotate(360.005292) scale(5.356570 16.527311)"><ellipse fill="#060907" fill-opacity="0.5019607843137255" cx="0" cy="0" rx="1" ry="1" /></g>
<g transform="translate(139.718122 80.748934) rotate(105.538257) scale(4.986479 7.536622)"><ellipse fill="#d7a96c" fill-opacity="0.5019607843137255" cx="0" cy="0" rx="1" ry="1" /></g>
<g transform="translate(87.340185 53.547948) rotate(186.432920) scale(1.000000 17.621413)"><ellipse fill="#423c2f" fill-opacity="0.5019607843137255" cx="0" cy="0" rx="1" ry="1" /></g>
<g transform="translate(73.995956 117.131872) rotate(186.835981) scale(4.904069 17.299636)"><ellipse fill="#676d62" fill-opacity="0.5019607843137255" cx="0" cy="0" rx="1" ry="1" /></g>
<g transform="translate(164.680330 76.724605) rotate(251.733371) scale(6.527510 5.105927)"><ellipse fill="#63491a" fill-opacity="0.5019607843137255" cx="0" cy="0" rx="1" ry="1" /></g>
<g transform="translate(69.841053 53.736719) rotate(126.970351) scale(4.228059 5.587348)"><ellipse fill="#dcc98e" fill-opacity="0.5019607843137255" cx="0" cy="0" rx="1" ry="1" /></g>
<g transform="translate(116.568181 255.000000) rotate(228.827556) scale(5.913362 15.602154)"><ellipse fill="#5c4320" fill-opacity="0.5019607843137255" cx="0" cy="0" rx="1" ry="1" /></g>
<g transform="translate(62.034798 88.045554) rotate(80.613265) scale(8.250684 1.198519)"><ellipse fill="#5c4128" fill-opacity="0.5019607843137255" cx="0" cy="0" rx="1" ry="1" /></g>
<g transform="translate(138.369798 89.537007) rotate(191.265784) scale(1.000000 25.714249)"><ellipse fill="#b39164" fill-opacity="0.5019607843137255" cx="0" cy="0" rx="1" ry="1" /></g>
<g transform="translate(205.093304 126.532544) rotate(273.047249) scale(8.085655 36.927007)"><ellipse fill="#202423" fill-opacity="0.5019607843137255" cx="0" cy="0" rx="1" ry="1" /></g>
<g transform="translate(170.985678 48.104322) rotate(169.757273) scale(1.000000 18.479910)"><ellipse fill="#444030" fill-opacity="0.5019607843137255" cx="0" cy="0" rx="1" ry="1" /></g>
<g transform="translate(1.059987 158.672292) rotate(242.653263) scale(9.122251 1.000000)"><ellipse fill="#847351" fill-opacity="0.5019607843137255" cx="0" cy="0" rx="1" ry="1" /></g>
<g transform="translate(46.749793 255.000000) rotate(95.470723) scale(20.931502 33.830240)"><ellipse fill="#241511" fill-opacity="0.5019607843137255" cx="0" cy="0" rx="1" ry="1" /></g>
<g transform="translate(9.670621 44.908686) rotate(54.474774) scale(12.876874 9.306730)"><ellipse fill="#c9d3a6" fill-opacity="0.5019607843137255" cx="0" cy="0" rx="1" ry="1" /></g>
<g transform="translate(208.230020 0.000000) rotate(315.810123) scale(5.798481 54.681236)"><ellipse fill="#859c92" fill-opacity="0.5019607843137255" cx="0" cy="0" rx="1" ry="1" /></g>
<g transform="translate(173.048473 90.514639) rotate(278.962944) scale(1.000000 6.344205)"><ellipse fill="#bab17f" fill-opacity="0.5019607843137255" cx="0" cy="0" rx="1" ry="1" /></g>
<g transform="translate(71.030494 96.335195) rotate(17.218419) scale(1.000000 17.027063)"><ellipse fill="#3b2b0f" fill-opacity="0.5019607843137255" cx="0" cy="0" rx="1" ry="1" /></g>
<g transform="translate(164.876501 43.907438) rotate(167.372034) scale(3.628607 13.896773)"><ellipse fill="#8e7852" fill-opacity="0.5019607843137255" cx="0" cy="0" rx="1" ry="1" /></g>
<g transform="translate(36.532457 148.920752) rotate(230.883227) scale(11.995464 5.315977)"><ellipse fill="#18201e" fill-opacity="0.5019607843137255" cx="0" cy="0" rx="1" ry="1" /></g>
<g transform="translate(147.844407 215.601497) rotate(27.969279) scale(6.239971 26.021922)"><ellipse fill="#585c54" fill-opacity="0.5019607843137255" cx="0" cy="0" rx="1" ry="1" /></g>
<g transform="translate(1.129918 93.482607) rotate(268.390808) scale(2.469131 30.593057)"><ellipse fill="#5a5743" fill-opacity="0.5019607843137255" cx="0" cy="0" rx="1" ry="1" /></g>
<g transform="translate(51.686276 120.751963) rotate(51.236772) scale(7.088511 3.202110)"><ellipse fill="#92694b" fill-opacity="0.5019607843137255" cx="0" cy="0" rx="1" ry="1" /></g>
</g>
</svg>