<svg xmlns="http://www.w3.org/2000/svg" version="1.1" width="636" height="768">
<rect x="0" y="0" width="636" height="768" fill="#66614a" />
<g transform="scale(3) translate(0.5 0.5)">
<polygon fill="#f9fed2" fill-opacity="0.5019607843137255" points="208,-16 -16,18 227,101" />
<polygon fill="#000000" fill-opacity="0.5019607843137255" points="-16,254 227,255 98,94" />
<polygon fill="#000000" fill-opacity="0.5019607843137255" points="227,38 208,271 160,155" />
<polygon fill="#c7c194" fill-opacity="0.5019607843137255" points="25,143 -12,-10 179,7" />
<polygon fill="#e9d6a5" fill-opacity="0.5019607843137255" points="143,250 131,65 171,122" />
<polygon fill="#170c01" fill-opacity="0.5019607843137255" points="-16,112 151,210 5,271" />
<polygon fill="#79552b" fill-opacity="0.5019607843137255" points="177,107 39,110 170,27" />
<polygon fill="#e6c78d" fill-opacity="0.5019607843137255" points="5,128 58,148 92,130" />
<polygon fill="#342518" fill-opacity="0.5019607843137255" points="83,61 106,59 91,12" />
<polygon fill="#000007" fill-opacity="0.5019607843137255" points="171,271 227,128 167,97" />
<polygon fill="#b4d3c1" fill-opacity="0.5019607843137255" points="182,0 -16,3 -16,64" />
<polygon fill="#656054" fill-opacity="0.5019607843137255" points="91,254 168,143 162,240" />
<polygon fill="#121a20" fill-opacity="0.5019607843137255" points="56,158 133,93 136,236" />
<polygon fill="#fff5b5" fill-opacity="0.5019607843137255" points="138,109 170,115 143,164" />
<polygon fill="#cce7cd" fill-opacity="0.5019607843137255" points="216,1 151,7 227,107" />
<polygon fill="#a4804f" fill-opacity="0.5019607843137255" points="87,64 216,116 225,72" />
<polygon fill="#574c20" fill-opacity="0.5019607843137255" points="32,58 -16,54 37,116" />
<polygon fill="#462b0e" fill-opacity="0.5019607843137255" points="152,50 156,111 178,55" />
<polygon fill="#c29a66" fill-opacity="0.5019607843137255" points="55,122 90,1 -10,162" />
<polygon fill="#514531" fill-opacity="0.5019607843137255" points="105,121 69,59 50,137" />
<polygon fill="#d1a76b" fill-opacity="0.5019607843137255" points="161,22 147,80 75,69" />
<polygon fill="#edf7ca" fill-opacity="0.5019607843137255" points="169,78 185,84 203,28" />
<polygon fill="#181104" fill-opacity="0.5019607843137255" points="56,140 1,173 1,263" />
<polygon fill="#fffcbf" fill-opacity="0.5019607843137255" points="47,149 24,126 50,135" />
<polygon fill="#000306" fill-opacity="0.5019607843137255" points="225,268 168,271 227,137" />
<polygon fill="#a16834" fill-opacity="0.5019607843137255" points="137,233 105,227 93,271" />
<polygon fill="#273428" fill-opacity="0.5019607843137255" points="16,92 -16,102 8,148" />
<polygon fill="#7f8575" fill-opacity="0.5019607843137255" points="131,134 165,243 163,171" />
<polygon fill="#010506" fill-opacity="0.5019607843137255" points="123,237 150,234 132,271" />
<polygon fill="#523f29" fill-opacity="0.5019607843137255" points="207,72 190,71 180,113" />
<polygon fill="#e0b072" fill-opacity="0.5019607843137255" points="46,148 63,63 35,58" />
<polygon fill="#6b674d" fill-opacity="0.5019607843137255" points="39,81 130,73 140,104" />
<polygon fill="#d6e4af" fill-opacity="0.5019607843137255" points="63,45 -16,54 -16,20" />
<polygon fill="#7b7b60" fill-opacity="0.5019607843137255" points="63,131 84,142 97,101" />
<polygon fill="#3b280d" fill-opacity="0.5019607843137255" points="1,154 45,271 79,141" />
<polygon fill="#9b835c" fill-opacity="0.5019607843137255" points="47,56 93,7 105,21" />
<polygon fill="#7d6c55" fill-opacity="0.5019607843137255" points="116,220 113,174 121,197" />
<polygon fill="#f2d99a" fill-opacity="0.5019607843137255" points="79,76 67,49 85,53" />
<polygon fill="#5c5a1e" fill-opacity="0.5019607843137255" points="35,46 65,56 22,57" />
<polygon fill="#cdbc86" fill-opacity="0.5019607843137255" points="13,105 41,129 13,131" />
<polygon fill="#f1e1a8" fill-opacity="0.5019607843137255" points="163,147 169,118 132,148" />
<polygon fill="#0c161b" fill-opacity="0.5019607843137255" points="88,119 132,139 132,99" />
<polygon fill="#121b13" fill-opacity="0.5019607843137255" points="169,102 189,97 167,169" />
<polygon fill="#38342a" fill-opacity="0.5019607843137255" points="95,25 87,65 84,38" />
<polygon fill="#565e5a" fill-opacity="0.5019607843137255" points="134,140 166,238 138,233" />
<polygon fill="#949072" fill-opacity="0.5019607843137255" points="85,89 140,88 128,103" />
<polygon fill="#c2decc" fill-opacity="0.5019607843137255" points="120,33 165,12 98,12" />
<polygon fill="#3c291d" fill-opacity="0.5019607843137255" points="143,65 145,54 133,53" />
<polygon fill="#111014" fill-opacity="0.5019607843137255" points="98,271 91,181 47,265" />
<polygon fill="#d5a670" fill-opacity="0.5019607843137255" points="135,133 135,60 149,84" />
<polygon fill="#dac086" fill-opacity="0.5019607843137255" points="97,10 125,71 106,73" />
<polygon fill="#4b3f28" fill-opacity="0.5019607843137255" points="174,62 160,24 172,38" />
<polygon fill="#575340" fill-opacity="0.5019607843137255" points="102,29 84,65 101,63" />
<polygon fill="#3d4132" fill-opacity="0.5019607843137255" points="59,170 -16,132 34,137" />
<polygon fill="#6c6246" fill-opacity="0.5019607843137255" points="-16,54 39,125 32,70" />
<polygon fill="#301f00" fill-opacity="0.5019607843137255" points="72,98 69,60 76,78" />
<polygon fill="#1c1e1c" fill-opacity="0.5019607843137255" points="91,271 59,140 109,186" />
<polygon fill="#92afb0" fill-opacity="0.5019607843137255" points="140,-16 227,7 58,10" />
<polygon fill="#cfdab6" fill-opacity="0.5019607843137255" points="227,42 191,8 171,87" />
<polygon fill="#615123" fill-opacity="0.5019607843137255" points="154,107 192,100 149,64" />
<polygon fill="#d5ca99" fill-opacity="0.5019607843137255" points="165,142 134,146 133,115" />
<polygon fill="#363c2e" fill-opacity="0.5019607843137255" points="109,91 90,147 78,95" />
<polygon fill="#94745a" fill-opacity="0.5019607843137255" points="193,110 186,91 227,52" />
<polygon fill="#c9b887" fill-opacity="0.5019607843137255" points="83,143 73,133 85,132" />
<polygon fill="#ddb574" fill-opacity="0.5019607843137255" points="147,21 157,51 107,54" />
<polygon fill="#c3c9a8" fill-opacity="0.5019607843137255" points="67,145 61,139 73,128" />
<polygon fill="#101512" fill-opacity="0.5019607843137255" points="166,138 168,271 227,236" />
<polygon fill="#534a2b" fill-opacity="0.5019607843137255" points="131,77 107,87 73,75" />
<polygon fill="#87856d" fill-opacity="0.5019607843137255" points="164,191 164,146 132,190" />
<polygon fill="#000406" fill-opacity="0.5019607843137255" points="74,138 87,147 60,158" />
<polygon fill="#050d12" fill-opacity="0.5019607843137255" points="14,271 16,186 -16,148" />
<polygon fill="#1b1b17" fill-opacity="0.5019607843137255" points="118,232 138,225 118,154" />
<polygon fill="#737868" fill-opacity="0.5019607843137255" points="78,82 64,131 80,135" />
<polygon fill="#e3be8a" fill-opacity="0.5019607843137255" points="44,101 33,95 52,60" />
<polygon fill="#786d56" fill-opacity="0.5019607843137255" points="-5,142 5,169 2,116" />
<polygon fill="#735436" fill-opacity="0.5019607843137255" points="149,58 154,104 169,44" />
<polygon fill="#0e171c" fill-opacity="0.5019607843137255" points="40,159 79,156 22,142" />
<polygon fill="#bfcfa8" fill-opacity="0.5019607843137255" points="13,58 106,7 -3,31" />
<polygon fill="#6e8d92" fill-opacity="0.5019607843137255" points="-16,5 42,-16 107,1" />
<polygon fill="#b47e4f" fill-opacity="0.5019607843137255" points="54,109 43,127 59,149" />
<polygon fill="#bdca9a" fill-opacity="0.5019607843137255" points="179,60 199,41 166,17" />
<polygon fill="#e5d59f" fill-opacity="0.5019607843137255" points="141,117 167,130 168,111" />
<polygon fill="#272e22" fill-opacity="0.5019607843137255" points="12,100 2,100 12,136" />
<polygon fill="#cab580" fill-opacity="0.5019607843137255" points="101,76 129,48 101,14" />
<polygon fill="#7f6b49" fill-opacity="0.5019607843137255" points="15,146 11,131 40,161" />
<polygon fill="#5f3a1f" fill-opacity="0.5019607843137255" points="63,137 53,119 71,95" />
<polygon fill="#191f20" fill-opacity="0.5019607843137255" points="167,97 175,164 213,131" />
<polygon fill="#adaa84" fill-opacity="0.5019607843137255" points="75,88 107,88 87,94" />
<polygon fill="#1d2222" fill-opacity="0.5019607843137255" points="94,137 135,96 130,151" />
<polygon fill="#4f4c35" fill-opacity="0.5019607843137255" points="82,130 74,90 111,91" />
<polygon fill="#a3a37d" fill-opacity="0.5019607843137255" points="175,91 170,97 169,75" />
<polygon fill="#b6cab4" fill-opacity="0.5019607843137255" points="227,4 96,5 189,34" />
<polygon fill="#f6e2ae" fill-opacity="0.5019607843137255" points="52,139 45,146 25,130" />
<polygon fill="#c09050" fill-opacity="0.5019607843137255" points="150,22 141,66 162,28" />
<polygon fill="#67532e" fill-opacity="0.5019607843137255" points="36,88 -16,88 42,72" />
<polygon fill="#8a663d" fill-opacity="0.5019607843137255" points="124,253 95,249 108,226" />
<polygon fill="#baa978" fill-opacity="0.5019607843137255" points="110,61 133,75 73,74" />
<polygon fill="#383f43" fill-opacity="0.5019607843137255" points="164,216 171,248 138,249" />
<polygon fill="#d2bd88" fill-opacity="0.5019607843137255" points="68,50 84,32 86,75" />
<polygon fill="#d2c091" fill-opacity="0.5019607843137255" points="110,103 108,96 110,89" />
<polygon fill="#4e3621" fill-opacity="0.5019607843137255" points="175,68 177,53 169,55" />
<polygon fill="#a99a70" fill-opacity="0.5019607843137255" points="12,137 33,129 23,87" />
<polygon fill="#ede8b3" fill-opacity="0.5019607843137255" points="171,82 184,85 170,72" />
<polygon fill="#5b6607" fill-opacity="0.5019607843137255" points="186,83 172,94 186,106" />
<polygon fill="#212524" fill-opacity="0.5019607843137255" points="81,163 115,230 113,157" />
<polygon fill="#5a5849" fill-opacity="0.5019607843137255" points="107,90 134,90 121,105" />
<polygon fill="#020602" fill-opacity="0.5019607843137255" points="163,50 151,56 163,54" />
<polygon fill="#e9d198" fill-opacity="0.5019607843137255" points="103,38 121,43 92,21" />
<polygon fill="#f3d09c" fill-opacity="0.5019607843137255" points="51,91 59,81 58,94" />
<polygon fill="#2c2021" fill-opacity="0.5019607843137255" points="50,81 55,80 53,86" />
<polygon fill="#a79b73" fill-opacity="0.5019607843137255" points="89,48 94,63 93,35" />
<polygon fill="#a27047" fill-opacity="0.5019607843137255" points="135,88 159,78 150,110" />
<polygon fill="#dde4c9" fill-opacity="0.5019607843137255" points="187,70 206,70 227,19" />
<polygon fill="#54241e" fill-opacity="0.5019607843137255" points="199,99 224,140 212,99" />
<polygon fill="#836b41" fill-opacity="0.5019607843137255" points="61,49 70,79 70,60" />
<polygon fill="#787464" fill-opacity="0.5019607843137255" points="92,93 96,109 89,124" />
<polygon fill="#877b5a" fill-opacity="0.5019607843137255" points="227,39 191,98 227,99" />
<polygon fill="#bad2c2" fill-opacity="0.5019607843137255" points="75,3 47,48 90,9" />
<polygon fill="#101818" fill-opacity="0.5019607843137255" points="22,145 39,144 30,136" />
<polygon fill="#23292a" fill-opacity="0.5019607843137255" points="167,129 188,135 165,196" />
<polygon fill="#807f6a" fill-opacity="0.5019607843137255" points="135,187 152,147 135,154" />
<polygon fill="#37270b" fill-opacity="0.5019607843137255" points="11,172 24,247 84,154" />
<polygon fill="#59522f" fill-opacity="0.5019607843137255" points="60,60 35,48 53,49" />
<polygon fill="#c39b61" fill-opacity="0.5019607843137255" points="57,83 68,74 57,41" />
<polygon fill="#7b8646" fill-opacity="0.5019607843137255" points="-2,76 34,58 0,54" />
<polygon fill="#7f7152" fill-opacity="0.5019607843137255" points="83,69 106,69 99,64" />
<polygon fill="#816841" fill-opacity="0.5019607843137255" points="158,25 166,66 169,33" />
<polygon fill="#fff4b3" fill-opacity="0.5019607843137255" points="116,88 129,88 123,90" />
<polygon fill="#5a4928" fill-opacity="0.5019607843137255" points="30,70 27,93 39,112" />
<polygon fill="#465459" fill-opacity="0.5019607843137255" points="147,177 161,154 157,170" />
<polygon fill="#c49c68" fill-opacity="0.5019607843137255" points="41,101 37,74 31,94" />
<polygon fill="#877a62" fill-opacity="0.5019607843137255" points="80,38 95,13 54,52" />
<polygon fill="#7a938e" fill-opacity="0.5019607843137255" points="108,0 215,1 166,-15" />
<polygon fill="#c4745e" fill-opacity="0.5019607843137255" points="193,98 190,107 198,111" />
<polygon fill="#695d4a" fill-opacity="0.5019607843137255" points="131,192 107,195 117,199" />
<polygon fill="#4b4e42" fill-opacity="0.5019607843137255" points="44,-1 -8,-16 -16,0" />
<polygon fill="#151d21" fill-opacity="0.5019607843137255" points="113,227 77,231 114,193" />
<polygon fill="#907a5d" fill-opacity="0.5019607843137255" points="128,53 119,68 125,42" />
<polygon fill="#4a4e48" fill-opacity="0.5019607843137255" points="136,236 135,192 163,246" />
<polygon fill="#403c2e" fill-opacity="0.5019607843137255" points="93,28 99,32 96,47" />
<polygon fill="#9eb3a7" fill-opacity="0.5019607843137255" points="87,0 12,2 37,21" />
<polygon fill="#5a391b" fill-opacity="0.5019607843137255" points="143,99 166,92 160,107" />
<polygon fill="#543a22" fill-opacity="0.5019607843137255" points="80,77 59,81 63,89" />
<polygon fill="#d4d4a5" fill-opacity="0.5019607843137255" points="12,57 -10,35 24,52" />
<polygon fill="#6f624a" fill-opacity="0.5019607843137255" points="52,164 61,161 42,160" />
<polygon fill="#191814" fill-opacity="0.5019607843137255" points="88,174 89,129 73,173" />
<polygon fill="#837c61" fill-opacity="0.5019607843137255" points="21,86 0,89 36,106" />
<polygon fill="#423f36" fill-opacity="0.5019607843137255" points="108,145 114,123 116,167" />
<polygon fill="#0a0b0a" fill-opacity="0.5019607843137255" points="175,271 128,236 128,263" />
<polygon fill="#24280d" fill-opacity="0.5019607843137255" points="107,96 108,105 95,97" />
<polygon fill="#131a1d" fill-opacity="0.5019607843137255" points="112,107 93,115 112,167" />
<polygon fill="#111612" fill-opacity="0.5019607843137255" points="135,228 134,193 120,196" />
<polygon fill="#e7c58a" fill-opacity="0.5019607843137255" points="146,24 130,59 128,33" />
<polygon fill="#c3c59c" fill-opacity="0.5019607843137255" points="54,50 87,19 61,31" />
<polygon fill="#74502c" fill-opacity="0.5019607843137255" points="115,204 128,250 115,255" />
<polygon fill="#3c2d16" fill-opacity="0.5019607843137255" points="-5,170 48,170 18,145" />
<polygon fill="#e2cf9b" fill-opacity="0.5019607843137255" points="143,133 162,109 140,112" />
<polygon fill="#4d371b" fill-opacity="0.5019607843137255" points="150,76 158,83 152,56" />
<polygon fill="#4f483b" fill-opacity="0.5019607843137255" points="108,196 90,180 95,191" />
<polygon fill="#4a4436" fill-opacity="0.5019607843137255" points="92,59 86,41 91,28" />
<polygon fill="#414f3d" fill-opacity="0.5019607843137255" points="15,108 -16,90 15,90" />
<polygon fill="#91754c" fill-opacity="0.5019607843137255" points="158,78 153,59 166,63" />
<polygon fill="#d4a267" fill-opacity="0.5019607843137255" points="39,128 53,139 40,88" />
<polygon fill="#231713" fill-opacity="0.5019607843137255" points="101,236 11,234 71,271" />
<polygon fill="#bea052" fill-opacity="0.5019607843137255" points="54,61 31,73 36,55" />
<polygon fill="#ccd5b2" fill-opacity="0.5019607843137255" points="207,56 172,42 181,61" />
<polygon fill="#4b4128" fill-opacity="0.5019607843137255" points="129,75 135,87 119,84" />
<polygon fill="#544637" fill-opacity="0.5019607843137255" points="148,62 132,59 134,53" />
<polygon fill="#4f3317" fill-opacity="0.5019607843137255" points="56,96 64,95 70,102" />
<polygon fill="#cabf8a" fill-opacity="0.5019607843137255" points="112,86 98,90 118,90" />
<polygon fill="#12110e" fill-opacity="0.5019607843137255" points="170,121 206,114 169,102" />
<polygon fill="#979178" fill-opacity="0.5019607843137255" points="115,186 113,197 117,194" />
<polygon fill="#7a774c" fill-opacity="0.5019607843137255" points="136,138 139,134 137,124" />
<polygon fill="#dac893" fill-opacity="0.5019607843137255" points="138,122 138,150 161,149" />
<polygon fill="#c3d4b2" fill-opacity="0.5019607843137255" points="21,46 52,47 88,12" />
<polygon fill="#a97f54" fill-opacity="0.5019607843137255" points="142,101 150,84 153,116" />
<polygon fill="#524229" fill-opacity="0.5019607843137255" points="164,88 173,86 166,79" />
<polygon fill="#685c3b" fill-opacity="0.5019607843137255" points="91,77 76,86 118,88" />
<polygon fill="#645847" fill-opacity="0.5019607843137255" points="115,176 112,163 116,161" />
<polygon fill="#9f9874" fill-opacity="0.5019607843137255" points="155,183 164,184 163,156" />
<polygon fill="#c0ad7b" fill-opacity="0.5019607843137255" points="42,126 12,127 14,107" />
<polygon fill="#9d7351" fill-opacity="0.5019607843137255" points="127,233 102,240 106,229" />
<polygon fill="#866445" fill-opacity="0.5019607843137255" points="47,115 60,145 57,116" />
<polygon fill="#6c6d5c" fill-opacity="0.5019607843137255" points="137,144 155,217 136,190" />
<polygon fill="#d2a97b" fill-opacity="0.5019607843137255" points="62,103 41,88 37,101" />
<polygon fill="#111310" fill-opacity="0.5019607843137255" points="227,247 163,271 186,132" />
<polygon fill="#96967a" fill-opacity="0.5019607843137255" points="165,152 142,167 139,151" />
<polygon fill="#bd8860" fill-opacity="0.5019607843137255" points="68,88 67,97 63,84" />
<polygon fill="#36392b" fill-opacity="0.5019607843137255" points="13,134 3,107 4,147" />
<polygon fill="#7b6e53" fill-opacity="0.5019607843137255" points="132,30 127,36 129,29" />
<polygon fill="#162120" fill-opacity="0.5019607843137255" points="49,158 52,142 42,151" />
<polygon fill="#171512" fill-opacity="0.5019607843137255" points="60,141 76,154 60,160" />
<polygon fill="#767668" fill-opacity="0.5019607843137255" points="113,96 125,101 108,108" />
<polygon fill="#ba8249" fill-opacity="0.5019607843137255" points="54,141 52,146 57,150" />
<polygon fill="#c1b891" fill-opacity="0.5019607843137255" points="57,137 67,145 67,134" />
<polygon fill="#0c0e0b" fill-opacity="0.5019607843137255" points="80,141 72,136 74,154" />
<polygon fill="#e4cb94" fill-opacity="0.5019607843137255" points="44,72 54,61 54,75" />
<polygon fill="#cfbc87" fill-opacity="0.5019607843137255" points="61,54 72,46 90,48" />
<polygon fill="#573f1c" fill-opacity="0.5019607843137255" points="124,254 91,270 97,247" />
<polygon fill="#726342" fill-opacity="0.5019607843137255" points="-5,150 23,132 21,145" />
</g>
</svg>