<svg xmlns="http://www.w3.org/2000/svg" version="1.1" width="636" height="768">
<rect x="0" y="0" width="636" height="768" fill="#66614a" />
<g transform="scale(3) translate(0.5 0.5)">
<ellipse fill="#e0ddaf" fill-opacity="0.5019607843137255" cx="109" cy="0" rx="112" ry="112" />
<ellipse fill="#0d0907" fill-opacity="0.5019607843137255" cx="139" cy="242" rx="152" ry="152" />
<ellipse fill="#ffffe4" fill-opacity="0.5019607843137255" cx="150" cy="130" rx="22" ry="22" />
<ellipse fill="#dbb37b" fill-opacity="0.5019607843137255" cx="48" cy="116" rx="32" ry="32" />
<ellipse fill="#deffe3" fill-opacity="0.5019607843137255" cx="211" cy="31" rx="42" ry="42" />
<ellipse fill="#3f3928" fill-opacity="0.5019607843137255" cx="93" cy="102" rx="35" ry="35" />
<ellipse fill="#b9bca1" fill-opacity="0.5019607843137255" cx="150" cy="168" rx="18" ry="18" />
<ellipse fill="#8d5f2e" fill-opacity="0.5019607843137255" cx="149" cy="81" rx="31" ry="31" />
<ellipse fill="#bde0c3" fill-opacity="0.5019607843137255" cx="24" cy="9" rx="48" ry="48" />
<ellipse fill="#000000" fill-opacity="0.5019607843137255" cx="211" cy="208" rx="49" ry="49" />
<ellipse fill="#cce0c9" fill-opacity="0.5019607843137255" cx="135" cy="0" rx="40" ry="40" />
<ellipse fill="#00020b" fill-opacity="0.5019607843137255" cx="194" cy="139" rx="29" ry="29" />
<ellipse fill="#160b00" fill-opacity="0.5019607843137255" cx="39" cy="210" rx="66" ry="66" />
<ellipse fill="#ffe89d" fill-opacity="0.5019607843137255" cx="150" cy="123" rx="19" ry="19" />
<ellipse fill="#8e9284" fill-opacity="0.5019607843137255" cx="151" cy="198" rx="17" ry="17" />
<ellipse fill="#000d19" fill-opacity="0.5019607843137255" cx="112" cy="131" rx="22" ry="22" />
<ellipse fill="#ffeea9" fill-opacity="0.5019607843137255" cx="43" cy="133" rx="11" ry="11" />
<ellipse fill="#442d14" fill-opacity="0.5019607843137255" cx="163" cy="62" rx="14" ry="14" />
<ellipse fill="#96743d" fill-opacity="0.5019607843137255" cx="43" cy="78" rx="32" ry="32" />
<ellipse fill="#ba8049" fill-opacity="0.5019607843137255" cx="111" cy="242" rx="13" ry="13" />
<ellipse fill="#35291a" fill-opacity="0.5019607843137255" cx="93" cy="43" rx="10" ry="10" />
<ellipse fill="#ffffd8" fill-opacity="0.5019607843137255" cx="178" cy="77" rx="9" ry="9" />
<ellipse fill="#e0d29b" fill-opacity="0.5019607843137255" cx="150" cy="146" rx="16" ry="16" />
<ellipse fill="#131a1e" fill-opacity="0.5019607843137255" cx="101" cy="171" rx="35" ry="35" />
<ellipse fill="#deb676" fill-opacity="0.5019607843137255" cx="127" cy="48" rx="27" ry="27" />
<ellipse fill="#656e6d" fill-opacity="0.5019607843137255" cx="151" cy="222" rx="16" ry="16" />
<ellipse fill="#9d6c2e" fill-opacity="0.5019607843137255" cx="158" cy="39" rx="14" ry="14" />
<ellipse fill="#efc391" fill-opacity="0.5019607843137255" cx="47" cy="96" rx="13" ry="13" />
<ellipse fill="#3e3221" fill-opacity="0.5019607843137255" cx="92" cy="58" rx="9" ry="9" />
<ellipse fill="#a07250" fill-opacity="0.5019607843137255" cx="206" cy="92" rx="22" ry="22" />
<ellipse fill="#c9c194" fill-opacity="0.5019607843137255" cx="79" cy="134" rx="7" ry="7" />
<ellipse fill="#bedad2" fill-opacity="0.5019607843137255" cx="73" cy="15" rx="13" ry="13" />
<ellipse fill="#4c2d0a" fill-opacity="0.5019607843137255" cx="159" cy="82" rx="10" ry="10" />
<ellipse fill="#cedbaa" fill-opacity="0.5019607843137255" cx="11" cy="38" rx="20" ry="20" />
<ellipse fill="#eac27f" fill-opacity="0.5019607843137255" cx="49" cy="69" rx="12" ry="12" />
<ellipse fill="#ce9967" fill-opacity="0.5019607843137255" cx="143" cy="99" rx="10" ry="10" />
<ellipse fill="#d2c287" fill-opacity="0.5019607843137255" cx="22" cy="126" rx="11" ry="11" />
<ellipse fill="#dde3bd" fill-opacity="0.5019607843137255" cx="195" cy="54" rx="18" ry="18" />
<ellipse fill="#564f3c" fill-opacity="0.5019607843137255" cx="76" cy="111" rx="21" ry="21" />
<ellipse fill="#a19a7a" fill-opacity="0.5019607843137255" cx="116" cy="97" rx="9" ry="9" />
<ellipse fill="#050b0d" fill-opacity="0.5019607843137255" cx="199" cy="231" rx="35" ry="35" />
<ellipse fill="#0c1314" fill-opacity="0.5019607843137255" cx="191" cy="169" rx="27" ry="27" />
<ellipse fill="#46391e" fill-opacity="0.5019607843137255" cx="26" cy="158" rx="20" ry="20" />
<ellipse fill="#1d2117" fill-opacity="0.5019607843137255" cx="0" cy="120" rx="13" ry="13" />
<ellipse fill="#e8eec4" fill-opacity="0.5019607843137255" cx="66" cy="139" rx="5" ry="5" />
<ellipse fill="#131a19" fill-opacity="0.5019607843137255" cx="184" cy="123" rx="17" ry="17" />
<ellipse fill="#402f24" fill-opacity="0.5019607843137255" cx="138" cy="59" rx="6" ry="6" />
<ellipse fill="#64633d" fill-opacity="0.5019607843137255" cx="13" cy="77" rx="22" ry="22" />
<ellipse fill="#c6aa73" fill-opacity="0.5019607843137255" cx="99" cy="67" rx="10" ry="10" />
<ellipse fill="#1c2222" fill-opacity="0.5019607843137255" cx="116" cy="120" rx="18" ry="18" />
</g>
</svg>