<svg xmlns="http://www.w3.org/2000/svg" version="1.1" width="636" height="768">
<rect x="0" y="0" width="636" height="768" fill="#66614a" />
<g transform="scale(3) translate(0.5 0.5)">
<ellipse fill="#f7fdce" fill-opacity="0.5019607843137255" cx="152" cy="22" rx="185" ry="55" />
<ellipse fill="#000000" fill-opacity="0.5019607843137255" cx="131" cy="205" rx="211" ry="64" />
<ellipse fill="#ecdaa9" fill-opacity="0.5019607843137255" cx="150" cy="147" rx="17" ry="68" />
<ellipse fill="#e8bb7a" fill-opacity="0.5019607843137255" cx="38" cy="101" rx="23" ry="43" />
<ellipse fill="#000001" fill-opacity="0.5019607843137255" cx="190" cy="175" rx="27" ry="81" />
<ellipse fill="#764312" fill-opacity="0.5019607843137255" cx="158" cy="67" rx="18" ry="42" />
<ellipse fill="#00000b" fill-opacity="0.5019607843137255" cx="109" cy="128" rx="24" ry="27" />
<ellipse fill="#251407" fill-opacity="0.5019607843137255" cx="93" cy="48" rx="9" ry="21" />
<ellipse fill="#d6f2d6" fill-opacity="0.5019607843137255" cx="197" cy="36" rx="25" ry="35" />
<ellipse fill="#fff4b6" fill-opacity="0.5019607843137255" cx="149" cy="132" rx="17" ry="22" />
<ellipse fill="#ffffdc" fill-opacity="0.5019607843137255" cx="178" cy="79" rx="10" ry="8" />
<ellipse fill="#967a47" fill-opacity="0.5019607843137255" cx="62" cy="71" rx="112" ry="22" />
<ellipse fill="#626a67" fill-opacity="0.5019607843137255" cx="150" cy="202" rx="16" ry="50" />
<ellipse fill="#b77e47" fill-opacity="0.5019607843137255" cx="111" cy="252" rx="14" ry="25" />
<ellipse fill="#b4d0c0" fill-opacity="0.5019607843137255" cx="117" cy="15" rx="211" ry="13" />
<ellipse fill="#1a0d00" fill-opacity="0.5019607843137255" cx="44" cy="217" rx="61" ry="55" />
<ellipse fill="#9f754d" fill-opacity="0.5019607843137255" cx="206" cy="91" rx="26" ry="21" />
<ellipse fill="#e4bb83" fill-opacity="0.5019607843137255" cx="47" cy="86" rx="13" ry="28" />
<ellipse fill="#ffeab1" fill-opacity="0.5019607843137255" cx="52" cy="139" rx="19" ry="4" />
<ellipse fill="#e6c07e" fill-opacity="0.5019607843137255" cx="131" cy="38" rx="31" ry="18" />
<ellipse fill="#c7e3b8" fill-opacity="0.5019607843137255" cx="19" cy="34" rx="46" ry="16" />
<ellipse fill="#595939" fill-opacity="0.5019607843137255" cx="27" cy="83" rx="10" ry="29" />
<ellipse fill="#151e22" fill-opacity="0.5019607843137255" cx="110" cy="166" rx="26" ry="59" />
<ellipse fill="#4f381c" fill-opacity="0.5019607843137255" cx="159" cy="79" rx="10" ry="29" />
<ellipse fill="#c9925c" fill-opacity="0.5019607843137255" cx="141" cy="74" rx="9" ry="37" />
<ellipse fill="#3b2a0d" fill-opacity="0.5019607843137255" cx="28" cy="168" rx="20" ry="30" />
<ellipse fill="#d0bd87" fill-opacity="0.5019607843137255" cx="29" cy="124" rx="17" ry="14" />
<ellipse fill="#141e14" fill-opacity="0.5019607843137255" cx="7" cy="122" rx="5" ry="28" />
<ellipse fill="#070f0b" fill-opacity="0.5019607843137255" cx="175" cy="121" rx="8" ry="25" />
<ellipse fill="#608089" fill-opacity="0.5019607843137255" cx="0" cy="0" rx="121" ry="5" />
<ellipse fill="#585b24" fill-opacity="0.5019607843137255" cx="41" cy="54" rx="15" ry="7" />
<ellipse fill="#7d4f2f" fill-opacity="0.5019607843137255" cx="57" cy="123" rx="6" ry="27" />
<ellipse fill="#0e1318" fill-opacity="0.5019607843137255" cx="196" cy="137" rx="30" ry="26" />
<ellipse fill="#e9d39b" fill-opacity="0.5019607843137255" cx="79" cy="60" rx="6" ry="16" />
<ellipse fill="#0a0f0f" fill-opacity="0.5019607843137255" cx="191" cy="239" rx="25" ry="76" />
<ellipse fill="#524931" fill-opacity="0.5019607843137255" cx="90" cy="82" rx="42" ry="7" />
<ellipse fill="#4e4630" fill-opacity="0.5019607843137255" cx="83" cy="104" rx="27" ry="14" />
<ellipse fill="#80694d" fill-opacity="0.5019607843137255" cx="115" cy="195" rx="2" ry="57" />
<ellipse fill="#f6e4a8" fill-opacity="0.5019607843137255" cx="161" cy="122" rx="7" ry="12" />
<ellipse fill="#e1c58a" fill-opacity="0.5019607843137255" cx="111" cy="54" rx="10" ry="21" />
<ellipse fill="#fffbbd" fill-opacity="0.5019607843137255" cx="106" cy="90" rx="30" ry="1" />
<ellipse fill="#0e0a05" fill-opacity="0.5019607843137255" cx="75" cy="157" rx="10" ry="18" />
<ellipse fill="#2b251f" fill-opacity="0.5019607843137255" cx="137" cy="58" rx="5" ry="5" />
<ellipse fill="#fafbc4" fill-opacity="0.5019607843137255" cx="105" cy="89" rx="30" ry="1" />
<ellipse fill="#000d16" fill-opacity="0.5019607843137255" cx="126" cy="111" rx="8" ry="10" />
<ellipse fill="#fffabc" fill-opacity="0.5019607843137255" cx="44" cy="140" rx="5" ry="7" />
<ellipse fill="#d2ae71" fill-opacity="0.5019607843137255" cx="50" cy="71" rx="18" ry="11" />
<ellipse fill="#c0ba91" fill-opacity="0.5019607843137255" cx="75" cy="135" rx="11" ry="4" />
<ellipse fill="#d3dfb2" fill-opacity="0.5019607843137255" cx="14" cy="48" rx="16" ry="8" />
<ellipse fill="#f0efb5" fill-opacity="0.5019607843137255" cx="180" cy="76" rx="9" ry="9" />
<ellipse fill="#4f402c" fill-opacity="0.5019607843137255" cx="169" cy="59" rx="8" ry="12" />
<ellipse fill="#b18c5a" fill-opacity="0.5019607843137255" cx="91" cy="21" rx="13" ry="7" />
<ellipse fill="#3a3926" fill-opacity="0.5019607843137255" cx="137" cy="147" rx="1" ry="36" />
<ellipse fill="#493519" fill-opacity="0.5019607843137255" cx="71" cy="85" rx="4" ry="22" />
<ellipse fill="#101110" fill-opacity="0.5019607843137255" cx="138" cy="254" rx="17" ry="18" />
<ellipse fill="#54543e" fill-opacity="0.5019607843137255" cx="33" cy="109" rx="5" ry="12" />
<ellipse fill="#b7d3c5" fill-opacity="0.5019607843137255" cx="125" cy="17" rx="18" ry="17" />
<ellipse fill="#94896d" fill-opacity="0.5019607843137255" cx="116" cy="99" rx="9" ry="7" />
<ellipse fill="#584e35" fill-opacity="0.5019607843137255" cx="3" cy="79" rx="37" ry="10" />
<ellipse fill="#5b5e56" fill-opacity="0.5019607843137255" cx="151" cy="213" rx="14" ry="23" />
<ellipse fill="#7d7631" fill-opacity="0.5019607843137255" cx="181" cy="93" rx="16" ry="10" />
<ellipse fill="#b77a4a" fill-opacity="0.5019607843137255" cx="126" cy="234" rx="7" ry="4" />
<ellipse fill="#000f1c" fill-opacity="0.5019607843137255" cx="31" cy="145" rx="6" ry="8" />
<ellipse fill="#020b10" fill-opacity="0.5019607843137255" cx="8" cy="236" rx="8" ry="60" />
<ellipse fill="#91adac" fill-opacity="0.5019607843137255" cx="147" cy="3" rx="99" ry="4" />
<ellipse fill="#e0cc93" fill-opacity="0.5019607843137255" cx="139" cy="118" rx="6" ry="13" />
<ellipse fill="#b0a277" fill-opacity="0.5019607843137255" cx="22" cy="115" rx="10" ry="18" />
<ellipse fill="#5d271b" fill-opacity="0.5019607843137255" cx="208" cy="107" rx="11" ry="8" />
<ellipse fill="#fff9c1" fill-opacity="0.5019607843137255" cx="37" cy="134" rx="6" ry="5" />
<ellipse fill="#10171c" fill-opacity="0.5019607843137255" cx="82" cy="222" rx="15" ry="52" />
<ellipse fill="#3a270a" fill-opacity="0.5019607843137255" cx="42" cy="200" rx="26" ry="39" />
<ellipse fill="#1d2222" fill-opacity="0.5019607843137255" cx="108" cy="149" rx="25" ry="35" />
<ellipse fill="#b8c492" fill-opacity="0.5019607843137255" cx="180" cy="40" rx="9" ry="18" />
<ellipse fill="#b68555" fill-opacity="0.5019607843137255" cx="144" cy="91" rx="9" ry="19" />
<ellipse fill="#a4a382" fill-opacity="0.5019607843137255" cx="147" cy="159" rx="8" ry="11" />
<ellipse fill="#4a3c14" fill-opacity="0.5019607843137255" cx="164" cy="100" rx="22" ry="5" />
<ellipse fill="#89836d" fill-opacity="0.5019607843137255" cx="90" cy="143" rx="1" ry="31" />
<ellipse fill="#b17164" fill-opacity="0.5019607843137255" cx="193" cy="97" rx="4" ry="13" />
<ellipse fill="#c3ab78" fill-opacity="0.5019607843137255" cx="101" cy="70" rx="25" ry="6" />
<ellipse fill="#665435" fill-opacity="0.5019607843137255" cx="165" cy="55" rx="8" ry="26" />
<ellipse fill="#262c2b" fill-opacity="0.5019607843137255" cx="87" cy="57" rx="3" ry="9" />
<ellipse fill="#3f3b1e" fill-opacity="0.5019607843137255" cx="84" cy="113" rx="6" ry="19" />
<ellipse fill="#d9c088" fill-opacity="0.5019607843137255" cx="76" cy="52" rx="9" ry="12" />
<ellipse fill="#978a72" fill-opacity="0.5019607843137255" cx="114" cy="161" rx="1" ry="26" />
<ellipse fill="#b68a52" fill-opacity="0.5019607843137255" cx="56" cy="142" rx="4" ry="9" />
<ellipse fill="#4f3119" fill-opacity="0.5019607843137255" cx="60" cy="123" rx="6" ry="11" />
<ellipse fill="#0b1113" fill-opacity="0.5019607843137255" cx="129" cy="214" rx="7" ry="18" />
<ellipse fill="#d2ad7d" fill-opacity="0.5019607843137255" cx="57" cy="89" rx="3" ry="19" />
<ellipse fill="#caa871" fill-opacity="0.5019607843137255" cx="41" cy="80" rx="9" ry="26" />
<ellipse fill="#c6b178" fill-opacity="0.5019607843137255" cx="15" cy="125" rx="3" ry="17" />
<ellipse fill="#5a431f" fill-opacity="0.5019607843137255" cx="68" cy="65" rx="3" ry="7" />
<ellipse fill="#d5cb9b" fill-opacity="0.5019607843137255" cx="67" cy="143" rx="3" ry="3" />
<ellipse fill="#967a56" fill-opacity="0.5019607843137255" cx="66" cy="44" rx="7" ry="6" />
<ellipse fill="#747766" fill-opacity="0.5019607843137255" cx="73" cy="117" rx="5" ry="22" />
<ellipse fill="#585c49" fill-opacity="0.5019607843137255" cx="16" cy="0" rx="81" ry="1" />
<ellipse fill="#ddd2a3" fill-opacity="0.5019607843137255" cx="93" cy="55" rx="1" ry="18" />
<ellipse fill="#786d54" fill-opacity="0.5019607843137255" cx="200" cy="74" rx="13" ry="4" />
<ellipse fill="#ca9e5c" fill-opacity="0.5019607843137255" cx="152" cy="39" rx="10" ry="15" />
<ellipse fill="#d9e3c6" fill-opacity="0.5019607843137255" cx="203" cy="48" rx="8" ry="24" />
<ellipse fill="#a9ad8a" fill-opacity="0.5019607843137255" cx="170" cy="93" rx="3" ry="6" />
<ellipse fill="#e4cf98" fill-opacity="0.5019607843137255" cx="102" cy="48" rx="19" ry="1" />
<ellipse fill="#294032" fill-opacity="0.5019607843137255" cx="7" cy="103" rx="9" ry="8" />
<ellipse fill="#c9b684" fill-opacity="0.5019607843137255" cx="109" cy="100" rx="2" ry="9" />
<ellipse fill="#898a71" fill-opacity="0.5019607843137255" cx="162" cy="173" rx="3" ry="28" />
<ellipse fill="#96a89a" fill-opacity="0.5019607843137255" cx="17" cy="7" rx="49" ry="5" />
<ellipse fill="#7e775c" fill-opacity="0.5019607843137255" cx="113" cy="106" rx="1" ry="38" />
<ellipse fill="#c49b67" fill-opacity="0.5019607843137255" cx="138" cy="72" rx="9" ry="12" />
<ellipse fill="#1c2121" fill-opacity="0.5019607843137255" cx="174" cy="147" rx="7" ry="46" />
<ellipse fill="#3c4142" fill-opacity="0.5019607843137255" cx="153" cy="240" rx="16" ry="11" />
<ellipse fill="#0d1113" fill-opacity="0.5019607843137255" cx="55" cy="155" rx="18" ry="6" />
<ellipse fill="#dbce95" fill-opacity="0.5019607843137255" cx="164" cy="119" rx="5" ry="8" />
<ellipse fill="#dbdbb1" fill-opacity="0.5019607843137255" cx="182" cy="67" rx="6" ry="16" />
<ellipse fill="#bcccb5" fill-opacity="0.5019607843137255" cx="170" cy="14" rx="75" ry="10" />
<ellipse fill="#a6885e" fill-opacity="0.5019607843137255" cx="77" cy="34" rx="6" ry="9" />
<ellipse fill="#867056" fill-opacity="0.5019607843137255" cx="116" cy="205" rx="2" ry="17" />
<ellipse fill="#353021" fill-opacity="0.5019607843137255" cx="93" cy="69" rx="11" ry="1" />
<ellipse fill="#644e33" fill-opacity="0.5019607843137255" cx="0" cy="152" rx="31" ry="11" />
<ellipse fill="#e8d8a3" fill-opacity="0.5019607843137255" cx="152" cy="143" rx="14" ry="6" />
<ellipse fill="#706044" fill-opacity="0.5019607843137255" cx="52" cy="162" rx="13" ry="2" />
<ellipse fill="#575230" fill-opacity="0.5019607843137255" cx="21" cy="138" rx="12" ry="3" />
<ellipse fill="#b7cbb5" fill-opacity="0.5019607843137255" cx="65" cy="18" rx="17" ry="16" />
<ellipse fill="#1e2104" fill-opacity="0.5019607843137255" cx="102" cy="99" rx="6" ry="4" />
<ellipse fill="#808274" fill-opacity="0.5019607843137255" cx="93" cy="109" rx="2" ry="11" />
<ellipse fill="#000000" fill-opacity="0.5019607843137255" cx="158" cy="55" rx="5" ry="2" />
<ellipse fill="#111a1e" fill-opacity="0.5019607843137255" cx="131" cy="118" rx="2" ry="22" />
<ellipse fill="#3c2c27" fill-opacity="0.5019607843137255" cx="53" cy="81" rx="3" ry="4" />
<ellipse fill="#815836" fill-opacity="0.5019607843137255" cx="152" cy="106" rx="4" ry="9" />
<ellipse fill="#d19b64" fill-opacity="0.5019607843137255" cx="46" cy="116" rx="8" ry="20" />
<ellipse fill="#dabf87" fill-opacity="0.5019607843137255" cx="102" cy="26" rx="7" ry="8" />
<ellipse fill="#000000" fill-opacity="0.5019607843137255" cx="74" cy="142" rx="3" ry="6" />
<ellipse fill="#030917" fill-opacity="0.5019607843137255" cx="169" cy="105" rx="3" ry="8" />
<ellipse fill="#a49279" fill-opacity="0.5019607843137255" cx="113" cy="195" rx="9" ry="1" />
<ellipse fill="#403413" fill-opacity="0.5019607843137255" cx="29" cy="85" rx="2" ry="14" />
<ellipse fill="#36250e" fill-opacity="0.5019607843137255" cx="18" cy="161" rx="12" ry="13" />
<ellipse fill="#5c5e0e" fill-opacity="0.5019607843137255" cx="180" cy="97" rx="9" ry="9" />
<ellipse fill="#6d883c" fill-opacity="0.5019607843137255" cx="13" cy="61" rx="20" ry="5" />
<ellipse fill="#424237" fill-opacity="0.5019607843137255" cx="96" cy="50" rx="3" ry="16" />
<ellipse fill="#c69b65" fill-opacity="0.5019607843137255" cx="61" cy="73" rx="9" ry="8" />
<ellipse fill="#0b0e0c" fill-opacity="0.5019607843137255" cx="201" cy="250" rx="30" ry="21" />
<ellipse fill="#272422" fill-opacity="0.5019607843137255" cx="88" cy="39" rx="3" ry="7" />
<ellipse fill="#1a2223" fill-opacity="0.5019607843137255" cx="168" cy="187" rx="4" ry="51" />
<ellipse fill="#977a5a" fill-opacity="0.5019607843137255" cx="125" cy="54" rx="2" ry="17" />
<ellipse fill="#3c413a" fill-opacity="0.5019607843137255" cx="0" cy="169" rx="1" ry="103" />
<ellipse fill="#ddb575" fill-opacity="0.5019607843137255" cx="140" cy="35" rx="12" ry="11" />
<ellipse fill="#a57952" fill-opacity="0.5019607843137255" cx="108" cy="236" rx="5" ry="8" />
<ellipse fill="#c4bf9f" fill-opacity="0.5019607843137255" cx="135" cy="127" rx="2" ry="24" />
<ellipse fill="#162223" fill-opacity="0.5019607843137255" cx="40" cy="151" rx="5" ry="7" />
<ellipse fill="#c7af83" fill-opacity="0.5019607843137255" cx="25" cy="90" rx="30" ry="1" />
<ellipse fill="#493416" fill-opacity="0.5019607843137255" cx="108" cy="254" rx="14" ry="4" />
<ellipse fill="#553d22" fill-opacity="0.5019607843137255" cx="52" cy="55" rx="6" ry="3" />
<ellipse fill="#f3dba6" fill-opacity="0.5019607843137255" cx="44" cy="140" rx="8" ry="4" />
<ellipse fill="#51482d" fill-opacity="0.5019607843137255" cx="120" cy="78" rx="12" ry="3" />
<ellipse fill="#6c7c7a" fill-opacity="0.5019607843137255" cx="133" cy="128" rx="1" ry="19" />
<ellipse fill="#141a1c" fill-opacity="0.5019607843137255" cx="125" cy="163" rx="10" ry="30" />
<ellipse fill="#1e1e02" fill-opacity="0.5019607843137255" cx="73" cy="83" rx="2" ry="11" />
<ellipse fill="#645b4a" fill-opacity="0.5019607843137255" cx="91" cy="160" rx="1" ry="23" />
<ellipse fill="#3f2d10" fill-opacity="0.5019607843137255" cx="67" cy="168" rx="11" ry="10" />
<ellipse fill="#696b5f" fill-opacity="0.5019607843137255" cx="141" cy="230" rx="8" ry="5" />
<ellipse fill="#8e8665" fill-opacity="0.5019607843137255" cx="211" cy="84" rx="11" ry="16" />
<ellipse fill="#bacaa4" fill-opacity="0.5019607843137255" cx="14" cy="34" rx="17" ry="23" />
<ellipse fill="#8c7958" fill-opacity="0.5019607843137255" cx="0" cy="148" rx="12" ry="5" />
<ellipse fill="#e6e5b7" fill-opacity="0.5019607843137255" cx="62" cy="139" rx="4" ry="2" />
<ellipse fill="#9f8b67" fill-opacity="0.5019607843137255" cx="83" cy="27" rx="8" ry="6" />
<ellipse fill="#000000" fill-opacity="0.5019607843137255" cx="133" cy="252" rx="5" ry="13" />
<ellipse fill="#161512" fill-opacity="0.5019607843137255" cx="179" cy="111" rx="17" ry="3" />
<ellipse fill="#a49169" fill-opacity="0.5019607843137255" cx="92" cy="17" rx="6" ry="8" />
<ellipse fill="#ccb783" fill-opacity="0.5019607843137255" cx="80" cy="138" rx="4" ry="3" />
<ellipse fill="#66513c" fill-opacity="0.5019607843137255" cx="141" cy="61" rx="4" ry="6" />
<ellipse fill="#251a10" fill-opacity="0.5019607843137255" cx="60" cy="150" rx="3" ry="10" />
<ellipse fill="#4d371d" fill-opacity="0.5019607843137255" cx="152" cy="68" rx="3" ry="13" />
<ellipse fill="#5d6155" fill-opacity="0.5019607843137255" cx="138" cy="178" rx="4" ry="21" />
<ellipse fill="#ba9e6b" fill-opacity="0.5019607843137255" cx="137" cy="102" rx="2" ry="41" />
<ellipse fill="#614021" fill-opacity="0.5019607843137255" cx="62" cy="97" rx="7" ry="2" />
<ellipse fill="#151816" fill-opacity="0.5019607843137255" cx="209" cy="174" rx="31" ry="58" />
<ellipse fill="#987349" fill-opacity="0.5019607843137255" cx="158" cy="73" rx="3" ry="12" />
<ellipse fill="#798d81" fill-opacity="0.5019607843137255" cx="146" cy="0" rx="101" ry="1" />
<ellipse fill="#6a6d60" fill-opacity="0.5019607843137255" cx="160" cy="201" rx="3" ry="23" />
<ellipse fill="#ebe9b8" fill-opacity="0.5019607843137255" cx="172" cy="78" rx="3" ry="6" />
<ellipse fill="#cda871" fill-opacity="0.5019607843137255" cx="147" cy="48" rx="2" ry="29" />
<ellipse fill="#ae7b54" fill-opacity="0.5019607843137255" cx="67" cy="91" rx="4" ry="5" />
<ellipse fill="#6b6653" fill-opacity="0.5019607843137255" cx="121" cy="98" rx="10" ry="6" />
<ellipse fill="#bed0ad" fill-opacity="0.5019607843137255" cx="48" cy="34" rx="11" ry="15" />
<ellipse fill="#000107" fill-opacity="0.5019607843137255" cx="93" cy="29" rx="2" ry="3" />
<ellipse fill="#8a6647" fill-opacity="0.5019607843137255" cx="53" cy="126" rx="5" ry="11" />
<ellipse fill="#b8ad8c" fill-opacity="0.5019607843137255" cx="170" cy="90" rx="5" ry="2" />
<ellipse fill="#746d4e" fill-opacity="0.5019607843137255" cx="36" cy="115" rx="3" ry="10" />
<ellipse fill="#8f8767" fill-opacity="0.5019607843137255" cx="156" cy="183" rx="10" ry="9" />
<ellipse fill="#543f2a" fill-opacity="0.5019607843137255" cx="175" cy="58" rx="3" ry="5" />
<ellipse fill="#5a4e2e" fill-opacity="0.5019607843137255" cx="141" cy="91" rx="47" ry="1" />
<ellipse fill="#3c281e" fill-opacity="0.5019607843137255" cx="207" cy="102" rx="9" ry="3" />
<ellipse fill="#5c5b45" fill-opacity="0.5019607843137255" cx="137" cy="152" rx="1" ry="41" />
<ellipse fill="#595b4a" fill-opacity="0.5019607843137255" cx="7" cy="94" rx="22" ry="4" />
<ellipse fill="#5e401c" fill-opacity="0.5019607843137255" cx="125" cy="243" rx="4" ry="10" />
<ellipse fill="#6f7463" fill-opacity="0.5019607843137255" cx="92" cy="93" rx="21" ry="2" />
<ellipse fill="#dbc891" fill-opacity="0.5019607843137255" cx="71" cy="53" rx="7" ry="4" />
<ellipse fill="#161d1e" fill-opacity="0.5019607843137255" cx="101" cy="125" rx="10" ry="14" />
<ellipse fill="#b3ac86" fill-opacity="0.5019607843137255" cx="157" cy="112" rx="11" ry="3" />
<ellipse fill="#161a1c" fill-opacity="0.5019607843137255" cx="94" cy="214" rx="21" ry="18" />
<ellipse fill="#cdb884" fill-opacity="0.5019607843137255" cx="112" cy="48" rx="12" ry="14" />
<ellipse fill="#826d3e" fill-opacity="0.5019607843137255" cx="35" cy="78" rx="5" ry="7" />
</g>
</svg>