<svg xmlns="http://www.w3.org/2000/svg" version="1.1" width="636" height="768">
<rect x="0" y="0" width="636" height="768" fill="#66614a" />
<g transform="scale(3) translate(0.5 0.5)">
<polygon fill="#f5faca" fill-opacity="0.5019607843137255" points="-16.000000,1.471606 9.517714,70.522831 227.000000,80.526683 223.128569,-1.054943" />
<polygon fill="#000000" fill-opacity="0.5019607843137255" points="227.000000,253.348802 3.412849,271.000000 -16.000000,162.124252 120.467145,127.838963" />
<polygon fill="#000000" fill-opacity="0.5019607843137255" points="227.000000,258.909666 163.329391,255.476945 167.791290,106.178877 227.000000,112.139303" />
<polygon fill="#e1d0a2" fill-opacity="0.5019607843137255" points="165.817483,114.582390 164.118607,223.646529 137.395543,208.277968 131.514278,64.957975" />
<polygon fill="#f5c381" fill-opacity="0.5019607843137255" points="17.343686,107.967192 61.673063,45.809595 58.182699,150.600902 11.172389,130.909534" />
<polygon fill="#131110" fill-opacity="0.5019607843137255" points="178.566071,67.998869 84.927332,124.733434 76.348748,271.000000 165.898829,24.732471" />
<polygon fill="#967542" fill-opacity="0.5019607843137255" points="219.556351,78.504449 82.526244,37.014758 -16.000000,63.929455 153.998916,111.371654" />
<polygon fill="#dff5d8" fill-opacity="0.5019607843137255" points="180.446483,86.942722 167.310265,83.034510 205.114202,-5.913312 227.000000,44.948524" />
<polygon fill="#fff5b6" fill-opacity="0.5019607843137255" points="136.572218,108.943090 170.082571,116.716403 161.881527,150.578452 132.221476,147.485505" />
<polygon fill="#72695a" fill-opacity="0.5019607843137255" points="103.081171,271.000000 166.732194,179.726689 164.825475,243.932106 102.738345,229.548298" />
<polygon fill="#00070b" fill-opacity="0.5019607843137255" points="171.185618,96.904578 227.000000,131.513354 210.949201,271.000000 163.076217,181.094149" />
<polygon fill="#322e27" fill-opacity="0.5019607843137255" points="83.744019,61.700502 99.525416,67.159823 100.561269,34.183487 87.482830,24.503317" />
<polygon fill="#1e1000" fill-opacity="0.5019607843137255" points="30.480028,133.032144 -16.000000,249.801074 76.420058,269.751405 107.386750,228.310414" />
<polygon fill="#c0e0c5" fill-opacity="0.5019607843137255" points="100.153613,1.133348 2.845644,13.147625 -8.058098,56.460241 54.937142,46.822968" />
<polygon fill="#ccd5b8" fill-opacity="0.5019607843137255" points="99.212713,-0.791645 104.019349,74.315429 140.734341,34.862644 227.000000,9.019798" />
<polygon fill="#f0e3ae" fill-opacity="0.5019607843137255" points="14.003308,118.962753 68.826945,144.829836 80.222021,128.413756 41.681808,145.852144" />
<polygon fill="#161f22" fill-opacity="0.5019607843137255" points="145.894091,221.046638 73.786788,94.767762 131.925614,107.899710 135.403905,171.545126" />
<polygon fill="#5d5e31" fill-opacity="0.5019607843137255" points="4.996109,63.392923 40.604656,46.471193 33.295794,55.589306 36.861822,117.950036" />
<polygon fill="#ca9a5c" fill-opacity="0.5019607843137255" points="76.212973,76.200627 135.552924,74.753435 172.084714,37.604109 148.643380,20.692770" />
<polygon fill="#563e24" fill-opacity="0.5019607843137255" points="45.530559,162.301514 72.053276,101.420283 90.907499,134.841055 70.460600,59.140798" />
<polygon fill="#a76f39" fill-opacity="0.5019607843137255" points="130.154407,231.202902 122.293650,252.188304 95.197767,253.313772 105.599415,228.083266" />
<polygon fill="#dcb277" fill-opacity="0.5019607843137255" points="67.857595,63.252070 55.218928,104.473545 42.040171,137.870049 32.192821,62.054164" />
<polygon fill="#60401d" fill-opacity="0.5019607843137255" points="150.987050,55.282780 149.307354,112.706797 173.678645,101.401366 162.843639,47.042261" />
<polygon fill="#e7d49d" fill-opacity="0.5019607843137255" points="95.719761,22.332710 66.742945,50.321200 79.177430,78.726543 85.722530,36.085196" />
<polygon fill="#1b1e14" fill-opacity="0.5019607843137255" points="1.734119,100.417942 11.358775,271.000000 12.759728,123.083324 13.373947,93.967789" />
<polygon fill="#5b645d" fill-opacity="0.5019607843137255" points="168.951083,143.571539 134.422904,177.054773 136.179109,240.298379 163.890072,208.631396" />
<polygon fill="#a6c3b8" fill-opacity="0.5019607843137255" points="215.634021,-2.549283 -16.000000,4.739660 162.287395,24.416785 184.269872,53.120462" />
<polygon fill="#855f40" fill-opacity="0.5019607843137255" points="180.522750,104.382866 190.245135,70.739242 211.154795,71.195122 227.000000,124.059313" />
<polygon fill="#d69962" fill-opacity="0.5019607843137255" points="136.404437,73.256183 148.957605,68.329395 152.575795,93.018060 134.762530,107.972220" />
<polygon fill="#575628" fill-opacity="0.5019607843137255" points="73.735281,57.488219 30.712938,59.503312 40.085319,46.697610 66.369185,58.071315" />
<polygon fill="#c2b689" fill-opacity="0.5019607843137255" points="71.521005,134.884860 82.882214,143.147052 87.727057,130.917247 77.915536,132.244844" />
<polygon fill="#39280d" fill-opacity="0.5019607843137255" points="82.495821,172.341922 29.183153,137.416009 1.739217,156.714277 38.859275,256.684604" />
<polygon fill="#131719" fill-opacity="0.5019607843137255" points="111.907174,206.088445 77.415284,142.189025 57.981713,150.162301 86.855104,271.000000" />
<polygon fill="#47372b" fill-opacity="0.5019607843137255" points="148.281864,62.691579 129.395323,59.907229 138.963626,52.489900 153.535525,67.990068" />
<polygon fill="#aaa176" fill-opacity="0.5019607843137255" points="19.200258,85.344029 23.771572,90.964380 33.860199,141.071908 12.158393,120.355501" />
<polygon fill="#e1dba8" fill-opacity="0.5019607843137255" points="66.632392,89.529971 148.589463,89.554999 82.423456,91.018947 96.204997,92.133154" />
<polygon fill="#020708" fill-opacity="0.5019607843137255" points="137.855030,221.157911 120.443430,211.690574 151.363572,265.667137 121.786718,264.800338" />
<polygon fill="#769092" fill-opacity="0.5019607843137255" points="71.989916,5.696195 161.826691,-0.744417 -10.987733,0.332160 -10.003954,6.809288" />
<polygon fill="#d7b87c" fill-opacity="0.5019607843137255" points="96.789086,19.115056 111.325702,76.973315 123.384986,54.150415 167.602187,51.813627" />
<polygon fill="#534c33" fill-opacity="0.5019607843137255" points="113.653952,88.601152 32.209956,81.818120 116.324341,77.352759 144.786777,88.593026" />
<polygon fill="#3a360c" fill-opacity="0.5019607843137255" points="182.776262,138.308906 186.556648,109.379268 136.863797,98.825494 189.326782,95.801270" />
<polygon fill="#1d2526" fill-opacity="0.5019607843137255" points="86.303579,133.068338 91.535957,203.559169 124.340011,181.849104 136.304012,95.318215" />
<polygon fill="#cddbb4" fill-opacity="0.5019607843137255" points="178.345267,67.826409 208.675827,72.627420 226.837752,18.934258 169.477124,16.963035" />
<polygon fill="#674d29" fill-opacity="0.5019607843137255" points="163.682393,83.885509 169.691239,29.835706 173.447807,50.146454 179.767703,61.556668" />
<polygon fill="#705e41" fill-opacity="0.5019607843137255" points="50.920400,165.775984 9.201023,137.486590 -16.000000,190.521861 10.527813,150.737079" />
<polygon fill="#8c7556" fill-opacity="0.5019607843137255" points="94.284289,11.850253 53.461717,56.368920 92.092637,26.629641 96.036665,38.630356" />
<polygon fill="#eedea9" fill-opacity="0.5019607843137255" points="51.395386,140.094397 30.067921,123.634549 34.376276,140.164152 47.643814,148.725564" />
<polygon fill="#74644e" fill-opacity="0.5019607843137255" points="115.375683,134.073134 115.148711,229.671292 119.550639,196.313860 112.203441,189.649338" />
<polygon fill="#e7d7a0" fill-opacity="0.5019607843137255" points="166.988751,139.728571 167.876343,111.856918 139.688626,121.637341 142.359521,154.167435" />
<polygon fill="#e9e4af" fill-opacity="0.5019607843137255" points="188.345554,82.281137 174.377276,85.283746 178.107600,56.931822 186.122664,64.448748" />
<polygon fill="#3d474a" fill-opacity="0.5019607843137255" points="165.072406,211.485741 155.611816,204.263348 140.799257,249.200484 170.342893,254.481569" />
<polygon fill="#050b0f" fill-opacity="0.5019607843137255" points="3.635708,256.003063 16.943306,258.601850 16.390461,191.666292 -1.078314,161.785076" />
<polygon fill="#4c492d" fill-opacity="0.5019607843137255" points="80.367938,135.337245 78.213737,98.758250 100.697023,91.755609 109.132066,96.910917" />
<polygon fill="#5f381f" fill-opacity="0.5019607843137255" points="66.274918,131.917727 59.600699,135.413659 49.522141,119.322919 62.595140,108.823823" />
<polygon fill="#71674b" fill-opacity="0.5019607843137255" points="20.631624,108.299459 36.011306,122.566048 39.142506,105.061541 4.987493,53.898999" />
<polygon fill="#80633c" fill-opacity="0.5019607843137255" points="172.772854,36.846982 156.579426,22.049698 152.691502,109.891122 168.727231,53.142665" />
<polygon fill="#8b846b" fill-opacity="0.5019607843137255" points="130.162943,101.803145 107.857087,97.058988 107.519377,108.526283 124.944063,103.791348" />
<polygon fill="#656657" fill-opacity="0.5019607843137255" points="138.501830,153.097508 150.711318,240.952232 134.400744,189.894753 137.594770,98.557871" />
<polygon fill="#514b3a" fill-opacity="0.5019607843137255" points="83.271931,41.974877 92.988637,25.511166 101.170684,72.244667 101.074690,35.128046" />
<polygon fill="#8e7d60" fill-opacity="0.5019607843137255" points="189.081537,90.664966 187.959619,101.837665 226.582706,95.739634 219.024410,56.778851" />
<polygon fill="#403816" fill-opacity="0.5019607843137255" points="74.658696,72.000787 62.039762,61.491297 69.541510,57.011260 73.338338,107.003372" />
<polygon fill="#ddbf8c" fill-opacity="0.5019607843137255" points="33.060596,100.102997 45.699913,67.289515 62.324112,57.184474 50.985458,79.425176" />
<polygon fill="#a1a083" fill-opacity="0.5019607843137255" points="75.779929,132.798197 67.019482,129.195211 62.916872,143.390554 66.823886,147.527182" />
<polygon fill="#c2d5bb" fill-opacity="0.5019607843137255" points="124.833306,40.478764 93.505271,8.097985 209.935924,18.987813 126.279422,25.160393" />
<polygon fill="#cad3a0" fill-opacity="0.5019607843137255" points="17.897368,58.235143 23.934085,54.594863 60.090873,24.485334 -16.000000,49.136046" />
<polygon fill="#13181a" fill-opacity="0.5019607843137255" points="136.059612,208.753352 129.729693,99.529646 116.942589,204.136984 134.064653,227.252931" />
<polygon fill="#799493" fill-opacity="0.5019607843137255" points="214.552746,3.479743 211.030747,26.659361 211.058839,-16.000000 119.624464,0.864028" />
<polygon fill="#5d5c4f" fill-opacity="0.5019607843137255" points="88.382905,117.006381 90.464501,152.776853 96.015221,104.693258 91.603649,91.653253" />
<polygon fill="#0f1514" fill-opacity="0.5019607843137255" points="52.631833,143.182044 51.309638,162.753469 87.965222,143.489518 34.629414,154.809484" />
<polygon fill="#929d7a" fill-opacity="0.5019607843137255" points="171.360798,87.858040 167.701454,87.410871 167.153215,92.055919 172.780709,103.139916" />
<polygon fill="#d0be8b" fill-opacity="0.5019607843137255" points="76.139670,67.406161 85.123908,77.886696 83.589864,31.746971 64.271072,53.682764" />
<polygon fill="#936a49" fill-opacity="0.5019607843137255" points="70.844763,93.220206 52.339453,123.053687 67.736837,64.100238 70.886197,97.160453" />
<polygon fill="#12120e" fill-opacity="0.5019607843137255" points="73.110978,152.601941 53.390532,161.127688 91.412922,154.010437 71.268361,134.255673" />
<polygon fill="#908e73" fill-opacity="0.5019607843137255" points="150.021679,192.724792 164.890771,186.694574 163.305247,143.074879 139.593095,161.260550" />
<polygon fill="#58281b" fill-opacity="0.5019607843137255" points="197.226760,99.284781 212.508842,100.699351 226.111179,136.574408 193.662289,97.964913" />
<polygon fill="#c0b07c" fill-opacity="0.5019607843137255" points="33.270584,133.276891 34.704829,121.603269 12.805856,107.804317 13.992956,135.759811" />
<polygon fill="#b5a97e" fill-opacity="0.5019607843137255" points="129.901341,71.465119 91.659435,77.433365 93.010160,37.426297 94.626295,64.757420" />
<polygon fill="#68710e" fill-opacity="0.5019607843137255" points="172.409550,99.354759 179.932446,104.504722 187.212969,91.935062 176.209266,83.891971" />
<polygon fill="#e9c384" fill-opacity="0.5019607843137255" points="149.427678,25.933017 129.414836,31.483370 127.642392,61.316351 135.922602,50.396518" />
<polygon fill="#4c3723" fill-opacity="0.5019607843137255" points="162.875686,50.214806 171.818749,72.607969 179.043274,56.405218 152.111592,57.223736" />
<polygon fill="#968e77" fill-opacity="0.5019607843137255" points="114.358473,179.850569 116.263969,192.621026 117.867844,191.715773 114.178110,201.876421" />
<polygon fill="#1b211f" fill-opacity="0.5019607843137255" points="115.174445,206.148151 107.977952,93.464379 103.393106,96.916122 90.953174,124.057375" />
<polygon fill="#63655a" fill-opacity="0.5019607843137255" points="122.259719,196.152114 135.379407,191.917497 162.183243,155.666981 160.021154,169.949904" />
<polygon fill="#383329" fill-opacity="0.5019607843137255" points="94.034825,27.621599 97.089098,29.939862 85.785575,48.227476 88.627461,32.665884" />
<polygon fill="#433116" fill-opacity="0.5019607843137255" points="20.251615,144.908267 54.470875,182.231250 83.394281,160.366774 -4.172244,163.078944" />
<polygon fill="#706641" fill-opacity="0.5019607843137255" points="-16.000000,97.932184 31.244340,96.183199 41.567503,77.925801 -16.000000,41.347858" />
<polygon fill="#6f7362" fill-opacity="0.5019607843137255" points="79.298250,71.880887 81.806627,58.235843 67.153200,128.120160 79.034565,131.537315" />
<polygon fill="#070e12" fill-opacity="0.5019607843137255" points="168.770873,107.002410 190.113918,114.142482 170.342497,99.245586 166.037373,96.000034" />
<polygon fill="#cbc292" fill-opacity="0.5019607843137255" points="127.044860,88.456874 146.355500,92.822952 123.297332,90.216644 69.693306,90.249345" />
<polygon fill="#d9c189" fill-opacity="0.5019607843137255" points="108.021222,46.817110 88.715099,15.091568 117.611281,51.063130 85.291584,48.480453" />
<polygon fill="#ca9956" fill-opacity="0.5019607843137255" points="147.827310,65.315073 141.585581,50.137846 147.352888,23.450407 162.732523,29.265085" />
<polygon fill="#d7dfc7" fill-opacity="0.5019607843137255" points="208.471802,71.284764 220.355774,26.708246 188.213592,70.196784 186.167734,70.870884" />
<polygon fill="#bcac82" fill-opacity="0.5019607843137255" points="0.585437,90.464835 19.427178,91.032612 36.255400,89.446861 -16.000000,88.813753" />
<polygon fill="#17191b" fill-opacity="0.5019607843137255" points="113.932693,222.103791 114.445302,204.680119 75.927077,177.066995 60.294905,271.000000" />
<polygon fill="#0e110e" fill-opacity="0.5019607843137255" points="194.507855,131.947715 227.000000,271.000000 173.097496,271.000000 165.999030,193.580940" />
<polygon fill="#c59662" fill-opacity="0.5019607843137255" points="150.777162,116.963093 133.107070,96.218647 156.218181,82.698566 128.290837,71.481785" />
<polygon fill="#393a30" fill-opacity="0.5019607843137255" points="0.054688,149.290843 2.649115,81.107607 -16.000000,9.200028 2.316859,232.776865" />
<polygon fill="#122127" fill-opacity="0.5019607843137255" points="38.940171,159.912657 62.489402,158.110477 37.060303,143.833125 21.139327,141.158849" />
<polygon fill="#d8cb98" fill-opacity="0.5019607843137255" points="153.537339,115.387804 148.247325,110.171689 168.753733,113.479047 164.154029,155.180912" />
<polygon fill="#b2a580" fill-opacity="0.5019607843137255" points="91.966113,38.222199 85.064910,0.698493 113.983156,29.173828 84.259642,23.120790" />
<polygon fill="#988b6b" fill-opacity="0.5019607843137255" points="126.128501,31.364283 140.840175,24.997283 127.369532,36.820991 122.352537,79.345474" />
<polygon fill="#7f7254" fill-opacity="0.5019607843137255" points="21.874827,140.415306 15.055205,144.330729 47.683234,164.829552 28.882307,155.062771" />
<polygon fill="#bcc798" fill-opacity="0.5019607843137255" points="183.612827,58.589383 195.838552,43.929751 167.385755,11.095407 173.320786,52.546757" />
<polygon fill="#645141" fill-opacity="0.5019607843137255" points="58.164072,79.747322 52.496170,89.132254 50.739011,86.252757 49.736317,81.054967" />
<polygon fill="#574f41" fill-opacity="0.5019607843137255" points="104.075170,196.055266 131.142828,196.126760 94.878876,193.298385 90.308109,177.747566" />
<polygon fill="#dfb683" fill-opacity="0.5019607843137255" points="59.378967,80.931343 61.938147,94.734670 32.467648,94.902346 42.512992,106.844818" />
<polygon fill="#596056" fill-opacity="0.5019607843137255" points="75.817736,91.359650 131.978675,100.559196 137.208527,91.528327 118.495797,91.214697" />
<polygon fill="#4e493c" fill-opacity="0.5019607843137255" points="94.378562,189.580773 89.239031,176.452832 91.152006,104.821804 92.080306,161.856146" />
<polygon fill="#5f5732" fill-opacity="0.5019607843137255" points="57.191426,46.495384 39.372830,52.879331 61.341872,62.520420 51.553029,49.111070" />
<polygon fill="#554425" fill-opacity="0.5019607843137255" points="34.787968,117.777475 37.823157,104.787870 26.136456,87.980946 28.648807,68.984365" />
<polygon fill="#6e5027" fill-opacity="0.5019607843137255" points="99.030299,240.879238 128.877121,250.090113 98.370443,271.000000 96.340625,247.569490" />
<polygon fill="#dbc28c" fill-opacity="0.5019607843137255" points="53.540105,54.480658 98.164720,6.865706 70.500703,34.221979 59.968887,44.044529" />
<polygon fill="#c09861" fill-opacity="0.5019607843137255" points="57.289881,75.050635 55.256622,84.874978 71.064645,75.643894 57.953391,50.830640" />
<polygon fill="#c4d6ba" fill-opacity="0.5019607843137255" points="48.446749,39.975985 30.461041,46.318278 54.728154,48.387780 92.893879,1.431408" />
<polygon fill="#4b483a" fill-opacity="0.5019607843137255" points="90.794442,65.134668 86.693465,33.197115 84.859200,66.429788 106.269012,65.267509" />
<polygon fill="#222828" fill-opacity="0.5019607843137255" points="164.545439,215.348269 190.826229,116.524670 181.916676,116.217959 166.019215,135.060795" />
<polygon fill="#5a431f" fill-opacity="0.5019607843137255" points="154.602951,106.725420 155.128676,111.210924 169.886165,84.593511 167.924087,56.191237" />
<polygon fill="#a56f5a" fill-opacity="0.5019607843137255" points="189.531305,108.187305 197.227340,110.434052 187.363666,71.442855 193.594762,70.627041" />
<polygon fill="#8c7251" fill-opacity="0.5019607843137255" points="8.197449,145.334767 -16.000000,159.862200 -7.543681,162.352359 16.972067,146.631601" />
<polygon fill="#9f724d" fill-opacity="0.5019607843137255" points="156.362948,82.174356 152.619274,92.051571 153.550582,118.499028 139.290426,88.021087" />
<polygon fill="#c5935b" fill-opacity="0.5019607843137255" points="47.802617,116.709459 32.657709,85.020125 45.879985,133.912867 60.790493,151.596183" />
<polygon fill="#5a4735" fill-opacity="0.5019607843137255" points="144.792249,64.793403 135.029314,60.767781 133.826152,53.812842 144.398850,57.374225" />
<polygon fill="#ebe3ad" fill-opacity="0.5019607843137255" points="186.732679,76.315820 172.695685,85.010739 170.282928,73.494093 188.089498,85.878660" />
<polygon fill="#564e33" fill-opacity="0.5019607843137255" points="127.676768,75.782583 136.197275,89.990542 78.444518,76.927774 124.635326,75.989687" />
<polygon fill="#5d5545" fill-opacity="0.5019607843137255" points="114.334662,147.853583 114.210495,92.729979 113.420796,113.673691 112.541781,151.916070" />
<polygon fill="#322d0d" fill-opacity="0.5019607843137255" points="75.174392,84.962820 73.721429,67.863198 69.175942,63.460674 74.510841,96.650906" />
<polygon fill="#a07453" fill-opacity="0.5019607843137255" points="105.682313,234.061736 130.430215,231.889595 130.812554,236.557425 102.498273,227.848275" />
<polygon fill="#565a53" fill-opacity="0.5019607843137255" points="164.510019,234.665434 158.745639,192.830989 140.945874,199.788242 132.663516,233.739895" />
<polygon fill="#ebd8a3" fill-opacity="0.5019607843137255" points="54.002038,138.506482 20.160184,133.521588 49.365078,141.720040 52.890999,141.656247" />
<polygon fill="#a3b4a4" fill-opacity="0.5019607843137255" points="40.326009,20.178901 -16.000000,10.275731 13.719146,5.691965 86.208115,1.123903" />
<polygon fill="#aa9972" fill-opacity="0.5019607843137255" points="115.947247,106.234018 111.999350,105.525392 107.807075,107.885459 108.817416,93.302399" />
<polygon fill="#4c4327" fill-opacity="0.5019607843137255" points="100.643235,93.895381 109.397681,102.947578 49.948968,95.786561 67.916794,101.799312" />
<polygon fill="#342309" fill-opacity="0.5019607843137255" points="75.587779,183.350145 77.420399,161.112768 10.907053,181.442552 26.144099,247.042476" />
<polygon fill="#bdcdb0" fill-opacity="0.5019607843137255" points="134.905722,11.793239 171.579033,32.999580 227.000000,7.829919 172.827193,11.225852" />
<polygon fill="#716c4d" fill-opacity="0.5019607843137255" points="227.000000,50.550621 222.604013,70.954677 191.592366,71.707653 184.357285,94.494779" />
<polygon fill="#7e6147" fill-opacity="0.5019607843137255" points="115.268847,240.694446 115.239702,203.076910 115.236712,188.374295 119.336987,212.374561" />
<polygon fill="#564d39" fill-opacity="0.5019607843137255" points="57.145244,165.006776 81.814379,157.162792 59.878478,161.117582 32.154034,160.813943" />
<polygon fill="#846b46" fill-opacity="0.5019607843137255" points="172.163857,62.086170 162.398854,24.634769 164.766228,70.155637 135.702148,52.966779" />
<polygon fill="#0f0f0b" fill-opacity="0.5019607843137255" points="183.890197,266.837921 114.180662,237.176761 131.980449,241.940364 123.813920,263.022251" />
<polygon fill="#7d7153" fill-opacity="0.5019607843137255" points="93.615381,67.712237 112.425105,69.521614 102.105174,69.769057 71.494463,70.037461" />
<polygon fill="#bb9967" fill-opacity="0.5019607843137255" points="137.236313,95.582159 147.056259,72.373036 95.299571,17.966485 124.668852,42.917574" />
<polygon fill="#a4966f" fill-opacity="0.5019607843137255" points="17.111131,95.666065 12.234024,140.376330 32.861074,102.005402 23.646325,94.264077" />
<polygon fill="#bcb58f" fill-opacity="0.5019607843137255" points="58.948421,140.814768 69.026307,147.078509 65.957629,129.126252 68.057643,130.993747" />
<polygon fill="#797563" fill-opacity="0.5019607843137255" points="94.763632,90.995212 94.672951,91.295627 95.246220,113.533058 89.256610,113.924735" />
<polygon fill="#7e8e46" fill-opacity="0.5019607843137255" points="-6.158796,75.224965 -6.939821,49.011988 29.270249,65.903671 37.111738,45.509811" />
<polygon fill="#a2a483" fill-opacity="0.5019607843137255" points="149.498570,147.085005 149.973090,119.332221 154.613649,168.704301 137.827595,157.410924" />
<polygon fill="#c1b586" fill-opacity="0.5019607843137255" points="83.442281,70.449462 127.495609,73.161400 76.010773,76.563503 85.311369,48.247552" />
<polygon fill="#ba9d5b" fill-opacity="0.5019607843137255" points="30.570878,76.767260 38.584452,53.136661 65.251573,68.837169 65.050116,56.350606" />
<polygon fill="#c3cea0" fill-opacity="0.5019607843137255" points="-16.000000,41.194644 -16.000000,53.150062 23.590595,55.551198 42.138132,22.903908" />
<polygon fill="#ead298" fill-opacity="0.5019607843137255" points="151.754992,114.818188 136.197426,106.773637 141.817469,125.871339 138.691112,154.793847" />
<polygon fill="#d1bb85" fill-opacity="0.5019607843137255" points="102.420199,37.904825 116.570773,35.901620 119.429257,72.262876 101.866911,66.751807" />
<polygon fill="#515041" fill-opacity="0.5019607843137255" points="100.366700,60.681628 100.045809,62.693565 94.076839,44.883754 94.492805,68.475615" />
<polygon fill="#bfae80" fill-opacity="0.5019607843137255" points="73.313786,135.128341 82.227239,142.466868 82.795990,140.590595 86.114313,135.800814" />
<polygon fill="#2c2415" fill-opacity="0.5019607843137255" points="165.622262,61.076346 164.272642,53.572766 150.045369,58.821550 160.163525,50.596792" />
<polygon fill="#313e30" fill-opacity="0.5019607843137255" points="2.499675,94.741184 3.733975,148.027608 8.142639,133.204077 15.414923,98.237216" />
<polygon fill="#babca1" fill-opacity="0.5019607843137255" points="136.080289,115.803042 135.778697,109.594023 133.409230,110.697280 133.820222,142.920073" />
<polygon fill="#7f7055" fill-opacity="0.5019607843137255" points="89.855068,18.481723 45.682467,62.338864 61.396775,49.514950 96.123415,15.132596" />
<polygon fill="#c2d6be" fill-opacity="0.5019607843137255" points="124.234998,36.464830 109.076210,24.775879 136.899165,7.044431 147.489663,11.794016" />
<polygon fill="#503b1d" fill-opacity="0.5019607843137255" points="154.626930,65.062642 150.143113,81.631927 157.978001,77.225296 147.600576,59.448710" />
<polygon fill="#181d1f" fill-opacity="0.5019607843137255" points="132.676725,190.450565 132.992388,105.029025 116.349928,106.026198 116.663112,184.369358" />
<polygon fill="#afa475" fill-opacity="0.5019607843137255" points="159.852881,178.935334 151.036177,196.483565 162.066008,157.409125 162.412606,104.365958" />
<polygon fill="#b6ae81" fill-opacity="0.5019607843137255" points="175.562112,90.717612 178.845988,89.688942 173.334416,88.320424 163.396574,91.033983" />
<polygon fill="#614129" fill-opacity="0.5019607843137255" points="63.232465,103.091989 72.625152,93.558043 65.359659,119.296112 54.145128,104.710337" />
<polygon fill="#8a7a5a" fill-opacity="0.5019607843137255" points="27.638401,153.992876 38.446210,160.200486 11.232874,137.340360 23.682235,145.802257" />
<polygon fill="#212824" fill-opacity="0.5019607843137255" points="22.818788,143.900794 31.191887,136.143697 58.796632,164.295023 25.183949,147.046694" />
<polygon fill="#4d503c" fill-opacity="0.5019607843137255" points="170.479296,32.864789 163.670543,28.083817 171.187105,47.541943 172.436292,44.204782" />
<polygon fill="#ccd4b3" fill-opacity="0.5019607843137255" points="175.964351,65.621222 182.359370,36.772101 172.388364,53.387205 227.000000,65.005007" />
<polygon fill="#b1a57c" fill-opacity="0.5019607843137255" points="93.230547,36.120951 91.502580,34.243019 94.450062,67.090627 93.802697,52.842978" />
<polygon fill="#433722" fill-opacity="0.5019607843137255" points="74.945405,90.317979 74.793866,84.545230 59.187450,79.856882 72.344694,89.728816" />
<polygon fill="#1a1d1c" fill-opacity="0.5019607843137255" points="183.513379,107.282322 187.898650,97.294740 186.650056,147.061982 227.000000,122.659786" />
<polygon fill="#988868" fill-opacity="0.5019607843137255" points="125.370441,86.707850 123.197190,40.042701 139.079105,24.960449 127.412713,33.172454" />
<polygon fill="#827f67" fill-opacity="0.5019607843137255" points="97.244479,6.176093 77.558562,23.640669 43.730222,60.655270 75.075232,28.608009" />
<polygon fill="#eeddab" fill-opacity="0.5019607843137255" points="159.886395,137.474398 161.219621,110.034954 150.465726,138.776987 155.941710,147.425095" />
<polygon fill="#191c1b" fill-opacity="0.5019607843137255" points="111.938368,197.005961 113.546430,217.489855 78.870575,271.000000 64.489812,204.109089" />
<polygon fill="#cfa46c" fill-opacity="0.5019607843137255" points="144.072052,89.342870 149.835559,71.852164 149.073800,40.573929 149.975084,18.114102" />
<polygon fill="#37290e" fill-opacity="0.5019607843137255" points="58.209913,164.607149 15.782578,160.364464 21.233405,130.948028 18.166037,244.062856" />
<polygon fill="#cba173" fill-opacity="0.5019607843137255" points="67.541264,104.798704 51.311651,101.943682 29.953096,95.531278 36.800202,89.696367" />
<polygon fill="#1a1c18" fill-opacity="0.5019607843137255" points="133.866131,193.592289 136.717869,225.487310 120.170507,233.184849 121.562733,199.579872" />
<polygon fill="#6c5e46" fill-opacity="0.5019607843137255" points="12.034177,149.404445 -5.540936,143.127514 9.198818,172.810662 -7.021385,151.207344" />
<polygon fill="#5f483c" fill-opacity="0.5019607843137255" points="194.334403,73.344110 190.079805,81.697566 187.867354,102.299705 189.381141,71.889156" />
<polygon fill="#996f47" fill-opacity="0.5019607843137255" points="46.345714,105.163577 61.057837,148.769569 50.615113,154.358495 55.244169,151.078515" />
<polygon fill="#a1b8b2" fill-opacity="0.5019607843137255" points="81.687222,11.058085 69.804808,3.700148 118.247696,2.559106 219.021806,1.836373" />
<polygon fill="#e9ce8d" fill-opacity="0.5019607843137255" points="95.326186,12.195071 113.122824,31.699830 134.558391,52.295449 93.262424,13.868999" />
<polygon fill="#b2a079" fill-opacity="0.5019607843137255" points="83.755461,28.940873 96.769235,21.868672 52.455111,65.653639 65.774540,46.767068" />
<polygon fill="#241712" fill-opacity="0.5019607843137255" points="76.550688,229.500448 105.445781,265.396275 11.439877,271.000000 16.398086,238.387545" />
<polygon fill="#56605e" fill-opacity="0.5019607843137255" points="153.703540,181.259200 150.982091,178.001963 159.640749,153.994454 161.046886,159.335019" />
<polygon fill="#5f482a" fill-opacity="0.5019607843137255" points="165.909079,76.451553 175.028174,69.459230 169.614869,54.474437 178.999957,53.914079" />
<polygon fill="#51462f" fill-opacity="0.5019607843137255" points="50.227906,105.987753 102.792347,105.940543 110.888029,110.609551 53.886116,104.538664" />
<polygon fill="#91ab9e" fill-opacity="0.5019607843137255" points="213.189019,65.450487 221.337520,-10.591248 189.065271,-1.543209 209.406785,6.858988" />
<polygon fill="#cec999" fill-opacity="0.5019607843137255" points="127.699889,89.172664 129.977672,90.243045 129.391508,91.442335 84.179010,89.373353" />
<polygon fill="#464228" fill-opacity="0.5019607843137255" points="87.113309,130.875434 92.914823,96.550951 80.093217,95.050877 79.211736,129.610711" />
<polygon fill="#1a1b15" fill-opacity="0.5019607843137255" points="95.925261,234.053122 71.130351,143.769471 40.696477,159.449539 88.229914,151.894193" />
<polygon fill="#514436" fill-opacity="0.5019607843137255" points="55.380851,78.215347 53.084964,87.456390 49.257816,81.102318 52.170569,80.975078" />
<polygon fill="#e4d2a1" fill-opacity="0.5019607843137255" points="55.011190,138.051715 32.200118,137.954821 32.226112,136.283920 45.724614,147.757354" />
<polygon fill="#66685a" fill-opacity="0.5019607843137255" points="133.660063,145.936298 139.212106,190.267049 132.911945,190.055098 143.224070,165.302939" />
<polygon fill="#1e2525" fill-opacity="0.5019607843137255" points="132.392449,112.902823 135.847974,95.992260 120.241596,112.330153 134.078198,117.765911" />
<polygon fill="#564825" fill-opacity="0.5019607843137255" points="32.181835,104.119974 31.426214,102.194878 27.547594,90.963943 29.969311,60.376312" />
<polygon fill="#1a1913" fill-opacity="0.5019607843137255" points="90.575023,167.431040 74.379888,139.553745 65.943521,158.770633 58.614977,139.777752" />
<polygon fill="#3c3829" fill-opacity="0.5019607843137255" points="97.109373,43.671455 99.118084,34.131989 94.734551,38.762470 96.049989,58.340467" />
<polygon fill="#e1cb95" fill-opacity="0.5019607843137255" points="91.965042,24.413553 99.650093,23.222378 118.258887,45.115732 99.239588,30.619166" />
</g>
</svg>