<svg xmlns="http://www.w3.org/2000/svg" version="1.1" width="636" height="768">
<rect x="0" y="0" width="636" height="768" fill="#66614a" />
<g transform="scale(3) translate(0.5 0.5)">
<path stroke="#ffffff" stroke-opacity="0.5019607843137255" fill="none" d="M -1.663940 27.800066 Q 206.876583 -16.000000, 207.265899 73.233955" stroke-width="0.500000" />
<path stroke="#ffffff" stroke-opacity="0.5019607843137255" fill="none" d="M 210.971392 62.141457 Q 210.944989 -16.000000, -6.052530 23.962277" stroke-width="0.500000" />
<path stroke="#ffffff" stroke-opacity="0.5019607843137255" fill="none" d="M 204.808994 70.926939 Q 201.206025 -16.000000, -7.307348 32.887583" stroke-width="0.500000" />
<path stroke="#ffffff" stroke-opacity="0.5019607843137255" fill="none" d="M 0.739452 33.963022 Q 199.472044 -16.000000, 204.986797 76.219046" stroke-width="0.500000" />
<path stroke="#ffffff" stroke-opacity="0.5019607843137255" fill="none" d="M 208.461605 68.052483 Q 206.323433 -16.000000, -6.834856 26.800435" stroke-width="0.500000" />
<path stroke="#ffffff" stroke-opacity="0.5019607843137255" fill="none" d="M -5.013479 21.615157 Q 210.625089 -16.000000, 211.561227 59.302776" stroke-width="0.500000" />
<path stroke="#fbffff" stroke-opacity="0.5019607843137255" fill="none" d="M 2.216084 50.382386 Q 1.230991 -15.634031, 216.222212 17.353415" stroke-width="0.500000" />
<path stroke="#fffffd" stroke-opacity="0.5019607843137255" fill="none" d="M -4.617149 49.972962 Q 188.942571 -16.000000, 199.039990 68.325426" stroke-width="0.500000" />
<path stroke="#ffffff" stroke-opacity="0.5019607843137255" fill="none" d="M 211.167331 65.470150 Q 203.241499 -16.000000, 0.626395 24.658880" stroke-width="0.500000" />
<path stroke="#fffffd" stroke-opacity="0.5019607843137255" fill="none" d="M 212.735095 63.365049 Q 171.095097 -16.000000, -16.000000 44.293609" stroke-width="0.500000" />
<path stroke="#feffff" stroke-opacity="0.5019607843137255" fill="none" d="M 211.093857 52.929880 Q 209.362177 -16.000000, -13.143548 20.903790" stroke-width="0.500000" />
<path stroke="#fffffa" stroke-opacity="0.5019607843137255" fill="none" d="M -16.000000 50.335288 Q 199.568027 -16.000000, 211.770037 40.523194" stroke-width="0.500000" />
<path stroke="#fffff1" stroke-opacity="0.5019607843137255" fill="none" d="M -6.383398 54.786567 Q 175.463305 -16.000000, 212.209757 67.590718" stroke-width="0.500000" />
<path stroke="#f3ffff" stroke-opacity="0.5019607843137255" fill="none" d="M 227.000000 16.222130 Q 74.464435 -8.521624, -16.000000 22.556779" stroke-width="0.500000" />
<path stroke="#fffff6" stroke-opacity="0.5019607843137255" fill="none" d="M -10.040323 48.889188 Q 90.804573 2.680648, 227.000000 31.420451" stroke-width="0.500000" />
<path stroke="#ffffe5" stroke-opacity="0.5019607843137255" fill="none" d="M 200.517519 58.954150 Q 171.473399 -9.688816, -2.592145 54.281670" stroke-width="0.500000" />
<path stroke="#edffff" stroke-opacity="0.5019607843137255" fill="none" d="M 210.451753 36.447172 Q 207.993372 -16.000000, -16.000000 14.827019" stroke-width="0.500000" />
<path stroke="#ffffde" stroke-opacity="0.5019607843137255" fill="none" d="M 207.613340 70.299314 Q 108.701372 -16.000000, -5.885919 45.839037" stroke-width="0.500000" />
<path stroke="#ffffe5" stroke-opacity="0.5019607843137255" fill="none" d="M -16.000000 62.542538 Q 70.290335 19.357936, 227.000000 20.150649" stroke-width="0.500000" />
<path stroke="#f8fffc" stroke-opacity="0.5019607843137255" fill="none" d="M -8.114521 32.984742 Q 35.789797 13.266996, 227.000000 9.071873" stroke-width="0.500000" />
<path stroke="#d8fffd" stroke-opacity="0.5019607843137255" fill="none" d="M 221.098244 6.037080 Q 100.728173 -3.747214, -16.000000 12.384004" stroke-width="0.500000" />
<path stroke="#ffffd2" stroke-opacity="0.5019607843137255" fill="none" d="M -15.995847 62.991444 Q 190.930761 -16.000000, 204.004983 77.430828" stroke-width="0.500000" />
<path stroke="#f8ffe7" stroke-opacity="0.5019607843137255" fill="none" d="M -16.000000 54.202901 Q 80.732582 13.783666, 208.491747 13.893109" stroke-width="0.500000" />
<path stroke="#fbffef" stroke-opacity="0.5019607843137255" fill="none" d="M 212.365239 19.717459 Q 61.062459 12.825260, 3.419664 43.050710" stroke-width="0.500000" />
<path stroke="#e3fffb" stroke-opacity="0.5019607843137255" fill="none" d="M 227.000000 10.060698 Q 11.205804 -16.000000, -16.000000 70.327669" stroke-width="0.500000" />
<path stroke="#ffffc9" stroke-opacity="0.5019607843137255" fill="none" d="M 18.435678 52.666167 Q 141.913321 7.533541, 208.531222 67.664105" stroke-width="0.500000" />
<path stroke="#ffffcf" stroke-opacity="0.5019607843137255" fill="none" d="M 216.980993 78.561830 Q 102.420789 -9.111339, -16.000000 39.604918" stroke-width="0.500000" />
<path stroke="#ffffd9" stroke-opacity="0.5019607843137255" fill="none" d="M 223.001154 -16.000000 Q 193.998389 23.069216, 143.575573 167.674652" stroke-width="0.500000" />
<path stroke="#fefdc2" stroke-opacity="0.5019607843137255" fill="none" d="M -16.000000 17.926213 Q 185.046235 90.298170, 210.913164 13.571767" stroke-width="0.500000" />
<path stroke="#ffffc5" stroke-opacity="0.5019607843137255" fill="none" d="M 211.381137 5.683999 Q 206.472176 72.121692, -4.521065 37.148799" stroke-width="0.500000" />
<path stroke="#ffffc6" stroke-opacity="0.5019607843137255" fill="none" d="M 1.052092 54.362151 Q 156.768323 1.041747, 216.792353 71.712860" stroke-width="0.500000" />
<path stroke="#eafffe" stroke-opacity="0.5019607843137255" fill="none" d="M 43.099985 13.508894 Q 215.053805 -12.305368, 212.107894 58.409542" stroke-width="0.500000" />
<path stroke="#e6ffe6" stroke-opacity="0.5019607843137255" fill="none" d="M 213.332488 12.043221 Q 77.907884 -16.000000, -5.851501 70.417068" stroke-width="0.500000" />
<path stroke="#f3ffde" stroke-opacity="0.5019607843137255" fill="none" d="M -2.032181 50.829265 Q 84.054842 23.546910, 227.000000 13.081013" stroke-width="0.500000" />
<path stroke="#ffffd4" stroke-opacity="0.5019607843137255" fill="none" d="M 209.776600 -6.880788 Q 170.331269 92.246271, 141.739895 160.221424" stroke-width="0.500000" />
<path stroke="#f6ffea" stroke-opacity="0.5019607843137255" fill="none" d="M -16.000000 41.727298 Q 179.785407 -16.000000, 212.093398 62.803808" stroke-width="0.500000" />
<path stroke="#fbf8bd" stroke-opacity="0.5019607843137255" fill="none" d="M 227.000000 -14.176907 Q 142.395553 77.213610, -16.000000 35.561629" stroke-width="0.500000" />
<path stroke="#fffcbb" stroke-opacity="0.5019607843137255" fill="none" d="M 110.737143 -16.000000 Q 158.174590 141.207642, 141.142015 155.028132" stroke-width="0.500000" />
<path stroke="#efffe5" stroke-opacity="0.5019607843137255" fill="none" d="M 213.761873 44.593589 Q 129.696910 -16.000000, -12.916901 44.603654" stroke-width="0.500000" />
<path stroke="#fffabf" stroke-opacity="0.5019607843137255" fill="none" d="M 143.297933 150.843667 Q 142.196097 -4.898935, 9.102407 12.433539" stroke-width="0.500000" />
<path stroke="#fcffd0" stroke-opacity="0.5019607843137255" fill="none" d="M 145.879006 162.908644 Q 174.785221 84.589849, 212.407002 3.205549" stroke-width="0.500000" />
<path stroke="#f1f5bf" stroke-opacity="0.5019607843137255" fill="none" d="M 1.025169 3.880042 Q 24.205403 80.804128, 210.799134 13.348376" stroke-width="0.500000" />
<path stroke="#fdffce" stroke-opacity="0.5019607843137255" fill="none" d="M 221.206466 -5.342970 Q 188.412018 70.292234, 134.766983 156.989454" stroke-width="0.500000" />
<path stroke="#fff6bf" stroke-opacity="0.5019607843137255" fill="none" d="M 40.833178 112.252912 Q 13.979119 44.904615, 213.967473 6.251739" stroke-width="0.500000" />
<path stroke="#000000" stroke-opacity="0.5019607843137255" fill="none" d="M -1.659205 246.163289 Q 170.936128 262.809024, 123.596243 104.424782" stroke-width="0.500000" />
<path stroke="#ffffcc" stroke-opacity="0.5019607843137255" fill="none" d="M 138.774093 142.982912 Q 170.427104 101.407490, 202.161627 -1.670970" stroke-width="0.500000" />
<path stroke="#000000" stroke-opacity="0.5019607843137255" fill="none" d="M 211.179588 255.613478 Q 84.452499 87.336808, 1.178116 254.053777" stroke-width="0.500000" />
<path stroke="#f6f7c2" stroke-opacity="0.5019607843137255" fill="none" d="M -7.902457 49.318113 Q 170.603787 39.627869, 227.000000 0.124246" stroke-width="0.500000" />
<path stroke="#000000" stroke-opacity="0.5019607843137255" fill="none" d="M 102.963980 90.857908 Q 145.534072 257.449721, -3.801944 255.847569" stroke-width="0.500000" />
<path stroke="#000000" stroke-opacity="0.5019607843137255" fill="none" d="M -8.405394 271.000000 Q 103.399740 84.118586, 220.988814 268.357627" stroke-width="0.500000" />
<path stroke="#e7ffda" stroke-opacity="0.5019607843137255" fill="none" d="M 4.816984 48.032441 Q 116.457849 13.480916, 225.582172 0.858274" stroke-width="0.500000" />
<path stroke="#f1f7c7" stroke-opacity="0.5019607843137255" fill="none" d="M 221.898043 -16.000000 Q 161.850659 96.618480, 151.550296 172.845141" stroke-width="0.500000" />
<path stroke="#000000" stroke-opacity="0.5019607843137255" fill="none" d="M -0.964047 242.576702 Q 178.957686 245.621832, 115.036427 105.234488" stroke-width="0.500000" />
<path stroke="#000000" stroke-opacity="0.5019607843137255" fill="none" d="M -0.168129 210.924816 Q 216.980893 270.645872, 204.834898 117.855762" stroke-width="0.500000" />
<path stroke="#fff3b6" stroke-opacity="0.5019607843137255" fill="none" d="M 79.075600 -4.840687 Q 21.854462 115.873295, 46.938061 148.978572" stroke-width="0.500000" />
<path stroke="#000000" stroke-opacity="0.5019607843137255" fill="none" d="M 189.772720 109.386581 Q 227.000000 269.384181, 112.986337 254.410404" stroke-width="0.500000" />
<path stroke="#000000" stroke-opacity="0.5019607843137255" fill="none" d="M -0.948599 248.899610 Q 115.975253 271.000000, 105.806285 95.871890" stroke-width="0.500000" />
<path stroke="#f5fac4" stroke-opacity="0.5019607843137255" fill="none" d="M 144.977309 167.077846 Q 198.079449 39.402158, 224.857906 -4.944927" stroke-width="0.500000" />
<path stroke="#000000" stroke-opacity="0.5019607843137255" fill="none" d="M 3.944632 163.588020 Q -16.000000 249.834449, 211.997711 255.790985" stroke-width="0.500000" />
<path stroke="#000000" stroke-opacity="0.5019607843137255" fill="none" d="M 129.266322 255.385998 Q 227.000000 248.830104, 167.631115 96.977279" stroke-width="0.500000" />
<path stroke="#cff7ed" stroke-opacity="0.5019607843137255" fill="none" d="M -16.000000 9.365184 Q 196.967696 -16.000000, 210.701578 40.522966" stroke-width="0.500000" />
<path stroke="#ffeeb1" stroke-opacity="0.5019607843137255" fill="none" d="M 136.057204 161.211837 Q 165.402249 154.480447, 112.073896 -14.789736" stroke-width="0.500000" />
<path stroke="#ffe39f" stroke-opacity="0.5019607843137255" fill="none" d="M 33.213612 89.021070 Q 162.300942 -16.000000, 227.000000 94.016020" stroke-width="0.500000" />
<path stroke="#ffeaa7" stroke-opacity="0.5019607843137255" fill="none" d="M 39.323964 145.524683 Q 40.559616 -16.000000, 208.425278 44.632622" stroke-width="0.500000" />
<path stroke="#000000" stroke-opacity="0.5019607843137255" fill="none" d="M 95.108769 90.306870 Q 149.858643 248.196895, -1.030323 241.299014" stroke-width="0.500000" />
<path stroke="#f7e4a1" stroke-opacity="0.5019607843137255" fill="none" d="M 227.000000 -16.000000 Q 66.055828 133.120537, -6.917657 21.823905" stroke-width="0.500000" />
<path stroke="#000000" stroke-opacity="0.5019607843137255" fill="none" d="M 116.737931 105.361961 Q 168.137296 266.491077, -8.158954 241.673752" stroke-width="0.500000" />
<path stroke="#ffe8aa" stroke-opacity="0.5019607843137255" fill="none" d="M 65.657842 8.432253 Q 139.049393 31.847238, 156.168753 161.338481" stroke-width="0.500000" />
<path stroke="#000000" stroke-opacity="0.5019607843137255" fill="none" d="M 6.180501 252.715811 Q 227.000000 271.000000, 207.012219 118.005852" stroke-width="0.500000" />
<path stroke="#000000" stroke-opacity="0.5019607843137255" fill="none" d="M 0.801780 247.539845 Q 37.226632 138.354618, 210.802181 256.928861" stroke-width="0.500000" />
<path stroke="#000000" stroke-opacity="0.5019607843137255" fill="none" d="M 122.606027 254.910306 Q 226.746684 247.207944, 161.748014 86.897672" stroke-width="0.500000" />
<path stroke="#e7eebe" stroke-opacity="0.5019607843137255" fill="none" d="M -9.061870 32.296136 Q 115.478977 58.703204, 227.000000 -5.275468" stroke-width="0.500000" />
<path stroke="#000000" stroke-opacity="0.5019607843137255" fill="none" d="M 227.000000 214.047929 Q -16.000000 264.152130, 5.753328 98.472190" stroke-width="0.500000" />
<path stroke="#000000" stroke-opacity="0.5019607843137255" fill="none" d="M -0.862107 227.829931 Q 141.358643 268.927954, 130.817519 100.840626" stroke-width="0.500000" />
<path stroke="#000000" stroke-opacity="0.5019607843137255" fill="none" d="M 217.177815 264.420323 Q 140.830707 55.055312, -3.826288 226.720219" stroke-width="0.500000" />
<path stroke="#ffeeb2" stroke-opacity="0.5019607843137255" fill="none" d="M 1.664546 8.039393 Q 93.921706 14.077963, 39.050391 144.630028" stroke-width="0.500000" />
<path stroke="#000000" stroke-opacity="0.5019607843137255" fill="none" d="M 227.000000 253.588825 Q -14.659570 270.156741, 2.705415 160.771560" stroke-width="0.500000" />
<path stroke="#f6f9c3" stroke-opacity="0.5019607843137255" fill="none" d="M 195.143434 6.405746 Q 166.661954 104.369974, 143.184148 163.647007" stroke-width="0.500000" />
<path stroke="#daffec" stroke-opacity="0.5019607843137255" fill="none" d="M 180.151296 13.790406 Q 67.290100 -1.972095, -16.000000 22.817925" stroke-width="0.500000" />
<path stroke="#ffe9a9" stroke-opacity="0.5019607843137255" fill="none" d="M 218.211667 22.222434 Q 56.649928 35.965108, 39.350749 92.091895" stroke-width="0.500000" />
<path stroke="#000000" stroke-opacity="0.5019607843137255" fill="none" d="M 166.342180 93.070732 Q 227.000000 221.500140, 174.405971 256.067892" stroke-width="0.500000" />
<path stroke="#000000" stroke-opacity="0.5019607843137255" fill="none" d="M 132.349646 158.150159 Q -16.000000 118.691479, 13.168207 255.161245" stroke-width="0.500000" />
<path stroke="#000000" stroke-opacity="0.5019607843137255" fill="none" d="M -8.250869 243.379883 Q 227.000000 248.701430, 187.334359 106.828058" stroke-width="0.500000" />
<path stroke="#000000" stroke-opacity="0.5019607843137255" fill="none" d="M 213.958370 205.497807 Q -7.864648 264.820622, 12.648808 95.495244" stroke-width="0.500000" />
<path stroke="#000000" stroke-opacity="0.5019607843137255" fill="none" d="M -13.105993 256.251093 Q 111.159918 60.463898, 217.894213 264.102869" stroke-width="0.500000" />
<path stroke="#000000" stroke-opacity="0.5019607843137255" fill="none" d="M 0.405804 237.923308 Q 170.386527 258.573892, 121.859375 107.665451" stroke-width="0.500000" />
<path stroke="#ece7af" stroke-opacity="0.5019607843137255" fill="none" d="M 215.209070 30.240769 Q 70.131112 89.873281, 0.917991 7.674562" stroke-width="0.500000" />
<path stroke="#fff5b5" stroke-opacity="0.5019607843137255" fill="none" d="M 144.515689 149.741247 Q 145.503771 97.488903, 111.148137 -0.964222" stroke-width="0.500000" />
<path stroke="#000000" stroke-opacity="0.5019607843137255" fill="none" d="M 203.637054 254.411855 Q 221.994466 111.258603, 155.278180 95.423305" stroke-width="0.500000" />
<path stroke="#f2e6ac" stroke-opacity="0.5019607843137255" fill="none" d="M -1.139961 23.743294 Q 130.652219 92.687455, 211.495093 64.636250" stroke-width="0.500000" />
<path stroke="#ffe5a1" stroke-opacity="0.5019607843137255" fill="none" d="M 163.376942 -16.000000 Q 133.730698 81.372245, 153.193097 167.591212" stroke-width="0.500000" />
<path stroke="#000000" stroke-opacity="0.5019607843137255" fill="none" d="M -3.789792 235.251423 Q 125.421769 257.893876, 96.527389 102.760779" stroke-width="0.500000" />
<path stroke="#000000" stroke-opacity="0.5019607843137255" fill="none" d="M -1.316377 240.443537 Q 34.760654 132.631168, 223.690123 256.202276" stroke-width="0.500000" />
<path stroke="#000000" stroke-opacity="0.5019607843137255" fill="none" d="M 169.695594 260.852419 Q 227.000000 171.672793, 158.171022 81.269221" stroke-width="0.500000" />
<path stroke="#000000" stroke-opacity="0.5019607843137255" fill="none" d="M 105.177948 101.164339 Q 166.753172 232.242951, -16.000000 255.253916" stroke-width="0.500000" />
<path stroke="#e5fffa" stroke-opacity="0.5019607843137255" fill="none" d="M 201.677733 70.061775 Q 226.667059 -8.152976, 120.667803 1.919255" stroke-width="0.500000" />
<path stroke="#ffeba7" stroke-opacity="0.5019607843137255" fill="none" d="M -16.000000 -16.000000 Q 61.208707 52.807845, 45.127343 146.759772" stroke-width="0.500000" />
<path stroke="#ffe8ab" stroke-opacity="0.5019607843137255" fill="none" d="M 163.977281 160.614211 Q 157.953754 162.158823, 121.787790 2.613828" stroke-width="0.500000" />
<path stroke="#000000" stroke-opacity="0.5019607843137255" fill="none" d="M 123.214747 252.394094 Q 227.000000 271.000000, 209.016756 109.794532" stroke-width="0.500000" />
<path stroke="#ffffff" stroke-opacity="0.5019607843137255" fill="none" d="M 204.099340 0.325494 Q 227.000000 56.505580, 168.453335 81.996246" stroke-width="0.500000" />
<path stroke="#000000" stroke-opacity="0.5019607843137255" fill="none" d="M 7.844636 158.646401 Q -11.482743 268.589601, 208.847540 250.651970" stroke-width="0.500000" />
<path stroke="#e8f1c1" stroke-opacity="0.5019607843137255" fill="none" d="M 219.379939 34.499802 Q -3.546833 24.470285, -6.179394 9.628228" stroke-width="0.500000" />
<path stroke="#000000" stroke-opacity="0.5019607843137255" fill="none" d="M 133.527249 98.984472 Q 85.940117 257.911321, -4.262485 233.528817" stroke-width="0.500000" />
<path stroke="#000000" stroke-opacity="0.5019607843137255" fill="none" d="M 137.900017 254.202144 Q 227.000000 246.931442, 169.903519 98.196854" stroke-width="0.500000" />
<path stroke="#000000" stroke-opacity="0.5019607843137255" fill="none" d="M 131.810258 94.632586 Q 124.480712 262.658936, -4.977274 203.165700" stroke-width="0.500000" />
<path stroke="#000000" stroke-opacity="0.5019607843137255" fill="none" d="M 203.436535 255.956414 Q 35.777985 138.587562, -0.566331 256.201877" stroke-width="0.500000" />
<path stroke="#000000" stroke-opacity="0.5019607843137255" fill="none" d="M 0.655598 250.434612 Q 158.693181 271.000000, 113.611417 103.139730" stroke-width="0.500000" />
<path stroke="#fae7b1" stroke-opacity="0.5019607843137255" fill="none" d="M 41.781032 144.621581 Q 92.866583 8.967497, 6.962685 3.611930" stroke-width="0.500000" />
<path stroke="#000000" stroke-opacity="0.5019607843137255" fill="none" d="M 153.376615 95.890441 Q 227.000000 116.657478, 190.713627 258.835512" stroke-width="0.500000" />
<path stroke="#c9f2e0" stroke-opacity="0.5019607843137255" fill="none" d="M -4.338418 41.594414 Q 48.261424 2.260957, 227.000000 0.428432" stroke-width="0.500000" />
<path stroke="#e4e2b1" stroke-opacity="0.5019607843137255" fill="none" d="M -16.000000 4.374947 Q 114.217147 48.003838, 210.372411 58.815368" stroke-width="0.500000" />
<path stroke="#fffff8" stroke-opacity="0.5019607843137255" fill="none" d="M 189.260724 1.350152 Q 227.000000 18.442680, 178.768462 85.500256" stroke-width="0.500000" />
<path stroke="#000000" stroke-opacity="0.5019607843137255" fill="none" d="M 94.724056 95.354322 Q 144.766530 229.395003, -0.870671 234.709566" stroke-width="0.500000" />
<path stroke="#000000" stroke-opacity="0.5019607843137255" fill="none" d="M -4.291614 214.144878 Q 220.343147 265.295716, 198.919631 105.598235" stroke-width="0.500000" />
<path stroke="#fbe59d" stroke-opacity="0.5019607843137255" fill="none" d="M -6.194914 45.584254 Q 104.576227 117.992714, 153.411338 1.959088" stroke-width="0.500000" />
<path stroke="#000000" stroke-opacity="0.5019607843137255" fill="none" d="M 125.324764 253.499717 Q 227.000000 240.944878, 154.236640 73.946435" stroke-width="0.500000" />
<path stroke="#fbdd92" stroke-opacity="0.5019607843137255" fill="none" d="M -2.917765 38.316435 Q 108.999577 124.125624, 164.941637 7.478975" stroke-width="0.500000" />
<path stroke="#000000" stroke-opacity="0.5019607843137255" fill="none" d="M -2.315832 226.843364 Q 140.766679 259.101054, 102.624160 109.127858" stroke-width="0.500000" />
<path stroke="#000000" stroke-opacity="0.5019607843137255" fill="none" d="M 215.850634 102.205826 Q 169.780903 271.000000, 2.561071 174.276514" stroke-width="0.500000" />
<path stroke="#ecfddd" stroke-opacity="0.5019607843137255" fill="none" d="M 110.407580 72.935531 Q 98.520048 -13.855106, 227.000000 9.543847" stroke-width="0.500000" />
<path stroke="#000000" stroke-opacity="0.5019607843137255" fill="none" d="M -1.962024 223.188389 Q 100.869133 255.109831, 104.277969 90.199811" stroke-width="0.500000" />
<path stroke="#ffebb2" stroke-opacity="0.5019607843137255" fill="none" d="M 88.703087 -0.220848 Q 34.642508 62.182505, 46.357968 146.054491" stroke-width="0.500000" />
<path stroke="#000000" stroke-opacity="0.5019607843137255" fill="none" d="M 18.305954 261.094254 Q -16.000000 152.564144, 120.228148 135.849732" stroke-width="0.500000" />
<path stroke="#000000" stroke-opacity="0.5019607843137255" fill="none" d="M 220.810631 264.733874 Q 122.353120 68.000951, 1.382307 225.384623" stroke-width="0.500000" />
<path stroke="#f6d9a0" stroke-opacity="0.5019607843137255" fill="none" d="M 159.787531 177.071222 Q 174.039658 82.102840, 48.183288 -16.000000" stroke-width="0.500000" />
<path stroke="#000000" stroke-opacity="0.5019607843137255" fill="none" d="M 212.860070 253.209269 Q 142.879667 235.671169, 185.564818 98.130929" stroke-width="0.500000" />
<path stroke="#000000" stroke-opacity="0.5019607843137255" fill="none" d="M 10.235957 271.000000 Q -5.950297 106.978756, 139.765179 165.898288" stroke-width="0.500000" />
<path stroke="#e7ffd3" stroke-opacity="0.5019607843137255" fill="none" d="M -0.865165 46.024131 Q 179.205971 -16.000000, 189.136540 65.154668" stroke-width="0.500000" />
<path stroke="#000000" stroke-opacity="0.5019607843137255" fill="none" d="M 195.795421 255.033084 Q 227.000000 163.391134, 161.335180 88.843950" stroke-width="0.500000" />
<path stroke="#000000" stroke-opacity="0.5019607843137255" fill="none" d="M -6.810166 225.055643 Q 60.823261 100.316358, 225.199423 271.000000" stroke-width="0.500000" />
<path stroke="#000000" stroke-opacity="0.5019607843137255" fill="none" d="M -6.202974 246.173658 Q 121.898388 271.000000, 88.817627 96.157557" stroke-width="0.500000" />
<path stroke="#000000" stroke-opacity="0.5019607843137255" fill="none" d="M -16.000000 253.581315 Q 120.644928 260.926673, 227.000000 242.666609" stroke-width="0.500000" />
<path stroke="#f8dba0" stroke-opacity="0.5019607843137255" fill="none" d="M 133.343062 -7.728973 Q 138.325693 178.438767, 153.408875 192.816573" stroke-width="0.500000" />
<path stroke="#d7f6de" stroke-opacity="0.5019607843137255" fill="none" d="M 13.738229 7.650943 Q 184.398954 -16.000000, 188.334070 80.307509" stroke-width="0.500000" />
<path stroke="#f9d89e" stroke-opacity="0.5019607843137255" fill="none" d="M 77.156062 2.372616 Q 162.795664 51.826140, 159.412827 182.676788" stroke-width="0.500000" />
<path stroke="#000000" stroke-opacity="0.5019607843137255" fill="none" d="M 176.297620 90.312042 Q 227.000000 167.488453, 205.042140 266.323100" stroke-width="0.500000" />
<path stroke="#000000" stroke-opacity="0.5019607843137255" fill="none" d="M 171.523410 271.000000 Q 185.459063 178.479430, 162.793320 73.465888" stroke-width="0.500000" />
<path stroke="#ffe79e" stroke-opacity="0.5019607843137255" fill="none" d="M 37.117296 140.222102 Q 24.615625 133.480922, 88.592867 29.796585" stroke-width="0.500000" />
<path stroke="#000000" stroke-opacity="0.5019607843137255" fill="none" d="M 106.638923 97.899909 Q 94.903805 271.000000, -12.099689 241.441513" stroke-width="0.500000" />
<path stroke="#000000" stroke-opacity="0.5019607843137255" fill="none" d="M 129.946947 99.690913 Q 110.273831 199.676330, -16.000000 264.519232" stroke-width="0.500000" />
<path stroke="#fffff0" stroke-opacity="0.5019607843137255" fill="none" d="M 169.163396 83.324296 Q 223.804471 61.665232, 207.980591 2.499340" stroke-width="0.500000" />
<path stroke="#d7fae4" stroke-opacity="0.5019607843137255" fill="none" d="M 209.066606 70.021232 Q 215.539275 -16.000000, 3.057483 10.964731" stroke-width="0.500000" />
<path stroke="#000000" stroke-opacity="0.5019607843137255" fill="none" d="M -16.000000 96.867111 Q 38.011611 216.662440, 204.300334 254.254114" stroke-width="0.500000" />
<path stroke="#000000" stroke-opacity="0.5019607843137255" fill="none" d="M 126.575549 148.603853 Q -15.979770 141.628277, 21.020500 271.000000" stroke-width="0.500000" />
<path stroke="#000000" stroke-opacity="0.5019607843137255" fill="none" d="M 227.000000 205.252855 Q 5.452976 258.032852, 0.622335 158.827339" stroke-width="0.500000" />
<path stroke="#e2dfad" stroke-opacity="0.5019607843137255" fill="none" d="M 211.191256 47.028426 Q 41.400722 68.858110, -14.023072 -11.683685" stroke-width="0.500000" />
<path stroke="#f3ffdd" stroke-opacity="0.5019607843137255" fill="none" d="M 220.546301 15.780989 Q 113.102455 -16.000000, 112.961527 73.269891" stroke-width="0.500000" />
<path stroke="#000000" stroke-opacity="0.5019607843137255" fill="none" d="M 206.027075 103.592089 Q 140.839683 240.562591, 194.820735 254.604542" stroke-width="0.500000" />
<path stroke="#fffdb8" stroke-opacity="0.5019607843137255" fill="none" d="M 17.929791 96.485861 Q 7.076215 149.399837, 71.994384 137.309675" stroke-width="0.500000" />
<path stroke="#d4f9df" stroke-opacity="0.5019607843137255" fill="none" d="M 212.853367 18.294978 Q 40.992939 -4.332194, -16.000000 38.751917" stroke-width="0.500000" />
<path stroke="#000000" stroke-opacity="0.5019607843137255" fill="none" d="M 173.235908 96.561459 Q 222.485207 200.221721, 189.365277 264.764772" stroke-width="0.500000" />
<path stroke="#000000" stroke-opacity="0.5019607843137255" fill="none" d="M 226.422676 248.912455 Q 14.100092 264.560159, 5.986654 159.664926" stroke-width="0.500000" />
<path stroke="#000000" stroke-opacity="0.5019607843137255" fill="none" d="M 227.000000 254.468246 Q 32.545990 134.569539, -0.085376 204.384937" stroke-width="0.500000" />
<path stroke="#fffff8" stroke-opacity="0.5019607843137255" fill="none" d="M 200.123413 -5.455961 Q 227.000000 55.172126, 170.884874 79.401305" stroke-width="0.500000" />
<path stroke="#000000" stroke-opacity="0.5019607843137255" fill="none" d="M 7.623408 254.947905 Q -16.000000 189.502063, 133.760713 115.202067" stroke-width="0.500000" />
<path stroke="#eaecbb" stroke-opacity="0.5019607843137255" fill="none" d="M 139.666562 162.567162 Q 176.016470 72.047835, 206.234717 -16.000000" stroke-width="0.500000" />
<path stroke="#000000" stroke-opacity="0.5019607843137255" fill="none" d="M 177.083620 107.678258 Q 223.859482 105.168600, 206.880768 247.685527" stroke-width="0.500000" />
<path stroke="#ffdea1" stroke-opacity="0.5019607843137255" fill="none" d="M 135.532940 141.990544 Q 134.478245 114.488728, 142.747414 -11.046743" stroke-width="0.500000" />
<path stroke="#000000" stroke-opacity="0.5019607843137255" fill="none" d="M 1.467892 247.348919 Q -0.312681 104.229366, 130.347051 174.174659" stroke-width="0.500000" />
<path stroke="#000000" stroke-opacity="0.5019607843137255" fill="none" d="M 175.017280 85.453509 Q 156.018127 145.167063, 198.599419 271.000000" stroke-width="0.500000" />
<path stroke="#000000" stroke-opacity="0.5019607843137255" fill="none" d="M -16.000000 271.000000 Q 74.419167 187.578886, 131.460344 100.789688" stroke-width="0.500000" />
<path stroke="#000000" stroke-opacity="0.5019607843137255" fill="none" d="M 167.633205 96.125780 Q 227.000000 156.969789, 196.115537 267.047857" stroke-width="0.500000" />
<path stroke="#000000" stroke-opacity="0.5019607843137255" fill="none" d="M -0.398737 193.098589 Q 125.069945 111.395341, 135.603178 254.280400" stroke-width="0.500000" />
<path stroke="#ffe19d" stroke-opacity="0.5019607843137255" fill="none" d="M 44.885855 146.414719 Q 12.849124 118.051240, 90.544759 27.002345" stroke-width="0.500000" />
<path stroke="#000000" stroke-opacity="0.5019607843137255" fill="none" d="M 170.567621 261.706099 Q 222.306728 197.756664, 162.625767 91.317649" stroke-width="0.500000" />
<path stroke="#e0fedd" stroke-opacity="0.5019607843137255" fill="none" d="M 209.485278 76.512181 Q 211.468484 -13.458374, 48.381369 20.786626" stroke-width="0.500000" />
<path stroke="#000000" stroke-opacity="0.5019607843137255" fill="none" d="M 152.444542 75.239103 Q 219.058077 169.331596, 194.355810 249.630719" stroke-width="0.500000" />
<path stroke="#f4f7c4" stroke-opacity="0.5019607843137255" fill="none" d="M 136.501863 149.949718 Q 161.019937 116.858544, 222.398300 -7.637403" stroke-width="0.500000" />
<path stroke="#000000" stroke-opacity="0.5019607843137255" fill="none" d="M 121.733461 98.579508 Q 126.542707 271.000000, -1.308459 252.535627" stroke-width="0.500000" />
<path stroke="#e3e8b7" stroke-opacity="0.5019607843137255" fill="none" d="M -16.000000 62.627827 Q 15.585555 42.661108, 219.600036 19.425274" stroke-width="0.500000" />
<path stroke="#000000" stroke-opacity="0.5019607843137255" fill="none" d="M 223.154341 256.928808 Q 62.388314 220.687429, 3.921415 130.197169" stroke-width="0.500000" />
<path stroke="#000000" stroke-opacity="0.5019607843137255" fill="none" d="M 138.737346 93.109392 Q 60.978249 223.116774, -16.000000 265.652522" stroke-width="0.500000" />
<path stroke="#000000" stroke-opacity="0.5019607843137255" fill="none" d="M 115.650037 254.246506 Q 227.000000 233.775501, 166.335950 100.230235" stroke-width="0.500000" />
<path stroke="#e4f2d2" stroke-opacity="0.5019607843137255" fill="none" d="M 227.000000 5.862999 Q 95.699142 -14.498703, 107.578571 75.569675" stroke-width="0.500000" />
<path stroke="#000000" stroke-opacity="0.5019607843137255" fill="none" d="M 135.745192 259.719342 Q 133.708966 103.774980, -0.282704 183.087199" stroke-width="0.500000" />
<path stroke="#060000" stroke-opacity="0.5019607843137255" fill="none" d="M 5.178679 161.855222 Q 1.482854 248.320649, 215.241384 242.312992" stroke-width="0.500000" />
<path stroke="#ffe9aa" stroke-opacity="0.5019607843137255" fill="none" d="M 41.239500 144.401930 Q 45.281347 115.944611, 42.643603 1.067442" stroke-width="0.500000" />
<path stroke="#e7eebe" stroke-opacity="0.5019607843137255" fill="none" d="M 161.877771 151.465826 Q 176.200064 25.658537, 219.922844 -1.439097" stroke-width="0.500000" />
<path stroke="#000000" stroke-opacity="0.5019607843137255" fill="none" d="M 116.958681 114.179487 Q 160.839926 250.300453, 7.199721 237.729247" stroke-width="0.500000" />
<path stroke="#efeeb5" stroke-opacity="0.5019607843137255" fill="none" d="M 153.528431 51.336087 Q 101.484131 1.179150, -9.144739 49.395542" stroke-width="0.500000" />
<path stroke="#000000" stroke-opacity="0.5019607843137255" fill="none" d="M 226.659057 198.042173 Q 10.252965 244.684936, 4.411800 152.167260" stroke-width="0.500000" />
<path stroke="#000000" stroke-opacity="0.5019607843137255" fill="none" d="M -7.894694 262.767864 Q 47.215958 169.272323, 129.665570 102.803456" stroke-width="0.500000" />
<path stroke="#ffda97" stroke-opacity="0.5019607843137255" fill="none" d="M 139.345680 156.252143 Q 146.136606 56.554388, 161.120351 -4.004790" stroke-width="0.500000" />
<path stroke="#000000" stroke-opacity="0.5019607843137255" fill="none" d="M -12.468653 262.910170 Q 63.916848 194.097213, 129.789880 101.307496" stroke-width="0.500000" />
<path stroke="#000000" stroke-opacity="0.5019607843137255" fill="none" d="M 203.500935 244.602997 Q 30.893508 141.977213, 0.426706 247.545419" stroke-width="0.500000" />
<path stroke="#edcf99" stroke-opacity="0.5019607843137255" fill="none" d="M 67.839666 -2.653615 Q 160.464775 67.689717, 164.299405 166.002321" stroke-width="0.500000" />
<path stroke="#f9e4a9" stroke-opacity="0.5019607843137255" fill="none" d="M 33.796246 137.698098 Q 95.562726 36.555227, -0.112655 10.529891" stroke-width="0.500000" />
<path stroke="#fde49e" stroke-opacity="0.5019607843137255" fill="none" d="M -16.000000 1.525461 Q 56.454042 37.332022, 43.615690 146.292861" stroke-width="0.500000" />
<path stroke="#000000" stroke-opacity="0.5019607843137255" fill="none" d="M 200.452109 255.167558 Q 227.000000 127.506706, 177.129681 106.298463" stroke-width="0.500000" />
<path stroke="#f4f3bc" stroke-opacity="0.5019607843137255" fill="none" d="M 134.030143 141.239767 Q 189.056320 79.584021, 209.496807 23.881776" stroke-width="0.500000" />
<path stroke="#000000" stroke-opacity="0.5019607843137255" fill="none" d="M 4.429269 153.004595 Q 73.244335 249.657658, 215.572845 211.163899" stroke-width="0.500000" />
<path stroke="#000000" stroke-opacity="0.5019607843137255" fill="none" d="M 18.765208 255.688745 Q 152.303252 260.633939, 123.865410 106.578328" stroke-width="0.500000" />
<path stroke="#000000" stroke-opacity="0.5019607843137255" fill="none" d="M 180.570766 253.426005 Q 180.034667 209.845453, 180.347827 86.022977" stroke-width="0.500000" />
<path stroke="#000000" stroke-opacity="0.5019607843137255" fill="none" d="M 167.800574 61.821195 Q 167.536884 167.641374, 215.597109 250.663482" stroke-width="0.500000" />
<path stroke="#ffe19c" stroke-opacity="0.5019607843137255" fill="none" d="M 44.476095 145.202375 Q -3.117598 113.512514, 81.860172 40.200362" stroke-width="0.500000" />
<path stroke="#ebe7b0" stroke-opacity="0.5019607843137255" fill="none" d="M 26.659003 -2.811860 Q 70.769518 88.315343, 126.498733 71.572938" stroke-width="0.500000" />
<path stroke="#000000" stroke-opacity="0.5019607843137255" fill="none" d="M 134.944516 156.774304 Q -11.824193 117.796584, 2.575409 239.984743" stroke-width="0.500000" />
<path stroke="#000000" stroke-opacity="0.5019607843137255" fill="none" d="M 1.602448 251.470510 Q 63.835610 267.190485, 105.813032 95.613385" stroke-width="0.500000" />
<path stroke="#000000" stroke-opacity="0.5019607843137255" fill="none" d="M 133.573317 97.645656 Q 123.852348 268.059707, -16.000000 220.908741" stroke-width="0.500000" />
<path stroke="#d8e6c1" stroke-opacity="0.5019607843137255" fill="none" d="M 215.919762 66.483671 Q 167.094884 18.725767, -6.321609 3.100284" stroke-width="0.500000" />
</g>
</svg>