<svg xmlns="http://www.w3.org/2000/svg" version="1.1" width="636" height="768">
<rect x="0" y="0" width="636" height="768" fill="#66614a" />
<g transform="scale(3) translate(0.5 0.5)">
<path stroke="#ffffff" stroke-opacity="0.5019607843137255" fill="none" d="M -1.663940 27.800066 Q 206.876583 -16.000000, 207.265899 73.233955" stroke-width="0.500000" />
<path stroke="#ffffff" stroke-opacity="0.5019607843137255" fill="none" d="M 210.971392 62.141457 Q 210.944989 -16.000000, -6.052530 23.962277" stroke-width="0.500000" />
<path stroke="#ffffff" stroke-opacity="0.5019607843137255" fill="none" d="M 204.808994 70.926939 Q 201.206025 -16.000000, -7.307348 32.887583" stroke-width="0.500000" />
<path stroke="#ffffff" stroke-opacity="0.5019607843137255" fill="none" d="M 0.739452 33.963022 Q 199.472044 -16.000000, 204.986797 76.219046" stroke-width="0.500000" />
<path stroke="#ffffff" stroke-opacity="0.5019607843137255" fill="none" d="M 208.461605 68.052483 Q 206.323433 -16.000000, -6.834856 26.800435" stroke-width="0.500000" />
<path stroke="#ffffff" stroke-opacity="0.5019607843137255" fill="none" d="M -5.013479 21.615157 Q 210.625089 -16.000000, 211.561227 59.302776" stroke-width="0.500000" />
<path stroke="#fbffff" stroke-opacity="0.5019607843137255" fill="none" d="M 2.216084 50.382386 Q 1.230991 -15.634031, 216.222212 17.353415" stroke-width="0.500000" />
<path stroke="#fffffd" stroke-opacity="0.5019607843137255" fill="none" d="M -4.617149 49.972962 Q 188.942571 -16.000000, 199.039990 68.325426" stroke-width="0.500000" />
<path stroke="#ffffff" stroke-opacity="0.5019607843137255" fill="none" d="M 211.167331 65.470150 Q 203.241499 -16.000000, 0.626395 24.658880" stroke-width="0.500000" />
<path stroke="#fffffd" stroke-opacity="0.5019607843137255" fill="none" d="M 212.735095 63.365049 Q 171.095097 -16.000000, -16.000000 44.293609" stroke-width="0.500000" />
<path stroke="#feffff" stroke-opacity="0.5019607843137255" fill="none" d="M 211.093857 52.929880 Q 209.362177 -16.000000, -13.143548 20.903790" stroke-width="0.500000" />
<path stroke="#fffffa" stroke-opacity="0.5019607843137255" fill="none" d="M -16.000000 50.335288 Q 199.568027 -16.000000, 211.770037 40.523194" stroke-width="0.500000" />
<path stroke="#fffff1" stroke-opacity="0.5019607843137255" fill="none" d="M -6.383398 54.786567 Q 175.463305 -16.000000, 212.209757 67.590718" stroke-width="0.500000" />
<path stroke="#f3ffff" stroke-opacity="0.5019607843137255" fill="none" d="M 227.000000 16.222130 Q 74.464435 -8.521624, -16.000000 22.556779" stroke-width="0.500000" />
<path stroke="#fffff6" stroke-opacity="0.5019607843137255" fill="none" d="M -10.040323 48.889188 Q 90.804573 2.680648, 227.000000 31.420451" stroke-width="0.500000" />
<path stroke="#ffffe5" stroke-opacity="0.5019607843137255" fill="none" d="M 200.517519 58.954150 Q 171.473399 -9.688816, -2.592145 54.281670" stroke-width="0.500000" />
<path stroke="#edffff" stroke-opacity="0.5019607843137255" fill="none" d="M 210.451753 36.447172 Q 207.993372 -16.000000, -16.000000 14.827019" stroke-width="0.500000" />
<path stroke="#ffffde" stroke-opacity="0.5019607843137255" fill="none" d="M 207.613340 70.299314 Q 108.701372 -16.000000, -5.885919 45.839037" stroke-width="0.500000" />
<path stroke="#ffffe5" stroke-opacity="0.5019607843137255" fill="none" d="M -16.000000 62.542538 Q 70.290335 19.357936, 227.000000 20.150649" stroke-width="0.500000" />
<path stroke="#f8fffc" stroke-opacity="0.5019607843137255" fill="none" d="M -8.114521 32.984742 Q 35.789797 13.266996, 227.000000 9.071873" stroke-width="0.500000" />
<path stroke="#d8fffd" stroke-opacity="0.5019607843137255" fill="none" d="M 221.098244 6.037080 Q 100.728173 -3.747214, -16.000000 12.384004" stroke-width="0.500000" />
<path stroke="#ffffd2" stroke-opacity="0.5019607843137255" fill="none" d="M -15.995847 62.991444 Q 190.930761 -16.000000, 204.004983 77.430828" stroke-width="0.500000" />
<path stroke="#f8ffe7" stroke-opacity="0.5019607843137255" fill="none" d="M -16.000000 54.202901 Q 80.732582 13.783666, 208.491747 13.893109" stroke-width="0.500000" />
<path stroke="#fbffef" stroke-opacity="0.5019607843137255" fill="none" d="M 212.365239 19.717459 Q 61.062459 12.825260, 3.419664 43.050710" stroke-width="0.500000" />
<path stroke="#e3fffb" stroke-opacity="0.5019607843137255" fill="none" d="M 227.000000 10.060698 Q 11.205804 -16.000000, -16.000000 70.327669" stroke-width="0.500000" />
<path stroke="#ffffc9" stroke-opacity="0.5019607843137255" fill="none" d="M 18.435678 52.666167 Q 141.913321 7.533541, 208.531222 67.664105" stroke-width="0.500000" />
<path stroke="#ffffcf" stroke-opacity="0.5019607843137255" fill="none" d="M 216.980993 78.561830 Q 102.420789 -9.111339, -16.000000 39.604918" stroke-width="0.500000" />
<path stroke="#ffffd9" stroke-opacity="0.5019607843137255" fill="none" d="M 223.001154 -16.000000 Q 193.998389 23.069216, 143.575573 167.674652" stroke-width="0.500000" />
<path stroke="#fefdc2" stroke-opacity="0.5019607843137255" fill="none" d="M -16.000000 17.926213 Q 185.046235 90.298170, 210.913164 13.571767" stroke-width="0.500000" />
<path stroke="#ffffc5" stroke-opacity="0.5019607843137255" fill="none" d="M 211.381137 5.683999 Q 206.472176 72.121692, -4.521065 37.148799" stroke-width="0.500000" />
<path stroke="#ffffc6" stroke-opacity="0.5019607843137255" fill="none" d="M 1.052092 54.362151 Q 156.768323 1.041747, 216.792353 71.712860" stroke-width="0.500000" />
<path stroke="#eafffe" stroke-opacity="0.5019607843137255" fill="none" d="M 43.099985 13.508894 Q 215.053805 -12.305368, 212.107894 58.409542" stroke-width="0.500000" />
<path stroke="#e6ffe6" stroke-opacity="0.5019607843137255" fill="none" d="M 213.332488 12.043221 Q 77.907884 -16.000000, -5.851501 70.417068" stroke-width="0.500000" />
<path stroke="#f3ffde" stroke-opacity="0.5019607843137255" fill="none" d="M -2.032181 50.829265 Q 84.054842 23.546910, 227.000000 13.081013" stroke-width="0.500000" />
<path stroke="#ffffd4" stroke-opacity="0.5019607843137255" fill="none" d="M 209.776600 -6.880788 Q 170.331269 92.246271, 141.739895 160.221424" stroke-width="0.500000" />
<path stroke="#f6ffea" stroke-opacity="0.5019607843137255" fill="none" d="M -16.000000 41.727298 Q 179.785407 -16.000000, 212.093398 62.803808" stroke-width="0.500000" />
<path stroke="#fbf8bd" stroke-opacity="0.5019607843137255" fill="none" d="M 227.000000 -14.176907 Q 142.395553 77.213610, -16.000000 35.561629" stroke-width="0.500000" />
<path stroke="#fffcbb" stroke-opacity="0.5019607843137255" fill="none" d="M 110.737143 -16.000000 Q 158.174590 141.207642, 141.142015 155.028132" stroke-width="0.500000" />
<path stroke="#efffe5" stroke-opacity="0.5019607843137255" fill="none" d="M 213.761873 44.593589 Q 129.696910 -16.000000, -12.916901 44.603654" stroke-width="0.500000" />
<path stroke="#fffabf" stroke-opacity="0.5019607843137255" fill="none" d="M 143.297933 150.843667 Q 142.196097 -4.898935, 9.102407 12.433539" stroke-width="0.500000" />
<path stroke="#fcffd0" stroke-opacity="0.5019607843137255" fill="none" d="M 145.879006 162.908644 Q 174.785221 84.589849, 212.407002 3.205549" stroke-width="0.500000" />
<path stroke="#f1f5bf" stroke-opacity="0.5019607843137255" fill="none" d="M 1.025169 3.880042 Q 24.205403 80.804128, 210.799134 13.348376" stroke-width="0.500000" />
<path stroke="#fdffce" stroke-opacity="0.5019607843137255" fill="none" d="M 221.206466 -5.342970 Q 188.412018 70.292234, 134.766983 156.989454" stroke-width="0.500000" />
<path stroke="#fff6bf" stroke-opacity="0.5019607843137255" fill="none" d="M 40.833178 112.252912 Q 13.979119 44.904615, 213.967473 6.251739" stroke-width="0.500000" />
<path stroke="#000000" stroke-opacity="0.5019607843137255" fill="none" d="M -1.659205 246.163289 Q 170.936128 262.809024, 123.596243 104.424782" stroke-width="0.500000" />
<path stroke="#ffffcc" stroke-opacity="0.5019607843137255" fill="none" d="M 138.774093 142.982912 Q 170.427104 101.407490, 202.161627 -1.670970" stroke-width="0.500000" />
<path stroke="#000000" stroke-opacity="0.5019607843137255" fill="none" d="M 211.179588 255.613478 Q 84.452499 87.336808, 1.178116 254.053777" stroke-width="0.500000" />
<path stroke="#f6f7c2" stroke-opacity="0.5019607843137255" fill="none" d="M -7.902457 49.318113 Q 170.603787 39.627869, 227.000000 0.124246" stroke-width="0.500000" />
<path stroke="#000000" stroke-opacity="0.5019607843137255" fill="none" d="M 102.963980 90.857908 Q 145.534072 257.449721, -3.801944 255.847569" stroke-width="0.500000" />
<path stroke="#000000" stroke-opacity="0.5019607843137255" fill="none" d="M -8.405394 271.000000 Q 103.399740 84.118586, 220.988814 268.357627" stroke-width="0.500000" />
</g>
</svg>