<svg xmlns="http://www.w3.org/2000/svg" version="1.1" width="636" height="768">
<rect x="0" y="0" width="636" height="768" fill="#66614a" />
<g transform="scale(3) translate(0.5 0.5)">
<rect fill="#f3f8c8" fill-opacity="0.5019607843137255" x="0" y="0" width="212" height="76" />
<rect fill="#000000" fill-opacity="0.5019607843137255" x="166" y="101" width="46" height="155" />
<rect fill="#ffffd5" fill-opacity="0.5019607843137255" x="134" y="109" width="34" height="43" />
<rect fill="#000000" fill-opacity="0.5019607843137255" x="0" y="144" width="136" height="112" />
<rect fill="#c59f62" fill-opacity="0.5019607843137255" x="14" y="50" width="47" height="97" />
<rect fill="#060e16" fill-opacity="0.5019607843137255" x="86" y="104" width="47" height="125" />
<rect fill="#66390e" fill-opacity="0.5019607843137255" x="150" y="32" width="22" height="79" />
<rect fill="#332112" fill-opacity="0.5019607843137255" x="85" y="30" width="16" height="40" />
<rect fill="#d5e7c8" fill-opacity="0.5019607843137255" x="174" y="6" width="37" height="78" />
<rect fill="#414019" fill-opacity="0.5019607843137255" x="0" y="56" width="34" height="33" />
<rect fill="#000005" fill-opacity="0.5019607843137255" x="165" y="137" width="47" height="119" />
<rect fill="#d6a96e" fill-opacity="0.5019607843137255" x="135" y="25" width="18" height="149" />
<rect fill="#f6c98e" fill-opacity="0.5019607843137255" x="36" y="72" width="15" height="71" />
<rect fill="#bd814a" fill-opacity="0.5019607843137255" x="103" y="229" width="22" height="26" />
<rect fill="#5c3c1f" fill-opacity="0.5019607843137255" x="132" y="54" width="45" height="17" />
<rect fill="#b5d2c4" fill-opacity="0.5019607843137255" x="0" y="3" width="212" height="25" />
<rect fill="#966545" fill-opacity="0.5019607843137255" x="189" y="70" width="23" height="40" />
<rect fill="#00000b" fill-opacity="0.5019607843137255" x="128" y="238" width="37" height="18" />
<rect fill="#595222" fill-opacity="0.5019607843137255" x="29" y="49" width="37" height="11" />
<rect fill="#1c0e00" fill-opacity="0.5019607843137255" x="1" y="166" width="94" height="90" />
<rect fill="#fcedad" fill-opacity="0.5019607843137255" x="140" y="112" width="26" height="35" />
<rect fill="#cce8bd" fill-opacity="0.5019607843137255" x="0" y="28" width="59" height="21" />
<rect fill="#848d7e" fill-opacity="0.5019607843137255" x="135" y="150" width="30" height="44" />
<rect fill="#ffffbb" fill-opacity="0.5019607843137255" x="170" y="74" width="18" height="12" />
<rect fill="#cdc391" fill-opacity="0.5019607843137255" x="13" y="113" width="26" height="23" />
<rect fill="#5b3914" fill-opacity="0.5019607843137255" x="66" y="60" width="9" height="47" />
<rect fill="#111e14" fill-opacity="0.5019607843137255" x="3" y="96" width="10" height="48" />
<rect fill="#3b2b0d" fill-opacity="0.5019607843137255" x="18" y="138" width="20" height="101" />
<rect fill="#e2bd7d" fill-opacity="0.5019607843137255" x="102" y="23" width="57" height="31" />
<rect fill="#071015" fill-opacity="0.5019607843137255" x="95" y="111" width="37" height="34" />
<rect fill="#f7e8b6" fill-opacity="0.5019607843137255" x="35" y="136" width="37" height="5" />
<rect fill="#ffffbd" fill-opacity="0.5019607843137255" x="76" y="89" width="62" height="2" />
<rect fill="#806a4f" fill-opacity="0.5019607843137255" x="114" y="160" width="4" height="75" />
<rect fill="#c59a60" fill-opacity="0.5019607843137255" x="73" y="62" width="76" height="14" />
<rect fill="#161b1d" fill-opacity="0.5019607843137255" x="71" y="140" width="26" height="116" />
<rect fill="#0e1413" fill-opacity="0.5019607843137255" x="170" y="112" width="42" height="144" />
<rect fill="#ab8d62" fill-opacity="0.5019607843137255" x="0" y="144" width="14" height="9" />
<rect fill="#4b412d" fill-opacity="0.5019607843137255" x="57" y="95" width="51" height="31" />
<rect fill="#e7b985" fill-opacity="0.5019607843137255" x="40" y="87" width="21" height="17" />
<rect fill="#a6895d" fill-opacity="0.5019607843137255" x="79" y="16" width="23" height="18" />
<rect fill="#59573c" fill-opacity="0.5019607843137255" x="31" y="99" width="8" height="24" />
<rect fill="#bd8e57" fill-opacity="0.5019607843137255" x="57" y="43" width="11" height="37" />
<rect fill="#81664c" fill-opacity="0.5019607843137255" x="189" y="72" width="23" height="39" />
<rect fill="#65838a" fill-opacity="0.5019607843137255" x="0" y="0" width="108" height="5" />
<rect fill="#bdb78f" fill-opacity="0.5019607843137255" x="64" y="132" width="21" height="7" />
<rect fill="#754928" fill-opacity="0.5019607843137255" x="54" y="116" width="7" height="35" />
<rect fill="#d5e5c5" fill-opacity="0.5019607843137255" x="189" y="22" width="21" height="49" />
<rect fill="#3b464c" fill-opacity="0.5019607843137255" x="135" y="214" width="31" height="32" />
<rect fill="#c7d2b4" fill-opacity="0.5019607843137255" x="98" y="11" width="44" height="24" />
<rect fill="#644e2d" fill-opacity="0.5019607843137255" x="150" y="53" width="20" height="30" />
</g>
</svg>