<svg xmlns="http://www.w3.org/2000/svg" version="1.1" width="636" height="768">
<rect x="0" y="0" width="636" height="768" fill="#66614a" />
<g transform="scale(3) translate(0.5 0.5)">
<rect fill="#f3f8c8" fill-opacity="0.5019607843137255" x="0" y="0" width="212" height="76" />
<rect fill="#000000" fill-opacity="0.5019607843137255" x="166" y="101" width="46" height="155" />
<rect fill="#ffffd5" fill-opacity="0.5019607843137255" x="134" y="109" width="34" height="43" />
<rect fill="#000000" fill-opacity="0.5019607843137255" x="0" y="144" width="136" height="112" />
<rect fill="#c59f62" fill-opacity="0.5019607843137255" x="14" y="50" width="47" height="97" />
<rect fill="#060e16" fill-opacity="0.5019607843137255" x="86" y="104" width="47" height="125" />
<rect fill="#66390e" fill-opacity="0.5019607843137255" x="150" y="32" width="22" height="79" />
<rect fill="#332112" fill-opacity="0.5019607843137255" x="85" y="30" width="16" height="40" />
<rect fill="#d5e7c8" fill-opacity="0.5019607843137255" x="174" y="6" width="37" height="78" />
<rect fill="#414019" fill-opacity="0.5019607843137255" x="0" y="56" width="34" height="33" />
<rect fill="#000005" fill-opacity="0.5019607843137255" x="165" y="137" width="47" height="119" />
<rect fill="#d6a96e" fill-opacity="0.5019607843137255" x="135" y="25" width="18" height="149" />
<rect fill="#f6c98e" fill-opacity="0.5019607843137255" x="36" y="72" width="15" height="71" />
<rect fill="#bd814a" fill-opacity="0.5019607843137255" x="103" y="229" width="22" height="26" />
<rect fill="#5c3c1f" fill-opacity="0.5019607843137255" x="132" y="54" width="45" height="17" />
<rect fill="#b5d2c4" fill-opacity="0.5019607843137255" x="0" y="3" width="212" height="25" />
<rect fill="#966545" fill-opacity="0.5019607843137255" x="189" y="70" width="23" height="40" />
<rect fill="#00000b" fill-opacity="0.5019607843137255" x="128" y="238" width="37" height="18" />
<rect fill="#595222" fill-opacity="0.5019607843137255" x="29" y="49" width="37" height="11" />
<rect fill="#1c0e00" fill-opacity="0.5019607843137255" x="1" y="166" width="94" height="90" />
<rect fill="#fcedad" fill-opacity="0.5019607843137255" x="140" y="112" width="26" height="35" />
<rect fill="#cce8bd" fill-opacity="0.5019607843137255" x="0" y="28" width="59" height="21" />
<rect fill="#848d7e" fill-opacity="0.5019607843137255" x="135" y="150" width="30" height="44" />
<rect fill="#ffffbb" fill-opacity="0.5019607843137255" x="170" y="74" width="18" height="12" />
<rect fill="#cdc391" fill-opacity="0.5019607843137255" x="13" y="113" width="26" height="23" />
<rect fill="#5b3914" fill-opacity="0.5019607843137255" x="66" y="60" width="9" height="47" />
<rect fill="#111e14" fill-opacity="0.5019607843137255" x="3" y="96" width="10" height="48" />
<rect fill="#3b2b0d" fill-opacity="0.5019607843137255" x="18" y="138" width="20" height="101" />
<rect fill="#e2bd7d" fill-opacity="0.5019607843137255" x="102" y="23" width="57" height="31" />
<rect fill="#071015" fill-opacity="0.5019607843137255" x="95" y="111" width="37" height="34" />
<rect fill="#f7e8b6" fill-opacity="0.5019607843137255" x="35" y="136" width="37" height="5" />
<rect fill="#ffffbd" fill-opacity="0.5019607843137255" x="76" y="89" width="62" height="2" />
<rect fill="#806a4f" fill-opacity="0.5019607843137255" x="114" y="160" width="4" height="75" />
<rect fill="#c59a60" fill-opacity="0.5019607843137255" x="73" y="62" width="76" height="14" />
<rect fill="#161b1d" fill-opacity="0.5019607843137255" x="71" y="140" width="26" height="116" />
<rect fill="#0e1413" fill-opacity="0.5019607843137255" x="170" y="112" width="42" height="144" />
<rect fill="#ab8d62" fill-opacity="0.5019607843137255" x="0" y="144" width="14" height="9" />
<rect fill="#4b412d" fill-opacity="0.5019607843137255" x="57" y="95" width="51" height="31" />
<rect fill="#e7b985" fill-opacity="0.5019607843137255" x="40" y="87" width="21" height="17" />
<rect fill="#a6895d" fill-opacity="0.5019607843137255" x="79" y="16" width="23" height="18" />
<rect fill="#59573c" fill-opacity="0.5019607843137255" x="31" y="99" width="8" height="24" />
<rect fill="#bd8e57" fill-opacity="0.5019607843137255" x="57" y="43" width="11" height="37" />
<rect fill="#81664c" fill-opacity="0.5019607843137255" x="189" y="72" width="23" height="39" />
<rect fill="#65838a" fill-opacity="0.5019607843137255" x="0" y="0" width="108" height="5" />
<rect fill="#bdb78f" fill-opacity="0.5019607843137255" x="64" y="132" width="21" height="7" />
<rect fill="#754928" fill-opacity="0.5019607843137255" x="54" y="116" width="7" height="35" />
<rect fill="#d5e5c5" fill-opacity="0.5019607843137255" x="189" y="22" width="21" height="49" />
<rect fill="#3b464c" fill-opacity="0.5019607843137255" x="135" y="214" width="31" height="32" />
<rect fill="#c7d2b4" fill-opacity="0.5019607843137255" x="98" y="11" width="44" height="24" />
<rect fill="#644e2d" fill-opacity="0.5019607843137255" x="150" y="53" width="20" height="30" />
<rect fill="#655a45" fill-opacity="0.5019607843137255" x="0" y="68" width="32" height="31" />
<rect fill="#f6e5ad" fill-opacity="0.5019607843137255" x="41" y="133" width="8" height="14" />
<rect fill="#887e48" fill-opacity="0.5019607843137255" x="167" y="84" width="45" height="14" />
<rect fill="#cf9d65" fill-opacity="0.5019607843137255" x="132" y="62" width="16" height="22" />
<rect fill="#010910" fill-opacity="0.5019607843137255" x="1" y="198" width="16" height="58" />
<rect fill="#e9c989" fill-opacity="0.5019607843137255" x="72" y="41" width="12" height="25" />
<rect fill="#232827" fill-opacity="0.5019607843137255" x="83" y="148" width="55" height="35" />
<rect fill="#000b1d" fill-opacity="0.5019607843137255" x="25" y="140" width="11" height="9" />
<rect fill="#7a7c6b" fill-opacity="0.5019607843137255" x="68" y="100" width="10" height="39" />
<rect fill="#00010b" fill-opacity="0.5019607843137255" x="90" y="27" width="5" height="6" />
<rect fill="#fff9c2" fill-opacity="0.5019607843137255" x="32" y="131" width="10" height="8" />
<rect fill="#d3e2b4" fill-opacity="0.5019607843137255" x="5" y="47" width="19" height="10" />
<rect fill="#b99052" fill-opacity="0.5019607843137255" x="143" y="24" width="20" height="27" />
<rect fill="#9d9071" fill-opacity="0.5019607843137255" x="109" y="93" width="9" height="14" />
<rect fill="#825e31" fill-opacity="0.5019607843137255" x="96" y="240" width="16" height="16" />
<rect fill="#361c06" fill-opacity="0.5019607843137255" x="172" y="54" width="5" height="12" />
<rect fill="#1f2526" fill-opacity="0.5019607843137255" x="167" y="132" width="18" height="42" />
<rect fill="#cbc69d" fill-opacity="0.5019607843137255" x="63" y="135" width="7" height="11" />
<rect fill="#9d6f48" fill-opacity="0.5019607843137255" x="104" y="231" width="29" height="6" />
<rect fill="#555e35" fill-opacity="0.5019607843137255" x="34" y="48" width="20" height="8" />
<rect fill="#5f5b00" fill-opacity="0.5019607843137255" x="176" y="88" width="13" height="18" />
<rect fill="#623121" fill-opacity="0.5019607843137255" x="199" y="100" width="13" height="17" />
<rect fill="#0e0d0b" fill-opacity="0.5019607843137255" x="60" y="145" width="28" height="15" />
<rect fill="#252003" fill-opacity="0.5019607843137255" x="71" y="67" width="3" height="29" />
<rect fill="#2d2d27" fill-opacity="0.5019607843137255" x="86" y="35" width="4" height="31" />
<rect fill="#746d58" fill-opacity="0.5019607843137255" x="90" y="138" width="2" height="40" />
<rect fill="#e1d29b" fill-opacity="0.5019607843137255" x="139" y="114" width="30" height="12" />
<rect fill="#cbbe91" fill-opacity="0.5019607843137255" x="92" y="36" width="2" height="32" />
<rect fill="#848372" fill-opacity="0.5019607843137255" x="91" y="95" width="4" height="21" />
<rect fill="#978a71" fill-opacity="0.5019607843137255" x="114" y="132" width="1" height="60" />
<rect fill="#605437" fill-opacity="0.5019607843137255" x="9" y="135" width="18" height="19" />
<rect fill="#392509" fill-opacity="0.5019607843137255" x="33" y="163" width="33" height="72" />
<rect fill="#2f3015" fill-opacity="0.5019607843137255" x="79" y="97" width="29" height="8" />
<rect fill="#b08255" fill-opacity="0.5019607843137255" x="119" y="55" width="13" height="21" />
<rect fill="#6b5a38" fill-opacity="0.5019607843137255" x="162" y="29" width="8" height="52" />
<rect fill="#bcd0ab" fill-opacity="0.5019607843137255" x="7" y="17" width="63" height="22" />
<rect fill="#8a7340" fill-opacity="0.5019607843137255" x="34" y="71" width="8" height="12" />
<rect fill="#274336" fill-opacity="0.5019607843137255" x="0" y="97" width="16" height="11" />
<rect fill="#080e0b" fill-opacity="0.5019607843137255" x="169" y="104" width="20" height="13" />
<rect fill="#dbbe82" fill-opacity="0.5019607843137255" x="102" y="30" width="17" height="38" />
<rect fill="#d49e57" fill-opacity="0.5019607843137255" x="53" y="143" width="6" height="7" />
<rect fill="#544d39" fill-opacity="0.5019607843137255" x="95" y="38" width="7" height="28" />
<rect fill="#887a62" fill-opacity="0.5019607843137255" x="103" y="194" width="23" height="2" />
<rect fill="#5c3218" fill-opacity="0.5019607843137255" x="60" y="95" width="5" height="39" />
<rect fill="#b8caab" fill-opacity="0.5019607843137255" x="169" y="3" width="30" height="32" />
<rect fill="#997f5e" fill-opacity="0.5019607843137255" x="66" y="33" width="12" height="12" />
<rect fill="#988c6a" fill-opacity="0.5019607843137255" x="148" y="108" width="19" height="7" />
<rect fill="#c7bc8e" fill-opacity="0.5019607843137255" x="0" y="89" width="27" height="2" />
<rect fill="#040e16" fill-opacity="0.5019607843137255" x="128" y="100" width="6" height="12" />
<rect fill="#010200" fill-opacity="0.5019607843137255" x="72" y="138" width="5" height="16" />
<rect fill="#9bb7b5" fill-opacity="0.5019607843137255" x="57" y="1" width="155" height="7" />
<rect fill="#494c3c" fill-opacity="0.5019607843137255" x="137" y="113" width="1" height="113" />
<rect fill="#171307" fill-opacity="0.5019607843137255" x="123" y="239" width="19" height="17" />
<rect fill="#0e1c1f" fill-opacity="0.5019607843137255" x="32" y="145" width="11" height="11" />
<rect fill="#443322" fill-opacity="0.5019607843137255" x="170" y="45" width="3" height="27" />
<rect fill="#e5d099" fill-opacity="0.5019607843137255" x="82" y="48" width="41" height="1" />
<rect fill="#3b3024" fill-opacity="0.5019607843137255" x="134" y="54" width="7" height="8" />
<rect fill="#483123" fill-opacity="0.5019607843137255" x="117" y="196" width="5" height="37" />
<rect fill="#6e6958" fill-opacity="0.5019607843137255" x="113" y="93" width="1" height="68" />
<rect fill="#c77d64" fill-opacity="0.5019607843137255" x="188" y="100" width="8" height="9" />
<rect fill="#fbd9a3" fill-opacity="0.5019607843137255" x="55" y="82" width="4" height="13" />
<rect fill="#4d3f15" fill-opacity="0.5019607843137255" x="146" y="97" width="42" height="6" />
<rect fill="#aa7950" fill-opacity="0.5019607843137255" x="63" y="87" width="9" height="9" />
<rect fill="#7e6d4f" fill-opacity="0.5019607843137255" x="0" y="150" width="5" height="17" />
<rect fill="#000000" fill-opacity="0.5019607843137255" x="154" y="53" width="10" height="3" />
<rect fill="#5f4d26" fill-opacity="0.5019607843137255" x="91" y="77" width="40" height="10" />
<rect fill="#d2a76a" fill-opacity="0.5019607843137255" x="145" y="25" width="7" height="38" />
<rect fill="#c2c8ac" fill-opacity="0.5019607843137255" x="133" y="119" width="3" height="31" />
<rect fill="#bba777" fill-opacity="0.5019607843137255" x="80" y="133" width="4" height="10" />
<rect fill="#3f312d" fill-opacity="0.5019607843137255" x="50" y="80" width="6" height="6" />
<rect fill="#192021" fill-opacity="0.5019607843137255" x="94" y="113" width="19" height="82" />
<rect fill="#d9b174" fill-opacity="0.5019607843137255" x="42" y="62" width="22" height="17" />
<rect fill="#4f670e" fill-opacity="0.5019607843137255" x="209" y="66" width="3" height="6" />
<rect fill="#d0a470" fill-opacity="0.5019607843137255" x="38" y="89" width="18" height="26" />
<rect fill="#402a10" fill-opacity="0.5019607843137255" x="150" y="62" width="5" height="19" />
<rect fill="#d6cd9a" fill-opacity="0.5019607843137255" x="165" y="89" width="13" height="2" />
<rect fill="#c7925c" fill-opacity="0.5019607843137255" x="135" y="71" width="10" height="38" />
<rect fill="#a4a281" fill-opacity="0.5019607843137255" x="140" y="149" width="24" height="13" />
<rect fill="#bbd0bc" fill-opacity="0.5019607843137255" x="114" y="5" width="56" height="19" />
<rect fill="#c6b282" fill-opacity="0.5019607843137255" x="108" y="92" width="3" height="16" />
<rect fill="#baa97a" fill-opacity="0.5019607843137255" x="13" y="110" width="21" height="22" />
<rect fill="#555b4b" fill-opacity="0.5019607843137255" x="0" y="0" width="94" height="1" />
<rect fill="#fbf2c5" fill-opacity="0.5019607843137255" x="170" y="76" width="6" height="7" />
<rect fill="#5c615b" fill-opacity="0.5019607843137255" x="136" y="163" width="8" height="50" />
<rect fill="#a36e47" fill-opacity="0.5019607843137255" x="48" y="115" width="6" height="23" />
<rect fill="#98a998" fill-opacity="0.5019607843137255" x="0" y="4" width="63" height="8" />
<rect fill="#121719" fill-opacity="0.5019607843137255" x="116" y="158" width="18" height="29" />
<rect fill="#74969b" fill-opacity="0.5019607843137255" x="105" y="0" width="107" height="2" />
<rect fill="#061014" fill-opacity="0.5019607843137255" x="48" y="144" width="4" height="16" />
<rect fill="#7f6a49" fill-opacity="0.5019607843137255" x="37" y="161" width="26" height="2" />
<rect fill="#bdd6cc" fill-opacity="0.5019607843137255" x="71" y="9" width="13" height="14" />
<rect fill="#e3d9a9" fill-opacity="0.5019607843137255" x="176" y="64" width="12" height="19" />
<rect fill="#606560" fill-opacity="0.5019607843137255" x="142" y="192" width="22" height="37" />
<rect fill="#463319" fill-opacity="0.5019607843137255" x="3" y="152" width="36" height="18" />
<rect fill="#d2e2cb" fill-opacity="0.5019607843137255" x="203" y="29" width="9" height="36" />
<rect fill="#b69e6f" fill-opacity="0.5019607843137255" x="81" y="20" width="27" height="8" />
<rect fill="#dac68f" fill-opacity="0.5019607843137255" x="74" y="66" width="33" height="2" />
<rect fill="#3f3411" fill-opacity="0.5019607843137255" x="27" y="74" width="4" height="21" />
<rect fill="#5f4e2a" fill-opacity="0.5019607843137255" x="65" y="57" width="4" height="10" />
<rect fill="#917045" fill-opacity="0.5019607843137255" x="155" y="60" width="7" height="23" />
<rect fill="#181f20" fill-opacity="0.5019607843137255" x="116" y="106" width="13" height="85" />
<rect fill="#836f52" fill-opacity="0.5019607843137255" x="124" y="39" width="2" height="30" />
<rect fill="#816e58" fill-opacity="0.5019607843137255" x="188" y="72" width="24" height="27" />
<rect fill="#8f7752" fill-opacity="0.5019607843137255" x="115" y="191" width="2" height="41" />
<rect fill="#c0a15a" fill-opacity="0.5019607843137255" x="33" y="58" width="16" height="15" />
<rect fill="#060a0c" fill-opacity="0.5019607843137255" x="131" y="193" width="4" height="39" />
<rect fill="#e6e2b8" fill-opacity="0.5019607843137255" x="169" y="93" width="2" height="5" />
<rect fill="#e9d69d" fill-opacity="0.5019607843137255" x="156" y="113" width="11" height="22" />
<rect fill="#7c7e37" fill-opacity="0.5019607843137255" x="0" y="55" width="10" height="13" />
<rect fill="#3a3e3c" fill-opacity="0.5019607843137255" x="140" y="234" width="29" height="17" />
<rect fill="#9f8a65" fill-opacity="0.5019607843137255" x="88" y="10" width="8" height="14" />
<rect fill="#d6af71" fill-opacity="0.5019607843137255" x="128" y="27" width="26" height="28" />
<rect fill="#1e2526" fill-opacity="0.5019607843137255" x="167" y="129" width="6" height="55" />
<rect fill="#5a6155" fill-opacity="0.5019607843137255" x="162" y="104" width="6" height="9" />
<rect fill="#a5926e" fill-opacity="0.5019607843137255" x="76" y="25" width="11" height="11" />
<rect fill="#85826b" fill-opacity="0.5019607843137255" x="142" y="156" width="19" height="39" />
<rect fill="#4f4a2b" fill-opacity="0.5019607843137255" x="80" y="104" width="11" height="27" />
<rect fill="#87623d" fill-opacity="0.5019607843137255" x="101" y="237" width="26" height="9" />
<rect fill="#46544e" fill-opacity="0.5019607843137255" x="165" y="150" width="2" height="38" />
<rect fill="#787565" fill-opacity="0.5019607843137255" x="92" y="93" width="4" height="22" />
<rect fill="#1b1b17" fill-opacity="0.5019607843137255" x="40" y="151" width="50" height="9" />
<rect fill="#bd9b67" fill-opacity="0.5019607843137255" x="131" y="59" width="6" height="20" />
<rect fill="#a1b185" fill-opacity="0.5019607843137255" x="149" y="122" width="3" height="23" />
<rect fill="#020706" fill-opacity="0.5019607843137255" x="128" y="252" width="30" height="4" />
<rect fill="#c9d1a8" fill-opacity="0.5019607843137255" x="0" y="44" width="31" height="8" />
<rect fill="#bcc897" fill-opacity="0.5019607843137255" x="173" y="34" width="24" height="16" />
<rect fill="#171918" fill-opacity="0.5019607843137255" x="64" y="199" width="35" height="45" />
<rect fill="#946741" fill-opacity="0.5019607843137255" x="151" y="80" width="7" height="17" />
<rect fill="#9c9174" fill-opacity="0.5019607843137255" x="54" y="45" width="15" height="7" />
<rect fill="#39372b" fill-opacity="0.5019607843137255" x="169" y="34" width="2" height="21" />
<rect fill="#38270a" fill-opacity="0.5019607843137255" x="12" y="163" width="65" height="21" />
<rect fill="#563d1c" fill-opacity="0.5019607843137255" x="96" y="251" width="30" height="5" />
<rect fill="#fbedb9" fill-opacity="0.5019607843137255" x="40" y="143" width="10" height="2" />
<rect fill="#645e43" fill-opacity="0.5019607843137255" x="30" y="98" width="7" height="22" />
<rect fill="#756f55" fill-opacity="0.5019607843137255" x="27" y="151" width="5" height="6" />
<rect fill="#76863d" fill-opacity="0.5019607843137255" x="23" y="53" width="11" height="13" />
<rect fill="#533d21" fill-opacity="0.5019607843137255" x="47" y="52" width="9" height="6" />
<rect fill="#000000" fill-opacity="0.5019607843137255" x="72" y="142" width="10" height="3" />
<rect fill="#5a482e" fill-opacity="0.5019607843137255" x="69" y="63" width="3" height="54" />
<rect fill="#111212" fill-opacity="0.5019607843137255" x="171" y="109" width="23" height="12" />
<rect fill="#bdd0a3" fill-opacity="0.5019607843137255" x="170" y="22" width="20" height="14" />
<rect fill="#2e2d0c" fill-opacity="0.5019607843137255" x="73" y="72" width="3" height="17" />
<rect fill="#7d7d73" fill-opacity="0.5019607843137255" x="90" y="108" width="1" height="40" />
<rect fill="#ffffd4" fill-opacity="0.5019607843137255" x="180" y="83" width="2" height="4" />
<rect fill="#0c1a1c" fill-opacity="0.5019607843137255" x="24" y="143" width="15" height="4" />
<rect fill="#e4d7a1" fill-opacity="0.5019607843137255" x="138" y="140" width="21" height="9" />
<rect fill="#000c18" fill-opacity="0.5019607843137255" x="168" y="100" width="6" height="9" />
<rect fill="#c3ddc6" fill-opacity="0.5019607843137255" x="120" y="17" width="7" height="20" />
<rect fill="#5c431a" fill-opacity="0.5019607843137255" x="160" y="71" width="7" height="28" />
<rect fill="#696552" fill-opacity="0.5019607843137255" x="113" y="93" width="23" height="9" />
</g>
</svg>