<svg xmlns="http://www.w3.org/2000/svg" version="1.1" width="636" height="768">
<rect x="0" y="0" width="636" height="768" fill="#66614a" />
<g transform="scale(3) translate(0.5 0.5)">
<g transform="translate(106 12) rotate(274) scale(127 223)"><rect fill="#f4f8c9" fill-opacity="0.5019607843137255" x="-0.5" y="-0.5" width="1" height="1" /></g>
<g transform="translate(67 212) rotate(79) scale(136 150)"><rect fill="#000000" fill-opacity="0.5019607843137255" x="-0.5" y="-0.5" width="1" height="1" /></g>
<g transform="translate(190 189) rotate(182) scale(50 173)"><rect fill="#000000" fill-opacity="0.5019607843137255" x="-0.5" y="-0.5" width="1" height="1" /></g>
<g transform="translate(150 133) rotate(92) scale(49 33)"><rect fill="#ffffce" fill-opacity="0.5019607843137255" x="-0.5" y="-0.5" width="1" height="1" /></g>
<g transform="translate(41 101) rotate(286) scale(81 34)"><rect fill="#f8c680" fill-opacity="0.5019607843137255" x="-0.5" y="-0.5" width="1" height="1" /></g>
<g transform="translate(161 72) rotate(272) scale(80 23)"><rect fill="#64370c" fill-opacity="0.5019607843137255" x="-0.5" y="-0.5" width="1" height="1" /></g>
<g transform="translate(111 135) rotate(175) scale(47 58)"><rect fill="#000814" fill-opacity="0.5019607843137255" x="-0.5" y="-0.5" width="1" height="1" /></g>
<g transform="translate(93 47) rotate(271) scale(38 16)"><rect fill="#2c1c0f" fill-opacity="0.5019607843137255" x="-0.5" y="-0.5" width="1" height="1" /></g>
<g transform="translate(202 188) rotate(273) scale(153 68)"><rect fill="#000006" fill-opacity="0.5019607843137255" x="-0.5" y="-0.5" width="1" height="1" /></g>
<g transform="translate(195 39) rotate(75) scale(64 46)"><rect fill="#d8f3d6" fill-opacity="0.5019607843137255" x="-0.5" y="-0.5" width="1" height="1" /></g>
<g transform="translate(23 72) rotate(259) scale(37 99)"><rect fill="#7c6733" fill-opacity="0.5019607843137255" x="-0.5" y="-0.5" width="1" height="1" /></g>
<g transform="translate(143 72) rotate(178) scale(18 74)"><rect fill="#d58f4e" fill-opacity="0.5019607843137255" x="-0.5" y="-0.5" width="1" height="1" /></g>
<g transform="translate(113 244) rotate(102) scale(28 23)"><rect fill="#bb8049" fill-opacity="0.5019607843137255" x="-0.5" y="-0.5" width="1" height="1" /></g>
<g transform="translate(38 214) rotate(310) scale(108 116)"><rect fill="#1d1002" fill-opacity="0.5019607843137255" x="-0.5" y="-0.5" width="1" height="1" /></g>
<g transform="translate(96 17) rotate(348) scale(211 33)"><rect fill="#bad4bf" fill-opacity="0.5019607843137255" x="-0.5" y="-0.5" width="1" height="1" /></g>
<g transform="translate(154 130) rotate(277) scale(36 26)"><rect fill="#ffeaa8" fill-opacity="0.5019607843137255" x="-0.5" y="-0.5" width="1" height="1" /></g>
<g transform="translate(201 92) rotate(188) scale(28 41)"><rect fill="#8e6043" fill-opacity="0.5019607843137255" x="-0.5" y="-0.5" width="1" height="1" /></g>
<g transform="translate(54 140) rotate(184) scale(32 11)"><rect fill="#f4d7a0" fill-opacity="0.5019607843137255" x="-0.5" y="-0.5" width="1" height="1" /></g>
<g transform="translate(149 188) rotate(91) scale(77 26)"><rect fill="#7a7f74" fill-opacity="0.5019607843137255" x="-0.5" y="-0.5" width="1" height="1" /></g>
<g transform="translate(178 79) rotate(282) scale(13 16)"><rect fill="#ffffc4" fill-opacity="0.5019607843137255" x="-0.5" y="-0.5" width="1" height="1" /></g>
<g transform="translate(163 68) rotate(110) scale(36 23)"><rect fill="#573d1f" fill-opacity="0.5019607843137255" x="-0.5" y="-0.5" width="1" height="1" /></g>
<g transform="translate(50 83) rotate(109) scale(42 20)"><rect fill="#e8bd89" fill-opacity="0.5019607843137255" x="-0.5" y="-0.5" width="1" height="1" /></g>
<g transform="translate(134 40) rotate(-4) scale(58 30)"><rect fill="#e2bb79" fill-opacity="0.5019607843137255" x="-0.5" y="-0.5" width="1" height="1" /></g>
<g transform="translate(153 235) rotate(167) scale(29 49)"><rect fill="#363d42" fill-opacity="0.5019607843137255" x="-0.5" y="-0.5" width="1" height="1" /></g>
<g transform="translate(0 119) rotate(358) scale(26 47)"><rect fill="#1e281d" fill-opacity="0.5019607843137255" x="-0.5" y="-0.5" width="1" height="1" /></g>
<g transform="translate(77 36) rotate(134) scale(59 13)"><rect fill="#aa8758" fill-opacity="0.5019607843137255" x="-0.5" y="-0.5" width="1" height="1" /></g>
<g transform="translate(29 86) rotate(352) scale(12 55)"><rect fill="#595636" fill-opacity="0.5019607843137255" x="-0.5" y="-0.5" width="1" height="1" /></g>
<g transform="translate(132 67) rotate(199) scale(26 29)"><rect fill="#9e7345" fill-opacity="0.5019607843137255" x="-0.5" y="-0.5" width="1" height="1" /></g>
<g transform="translate(30 128) rotate(38) scale(41 11)"><rect fill="#e4d59f" fill-opacity="0.5019607843137255" x="-0.5" y="-0.5" width="1" height="1" /></g>
<g transform="translate(106 90) rotate(181) scale(63 1)"><rect fill="#ffffbc" fill-opacity="0.5019607843137255" x="-0.5" y="-0.5" width="1" height="1" /></g>
<g transform="translate(93 106) rotate(90) scale(21 28)"><rect fill="#34331b" fill-opacity="0.5019607843137255" x="-0.5" y="-0.5" width="1" height="1" /></g>
<g transform="translate(91 182) rotate(88) scale(77 43)"><rect fill="#13191c" fill-opacity="0.5019607843137255" x="-0.5" y="-0.5" width="1" height="1" /></g>
<g transform="translate(93 33) rotate(52) scale(9 10)"><rect fill="#392d1e" fill-opacity="0.5019607843137255" x="-0.5" y="-0.5" width="1" height="1" /></g>
<g transform="translate(69 0) rotate(88) scale(8 139)"><rect fill="#61828b" fill-opacity="0.5019607843137255" x="-0.5" y="-0.5" width="1" height="1" /></g>
<g transform="translate(55 170) rotate(312) scale(50 41)"><rect fill="#3a280e" fill-opacity="0.5019607843137255" x="-0.5" y="-0.5" width="1" height="1" /></g>
<g transform="translate(22 116) rotate(7) scale(18 33)"><rect fill="#aea074" fill-opacity="0.5019607843137255" x="-0.5" y="-0.5" width="1" height="1" /></g>
<g transform="translate(79 135) rotate(294) scale(11 12)"><rect fill="#bcb085" fill-opacity="0.5019607843137255" x="-0.5" y="-0.5" width="1" height="1" /></g>
<g transform="translate(143 255) rotate(289) scale(20 34)"><rect fill="#020506" fill-opacity="0.5019607843137255" x="-0.5" y="-0.5" width="1" height="1" /></g>
<g transform="translate(109 147) rotate(267) scale(70 49)"><rect fill="#1e2423" fill-opacity="0.5019607843137255" x="-0.5" y="-0.5" width="1" height="1" /></g>
<g transform="translate(154 171) rotate(89) scale(44 21)"><rect fill="#949074" fill-opacity="0.5019607843137255" x="-0.5" y="-0.5" width="1" height="1" /></g>
<g transform="translate(14 151) rotate(156) scale(31 25)"><rect fill="#604d2f" fill-opacity="0.5019607843137255" x="-0.5" y="-0.5" width="1" height="1" /></g>
<g transform="translate(115 184) rotate(265) scale(57 1)"><rect fill="#998a74" fill-opacity="0.5019607843137255" x="-0.5" y="-0.5" width="1" height="1" /></g>
<g transform="translate(72 77) rotate(263) scale(33 6)"><rect fill="#322102" fill-opacity="0.5019607843137255" x="-0.5" y="-0.5" width="1" height="1" /></g>
<g transform="translate(139 58) rotate(64) scale(8 5)"><rect fill="#04080c" fill-opacity="0.5019607843137255" x="-0.5" y="-0.5" width="1" height="1" /></g>
<g transform="translate(74 56) rotate(59) scale(19 10)"><rect fill="#edcc8c" fill-opacity="0.5019607843137255" x="-0.5" y="-0.5" width="1" height="1" /></g>
<g transform="translate(55 138) rotate(84) scale(25 8)"><rect fill="#b77f4c" fill-opacity="0.5019607843137255" x="-0.5" y="-0.5" width="1" height="1" /></g>
<g transform="translate(41 52) rotate(179) scale(25 7)"><rect fill="#4e5824" fill-opacity="0.5019607843137255" x="-0.5" y="-0.5" width="1" height="1" /></g>
<g transform="translate(126 19) rotate(46) scale(21 31)"><rect fill="#c1dccb" fill-opacity="0.5019607843137255" x="-0.5" y="-0.5" width="1" height="1" /></g>
<g transform="translate(76 111) rotate(372) scale(38 38)"><rect fill="#63533b" fill-opacity="0.5019607843137255" x="-0.5" y="-0.5" width="1" height="1" /></g>
<g transform="translate(0 72) rotate(106) scale(36 39)"><rect fill="#646440" fill-opacity="0.5019607843137255" x="-0.5" y="-0.5" width="1" height="1" /></g>
</g>
</svg>