<svg xmlns="http://www.w3.org/2000/svg" version="1.1" width="636" height="768">
<rect x="0" y="0" width="636" height="768" fill="#66614a" />
<g transform="scale(3) translate(0.5 0.5)">
<g transform="translate(120.482747 33.503848) rotate(272.104655) scale(43.349604 149.242565)"><ellipse fill="#f7fccd" fill-opacity="0.5019607843137255" cx="0" cy="0" rx="1" ry="1" /></g>
<g transform="translate(146.520019 223.804863) rotate(98.632589) scale(75.999287 191.118578)"><ellipse fill="#000000" fill-opacity="0.5019607843137255" cx="0" cy="0" rx="1" ry="1" /></g>
<g transform="translate(149.977915 147.903973) rotate(177.226459) scale(16.114672 66.541712)"><ellipse fill="#ecdaaa" fill-opacity="0.5019607843137255" cx="0" cy="0" rx="1" ry="1" /></g>
<g transform="translate(193.314699 147.873643) rotate(165.964466) scale(24.571029 46.166376)"><ellipse fill="#000000" fill-opacity="0.5019607843137255" cx="0" cy="0" rx="1" ry="1" /></g>
<g transform="translate(38.101851 102.116225) rotate(18.678795) scale(22.059532 40.982109)"><ellipse fill="#ecbf7d" fill-opacity="0.5019607843137255" cx="0" cy="0" rx="1" ry="1" /></g>
<g transform="translate(151.761652 72.164876) rotate(103.808004) scale(43.828476 24.059357)"><ellipse fill="#8b5826" fill-opacity="0.5019607843137255" cx="0" cy="0" rx="1" ry="1" /></g>
<g transform="translate(109.977352 136.825054) rotate(192.909812) scale(23.958061 31.762526)"><ellipse fill="#00000f" fill-opacity="0.5019607843137255" cx="0" cy="0" rx="1" ry="1" /></g>
<g transform="translate(93.249448 50.135769) rotate(88.983596) scale(21.048935 9.287398)"><ellipse fill="#352311" fill-opacity="0.5019607843137255" cx="0" cy="0" rx="1" ry="1" /></g>
<g transform="translate(198.186814 39.407296) rotate(205.260279) scale(13.727707 53.162463)"><ellipse fill="#def3d1" fill-opacity="0.5019607843137255" cx="0" cy="0" rx="1" ry="1" /></g>
<g transform="translate(200.681999 194.760414) rotate(277.459224) scale(82.394040 33.289710)"><ellipse fill="#000207" fill-opacity="0.5019607843137255" cx="0" cy="0" rx="1" ry="1" /></g>
<g transform="translate(150.611589 128.392591) rotate(188.979862) scale(18.051924 23.052667)"><ellipse fill="#f9eaad" fill-opacity="0.5019607843137255" cx="0" cy="0" rx="1" ry="1" /></g>
<g transform="translate(43.160575 133.693866) rotate(71.709023) scale(12.766122 9.360329)"><ellipse fill="#ffeca7" fill-opacity="0.5019607843137255" cx="0" cy="0" rx="1" ry="1" /></g>
<g transform="translate(49.628522 214.079075) rotate(221.543327) scale(56.732172 73.889968)"><ellipse fill="#1a1004" fill-opacity="0.5019607843137255" cx="0" cy="0" rx="1" ry="1" /></g>
<g transform="translate(149.978640 216.931007) rotate(174.632217) scale(14.715205 54.423267)"><ellipse fill="#59625f" fill-opacity="0.5019607843137255" cx="0" cy="0" rx="1" ry="1" /></g>
<g transform="translate(37.747945 57.554969) rotate(167.515028) scale(27.661396 7.641276)"><ellipse fill="#6b6019" fill-opacity="0.5019607843137255" cx="0" cy="0" rx="1" ry="1" /></g>
<g transform="translate(111.518987 245.418928) rotate(26.256809) scale(13.398912 19.924546)"><ellipse fill="#ae7742" fill-opacity="0.5019607843137255" cx="0" cy="0" rx="1" ry="1" /></g>
<g transform="translate(75.637206 16.808916) rotate(177.422432) scale(183.849708 12.147683)"><ellipse fill="#b6d4c5" fill-opacity="0.5019607843137255" cx="0" cy="0" rx="1" ry="1" /></g>
<g transform="translate(160.221505 74.316064) rotate(191.047806) scale(11.115622 37.929615)"><ellipse fill="#573f21" fill-opacity="0.5019607843137255" cx="0" cy="0" rx="1" ry="1" /></g>
<g transform="translate(28.874902 92.236413) rotate(169.157406) scale(7.990159 23.962980)"><ellipse fill="#575035" fill-opacity="0.5019607843137255" cx="0" cy="0" rx="1" ry="1" /></g>
<g transform="translate(141.660935 56.043117) rotate(275.378947) scale(37.726965 9.469193)"><ellipse fill="#dcad6e" fill-opacity="0.5019607843137255" cx="0" cy="0" rx="1" ry="1" /></g>
<g transform="translate(29.488317 34.694952) rotate(76.499920) scale(14.686957 53.028096)"><ellipse fill="#c6ddb3" fill-opacity="0.5019607843137255" cx="0" cy="0" rx="1" ry="1" /></g>
<g transform="translate(64.666209 59.312969) rotate(299.874366) scale(52.615661 10.558586)"><ellipse fill="#c19966" fill-opacity="0.5019607843137255" cx="0" cy="0" rx="1" ry="1" /></g>
<g transform="translate(77.431533 85.537262) rotate(158.521328) scale(3.611665 32.840846)"><ellipse fill="#4a3f1f" fill-opacity="0.5019607843137255" cx="0" cy="0" rx="1" ry="1" /></g>
<g transform="translate(5.207642 120.350415) rotate(179.709119) scale(7.788226 25.158448)"><ellipse fill="#1f281d" fill-opacity="0.5019607843137255" cx="0" cy="0" rx="1" ry="1" /></g>
<g transform="translate(114.009637 122.165373) rotate(315.837794) scale(27.806323 11.237500)"><ellipse fill="#09161a" fill-opacity="0.5019607843137255" cx="0" cy="0" rx="1" ry="1" /></g>
<g transform="translate(26.019088 161.928866) rotate(262.230631) scale(26.736389 18.896040)"><ellipse fill="#413013" fill-opacity="0.5019607843137255" cx="0" cy="0" rx="1" ry="1" /></g>
<g transform="translate(201.715870 41.106716) rotate(233.181006) scale(31.420889 29.403381)"><ellipse fill="#c9dcbb" fill-opacity="0.5019607843137255" cx="0" cy="0" rx="1" ry="1" /></g>
<g transform="translate(181.213969 116.891244) rotate(323.755560) scale(9.692889 21.355572)"><ellipse fill="#060e0a" fill-opacity="0.5019607843137255" cx="0" cy="0" rx="1" ry="1" /></g>
<g transform="translate(65.927685 137.951679) rotate(322.390609) scale(15.282584 6.691166)"><ellipse fill="#b49f75" fill-opacity="0.5019607843137255" cx="0" cy="0" rx="1" ry="1" /></g>
<g transform="translate(201.957958 88.290428) rotate(28.927812) scale(8.600135 23.698755)"><ellipse fill="#a97f5c" fill-opacity="0.5019607843137255" cx="0" cy="0" rx="1" ry="1" /></g>
<g transform="translate(99.116899 90.410631) rotate(90.522006) scale(1.000000 41.459255)"><ellipse fill="#cab985" fill-opacity="0.5019607843137255" cx="0" cy="0" rx="1" ry="1" /></g>
<g transform="translate(178.256186 76.467934) rotate(140.697130) scale(10.006288 8.963569)"><ellipse fill="#ece1a6" fill-opacity="0.5019607843137255" cx="0" cy="0" rx="1" ry="1" /></g>
<g transform="translate(110.984839 165.928924) rotate(83.716899) scale(65.090269 25.856007)"><ellipse fill="#202727" fill-opacity="0.5019607843137255" cx="0" cy="0" rx="1" ry="1" /></g>
<g transform="translate(139.135031 57.240508) rotate(366.817767) scale(5.792926 4.339655)"><ellipse fill="#30271e" fill-opacity="0.5019607843137255" cx="0" cy="0" rx="1" ry="1" /></g>
<g transform="translate(133.497242 39.223193) rotate(98.442983) scale(14.280892 32.353037)"><ellipse fill="#dfbe7f" fill-opacity="0.5019607843137255" cx="0" cy="0" rx="1" ry="1" /></g>
<g transform="translate(195.804368 159.610750) rotate(258.619876) scale(35.786925 31.425251)"><ellipse fill="#181d1d" fill-opacity="0.5019607843137255" cx="0" cy="0" rx="1" ry="1" /></g>
<g transform="translate(42.616198 93.919871) rotate(353.737304) scale(7.605968 38.425395)"><ellipse fill="#d6a96f" fill-opacity="0.5019607843137255" cx="0" cy="0" rx="1" ry="1" /></g>
<g transform="translate(166.724702 62.413425) rotate(205.268251) scale(10.872831 12.495173)"><ellipse fill="#59472c" fill-opacity="0.5019607843137255" cx="0" cy="0" rx="1" ry="1" /></g>
<g transform="translate(145.630587 255.000000) rotate(121.349440) scale(14.808381 20.942881)"><ellipse fill="#0c0d0e" fill-opacity="0.5019607843137255" cx="0" cy="0" rx="1" ry="1" /></g>
<g transform="translate(75.088692 0.000000) rotate(176.977530) scale(79.570241 6.181479)"><ellipse fill="#73959c" fill-opacity="0.5019607843137255" cx="0" cy="0" rx="1" ry="1" /></g>
<g transform="translate(109.347053 68.912415) rotate(354.656190) scale(37.962752 7.103253)"><ellipse fill="#bb945d" fill-opacity="0.5019607843137255" cx="0" cy="0" rx="1" ry="1" /></g>
<g transform="translate(115.746587 193.802344) rotate(88.550578) scale(86.346848 1.245908)"><ellipse fill="#776349" fill-opacity="0.5019607843137255" cx="0" cy="0" rx="1" ry="1" /></g>
<g transform="translate(143.601117 94.488561) rotate(2.657609) scale(8.992880 20.956160)"><ellipse fill="#c49666" fill-opacity="0.5019607843137255" cx="0" cy="0" rx="1" ry="1" /></g>
<g transform="translate(74.504643 37.891183) rotate(44.265431) scale(3.735727 32.929041)"><ellipse fill="#897859" fill-opacity="0.5019607843137255" cx="0" cy="0" rx="1" ry="1" /></g>
<g transform="translate(35.410974 134.395404) rotate(133.304060) scale(4.627625 18.961821)"><ellipse fill="#e6d7a4" fill-opacity="0.5019607843137255" cx="0" cy="0" rx="1" ry="1" /></g>
<g transform="translate(63.440050 107.725586) rotate(195.872892) scale(7.046102 28.306034)"><ellipse fill="#6b4022" fill-opacity="0.5019607843137255" cx="0" cy="0" rx="1" ry="1" /></g>
<g transform="translate(151.180803 211.849217) rotate(201.105244) scale(12.301280 23.708554)"><ellipse fill="#61645b" fill-opacity="0.5019607843137255" cx="0" cy="0" rx="1" ry="1" /></g>
<g transform="translate(75.473306 144.946904) rotate(167.388459) scale(4.643515 6.293648)"><ellipse fill="#000000" fill-opacity="0.5019607843137255" cx="0" cy="0" rx="1" ry="1" /></g>
<g transform="translate(43.041225 198.036249) rotate(196.523416) scale(20.033372 59.751244)"><ellipse fill="#3a270c" fill-opacity="0.5019607843137255" cx="0" cy="0" rx="1" ry="1" /></g>
<g transform="translate(9.766272 72.691151) rotate(294.601671) scale(15.643891 30.218204)"><ellipse fill="#726a3c" fill-opacity="0.5019607843137255" cx="0" cy="0" rx="1" ry="1" /></g>
</g>
</svg>