<svg xmlns="http://www.w3.org/2000/svg" version="1.1" width="636" height="768">
<rect x="0" y="0" width="636" height="768" fill="#66614a" />
<g transform="scale(3) translate(0.5 0.5)">
<polygon fill="#f9fed2" fill-opacity="0.5019607843137255" points="208,-16 -16,18 227,101" />
<polygon fill="#000000" fill-opacity="0.5019607843137255" points="-16,254 227,255 98,94" />
<polygon fill="#000000" fill-opacity="0.5019607843137255" points="227,38 208,271 160,155" />
<polygon fill="#c7c194" fill-opacity="0.5019607843137255" points="25,143 -12,-10 179,7" />
<polygon fill="#e9d6a5" fill-opacity="0.5019607843137255" points="143,250 131,65 171,122" />
<polygon fill="#170c01" fill-opacity="0.5019607843137255" points="-16,112 151,210 5,271" />
<polygon fill="#79552b" fill-opacity="0.5019607843137255" points="177,107 39,110 170,27" />
<polygon fill="#e6c78d" fill-opacity="0.5019607843137255" points="5,128 58,148 92,130" />
<polygon fill="#342518" fill-opacity="0.5019607843137255" points="83,61 106,59 91,12" />
<polygon fill="#000007" fill-opacity="0.5019607843137255" points="171,271 227,128 167,97" />
<polygon fill="#b4d3c1" fill-opacity="0.5019607843137255" points="182,0 -16,3 -16,64" />
<polygon fill="#656054" fill-opacity="0.5019607843137255" points="91,254 168,143 162,240" />
<polygon fill="#121a20" fill-opacity="0.5019607843137255" points="56,158 133,93 136,236" />
<polygon fill="#fff5b5" fill-opacity="0.5019607843137255" points="138,109 170,115 143,164" />
<polygon fill="#cce7cd" fill-opacity="0.5019607843137255" points="216,1 151,7 227,107" />
<polygon fill="#a4804f" fill-opacity="0.5019607843137255" points="87,64 216,116 225,72" />
<polygon fill="#574c20" fill-opacity="0.5019607843137255" points="32,58 -16,54 37,116" />
<polygon fill="#462b0e" fill-opacity="0.5019607843137255" points="152,50 156,111 178,55" />
<polygon fill="#c29a66" fill-opacity="0.5019607843137255" points="55,122 90,1 -10,162" />
<polygon fill="#514531" fill-opacity="0.5019607843137255" points="105,121 69,59 50,137" />
<polygon fill="#d1a76b" fill-opacity="0.5019607843137255" points="161,22 147,80 75,69" />
<polygon fill="#edf7ca" fill-opacity="0.5019607843137255" points="169,78 185,84 203,28" />
<polygon fill="#181104" fill-opacity="0.5019607843137255" points="56,140 1,173 1,263" />
<polygon fill="#fffcbf" fill-opacity="0.5019607843137255" points="47,149 24,126 50,135" />
<polygon fill="#000306" fill-opacity="0.5019607843137255" points="225,268 168,271 227,137" />
<polygon fill="#a16834" fill-opacity="0.5019607843137255" points="137,233 105,227 93,271" />
<polygon fill="#273428" fill-opacity="0.5019607843137255" points="16,92 -16,102 8,148" />
<polygon fill="#7f8575" fill-opacity="0.5019607843137255" points="131,134 165,243 163,171" />
<polygon fill="#010506" fill-opacity="0.5019607843137255" points="123,237 150,234 132,271" />
<polygon fill="#523f29" fill-opacity="0.5019607843137255" points="207,72 190,71 180,113" />
<polygon fill="#e0b072" fill-opacity="0.5019607843137255" points="46,148 63,63 35,58" />
<polygon fill="#6b674d" fill-opacity="0.5019607843137255" points="39,81 130,73 140,104" />
<polygon fill="#d6e4af" fill-opacity="0.5019607843137255" points="63,45 -16,54 -16,20" />
<polygon fill="#7b7b60" fill-opacity="0.5019607843137255" points="63,131 84,142 97,101" />
<polygon fill="#3b280d" fill-opacity="0.5019607843137255" points="1,154 45,271 79,141" />
<polygon fill="#9b835c" fill-opacity="0.5019607843137255" points="47,56 93,7 105,21" />
<polygon fill="#7d6c55" fill-opacity="0.5019607843137255" points="116,220 113,174 121,197" />
<polygon fill="#f2d99a" fill-opacity="0.5019607843137255" points="79,76 67,49 85,53" />
<polygon fill="#5c5a1e" fill-opacity="0.5019607843137255" points="35,46 65,56 22,57" />
<polygon fill="#cdbc86" fill-opacity="0.5019607843137255" points="13,105 41,129 13,131" />
<polygon fill="#f1e1a8" fill-opacity="0.5019607843137255" points="163,147 169,118 132,148" />
<polygon fill="#0c161b" fill-opacity="0.5019607843137255" points="88,119 132,139 132,99" />
<polygon fill="#121b13" fill-opacity="0.5019607843137255" points="169,102 189,97 167,169" />
<polygon fill="#38342a" fill-opacity="0.5019607843137255" points="95,25 87,65 84,38" />
<polygon fill="#565e5a" fill-opacity="0.5019607843137255" points="134,140 166,238 138,233" />
<polygon fill="#949072" fill-opacity="0.5019607843137255" points="85,89 140,88 128,103" />
<polygon fill="#c2decc" fill-opacity="0.5019607843137255" points="120,33 165,12 98,12" />
<polygon fill="#3c291d" fill-opacity="0.5019607843137255" points="143,65 145,54 133,53" />
<polygon fill="#111014" fill-opacity="0.5019607843137255" points="98,271 91,181 47,265" />
<polygon fill="#d5a670" fill-opacity="0.5019607843137255" points="135,133 135,60 149,84" />
</g>
</svg>