<svg xmlns="http://www.w3.org/2000/svg" version="1.1" width="744" height="768">
<rect x="0" y="0" width="744" height="768" fill="#8d8b8c" />
<g transform="scale(3) translate(0.5 0.5)">
<g transform="translate(137.667678 229.156076) rotate(-25.322815) scale(233.533787 76.499073)"><ellipse fill="#000000" fill-opacity="0.5019607843137255" cx="0" cy="0" rx="1" ry="1" /></g>
<g transform="translate(68.806121 82.395355) rotate(433.267751) scale(65.213964 186.609809)"><ellipse fill="#ffffff" fill-opacity="0.5019607843137255" cx="0" cy="0" rx="1" ry="1" /></g>
<g transform="translate(112.490885 180.430722) rotate(101.754780) scale(25.526180 75.968883)"><ellipse fill="#bbb9bd" fill-opacity="0.5019607843137255" cx="0" cy="0" rx="1" ry="1" /></g>
<g transform="translate(224.801439 196.204334) rotate(79.379714) scale(74.143762 42.697914)"><ellipse fill="#000000" fill-opacity="0.5019607843137255" cx="0" cy="0" rx="1" ry="1" /></g>
<ellipse fill="#ffffff" fill-opacity="0.5019607843137255" cx="75" cy="80" rx="106" ry="43" />
<g transform="translate(209.853521 86.877889) rotate(276.265497) scale(23.688827 31.789247)"><ellipse fill="#4b4b4e" fill-opacity="0.5019607843137255" cx="0" cy="0" rx="1" ry="1" /></g>
<g transform="translate(69.852509 249.666810) rotate(371.714746) scale(247.000000 33.602781)"><ellipse fill="#0f0f13" fill-opacity="0.5019607843137255" cx="0" cy="0" rx="1" ry="1" /></g>
<g transform="translate(151.539151 142.996360) rotate(187.907949) scale(56.117746 16.878245)"><ellipse fill="#222227" fill-opacity="0.5019607843137255" cx="0" cy="0" rx="1" ry="1" /></g>
<g transform="translate(210.736418 52.525237) rotate(191.512158) scale(87.349614 16.111450)"><ellipse fill="#f6efec" fill-opacity="0.5019607843137255" cx="0" cy="0" rx="1" ry="1" /></g>
<ellipse fill="#5c5d5f" fill-opacity="0.5019607843137255" cx="33" cy="205" rx="162" ry="19" />
<polygon fill="#fbf4ee" fill-opacity="0.5019607843137255" points="163.478863,120.741577 206.053846,116.413873 132.427399,59.686492 -13.830575,87.330736" />
<g transform="translate(96.247633 7.955799) rotate(83.193476) scale(35.288803 195.841616)"><ellipse fill="#b0adae" fill-opacity="0.5019607843137255" cx="0" cy="0" rx="1" ry="1" /></g>
<g transform="translate(223.167840 165.719610) rotate(186.737592) scale(67.049751 21.190925)"><ellipse fill="#000005" fill-opacity="0.5019607843137255" cx="0" cy="0" rx="1" ry="1" /></g>
<g transform="translate(113.556188 164.458783) rotate(200.945005) scale(50.726872 12.767132)"><ellipse fill="#b9b7b8" fill-opacity="0.5019607843137255" cx="0" cy="0" rx="1" ry="1" /></g>
<ellipse fill="#9c999a" fill-opacity="0.5019607843137255" cx="104" cy="129" rx="31" ry="14" />
<g transform="translate(214.162503 70.401339) rotate(191.406626) scale(19.389777 10.610199)"><ellipse fill="#78777b" fill-opacity="0.5019607843137255" cx="0" cy="0" rx="1" ry="1" /></g>
<ellipse fill="#e8e2de" fill-opacity="0.5019607843137255" cx="2" cy="97" rx="73" ry="73" />
<polygon fill="#656568" fill-opacity="0.5019607843137255" points="204.272813,234.797378 -16.000000,177.882218 183.274871,206.848587 218.434659,221.453948" />
<g transform="translate(235.117235 164.542812) rotate(24.775837) scale(28.117710 49.879288)"><ellipse fill="#03010e" fill-opacity="0.5019607843137255" cx="0" cy="0" rx="1" ry="1" /></g>
<polygon fill="#626366" fill-opacity="0.5019607843137255" points="140,127 205,135 252,111" />
<ellipse fill="#959497" fill-opacity="0.5019607843137255" cx="147" cy="5" rx="191" ry="9" />
<g transform="translate(168.077902 62.349728) rotate(144.763886) scale(34.349164 15.436315)"><ellipse fill="#fef8f3" fill-opacity="0.5019607843137255" cx="0" cy="0" rx="1" ry="1" /></g>
<g transform="translate(26.669653 161.314565) rotate(79.337717) scale(11.686140 78.141709)"><ellipse fill="#b2b0b2" fill-opacity="0.5019607843137255" cx="0" cy="0" rx="1" ry="1" /></g>
<g transform="translate(52.756456 184.960195) rotate(166.206820) scale(27.781626 16.611453)"><ellipse fill="#79787b" fill-opacity="0.5019607843137255" cx="0" cy="0" rx="1" ry="1" /></g>
<polygon fill="#edeae9" fill-opacity="0.5019607843137255" points="237.987056,75.980274 263.000000,97.852116 255.229455,40.998355 232.402021,65.854904" />
<ellipse fill="#18171c" fill-opacity="0.5019607843137255" cx="112" cy="255" rx="247" ry="17" />
<g transform="translate(131.199543 40.319711) rotate(172.744549) scale(80.090454 15.416646)"><ellipse fill="#ddd8d5" fill-opacity="0.5019607843137255" cx="0" cy="0" rx="1" ry="1" /></g>
<g transform="translate(166.258355 158.065694) rotate(103.984575) scale(10.151226 44.810119)"><ellipse fill="#121118" fill-opacity="0.5019607843137255" cx="0" cy="0" rx="1" ry="1" /></g>
<ellipse fill="#f6f2ef" fill-opacity="0.5019607843137255" cx="18" cy="93" rx="58" ry="32" />
<polygon fill="#07080d" fill-opacity="0.5019607843137255" points="27,134 23,135 27,128" />
<polygon fill="#99979b" fill-opacity="0.5019607843137255" points="176.135240,121.191094 153.810214,114.744887 73.775996,138.721716 141.711974,130.612731" />
<g transform="translate(43.395532 23.029483) rotate(348.771874) scale(69.376643 12.790133)"><ellipse fill="#b0afb0" fill-opacity="0.5019607843137255" cx="0" cy="0" rx="1" ry="1" /></g>
<polygon fill="#363739" fill-opacity="0.5019607843137255" points="106,243 211,244 263,202" />
<polygon fill="#4e4f51" fill-opacity="0.5019607843137255" points="223.377783,106.564091 185.830461,106.653986 243.602589,89.037118 237.819107,106.688703" />
<ellipse fill="#000000" fill-opacity="0.5019607843137255" cx="65" cy="115" rx="2" ry="2" />
<polygon fill="#918f93" fill-opacity="0.5019607843137255" points="187,206 43,167 164,167" />
<g transform="translate(239.879304 22.061575) rotate(296.364417) scale(10.886747 35.370711)"><ellipse fill="#aaa8a9" fill-opacity="0.5019607843137255" cx="0" cy="0" rx="1" ry="1" /></g>
<ellipse fill="#000000" fill-opacity="0.5019607843137255" cx="47" cy="133" rx="2" ry="2" />
<polygon fill="#b2b0b3" fill-opacity="0.5019607843137255" points="263.000000,103.835980 233.241238,117.297965 216.772503,117.746312 191.254616,111.429696" />
<ellipse fill="#38383a" fill-opacity="0.5019607843137255" cx="43" cy="222" rx="101" ry="10" />
<polygon fill="#333435" fill-opacity="0.5019607843137255" points="259,123 188,155 108,141" />
<ellipse fill="#333238" fill-opacity="0.5019607843137255" cx="28" cy="126" rx="2" ry="3" />
<ellipse fill="#515154" fill-opacity="0.5019607843137255" cx="0" cy="204" rx="60" ry="10" />
<g transform="translate(29 97) rotate(-51) scale(7 1)"><rect fill="#28282d" fill-opacity="0.5019607843137255" x="-0.5" y="-0.5" width="1" height="1" /></g>
<polygon fill="#f0ece9" fill-opacity="0.5019607843137255" points="103.924844,57.668724 155.947818,116.832495 186.225778,114.580106 156.111200,40.753556" />
<polygon fill="#a4a1a4" fill-opacity="0.5019607843137255" points="230,60 178,80 190,62" />
<polygon fill="#545456" fill-opacity="0.5019607843137255" points="184.074124,123.494710 263.000000,111.405268 150.318972,146.600637 92.906308,141.166136" />
<polygon fill="#777679" fill-opacity="0.5019607843137255" points="90.787059,143.522036 84.335579,130.218352 127.354220,140.056157 161.871166,125.908454" />
<polygon fill="#cdcac9" fill-opacity="0.5019607843137255" points="51.503081,27.125108 132.835985,44.022158 52.629836,55.528520 -9.571508,55.339198" />
<g transform="translate(92.011770 121.591566) rotate(352.370726) scale(86.417321 3.496744)"><ellipse fill="#dbd6d5" fill-opacity="0.5019607843137255" cx="0" cy="0" rx="1" ry="1" /></g>
</g>
</svg>