<svg xmlns="http://www.w3.org/2000/svg" version="1.1" width="744" height="768">
<rect x="0" y="0" width="744" height="768" fill="#8d8b8c" />
<g transform="scale(3) translate(0.5 0.5)">
<ellipse fill="#000000" fill-opacity="0.5019607843137255" cx="228" cy="233" rx="230" ry="107" />
<ellipse fill="#ffffff" fill-opacity="0.5019607843137255" cx="68" cy="36" rx="128" ry="151" />
<ellipse fill="#000006" fill-opacity="0.5019607843137255" cx="208" cy="143" rx="103" ry="25" />
<ellipse fill="#f8f2ee" fill-opacity="0.5019607843137255" cx="102" cy="54" rx="227" ry="29" />
<ellipse fill="#afadb2" fill-opacity="0.5019607843137255" cx="132" cy="186" rx="49" ry="24" />
<ellipse fill="#000000" fill-opacity="0.5019607843137255" cx="223" cy="205" rx="37" ry="71" />
<ellipse fill="#fffffe" fill-opacity="0.5019607843137255" cx="39" cy="92" rx="140" ry="33" />
<ellipse fill="#a29fa1" fill-opacity="0.5019607843137255" cx="24" cy="15" rx="247" ry="24" />
<ellipse fill="#515156" fill-opacity="0.5019607843137255" cx="210" cy="85" rx="32" ry="24" />
<ellipse fill="#06070c" fill-opacity="0.5019607843137255" cx="49" cy="252" rx="148" ry="28" />
<ellipse fill="#868589" fill-opacity="0.5019607843137255" cx="30" cy="182" rx="151" ry="23" />
<ellipse fill="#e8e4e3" fill-opacity="0.5019607843137255" cx="226" cy="39" rx="112" ry="25" />
<ellipse fill="#6e6d6f" fill-opacity="0.5019607843137255" cx="110" cy="134" rx="31" ry="11" />
<ellipse fill="#d9d4d3" fill-opacity="0.5019607843137255" cx="160" cy="113" rx="47" ry="13" />
<ellipse fill="#00000b" fill-opacity="0.5019607843137255" cx="224" cy="173" rx="46" ry="33" />
<ellipse fill="#8b898b" fill-opacity="0.5019607843137255" cx="0" cy="0" rx="194" ry="16" />
<ellipse fill="#525356" fill-opacity="0.5019607843137255" cx="140" cy="217" rx="68" ry="22" />
<ellipse fill="#747375" fill-opacity="0.5019607843137255" cx="169" cy="127" rx="50" ry="10" />
<ellipse fill="#121314" fill-opacity="0.5019607843137255" cx="142" cy="150" rx="21" ry="9" />
<ellipse fill="#666669" fill-opacity="0.5019607843137255" cx="43" cy="194" rx="78" ry="17" />
<ellipse fill="#faf4ef" fill-opacity="0.5019607843137255" cx="148" cy="79" rx="30" ry="37" />
<ellipse fill="#1e1c22" fill-opacity="0.5019607843137255" cx="247" cy="142" rx="43" ry="28" />
<ellipse fill="#f0e9e5" fill-opacity="0.5019607843137255" cx="23" cy="103" rx="56" ry="45" />
<ellipse fill="#a09ea0" fill-opacity="0.5019607843137255" cx="120" cy="173" rx="30" ry="18" />
<ellipse fill="#7a7a7c" fill-opacity="0.5019607843137255" cx="167" cy="206" rx="21" ry="13" />
<ellipse fill="#000007" fill-opacity="0.5019607843137255" cx="185" cy="167" rx="20" ry="10" />
<ellipse fill="#3a3b3e" fill-opacity="0.5019607843137255" cx="26" cy="217" rx="79" ry="17" />
<ellipse fill="#b6b3b5" fill-opacity="0.5019607843137255" cx="94" cy="156" rx="28" ry="9" />
<ellipse fill="#b1adae" fill-opacity="0.5019607843137255" cx="114" cy="123" rx="40" ry="8" />
<ellipse fill="#414144" fill-opacity="0.5019607843137255" cx="180" cy="227" rx="53" ry="14" />
<ellipse fill="#8e8c8f" fill-opacity="0.5019607843137255" cx="70" cy="179" rx="110" ry="13" />
<ellipse fill="#292b2e" fill-opacity="0.5019607843137255" cx="26" cy="133" rx="3" ry="4" />
<ellipse fill="#b2b0b1" fill-opacity="0.5019607843137255" cx="216" cy="14" rx="171" ry="10" />
<ellipse fill="#c5c2c2" fill-opacity="0.5019607843137255" cx="28" cy="40" rx="103" ry="10" />
<ellipse fill="#515253" fill-opacity="0.5019607843137255" cx="230" cy="94" rx="13" ry="13" />
<ellipse fill="#fcf7f4" fill-opacity="0.5019607843137255" cx="178" cy="107" rx="9" ry="10" />
<ellipse fill="#f5f1ef" fill-opacity="0.5019607843137255" cx="197" cy="49" rx="33" ry="11" />
<ellipse fill="#000000" fill-opacity="0.5019607843137255" cx="66" cy="114" rx="2" ry="3" />
<ellipse fill="#0c0a13" fill-opacity="0.5019607843137255" cx="213" cy="186" rx="32" ry="31" />
<ellipse fill="#dbd8d8" fill-opacity="0.5019607843137255" cx="244" cy="61" rx="13" ry="20" />
<ellipse fill="#000000" fill-opacity="0.5019607843137255" cx="47" cy="133" rx="2" ry="2" />
<ellipse fill="#141218" fill-opacity="0.5019607843137255" cx="173" cy="160" rx="30" ry="8" />
<ellipse fill="#404041" fill-opacity="0.5019607843137255" cx="162" cy="139" rx="29" ry="9" />
<ellipse fill="#29292e" fill-opacity="0.5019607843137255" cx="28" cy="126" rx="2" ry="3" />
<ellipse fill="#a9a7a8" fill-opacity="0.5019607843137255" cx="63" cy="163" rx="80" ry="10" />
<ellipse fill="#f1ece9" fill-opacity="0.5019607843137255" cx="72" cy="85" rx="106" ry="28" />
<ellipse fill="#666568" fill-opacity="0.5019607843137255" cx="109" cy="139" rx="16" ry="8" />
<ellipse fill="#939296" fill-opacity="0.5019607843137255" cx="209" cy="67" rx="22" ry="8" />
<ellipse fill="#cecccd" fill-opacity="0.5019607843137255" cx="229" cy="110" rx="13" ry="3" />
<ellipse fill="#7e7c80" fill-opacity="0.5019607843137255" cx="0" cy="1" rx="46" ry="10" />
</g>
</svg>