<svg xmlns="http://www.w3.org/2000/svg" version="1.1" width="744" height="768">
<rect x="0" y="0" width="744" height="768" fill="#8d8b8c" />
<g transform="scale(3) translate(0.5 0.5)">
<polygon fill="#000000" fill-opacity="0.5019607843137255" points="-16.000000,262.094692 -3.739642,213.624722 247.827721,106.565111 249.434910,271.000000" />
<polygon fill="#ffffff" fill-opacity="0.5019607843137255" points="263.000000,11.387257 -0.783148,14.852251 -16.000000,177.471215 175.171771,112.839707" />
<polygon fill="#000001" fill-opacity="0.5019607843137255" points="176.172779,177.620283 242.930649,271.000000 263.000000,118.883842 82.742289,136.159138" />
<polygon fill="#bdbbbd" fill-opacity="0.5019607843137255" points="39.274255,121.976682 183.448588,178.165558 179.209187,212.171396 61.202759,198.555249" />
<polygon fill="#fffffa" fill-opacity="0.5019607843137255" points="-8.043168,50.353977 263.000000,31.402090 250.038456,58.092708 1.314489,148.222034" />
<polygon fill="#525256" fill-opacity="0.5019607843137255" points="207.745324,57.488074 263.000000,100.550870 192.155261,110.179634 175.859039,79.235298" />
<polygon fill="#07070c" fill-opacity="0.5019607843137255" points="263.000000,240.694991 -4.286302,220.832321 0.939972,271.000000 263.000000,266.575301" />
<polygon fill="#fbf4f1" fill-opacity="0.5019607843137255" points="177.758420,24.992840 3.123415,113.617107 211.487954,118.680877 179.665365,99.052889" />
<polygon fill="#868588" fill-opacity="0.5019607843137255" points="103.713932,148.950544 87.992978,141.754991 77.663174,125.941218 263.000000,108.559945" />
<polygon fill="#5c5d60" fill-opacity="0.5019607843137255" points="208.578315,209.457243 -12.088824,212.916550 8.044973,176.478935 -16.000000,173.009877" />
<polygon fill="#f3eeed" fill-opacity="0.5019607843137255" points="225.591408,59.894791 263.000000,103.430119 238.171578,114.622211 257.939425,43.239878" />
<polygon fill="#aeabad" fill-opacity="0.5019607843137255" points="-4.979186,34.979551 263.000000,20.491141 205.046489,-16.000000 -14.253079,9.734066" />
<polygon fill="#000008" fill-opacity="0.5019607843137255" points="254.345536,132.392843 171.553378,155.903711 193.954490,217.077599 263.000000,199.400052" />
<polygon fill="#aba9ab" fill-opacity="0.5019607843137255" points="176.091915,186.026777 -16.000000,168.050108 84.488165,139.527742 175.938942,174.443003" />
<polygon fill="#515254" fill-opacity="0.5019607843137255" points="232.728181,135.010627 195.535711,98.421307 251.304632,93.434033 162.698006,138.463242" />
<polygon fill="#666669" fill-opacity="0.5019607843137255" points="184.269473,223.333249 226.260459,223.811538 72.656115,171.581142 -12.024801,201.207130" />
<polygon fill="#5c595c" fill-opacity="0.5019607843137255" points="23.379602,135.473227 28.898674,119.869914 29.999723,131.449884 28.629017,138.024433" />
<polygon fill="#868487" fill-opacity="0.5019607843137255" points="193.068079,112.424841 230.490619,60.958824 189.908163,62.679202 176.142333,88.283833" />
<polygon fill="#b6b5b6" fill-opacity="0.5019607843137255" points="263.000000,53.229998 246.918302,105.467203 126.235413,122.934064 252.833530,114.666759" />
<polygon fill="#cbc7c6" fill-opacity="0.5019607843137255" points="99.458874,150.078938 68.071843,107.400548 60.769206,118.397442 27.132469,166.225706" />
<polygon fill="#39393b" fill-opacity="0.5019607843137255" points="-4.151950,198.429167 231.077214,244.002523 -10.929806,230.225853 1.128719,234.358828" />
<polygon fill="#dcd6d4" fill-opacity="0.5019607843137255" points="213.821376,49.741882 -14.904308,49.954577 230.398011,21.887452 263.000000,101.931577" />
<polygon fill="#b0aeaf" fill-opacity="0.5019607843137255" points="209.243300,21.602381 35.665429,6.976126 261.115643,5.460221 254.055997,63.539236" />
<polygon fill="#fdf6f2" fill-opacity="0.5019607843137255" points="87.132237,72.941685 29.182687,95.427461 -14.909051,137.084953 -16.000000,60.411707" />
<polygon fill="#414144" fill-opacity="0.5019607843137255" points="263.000000,118.710855 178.524075,122.255540 111.819850,143.888939 123.275256,155.517987" />
<polygon fill="#8b898d" fill-opacity="0.5019607843137255" points="183.028216,189.103212 50.400676,193.441106 -16.000000,182.962429 84.610654,160.854794" />
<polygon fill="#9e9d9e" fill-opacity="0.5019607843137255" points="0.614406,14.997941 -16.000000,30.628551 104.171689,17.295920 53.066043,-6.213370" />
<polygon fill="#f1ede9" fill-opacity="0.5019607843137255" points="176.413581,89.500817 194.162105,28.805132 39.887454,109.926558 190.508789,114.276752" />
<polygon fill="#232327" fill-opacity="0.5019607843137255" points="131.570529,158.641291 223.364769,158.006545 130.370587,141.676533 120.174359,155.220568" />
<polygon fill="#8b898c" fill-opacity="0.5019607843137255" points="105.112452,147.461686 68.686017,132.695399 165.988059,120.119468 104.417902,142.658056" />
<polygon fill="#363639" fill-opacity="0.5019607843137255" points="216.865103,238.440740 263.000000,201.112383 194.848115,222.286154 134.992145,246.015744" />
<polygon fill="#474549" fill-opacity="0.5019607843137255" points="66.191034,122.297284 66.308190,118.171091 63.508788,115.121690 67.993314,112.047964" />
<polygon fill="#818184" fill-opacity="0.5019607843137255" points="213.944805,122.537925 263.000000,111.988606 263.000000,69.365619 232.336655,112.432406" />
<polygon fill="#16161a" fill-opacity="0.5019607843137255" points="13.480445,237.349316 129.347018,246.767351 260.793969,253.383145 -16.000000,271.000000" />
<polygon fill="#ddd8d6" fill-opacity="0.5019607843137255" points="48.668433,134.731326 115.422835,96.664104 52.633108,151.535756 -16.000000,143.555184" />
<polygon fill="#06030f" fill-opacity="0.5019607843137255" points="165.713424,171.649433 180.100842,177.839009 248.777997,205.694474 242.590215,146.299432" />
<polygon fill="#615f61" fill-opacity="0.5019607843137255" points="27.505450,97.970664 28.662715,97.811740 30.780643,90.311199 32.202767,100.509977" />
<polygon fill="#535355" fill-opacity="0.5019607843137255" points="238.072940,107.450175 212.130715,103.461984 204.827830,121.115161 244.708069,76.600923" />
<polygon fill="#aba9aa" fill-opacity="0.5019607843137255" points="88.276420,145.464750 102.179026,170.751005 163.591795,167.384964 166.594930,171.836405" />
<polygon fill="#1f1e22" fill-opacity="0.5019607843137255" points="208.410277,257.744838 235.198665,259.171597 177.969178,186.583338 203.265058,179.260628" />
<polygon fill="#cfcccc" fill-opacity="0.5019607843137255" points="153.813200,119.169684 210.935516,114.411504 208.861672,113.275547 201.890826,107.143460" />
<polygon fill="#464345" fill-opacity="0.5019607843137255" points="97.154724,123.030915 95.273433,114.946502 99.388344,115.996648 98.523529,116.582501" />
<polygon fill="#4d4c4d" fill-opacity="0.5019607843137255" points="48.881824,132.335565 49.843713,138.601041 46.700594,127.843101 45.591854,135.660738" />
<polygon fill="#6a6a6d" fill-opacity="0.5019607843137255" points="103.869627,133.000815 210.896877,129.303464 221.523732,117.315028 154.803926,125.526947" />
<polygon fill="#696a6c" fill-opacity="0.5019607843137255" points="187.965036,213.858618 154.259129,217.019498 148.945839,193.498010 190.092469,200.994921" />
<polygon fill="#ece7e5" fill-opacity="0.5019607843137255" points="242.081573,57.437135 191.534354,61.590071 0.439321,84.840509 201.901914,34.398671" />
<polygon fill="#d2cdcc" fill-opacity="0.5019607843137255" points="156.924078,17.151808 -16.000000,49.698800 63.464407,63.104536 211.339346,21.218765" />
<polygon fill="#adaaac" fill-opacity="0.5019607843137255" points="199.589665,69.296983 230.477884,56.833186 186.837810,63.912458 174.940771,85.887147" />
<polygon fill="#646063" fill-opacity="0.5019607843137255" points="15.058297,112.465633 16.552372,115.627421 14.909703,120.893869 13.946011,115.348945" />
<polygon fill="#4c4d4f" fill-opacity="0.5019607843137255" points="248.702072,229.069446 0.972114,195.184055 6.104526,203.124057 -0.195484,213.597784" />
<polygon fill="#aba9aa" fill-opacity="0.5019607843137255" points="95.390747,153.597857 6.849628,178.515805 -16.000000,171.363738 -16.000000,157.794709" />
<polygon fill="#767577" fill-opacity="0.5019607843137255" points="175.740847,93.343417 216.303617,67.903306 206.190552,71.516115 204.233479,107.714284" />
<polygon fill="#434346" fill-opacity="0.5019607843137255" points="29.444227,137.261587 24.366311,134.086124 27.009587,129.314159 29.362671,139.505863" />
<polygon fill="#101017" fill-opacity="0.5019607843137255" points="165.200095,151.479516 190.653894,172.263628 149.386436,165.248200 137.220791,148.062492" />
<polygon fill="#e7e3e1" fill-opacity="0.5019607843137255" points="24.158082,127.494278 38.296278,144.212784 120.420081,68.705808 51.778678,136.742251" />
<polygon fill="#dad6d5" fill-opacity="0.5019607843137255" points="211.391500,43.139489 241.110868,79.396588 255.425108,55.154227 220.130871,24.425492" />
<polygon fill="#6d6d6e" fill-opacity="0.5019607843137255" points="61.016405,199.459137 118.032399,194.888147 64.790482,178.806992 -15.836991,204.788090" />
<polygon fill="#bcbab9" fill-opacity="0.5019607843137255" points="75.892119,125.570944 176.885926,112.987598 88.202677,132.301699 60.588367,133.307794" />
<polygon fill="#19181e" fill-opacity="0.5019607843137255" points="230.569042,122.008677 245.445501,117.704227 263.000000,125.363544 170.769474,178.292916" />
<polygon fill="#b9b6b8" fill-opacity="0.5019607843137255" points="263.000000,109.480907 220.082318,107.807818 209.905581,114.819633 263.000000,108.779790" />
<polygon fill="#f2eeeb" fill-opacity="0.5019607843137255" points="149.605368,105.577797 191.196355,105.027940 138.601229,64.235992 134.666805,103.577443" />
<polygon fill="#656668" fill-opacity="0.5019607843137255" points="211.578330,105.016296 209.867030,117.600107 200.124521,92.695840 184.378563,109.886786" />
<polygon fill="#9a989b" fill-opacity="0.5019607843137255" points="237.525216,20.732761 259.947251,41.886338 257.083201,1.562266 201.775174,-1.383947" />
<polygon fill="#b7b5b5" fill-opacity="0.5019607843137255" points="3.389541,36.669054 85.364324,37.230323 166.223316,9.279225 52.565549,11.999110" />
<polygon fill="#2e2f31" fill-opacity="0.5019607843137255" points="169.788320,148.278737 244.771767,131.118417 164.481285,137.908211 124.559071,154.879902" />
<polygon fill="#1f1e21" fill-opacity="0.5019607843137255" points="150.662646,167.894529 133.924302,145.380833 230.772041,166.122099 193.522798,143.840833" />
<polygon fill="#878588" fill-opacity="0.5019607843137255" points="215.835326,59.688492 239.809392,73.637822 217.938863,85.072751 212.687705,81.650606" />
<polygon fill="#585659" fill-opacity="0.5019607843137255" points="68.822633,114.935105 67.652462,116.444381 62.050049,120.095512 65.954282,114.297100" />
<polygon fill="#d6d0cf" fill-opacity="0.5019607843137255" points="46.443510,145.436391 22.984700,136.599919 -16.000000,115.650103 -14.214854,157.233304" />
<polygon fill="#262628" fill-opacity="0.5019607843137255" points="201.042384,217.925936 195.875938,185.593616 177.679483,171.473442 190.353125,210.416202" />
<polygon fill="#e2dedd" fill-opacity="0.5019607843137255" points="216.893668,33.143794 148.437720,30.721813 43.545594,65.319663 132.802493,61.151247" />
<polygon fill="#363538" fill-opacity="0.5019607843137255" points="102.456554,232.343830 169.386161,238.034391 60.988081,213.791091 -16.000000,222.550805" />
<polygon fill="#5e5f60" fill-opacity="0.5019607843137255" points="209.135983,91.571158 253.827987,96.570238 249.285244,103.091950 233.109989,87.349652" />
<polygon fill="#f1edea" fill-opacity="0.5019607843137255" points="228.796274,53.356263 131.257176,80.308939 199.224466,41.487913 246.923408,76.558305" />
<polygon fill="#8f8c8e" fill-opacity="0.5019607843137255" points="33.614761,129.030923 26.202220,127.484434 25.874337,136.420832 27.659424,118.870126" />
<polygon fill="#aaa8a9" fill-opacity="0.5019607843137255" points="240.131788,99.566037 255.773553,102.043099 234.269003,114.821213 263.000000,62.508222" />
<polygon fill="#ebe5e4" fill-opacity="0.5019607843137255" points="129.068995,92.797662 26.504418,133.275521 41.597547,110.826568 68.822121,122.578576" />
<polygon fill="#9c9a9e" fill-opacity="0.5019607843137255" points="156.791741,165.987370 153.022807,181.667638 80.236985,169.454813 167.119095,170.327375" />
<polygon fill="#938f90" fill-opacity="0.5019607843137255" points="47.099781,132.826184 42.971088,136.023424 42.819011,132.205424 50.264658,125.663935" />
<polygon fill="#f4efec" fill-opacity="0.5019607843137255" points="8.717835,131.921867 36.472354,96.121657 -12.248072,72.638745 92.168731,90.117739" />
<polygon fill="#07050f" fill-opacity="0.5019607843137255" points="231.975885,211.440376 224.952212,216.678014 179.372170,159.196342 241.518034,168.588883" />
<polygon fill="#5d5d5f" fill-opacity="0.5019607843137255" points="133.811423,199.878387 12.242746,209.865391 -10.618336,194.261744 15.126010,194.624214" />
<polygon fill="#38383a" fill-opacity="0.5019607843137255" points="220.852686,230.377681 241.222810,200.600471 249.783620,206.337128 164.728848,239.208692" />
<polygon fill="#5a5a5a" fill-opacity="0.5019607843137255" points="47.262977,135.909153 48.817138,128.291446 45.922543,130.878109 44.548332,132.533056" />
<polygon fill="#918f93" fill-opacity="0.5019607843137255" points="15.052689,20.318377 -12.373816,15.943257 1.584935,7.363041 71.334043,-8.889716" />
<polygon fill="#a8a6a7" fill-opacity="0.5019607843137255" points="-16.000000,23.905378 14.034221,13.111078 217.759894,-4.047024 166.431297,11.810117" />
<polygon fill="#19191e" fill-opacity="0.5019607843137255" points="245.855524,223.265280 255.654361,267.829115 183.268383,246.784144 211.451633,247.270732" />
<polygon fill="#767578" fill-opacity="0.5019607843137255" points="178.604063,185.753379 185.961905,209.139673 45.529218,185.573016 183.068065,193.563379" />
<polygon fill="#ebe7e4" fill-opacity="0.5019607843137255" points="-10.132959,60.036848 97.196775,57.784701 100.138822,119.397132 130.802088,117.549445" />
<polygon fill="#535355" fill-opacity="0.5019607843137255" points="207.919027,128.767064 214.627064,99.931894 239.582697,106.538290 208.349954,107.275532" />
<polygon fill="#1f1f22" fill-opacity="0.5019607843137255" points="185.766150,202.306954 197.618340,187.554803 190.273153,182.494071 181.631361,195.307757" />
<polygon fill="#9c999c" fill-opacity="0.5019607843137255" points="174.882606,119.179552 191.823573,123.058405 78.179880,130.407004 111.093950,124.793854" />
<polygon fill="#8c8a8d" fill-opacity="0.5019607843137255" points="-16.000000,180.180112 122.721851,185.155671 165.211141,186.118309 69.323438,169.364074" />
<polygon fill="#c9c6c5" fill-opacity="0.5019607843137255" points="200.715275,26.399738 216.848580,18.685960 263.000000,50.905440 263.000000,70.113636" />
<polygon fill="#4e4e50" fill-opacity="0.5019607843137255" points="127.863075,142.605347 236.463675,123.688233 209.786509,118.630369 208.360714,120.590987" />
<polygon fill="#f4f0ed" fill-opacity="0.5019607843137255" points="176.713727,90.574910 146.561528,102.679255 159.758242,53.050312 179.059723,87.555432" />
<polygon fill="#e1dddc" fill-opacity="0.5019607843137255" points="204.101723,108.301164 205.820358,113.768085 83.028571,103.408972 170.816028,116.096321" />
<polygon fill="#4e4c4e" fill-opacity="0.5019607843137255" points="15.308821,115.317299 18.389914,115.643258 14.087310,117.154418 13.043592,114.408334" />
<polygon fill="#29292b" fill-opacity="0.5019607843137255" points="230.511549,238.232958 93.758507,271.000000 202.071749,232.767004 257.058381,213.105769" />
<polygon fill="#f8f4f1" fill-opacity="0.5019607843137255" points="28.384248,105.166229 -16.000000,105.845091 -6.670542,83.257442 22.202192,77.427400" />
<polygon fill="#e9e5e3" fill-opacity="0.5019607843137255" points="192.834109,105.929627 53.891159,106.207665 95.756942,122.589259 90.731123,97.083106" />
<polygon fill="#57585a" fill-opacity="0.5019607843137255" points="114.719684,151.937906 103.099046,138.014518 118.140603,138.814782 118.200091,153.961377" />
<polygon fill="#6f6f71" fill-opacity="0.5019607843137255" points="191.595136,100.564619 247.056035,86.014715 243.319257,76.608333 225.114044,98.849475" />
<polygon fill="#dbd8d7" fill-opacity="0.5019607843137255" points="214.921570,60.504087 263.000000,57.613019 237.717214,80.377083 239.873806,51.207472" />
<polygon fill="#3c3d3f" fill-opacity="0.5019607843137255" points="215.495163,234.989437 115.646426,220.971268 152.365006,242.835590 221.622653,215.062053" />
<polygon fill="#88878a" fill-opacity="0.5019607843137255" points="154.286102,174.862424 183.702138,182.680888 160.188038,195.329751 180.285980,176.656077" />
<polygon fill="#828082" fill-opacity="0.5019607843137255" points="24.686487,95.818162 30.358427,96.522827 31.519026,97.940258 31.525382,100.751613" />
<polygon fill="#6f6f71" fill-opacity="0.5019607843137255" points="238.835839,79.921649 189.631366,112.190638 189.589259,105.773207 232.098161,70.437573" />
<polygon fill="#e1dcdc" fill-opacity="0.5019607843137255" points="35.758703,120.361066 61.848518,139.118438 63.205923,111.247974 26.993866,151.354973" />
<polygon fill="#414042" fill-opacity="0.5019607843137255" points="166.128083,139.060347 173.777037,148.114034 105.955365,144.790086 120.495969,142.347334" />
<polygon fill="#545456" fill-opacity="0.5019607843137255" points="219.075996,109.744920 215.377963,104.780268 236.997183,105.174836 244.831377,85.160107" />
<polygon fill="#b0aeaf" fill-opacity="0.5019607843137255" points="238.698427,40.375188 263.000000,19.458789 160.450863,13.470964 233.223713,9.558428" />
<polygon fill="#c0bfbe" fill-opacity="0.5019607843137255" points="39.788984,146.299822 92.692532,142.673758 51.099162,157.085514 -16.000000,164.436010" />
<polygon fill="#bbbabb" fill-opacity="0.5019607843137255" points="105.785046,23.508477 165.841099,9.361409 254.143226,28.343993 182.584283,22.227579" />
<polygon fill="#8a888b" fill-opacity="0.5019607843137255" points="210.394220,117.524962 195.093706,115.911374 197.916433,122.220129 263.000000,107.075451" />
<polygon fill="#343235" fill-opacity="0.5019607843137255" points="95.475566,117.098592 94.984661,116.354399 99.239891,118.012935 95.689769,118.379804" />
<polygon fill="#9d9a9d" fill-opacity="0.5019607843137255" points="210.871428,58.670045 228.092969,65.040537 184.625030,73.953401 195.239497,62.131665" />
<polygon fill="#c5c3c2" fill-opacity="0.5019607843137255" points="10.997276,33.554967 99.960810,25.813902 146.702363,17.301002 92.094385,47.040323" />
<polygon fill="#f1edea" fill-opacity="0.5019607843137255" points="15.609984,108.639866 51.451644,98.687414 18.104431,99.743728 28.270597,132.678589" />
<polygon fill="#a09ea0" fill-opacity="0.5019607843137255" points="138.895618,158.332873 111.098985,159.418864 -16.000000,170.796036 142.301844,170.403161" />
<polygon fill="#4c4b4d" fill-opacity="0.5019607843137255" points="113.862334,216.655040 78.878267,202.730706 89.633902,201.756622 -16.000000,209.611531" />
<polygon fill="#14121a" fill-opacity="0.5019607843137255" points="245.395987,200.486277 223.324978,214.218876 193.546066,216.225674 208.970008,200.721223" />
<polygon fill="#5f5f61" fill-opacity="0.5019607843137255" points="179.317810,209.691853 64.756770,194.090535 72.979331,202.983100 201.434321,217.223592" />
<polygon fill="#8a878b" fill-opacity="0.5019607843137255" points="130.135392,131.654365 129.092258,124.827577 97.028366,133.214298 84.611908,139.046212" />
<polygon fill="#444446" fill-opacity="0.5019607843137255" points="226.614548,217.968314 176.306400,235.673068 163.987206,235.615517 195.914329,216.100504" />
<polygon fill="#b3b2b3" fill-opacity="0.5019607843137255" points="92.630510,142.943226 132.264315,160.488777 119.822234,153.792523 54.961939,159.594009" />
<polygon fill="#bbb9ba" fill-opacity="0.5019607843137255" points="223.790012,109.462960 203.554404,115.105235 231.643125,112.282642 230.750741,106.647543" />
<polygon fill="#121018" fill-opacity="0.5019607843137255" points="245.901826,178.639719 261.989457,168.958915 197.136191,139.978617 183.056102,142.576312" />
<polygon fill="#7d7c7d" fill-opacity="0.5019607843137255" points="67.776611,109.402259 64.845320,116.094858 66.665932,109.540609 67.179604,122.683311" />
<polygon fill="#2e2f30" fill-opacity="0.5019607843137255" points="197.342649,157.496754 162.983031,138.774127 133.687512,162.494762 140.514023,143.999491" />
<polygon fill="#dfdbda" fill-opacity="0.5019607843137255" points="46.794961,123.118503 51.535133,140.548924 37.188448,141.473949 93.567099,109.961719" />
<polygon fill="#cdcac8" fill-opacity="0.5019607843137255" points="134.683603,114.612324 85.522491,127.972937 48.215683,128.392164 102.075928,120.005101" />
<polygon fill="#efebe8" fill-opacity="0.5019607843137255" points="64.863434,117.587509 72.769211,121.692924 44.747486,72.957226 162.023921,94.668809" />
<polygon fill="#7c7b7c" fill-opacity="0.5019607843137255" points="29.769610,122.629279 30.393934,126.208953 20.484574,137.754761 23.551178,133.988039" />
<polygon fill="#e8e3e1" fill-opacity="0.5019607843137255" points="57.044290,122.504659 32.749639,134.153267 -8.693325,98.072295 6.866780,132.498774" />
<polygon fill="#2d2d2f" fill-opacity="0.5019607843137255" points="234.489220,121.777914 239.376881,128.811798 215.655619,140.863832 211.459087,132.557834" />
<polygon fill="#5f5f61" fill-opacity="0.5019607843137255" points="251.665544,117.878979 260.932805,112.076913 245.013803,112.475268 219.135679,120.459584" />
<polygon fill="#bab7b8" fill-opacity="0.5019607843137255" points="100.364073,114.647429 192.474464,119.146593 157.176375,121.386181 139.929381,116.307313" />
<polygon fill="#0b0913" fill-opacity="0.5019607843137255" points="182.454882,180.042881 207.765813,171.913612 260.405574,183.025503 156.309611,157.338006" />
<polygon fill="#cdcaca" fill-opacity="0.5019607843137255" points="239.789818,90.675039 259.052497,80.592842 239.364456,44.094071 247.687056,89.993291" />
<polygon fill="#8e8d90" fill-opacity="0.5019607843137255" points="180.562225,186.683023 179.592660,179.719042 160.809016,172.415358 161.941640,188.064507" />
<polygon fill="#88878a" fill-opacity="0.5019607843137255" points="-5.006785,-14.409232 -16.000000,14.500870 43.449631,4.493579 37.127577,6.084863" />
<polygon fill="#757374" fill-opacity="0.5019607843137255" points="68.651365,118.119002 67.555245,116.871278 67.395665,118.732985 65.708715,108.021752" />
<polygon fill="#868487" fill-opacity="0.5019607843137255" points="204.619005,82.239947 226.153832,66.382831 194.189744,70.090671 193.884805,81.523504" />
<polygon fill="#7e7c7f" fill-opacity="0.5019607843137255" points="73.998747,187.198608 -16.000000,189.418910 46.921097,177.070864 149.254671,195.849053" />
<polygon fill="#8d8b8e" fill-opacity="0.5019607843137255" points="177.806470,97.823331 196.373144,95.188165 174.141788,92.691344 198.905122,79.805312" />
<polygon fill="#949295" fill-opacity="0.5019607843137255" points="104.121754,173.479407 85.508054,166.673967 16.634507,171.008405 -16.000000,180.653532" />
<polygon fill="#616263" fill-opacity="0.5019607843137255" points="227.648054,96.425300 245.726321,97.034492 227.431305,84.586103 214.535436,94.299968" />
<polygon fill="#b1afb0" fill-opacity="0.5019607843137255" points="23.325565,29.642285 -16.000000,26.697545 153.983581,7.842154 128.408666,17.666917" />
<polygon fill="#aaa8a9" fill-opacity="0.5019607843137255" points="232.107921,113.970879 239.083467,109.916625 245.859385,98.417387 242.971657,99.630483" />
<polygon fill="#e0dbdb" fill-opacity="0.5019607843137255" points="-16.000000,61.491328 -7.669477,39.313139 22.934736,49.024506 109.509663,61.864877" />
<polygon fill="#d7d3d2" fill-opacity="0.5019607843137255" points="254.476269,58.107637 193.793428,36.530700 116.140345,32.623891 203.066283,26.239728" />
<polygon fill="#616163" fill-opacity="0.5019607843137255" points="214.131991,112.537917 199.955321,100.422070 246.327453,93.652818 232.682780,79.639113" />
<polygon fill="#e3dfdf" fill-opacity="0.5019607843137255" points="179.400658,104.834058 184.776350,95.275181 183.890223,114.701242 115.526048,111.788510" />
<polygon fill="#2c2c2d" fill-opacity="0.5019607843137255" points="206.091095,248.112981 28.333786,220.174741 89.665116,226.095532 -16.000000,229.547404" />
<polygon fill="#202023" fill-opacity="0.5019607843137255" points="122.183069,151.548641 153.740974,167.142384 198.390431,139.829609 200.886935,157.819960" />
<polygon fill="#f5f1ee" fill-opacity="0.5019607843137255" points="165.902565,80.704741 139.141401,80.680879 181.903655,54.903183 198.763329,56.651953" />
<polygon fill="#908e92" fill-opacity="0.5019607843137255" points="230.069951,6.184679 214.112989,-3.635058 263.000000,-1.213459 236.254767,9.988331" />
<polygon fill="#292a2b" fill-opacity="0.5019607843137255" points="182.672882,201.184350 183.592636,178.526787 192.897768,181.573973 186.113284,203.456595" />
<polygon fill="#afadae" fill-opacity="0.5019607843137255" points="263.000000,20.224249 142.279931,14.191974 155.748186,3.892348 216.856531,12.060843" />
<polygon fill="#7d7b7e" fill-opacity="0.5019607843137255" points="166.470376,130.611641 162.699360,122.680147 246.426626,113.823043 183.838384,122.347150" />
<polygon fill="#a8a6a8" fill-opacity="0.5019607843137255" points="188.500576,88.130265 180.623571,73.634231 177.261313,78.971534 192.823890,60.146156" />
<polygon fill="#58585a" fill-opacity="0.5019607843137255" points="204.687283,130.893775 215.323906,102.608766 254.022866,93.327633 211.157536,108.827488" />
<polygon fill="#676768" fill-opacity="0.5019607843137255" points="190.905453,199.906927 178.724290,217.817867 137.519250,201.088938 173.965308,202.294066" />
<polygon fill="#626264" fill-opacity="0.5019607843137255" points="110.598493,149.819270 118.513229,148.946676 104.191257,144.853825 100.662025,144.955015" />
<polygon fill="#e4e0df" fill-opacity="0.5019607843137255" points="227.931161,44.277614 164.057435,39.418779 244.423949,59.618885 235.001116,73.718126" />
<polygon fill="#a7a5a7" fill-opacity="0.5019607843137255" points="104.385119,152.466424 143.463244,163.325708 136.892184,175.764396 121.584952,154.110294" />
<polygon fill="#f3eeec" fill-opacity="0.5019607843137255" points="33.579842,141.849647 -3.042853,75.090439 40.048736,77.691010 18.143975,108.260603" />
<polygon fill="#17161b" fill-opacity="0.5019607843137255" points="177.182667,157.620314 172.258673,177.905130 179.275323,169.576227 134.636321,152.555374" />
<polygon fill="#a4a2a5" fill-opacity="0.5019607843137255" points="214.055632,61.568780 239.011036,75.726844 223.933865,58.582657 224.776556,67.624856" />
<polygon fill="#e7e3e1" fill-opacity="0.5019607843137255" points="74.140797,115.478603 38.095339,125.235416 148.247655,106.972211 73.523969,105.422432" />
<polygon fill="#d3cfcd" fill-opacity="0.5019607843137255" points="122.415673,41.620689 2.774370,54.131027 -16.000000,57.463267 -1.178557,41.275674" />
<polygon fill="#bab8ba" fill-opacity="0.5019607843137255" points="110.983783,122.249500 102.144736,122.847593 66.151570,129.194587 72.329753,135.830552" />
<polygon fill="#79797b" fill-opacity="0.5019607843137255" points="162.543969,176.078430 167.594075,180.917226 168.128338,172.236319 164.892507,168.432042" />
<polygon fill="#19171d" fill-opacity="0.5019607843137255" points="11.285076,245.814660 29.278259,271.000000 69.725908,258.850070 115.788686,250.859958" />
<polygon fill="#363637" fill-opacity="0.5019607843137255" points="183.411325,243.877107 199.681367,236.442519 84.153995,222.688876 124.666325,239.735913" />
<polygon fill="#6c6c6e" fill-opacity="0.5019607843137255" points="-5.690183,197.839868 52.400213,199.181746 84.402892,188.750416 76.036994,188.106536" />
<polygon fill="#454547" fill-opacity="0.5019607843137255" points="107.576622,147.173521 124.349653,151.062964 142.129510,159.799526 128.465693,157.280111" />
<polygon fill="#ece7e5" fill-opacity="0.5019607843137255" points="53.928957,130.831634 67.149331,103.396539 -16.000000,126.577020 65.007668,114.799401" />
<polygon fill="#212123" fill-opacity="0.5019607843137255" points="87.235622,271.000000 258.646391,239.807498 249.722471,218.268210 205.391266,242.077510" />
<polygon fill="#d5d1d0" fill-opacity="0.5019607843137255" points="-16.000000,137.549925 75.950009,144.201269 61.894346,124.289480 32.516613,152.739848" />
<polygon fill="#dfdbda" fill-opacity="0.5019607843137255" points="-12.009105,107.373372 15.433881,142.162201 30.148797,144.781823 30.367988,139.975907" />
<polygon fill="#6e6e70" fill-opacity="0.5019607843137255" points="238.611152,72.289767 225.562173,98.224933 203.661547,97.465828 201.494184,91.675954" />
<polygon fill="#7e7c7f" fill-opacity="0.5019607843137255" points="185.022147,85.776796 226.614513,71.825041 194.496073,95.175361 185.266726,102.373550" />
<polygon fill="#a8a6a7" fill-opacity="0.5019607843137255" points="51.871692,161.345467 0.772320,172.955586 -4.613007,168.689802 -16.000000,166.638935" />
<polygon fill="#4c4d4e" fill-opacity="0.5019607843137255" points="25.897213,133.331077 24.164743,134.922940 29.752166,134.321181 30.432025,133.344332" />
<polygon fill="#0b0813" fill-opacity="0.5019607843137255" points="212.092610,152.623510 238.649025,159.788329 258.639523,141.787435 219.304438,144.040235" />
<polygon fill="#9d9b9e" fill-opacity="0.5019607843137255" points="131.450649,160.209052 172.955372,181.204251 39.562261,159.107249 171.964170,175.562406" />
<polygon fill="#d5d1d0" fill-opacity="0.5019607843137255" points="194.507036,111.063694 193.459532,106.757607 203.287901,113.933678 105.620870,117.265956" />
<polygon fill="#e1dddc" fill-opacity="0.5019607843137255" points="27.525143,131.071835 33.796439,145.522863 48.266942,127.185593 101.026417,105.611980" />
<polygon fill="#918f92" fill-opacity="0.5019607843137255" points="237.013967,80.015003 227.323580,86.461169 243.551027,76.430846 246.208267,86.182356" />
<polygon fill="#f4f0ed" fill-opacity="0.5019607843137255" points="31.405900,96.822640 38.833354,104.896081 65.037773,85.692789 35.239159,87.557460" />
<polygon fill="#323135" fill-opacity="0.5019607843137255" points="65.868948,116.419124 67.257324,116.726175 67.230564,114.712312 64.215052,112.127424" />
<polygon fill="#4d4d4f" fill-opacity="0.5019607843137255" points="210.319662,130.924666 154.676043,137.257585 207.520890,128.472047 209.955925,103.300087" />
<polygon fill="#343436" fill-opacity="0.5019607843137255" points="230.303624,222.314897 263.000000,193.521476 228.224325,216.184846 177.153044,243.044203" />
<polygon fill="#424245" fill-opacity="0.5019607843137255" points="41.925487,210.473526 52.284827,197.885671 34.154384,219.490345 141.851129,222.402956" />
<polygon fill="#626263" fill-opacity="0.5019607843137255" points="134.167054,130.584437 172.461200,133.875066 209.235223,121.728042 126.153493,131.127705" />
<polygon fill="#7f7e81" fill-opacity="0.5019607843137255" points="117.814436,138.050633 118.528738,127.909959 142.538107,125.242784 122.542274,137.703077" />
<polygon fill="#918f92" fill-opacity="0.5019607843137255" points="213.610489,69.994616 232.045585,64.921653 200.588634,64.309590 179.454961,84.218631" />
<polygon fill="#18171d" fill-opacity="0.5019607843137255" points="214.929866,219.737139 211.762092,195.514711 177.670818,194.010089 200.576553,199.351334" />
</g>
</svg>