<svg xmlns="http://www.w3.org/2000/svg" version="1.1" width="744" height="768">
<rect x="0" y="0" width="744" height="768" fill="#8d8b8c" />
<g transform="scale(3) translate(0.5 0.5)">
<path stroke="#000000" stroke-opacity="0.5019607843137255" fill="none" d="M 245.607864 109.329978 Q 263.000000 269.649798, -5.110170 251.921921" stroke-width="0.500000" />
<path stroke="#000000" stroke-opacity="0.5019607843137255" fill="none" d="M 246.511709 112.020339 Q 263.000000 270.711952, 0.815817 254.162846" stroke-width="0.500000" />
<path stroke="#000000" stroke-opacity="0.5019607843137255" fill="none" d="M 244.203872 115.593253 Q 253.888698 271.000000, -13.559839 249.358833" stroke-width="0.500000" />
<path stroke="#000000" stroke-opacity="0.5019607843137255" fill="none" d="M -12.617951 244.908163 Q 251.829116 271.000000, 240.093013 116.961796" stroke-width="0.500000" />
<path stroke="#000000" stroke-opacity="0.5019607843137255" fill="none" d="M 238.957171 109.961871 Q 251.813642 271.000000, -16.000000 242.492512" stroke-width="0.500000" />
<path stroke="#000000" stroke-opacity="0.5019607843137255" fill="none" d="M 233.869659 91.363686 Q 263.000000 270.082277, -8.770032 241.037023" stroke-width="0.500000" />
<path stroke="#000000" stroke-opacity="0.5019607843137255" fill="none" d="M -6.622925 252.879907 Q 262.549288 269.368583, 246.775065 134.739175" stroke-width="0.500000" />
<path stroke="#000000" stroke-opacity="0.5019607843137255" fill="none" d="M -8.099697 248.540135 Q 257.109592 268.245740, 240.861789 113.985171" stroke-width="0.500000" />
<path stroke="#000000" stroke-opacity="0.5019607843137255" fill="none" d="M 231.139801 115.396918 Q 247.574317 268.066551, -16.000000 237.417754" stroke-width="0.500000" />
<path stroke="#000000" stroke-opacity="0.5019607843137255" fill="none" d="M -5.062903 245.622130 Q 255.273909 238.671032, 232.954355 116.854573" stroke-width="0.500000" />
<path stroke="#000000" stroke-opacity="0.5019607843137255" fill="none" d="M 242.793891 120.825873 Q 260.040689 265.883159, 64.034033 255.117171" stroke-width="0.500000" />
<path stroke="#000000" stroke-opacity="0.5019607843137255" fill="none" d="M 225.741570 81.978136 Q 262.941310 271.000000, -8.589442 233.767635" stroke-width="0.500000" />
<path stroke="#000000" stroke-opacity="0.5019607843137255" fill="none" d="M 238.144743 118.477314 Q 246.960688 254.734075, -1.339431 233.864093" stroke-width="0.500000" />
<path stroke="#000000" stroke-opacity="0.5019607843137255" fill="none" d="M 230.352779 118.312817 Q 197.409115 271.000000, -15.136690 223.789172" stroke-width="0.500000" />
<path stroke="#000000" stroke-opacity="0.5019607843137255" fill="none" d="M 243.505251 109.375058 Q 263.000000 271.000000, 97.487484 254.197609" stroke-width="0.500000" />
<path stroke="#000000" stroke-opacity="0.5019607843137255" fill="none" d="M 245.960513 149.808105 Q 263.000000 271.000000, -3.315890 246.811640" stroke-width="0.500000" />
<path stroke="#000000" stroke-opacity="0.5019607843137255" fill="none" d="M 234.354555 122.739761 Q 263.000000 271.000000, 46.957679 251.604671" stroke-width="0.500000" />
<path stroke="#000000" stroke-opacity="0.5019607843137255" fill="none" d="M 246.066172 256.825581 Q 263.000000 153.567558, 102.964380 146.954342" stroke-width="0.500000" />
<path stroke="#000000" stroke-opacity="0.5019607843137255" fill="none" d="M 238.359152 114.948858 Q 209.749573 258.212487, 2.106907 226.932052" stroke-width="0.500000" />
<path stroke="#000000" stroke-opacity="0.5019607843137255" fill="none" d="M 226.228584 115.608476 Q 244.576628 254.557756, -9.454670 224.216674" stroke-width="0.500000" />
<path stroke="#ffffff" stroke-opacity="0.5019607843137255" fill="none" d="M 254.238559 59.490668 Q -16.000000 37.698021, 4.234763 165.121303" stroke-width="0.500000" />
<path stroke="#000000" stroke-opacity="0.5019607843137255" fill="none" d="M 0.715004 237.279770 Q 212.301548 261.558703, 241.049190 111.058009" stroke-width="0.500000" />
<path stroke="#ffffff" stroke-opacity="0.5019607843137255" fill="none" d="M 261.027796 58.977708 Q -16.000000 24.649676, 3.019488 166.897112" stroke-width="0.500000" />
<path stroke="#000000" stroke-opacity="0.5019607843137255" fill="none" d="M -0.323094 251.174543 Q 252.167653 263.556946, 247.430506 176.502709" stroke-width="0.500000" />
<path stroke="#000000" stroke-opacity="0.5019607843137255" fill="none" d="M 263.000000 250.344526 Q 118.797941 265.016551, -2.113437 227.210745" stroke-width="0.500000" />
<path stroke="#000000" stroke-opacity="0.5019607843137255" fill="none" d="M 236.001406 111.631895 Q 221.852028 240.561354, -16.000000 233.108763" stroke-width="0.500000" />
<path stroke="#000000" stroke-opacity="0.5019607843137255" fill="none" d="M -16.000000 246.075915 Q 246.868886 249.868327, 263.000000 257.316904" stroke-width="0.500000" />
<path stroke="#000000" stroke-opacity="0.5019607843137255" fill="none" d="M 224.531506 127.640794 Q 205.957672 239.409117, -4.460880 223.566682" stroke-width="0.500000" />
<path stroke="#000000" stroke-opacity="0.5019607843137255" fill="none" d="M 239.794693 115.109494 Q 217.380089 261.361301, 19.766101 241.554880" stroke-width="0.500000" />
<path stroke="#ffffff" stroke-opacity="0.5019607843137255" fill="none" d="M 248.495024 19.691785 Q 52.588595 175.653623, 0.262029 45.153586" stroke-width="0.500000" />
<path stroke="#ffffff" stroke-opacity="0.5019607843137255" fill="none" d="M -2.444500 17.218652 Q 51.870269 177.868372, 235.555747 25.831978" stroke-width="0.500000" />
<path stroke="#ffffff" stroke-opacity="0.5019607843137255" fill="none" d="M 249.426379 51.892099 Q -14.732924 33.298050, 1.352308 148.363536" stroke-width="0.500000" />
<path stroke="#000000" stroke-opacity="0.5019607843137255" fill="none" d="M 247.935514 118.546944 Q 223.828322 259.118309, -8.748038 240.291999" stroke-width="0.500000" />
<path stroke="#000000" stroke-opacity="0.5019607843137255" fill="none" d="M 241.962276 259.230200 Q 263.000000 103.230458, 123.961100 155.603355" stroke-width="0.500000" />
<path stroke="#ffffff" stroke-opacity="0.5019607843137255" fill="none" d="M 8.816576 164.563968 Q -11.317875 81.319803, 250.822229 51.816524" stroke-width="0.500000" />
<path stroke="#000000" stroke-opacity="0.5019607843137255" fill="none" d="M 109.118827 148.810343 Q 262.433254 156.461854, 239.692160 260.468486" stroke-width="0.500000" />
<path stroke="#000000" stroke-opacity="0.5019607843137255" fill="none" d="M 221.648631 119.318326 Q 245.428102 226.681131, -1.377543 240.588683" stroke-width="0.500000" />
<path stroke="#000000" stroke-opacity="0.5019607843137255" fill="none" d="M -2.917033 213.587008 Q 135.967755 271.000000, 250.833565 245.930916" stroke-width="0.500000" />
<path stroke="#ffffff" stroke-opacity="0.5019607843137255" fill="none" d="M 0.711811 169.968455 Q 12.148681 39.899285, 260.579716 61.233911" stroke-width="0.500000" />
<path stroke="#000000" stroke-opacity="0.5019607843137255" fill="none" d="M -4.493685 211.348236 Q 161.537103 271.000000, 263.000000 235.447560" stroke-width="0.500000" />
<path stroke="#000000" stroke-opacity="0.5019607843137255" fill="none" d="M -16.000000 241.133635 Q 235.927870 271.000000, 251.040481 104.233491" stroke-width="0.500000" />
<path stroke="#000000" stroke-opacity="0.5019607843137255" fill="none" d="M 240.458334 126.254201 Q 239.909698 264.875773, -3.626822 247.744557" stroke-width="0.500000" />
<path stroke="#ffffff" stroke-opacity="0.5019607843137255" fill="none" d="M 4.435404 170.543845 Q -4.010079 1.566163, 248.476375 56.661923" stroke-width="0.500000" />
<path stroke="#ffffff" stroke-opacity="0.5019607843137255" fill="none" d="M -2.068108 32.757345 Q 53.407068 169.002111, 240.579518 19.599739" stroke-width="0.500000" />
<path stroke="#ffffff" stroke-opacity="0.5019607843137255" fill="none" d="M 0.823630 50.963947 Q 56.277633 177.697066, 255.837563 15.394454" stroke-width="0.500000" />
<path stroke="#ffffff" stroke-opacity="0.5019607843137255" fill="none" d="M 237.287531 15.073391 Q 79.255692 195.301353, -6.191529 32.477094" stroke-width="0.500000" />
<path stroke="#000000" stroke-opacity="0.5019607843137255" fill="none" d="M 119.245689 150.978401 Q 263.000000 163.548242, 235.795160 256.544484" stroke-width="0.500000" />
<path stroke="#000000" stroke-opacity="0.5019607843137255" fill="none" d="M 126.845312 150.128343 Q 263.000000 103.879975, 244.307244 256.315832" stroke-width="0.500000" />
<path stroke="#000000" stroke-opacity="0.5019607843137255" fill="none" d="M 263.000000 87.027437 Q 156.365400 271.000000, -6.921846 215.954804" stroke-width="0.500000" />
<path stroke="#ffffff" stroke-opacity="0.5019607843137255" fill="none" d="M -8.246964 -0.238630 Q 53.443992 177.417255, 232.790601 19.336286" stroke-width="0.500000" />
<path stroke="#000000" stroke-opacity="0.5019607843137255" fill="none" d="M 238.221581 255.235251 Q 263.000000 114.699968, 134.218847 157.234877" stroke-width="0.500000" />
<path stroke="#000000" stroke-opacity="0.5019607843137255" fill="none" d="M 113.950153 151.623486 Q 263.000000 164.515091, 233.897760 258.056649" stroke-width="0.500000" />
<path stroke="#ffffff" stroke-opacity="0.5019607843137255" fill="none" d="M 212.213800 2.059749 Q 167.527749 161.659469, -2.714317 89.434489" stroke-width="0.500000" />
<path stroke="#ffffff" stroke-opacity="0.5019607843137255" fill="none" d="M 247.189673 71.316307 Q 162.710417 -16.000000, -16.000000 160.187231" stroke-width="0.500000" />
<path stroke="#000000" stroke-opacity="0.5019607843137255" fill="none" d="M 231.180193 257.692203 Q 263.000000 174.130970, 111.708782 150.702110" stroke-width="0.500000" />
<path stroke="#ffffff" stroke-opacity="0.5019607843137255" fill="none" d="M 5.711759 172.411036 Q 38.416015 0.926728, 263.000000 51.934758" stroke-width="0.500000" />
<path stroke="#ffffff" stroke-opacity="0.5019607843137255" fill="none" d="M 5.996950 29.156312 Q 83.647631 173.355500, 263.000000 -15.161395" stroke-width="0.500000" />
<path stroke="#000000" stroke-opacity="0.5019607843137255" fill="none" d="M 106.555843 146.704292 Q 263.000000 147.782957, 241.120356 258.732863" stroke-width="0.500000" />
<path stroke="#000000" stroke-opacity="0.5019607843137255" fill="none" d="M 247.779551 186.454039 Q 251.247254 271.000000, 16.473014 250.911332" stroke-width="0.500000" />
<path stroke="#000000" stroke-opacity="0.5019607843137255" fill="none" d="M -13.240970 206.489839 Q 159.632728 265.126897, 246.922878 244.278865" stroke-width="0.500000" />
<path stroke="#ffffff" stroke-opacity="0.5019607843137255" fill="none" d="M 233.328310 57.139207 Q -7.097397 33.087240, 6.135597 164.837027" stroke-width="0.500000" />
<path stroke="#ffffff" stroke-opacity="0.5019607843137255" fill="none" d="M -3.861133 155.827947 Q 53.882209 37.961500, 258.940809 64.330479" stroke-width="0.500000" />
<path stroke="#ffffff" stroke-opacity="0.5019607843137255" fill="none" d="M -0.546428 179.025232 Q -16.000000 96.218509, 251.533626 48.218145" stroke-width="0.500000" />
<path stroke="#000000" stroke-opacity="0.5019607843137255" fill="none" d="M 228.906059 259.429303 Q 263.000000 181.674558, 127.001124 154.826316" stroke-width="0.500000" />
<path stroke="#ffffff" stroke-opacity="0.5019607843137255" fill="none" d="M 249.007564 49.708709 Q -7.278513 33.228204, 0.447839 130.874941" stroke-width="0.500000" />
<path stroke="#000000" stroke-opacity="0.5019607843137255" fill="none" d="M 4.854899 245.982485 Q 263.000000 271.000000, 240.063562 127.784357" stroke-width="0.500000" />
<path stroke="#ffffff" stroke-opacity="0.5019607843137255" fill="none" d="M 0.442428 34.546630 Q 58.381011 161.582868, 234.472565 12.132834" stroke-width="0.500000" />
<path stroke="#000000" stroke-opacity="0.5019607843137255" fill="none" d="M 114.971306 253.291121 Q 263.000000 271.000000, 241.469979 125.831727" stroke-width="0.500000" />
<path stroke="#ffffff" stroke-opacity="0.5019607843137255" fill="none" d="M 242.041752 8.834212 Q 91.052467 177.407649, -16.000000 61.288530" stroke-width="0.500000" />
<path stroke="#000000" stroke-opacity="0.5019607843137255" fill="none" d="M 243.872805 262.841254 Q 263.000000 136.711638, 102.739239 146.158827" stroke-width="0.500000" />
<path stroke="#ffffff" stroke-opacity="0.5019607843137255" fill="none" d="M 4.202420 139.482639 Q -7.296447 20.214836, 246.937175 42.338822" stroke-width="0.500000" />
<path stroke="#ffffff" stroke-opacity="0.5019607843137255" fill="none" d="M -10.991943 58.016676 Q 133.757172 203.192894, 234.318450 -16.000000" stroke-width="0.500000" />
<path stroke="#000000" stroke-opacity="0.5019607843137255" fill="none" d="M 226.350776 255.863707 Q 263.000000 185.489858, 116.680098 152.857861" stroke-width="0.500000" />
<path stroke="#000000" stroke-opacity="0.5019607843137255" fill="none" d="M -15.152269 241.828724 Q 220.718812 242.446943, 219.716099 126.160708" stroke-width="0.500000" />
<path stroke="#000000" stroke-opacity="0.5019607843137255" fill="none" d="M 81.067628 250.989840 Q 263.000000 267.895327, 245.276023 116.255679" stroke-width="0.500000" />
<path stroke="#ffffff" stroke-opacity="0.5019607843137255" fill="none" d="M -0.799987 94.633126 Q 185.601568 157.198482, 201.588081 8.214698" stroke-width="0.500000" />
<path stroke="#ffffff" stroke-opacity="0.5019607843137255" fill="none" d="M 4.509645 56.837400 Q 83.586938 166.772432, 241.961498 7.296549" stroke-width="0.500000" />
<path stroke="#ffffff" stroke-opacity="0.5019607843137255" fill="none" d="M 248.761544 47.600349 Q 5.527058 -8.420764, 13.279383 172.062853" stroke-width="0.500000" />
<path stroke="#ffffff" stroke-opacity="0.5019607843137255" fill="none" d="M 258.801059 38.620965 Q -16.000000 88.043962, 1.519580 160.683343" stroke-width="0.500000" />
<path stroke="#000000" stroke-opacity="0.5019607843137255" fill="none" d="M 222.580395 254.411047 Q 263.000000 120.646631, 107.002880 145.686115" stroke-width="0.500000" />
<path stroke="#000000" stroke-opacity="0.5019607843137255" fill="none" d="M -3.718440 206.094940 Q 219.684779 271.000000, 225.649757 129.700470" stroke-width="0.500000" />
<path stroke="#000000" stroke-opacity="0.5019607843137255" fill="none" d="M 213.479021 255.697774 Q 263.000000 131.117461, 116.572989 144.696721" stroke-width="0.500000" />
<path stroke="#ffffff" stroke-opacity="0.5019607843137255" fill="none" d="M 5.811799 174.128939 Q 42.483159 16.565754, 263.000000 59.290601" stroke-width="0.500000" />
<path stroke="#ffffff" stroke-opacity="0.5019607843137255" fill="none" d="M 226.328031 9.348057 Q 86.461114 163.604593, 2.069816 21.012751" stroke-width="0.500000" />
<path stroke="#000000" stroke-opacity="0.5019607843137255" fill="none" d="M 218.431082 254.904831 Q 263.000000 146.732426, 117.005909 146.280064" stroke-width="0.500000" />
<path stroke="#000000" stroke-opacity="0.5019607843137255" fill="none" d="M 263.000000 233.884283 Q 160.532088 264.455001, 3.243724 208.906038" stroke-width="0.500000" />
<path stroke="#000000" stroke-opacity="0.5019607843137255" fill="none" d="M 14.434179 212.974325 Q 247.550683 271.000000, 243.929339 115.906365" stroke-width="0.500000" />
<path stroke="#000000" stroke-opacity="0.5019607843137255" fill="none" d="M 239.331929 256.770154 Q 262.641955 117.455097, 110.772131 142.793253" stroke-width="0.500000" />
<path stroke="#000000" stroke-opacity="0.5019607843137255" fill="none" d="M 221.206563 114.174756 Q 197.471179 264.062691, -8.244738 232.669503" stroke-width="0.500000" />
<path stroke="#ffffff" stroke-opacity="0.5019607843137255" fill="none" d="M 263.000000 39.461408 Q 2.148084 89.571261, 9.032763 152.424689" stroke-width="0.500000" />
<path stroke="#ffffff" stroke-opacity="0.5019607843137255" fill="none" d="M 23.086996 166.961240 Q 10.693859 14.373683, 246.025896 41.279218" stroke-width="0.500000" />
<path stroke="#000000" stroke-opacity="0.5019607843137255" fill="none" d="M 117.341808 153.144419 Q 260.954447 93.574647, 246.357268 253.655487" stroke-width="0.500000" />
<path stroke="#000000" stroke-opacity="0.5019607843137255" fill="none" d="M 263.000000 256.639751 Q 124.864812 252.448801, 7.955545 226.958559" stroke-width="0.500000" />
<path stroke="#ffffff" stroke-opacity="0.5019607843137255" fill="none" d="M 198.207327 18.705223 Q 151.750377 173.061875, -16.000000 62.522232" stroke-width="0.500000" />
<path stroke="#000000" stroke-opacity="0.5019607843137255" fill="none" d="M 111.293560 149.021890 Q 261.216816 173.108752, 233.713115 253.016302" stroke-width="0.500000" />
<path stroke="#ffffff" stroke-opacity="0.5019607843137255" fill="none" d="M 1.374120 131.319435 Q 38.676173 -0.410090, 200.669604 117.582923" stroke-width="0.500000" />
<path stroke="#ffffff" stroke-opacity="0.5019607843137255" fill="none" d="M 16.401712 173.996230 Q 4.832476 38.417480, 255.342564 35.413033" stroke-width="0.500000" />
<path stroke="#000000" stroke-opacity="0.5019607843137255" fill="none" d="M 263.000000 237.926898 Q 102.136519 263.714118, -13.365287 220.816500" stroke-width="0.500000" />
<path stroke="#ffffff" stroke-opacity="0.5019607843137255" fill="none" d="M 246.466125 47.503690 Q 73.916065 66.409220, 9.077924 163.207460" stroke-width="0.500000" />
<path stroke="#ffffff" stroke-opacity="0.5019607843137255" fill="none" d="M 217.266931 31.367451 Q -16.000000 18.844704, 2.977839 154.417046" stroke-width="0.500000" />
<path stroke="#ffffff" stroke-opacity="0.5019607843137255" fill="none" d="M -15.396982 14.999907 Q 74.479678 191.285483, 241.458956 22.425602" stroke-width="0.500000" />
<path stroke="#ffffff" stroke-opacity="0.5019607843137255" fill="none" d="M 186.001174 97.555208 Q 8.121106 159.146330, 0.478091 48.660559" stroke-width="0.500000" />
<path stroke="#ffffff" stroke-opacity="0.5019607843137255" fill="none" d="M 253.749972 36.811408 Q 54.802337 45.274936, 17.363328 163.953519" stroke-width="0.500000" />
<path stroke="#000000" stroke-opacity="0.5019607843137255" fill="none" d="M 113.430409 149.042352 Q 261.450340 147.353355, 242.451883 271.000000" stroke-width="0.500000" />
<path stroke="#000000" stroke-opacity="0.5019607843137255" fill="none" d="M 220.467009 267.189375 Q 261.712450 183.982648, 117.562518 154.318268" stroke-width="0.500000" />
<path stroke="#000000" stroke-opacity="0.5019607843137255" fill="none" d="M 229.355308 264.597670 Q 263.000000 113.672185, 104.651487 145.951387" stroke-width="0.500000" />
<path stroke="#ffffff" stroke-opacity="0.5019607843137255" fill="none" d="M -1.123593 172.805866 Q 59.409924 81.568118, 228.436183 17.697908" stroke-width="0.500000" />
<path stroke="#000000" stroke-opacity="0.5019607843137255" fill="none" d="M -16.000000 231.981050 Q 163.760347 240.327684, 227.659842 122.514661" stroke-width="0.500000" />
<path stroke="#ffffff" stroke-opacity="0.5019607843137255" fill="none" d="M -4.983849 34.714959 Q 55.217693 166.446609, 232.786874 27.609783" stroke-width="0.500000" />
<path stroke="#ffffff" stroke-opacity="0.5019607843137255" fill="none" d="M 26.467379 172.673518 Q 13.932528 104.102334, 263.000000 6.810917" stroke-width="0.500000" />
<path stroke="#ffffff" stroke-opacity="0.5019607843137255" fill="none" d="M 6.219615 164.445873 Q 42.993870 4.073920, 187.062498 114.155002" stroke-width="0.500000" />
<path stroke="#ffffff" stroke-opacity="0.5019607843137255" fill="none" d="M 2.712528 131.153095 Q -16.000000 17.315294, 240.821962 30.216510" stroke-width="0.500000" />
<path stroke="#000000" stroke-opacity="0.5019607843137255" fill="none" d="M 234.111841 123.369583 Q 171.119703 254.165744, 5.477628 207.077691" stroke-width="0.500000" />
<path stroke="#ffffff" stroke-opacity="0.5019607843137255" fill="none" d="M -3.107811 110.989925 Q 69.530655 98.386959, 254.889925 42.149325" stroke-width="0.500000" />
<path stroke="#ffffff" stroke-opacity="0.5019607843137255" fill="none" d="M 262.488059 25.372195 Q 6.760658 109.370012, -0.067748 83.688605" stroke-width="0.500000" />
<path stroke="#ffffff" stroke-opacity="0.5019607843137255" fill="none" d="M 4.172134 98.001484 Q 191.538630 166.094919, 207.476913 -11.820427" stroke-width="0.500000" />
<path stroke="#ffffff" stroke-opacity="0.5019607843137255" fill="none" d="M 1.098081 102.497680 Q 85.842564 -16.000000, 193.435031 117.331516" stroke-width="0.500000" />
<path stroke="#ffffff" stroke-opacity="0.5019607843137255" fill="none" d="M 1.473846 107.590440 Q 196.634163 159.417238, 184.335771 18.478528" stroke-width="0.500000" />
<path stroke="#000000" stroke-opacity="0.5019607843137255" fill="none" d="M 257.597508 220.131430 Q 216.550016 271.000000, 12.680279 211.599297" stroke-width="0.500000" />
<path stroke="#000000" stroke-opacity="0.5019607843137255" fill="none" d="M 263.000000 247.183284 Q 148.947321 271.000000, -8.582731 228.737234" stroke-width="0.500000" />
<path stroke="#000000" stroke-opacity="0.5019607843137255" fill="none" d="M 126.006883 150.997974 Q 263.000000 162.513499, 213.934973 261.369270" stroke-width="0.500000" />
<path stroke="#000000" stroke-opacity="0.5019607843137255" fill="none" d="M 263.000000 252.371209 Q 100.104294 222.102444, -1.054259 202.918629" stroke-width="0.500000" />
<path stroke="#ffffff" stroke-opacity="0.5019607843137255" fill="none" d="M 1.609945 126.548071 Q 47.504543 -8.471545, 189.645345 114.855602" stroke-width="0.500000" />
<path stroke="#000000" stroke-opacity="0.5019607843137255" fill="none" d="M 224.758122 271.000000 Q 263.000000 106.876414, 108.580531 140.487089" stroke-width="0.500000" />
<path stroke="#ffffff" stroke-opacity="0.5019607843137255" fill="none" d="M 2.989609 22.798338 Q 124.600514 180.546378, 209.941307 18.515182" stroke-width="0.500000" />
<path stroke="#000005" stroke-opacity="0.5019607843137255" fill="none" d="M 14.894493 228.482491 Q 250.871040 248.753670, 222.648774 81.410534" stroke-width="0.500000" />
<path stroke="#ffffff" stroke-opacity="0.5019607843137255" fill="none" d="M 257.277144 54.560198 Q 56.161831 32.977958, 16.804930 176.555109" stroke-width="0.500000" />
<path stroke="#000000" stroke-opacity="0.5019607843137255" fill="none" d="M 241.515734 113.571883 Q 262.629802 260.028041, 11.403677 255.739599" stroke-width="0.500000" />
<path stroke="#000000" stroke-opacity="0.5019607843137255" fill="none" d="M 207.705145 256.473378 Q 263.000000 142.284395, 129.029603 144.463658" stroke-width="0.500000" />
<path stroke="#000000" stroke-opacity="0.5019607843137255" fill="none" d="M 122.165739 153.658391 Q 251.836883 172.942084, 211.156098 256.461318" stroke-width="0.500000" />
<path stroke="#ffffff" stroke-opacity="0.5019607843137255" fill="none" d="M 2.287194 39.451218 Q 100.813677 170.687401, 202.628564 -4.148536" stroke-width="0.500000" />
<path stroke="#000000" stroke-opacity="0.5019607843137255" fill="none" d="M -16.000000 189.065160 Q 184.790015 271.000000, 247.995861 227.365804" stroke-width="0.500000" />
<path stroke="#ffffff" stroke-opacity="0.5019607843137255" fill="none" d="M 37.998886 160.857625 Q 11.268893 17.885616, 263.000000 45.853421" stroke-width="0.500000" />
<path stroke="#000000" stroke-opacity="0.5019607843137255" fill="none" d="M 144.778746 160.407275 Q 241.920168 98.454790, 248.630449 216.411260" stroke-width="0.500000" />
<path stroke="#000000" stroke-opacity="0.5019607843137255" fill="none" d="M 23.077327 242.356550 Q 257.410456 271.000000, 244.586523 111.909807" stroke-width="0.500000" />
<path stroke="#ffffff" stroke-opacity="0.5019607843137255" fill="none" d="M 186.420045 115.113260 Q 38.776731 14.945193, -2.436639 165.692219" stroke-width="0.500000" />
<path stroke="#ffffff" stroke-opacity="0.5019607843137255" fill="none" d="M 236.683159 20.390736 Q 73.587617 168.201092, 4.743220 33.389046" stroke-width="0.500000" />
<path stroke="#ffffff" stroke-opacity="0.5019607843137255" fill="none" d="M 3.170274 48.830381 Q -5.808812 127.939207, 219.171012 111.890906" stroke-width="0.500000" />
<path stroke="#ffffff" stroke-opacity="0.5019607843137255" fill="none" d="M -0.781583 138.113067 Q 45.785194 2.376174, 240.333908 64.726133" stroke-width="0.500000" />
<path stroke="#000000" stroke-opacity="0.5019607843137255" fill="none" d="M 243.921181 117.036095 Q 134.346927 171.236357, 243.516528 254.041626" stroke-width="0.500000" />
<path stroke="#ffffff" stroke-opacity="0.5019607843137255" fill="none" d="M 220.827504 34.289441 Q -16.000000 28.597071, 10.189301 142.290833" stroke-width="0.500000" />
<path stroke="#ffffff" stroke-opacity="0.5019607843137255" fill="none" d="M 9.308476 149.098611 Q 102.387289 -5.490932, 190.868056 117.805419" stroke-width="0.500000" />
<path stroke="#000000" stroke-opacity="0.5019607843137255" fill="none" d="M 235.082515 119.057481 Q 131.835162 174.106565, 241.292565 254.068144" stroke-width="0.500000" />
<path stroke="#000000" stroke-opacity="0.5019607843137255" fill="none" d="M 237.318279 270.035333 Q 263.000000 113.194921, 115.846265 141.688034" stroke-width="0.500000" />
<path stroke="#ffffff" stroke-opacity="0.5019607843137255" fill="none" d="M 25.140019 165.237841 Q 34.306502 36.274860, 243.979190 58.388748" stroke-width="0.500000" />
<path stroke="#ffffff" stroke-opacity="0.5019607843137255" fill="none" d="M 0.070796 101.541108 Q -4.445719 29.362247, 261.093004 36.070535" stroke-width="0.500000" />
<path stroke="#ffffff" stroke-opacity="0.5019607843137255" fill="none" d="M 0.123909 113.328159 Q -5.125202 22.802563, 234.416414 25.560550" stroke-width="0.500000" />
<path stroke="#ffffff" stroke-opacity="0.5019607843137255" fill="none" d="M -0.173179 139.138326 Q 179.956924 101.292353, 255.326348 4.443599" stroke-width="0.500000" />
<path stroke="#ffffff" stroke-opacity="0.5019607843137255" fill="none" d="M 1.617490 128.309564 Q -16.000000 15.886924, 237.369098 23.726305" stroke-width="0.500000" />
<path stroke="#000000" stroke-opacity="0.5019607843137255" fill="none" d="M 260.926080 249.933099 Q 91.862381 247.191619, -6.300620 218.275628" stroke-width="0.500000" />
<path stroke="#ffffff" stroke-opacity="0.5019607843137255" fill="none" d="M 238.454539 48.155815 Q 46.499244 22.325106, -0.297058 172.275140" stroke-width="0.500000" />
<path stroke="#ffffff" stroke-opacity="0.5019607843137255" fill="none" d="M 256.407592 66.249154 Q 162.529052 25.610803, 3.946474 161.757842" stroke-width="0.500000" />
<path stroke="#000000" stroke-opacity="0.5019607843137255" fill="none" d="M 212.830917 267.966357 Q 263.000000 191.780625, 130.863713 157.954600" stroke-width="0.500000" />
<path stroke="#000000" stroke-opacity="0.5019607843137255" fill="none" d="M 244.590648 264.545398 Q 263.000000 112.765569, 123.746881 135.929106" stroke-width="0.500000" />
<path stroke="#ffffff" stroke-opacity="0.5019607843137255" fill="none" d="M 263.000000 77.254705 Q 109.384101 -16.000000, -0.078780 128.326323" stroke-width="0.500000" />
<path stroke="#ffffff" stroke-opacity="0.5019607843137255" fill="none" d="M 3.562819 151.011322 Q -16.000000 8.788306, 231.384132 37.909242" stroke-width="0.500000" />
<path stroke="#000000" stroke-opacity="0.5019607843137255" fill="none" d="M 204.216290 259.069240 Q 263.000000 141.921908, 123.699456 145.061029" stroke-width="0.500000" />
<path stroke="#ffffff" stroke-opacity="0.5019607843137255" fill="none" d="M 203.375075 111.625249 Q 31.244532 117.089917, 0.907777 8.977322" stroke-width="0.500000" />
<path stroke="#ffffff" stroke-opacity="0.5019607843137255" fill="none" d="M 249.611655 73.383115 Q 94.153142 -16.000000, 10.268528 170.524123" stroke-width="0.500000" />
<path stroke="#000000" stroke-opacity="0.5019607843137255" fill="none" d="M 142.702435 249.376105 Q 254.223862 271.000000, 247.531001 140.425529" stroke-width="0.500000" />
<path stroke="#000001" stroke-opacity="0.5019607843137255" fill="none" d="M -4.262266 269.986948 Q 2.610984 184.040920, 237.742532 245.932729" stroke-width="0.500000" />
<path stroke="#ffffff" stroke-opacity="0.5019607843137255" fill="none" d="M 241.559612 112.966884 Q 63.758542 107.350335, 13.955146 33.886027" stroke-width="0.500000" />
<path stroke="#ffffff" stroke-opacity="0.5019607843137255" fill="none" d="M 202.719488 112.998862 Q 12.474753 114.003720, -0.075298 20.169421" stroke-width="0.500000" />
<path stroke="#ffffff" stroke-opacity="0.5019607843137255" fill="none" d="M 9.100614 138.131468 Q 10.027447 36.646890, 219.368420 53.879265" stroke-width="0.500000" />
<path stroke="#000000" stroke-opacity="0.5019607843137255" fill="none" d="M 139.000738 158.307757 Q 263.000000 186.052144, 207.869807 264.331772" stroke-width="0.500000" />
<path stroke="#000000" stroke-opacity="0.5019607843137255" fill="none" d="M 263.000000 252.733220 Q 36.082032 271.000000, -15.601642 173.382464" stroke-width="0.500000" />
<path stroke="#000000" stroke-opacity="0.5019607843137255" fill="none" d="M 206.950608 103.538250 Q 243.059158 266.280538, 1.082496 250.114671" stroke-width="0.500000" />
<path stroke="#ffffff" stroke-opacity="0.5019607843137255" fill="none" d="M 197.565139 -9.155301 Q 214.722070 120.273038, 4.846594 121.762153" stroke-width="0.500000" />
<path stroke="#ffffff" stroke-opacity="0.5019607843137255" fill="none" d="M 206.742921 22.566563 Q -16.000000 8.282295, 3.075013 151.871334" stroke-width="0.500000" />
<path stroke="#000000" stroke-opacity="0.5019607843137255" fill="none" d="M 126.682162 148.389125 Q 257.670976 146.760180, 197.789619 257.404586" stroke-width="0.500000" />
<path stroke="#000000" stroke-opacity="0.5019607843137255" fill="none" d="M 104.195229 138.096586 Q 263.000000 180.538298, 222.685749 252.101400" stroke-width="0.500000" />
<path stroke="#ffffff" stroke-opacity="0.5019607843137255" fill="none" d="M 26.558210 155.809416 Q 103.094337 71.547251, 263.000000 47.591597" stroke-width="0.500000" />
<path stroke="#ffffff" stroke-opacity="0.5019607843137255" fill="none" d="M 242.345909 41.909143 Q 105.660679 52.334075, 11.452991 163.174168" stroke-width="0.500000" />
<path stroke="#ffffff" stroke-opacity="0.5019607843137255" fill="none" d="M 0.456062 55.063757 Q 15.466633 172.322888, 192.460209 88.807067" stroke-width="0.500000" />
<path stroke="#000002" stroke-opacity="0.5019607843137255" fill="none" d="M 263.000000 259.742869 Q 140.008144 222.775214, -16.000000 212.082353" stroke-width="0.500000" />
<path stroke="#000000" stroke-opacity="0.5019607843137255" fill="none" d="M 244.036487 86.282786 Q 129.681824 158.334430, 251.845540 252.645000" stroke-width="0.500000" />
<path stroke="#ffffff" stroke-opacity="0.5019607843137255" fill="none" d="M 239.326301 55.891965 Q 42.313660 -16.000000, 37.858988 167.874917" stroke-width="0.500000" />
<path stroke="#000000" stroke-opacity="0.5019607843137255" fill="none" d="M 251.337925 253.388808 Q 138.688698 181.485750, 237.241204 121.366737" stroke-width="0.500000" />
<path stroke="#ffffff" stroke-opacity="0.5019607843137255" fill="none" d="M 18.010019 152.492485 Q -0.949884 85.083256, 247.977748 43.560251" stroke-width="0.500000" />
<path stroke="#000000" stroke-opacity="0.5019607843137255" fill="none" d="M 64.108496 250.089760 Q 263.000000 271.000000, 206.700861 98.153733" stroke-width="0.500000" />
<path stroke="#000000" stroke-opacity="0.5019607843137255" fill="none" d="M 142.039488 162.913242 Q 248.653700 118.394725, 245.786249 243.420881" stroke-width="0.500000" />
<path stroke="#000003" stroke-opacity="0.5019607843137255" fill="none" d="M 240.154461 115.969489 Q 236.918573 233.300022, 1.697167 222.843149" stroke-width="0.500000" />
<path stroke="#000000" stroke-opacity="0.5019607843137255" fill="none" d="M 138.334334 153.459143 Q 263.000000 170.918256, 192.436992 266.460707" stroke-width="0.500000" />
<path stroke="#ffffff" stroke-opacity="0.5019607843137255" fill="none" d="M 7.909653 28.117460 Q 156.810519 133.345714, 246.129018 108.132624" stroke-width="0.500000" />
<path stroke="#000000" stroke-opacity="0.5019607843137255" fill="none" d="M 259.251290 260.161566 Q 131.637645 218.311695, -16.000000 241.756126" stroke-width="0.500000" />
<path stroke="#000000" stroke-opacity="0.5019607843137255" fill="none" d="M 250.838980 120.803960 Q 184.611765 266.816454, 26.204856 231.698187" stroke-width="0.500000" />
<path stroke="#ffffff" stroke-opacity="0.5019607843137255" fill="none" d="M 253.639734 83.522736 Q 182.429886 -0.766223, 17.660275 166.996766" stroke-width="0.500000" />
<path stroke="#000000" stroke-opacity="0.5019607843137255" fill="none" d="M 126.798309 138.992320 Q 252.954876 108.527221, 238.372547 271.000000" stroke-width="0.500000" />
<path stroke="#ffffff" stroke-opacity="0.5019607843137255" fill="none" d="M 196.339766 117.787254 Q 90.147749 -16.000000, -1.952395 77.029148" stroke-width="0.500000" />
<path stroke="#ffffff" stroke-opacity="0.5019607843137255" fill="none" d="M 14.181075 149.902201 Q 85.394391 64.116022, 263.000000 3.269170" stroke-width="0.500000" />
<path stroke="#ffffff" stroke-opacity="0.5019607843137255" fill="none" d="M 10.251179 17.081802 Q 75.410881 148.015778, 255.503675 25.938605" stroke-width="0.500000" />
<path stroke="#ffffff" stroke-opacity="0.5019607843137255" fill="none" d="M 211.723237 110.790327 Q 43.032251 126.248341, -4.887181 52.541689" stroke-width="0.500000" />
<path stroke="#ffffff" stroke-opacity="0.5019607843137255" fill="none" d="M -16.000000 100.235653 Q 196.302555 150.148597, 190.468003 14.924449" stroke-width="0.500000" />
<path stroke="#ffffff" stroke-opacity="0.5019607843137255" fill="none" d="M 188.949001 112.944912 Q 44.636691 -16.000000, -6.051369 100.189489" stroke-width="0.500000" />
<path stroke="#ffffff" stroke-opacity="0.5019607843137255" fill="none" d="M 185.396948 73.313372 Q 27.840067 177.505625, -0.762834 41.301943" stroke-width="0.500000" />
<path stroke="#06070b" stroke-opacity="0.5019607843137255" fill="none" d="M 0.761083 253.788350 Q 16.693695 174.311813, 258.262611 250.988096" stroke-width="0.500000" />
<path stroke="#08090f" stroke-opacity="0.5019607843137255" fill="none" d="M 248.101016 183.974740 Q -5.884578 239.995440, -9.910043 212.584717" stroke-width="0.500000" />
<path stroke="#000000" stroke-opacity="0.5019607843137255" fill="none" d="M 224.362308 255.310970 Q 134.503681 151.743357, 240.755166 116.923543" stroke-width="0.500000" />
<path stroke="#ffffff" stroke-opacity="0.5019607843137255" fill="none" d="M 263.000000 4.659384 Q 44.506197 88.319420, 13.191170 169.059578" stroke-width="0.500000" />
<path stroke="#000000" stroke-opacity="0.5019607843137255" fill="none" d="M 246.806178 264.536172 Q 129.175118 217.209634, -1.674049 228.677010" stroke-width="0.500000" />
</g>
</svg>