<svg xmlns="http://www.w3.org/2000/svg" version="1.1" width="744" height="768">
<rect x="0" y="0" width="744" height="768" fill="#8d8b8c" />
<g transform="scale(3) translate(0.5 0.5)">
<g transform="translate(138.911510 227.231284) rotate(425.634147) scale(74.417680 247.000000)"><ellipse fill="#000000" fill-opacity="0.5019607843137255" cx="0" cy="0" rx="1" ry="1" /></g>
<g transform="translate(55.953191 86.313488) rotate(163.815471) scale(200.900391 65.565331)"><ellipse fill="#ffffff" fill-opacity="0.5019607843137255" cx="0" cy="0" rx="1" ry="1" /></g>
<g transform="translate(104.990658 177.969193) rotate(192.641908) scale(80.984304 25.818778)"><ellipse fill="#bcbabe" fill-opacity="0.5019607843137255" cx="0" cy="0" rx="1" ry="1" /></g>
<g transform="translate(246.648035 201.121401) rotate(231.871024) scale(85.137554 54.769095)"><ellipse fill="#000000" fill-opacity="0.5019607843137255" cx="0" cy="0" rx="1" ry="1" /></g>
<g transform="translate(75.491767 81.917004) rotate(76.277909) scale(41.135192 127.650910)"><ellipse fill="#fffffe" fill-opacity="0.5019607843137255" cx="0" cy="0" rx="1" ry="1" /></g>
<g transform="translate(210.526819 85.781640) rotate(11.181358) scale(32.527041 23.256566)"><ellipse fill="#49494d" fill-opacity="0.5019607843137255" cx="0" cy="0" rx="1" ry="1" /></g>
<g transform="translate(90.870517 250.990514) rotate(3.748015) scale(169.906169 23.561675)"><ellipse fill="#06070b" fill-opacity="0.5019607843137255" cx="0" cy="0" rx="1" ry="1" /></g>
<g transform="translate(150.193956 144.938074) rotate(281.218696) scale(15.806967 55.658849)"><ellipse fill="#1b1c20" fill-opacity="0.5019607843137255" cx="0" cy="0" rx="1" ry="1" /></g>
<g transform="translate(36.446816 200.391201) rotate(2.985551) scale(158.228451 14.716995)"><ellipse fill="#5c5d60" fill-opacity="0.5019607843137255" cx="0" cy="0" rx="1" ry="1" /></g>
<g transform="translate(154.278034 102.789187) rotate(105.603742) scale(13.214959 41.495095)"><ellipse fill="#fffcf8" fill-opacity="0.5019607843137255" cx="0" cy="0" rx="1" ry="1" /></g>
<g transform="translate(247.000000 63.632624) rotate(26.872798) scale(77.427339 13.519381)"><ellipse fill="#f5efec" fill-opacity="0.5019607843137255" cx="0" cy="0" rx="1" ry="1" /></g>
<g transform="translate(78.625644 12.256888) rotate(89.500765) scale(17.001143 200.468223)"><ellipse fill="#a9a7a8" fill-opacity="0.5019607843137255" cx="0" cy="0" rx="1" ry="1" /></g>
<g transform="translate(239.392667 175.638858) rotate(15.827228) scale(85.152936 27.274059)"><ellipse fill="#000009" fill-opacity="0.5019607843137255" cx="0" cy="0" rx="1" ry="1" /></g>
<g transform="translate(105.473186 164.011740) rotate(375.277945) scale(79.550732 13.692252)"><ellipse fill="#b5b2b3" fill-opacity="0.5019607843137255" cx="0" cy="0" rx="1" ry="1" /></g>
<g transform="translate(114.344661 131.210061) rotate(169.995361) scale(38.897375 9.688473)"><ellipse fill="#928f91" fill-opacity="0.5019607843137255" cx="0" cy="0" rx="1" ry="1" /></g>
<g transform="translate(179.002687 139.917761) rotate(-11.593389) scale(59.494890 16.961272)"><ellipse fill="#363638" fill-opacity="0.5019607843137255" cx="0" cy="0" rx="1" ry="1" /></g>
<g transform="translate(25.806769 216.242199) rotate(98.283134) scale(12.312921 192.332686)"><ellipse fill="#363639" fill-opacity="0.5019607843137255" cx="0" cy="0" rx="1" ry="1" /></g>
<g transform="translate(55.371345 186.009880) rotate(178.363331) scale(34.530136 16.459365)"><ellipse fill="#777679" fill-opacity="0.5019607843137255" cx="0" cy="0" rx="1" ry="1" /></g>
<g transform="translate(45.910688 80.301024) rotate(99.564240) scale(29.293400 139.008362)"><ellipse fill="#f6efea" fill-opacity="0.5019607843137255" cx="0" cy="0" rx="1" ry="1" /></g>
<g transform="translate(60.746843 33.982751) rotate(357.994398) scale(91.840291 20.416953)"><ellipse fill="#c4c0bf" fill-opacity="0.5019607843137255" cx="0" cy="0" rx="1" ry="1" /></g>
<g transform="translate(175.387151 216.849940) rotate(371.506900) scale(47.127920 8.494650)"><ellipse fill="#5f6062" fill-opacity="0.5019607843137255" cx="0" cy="0" rx="1" ry="1" /></g>
<g transform="translate(23.085845 138.253633) rotate(187.579133) scale(85.688491 8.410133)"><ellipse fill="#d8d4d2" fill-opacity="0.5019607843137255" cx="0" cy="0" rx="1" ry="1" /></g>
<g transform="translate(231.076680 148.223575) rotate(122.531988) scale(34.721722 13.744022)"><ellipse fill="#080610" fill-opacity="0.5019607843137255" cx="0" cy="0" rx="1" ry="1" /></g>
<g transform="translate(220.722395 73.948263) rotate(208.562058) scale(19.814916 12.998822)"><ellipse fill="#858386" fill-opacity="0.5019607843137255" cx="0" cy="0" rx="1" ry="1" /></g>
<g transform="translate(154.602947 159.223178) rotate(285.758867) scale(8.036866 18.232859)"><ellipse fill="#0f0e13" fill-opacity="0.5019607843137255" cx="0" cy="0" rx="1" ry="1" /></g>
<g transform="translate(6.476916 165.917983) rotate(258.152250) scale(8.656953 96.483425)"><ellipse fill="#b6b4b5" fill-opacity="0.5019607843137255" cx="0" cy="0" rx="1" ry="1" /></g>
<g transform="translate(66.738641 113.682753) rotate(-6.949547) scale(1.000000 3.244931)"><ellipse fill="#0d0c10" fill-opacity="0.5019607843137255" cx="0" cy="0" rx="1" ry="1" /></g>
<g transform="translate(200.100844 113.725489) rotate(-11.206243) scale(6.561099 5.784848)"><ellipse fill="#dcd9d9" fill-opacity="0.5019607843137255" cx="0" cy="0" rx="1" ry="1" /></g>
<g transform="translate(152.759664 73.822689) rotate(56.615535) scale(26.333732 33.986714)"><ellipse fill="#f7f2ed" fill-opacity="0.5019607843137255" cx="0" cy="0" rx="1" ry="1" /></g>
<g transform="translate(173.618740 6.213962) rotate(266.010785) scale(9.369811 192.959205)"><ellipse fill="#a2a0a3" fill-opacity="0.5019607843137255" cx="0" cy="0" rx="1" ry="1" /></g>
<g transform="translate(240.602904 63.829985) rotate(52.455274) scale(42.889089 8.997218)"><ellipse fill="#e0dcdb" fill-opacity="0.5019607843137255" cx="0" cy="0" rx="1" ry="1" /></g>
<g transform="translate(27.689420 127.657444) rotate(288.488749) scale(8.511653 1.000000)"><ellipse fill="#4b494b" fill-opacity="0.5019607843137255" cx="0" cy="0" rx="1" ry="1" /></g>
<g transform="translate(223.080519 191.016843) rotate(47.740660) scale(20.069445 28.735394)"><ellipse fill="#04010d" fill-opacity="0.5019607843137255" cx="0" cy="0" rx="1" ry="1" /></g>
<g transform="translate(238.398429 111.906470) rotate(267.484168) scale(4.642119 25.883892)"><ellipse fill="#b2b0b3" fill-opacity="0.5019607843137255" cx="0" cy="0" rx="1" ry="1" /></g>
<g transform="translate(98.158085 117.182807) rotate(133.464492) scale(3.161028 2.511193)"><ellipse fill="#676466" fill-opacity="0.5019607843137255" cx="0" cy="0" rx="1" ry="1" /></g>
<g transform="translate(176.233513 129.106000) rotate(169.300842) scale(56.457812 7.003409)"><ellipse fill="#636365" fill-opacity="0.5019607843137255" cx="0" cy="0" rx="1" ry="1" /></g>
<g transform="translate(30.110309 97.551911) rotate(182.100663) scale(3.487952 3.502961)"><ellipse fill="#929192" fill-opacity="0.5019607843137255" cx="0" cy="0" rx="1" ry="1" /></g>
<g transform="translate(233.002038 94.922150) rotate(-65.667532) scale(12.871118 10.481464)"><ellipse fill="#545557" fill-opacity="0.5019607843137255" cx="0" cy="0" rx="1" ry="1" /></g>
<g transform="translate(102.089712 176.257340) rotate(271.430166) scale(8.521976 76.899889)"><ellipse fill="#908e92" fill-opacity="0.5019607843137255" cx="0" cy="0" rx="1" ry="1" /></g>
<g transform="translate(64.963508 255.000000) rotate(271.685316) scale(15.459231 80.864080)"><ellipse fill="#16151a" fill-opacity="0.5019607843137255" cx="0" cy="0" rx="1" ry="1" /></g>
<g transform="translate(79.679676 204.446252) rotate(273.525746) scale(8.372036 116.499843)"><ellipse fill="#5d5d5f" fill-opacity="0.5019607843137255" cx="0" cy="0" rx="1" ry="1" /></g>
<g transform="translate(199.797984 92.816722) rotate(299.770200) scale(19.536706 7.701813)"><ellipse fill="#6f6e71" fill-opacity="0.5019607843137255" cx="0" cy="0" rx="1" ry="1" /></g>
<g transform="translate(46.920565 132.872167) rotate(277.845644) scale(2.789018 1.000000)"><ellipse fill="#000000" fill-opacity="0.5019607843137255" cx="0" cy="0" rx="1" ry="1" /></g>
<g transform="translate(218.485243 224.342918) rotate(158.320362) scale(63.035766 9.612332)"><ellipse fill="#333437" fill-opacity="0.5019607843137255" cx="0" cy="0" rx="1" ry="1" /></g>
<g transform="translate(157.778278 122.574617) rotate(263.533627) scale(3.625996 64.932667)"><ellipse fill="#9b999d" fill-opacity="0.5019607843137255" cx="0" cy="0" rx="1" ry="1" /></g>
<g transform="translate(44.659609 55.118623) rotate(183.446945) scale(60.517139 13.163170)"><ellipse fill="#ded9d9" fill-opacity="0.5019607843137255" cx="0" cy="0" rx="1" ry="1" /></g>
<g transform="translate(170.552278 29.604112) rotate(358.404646) scale(47.539311 10.124766)"><ellipse fill="#d6d1cf" fill-opacity="0.5019607843137255" cx="0" cy="0" rx="1" ry="1" /></g>
<g transform="translate(26.317228 134.665905) rotate(87.099901) scale(1.420478 1.961354)"><ellipse fill="#000000" fill-opacity="0.5019607843137255" cx="0" cy="0" rx="1" ry="1" /></g>
<g transform="translate(100.476994 140.154580) rotate(114.259498) scale(5.187074 14.059165)"><ellipse fill="#717174" fill-opacity="0.5019607843137255" cx="0" cy="0" rx="1" ry="1" /></g>
<g transform="translate(199.998960 50.377313) rotate(266.465700) scale(9.973589 22.808891)"><ellipse fill="#f5efec" fill-opacity="0.5019607843137255" cx="0" cy="0" rx="1" ry="1" /></g>
<g transform="translate(14.880836 116.430868) rotate(194.851737) scale(2.197405 3.690807)"><ellipse fill="#8e8989" fill-opacity="0.5019607843137255" cx="0" cy="0" rx="1" ry="1" /></g>
<g transform="translate(164.394637 203.229086) rotate(9.973695) scale(24.616873 12.487602)"><ellipse fill="#727173" fill-opacity="0.5019607843137255" cx="0" cy="0" rx="1" ry="1" /></g>
<g transform="translate(247.000000 25.262083) rotate(293.213560) scale(9.567822 78.398252)"><ellipse fill="#a7a5a6" fill-opacity="0.5019607843137255" cx="0" cy="0" rx="1" ry="1" /></g>
<g transform="translate(21.818943 0.000000) rotate(78.850740) scale(8.106075 26.078602)"><ellipse fill="#7f7d82" fill-opacity="0.5019607843137255" cx="0" cy="0" rx="1" ry="1" /></g>
<g transform="translate(193.506487 69.544110) rotate(148.991888) scale(18.608399 5.898785)"><ellipse fill="#b0adaf" fill-opacity="0.5019607843137255" cx="0" cy="0" rx="1" ry="1" /></g>
<g transform="translate(163.460236 184.005291) rotate(-8.380343) scale(18.496463 9.885083)"><ellipse fill="#878589" fill-opacity="0.5019607843137255" cx="0" cy="0" rx="1" ry="1" /></g>
<g transform="translate(214.274267 103.683264) rotate(58.340423) scale(7.339646 10.528023)"><ellipse fill="#545557" fill-opacity="0.5019607843137255" cx="0" cy="0" rx="1" ry="1" /></g>
<g transform="translate(66.073953 116.134280) rotate(323.220732) scale(2.539150 1.373567)"><ellipse fill="#272527" fill-opacity="0.5019607843137255" cx="0" cy="0" rx="1" ry="1" /></g>
<g transform="translate(0.000000 94.691615) rotate(330.789664) scale(31.418350 23.091234)"><ellipse fill="#faf5f2" fill-opacity="0.5019607843137255" cx="0" cy="0" rx="1" ry="1" /></g>
<g transform="translate(148.100995 167.498230) rotate(277.695559) scale(1.581204 20.511151)"><ellipse fill="#9c9a9d" fill-opacity="0.5019607843137255" cx="0" cy="0" rx="1" ry="1" /></g>
<g transform="translate(20.196028 143.271270) rotate(83.326996) scale(5.972352 53.734098)"><ellipse fill="#dfd9d8" fill-opacity="0.5019607843137255" cx="0" cy="0" rx="1" ry="1" /></g>
<g transform="translate(168.837572 115.054421) rotate(175.013486) scale(39.599148 3.277384)"><ellipse fill="#d3cfcf" fill-opacity="0.5019607843137255" cx="0" cy="0" rx="1" ry="1" /></g>
<g transform="translate(194.154378 170.233907) rotate(8.183422) scale(28.891720 9.396310)"><ellipse fill="#05020d" fill-opacity="0.5019607843137255" cx="0" cy="0" rx="1" ry="1" /></g>
<g transform="translate(109.402139 158.748787) rotate(202.780690) scale(41.095985 8.959708)"><ellipse fill="#abaaab" fill-opacity="0.5019607843137255" cx="0" cy="0" rx="1" ry="1" /></g>
<g transform="translate(96.917392 116.890947) rotate(9.839440) scale(1.899054 1.000000)"><ellipse fill="#09080c" fill-opacity="0.5019607843137255" cx="0" cy="0" rx="1" ry="1" /></g>
<g transform="translate(28.575152 97.689222) rotate(193.004527) scale(3.533181 1.188267)"><ellipse fill="#606163" fill-opacity="0.5019607843137255" cx="0" cy="0" rx="1" ry="1" /></g>
<g transform="translate(40.377071 108.338225) rotate(71.262007) scale(11.360181 24.428754)"><ellipse fill="#f8f2ee" fill-opacity="0.5019607843137255" cx="0" cy="0" rx="1" ry="1" /></g>
<g transform="translate(206.595554 251.888861) rotate(171.150492) scale(57.729199 13.232656)"><ellipse fill="#1a191f" fill-opacity="0.5019607843137255" cx="0" cy="0" rx="1" ry="1" /></g>
<g transform="translate(8.667642 221.481775) rotate(95.034411) scale(8.034551 104.201196)"><ellipse fill="#323335" fill-opacity="0.5019607843137255" cx="0" cy="0" rx="1" ry="1" /></g>
<g transform="translate(74.101604 23.943614) rotate(83.232522) scale(6.293250 107.811154)"><ellipse fill="#b7b5b7" fill-opacity="0.5019607843137255" cx="0" cy="0" rx="1" ry="1" /></g>
<g transform="translate(25.060815 132.156277) rotate(94.461987) scale(3.167030 1.040923)"><ellipse fill="#48474a" fill-opacity="0.5019607843137255" cx="0" cy="0" rx="1" ry="1" /></g>
<g transform="translate(159.975807 139.012996) rotate(349.881807) scale(45.423280 4.816570)"><ellipse fill="#3d3d3f" fill-opacity="0.5019607843137255" cx="0" cy="0" rx="1" ry="1" /></g>
<g transform="translate(77.134681 169.245475) rotate(92.057336) scale(8.568606 48.676351)"><ellipse fill="#989699" fill-opacity="0.5019607843137255" cx="0" cy="0" rx="1" ry="1" /></g>
<g transform="translate(55.587346 186.991714) rotate(174.212481) scale(30.501939 9.068678)"><ellipse fill="#767578" fill-opacity="0.5019607843137255" cx="0" cy="0" rx="1" ry="1" /></g>
<g transform="translate(190.100436 93.732925) rotate(275.348502) scale(5.733041 11.942383)"><ellipse fill="#7c7a7c" fill-opacity="0.5019607843137255" cx="0" cy="0" rx="1" ry="1" /></g>
<g transform="translate(92.994063 130.080541) rotate(267.248879) scale(4.614289 18.847962)"><ellipse fill="#aba9aa" fill-opacity="0.5019607843137255" cx="0" cy="0" rx="1" ry="1" /></g>
<g transform="translate(175.960878 107.257767) rotate(70.305547) scale(7.327003 11.921870)"><ellipse fill="#e8e4e3" fill-opacity="0.5019607843137255" cx="0" cy="0" rx="1" ry="1" /></g>
<g transform="translate(226.921928 110.101300) rotate(265.415784) scale(3.646372 7.415044)"><ellipse fill="#bbbaba" fill-opacity="0.5019607843137255" cx="0" cy="0" rx="1" ry="1" /></g>
<g transform="translate(231.793328 36.805799) rotate(126.997351) scale(9.701836 29.992554)"><ellipse fill="#c6c2c2" fill-opacity="0.5019607843137255" cx="0" cy="0" rx="1" ry="1" /></g>
<g transform="translate(204.200471 148.404511) rotate(251.441300) scale(6.743911 51.911222)"><ellipse fill="#18171c" fill-opacity="0.5019607843137255" cx="0" cy="0" rx="1" ry="1" /></g>
<g transform="translate(15.315492 116.071858) rotate(95.903422) scale(1.000000 2.053428)"><ellipse fill="#303134" fill-opacity="0.5019607843137255" cx="0" cy="0" rx="1" ry="1" /></g>
<g transform="translate(124.147927 100.748463) rotate(246.103609) scale(12.967404 31.440469)"><ellipse fill="#e9e5e4" fill-opacity="0.5019607843137255" cx="0" cy="0" rx="1" ry="1" /></g>
<g transform="translate(210.171019 106.918041) rotate(96.046276) scale(32.595570 1.371867)"><ellipse fill="#5c5d5f" fill-opacity="0.5019607843137255" cx="0" cy="0" rx="1" ry="1" /></g>
<g transform="translate(28.239632 126.522511) rotate(90.899733) scale(1.074106 2.607732)"><ellipse fill="#595659" fill-opacity="0.5019607843137255" cx="0" cy="0" rx="1" ry="1" /></g>
<g transform="translate(73.235767 121.812012) rotate(336.114380) scale(26.073674 6.499996)"><ellipse fill="#dcd6d4" fill-opacity="0.5019607843137255" cx="0" cy="0" rx="1" ry="1" /></g>
<g transform="translate(7.570620 125.842630) rotate(119.738268) scale(10.208951 18.617209)"><ellipse fill="#e9e3e1" fill-opacity="0.5019607843137255" cx="0" cy="0" rx="1" ry="1" /></g>
<g transform="translate(231.728794 115.948483) rotate(348.173990) scale(17.489032 2.902843)"><ellipse fill="#767578" fill-opacity="0.5019607843137255" cx="0" cy="0" rx="1" ry="1" /></g>
<g transform="translate(111.412273 217.187973) rotate(189.503823) scale(73.517956 5.737695)"><ellipse fill="#49494b" fill-opacity="0.5019607843137255" cx="0" cy="0" rx="1" ry="1" /></g>
<g transform="translate(192.932536 197.155134) rotate(332.783302) scale(9.599651 19.546701)"><ellipse fill="#242428" fill-opacity="0.5019607843137255" cx="0" cy="0" rx="1" ry="1" /></g>
<g transform="translate(214.741168 127.888538) rotate(160.745785) scale(22.872834 4.655785)"><ellipse fill="#404042" fill-opacity="0.5019607843137255" cx="0" cy="0" rx="1" ry="1" /></g>
<g transform="translate(238.561324 72.365122) rotate(266.820370) scale(9.767329 1.979564)"><ellipse fill="#d8d5d5" fill-opacity="0.5019607843137255" cx="0" cy="0" rx="1" ry="1" /></g>
<g transform="translate(209.015747 86.340206) rotate(328.320440) scale(27.633330 10.092641)"><ellipse fill="#767578" fill-opacity="0.5019607843137255" cx="0" cy="0" rx="1" ry="1" /></g>
<g transform="translate(164.732006 79.164890) rotate(178.256817) scale(14.022489 22.032439)"><ellipse fill="#f5f1ed" fill-opacity="0.5019607843137255" cx="0" cy="0" rx="1" ry="1" /></g>
<g transform="translate(154.235473 44.877416) rotate(263.415294) scale(9.193532 59.989339)"><ellipse fill="#e5dfdd" fill-opacity="0.5019607843137255" cx="0" cy="0" rx="1" ry="1" /></g>
<g transform="translate(179.031137 3.956984) rotate(359.540610) scale(68.358982 5.242929)"><ellipse fill="#9c9a9c" fill-opacity="0.5019607843137255" cx="0" cy="0" rx="1" ry="1" /></g>
<g transform="translate(38.830112 126.790282) rotate(114.272326) scale(15.388220 6.693807)"><ellipse fill="#ebe6e4" fill-opacity="0.5019607843137255" cx="0" cy="0" rx="1" ry="1" /></g>
<g transform="translate(244.022844 104.139842) rotate(241.066196) scale(3.279178 6.322285)"><ellipse fill="#b6b4b6" fill-opacity="0.5019607843137255" cx="0" cy="0" rx="1" ry="1" /></g>
<g transform="translate(247.000000 88.633673) rotate(99.649041) scale(3.151731 1.769154)"><ellipse fill="#e0dee0" fill-opacity="0.5019607843137255" cx="0" cy="0" rx="1" ry="1" /></g>
<g transform="translate(136.897873 149.920674) rotate(91.977475) scale(4.062749 20.095339)"><ellipse fill="#242426" fill-opacity="0.5019607843137255" cx="0" cy="0" rx="1" ry="1" /></g>
<g transform="translate(191.240461 228.017555) rotate(165.035430) scale(41.543124 6.039571)"><ellipse fill="#404042" fill-opacity="0.5019607843137255" cx="0" cy="0" rx="1" ry="1" /></g>
<g transform="translate(225.707375 102.965691) rotate(84.582120) scale(3.743256 15.338682)"><ellipse fill="#4f4f51" fill-opacity="0.5019607843137255" cx="0" cy="0" rx="1" ry="1" /></g>
<g transform="translate(183.235086 205.184407) rotate(57.308415) scale(4.101646 8.333563)"><ellipse fill="#676769" fill-opacity="0.5019607843137255" cx="0" cy="0" rx="1" ry="1" /></g>
<g transform="translate(117.509821 28.864838) rotate(165.790441) scale(55.671175 7.366275)"><ellipse fill="#c5c3c2" fill-opacity="0.5019607843137255" cx="0" cy="0" rx="1" ry="1" /></g>
<g transform="translate(158.092408 126.254943) rotate(174.113944) scale(22.983810 3.661206)"><ellipse fill="#7c7c7e" fill-opacity="0.5019607843137255" cx="0" cy="0" rx="1" ry="1" /></g>
<g transform="translate(29.470512 125.983644) rotate(195.382347) scale(1.958098 1.000000)"><ellipse fill="#404042" fill-opacity="0.5019607843137255" cx="0" cy="0" rx="1" ry="1" /></g>
<g transform="translate(234.453416 129.726997) rotate(230.690548) scale(8.788755 12.334495)"><ellipse fill="#252627" fill-opacity="0.5019607843137255" cx="0" cy="0" rx="1" ry="1" /></g>
<g transform="translate(206.547119 70.688036) rotate(244.961607) scale(4.919116 21.594862)"><ellipse fill="#918e92" fill-opacity="0.5019607843137255" cx="0" cy="0" rx="1" ry="1" /></g>
<g transform="translate(26.764018 133.631629) rotate(154.539528) scale(1.000000 4.359030)"><ellipse fill="#3c3d40" fill-opacity="0.5019607843137255" cx="0" cy="0" rx="1" ry="1" /></g>
<g transform="translate(7.132739 164.395050) rotate(257.138397) scale(5.064816 27.226985)"><ellipse fill="#b4b2b3" fill-opacity="0.5019607843137255" cx="0" cy="0" rx="1" ry="1" /></g>
<g transform="translate(185.101579 73.123096) rotate(215.628671) scale(1.971064 14.902568)"><ellipse fill="#adabac" fill-opacity="0.5019607843137255" cx="0" cy="0" rx="1" ry="1" /></g>
<g transform="translate(46.508718 133.351705) rotate(104.220955) scale(1.000000 2.350354)"><ellipse fill="#0b0a0e" fill-opacity="0.5019607843137255" cx="0" cy="0" rx="1" ry="1" /></g>
<g transform="translate(139.635466 189.824465) rotate(94.288487) scale(8.549176 42.498627)"><ellipse fill="#817f82" fill-opacity="0.5019607843137255" cx="0" cy="0" rx="1" ry="1" /></g>
<g transform="translate(197.103727 57.637973) rotate(-10.340773) scale(18.909985 3.545627)"><ellipse fill="#f6f1ed" fill-opacity="0.5019607843137255" cx="0" cy="0" rx="1" ry="1" /></g>
<g transform="translate(0.000000 211.675417) rotate(183.504834) scale(61.183033 5.581186)"><ellipse fill="#464648" fill-opacity="0.5019607843137255" cx="0" cy="0" rx="1" ry="1" /></g>
<g transform="translate(0.819268 80.974547) rotate(308.520856) scale(24.138531 31.960506)"><ellipse fill="#f1eeeb" fill-opacity="0.5019607843137255" cx="0" cy="0" rx="1" ry="1" /></g>
<g transform="translate(236.980516 0.000000) rotate(281.794492) scale(6.288198 19.186220)"><ellipse fill="#8a888c" fill-opacity="0.5019607843137255" cx="0" cy="0" rx="1" ry="1" /></g>
<g transform="translate(201.310336 200.139722) rotate(176.238758) scale(11.221547 16.292071)"><ellipse fill="#16151b" fill-opacity="0.5019607843137255" cx="0" cy="0" rx="1" ry="1" /></g>
<g transform="translate(230.964076 87.235822) rotate(84.331243) scale(5.759762 14.363602)"><ellipse fill="#68686a" fill-opacity="0.5019607843137255" cx="0" cy="0" rx="1" ry="1" /></g>
<g transform="translate(162.550798 118.820447) rotate(86.600409) scale(2.346695 37.718910)"><ellipse fill="#b1afb0" fill-opacity="0.5019607843137255" cx="0" cy="0" rx="1" ry="1" /></g>
<g transform="translate(96.819430 82.277239) rotate(257.274935) scale(9.917187 66.271153)"><ellipse fill="#f3efec" fill-opacity="0.5019607843137255" cx="0" cy="0" rx="1" ry="1" /></g>
<g transform="translate(156.220427 173.681423) rotate(260.086446) scale(6.799707 9.173572)"><ellipse fill="#99989b" fill-opacity="0.5019607843137255" cx="0" cy="0" rx="1" ry="1" /></g>
<g transform="translate(236.728813 62.722726) rotate(130.022500) scale(7.046778 12.972707)"><ellipse fill="#e4e0df" fill-opacity="0.5019607843137255" cx="0" cy="0" rx="1" ry="1" /></g>
<g transform="translate(66.932452 115.555955) rotate(193.833153) scale(1.916946 1.000000)"><ellipse fill="#19181c" fill-opacity="0.5019607843137255" cx="0" cy="0" rx="1" ry="1" /></g>
<g transform="translate(202.376078 235.835205) rotate(70.075220) scale(7.191918 30.431641)"><ellipse fill="#2f2f31" fill-opacity="0.5019607843137255" cx="0" cy="0" rx="1" ry="1" /></g>
<g transform="translate(13.351633 183.207694) rotate(-7.681435) scale(61.103968 5.432604)"><ellipse fill="#878588" fill-opacity="0.5019607843137255" cx="0" cy="0" rx="1" ry="1" /></g>
<g transform="translate(156.394662 160.206262) rotate(255.725147) scale(6.467496 9.371438)"><ellipse fill="#16151a" fill-opacity="0.5019607843137255" cx="0" cy="0" rx="1" ry="1" /></g>
<g transform="translate(71.397124 16.966279) rotate(352.293870) scale(44.943955 8.816603)"><ellipse fill="#adabac" fill-opacity="0.5019607843137255" cx="0" cy="0" rx="1" ry="1" /></g>
<g transform="translate(214.845304 99.558932) rotate(253.913193) scale(5.041630 28.418458)"><ellipse fill="#656567" fill-opacity="0.5019607843137255" cx="0" cy="0" rx="1" ry="1" /></g>
<g transform="translate(198.087925 155.428221) rotate(190.524119) scale(26.466107 2.414584)"><ellipse fill="#252526" fill-opacity="0.5019607843137255" cx="0" cy="0" rx="1" ry="1" /></g>
<g transform="translate(234.224566 101.187237) rotate(240.479957) scale(6.700130 2.807404)"><ellipse fill="#505052" fill-opacity="0.5019607843137255" cx="0" cy="0" rx="1" ry="1" /></g>
<g transform="translate(96.750007 119.823282) rotate(256.164081) scale(1.000000 1.000000)"><ellipse fill="#383739" fill-opacity="0.5019607843137255" cx="0" cy="0" rx="1" ry="1" /></g>
<g transform="translate(144.551829 172.526407) rotate(315.881998) scale(8.319430 12.254767)"><ellipse fill="#999799" fill-opacity="0.5019607843137255" cx="0" cy="0" rx="1" ry="1" /></g>
<g transform="translate(178.263641 216.225971) rotate(277.689288) scale(4.176744 25.410249)"><ellipse fill="#59595b" fill-opacity="0.5019607843137255" cx="0" cy="0" rx="1" ry="1" /></g>
<g transform="translate(247.000000 30.115459) rotate(237.793065) scale(21.495963 9.440566)"><ellipse fill="#b3b1b3" fill-opacity="0.5019607843137255" cx="0" cy="0" rx="1" ry="1" /></g>
<g transform="translate(77.394518 143.168403) rotate(17.009893) scale(16.632672 6.457835)"><ellipse fill="#c6c4c3" fill-opacity="0.5019607843137255" cx="0" cy="0" rx="1" ry="1" /></g>
<g transform="translate(180.887350 108.884558) rotate(230.956378) scale(1.397722 11.081950)"><ellipse fill="#e3dfde" fill-opacity="0.5019607843137255" cx="0" cy="0" rx="1" ry="1" /></g>
<g transform="translate(218.804677 112.330448) rotate(210.922642) scale(3.602055 3.667327)"><ellipse fill="#b6b4b5" fill-opacity="0.5019607843137255" cx="0" cy="0" rx="1" ry="1" /></g>
<g transform="translate(107.536640 115.207498) rotate(232.920865) scale(5.002019 11.530546)"><ellipse fill="#ded9d8" fill-opacity="0.5019607843137255" cx="0" cy="0" rx="1" ry="1" /></g>
<g transform="translate(227.054469 203.961410) rotate(270.715652) scale(12.839257 6.124162)"><ellipse fill="#0c0b13" fill-opacity="0.5019607843137255" cx="0" cy="0" rx="1" ry="1" /></g>
<g transform="translate(14.463464 174.325745) rotate(82.737045) scale(4.009544 74.693683)"><ellipse fill="#99979b" fill-opacity="0.5019607843137255" cx="0" cy="0" rx="1" ry="1" /></g>
<g transform="translate(20.218799 110.882307) rotate(158.339885) scale(1.000000 26.958445)"><ellipse fill="#eeeae7" fill-opacity="0.5019607843137255" cx="0" cy="0" rx="1" ry="1" /></g>
<g transform="translate(120.455365 230.871141) rotate(9.344741) scale(41.874386 5.020494)"><ellipse fill="#38383a" fill-opacity="0.5019607843137255" cx="0" cy="0" rx="1" ry="1" /></g>
<g transform="translate(180.997016 129.404792) rotate(347.480926) scale(80.921539 1.000000)"><ellipse fill="#545456" fill-opacity="0.5019607843137255" cx="0" cy="0" rx="1" ry="1" /></g>
<g transform="translate(100.069492 133.247275) rotate(258.259390) scale(3.328160 20.196425)"><ellipse fill="#959295" fill-opacity="0.5019607843137255" cx="0" cy="0" rx="1" ry="1" /></g>
<g transform="translate(197.512666 110.212877) rotate(111.903782) scale(1.000000 5.441930)"><ellipse fill="#d0cecd" fill-opacity="0.5019607843137255" cx="0" cy="0" rx="1" ry="1" /></g>
<g transform="translate(226.241602 69.134350) rotate(297.337883) scale(3.553890 14.838496)"><ellipse fill="#969497" fill-opacity="0.5019607843137255" cx="0" cy="0" rx="1" ry="1" /></g>
<g transform="translate(93.412846 123.808842) rotate(86.874503) scale(3.249954 29.779810)"><ellipse fill="#c4c0bf" fill-opacity="0.5019607843137255" cx="0" cy="0" rx="1" ry="1" /></g>
<g transform="translate(246.771313 96.681894) rotate(105.811169) scale(3.223883 1.000000)"><ellipse fill="#4a4b4e" fill-opacity="0.5019607843137255" cx="0" cy="0" rx="1" ry="1" /></g>
<g transform="translate(57.805275 128.535436) rotate(75.215712) scale(8.205737 8.491778)"><ellipse fill="#dfdad8" fill-opacity="0.5019607843137255" cx="0" cy="0" rx="1" ry="1" /></g>
<g transform="translate(182.201489 196.602966) rotate(132.978535) scale(1.720409 5.144074)"><ellipse fill="#3c3c3e" fill-opacity="0.5019607843137255" cx="0" cy="0" rx="1" ry="1" /></g>
<g transform="translate(17.087104 204.187744) rotate(93.527789) scale(6.264632 35.941115)"><ellipse fill="#575759" fill-opacity="0.5019607843137255" cx="0" cy="0" rx="1" ry="1" /></g>
<g transform="translate(50.659998 146.947252) rotate(260.885677) scale(5.345995 27.097104)"><ellipse fill="#ccc9c7" fill-opacity="0.5019607843137255" cx="0" cy="0" rx="1" ry="1" /></g>
<g transform="translate(113.269870 45.226044) rotate(168.712813) scale(78.096956 4.470536)"><ellipse fill="#dcd8d6" fill-opacity="0.5019607843137255" cx="0" cy="0" rx="1" ry="1" /></g>
<g transform="translate(97.030052 118.401894) rotate(186.417422) scale(1.000000 2.167486)"><ellipse fill="#333235" fill-opacity="0.5019607843137255" cx="0" cy="0" rx="1" ry="1" /></g>
<g transform="translate(30.868022 97.127687) rotate(441.330703) scale(2.708132 1.000000)"><ellipse fill="#57565a" fill-opacity="0.5019607843137255" cx="0" cy="0" rx="1" ry="1" /></g>
<g transform="translate(163.483028 110.987419) rotate(182.474051) scale(26.137995 5.027280)"><ellipse fill="#e0dcdc" fill-opacity="0.5019607843137255" cx="0" cy="0" rx="1" ry="1" /></g>
<g transform="translate(247.000000 53.083582) rotate(293.505449) scale(6.550098 60.647132)"><ellipse fill="#d6d2d1" fill-opacity="0.5019607843137255" cx="0" cy="0" rx="1" ry="1" /></g>
<g transform="translate(64.312972 42.836274) rotate(1.735388) scale(47.799792 4.386619)"><ellipse fill="#d0ccca" fill-opacity="0.5019607843137255" cx="0" cy="0" rx="1" ry="1" /></g>
<g transform="translate(239.588575 81.435242) rotate(230.790140) scale(1.976687 5.993168)"><ellipse fill="#848285" fill-opacity="0.5019607843137255" cx="0" cy="0" rx="1" ry="1" /></g>
<g transform="translate(204.894505 74.918483) rotate(254.076891) scale(4.379308 28.394385)"><ellipse fill="#8a888b" fill-opacity="0.5019607843137255" cx="0" cy="0" rx="1" ry="1" /></g>
<g transform="translate(11.077656 34.703157) rotate(105.086848) scale(6.156722 26.316263)"><ellipse fill="#c2c0c0" fill-opacity="0.5019607843137255" cx="0" cy="0" rx="1" ry="1" /></g>
<g transform="translate(229.551512 253.413641) rotate(57.137583) scale(12.176901 75.266436)"><ellipse fill="#17161c" fill-opacity="0.5019607843137255" cx="0" cy="0" rx="1" ry="1" /></g>
<g transform="translate(40.221445 89.640430) rotate(207.806793) scale(8.162276 12.207543)"><ellipse fill="#f5f1ee" fill-opacity="0.5019607843137255" cx="0" cy="0" rx="1" ry="1" /></g>
<g transform="translate(242.427701 209.158694) rotate(245.164093) scale(5.914758 7.645947)"><ellipse fill="#333335" fill-opacity="0.5019607843137255" cx="0" cy="0" rx="1" ry="1" /></g>
<g transform="translate(91.210841 200.708508) rotate(191.888128) scale(29.747174 5.633773)"><ellipse fill="#626263" fill-opacity="0.5019607843137255" cx="0" cy="0" rx="1" ry="1" /></g>
<g transform="translate(30.279225 106.231432) rotate(-38.808518) scale(7.455003 6.657181)"><ellipse fill="#f5f1ee" fill-opacity="0.5019607843137255" cx="0" cy="0" rx="1" ry="1" /></g>
<g transform="translate(96.621840 88.037589) rotate(43.328158) scale(18.518371 39.092531)"><ellipse fill="#eeeae7" fill-opacity="0.5019607843137255" cx="0" cy="0" rx="1" ry="1" /></g>
<g transform="translate(128.792601 182.212550) rotate(7.959871) scale(51.878322 5.204016)"><ellipse fill="#8c8b8d" fill-opacity="0.5019607843137255" cx="0" cy="0" rx="1" ry="1" /></g>
<g transform="translate(168.577341 67.736787) rotate(307.072767) scale(23.747829 13.827373)"><ellipse fill="#f4efec" fill-opacity="0.5019607843137255" cx="0" cy="0" rx="1" ry="1" /></g>
<g transform="translate(239.354981 150.292002) rotate(93.115886) scale(7.878857 38.942396)"><ellipse fill="#0d0b14" fill-opacity="0.5019607843137255" cx="0" cy="0" rx="1" ry="1" /></g>
<g transform="translate(181.068553 119.855985) rotate(172.825831) scale(112.190750 1.000000)"><ellipse fill="#989699" fill-opacity="0.5019607843137255" cx="0" cy="0" rx="1" ry="1" /></g>
<g transform="translate(176.099061 140.594117) rotate(157.692996) scale(15.757343 4.715050)"><ellipse fill="#333335" fill-opacity="0.5019607843137255" cx="0" cy="0" rx="1" ry="1" /></g>
<g transform="translate(207.904740 123.100285) rotate(284.274249) scale(16.851184 1.000000)"><ellipse fill="#505053" fill-opacity="0.5019607843137255" cx="0" cy="0" rx="1" ry="1" /></g>
<g transform="translate(191.722913 156.746009) rotate(133.578549) scale(30.452764 1.000000)"><ellipse fill="#19181f" fill-opacity="0.5019607843137255" cx="0" cy="0" rx="1" ry="1" /></g>
<g transform="translate(214.565195 64.004318) rotate(256.966936) scale(1.900712 13.332955)"><ellipse fill="#a3a2a4" fill-opacity="0.5019607843137255" cx="0" cy="0" rx="1" ry="1" /></g>
<g transform="translate(222.423877 111.762380) rotate(348.565766) scale(13.551908 1.000000)"><ellipse fill="#c0bebf" fill-opacity="0.5019607843137255" cx="0" cy="0" rx="1" ry="1" /></g>
<g transform="translate(181.263871 185.172962) rotate(33.696689) scale(1.352444 5.253455)"><ellipse fill="#5a5a5c" fill-opacity="0.5019607843137255" cx="0" cy="0" rx="1" ry="1" /></g>
<g transform="translate(109.665498 142.169308) rotate(232.382784) scale(6.098480 7.246336)"><ellipse fill="#656567" fill-opacity="0.5019607843137255" cx="0" cy="0" rx="1" ry="1" /></g>
<g transform="translate(160.612243 157.683162) rotate(-0.048997) scale(19.384342 8.631012)"><ellipse fill="#19191d" fill-opacity="0.5019607843137255" cx="0" cy="0" rx="1" ry="1" /></g>
<g transform="translate(0.000000 130.174696) rotate(202.064700) scale(31.175479 6.646870)"><ellipse fill="#dfdbda" fill-opacity="0.5019607843137255" cx="0" cy="0" rx="1" ry="1" /></g>
<g transform="translate(202.822699 81.316300) rotate(145.634303) scale(23.296090 6.278738)"><ellipse fill="#807e81" fill-opacity="0.5019607843137255" cx="0" cy="0" rx="1" ry="1" /></g>
<g transform="translate(170.635059 203.382080) rotate(101.732789) scale(4.655673 19.512837)"><ellipse fill="#6f6f71" fill-opacity="0.5019607843137255" cx="0" cy="0" rx="1" ry="1" /></g>
<g transform="translate(64.728552 238.409785) rotate(94.524536) scale(6.685445 81.982203)"><ellipse fill="#262628" fill-opacity="0.5019607843137255" cx="0" cy="0" rx="1" ry="1" /></g>
<g transform="translate(30.689126 95.145101) rotate(105.348019) scale(2.837211 1.000000)"><ellipse fill="#79787a" fill-opacity="0.5019607843137255" cx="0" cy="0" rx="1" ry="1" /></g>
<g transform="translate(205.353515 127.857107) rotate(348.825940) scale(13.507097 4.428069)"><ellipse fill="#4e4e50" fill-opacity="0.5019607843137255" cx="0" cy="0" rx="1" ry="1" /></g>
<g transform="translate(247.000000 91.807645) rotate(126.731991) scale(11.458220 1.000000)"><ellipse fill="#a2a0a2" fill-opacity="0.5019607843137255" cx="0" cy="0" rx="1" ry="1" /></g>
<g transform="translate(236.315065 228.262039) rotate(46.606722) scale(5.955679 32.378606)"><ellipse fill="#222325" fill-opacity="0.5019607843137255" cx="0" cy="0" rx="1" ry="1" /></g>
<g transform="translate(95.717300 163.789706) rotate(362.546586) scale(54.350943 5.383449)"><ellipse fill="#a4a2a4" fill-opacity="0.5019607843137255" cx="0" cy="0" rx="1" ry="1" /></g>
<g transform="translate(240.325021 96.355950) rotate(99.446477) scale(1.000000 13.252739)"><ellipse fill="#59595b" fill-opacity="0.5019607843137255" cx="0" cy="0" rx="1" ry="1" /></g>
<g transform="translate(28.704404 124.802587) rotate(-10.109847) scale(1.000000 2.358727)"><ellipse fill="#5c5a5d" fill-opacity="0.5019607843137255" cx="0" cy="0" rx="1" ry="1" /></g>
<g transform="translate(182.340256 83.686536) rotate(22.500644) scale(2.056162 12.256618)"><ellipse fill="#9f9c9e" fill-opacity="0.5019607843137255" cx="0" cy="0" rx="1" ry="1" /></g>
<g transform="translate(247.000000 126.954273) rotate(358.491545) scale(9.597706 4.407499)"><ellipse fill="#17171a" fill-opacity="0.5019607843137255" cx="0" cy="0" rx="1" ry="1" /></g>
<g transform="translate(32.201661 195.580655) rotate(269.348116) scale(5.052692 39.872718)"><ellipse fill="#69696b" fill-opacity="0.5019607843137255" cx="0" cy="0" rx="1" ry="1" /></g>
<g transform="translate(15.934284 228.471944) rotate(85.843894) scale(5.255769 48.234136)"><ellipse fill="#303032" fill-opacity="0.5019607843137255" cx="0" cy="0" rx="1" ry="1" /></g>
<g transform="translate(169.912085 183.622312) rotate(157.043634) scale(10.855406 6.932743)"><ellipse fill="#8f8d90" fill-opacity="0.5019607843137255" cx="0" cy="0" rx="1" ry="1" /></g>
<g transform="translate(143.762699 217.815769) rotate(12.274568) scale(23.423015 4.290922)"><ellipse fill="#505053" fill-opacity="0.5019607843137255" cx="0" cy="0" rx="1" ry="1" /></g>
<g transform="translate(170.099769 30.036853) rotate(179.344914) scale(51.090902 3.580447)"><ellipse fill="#d3cfcd" fill-opacity="0.5019607843137255" cx="0" cy="0" rx="1" ry="1" /></g>
<g transform="translate(5.269890 120.460546) rotate(178.947727) scale(30.704256 2.853152)"><ellipse fill="#ece7e4" fill-opacity="0.5019607843137255" cx="0" cy="0" rx="1" ry="1" /></g>
<g transform="translate(110.078203 6.205876) rotate(267.106620) scale(5.371462 51.505518)"><ellipse fill="#a2a0a2" fill-opacity="0.5019607843137255" cx="0" cy="0" rx="1" ry="1" /></g>
<g transform="translate(94.622892 138.634344) rotate(185.803693) scale(7.306516 3.946485)"><ellipse fill="#828183" fill-opacity="0.5019607843137255" cx="0" cy="0" rx="1" ry="1" /></g>
</g>
</svg>