<svg xmlns="http://www.w3.org/2000/svg" version="1.1" width="744" height="768">
<rect x="0" y="0" width="744" height="768" fill="#8d8b8c" />
<g transform="scale(3) translate(0.5 0.5)">
<g transform="translate(144 230) rotate(246) scale(147 255)"><rect fill="#000000" fill-opacity="0.5019607843137255" x="-0.5" y="-0.5" width="1" height="1" /></g>
<g transform="translate(105 58) rotate(64) scale(139 255)"><rect fill="#ffffff" fill-opacity="0.5019607843137255" x="-0.5" y="-0.5" width="1" height="1" /></g>
<g transform="translate(118 177) rotate(381) scale(122 43)"><rect fill="#c1bfc3" fill-opacity="0.5019607843137255" x="-0.5" y="-0.5" width="1" height="1" /></g>
<g transform="translate(242 194) rotate(62) scale(138 99)"><rect fill="#000000" fill-opacity="0.5019607843137255" x="-0.5" y="-0.5" width="1" height="1" /></g>
<g transform="translate(91 82) rotate(178) scale(187 79)"><rect fill="#ffffff" fill-opacity="0.5019607843137255" x="-0.5" y="-0.5" width="1" height="1" /></g>
<g transform="translate(122 255) rotate(95) scale(47 255)"><rect fill="#030409" fill-opacity="0.5019607843137255" x="-0.5" y="-0.5" width="1" height="1" /></g>
<g transform="translate(209 87) rotate(251) scale(46 50)"><rect fill="#535356" fill-opacity="0.5019607843137255" x="-0.5" y="-0.5" width="1" height="1" /></g>
<g transform="translate(151 142) rotate(265) scale(25 71)"><rect fill="#151619" fill-opacity="0.5019607843137255" x="-0.5" y="-0.5" width="1" height="1" /></g>
<g transform="translate(120 2) rotate(447) scale(43 255)"><rect fill="#989598" fill-opacity="0.5019607843137255" x="-0.5" y="-0.5" width="1" height="1" /></g>
<g transform="translate(90 200) rotate(183) scale(184 30)"><rect fill="#68696c" fill-opacity="0.5019607843137255" x="-0.5" y="-0.5" width="1" height="1" /></g>
<g transform="translate(207 43) rotate(-7) scale(164 39)"><rect fill="#f0e9e6" fill-opacity="0.5019607843137255" x="-0.5" y="-0.5" width="1" height="1" /></g>
<g transform="translate(226 172) rotate(150) scale(85 66)"><rect fill="#000009" fill-opacity="0.5019607843137255" x="-0.5" y="-0.5" width="1" height="1" /></g>
<g transform="translate(14 109) rotate(45) scale(75 106)"><rect fill="#f4eee8" fill-opacity="0.5019607843137255" x="-0.5" y="-0.5" width="1" height="1" /></g>
<g transform="translate(112 131) rotate(-13) scale(64 17)"><rect fill="#878588" fill-opacity="0.5019607843137255" x="-0.5" y="-0.5" width="1" height="1" /></g>
<g transform="translate(179 111) rotate(95) scale(7 56)"><rect fill="#fff9f6" fill-opacity="0.5019607843137255" x="-0.5" y="-0.5" width="1" height="1" /></g>
<g transform="translate(69 179) rotate(367) scale(121 35)"><rect fill="#8c8a8d" fill-opacity="0.5019607843137255" x="-0.5" y="-0.5" width="1" height="1" /></g>
<g transform="translate(117 168) rotate(21) scale(93 28)"><rect fill="#aba9ab" fill-opacity="0.5019607843137255" x="-0.5" y="-0.5" width="1" height="1" /></g>
<g transform="translate(154 159) rotate(292) scale(12 92)"><rect fill="#0d0c14" fill-opacity="0.5019607843137255" x="-0.5" y="-0.5" width="1" height="1" /></g>
<g transform="translate(240 67) rotate(46) scale(49 13)"><rect fill="#f5f0ee" fill-opacity="0.5019607843137255" x="-0.5" y="-0.5" width="1" height="1" /></g>
<g transform="translate(84 255) rotate(191) scale(213 79)"><rect fill="#2b2b2d" fill-opacity="0.5019607843137255" x="-0.5" y="-0.5" width="1" height="1" /></g>
<g transform="translate(224 114) rotate(81) scale(9 21)"><rect fill="#cccacd" fill-opacity="0.5019607843137255" x="-0.5" y="-0.5" width="1" height="1" /></g>
<g transform="translate(194 86) rotate(354) scale(31 19)"><rect fill="#787579" fill-opacity="0.5019607843137255" x="-0.5" y="-0.5" width="1" height="1" /></g>
<g transform="translate(28 129) rotate(190) scale(4 13)"><rect fill="#3e3e43" fill-opacity="0.5019607843137255" x="-0.5" y="-0.5" width="1" height="1" /></g>
<g transform="translate(181 219) rotate(280) scale(17 93)"><rect fill="#515155" fill-opacity="0.5019607843137255" x="-0.5" y="-0.5" width="1" height="1" /></g>
<g transform="translate(46 35) rotate(361) scale(133 35)"><rect fill="#c3bfbd" fill-opacity="0.5019607843137255" x="-0.5" y="-0.5" width="1" height="1" /></g>
<g transform="translate(195 124) rotate(80) scale(6 102)"><rect fill="#5a5b5e" fill-opacity="0.5019607843137255" x="-0.5" y="-0.5" width="1" height="1" /></g>
<g transform="translate(234 95) rotate(108) scale(26 15)"><rect fill="#48494c" fill-opacity="0.5019607843137255" x="-0.5" y="-0.5" width="1" height="1" /></g>
<g transform="translate(218 14) rotate(209) scale(66 31)"><rect fill="#abaaab" fill-opacity="0.5019607843137255" x="-0.5" y="-0.5" width="1" height="1" /></g>
<g transform="translate(143 79) rotate(3) scale(75 56)"><rect fill="#f9f3ed" fill-opacity="0.5019607843137255" x="-0.5" y="-0.5" width="1" height="1" /></g>
<g transform="translate(83 255) rotate(96) scale(25 176)"><rect fill="#151418" fill-opacity="0.5019607843137255" x="-0.5" y="-0.5" width="1" height="1" /></g>
<g transform="translate(109 141) rotate(198) scale(35 11)"><rect fill="#636465" fill-opacity="0.5019607843137255" x="-0.5" y="-0.5" width="1" height="1" /></g>
<g transform="translate(34 197) rotate(169) scale(94 26)"><rect fill="#656567" fill-opacity="0.5019607843137255" x="-0.5" y="-0.5" width="1" height="1" /></g>
<g transform="translate(128 0) rotate(-3) scale(202 21)"><rect fill="#979597" fill-opacity="0.5019607843137255" x="-0.5" y="-0.5" width="1" height="1" /></g>
<g transform="translate(121 120) rotate(93) scale(8 60)"><rect fill="#bdb9b8" fill-opacity="0.5019607843137255" x="-0.5" y="-0.5" width="1" height="1" /></g>
<g transform="translate(176 197) rotate(261) scale(39 14)"><rect fill="#88878a" fill-opacity="0.5019607843137255" x="-0.5" y="-0.5" width="1" height="1" /></g>
<g transform="translate(66 113) rotate(181) scale(3 7)"><rect fill="#151314" fill-opacity="0.5019607843137255" x="-0.5" y="-0.5" width="1" height="1" /></g>
<g transform="translate(203 67) rotate(77) scale(12 32)"><rect fill="#979497" fill-opacity="0.5019607843137255" x="-0.5" y="-0.5" width="1" height="1" /></g>
<g transform="translate(196 51) rotate(260) scale(22 36)"><rect fill="#f8f4f1" fill-opacity="0.5019607843137255" x="-0.5" y="-0.5" width="1" height="1" /></g>
<g transform="translate(30 97) rotate(342) scale(4 4)"><rect fill="#191a1e" fill-opacity="0.5019607843137255" x="-0.5" y="-0.5" width="1" height="1" /></g>
<g transform="translate(49 157) rotate(83) scale(21 98)"><rect fill="#b7b5b5" fill-opacity="0.5019607843137255" x="-0.5" y="-0.5" width="1" height="1" /></g>
<g transform="translate(228 132) rotate(250) scale(15 150)"><rect fill="#222226" fill-opacity="0.5019607843137255" x="-0.5" y="-0.5" width="1" height="1" /></g>
<g transform="translate(73 90) rotate(-2) scale(80 44)"><rect fill="#f6f1eb" fill-opacity="0.5019607843137255" x="-0.5" y="-0.5" width="1" height="1" /></g>
<g transform="translate(139 203) rotate(101) scale(16 97)"><rect fill="#656567" fill-opacity="0.5019607843137255" x="-0.5" y="-0.5" width="1" height="1" /></g>
<g transform="translate(179 105) rotate(212) scale(15 14)"><rect fill="#f4efed" fill-opacity="0.5019607843137255" x="-0.5" y="-0.5" width="1" height="1" /></g>
<g transform="translate(46 133) rotate(333) scale(4 3)"><rect fill="#030203" fill-opacity="0.5019607843137255" x="-0.5" y="-0.5" width="1" height="1" /></g>
<g transform="translate(219 103) rotate(334) scale(29 10)"><rect fill="#4d4e50" fill-opacity="0.5019607843137255" x="-0.5" y="-0.5" width="1" height="1" /></g>
<g transform="translate(225 79) rotate(247) scale(19 23)"><rect fill="#727174" fill-opacity="0.5019607843137255" x="-0.5" y="-0.5" width="1" height="1" /></g>
<g transform="translate(121 184) rotate(186) scale(121 19)"><rect fill="#868487" fill-opacity="0.5019607843137255" x="-0.5" y="-0.5" width="1" height="1" /></g>
<g transform="translate(15 116) rotate(62) scale(1 4)"><rect fill="#000002" fill-opacity="0.5019607843137255" x="-0.5" y="-0.5" width="1" height="1" /></g>
<g transform="translate(97 119) rotate(167) scale(1 10)"><rect fill="#373638" fill-opacity="0.5019607843137255" x="-0.5" y="-0.5" width="1" height="1" /></g>
</g>
</svg>