<svg xmlns="http://www.w3.org/2000/svg" version="1.1" width="768" height="429">
<rect x="0" y="0" width="768" height="429" fill="#ae7854" />
<g transform="scale(3) translate(0.5 0.5)">
<ellipse fill="#000000" fill-opacity="0.5019607843137255" cx="255" cy="142" rx="37" ry="37" />
<ellipse fill="#510b00" fill-opacity="0.5019607843137255" cx="128" cy="142" rx="55" ry="55" />
<ellipse fill="#ffa652" fill-opacity="0.5019607843137255" cx="199" cy="73" rx="56" ry="56" />
<ellipse fill="#fffaa0" fill-opacity="0.5019607843137255" cx="131" cy="67" rx="24" ry="24" />
<ellipse fill="#9a9cab" fill-opacity="0.5019607843137255" cx="33" cy="15" rx="58" ry="58" />
<ellipse fill="#48190d" fill-opacity="0.5019607843137255" cx="81" cy="88" rx="17" ry="17" />
<ellipse fill="#000000" fill-opacity="0.5019607843137255" cx="148" cy="91" rx="8" ry="8" />
<ellipse fill="#ffbf56" fill-opacity="0.5019607843137255" cx="110" cy="109" rx="12" ry="12" />
<ellipse fill="#000000" fill-opacity="0.5019607843137255" cx="180" cy="142" rx="17" ry="17" />
<ellipse fill="#3c0011" fill-opacity="0.5019607843137255" cx="96" cy="32" rx="13" ry="13" />
<ellipse fill="#090000" fill-opacity="0.5019607843137255" cx="255" cy="126" rx="25" ry="25" />
<ellipse fill="#f1caa4" fill-opacity="0.5019607843137255" cx="58" cy="48" rx="21" ry="21" />
<ellipse fill="#4d414c" fill-opacity="0.5019607843137255" cx="15" cy="6" rx="22" ry="22" />
<ellipse fill="#ae8590" fill-opacity="0.5019607843137255" cx="180" cy="0" rx="50" ry="50" />
<ellipse fill="#ffee41" fill-opacity="0.5019607843137255" cx="102" cy="56" rx="13" ry="13" />
<ellipse fill="#f48343" fill-opacity="0.5019607843137255" cx="191" cy="102" rx="32" ry="32" />
<ellipse fill="#2c0000" fill-opacity="0.5019607843137255" cx="98" cy="142" rx="19" ry="19" />
<ellipse fill="#000000" fill-opacity="0.5019607843137255" cx="83" cy="50" rx="6" ry="6" />
<ellipse fill="#000000" fill-opacity="0.5019607843137255" cx="117" cy="91" rx="7" ry="7" />
<ellipse fill="#000000" fill-opacity="0.5019607843137255" cx="222" cy="142" rx="12" ry="12" />
<ellipse fill="#ec8d48" fill-opacity="0.5019607843137255" cx="136" cy="111" rx="12" ry="12" />
<ellipse fill="#421a08" fill-opacity="0.5019607843137255" cx="139" cy="140" rx="27" ry="27" />
<ellipse fill="#cb9b7e" fill-opacity="0.5019607843137255" cx="52" cy="99" rx="22" ry="22" />
<ellipse fill="#fb934c" fill-opacity="0.5019607843137255" cx="229" cy="65" rx="38" ry="38" />
<ellipse fill="#c0baee" fill-opacity="0.5019607843137255" cx="118" cy="68" rx="12" ry="12" />
<ellipse fill="#00000e" fill-opacity="0.5019607843137255" cx="119" cy="64" rx="4" ry="4" />
<ellipse fill="#786c87" fill-opacity="0.5019607843137255" cx="80" cy="0" rx="34" ry="34" />
<ellipse fill="#bb9c79" fill-opacity="0.5019607843137255" cx="16" cy="60" rx="35" ry="35" />
<ellipse fill="#0d0620" fill-opacity="0.5019607843137255" cx="46" cy="76" rx="7" ry="7" />
<ellipse fill="#ffce32" fill-opacity="0.5019607843137255" cx="106" cy="97" rx="8" ry="8" />
<ellipse fill="#ffe963" fill-opacity="0.5019607843137255" cx="156" cy="54" rx="13" ry="13" />
<ellipse fill="#f1a55f" fill-opacity="0.5019607843137255" cx="168" cy="101" rx="18" ry="18" />
<ellipse fill="#000053" fill-opacity="0.5019607843137255" cx="143" cy="65" rx="4" ry="4" />
<ellipse fill="#e48e3e" fill-opacity="0.5019607843137255" cx="29" cy="126" rx="20" ry="20" />
<ellipse fill="#fed5c2" fill-opacity="0.5019607843137255" cx="116" cy="28" rx="8" ry="8" />
<ellipse fill="#9a7880" fill-opacity="0.5019607843137255" cx="220" cy="0" rx="37" ry="37" />
<ellipse fill="#000013" fill-opacity="0.5019607843137255" cx="71" cy="80" rx="7" ry="7" />
<ellipse fill="#4b010f" fill-opacity="0.5019607843137255" cx="130" cy="26" rx="7" ry="7" />
<ellipse fill="#37180f" fill-opacity="0.5019607843137255" cx="88" cy="104" rx="13" ry="13" />
<ellipse fill="#000000" fill-opacity="0.5019607843137255" cx="145" cy="94" rx="7" ry="7" />
<ellipse fill="#af624f" fill-opacity="0.5019607843137255" cx="185" cy="73" rx="17" ry="17" />
<ellipse fill="#ffe3b8" fill-opacity="0.5019607843137255" cx="86" cy="33" rx="5" ry="5" />
<ellipse fill="#c7951f" fill-opacity="0.5019607843137255" cx="95" cy="77" rx="16" ry="16" />
<ellipse fill="#561718" fill-opacity="0.5019607843137255" cx="103" cy="21" rx="9" ry="9" />
<ellipse fill="#2b0000" fill-opacity="0.5019607843137255" cx="200" cy="142" rx="8" ry="8" />
<ellipse fill="#360000" fill-opacity="0.5019607843137255" cx="85" cy="41" rx="5" ry="5" />
<ellipse fill="#000000" fill-opacity="0.5019607843137255" cx="153" cy="84" rx="4" ry="4" />
<ellipse fill="#0b0000" fill-opacity="0.5019607843137255" cx="255" cy="108" rx="12" ry="12" />
<ellipse fill="#000000" fill-opacity="0.5019607843137255" cx="158" cy="142" rx="9" ry="9" />
<ellipse fill="#e4a13d" fill-opacity="0.5019607843137255" cx="134" cy="83" rx="10" ry="10" />
</g>
</svg>