<svg xmlns="http://www.w3.org/2000/svg" version="1.1" width="768" height="429">
<rect x="0" y="0" width="768" height="429" fill="#ae7854" />
<g transform="scale(3) translate(0.5 0.5)">
<ellipse fill="#000000" fill-opacity="0.5019607843137255" cx="255" cy="142" rx="37" ry="37" />
<ellipse fill="#510b00" fill-opacity="0.5019607843137255" cx="128" cy="142" rx="55" ry="55" />
<ellipse fill="#ffa652" fill-opacity="0.5019607843137255" cx="199" cy="73" rx="56" ry="56" />
<ellipse fill="#fffaa0" fill-opacity="0.5019607843137255" cx="131" cy="67" rx="24" ry="24" />
<ellipse fill="#9a9cab" fill-opacity="0.5019607843137255" cx="33" cy="15" rx="58" ry="58" />
<ellipse fill="#48190d" fill-opacity="0.5019607843137255" cx="81" cy="88" rx="17" ry="17" />
<ellipse fill="#000000" fill-opacity="0.5019607843137255" cx="148" cy="91" rx="8" ry="8" />
<ellipse fill="#ffbf56" fill-opacity="0.5019607843137255" cx="110" cy="109" rx="12" ry="12" />
<ellipse fill="#000000" fill-opacity="0.5019607843137255" cx="180" cy="142" rx="17" ry="17" />
<ellipse fill="#3c0011" fill-opacity="0.5019607843137255" cx="96" cy="32" rx="13" ry="13" />
<ellipse fill="#090000" fill-opacity="0.5019607843137255" cx="255" cy="126" rx="25" ry="25" />
<ellipse fill="#f1caa4" fill-opacity="0.5019607843137255" cx="58" cy="48" rx="21" ry="21" />
<ellipse fill="#4d414c" fill-opacity="0.5019607843137255" cx="15" cy="6" rx="22" ry="22" />
<ellipse fill="#ae8590" fill-opacity="0.5019607843137255" cx="180" cy="0" rx="50" ry="50" />
<ellipse fill="#ffee41" fill-opacity="0.5019607843137255" cx="102" cy="56" rx="13" ry="13" />
<ellipse fill="#f48343" fill-opacity="0.5019607843137255" cx="191" cy="102" rx="32" ry="32" />
<ellipse fill="#2c0000" fill-opacity="0.5019607843137255" cx="98" cy="142" rx="19" ry="19" />
<ellipse fill="#000000" fill-opacity="0.5019607843137255" cx="83" cy="50" rx="6" ry="6" />
<ellipse fill="#000000" fill-opacity="0.5019607843137255" cx="117" cy="91" rx="7" ry="7" />
<ellipse fill="#000000" fill-opacity="0.5019607843137255" cx="222" cy="142" rx="12" ry="12" />
<ellipse fill="#ec8d48" fill-opacity="0.5019607843137255" cx="136" cy="111" rx="12" ry="12" />
<ellipse fill="#421a08" fill-opacity="0.5019607843137255" cx="139" cy="140" rx="27" ry="27" />
<ellipse fill="#cb9b7e" fill-opacity="0.5019607843137255" cx="52" cy="99" rx="22" ry="22" />
<ellipse fill="#fb934c" fill-opacity="0.5019607843137255" cx="229" cy="65" rx="38" ry="38" />
<ellipse fill="#c0baee" fill-opacity="0.5019607843137255" cx="118" cy="68" rx="12" ry="12" />
<ellipse fill="#00000e" fill-opacity="0.5019607843137255" cx="119" cy="64" rx="4" ry="4" />
<ellipse fill="#786c87" fill-opacity="0.5019607843137255" cx="80" cy="0" rx="34" ry="34" />
<ellipse fill="#bb9c79" fill-opacity="0.5019607843137255" cx="16" cy="60" rx="35" ry="35" />
<ellipse fill="#0d0620" fill-opacity="0.5019607843137255" cx="46" cy="76" rx="7" ry="7" />
<ellipse fill="#ffce32" fill-opacity="0.5019607843137255" cx="106" cy="97" rx="8" ry="8" />
<ellipse fill="#ffe963" fill-opacity="0.5019607843137255" cx="156" cy="54" rx="13" ry="13" />
<ellipse fill="#f1a55f" fill-opacity="0.5019607843137255" cx="168" cy="101" rx="18" ry="18" />
<ellipse fill="#000053" fill-opacity="0.5019607843137255" cx="143" cy="65" rx="4" ry="4" />
<ellipse fill="#e48e3e" fill-opacity="0.5019607843137255" cx="29" cy="126" rx="20" ry="20" />
<ellipse fill="#fed5c2" fill-opacity="0.5019607843137255" cx="116" cy="28" rx="8" ry="8" />
<ellipse fill="#9a7880" fill-opacity="0.5019607843137255" cx="220" cy="0" rx="37" ry="37" />
<ellipse fill="#000013" fill-opacity="0.5019607843137255" cx="71" cy="80" rx="7" ry="7" />
<ellipse fill="#4b010f" fill-opacity="0.5019607843137255" cx="130" cy="26" rx="7" ry="7" />
<ellipse fill="#37180f" fill-opacity="0.5019607843137255" cx="88" cy="104" rx="13" ry="13" />
<ellipse fill="#000000" fill-opacity="0.5019607843137255" cx="145" cy="94" rx="7" ry="7" />
<ellipse fill="#af624f" fill-opacity="0.5019607843137255" cx="185" cy="73" rx="17" ry="17" />
<ellipse fill="#ffe3b8" fill-opacity="0.5019607843137255" cx="86" cy="33" rx="5" ry="5" />
<ellipse fill="#c7951f" fill-opacity="0.5019607843137255" cx="95" cy="77" rx="16" ry="16" />
<ellipse fill="#561718" fill-opacity="0.5019607843137255" cx="103" cy="21" rx="9" ry="9" />
<ellipse fill="#2b0000" fill-opacity="0.5019607843137255" cx="200" cy="142" rx="8" ry="8" />
<ellipse fill="#360000" fill-opacity="0.5019607843137255" cx="85" cy="41" rx="5" ry="5" />
<ellipse fill="#000000" fill-opacity="0.5019607843137255" cx="153" cy="84" rx="4" ry="4" />
<ellipse fill="#0b0000" fill-opacity="0.5019607843137255" cx="255" cy="108" rx="12" ry="12" />
<ellipse fill="#000000" fill-opacity="0.5019607843137255" cx="158" cy="142" rx="9" ry="9" />
<ellipse fill="#e4a13d" fill-opacity="0.5019607843137255" cx="134" cy="83" rx="10" ry="10" />
<ellipse fill="#ffab42" fill-opacity="0.5019607843137255" cx="228" cy="94" rx="19" ry="19" />
<ellipse fill="#ffdf16" fill-opacity="0.5019607843137255" cx="129" cy="51" rx="8" ry="8" />
<ellipse fill="#d1d1f4" fill-opacity="0.5019607843137255" cx="141" cy="65" rx="10" ry="10" />
<ellipse fill="#410000" fill-opacity="0.5019607843137255" cx="51" cy="136" rx="5" ry="5" />
<ellipse fill="#000000" fill-opacity="0.5019607843137255" cx="74" cy="102" rx="4" ry="4" />
<ellipse fill="#b35f3c" fill-opacity="0.5019607843137255" cx="177" cy="121" rx="13" ry="13" />
<ellipse fill="#00111f" fill-opacity="0.5019607843137255" cx="143" cy="64" rx="4" ry="4" />
<ellipse fill="#d8a872" fill-opacity="0.5019607843137255" cx="134" cy="119" rx="6" ry="6" />
<ellipse fill="#f29365" fill-opacity="0.5019607843137255" cx="179" cy="47" rx="19" ry="19" />
<ellipse fill="#ffffff" fill-opacity="0.5019607843137255" cx="137" cy="90" rx="3" ry="3" />
<ellipse fill="#77738a" fill-opacity="0.5019607843137255" cx="41" cy="14" rx="15" ry="15" />
<ellipse fill="#000000" fill-opacity="0.5019607843137255" cx="111" cy="85" rx="3" ry="3" />
<ellipse fill="#000000" fill-opacity="0.5019607843137255" cx="180" cy="142" rx="10" ry="10" />
<ellipse fill="#000000" fill-opacity="0.5019607843137255" cx="133" cy="96" rx="5" ry="5" />
<ellipse fill="#390018" fill-opacity="0.5019607843137255" cx="118" cy="17" rx="5" ry="5" />
<ellipse fill="#ffeb31" fill-opacity="0.5019607843137255" cx="117" cy="50" rx="7" ry="7" />
<ellipse fill="#f16e5e" fill-opacity="0.5019607843137255" cx="76" cy="92" rx="7" ry="7" />
<ellipse fill="#8f839f" fill-opacity="0.5019607843137255" cx="129" cy="0" rx="16" ry="16" />
<ellipse fill="#e55e32" fill-opacity="0.5019607843137255" cx="211" cy="119" rx="14" ry="14" />
<ellipse fill="#001235" fill-opacity="0.5019607843137255" cx="121" cy="66" rx="4" ry="4" />
<ellipse fill="#ee534e" fill-opacity="0.5019607843137255" cx="95" cy="121" rx="7" ry="7" />
<ellipse fill="#acb3c2" fill-opacity="0.5019607843137255" cx="62" cy="89" rx="8" ry="8" />
<ellipse fill="#482900" fill-opacity="0.5019607843137255" cx="85" cy="59" rx="6" ry="6" />
<ellipse fill="#000000" fill-opacity="0.5019607843137255" cx="123" cy="97" rx="5" ry="5" />
<ellipse fill="#720400" fill-opacity="0.5019607843137255" cx="144" cy="39" rx="5" ry="5" />
<ellipse fill="#4e140d" fill-opacity="0.5019607843137255" cx="118" cy="39" rx="5" ry="5" />
<ellipse fill="#000000" fill-opacity="0.5019607843137255" cx="147" cy="90" rx="6" ry="6" />
<ellipse fill="#ffffff" fill-opacity="0.5019607843137255" cx="127" cy="90" rx="3" ry="3" />
<ellipse fill="#eacdad" fill-opacity="0.5019607843137255" cx="71" cy="37" rx="10" ry="10" />
<ellipse fill="#f5ab18" fill-opacity="0.5019607843137255" cx="144" cy="79" rx="7" ry="7" />
<ellipse fill="#370000" fill-opacity="0.5019607843137255" cx="99" cy="40" rx="6" ry="6" />
<ellipse fill="#e08945" fill-opacity="0.5019607843137255" cx="155" cy="131" rx="5" ry="5" />
<ellipse fill="#340000" fill-opacity="0.5019607843137255" cx="152" cy="120" rx="8" ry="8" />
<ellipse fill="#b95e3b" fill-opacity="0.5019607843137255" cx="209" cy="72" rx="10" ry="10" />
<ellipse fill="#faba31" fill-opacity="0.5019607843137255" cx="96" cy="54" rx="10" ry="10" />
<ellipse fill="#ffff3e" fill-opacity="0.5019607843137255" cx="159" cy="73" rx="6" ry="6" />
<ellipse fill="#e97f3f" fill-opacity="0.5019607843137255" cx="126" cy="108" rx="8" ry="8" />
<ellipse fill="#ffda2a" fill-opacity="0.5019607843137255" cx="142" cy="50" rx="7" ry="7" />
<ellipse fill="#ffb96f" fill-opacity="0.5019607843137255" cx="62" cy="131" rx="6" ry="6" />
<ellipse fill="#f4aa30" fill-opacity="0.5019607843137255" cx="152" cy="105" rx="6" ry="6" />
<ellipse fill="#5b3a05" fill-opacity="0.5019607843137255" cx="88" cy="71" rx="6" ry="6" />
<ellipse fill="#ff9a4b" fill-opacity="0.5019607843137255" cx="255" cy="142" rx="5" ry="5" />
<ellipse fill="#000000" fill-opacity="0.5019607843137255" cx="66" cy="87" rx="2" ry="2" />
<ellipse fill="#ffd0a1" fill-opacity="0.5019607843137255" cx="64" cy="113" rx="6" ry="6" />
<ellipse fill="#370000" fill-opacity="0.5019607843137255" cx="52" cy="130" rx="4" ry="4" />
<ellipse fill="#663013" fill-opacity="0.5019607843137255" cx="2" cy="113" rx="7" ry="7" />
<ellipse fill="#d1a588" fill-opacity="0.5019607843137255" cx="85" cy="106" rx="4" ry="4" />
<ellipse fill="#4b0000" fill-opacity="0.5019607843137255" cx="92" cy="138" rx="15" ry="15" />
<ellipse fill="#7a5c45" fill-opacity="0.5019607843137255" cx="30" cy="73" rx="8" ry="8" />
<ellipse fill="#fff4d3" fill-opacity="0.5019607843137255" cx="122" cy="32" rx="4" ry="4" />
<ellipse fill="#c7a37b" fill-opacity="0.5019607843137255" cx="31" cy="87" rx="15" ry="15" />
<ellipse fill="#cfb7b2" fill-opacity="0.5019607843137255" cx="9" cy="33" rx="9" ry="9" />
<ellipse fill="#9a6e53" fill-opacity="0.5019607843137255" cx="47" cy="54" rx="8" ry="8" />
<ellipse fill="#5b0d10" fill-opacity="0.5019607843137255" cx="132" cy="33" rx="5" ry="5" />
<ellipse fill="#420c00" fill-opacity="0.5019607843137255" cx="89" cy="94" rx="8" ry="8" />
<ellipse fill="#000000" fill-opacity="0.5019607843137255" cx="146" cy="142" rx="6" ry="6" />
<ellipse fill="#3d1d16" fill-opacity="0.5019607843137255" cx="51" cy="23" rx="4" ry="4" />
<ellipse fill="#fdd836" fill-opacity="0.5019607843137255" cx="46" cy="123" rx="6" ry="6" />
<ellipse fill="#e2b094" fill-opacity="0.5019607843137255" cx="79" cy="108" rx="4" ry="4" />
<ellipse fill="#ceb09f" fill-opacity="0.5019607843137255" cx="78" cy="74" rx="4" ry="4" />
<ellipse fill="#ffcfce" fill-opacity="0.5019607843137255" cx="83" cy="82" rx="3" ry="3" />
<ellipse fill="#ff9b42" fill-opacity="0.5019607843137255" cx="200" cy="98" rx="18" ry="18" />
<ellipse fill="#875030" fill-opacity="0.5019607843137255" cx="33" cy="111" rx="7" ry="7" />
<ellipse fill="#52220c" fill-opacity="0.5019607843137255" cx="34" cy="23" rx="4" ry="4" />
<ellipse fill="#000000" fill-opacity="0.5019607843137255" cx="117" cy="91" rx="5" ry="5" />
<ellipse fill="#450b16" fill-opacity="0.5019607843137255" cx="109" cy="16" rx="5" ry="5" />
<ellipse fill="#000000" fill-opacity="0.5019607843137255" cx="91" cy="111" rx="5" ry="5" />
<ellipse fill="#cbb2a7" fill-opacity="0.5019607843137255" cx="39" cy="36" rx="11" ry="11" />
<ellipse fill="#e79f77" fill-opacity="0.5019607843137255" cx="146" cy="28" rx="9" ry="9" />
<ellipse fill="#ada6b4" fill-opacity="0.5019607843137255" cx="29" cy="14" rx="6" ry="6" />
<ellipse fill="#dc8965" fill-opacity="0.5019607843137255" cx="235" cy="35" rx="20" ry="20" />
<ellipse fill="#936007" fill-opacity="0.5019607843137255" cx="158" cy="99" rx="5" ry="5" />
<ellipse fill="#492619" fill-opacity="0.5019607843137255" cx="43" cy="22" rx="4" ry="4" />
<ellipse fill="#fffbef" fill-opacity="0.5019607843137255" cx="124" cy="73" rx="5" ry="5" />
<ellipse fill="#310000" fill-opacity="0.5019607843137255" cx="110" cy="42" rx="3" ry="3" />
<ellipse fill="#ffca3c" fill-opacity="0.5019607843137255" cx="100" cy="74" rx="6" ry="6" />
<ellipse fill="#908da0" fill-opacity="0.5019607843137255" cx="50" cy="6" rx="16" ry="16" />
<ellipse fill="#1b0200" fill-opacity="0.5019607843137255" cx="227" cy="142" rx="14" ry="14" />
<ellipse fill="#ffc752" fill-opacity="0.5019607843137255" cx="245" cy="85" rx="10" ry="10" />
<ellipse fill="#f6d6ba" fill-opacity="0.5019607843137255" cx="11" cy="56" rx="5" ry="5" />
<ellipse fill="#000000" fill-opacity="0.5019607843137255" cx="166" cy="142" rx="9" ry="9" />
<ellipse fill="#290c00" fill-opacity="0.5019607843137255" cx="58" cy="24" rx="3" ry="3" />
<ellipse fill="#ff7f3d" fill-opacity="0.5019607843137255" cx="227" cy="106" rx="11" ry="11" />
<ellipse fill="#ed6c56" fill-opacity="0.5019607843137255" cx="109" cy="115" rx="9" ry="9" />
<ellipse fill="#ffdb35" fill-opacity="0.5019607843137255" cx="161" cy="88" rx="6" ry="6" />
<ellipse fill="#ffe9cb" fill-opacity="0.5019607843137255" cx="180" cy="103" rx="4" ry="4" />
<ellipse fill="#cf5a2a" fill-opacity="0.5019607843137255" cx="225" cy="71" rx="8" ry="8" />
<ellipse fill="#430000" fill-opacity="0.5019607843137255" cx="74" cy="102" rx="5" ry="5" />
<ellipse fill="#59280c" fill-opacity="0.5019607843137255" cx="57" cy="122" rx="4" ry="4" />
<ellipse fill="#3c000a" fill-opacity="0.5019607843137255" cx="125" cy="17" rx="3" ry="3" />
<ellipse fill="#f2d3ad" fill-opacity="0.5019607843137255" cx="70" cy="55" rx="8" ry="8" />
<ellipse fill="#cf9e85" fill-opacity="0.5019607843137255" cx="114" cy="26" rx="7" ry="7" />
<ellipse fill="#978a96" fill-opacity="0.5019607843137255" cx="83" cy="4" rx="19" ry="19" />
<ellipse fill="#56301e" fill-opacity="0.5019607843137255" cx="67" cy="26" rx="4" ry="4" />
<ellipse fill="#bdb5c4" fill-opacity="0.5019607843137255" cx="5" cy="15" rx="4" ry="4" />
<ellipse fill="#cf574d" fill-opacity="0.5019607843137255" cx="85" cy="121" rx="6" ry="6" />
<ellipse fill="#2b0e00" fill-opacity="0.5019607843137255" cx="99" cy="111" rx="4" ry="4" />
<ellipse fill="#000000" fill-opacity="0.5019607843137255" cx="144" cy="97" rx="5" ry="5" />
<ellipse fill="#e89060" fill-opacity="0.5019607843137255" cx="205" cy="45" rx="19" ry="19" />
<ellipse fill="#d59f32" fill-opacity="0.5019607843137255" cx="104" cy="95" rx="9" ry="9" />
<ellipse fill="#802d26" fill-opacity="0.5019607843137255" cx="73" cy="131" rx="7" ry="7" />
<ellipse fill="#5a4947" fill-opacity="0.5019607843137255" cx="10" cy="0" rx="14" ry="14" />
<ellipse fill="#cfa47e" fill-opacity="0.5019607843137255" cx="90" cy="104" rx="3" ry="3" />
<ellipse fill="#917b85" fill-opacity="0.5019607843137255" cx="166" cy="0" rx="21" ry="21" />
<ellipse fill="#967a83" fill-opacity="0.5019607843137255" cx="232" cy="0" rx="24" ry="24" />
<ellipse fill="#070000" fill-opacity="0.5019607843137255" cx="83" cy="55" rx="4" ry="4" />
<ellipse fill="#3a190b" fill-opacity="0.5019607843137255" cx="78" cy="25" rx="3" ry="3" />
<ellipse fill="#090507" fill-opacity="0.5019607843137255" cx="66" cy="79" rx="4" ry="4" />
<ellipse fill="#540000" fill-opacity="0.5019607843137255" cx="132" cy="40" rx="3" ry="3" />
<ellipse fill="#c57810" fill-opacity="0.5019607843137255" cx="115" cy="81" rx="4" ry="4" />
<ellipse fill="#2e262e" fill-opacity="0.5019607843137255" cx="59" cy="69" rx="3" ry="3" />
<ellipse fill="#000000" fill-opacity="0.5019607843137255" cx="193" cy="137" rx="4" ry="4" />
<ellipse fill="#ab6131" fill-opacity="0.5019607843137255" cx="113" cy="142" rx="6" ry="6" />
<ellipse fill="#ffffff" fill-opacity="0.5019607843137255" cx="150" cy="69" rx="4" ry="4" />
<ellipse fill="#641811" fill-opacity="0.5019607843137255" cx="98" cy="29" rx="8" ry="8" />
<ellipse fill="#cb7338" fill-opacity="0.5019607843137255" cx="146" cy="132" rx="4" ry="4" />
<ellipse fill="#ee9765" fill-opacity="0.5019607843137255" cx="158" cy="36" rx="9" ry="9" />
<ellipse fill="#ffc9b6" fill-opacity="0.5019607843137255" cx="165" cy="111" rx="4" ry="4" />
<ellipse fill="#b36a37" fill-opacity="0.5019607843137255" cx="160" cy="129" rx="6" ry="6" />
<ellipse fill="#50190f" fill-opacity="0.5019607843137255" cx="38" cy="119" rx="3" ry="3" />
<ellipse fill="#fff1d2" fill-opacity="0.5019607843137255" cx="105" cy="21" rx="2" ry="2" />
<ellipse fill="#ffc5bc" fill-opacity="0.5019607843137255" cx="61" cy="73" rx="3" ry="3" />
<ellipse fill="#bf6d3e" fill-opacity="0.5019607843137255" cx="199" cy="125" rx="11" ry="11" />
<ellipse fill="#000000" fill-opacity="0.5019607843137255" cx="155" cy="81" rx="2" ry="2" />
<ellipse fill="#fac398" fill-opacity="0.5019607843137255" cx="66" cy="124" rx="4" ry="4" />
<ellipse fill="#e38f5f" fill-opacity="0.5019607843137255" cx="20" cy="121" rx="12" ry="12" />
<ellipse fill="#310d00" fill-opacity="0.5019607843137255" cx="87" cy="80" rx="3" ry="3" />
<ellipse fill="#eeccad" fill-opacity="0.5019607843137255" cx="40" cy="64" rx="5" ry="5" />
<ellipse fill="#7f6453" fill-opacity="0.5019607843137255" cx="33" cy="74" rx="9" ry="9" />
<ellipse fill="#201001" fill-opacity="0.5019607843137255" cx="255" cy="96" rx="4" ry="4" />
<ellipse fill="#a27852" fill-opacity="0.5019607843137255" cx="28" cy="53" rx="9" ry="9" />
<ellipse fill="#110404" fill-opacity="0.5019607843137255" cx="73" cy="81" rx="6" ry="6" />
<ellipse fill="#ecdbe6" fill-opacity="0.5019607843137255" cx="113" cy="62" rx="5" ry="5" />
<ellipse fill="#000000" fill-opacity="0.5019607843137255" cx="84" cy="100" rx="4" ry="4" />
<ellipse fill="#50120c" fill-opacity="0.5019607843137255" cx="125" cy="42" rx="3" ry="3" />
<ellipse fill="#430100" fill-opacity="0.5019607843137255" cx="119" cy="26" rx="2" ry="2" />
<ellipse fill="#270200" fill-opacity="0.5019607843137255" cx="247" cy="126" rx="14" ry="14" />
<ellipse fill="#baab9d" fill-opacity="0.5019607843137255" cx="70" cy="142" rx="6" ry="6" />
<ellipse fill="#000000" fill-opacity="0.5019607843137255" cx="138" cy="142" rx="4" ry="4" />
<ellipse fill="#000000" fill-opacity="0.5019607843137255" cx="114" cy="89" rx="4" ry="4" />
<ellipse fill="#611000" fill-opacity="0.5019607843137255" cx="121" cy="126" rx="9" ry="9" />
<ellipse fill="#b76e51" fill-opacity="0.5019607843137255" cx="177" cy="72" rx="14" ry="14" />
<ellipse fill="#ffd1a4" fill-opacity="0.5019607843137255" cx="91" cy="38" rx="2" ry="2" />
<ellipse fill="#825f3e" fill-opacity="0.5019607843137255" cx="0" cy="86" rx="8" ry="8" />
<ellipse fill="#fff0d0" fill-opacity="0.5019607843137255" cx="173" cy="101" rx="3" ry="3" />
<ellipse fill="#ffe548" fill-opacity="0.5019607843137255" cx="109" cy="50" rx="6" ry="6" />
<ellipse fill="#0a0003" fill-opacity="0.5019607843137255" cx="104" cy="134" rx="6" ry="6" />
<ellipse fill="#ffb612" fill-opacity="0.5019607843137255" cx="122" cy="83" rx="4" ry="4" />
<ellipse fill="#420402" fill-opacity="0.5019607843137255" cx="112" cy="26" rx="2" ry="2" />
<ellipse fill="#d28618" fill-opacity="0.5019607843137255" cx="135" cy="82" rx="6" ry="6" />
</g>
</svg>