<svg xmlns="http://www.w3.org/2000/svg" version="1.1" width="768" height="429">
<rect x="0" y="0" width="768" height="429" fill="#ae7854" />
<g transform="scale(3) translate(0.5 0.5)">
<ellipse fill="#000000" fill-opacity="0.5019607843137255" cx="255" cy="137" rx="35" ry="33" />
<ellipse fill="#1b0000" fill-opacity="0.5019607843137255" cx="136" cy="142" rx="64" ry="27" />
<ellipse fill="#ffb55c" fill-opacity="0.5019607843137255" cx="215" cy="62" rx="125" ry="36" />
<ellipse fill="#a29da1" fill-opacity="0.5019607843137255" cx="38" cy="30" rx="43" ry="73" />
<ellipse fill="#000000" fill-opacity="0.5019607843137255" cx="135" cy="93" rx="23" ry="9" />
<ellipse fill="#ff8c3c" fill-opacity="0.5019607843137255" cx="194" cy="102" rx="43" ry="32" />
<ellipse fill="#5c1a07" fill-opacity="0.5019607843137255" cx="85" cy="109" rx="12" ry="74" />
<ellipse fill="#e7e3a4" fill-opacity="0.5019607843137255" cx="132" cy="68" rx="21" ry="25" />
<ellipse fill="#796a87" fill-opacity="0.5019607843137255" cx="27" cy="8" rx="249" ry="20" />
<ellipse fill="#2d0000" fill-opacity="0.5019607843137255" cx="100" cy="29" rx="9" ry="15" />
<ellipse fill="#000000" fill-opacity="0.5019607843137255" cx="191" cy="142" rx="60" ry="9" />
<ellipse fill="#0c0000" fill-opacity="0.5019607843137255" cx="253" cy="127" rx="16" ry="30" />
<ellipse fill="#530c0e" fill-opacity="0.5019607843137255" cx="116" cy="40" rx="35" ry="5" />
<ellipse fill="#ebc7a6" fill-opacity="0.5019607843137255" cx="55" cy="47" rx="23" ry="21" />
<ellipse fill="#ffeb33" fill-opacity="0.5019607843137255" cx="129" cy="49" rx="43" ry="6" />
<ellipse fill="#000004" fill-opacity="0.5019607843137255" cx="70" cy="82" rx="8" ry="8" />
<ellipse fill="#462512" fill-opacity="0.5019607843137255" cx="28" cy="23" rx="48" ry="3" />
<ellipse fill="#ff913f" fill-opacity="0.5019607843137255" cx="223" cy="82" rx="27" ry="36" />
<ellipse fill="#c2c2df" fill-opacity="0.5019607843137255" cx="130" cy="66" rx="24" ry="10" />
<ellipse fill="#000000" fill-opacity="0.5019607843137255" cx="149" cy="88" rx="7" ry="6" />
<ellipse fill="#b05a47" fill-opacity="0.5019607843137255" cx="196" cy="72" rx="33" ry="12" />
<ellipse fill="#3f352f" fill-opacity="0.5019607843137255" cx="9" cy="0" rx="27" ry="13" />
<ellipse fill="#300308" fill-opacity="0.5019607843137255" cx="48" cy="76" rx="7" ry="7" />
<ellipse fill="#2e1305" fill-opacity="0.5019607843137255" cx="90" cy="103" rx="11" ry="14" />
<ellipse fill="#dc944b" fill-opacity="0.5019607843137255" cx="30" cy="114" rx="21" ry="36" />
<ellipse fill="#00113d" fill-opacity="0.5019607843137255" cx="120" cy="65" rx="5" ry="5" />
<ellipse fill="#000000" fill-opacity="0.5019607843137255" cx="117" cy="88" rx="7" ry="4" />
<ellipse fill="#420000" fill-opacity="0.5019607843137255" cx="113" cy="16" rx="15" ry="4" />
<ellipse fill="#c18a80" fill-opacity="0.5019607843137255" cx="170" cy="19" rx="35" ry="21" />
<ellipse fill="#000000" fill-opacity="0.5019607843137255" cx="133" cy="96" rx="19" ry="4" />
<ellipse fill="#f36154" fill-opacity="0.5019607843137255" cx="96" cy="120" rx="22" ry="5" />
<ellipse fill="#3c0000" fill-opacity="0.5019607843137255" cx="151" cy="120" rx="10" ry="9" />
<ellipse fill="#4b0000" fill-opacity="0.5019607843137255" cx="131" cy="28" rx="6" ry="9" />
<ellipse fill="#f7cb2c" fill-opacity="0.5019607843137255" cx="98" cy="62" rx="9" ry="18" />
<ellipse fill="#ceb9b1" fill-opacity="0.5019607843137255" cx="33" cy="33" rx="59" ry="7" />
<ellipse fill="#ffd8b9" fill-opacity="0.5019607843137255" cx="116" cy="28" rx="8" ry="8" />
<ellipse fill="#f0a011" fill-opacity="0.5019607843137255" cx="135" cy="81" rx="15" ry="7" />
<ellipse fill="#5b0001" fill-opacity="0.5019607843137255" cx="100" cy="132" rx="33" ry="9" />
<ellipse fill="#cc8f75" fill-opacity="0.5019607843137255" cx="67" cy="142" rx="10" ry="59" />
<ellipse fill="#000635" fill-opacity="0.5019607843137255" cx="141" cy="64" rx="4" ry="4" />
<ellipse fill="#200c0c" fill-opacity="0.5019607843137255" cx="255" cy="30" rx="1" ry="103" />
<ellipse fill="#e17321" fill-opacity="0.5019607843137255" cx="125" cy="108" rx="27" ry="9" />
<ellipse fill="#030000" fill-opacity="0.5019607843137255" cx="78" cy="102" rx="9" ry="4" />
<ellipse fill="#2a0600" fill-opacity="0.5019607843137255" cx="242" cy="139" rx="28" ry="17" />
<ellipse fill="#986f4d" fill-opacity="0.5019607843137255" cx="41" cy="53" rx="18" ry="7" />
<ellipse fill="#fff948" fill-opacity="0.5019607843137255" cx="157" cy="62" rx="6" ry="17" />
<ellipse fill="#290000" fill-opacity="0.5019607843137255" cx="52" cy="133" rx="4" ry="8" />
<ellipse fill="#fccead" fill-opacity="0.5019607843137255" cx="84" cy="106" rx="6" ry="3" />
<ellipse fill="#ffa150" fill-opacity="0.5019607843137255" cx="204" cy="96" rx="44" ry="16" />
<ellipse fill="#56271d" fill-opacity="0.5019607843137255" cx="87" cy="25" rx="39" ry="2" />
</g>
</svg>