<svg xmlns="http://www.w3.org/2000/svg" version="1.1" width="768" height="429">
<rect x="0" y="0" width="768" height="429" fill="#ae7854" />
<g transform="scale(3) translate(0.5 0.5)">
<polygon fill="#000000" fill-opacity="0.5019607843137255" points="217.395828,133.700828 20.531918,129.988063 249.664418,158.000000 270.713756,75.256091" />
<polygon fill="#ffb358" fill-opacity="0.5019607843137255" points="250.095697,20.636820 260.516985,87.426007 219.466812,125.599834 50.303471,54.993012" />
<polygon fill="#5c1800" fill-opacity="0.5019607843137255" points="172.323071,143.128684 154.885575,86.918632 65.527794,76.296796 81.134135,146.936481" />
<polygon fill="#a8a1a7" fill-opacity="0.5019607843137255" points="44.628431,-8.029702 103.920057,-3.434521 48.570195,113.229332 -16.000000,53.719080" />
<polygon fill="#ffa845" fill-opacity="0.5019607843137255" points="117.868743,100.335578 246.547119,105.498039 99.131927,119.441622 95.724601,65.061760" />
<polygon fill="#370603" fill-opacity="0.5019607843137255" points="75.198183,45.820721 89.873285,87.743017 91.080442,12.770479 116.489541,41.629444" />
<polygon fill="#f2e991" fill-opacity="0.5019607843137255" points="126.720728,93.934677 100.107758,45.061674 174.633724,43.963201 136.892066,93.567388" />
<polygon fill="#000000" fill-opacity="0.5019607843137255" points="154.145084,79.522073 151.022897,105.999010 103.521679,79.697674 122.205023,106.228971" />
<polygon fill="#6f6788" fill-opacity="0.5019607843137255" points="-16.000000,27.575329 77.263608,27.635174 271.000000,3.975236 7.264665,-16.000000" />
<polygon fill="#010000" fill-opacity="0.5019607843137255" points="271.000000,133.065427 257.094331,75.775741 253.679852,98.869142 196.815087,158.000000" />
<polygon fill="#e9c8aa" fill-opacity="0.5019607843137255" points="87.143365,30.724304 26.809862,29.546167 60.141817,70.295425 72.873679,60.311872" />
<polygon fill="#d38f58" fill-opacity="0.5019607843137255" points="77.077035,140.261000 73.238699,89.834841 9.635552,77.177381 9.598824,137.967223" />
<polygon fill="#bbbce2" fill-opacity="0.5019607843137255" points="150.639955,71.814687 112.665355,81.987752 107.011300,60.815904 147.959128,56.527659" />
<polygon fill="#f88340" fill-opacity="0.5019607843137255" points="188.539375,50.481470 271.000000,47.805675 212.303335,140.941968 146.041170,104.306034" />
<polygon fill="#000000" fill-opacity="0.5019607843137255" points="144.328338,137.475982 101.889290,158.000000 207.426533,137.539396 180.595237,132.585665" />
<polygon fill="#3e0000" fill-opacity="0.5019607843137255" points="101.336090,124.830006 76.141270,128.195967 67.921319,150.155413 177.591421,119.530807" />
<polygon fill="#441d1c" fill-opacity="0.5019607843137255" points="44.364559,82.164293 87.994742,78.809081 31.592742,69.896888 29.944217,62.316427" />
<polygon fill="#792b27" fill-opacity="0.5019607843137255" points="92.187861,12.445432 138.772388,15.917483 121.660969,43.858766 160.342737,43.454276" />
<polygon fill="#b0868a" fill-opacity="0.5019607843137255" points="255.013606,29.309490 141.626261,34.985049 112.144764,-16.000000 255.149615,-16.000000" />
<polygon fill="#230005" fill-opacity="0.5019607843137255" points="88.508853,120.805985 101.851556,103.084793 64.646451,106.551547 93.484244,86.510915" />
<polygon fill="#b15f48" fill-opacity="0.5019607843137255" points="161.946934,64.029568 172.042496,94.267615 171.646089,91.105659 248.621241,65.953344" />
<polygon fill="#000000" fill-opacity="0.5019607843137255" points="143.214885,107.675893 142.791475,95.302474 157.104446,76.162928 156.697374,85.878603" />
<polygon fill="#4d2614" fill-opacity="0.5019607843137255" points="-16.000000,19.494100 22.478494,26.887209 122.077232,25.422547 -16.000000,18.895617" />
<polygon fill="#ffdcc4" fill-opacity="0.5019607843137255" points="126.342515,33.818740 122.635110,23.182266 116.870621,20.004375 106.945757,36.115351" />
<polygon fill="#58130f" fill-opacity="0.5019607843137255" points="132.318638,43.256066 82.759884,45.967658 80.222636,40.605655 100.919295,31.240074" />
<polygon fill="#e3bea5" fill-opacity="0.5019607843137255" points="51.492657,114.031108 89.906421,101.440111 92.355272,103.915111 67.267400,116.424158" />
<polygon fill="#000a36" fill-opacity="0.5019607843137255" points="116.305431,67.226636 119.083063,60.535983 127.256801,68.165442 104.492717,66.441254" />
<polygon fill="#f6cb24" fill-opacity="0.5019607843137255" points="88.896905,60.711488 166.235245,48.343290 86.761105,43.546684 126.616935,122.417611" />
<polygon fill="#461000" fill-opacity="0.5019607843137255" points="54.544191,115.403940 62.769885,123.146392 45.930453,128.985121 57.663022,158.000000" />
<polygon fill="#ffd746" fill-opacity="0.5019607843137255" points="153.081882,65.828348 166.671487,113.892804 163.294038,57.784729 147.241309,21.652133" />
<polygon fill="#f1ad27" fill-opacity="0.5019607843137255" points="137.406181,88.909464 160.535554,77.934062 133.863114,72.533075 113.856363,84.708360" />
<polygon fill="#3d0000" fill-opacity="0.5019607843137255" points="151.653150,109.350862 158.594208,116.794437 166.505889,122.475960 130.597280,134.752921" />
<polygon fill="#d4a098" fill-opacity="0.5019607843137255" points="57.056560,61.813964 34.672870,59.377844 85.704777,98.272784 48.377917,96.363781" />
<polygon fill="#031837" fill-opacity="0.5019607843137255" points="136.841218,66.937331 131.274363,72.731795 143.405041,60.734291 147.559799,67.005363" />
<polygon fill="#e06d5a" fill-opacity="0.5019607843137255" points="168.302518,103.946550 123.913384,102.975605 115.836738,124.382737 57.834569,121.094330" />
<polygon fill="#cdbdb9" fill-opacity="0.5019607843137255" points="2.073342,35.714005 -15.781107,25.592254 48.125781,27.531155 96.496918,34.082197" />
<polygon fill="#000000" fill-opacity="0.5019607843137255" points="151.808302,91.747621 134.430365,103.224230 107.432281,80.730684 113.450338,94.048109" />
<polygon fill="#434143" fill-opacity="0.5019607843137255" points="22.248939,12.915738 -16.000000,12.896235 2.365613,-16.000000 61.813495,-16.000000" />
<polygon fill="#c4602f" fill-opacity="0.5019607843137255" points="109.401278,140.877997 212.964144,107.959851 225.547772,128.762973 155.104575,135.016277" />
<polygon fill="#00000f" fill-opacity="0.5019607843137255" points="80.785229,82.546873 75.469899,87.328163 62.293114,80.371802 73.496758,72.722703" />
<polygon fill="#ffaf44" fill-opacity="0.5019607843137255" points="255.161740,76.003325 251.363692,97.709269 181.791210,118.950703 211.057337,79.025283" />
<polygon fill="#fba785" fill-opacity="0.5019607843137255" points="82.516326,91.772665 88.113558,84.517345 84.566992,80.231600 77.721675,71.781361" />
<polygon fill="#4b0d16" fill-opacity="0.5019607843137255" points="108.720333,27.017415 97.454714,14.886077 80.296529,72.610658 81.670237,38.399604" />
<polygon fill="#e58c6d" fill-opacity="0.5019607843137255" points="142.268498,30.856930 181.251005,67.482841 255.552572,44.584763 127.377149,14.304730" />
<polygon fill="#401a12" fill-opacity="0.5019607843137255" points="57.235667,67.307501 48.094341,84.346596 42.912571,76.117238 69.108742,68.537738" />
<polygon fill="#150000" fill-opacity="0.5019607843137255" points="85.771971,109.333630 79.356926,116.564911 98.448309,116.284041 101.755345,107.369793" />
<polygon fill="#e1b78f" fill-opacity="0.5019607843137255" points="128.765398,124.978437 143.299405,124.336253 138.710846,118.227385 130.424289,120.626305" />
<polygon fill="#f4b788" fill-opacity="0.5019607843137255" points="89.947791,158.000000 55.197871,131.330113 68.370484,120.086160 66.095632,130.952673" />
<polygon fill="#fff5c9" fill-opacity="0.5019607843137255" points="180.918674,100.907003 180.521434,100.859667 160.156458,98.054427 188.905538,109.311100" />
<polygon fill="#874a22" fill-opacity="0.5019607843137255" points="-16.000000,125.935305 17.396224,103.456495 39.871090,125.109630 39.115072,102.123100" />
</g>
</svg>