<svg xmlns="http://www.w3.org/2000/svg" version="1.1" width="768" height="429">
<rect x="0" y="0" width="768" height="429" fill="#ae7854" />
<g transform="scale(3) translate(0.5 0.5)">
<polygon fill="#000000" fill-opacity="0.5019607843137255" points="217.395828,133.700828 20.531918,129.988063 249.664418,158.000000 270.713756,75.256091" />
<polygon fill="#ffb358" fill-opacity="0.5019607843137255" points="250.095697,20.636820 260.516985,87.426007 219.466812,125.599834 50.303471,54.993012" />
<polygon fill="#5c1800" fill-opacity="0.5019607843137255" points="172.323071,143.128684 154.885575,86.918632 65.527794,76.296796 81.134135,146.936481" />
<polygon fill="#a8a1a7" fill-opacity="0.5019607843137255" points="44.628431,-8.029702 103.920057,-3.434521 48.570195,113.229332 -16.000000,53.719080" />
<polygon fill="#ffa845" fill-opacity="0.5019607843137255" points="117.868743,100.335578 246.547119,105.498039 99.131927,119.441622 95.724601,65.061760" />
<polygon fill="#370603" fill-opacity="0.5019607843137255" points="75.198183,45.820721 89.873285,87.743017 91.080442,12.770479 116.489541,41.629444" />
<polygon fill="#f2e991" fill-opacity="0.5019607843137255" points="126.720728,93.934677 100.107758,45.061674 174.633724,43.963201 136.892066,93.567388" />
<polygon fill="#000000" fill-opacity="0.5019607843137255" points="154.145084,79.522073 151.022897,105.999010 103.521679,79.697674 122.205023,106.228971" />
<polygon fill="#6f6788" fill-opacity="0.5019607843137255" points="-16.000000,27.575329 77.263608,27.635174 271.000000,3.975236 7.264665,-16.000000" />
<polygon fill="#010000" fill-opacity="0.5019607843137255" points="271.000000,133.065427 257.094331,75.775741 253.679852,98.869142 196.815087,158.000000" />
<polygon fill="#e9c8aa" fill-opacity="0.5019607843137255" points="87.143365,30.724304 26.809862,29.546167 60.141817,70.295425 72.873679,60.311872" />
<polygon fill="#d38f58" fill-opacity="0.5019607843137255" points="77.077035,140.261000 73.238699,89.834841 9.635552,77.177381 9.598824,137.967223" />
<polygon fill="#bbbce2" fill-opacity="0.5019607843137255" points="150.639955,71.814687 112.665355,81.987752 107.011300,60.815904 147.959128,56.527659" />
<polygon fill="#f88340" fill-opacity="0.5019607843137255" points="188.539375,50.481470 271.000000,47.805675 212.303335,140.941968 146.041170,104.306034" />
<polygon fill="#000000" fill-opacity="0.5019607843137255" points="144.328338,137.475982 101.889290,158.000000 207.426533,137.539396 180.595237,132.585665" />
<polygon fill="#3e0000" fill-opacity="0.5019607843137255" points="101.336090,124.830006 76.141270,128.195967 67.921319,150.155413 177.591421,119.530807" />
<polygon fill="#441d1c" fill-opacity="0.5019607843137255" points="44.364559,82.164293 87.994742,78.809081 31.592742,69.896888 29.944217,62.316427" />
<polygon fill="#792b27" fill-opacity="0.5019607843137255" points="92.187861,12.445432 138.772388,15.917483 121.660969,43.858766 160.342737,43.454276" />
<polygon fill="#b0868a" fill-opacity="0.5019607843137255" points="255.013606,29.309490 141.626261,34.985049 112.144764,-16.000000 255.149615,-16.000000" />
<polygon fill="#230005" fill-opacity="0.5019607843137255" points="88.508853,120.805985 101.851556,103.084793 64.646451,106.551547 93.484244,86.510915" />
<polygon fill="#b15f48" fill-opacity="0.5019607843137255" points="161.946934,64.029568 172.042496,94.267615 171.646089,91.105659 248.621241,65.953344" />
<polygon fill="#000000" fill-opacity="0.5019607843137255" points="143.214885,107.675893 142.791475,95.302474 157.104446,76.162928 156.697374,85.878603" />
<polygon fill="#4d2614" fill-opacity="0.5019607843137255" points="-16.000000,19.494100 22.478494,26.887209 122.077232,25.422547 -16.000000,18.895617" />
<polygon fill="#ffdcc4" fill-opacity="0.5019607843137255" points="126.342515,33.818740 122.635110,23.182266 116.870621,20.004375 106.945757,36.115351" />
<polygon fill="#58130f" fill-opacity="0.5019607843137255" points="132.318638,43.256066 82.759884,45.967658 80.222636,40.605655 100.919295,31.240074" />
<polygon fill="#e3bea5" fill-opacity="0.5019607843137255" points="51.492657,114.031108 89.906421,101.440111 92.355272,103.915111 67.267400,116.424158" />
<polygon fill="#000a36" fill-opacity="0.5019607843137255" points="116.305431,67.226636 119.083063,60.535983 127.256801,68.165442 104.492717,66.441254" />
<polygon fill="#f6cb24" fill-opacity="0.5019607843137255" points="88.896905,60.711488 166.235245,48.343290 86.761105,43.546684 126.616935,122.417611" />
<polygon fill="#461000" fill-opacity="0.5019607843137255" points="54.544191,115.403940 62.769885,123.146392 45.930453,128.985121 57.663022,158.000000" />
<polygon fill="#ffd746" fill-opacity="0.5019607843137255" points="153.081882,65.828348 166.671487,113.892804 163.294038,57.784729 147.241309,21.652133" />
<polygon fill="#f1ad27" fill-opacity="0.5019607843137255" points="137.406181,88.909464 160.535554,77.934062 133.863114,72.533075 113.856363,84.708360" />
<polygon fill="#3d0000" fill-opacity="0.5019607843137255" points="151.653150,109.350862 158.594208,116.794437 166.505889,122.475960 130.597280,134.752921" />
<polygon fill="#d4a098" fill-opacity="0.5019607843137255" points="57.056560,61.813964 34.672870,59.377844 85.704777,98.272784 48.377917,96.363781" />
<polygon fill="#031837" fill-opacity="0.5019607843137255" points="136.841218,66.937331 131.274363,72.731795 143.405041,60.734291 147.559799,67.005363" />
<polygon fill="#e06d5a" fill-opacity="0.5019607843137255" points="168.302518,103.946550 123.913384,102.975605 115.836738,124.382737 57.834569,121.094330" />
<polygon fill="#cdbdb9" fill-opacity="0.5019607843137255" points="2.073342,35.714005 -15.781107,25.592254 48.125781,27.531155 96.496918,34.082197" />
<polygon fill="#000000" fill-opacity="0.5019607843137255" points="151.808302,91.747621 134.430365,103.224230 107.432281,80.730684 113.450338,94.048109" />
<polygon fill="#434143" fill-opacity="0.5019607843137255" points="22.248939,12.915738 -16.000000,12.896235 2.365613,-16.000000 61.813495,-16.000000" />
<polygon fill="#c4602f" fill-opacity="0.5019607843137255" points="109.401278,140.877997 212.964144,107.959851 225.547772,128.762973 155.104575,135.016277" />
<polygon fill="#00000f" fill-opacity="0.5019607843137255" points="80.785229,82.546873 75.469899,87.328163 62.293114,80.371802 73.496758,72.722703" />
<polygon fill="#ffaf44" fill-opacity="0.5019607843137255" points="255.161740,76.003325 251.363692,97.709269 181.791210,118.950703 211.057337,79.025283" />
<polygon fill="#fba785" fill-opacity="0.5019607843137255" points="82.516326,91.772665 88.113558,84.517345 84.566992,80.231600 77.721675,71.781361" />
<polygon fill="#4b0d16" fill-opacity="0.5019607843137255" points="108.720333,27.017415 97.454714,14.886077 80.296529,72.610658 81.670237,38.399604" />
<polygon fill="#e58c6d" fill-opacity="0.5019607843137255" points="142.268498,30.856930 181.251005,67.482841 255.552572,44.584763 127.377149,14.304730" />
<polygon fill="#401a12" fill-opacity="0.5019607843137255" points="57.235667,67.307501 48.094341,84.346596 42.912571,76.117238 69.108742,68.537738" />
<polygon fill="#150000" fill-opacity="0.5019607843137255" points="85.771971,109.333630 79.356926,116.564911 98.448309,116.284041 101.755345,107.369793" />
<polygon fill="#e1b78f" fill-opacity="0.5019607843137255" points="128.765398,124.978437 143.299405,124.336253 138.710846,118.227385 130.424289,120.626305" />
<polygon fill="#f4b788" fill-opacity="0.5019607843137255" points="89.947791,158.000000 55.197871,131.330113 68.370484,120.086160 66.095632,130.952673" />
<polygon fill="#fff5c9" fill-opacity="0.5019607843137255" points="180.918674,100.907003 180.521434,100.859667 160.156458,98.054427 188.905538,109.311100" />
<polygon fill="#874a22" fill-opacity="0.5019607843137255" points="-16.000000,125.935305 17.396224,103.456495 39.871090,125.109630 39.115072,102.123100" />
<polygon fill="#6b221e" fill-opacity="0.5019607843137255" points="140.564381,35.019652 134.127919,19.533851 124.331889,14.760430 102.663839,11.374074" />
<polygon fill="#bd9b96" fill-opacity="0.5019607843137255" points="84.969694,34.222992 112.932575,-5.925746 89.511539,21.416353 93.765613,42.385839" />
<polygon fill="#e7b73e" fill-opacity="0.5019607843137255" points="118.598090,121.507537 106.717660,80.603269 126.236407,88.083545 86.001194,46.219906" />
<polygon fill="#dcbc91" fill-opacity="0.5019607843137255" points="-0.636145,47.655612 24.688854,58.998294 70.473952,71.646968 0.418131,60.939163" />
<polygon fill="#322a1e" fill-opacity="0.5019607843137255" points="0.654364,119.216221 0.961009,150.223074 -10.298853,-16.000000 1.072907,44.361951" />
<polygon fill="#fbd735" fill-opacity="0.5019607843137255" points="52.077664,122.048438 45.078570,136.346747 40.051195,110.316505 53.395736,121.928960" />
<polygon fill="#000000" fill-opacity="0.5019607843137255" points="200.587373,136.634396 143.678930,158.000000 79.949948,150.680533 166.859001,133.726706" />
<polygon fill="#ffb17c" fill-opacity="0.5019607843137255" points="134.435098,45.605731 137.840345,30.090963 146.306386,29.858046 149.693809,24.834141" />
<polygon fill="#7b5d44" fill-opacity="0.5019607843137255" points="31.098843,82.534320 62.496509,69.654001 -16.000000,66.559736 -7.622838,53.197119" />
<polygon fill="#f4e0d9" fill-opacity="0.5019607843137255" points="139.976505,55.575880 112.658453,76.881141 158.190071,70.955720 140.492771,68.222703" />
<polygon fill="#290000" fill-opacity="0.5019607843137255" points="88.036053,94.579991 67.313328,101.885506 71.765413,106.561113 101.703650,99.495091" />
<polygon fill="#826415" fill-opacity="0.5019607843137255" points="76.592851,60.874709 104.167461,120.546116 103.499314,109.978194 92.477513,62.446382" />
<polygon fill="#4f1a1e" fill-opacity="0.5019607843137255" points="94.876513,29.846281 82.034276,27.573430 124.009473,16.218985 96.627418,15.104813" />
<polygon fill="#440801" fill-opacity="0.5019607843137255" points="110.902458,127.182139 53.868585,158.000000 133.047815,130.318038 122.430581,113.042056" />
<polygon fill="#e2b59a" fill-opacity="0.5019607843137255" points="110.025782,43.968060 124.724914,16.766418 125.954909,37.512808 110.110666,29.973089" />
<polygon fill="#e3d4eb" fill-opacity="0.5019607843137255" points="126.276509,94.201485 127.193097,88.716998 141.894718,93.515664 137.513677,86.195996" />
<polygon fill="#000000" fill-opacity="0.5019607843137255" points="144.730763,106.734435 149.753692,99.455409 156.444045,82.158362 142.111725,87.281121" />
<polygon fill="#2f0c02" fill-opacity="0.5019607843137255" points="255.282510,97.015324 255.390949,49.509829 265.648671,139.003149 204.991143,143.794663" />
<polygon fill="#00020b" fill-opacity="0.5019607843137255" points="80.236029,83.478301 63.091777,86.506990 70.212259,90.391417 66.517550,80.150273" />
<polygon fill="#a57b56" fill-opacity="0.5019607843137255" points="15.330518,60.057482 19.098492,53.523454 54.077612,45.496843 64.918202,58.932593" />
<polygon fill="#df8746" fill-opacity="0.5019607843137255" points="1.368731,132.623359 54.723338,158.000000 43.909651,124.259988 15.063855,109.521161" />
<polygon fill="#fbce3b" fill-opacity="0.5019607843137255" points="130.407988,65.502314 132.346043,57.695043 170.818066,44.188423 113.339400,44.446271" />
<polygon fill="#fd7e3e" fill-opacity="0.5019607843137255" points="245.717711,101.595221 172.076172,86.139606 210.623693,126.678078 221.321497,126.957618" />
<polygon fill="#fffae9" fill-opacity="0.5019607843137255" points="152.411965,77.812272 153.538297,63.927307 143.517614,55.599045 151.608006,76.803106" />
<polygon fill="#f8d03f" fill-opacity="0.5019607843137255" points="166.629441,62.898899 144.647610,113.313255 163.833966,87.537635 143.358808,49.801443" />
<polygon fill="#cba777" fill-opacity="0.5019607843137255" points="-16.000000,58.887192 -4.292353,71.661966 35.366269,107.486035 53.990321,94.735443" />
<polygon fill="#e3c5a5" fill-opacity="0.5019607843137255" points="70.369764,33.430853 81.322451,61.487291 32.544166,61.651111 54.792799,73.831986" />
<polygon fill="#5c3531" fill-opacity="0.5019607843137255" points="113.099102,28.140687 29.403791,25.399826 50.803582,23.540292 136.183439,25.600958" />
<polygon fill="#9d8f9b" fill-opacity="0.5019607843137255" points="84.119309,22.286100 31.031271,19.769438 15.589722,10.823568 126.627368,2.912115" />
<polygon fill="#ffa38e" fill-opacity="0.5019607843137255" points="169.955534,118.180921 168.914637,105.861026 157.570058,109.699542 157.324432,115.077991" />
<polygon fill="#e86e58" fill-opacity="0.5019607843137255" points="123.980610,100.457752 89.531715,122.086279 145.228051,104.490963 144.435946,102.639652" />
<polygon fill="#001b3d" fill-opacity="0.5019607843137255" points="116.086415,64.365035 121.159434,60.570588 124.203801,69.036684 118.467315,67.686248" />
<polygon fill="#190000" fill-opacity="0.5019607843137255" points="130.681813,94.689244 133.758083,86.492803 133.630619,102.332794 114.329662,96.048808" />
<polygon fill="#dc5b51" fill-opacity="0.5019607843137255" points="72.155173,109.881508 61.896504,102.862146 90.128117,85.409036 69.671466,87.929067" />
<polygon fill="#f2dee3" fill-opacity="0.5019607843137255" points="123.616184,77.025239 110.756924,57.490386 122.583219,55.565047 107.475772,69.481027" />
<polygon fill="#280102" fill-opacity="0.5019607843137255" points="80.222651,43.807080 77.050425,55.550865 84.159250,59.029089 87.741645,49.099263" />
<polygon fill="#000002" fill-opacity="0.5019607843137255" points="111.091028,93.304160 111.091729,83.298230 123.655248,88.684069 123.452195,102.658326" />
<polygon fill="#b57257" fill-opacity="0.5019607843137255" points="207.644392,65.356858 191.134671,56.328209 161.446496,65.444465 167.650455,87.166263" />
<polygon fill="#591e03" fill-opacity="0.5019607843137255" points="-15.472426,114.499586 -14.996828,107.031849 8.274790,125.243155 6.192580,115.328827" />
<polygon fill="#75241d" fill-opacity="0.5019607843137255" points="76.929935,116.402098 66.683599,131.976068 73.861269,140.223984 70.232382,119.560963" />
<polygon fill="#143353" fill-opacity="0.5019607843137255" points="139.414403,61.632750 146.674346,60.994592 144.634104,67.269221 142.019892,70.170492" />
<polygon fill="#4e0d11" fill-opacity="0.5019607843137255" points="109.828786,27.154282 98.637234,45.528166 81.262047,45.761754 84.229220,47.550495" />
<polygon fill="#fe9c59" fill-opacity="0.5019607843137255" points="254.478608,69.150842 251.104512,45.864952 150.066477,53.113660 240.599385,67.081919" />
<polygon fill="#feceae" fill-opacity="0.5019607843137255" points="119.067871,23.026050 114.601228,19.177833 110.659574,22.020998 109.256525,26.148676" />
<polygon fill="#b0682f" fill-opacity="0.5019607843137255" points="194.543111,152.055034 146.885906,158.000000 191.692638,141.543688 215.508844,137.936643" />
<polygon fill="#6a1a11" fill-opacity="0.5019607843137255" points="143.809864,43.644322 138.054573,45.504636 145.652299,35.313408 152.939315,44.153273" />
<polygon fill="#d8a632" fill-opacity="0.5019607843137255" points="88.265000,46.764788 102.559273,108.808582 120.878891,109.937839 106.027877,78.408932" />
<polygon fill="#a35f31" fill-opacity="0.5019607843137255" points="130.599903,132.116823 224.626200,120.598981 117.977404,140.055107 86.012674,146.168718" />
<polygon fill="#c9802e" fill-opacity="0.5019607843137255" points="129.269935,71.148855 132.832024,86.490533 149.125928,75.642119 146.820082,79.952866" />
<polygon fill="#c87844" fill-opacity="0.5019607843137255" points="204.481337,125.738897 154.473221,92.507934 188.666905,134.237313 211.692077,136.787697" />
<polygon fill="#b8c2c8" fill-opacity="0.5019607843137255" points="56.491526,93.314463 56.289944,87.636773 57.598733,79.342337 69.659148,96.114956" />
<polygon fill="#957b81" fill-opacity="0.5019607843137255" points="271.000000,15.864698 238.152156,-16.000000 64.196832,7.928243 175.784652,16.950425" />
<polygon fill="#ffc757" fill-opacity="0.5019607843137255" points="259.968082,92.116596 213.273229,87.728456 221.171636,80.047558 271.000000,81.471004" />
<polygon fill="#6c3229" fill-opacity="0.5019607843137255" points="124.640060,45.198890 111.339192,39.939320 138.775352,30.497728 130.042334,22.857398" />
<polygon fill="#dc5842" fill-opacity="0.5019607843137255" points="45.351844,91.084804 62.206167,78.339421 52.753340,71.745878 52.910781,77.719190" />
<polygon fill="#c8795f" fill-opacity="0.5019607843137255" points="166.470937,31.005650 239.966697,20.209135 255.361015,27.557006 253.952734,41.803449" />
<polygon fill="#3e0200" fill-opacity="0.5019607843137255" points="156.099250,129.073262 158.701788,118.085408 148.320623,110.439868 147.137296,129.877019" />
<polygon fill="#4f3528" fill-opacity="0.5019607843137255" points="255.251240,-6.587632 255.153144,38.284244 256.308527,117.088099 271.000000,20.220878" />
<polygon fill="#9c7c6a" fill-opacity="0.5019607843137255" points="82.729512,58.528999 84.324310,76.730085 86.954429,81.775709 59.306579,67.724775" />
<polygon fill="#0a0001" fill-opacity="0.5019607843137255" points="219.425487,158.000000 211.960953,158.000000 244.735350,110.801497 271.000000,94.858494" />
<polygon fill="#f9cca6" fill-opacity="0.5019607843137255" points="63.728938,108.607419 55.886178,113.573766 64.727620,113.685729 83.691831,105.819406" />
<polygon fill="#900b19" fill-opacity="0.5019607843137255" points="117.969096,123.281032 89.282006,121.928276 73.637203,125.939253 85.302276,134.179787" />
<polygon fill="#d8bca4" fill-opacity="0.5019607843137255" points="6.825347,43.758856 30.502470,49.152826 -1.102172,29.435041 26.236087,28.951205" />
<polygon fill="#e5c29f" fill-opacity="0.5019607843137255" points="65.160167,65.345145 90.104577,26.950415 91.901720,38.491923 72.424859,31.356670" />
<polygon fill="#b27b1f" fill-opacity="0.5019607843137255" points="161.280168,89.494383 162.041788,102.508266 120.335989,109.422098 129.881711,117.183956" />
<polygon fill="#a78571" fill-opacity="0.5019607843137255" points="73.775007,123.703212 86.338692,115.087218 69.246508,119.561083 82.796914,158.000000" />
<polygon fill="#b48b7d" fill-opacity="0.5019607843137255" points="107.522597,3.513975 132.160980,18.308484 149.299596,32.580111 182.189316,16.634971" />
<polygon fill="#8f6c4d" fill-opacity="0.5019607843137255" points="44.141235,116.013313 56.269599,121.383180 56.546549,98.156438 64.338830,104.777722" />
<polygon fill="#b27933" fill-opacity="0.5019607843137255" points="98.332108,49.871645 99.673702,59.138539 117.157348,53.370590 109.657719,60.406812" />
<polygon fill="#240107" fill-opacity="0.5019607843137255" points="51.951871,77.018077 51.303203,70.865784 47.297691,80.949478 50.708217,84.162404" />
<polygon fill="#ffdb4b" fill-opacity="0.5019607843137255" points="165.800669,54.815486 153.879603,72.501260 142.015341,85.520309 153.252240,82.761610" />
<polygon fill="#551802" fill-opacity="0.5019607843137255" points="58.231248,124.749072 48.232489,129.822775 50.734827,158.000000 55.469051,129.025131" />
<polygon fill="#ffd446" fill-opacity="0.5019607843137255" points="97.579697,50.129052 143.272694,44.318179 88.283461,46.610070 99.750645,77.414321" />
<polygon fill="#2a0000" fill-opacity="0.5019607843137255" points="79.067488,139.685056 108.047350,140.191601 105.731066,126.663758 90.365837,131.595130" />
<polygon fill="#a8b0c1" fill-opacity="0.5019607843137255" points="15.213912,17.944938 7.504721,13.955357 -16.000000,12.166147 -1.191143,17.950284" />
<polygon fill="#290201" fill-opacity="0.5019607843137255" points="90.645724,42.083627 96.120915,45.909393 91.269874,28.811763 105.539344,41.613934" />
<polygon fill="#a54d2a" fill-opacity="0.5019607843137255" points="175.214130,118.278350 145.238431,109.584854 190.935271,133.387683 151.887114,134.570398" />
<polygon fill="#1e0000" fill-opacity="0.5019607843137255" points="87.909642,107.620742 101.609207,111.910840 99.691823,115.278461 79.892383,113.238652" />
<polygon fill="#65504b" fill-opacity="0.5019607843137255" points="0.534204,53.281225 -10.602457,-4.107251 28.316507,28.517359 1.657590,-15.937910" />
<polygon fill="#130006" fill-opacity="0.5019607843137255" points="158.312982,80.601038 154.337194,88.501010 131.505781,102.450161 158.798050,77.017686" />
<polygon fill="#e5886d" fill-opacity="0.5019607843137255" points="81.098588,119.029982 119.505043,119.096386 119.646191,109.115651 52.279542,127.957079" />
<polygon fill="#db2d57" fill-opacity="0.5019607843137255" points="137.413766,109.995525 134.826968,105.460581 121.644780,101.847943 139.767028,99.594669" />
<polygon fill="#5e3e31" fill-opacity="0.5019607843137255" points="29.975814,19.628068 61.381563,23.409738 15.494190,26.698704 13.349906,20.302269" />
<polygon fill="#d2b6a5" fill-opacity="0.5019607843137255" points="33.607214,24.854686 67.298073,43.711732 82.026745,63.727506 71.324187,30.378439" />
<polygon fill="#fff5f1" fill-opacity="0.5019607843137255" points="122.632169,61.224896 131.108120,69.054593 125.089838,57.982531 118.406934,57.422066" />
<polygon fill="#6f2f26" fill-opacity="0.5019607843137255" points="129.871921,44.757281 124.664074,13.986672 136.023154,23.081286 135.697389,37.357137" />
<polygon fill="#5b1f21" fill-opacity="0.5019607843137255" points="93.030034,20.680027 128.974730,18.238632 120.704691,13.595780 102.767992,12.517472" />
<polygon fill="#d8682b" fill-opacity="0.5019607843137255" points="252.108061,136.053107 250.303461,158.000000 264.265827,110.498655 270.673028,148.508879" />
<polygon fill="#a57954" fill-opacity="0.5019607843137255" points="36.018036,79.752727 12.293523,59.897719 -16.000000,62.526816 38.022040,82.968150" />
<polygon fill="#020005" fill-opacity="0.5019607843137255" points="203.301080,140.702096 170.231897,130.742719 121.776397,150.175001 212.066625,137.063496" />
<polygon fill="#ffe3c2" fill-opacity="0.5019607843137255" points="109.817650,27.178541 111.375241,34.626804 127.035241,35.438452 115.882825,32.319181" />
<polygon fill="#4f3c41" fill-opacity="0.5019607843137255" points="60.048999,68.034223 67.309652,69.240395 58.483677,70.833510 37.724274,75.510396" />
<polygon fill="#e7976f" fill-opacity="0.5019607843137255" points="135.709541,34.826326 208.739230,41.041483 167.773880,68.017079 146.387365,28.658272" />
<polygon fill="#610100" fill-opacity="0.5019607843137255" points="126.189635,148.585969 68.331901,134.258937 67.605048,134.354811 100.994110,152.311254" />
<polygon fill="#f2c635" fill-opacity="0.5019607843137255" points="93.191109,68.322747 87.748543,52.569757 103.510993,69.092829 113.520704,47.489568" />
<polygon fill="#a48d8b" fill-opacity="0.5019607843137255" points="106.570768,70.505531 104.135015,61.506564 117.477324,80.432610 115.658100,81.784472" />
<polygon fill="#dcba98" fill-opacity="0.5019607843137255" points="33.622906,49.727499 46.179521,38.357170 8.166365,61.335921 0.577198,56.124713" />
<polygon fill="#fed548" fill-opacity="0.5019607843137255" points="167.610196,110.325029 160.482431,47.305249 126.990268,44.163337 158.526865,65.623515" />
<polygon fill="#320607" fill-opacity="0.5019607843137255" points="65.039612,135.055035 57.144889,158.000000 111.659697,133.718950 64.602765,158.000000" />
<polygon fill="#a1794f" fill-opacity="0.5019607843137255" points="94.913040,101.804800 102.844259,93.394378 77.175305,111.912287 94.119187,106.280737" />
<polygon fill="#a9998b" fill-opacity="0.5019607843137255" points="69.416453,135.563171 81.407744,143.315288 64.846042,157.192214 65.654127,134.592136" />
<polygon fill="#9f2828" fill-opacity="0.5019607843137255" points="100.567494,15.981264 90.799602,26.268132 107.093366,43.318819 92.456998,18.435653" />
<polygon fill="#240002" fill-opacity="0.5019607843137255" points="88.401493,101.227768 82.193570,98.285851 85.035744,85.513635 89.810896,104.093228" />
<polygon fill="#caa777" fill-opacity="0.5019607843137255" points="15.999511,84.956278 35.880974,83.744922 2.636873,103.283688 0.717869,93.356619" />
<polygon fill="#c35938" fill-opacity="0.5019607843137255" points="78.860704,83.241292 65.407740,104.758247 116.201539,67.804324 87.946615,86.629852" />
<polygon fill="#eea264" fill-opacity="0.5019607843137255" points="54.212479,157.659621 71.395839,117.560608 54.602429,129.406912 60.913185,143.893632" />
<polygon fill="#e1b999" fill-opacity="0.5019607843137255" points="85.099852,30.342005 91.257193,35.122888 94.815485,40.054454 92.644433,41.034321" />
<polygon fill="#f1c78c" fill-opacity="0.5019607843137255" points="121.762312,71.406335 124.852522,93.808037 162.862075,51.658590 127.968332,90.691717" />
<polygon fill="#7c4e31" fill-opacity="0.5019607843137255" points="53.587951,121.583488 77.391997,116.331405 59.521663,124.752726 51.786457,129.556259" />
<polygon fill="#f4d9cf" fill-opacity="0.5019607843137255" points="140.339187,54.304285 122.145011,71.209664 106.535457,62.315257 125.357259,80.767711" />
<polygon fill="#a56635" fill-opacity="0.5019607843137255" points="149.444656,129.888855 227.251476,133.107540 139.854131,134.276209 105.124562,138.348252" />
<polygon fill="#ab8e7f" fill-opacity="0.5019607843137255" points="14.812224,27.064434 41.415602,25.172700 19.349226,50.370472 54.746993,37.616368" />
<polygon fill="#df6f31" fill-opacity="0.5019607843137255" points="210.496255,81.658555 204.741123,73.420792 239.302635,62.176477 245.853064,72.947528" />
<polygon fill="#e2c087" fill-opacity="0.5019607843137255" points="129.611130,38.207991 126.804668,39.822349 141.760689,62.750568 119.334243,29.585122" />
<polygon fill="#e8ac35" fill-opacity="0.5019607843137255" points="113.579667,84.396338 96.462693,67.098708 104.244759,72.748061 130.368782,88.977598" />
<polygon fill="#e5bc9f" fill-opacity="0.5019607843137255" points="58.314960,74.385861 73.445155,61.789500 62.706685,31.649820 66.194967,76.136300" />
<polygon fill="#f8d13f" fill-opacity="0.5019607843137255" points="188.415972,118.296970 183.803946,107.100207 195.769955,103.914387 193.625388,109.861568" />
<polygon fill="#f5dcc8" fill-opacity="0.5019607843137255" points="133.158001,93.066587 139.891496,88.308066 139.996944,83.582046 141.348962,92.078986" />
<polygon fill="#a27957" fill-opacity="0.5019607843137255" points="-10.922995,45.885683 -16.000000,44.791358 47.535703,59.925743 37.013186,47.574274" />
<polygon fill="#0f0005" fill-opacity="0.5019607843137255" points="116.175338,90.035620 106.775270,78.138442 113.061259,94.081887 148.895451,101.776580" />
<polygon fill="#420d06" fill-opacity="0.5019607843137255" points="122.053192,127.963685 140.863293,131.594363 163.044788,125.731336 138.714778,125.107328" />
<polygon fill="#e9c34b" fill-opacity="0.5019607843137255" points="45.076314,126.307206 35.805374,109.095896 52.106599,121.571587 24.170888,124.696064" />
<polygon fill="#fff8f8" fill-opacity="0.5019607843137255" points="137.603943,58.744761 151.101794,60.614190 152.002799,72.224659 143.321817,56.670074" />
<polygon fill="#70490c" fill-opacity="0.5019607843137255" points="82.030349,70.715985 88.010772,59.468117 90.027872,67.419426 103.663693,117.195007" />
<polygon fill="#858296" fill-opacity="0.5019607843137255" points="37.067588,-1.526325 51.011107,1.706809 200.760458,-16.000000 31.017904,20.551899" />
<polygon fill="#290205" fill-opacity="0.5019607843137255" points="69.565683,101.898513 78.711311,105.559960 96.996272,100.344896 71.407858,98.915507" />
<polygon fill="#673431" fill-opacity="0.5019607843137255" points="107.917662,23.795034 110.177330,43.970544 94.604154,27.593145 60.517078,27.989058" />
<polygon fill="#c4685f" fill-opacity="0.5019607843137255" points="54.427592,88.297524 42.677155,78.750608 50.191879,93.893250 70.878385,107.359591" />
<polygon fill="#a2542d" fill-opacity="0.5019607843137255" points="15.448134,140.596413 16.659371,148.602217 10.750154,138.669492 5.920000,118.536948" />
<polygon fill="#ffd6b0" fill-opacity="0.5019607843137255" points="187.503703,103.378143 168.144692,102.801132 167.126687,105.977156 169.328845,97.806943" />
<polygon fill="#ba9e89" fill-opacity="0.5019607843137255" points="46.281689,86.602574 31.578319,65.736533 49.458444,107.968951 46.832577,102.783801" />
<polygon fill="#ecae7e" fill-opacity="0.5019607843137255" points="80.177792,82.230387 80.009455,76.260730 83.854198,79.755344 90.903491,90.469201" />
<polygon fill="#91512b" fill-opacity="0.5019607843137255" points="24.651282,105.358488 17.839641,105.771250 41.637293,123.370293 37.958190,111.345666" />
<polygon fill="#df5b3a" fill-opacity="0.5019607843137255" points="227.965153,119.952499 204.024090,123.987247 198.177405,116.246261 221.275911,110.319837" />
<polygon fill="#efdcd7" fill-opacity="0.5019607843137255" points="106.526227,67.927501 129.241631,53.684192 123.948891,57.072110 111.818074,57.180143" />
<polygon fill="#5a1e13" fill-opacity="0.5019607843137255" points="82.522181,61.615094 82.831674,35.407876 101.714936,46.311791 79.725547,42.768570" />
<polygon fill="#f3a463" fill-opacity="0.5019607843137255" points="164.063946,100.079651 180.392330,85.671604 163.242566,83.429404 165.598512,55.487054" />
<polygon fill="#1d0103" fill-opacity="0.5019607843137255" points="133.299474,83.955012 131.338557,97.729470 115.687754,91.499274 134.198327,95.282982" />
<polygon fill="#ebcdc0" fill-opacity="0.5019607843137255" points="136.893427,77.723643 132.531830,72.091408 107.358007,73.272304 151.341578,69.889861" />
<polygon fill="#d1992d" fill-opacity="0.5019607843137255" points="107.890535,106.255244 165.477806,108.015927 154.155814,97.869970 137.909516,110.237100" />
<polygon fill="#d38825" fill-opacity="0.5019607843137255" points="148.592733,73.696316 130.569087,79.156239 132.509352,88.040919 145.696370,79.043715" />
<polygon fill="#1d293f" fill-opacity="0.5019607843137255" points="119.158429,65.243942 118.257885,62.217795 124.984854,64.043066 121.206998,71.545285" />
<polygon fill="#14120f" fill-opacity="0.5019607843137255" points="62.905859,76.364043 66.735828,84.613591 80.374107,80.874152 64.577470,76.499097" />
<polygon fill="#e68b5e" fill-opacity="0.5019607843137255" points="254.885324,37.255654 255.128933,52.866524 223.598550,46.839608 138.615275,44.638956" />
<polygon fill="#674021" fill-opacity="0.5019607843137255" points="212.564977,135.831398 255.200576,95.837227 260.554913,92.892792 219.022448,136.193787" />
<polygon fill="#d8ae38" fill-opacity="0.5019607843137255" points="142.067648,51.404262 131.851364,59.539399 94.313284,51.103900 148.319155,56.760600" />
<polygon fill="#ce7a47" fill-opacity="0.5019607843137255" points="187.110880,132.356158 188.917381,122.810789 227.331382,125.295192 207.757737,137.459977" />
<polygon fill="#531b07" fill-opacity="0.5019607843137255" points="252.631246,140.207029 270.978553,110.490143 225.590972,155.144097 227.524139,158.000000" />
<polygon fill="#aa9f9d" fill-opacity="0.5019607843137255" points="56.174566,94.209787 68.714007,97.921774 74.194114,87.733896 60.705138,91.349987" />
<polygon fill="#e99864" fill-opacity="0.5019607843137255" points="13.596240,112.165336 7.329943,119.235886 35.646166,121.929666 28.994557,113.200790" />
</g>
</svg>