<svg xmlns="http://www.w3.org/2000/svg" version="1.1" width="768" height="429">
<rect x="0" y="0" width="768" height="429" fill="#ae7854" />
<g transform="scale(3) translate(0.5 0.5)">
<path stroke="#000000" stroke-opacity="0.5019607843137255" fill="none" d="M 254.993646 92.808274 Q 259.296814 156.631927, 69.904777 136.876137" stroke-width="0.500000" />
<path stroke="#000000" stroke-opacity="0.5019607843137255" fill="none" d="M 254.983932 107.762382 Q 250.783051 158.000000, 67.904957 131.737197" stroke-width="0.500000" />
<path stroke="#000000" stroke-opacity="0.5019607843137255" fill="none" d="M 267.793224 92.433616 Q 248.879058 158.000000, 76.365144 138.208638" stroke-width="0.500000" />
<path stroke="#000000" stroke-opacity="0.5019607843137255" fill="none" d="M 82.853387 128.316845 Q 237.229877 158.000000, 253.396403 101.721486" stroke-width="0.500000" />
<path stroke="#000000" stroke-opacity="0.5019607843137255" fill="none" d="M 252.675842 108.672975 Q 246.816225 156.564283, 66.331174 130.252323" stroke-width="0.500000" />
<path stroke="#000000" stroke-opacity="0.5019607843137255" fill="none" d="M 74.470145 133.685418 Q 253.111425 157.109586, 255.148337 111.788024" stroke-width="0.500000" />
<path stroke="#000000" stroke-opacity="0.5019607843137255" fill="none" d="M 271.000000 137.023022 Q 241.123878 144.264209, 77.338643 130.772633" stroke-width="0.500000" />
<path stroke="#000000" stroke-opacity="0.5019607843137255" fill="none" d="M 69.257969 135.529868 Q 257.055077 158.000000, 255.749537 85.098143" stroke-width="0.500000" />
<path stroke="#000000" stroke-opacity="0.5019607843137255" fill="none" d="M 271.000000 138.289299 Q 91.408985 133.449335, 78.787276 135.478470" stroke-width="0.500000" />
<path stroke="#000000" stroke-opacity="0.5019607843137255" fill="none" d="M 107.528942 80.333159 Q 139.019219 144.845861, 246.496639 141.431151" stroke-width="0.500000" />
<path stroke="#000000" stroke-opacity="0.5019607843137255" fill="none" d="M 255.300454 119.379476 Q 253.169918 155.480211, 76.178923 126.024412" stroke-width="0.500000" />
<path stroke="#000000" stroke-opacity="0.5019607843137255" fill="none" d="M 106.104060 79.931196 Q 141.103210 116.489688, 156.128650 80.902111" stroke-width="0.500000" />
<path stroke="#090000" stroke-opacity="0.5019607843137255" fill="none" d="M 100.930268 127.053634 Q 245.689456 158.000000, 259.047966 83.408558" stroke-width="0.500000" />
<path stroke="#000000" stroke-opacity="0.5019607843137255" fill="none" d="M 155.984218 79.699283 Q 128.702467 117.871655, 57.348025 75.040795" stroke-width="0.500000" />
<path stroke="#1e0000" stroke-opacity="0.5019607843137255" fill="none" d="M 87.109528 68.760812 Q 80.544175 158.000000, 161.118910 119.493443" stroke-width="0.500000" />
<path stroke="#000000" stroke-opacity="0.5019607843137255" fill="none" d="M 253.596531 138.951959 Q 200.367667 144.104635, 77.435941 141.995242" stroke-width="0.500000" />
<path stroke="#000000" stroke-opacity="0.5019607843137255" fill="none" d="M 255.815199 91.223489 Q 258.000177 158.000000, 150.782230 130.674832" stroke-width="0.500000" />
<path stroke="#100000" stroke-opacity="0.5019607843137255" fill="none" d="M 190.598004 141.885942 Q 171.256833 111.667354, 76.141135 139.698837" stroke-width="0.500000" />
<path stroke="#000000" stroke-opacity="0.5019607843137255" fill="none" d="M 271.000000 130.227648 Q 131.727864 147.970154, 66.302091 132.465323" stroke-width="0.500000" />
<path stroke="#180000" stroke-opacity="0.5019607843137255" fill="none" d="M 73.532367 128.103327 Q 126.218242 124.678747, 271.000000 147.681007" stroke-width="0.500000" />
<path stroke="#000000" stroke-opacity="0.5019607843137255" fill="none" d="M 153.493155 84.765278 Q 141.099718 104.665234, 67.513402 102.442229" stroke-width="0.500000" />
<path stroke="#000000" stroke-opacity="0.5019607843137255" fill="none" d="M 255.685846 103.774649 Q 259.409742 158.000000, 147.683569 137.047381" stroke-width="0.500000" />
<path stroke="#340000" stroke-opacity="0.5019607843137255" fill="none" d="M 69.562514 98.421005 Q 136.711275 144.974779, 271.000000 134.365143" stroke-width="0.500000" />
<path stroke="#000000" stroke-opacity="0.5019607843137255" fill="none" d="M 158.127083 80.648159 Q 138.261316 118.515165, 107.654897 81.975503" stroke-width="0.500000" />
<path stroke="#000000" stroke-opacity="0.5019607843137255" fill="none" d="M 109.484218 80.678704 Q 127.035408 116.671717, 156.093149 83.615551" stroke-width="0.500000" />
<path stroke="#000000" stroke-opacity="0.5019607843137255" fill="none" d="M 257.732266 121.080646 Q 243.051353 158.000000, 104.271075 121.571071" stroke-width="0.500000" />
<path stroke="#000000" stroke-opacity="0.5019607843137255" fill="none" d="M 250.738860 97.991692 Q 267.128070 148.535932, 211.899723 141.953421" stroke-width="0.500000" />
<path stroke="#000000" stroke-opacity="0.5019607843137255" fill="none" d="M 144.033892 138.072861 Q 252.538479 151.298315, 255.480814 94.233991" stroke-width="0.500000" />
<path stroke="#000000" stroke-opacity="0.5019607843137255" fill="none" d="M 68.689203 101.330691 Q 134.533490 91.815666, 152.306956 94.789539" stroke-width="0.500000" />
<path stroke="#0c0000" stroke-opacity="0.5019607843137255" fill="none" d="M 271.000000 115.648505 Q 256.173303 138.326252, 51.452812 143.994243" stroke-width="0.500000" />
<path stroke="#000000" stroke-opacity="0.5019607843137255" fill="none" d="M 74.802942 138.678122 Q 88.187157 148.669692, 162.576968 117.912616" stroke-width="0.500000" />
<path stroke="#ffd996" stroke-opacity="0.5019607843137255" fill="none" d="M 251.441867 46.046157 Q 94.835914 77.101673, 29.045549 39.966578" stroke-width="0.500000" />
<path stroke="#fffa8b" stroke-opacity="0.5019607843137255" fill="none" d="M 42.617394 69.336478 Q 141.089261 20.373562, 171.342241 95.998603" stroke-width="0.500000" />
<path stroke="#fffcc4" stroke-opacity="0.5019607843137255" fill="none" d="M 165.062027 82.834860 Q 97.576817 40.939373, 11.437228 28.414897" stroke-width="0.500000" />
<path stroke="#ffd96f" stroke-opacity="0.5019607843137255" fill="none" d="M 271.000000 50.520631 Q 151.570714 55.209752, 4.894423 40.547341" stroke-width="0.500000" />
<path stroke="#050000" stroke-opacity="0.5019607843137255" fill="none" d="M 76.622474 128.556257 Q 184.655240 149.941947, 270.097677 130.375799" stroke-width="0.500000" />
<path stroke="#0d001a" stroke-opacity="0.5019607843137255" fill="none" d="M -16.000000 19.908475 Q 103.229375 30.619239, 109.978949 23.109349" stroke-width="0.500000" />
<path stroke="#ffffff" stroke-opacity="0.5019607843137255" fill="none" d="M 112.237532 56.783952 Q 116.832322 88.414597, 156.247213 65.790684" stroke-width="0.500000" />
<path stroke="#340000" stroke-opacity="0.5019607843137255" fill="none" d="M 114.884797 150.751461 Q 52.213818 29.729503, 119.035849 14.739439" stroke-width="0.500000" />
<path stroke="#180000" stroke-opacity="0.5019607843137255" fill="none" d="M 179.894700 152.984188 Q 161.977045 85.491165, 82.827194 142.982336" stroke-width="0.500000" />
<path stroke="#000000" stroke-opacity="0.5019607843137255" fill="none" d="M 156.421699 77.946011 Q 137.554911 113.841687, 109.519977 81.042380" stroke-width="0.500000" />
<path stroke="#ffffeb" stroke-opacity="0.5019607843137255" fill="none" d="M 110.675542 61.894100 Q 117.031709 86.039923, 174.698043 56.305923" stroke-width="0.500000" />
<path stroke="#210000" stroke-opacity="0.5019607843137255" fill="none" d="M 100.170011 143.348759 Q 98.055081 80.010310, 49.267783 73.393537" stroke-width="0.500000" />
<path stroke="#ffe751" stroke-opacity="0.5019607843137255" fill="none" d="M 87.737986 48.709093 Q 121.923810 39.902272, 254.098349 64.755190" stroke-width="0.500000" />
<path stroke="#140000" stroke-opacity="0.5019607843137255" fill="none" d="M 168.837580 120.504759 Q 159.521609 116.353686, 27.569844 158.000000" stroke-width="0.500000" />
<path stroke="#000000" stroke-opacity="0.5019607843137255" fill="none" d="M 152.136166 91.153205 Q 68.146140 105.992815, 68.132750 99.598616" stroke-width="0.500000" />
<path stroke="#290000" stroke-opacity="0.5019607843137255" fill="none" d="M 109.265965 158.000000 Q 85.197346 71.657185, 81.091806 39.461989" stroke-width="0.500000" />
<path stroke="#ffde9b" stroke-opacity="0.5019607843137255" fill="none" d="M 229.839661 48.835326 Q 70.573023 66.656037, 12.933268 66.371183" stroke-width="0.500000" />
<path stroke="#410000" stroke-opacity="0.5019607843137255" fill="none" d="M 84.203474 38.887458 Q 88.733759 47.236480, 92.236823 158.000000" stroke-width="0.500000" />
<path stroke="#f8f8fa" stroke-opacity="0.5019607843137255" fill="none" d="M -13.056445 30.675604 Q 41.578542 34.056637, 90.397549 35.283261" stroke-width="0.500000" />
</g>
</svg>