<svg xmlns="http://www.w3.org/2000/svg" version="1.1" width="768" height="429">
<rect x="0" y="0" width="768" height="429" fill="#ae7854" />
<g transform="scale(3) translate(0.5 0.5)">
<g transform="translate(243 128) rotate(314) scale(109 30)"><rect fill="#000000" fill-opacity="0.5019607843137255" x="-0.5" y="-0.5" width="1" height="1" /></g>
<g transform="translate(146 142) rotate(30) scale(150 64)"><rect fill="#4b0700" fill-opacity="0.5019607843137255" x="-0.5" y="-0.5" width="1" height="1" /></g>
<g transform="translate(208 72) rotate(-14) scale(113 76)"><rect fill="#ffab50" fill-opacity="0.5019607843137255" x="-0.5" y="-0.5" width="1" height="1" /></g>
<g transform="translate(129 63) rotate(85) scale(38 70)"><rect fill="#fffa7f" fill-opacity="0.5019607843137255" x="-0.5" y="-0.5" width="1" height="1" /></g>
<g transform="translate(47 38) rotate(206) scale(68 128)"><rect fill="#a8a1a4" fill-opacity="0.5019607843137255" x="-0.5" y="-0.5" width="1" height="1" /></g>
<g transform="translate(108 104) rotate(61) scale(37 18)"><rect fill="#ffc648" fill-opacity="0.5019607843137255" x="-0.5" y="-0.5" width="1" height="1" /></g>
<g transform="translate(147 91) rotate(25) scale(12 22)"><rect fill="#000000" fill-opacity="0.5019607843137255" x="-0.5" y="-0.5" width="1" height="1" /></g>
<g transform="translate(44 11) rotate(92) scale(32 142)"><rect fill="#5b5575" fill-opacity="0.5019607843137255" x="-0.5" y="-0.5" width="1" height="1" /></g>
<g transform="translate(164 142) rotate(359) scale(67 15)"><rect fill="#000000" fill-opacity="0.5019607843137255" x="-0.5" y="-0.5" width="1" height="1" /></g>
<g transform="translate(81 87) rotate(71) scale(34 30)"><rect fill="#481c0e" fill-opacity="0.5019607843137255" x="-0.5" y="-0.5" width="1" height="1" /></g>
<g transform="translate(239 130) rotate(222) scale(23 83)"><rect fill="#000000" fill-opacity="0.5019607843137255" x="-0.5" y="-0.5" width="1" height="1" /></g>
<g transform="translate(93 42) rotate(140) scale(38 11)"><rect fill="#330000" fill-opacity="0.5019607843137255" x="-0.5" y="-0.5" width="1" height="1" /></g>
<g transform="translate(59 47) rotate(91) scale(35 38)"><rect fill="#eecba9" fill-opacity="0.5019607843137255" x="-0.5" y="-0.5" width="1" height="1" /></g>
<g transform="translate(149 0) rotate(5) scale(225 37)"><rect fill="#93809b" fill-opacity="0.5019607843137255" x="-0.5" y="-0.5" width="1" height="1" /></g>
<g transform="translate(226 95) rotate(314) scale(81 37)"><rect fill="#ff9537" fill-opacity="0.5019607843137255" x="-0.5" y="-0.5" width="1" height="1" /></g>
<g transform="translate(129 67) rotate(264) scale(17 43)"><rect fill="#c4bff0" fill-opacity="0.5019607843137255" x="-0.5" y="-0.5" width="1" height="1" /></g>
<g transform="translate(137 108) rotate(175) scale(70 13)"><rect fill="#fb964c" fill-opacity="0.5019607843137255" x="-0.5" y="-0.5" width="1" height="1" /></g>
<g transform="translate(105 132) rotate(164) scale(53 17)"><rect fill="#330000" fill-opacity="0.5019607843137255" x="-0.5" y="-0.5" width="1" height="1" /></g>
<g transform="translate(137 97) rotate(186) scale(48 8)"><rect fill="#020000" fill-opacity="0.5019607843137255" x="-0.5" y="-0.5" width="1" height="1" /></g>
<g transform="translate(145 80) rotate(246) scale(10 44)"><rect fill="#ffc63d" fill-opacity="0.5019607843137255" x="-0.5" y="-0.5" width="1" height="1" /></g>
<g transform="translate(36 127) rotate(313) scale(81 55)"><rect fill="#d2884d" fill-opacity="0.5019607843137255" x="-0.5" y="-0.5" width="1" height="1" /></g>
<g transform="translate(47 76) rotate(128) scale(9 13)"><rect fill="#0a0000" fill-opacity="0.5019607843137255" x="-0.5" y="-0.5" width="1" height="1" /></g>
<g transform="translate(96 68) rotate(191) scale(23 41)"><rect fill="#d69c1a" fill-opacity="0.5019607843137255" x="-0.5" y="-0.5" width="1" height="1" /></g>
<g transform="translate(112 17) rotate(270) scale(8 29)"><rect fill="#470005" fill-opacity="0.5019607843137255" x="-0.5" y="-0.5" width="1" height="1" /></g>
<g transform="translate(172 36) rotate(298) scale(24 65)"><rect fill="#ea997e" fill-opacity="0.5019607843137255" x="-0.5" y="-0.5" width="1" height="1" /></g>
<g transform="translate(27 32) rotate(92) scale(7 127)"><rect fill="#dacac5" fill-opacity="0.5019607843137255" x="-0.5" y="-0.5" width="1" height="1" /></g>
<g transform="translate(120 65) rotate(177) scale(9 9)"><rect fill="#001c46" fill-opacity="0.5019607843137255" x="-0.5" y="-0.5" width="1" height="1" /></g>
<g transform="translate(53 138) rotate(262) scale(22 8)"><rect fill="#2d0000" fill-opacity="0.5019607843137255" x="-0.5" y="-0.5" width="1" height="1" /></g>
<g transform="translate(115 40) rotate(180) scale(70 7)"><rect fill="#631310" fill-opacity="0.5019607843137255" x="-0.5" y="-0.5" width="1" height="1" /></g>
<g transform="translate(66 91) rotate(39) scale(19 11)"><rect fill="#d0b4bb" fill-opacity="0.5019607843137255" x="-0.5" y="-0.5" width="1" height="1" /></g>
<g transform="translate(177 109) rotate(300) scale(28 56)"><rect fill="#f3934b" fill-opacity="0.5019607843137255" x="-0.5" y="-0.5" width="1" height="1" /></g>
<g transform="translate(131 27) rotate(-19) scale(10 16)"><rect fill="#48000b" fill-opacity="0.5019607843137255" x="-0.5" y="-0.5" width="1" height="1" /></g>
<g transform="translate(118 27) rotate(3) scale(18 15)"><rect fill="#f9cab1" fill-opacity="0.5019607843137255" x="-0.5" y="-0.5" width="1" height="1" /></g>
<g transform="translate(147 124) rotate(65) scale(8 33)"><rect fill="#2b0000" fill-opacity="0.5019607843137255" x="-0.5" y="-0.5" width="1" height="1" /></g>
<g transform="translate(112 50) rotate(356) scale(42 11)"><rect fill="#ffe132" fill-opacity="0.5019607843137255" x="-0.5" y="-0.5" width="1" height="1" /></g>
<g transform="translate(98 120) rotate(-5) scale(29 9)"><rect fill="#f7635c" fill-opacity="0.5019607843137255" x="-0.5" y="-0.5" width="1" height="1" /></g>
<g transform="translate(143 64) rotate(48) scale(8 5)"><rect fill="#00001d" fill-opacity="0.5019607843137255" x="-0.5" y="-0.5" width="1" height="1" /></g>
<g transform="translate(116 88) rotate(126) scale(4 18)"><rect fill="#000000" fill-opacity="0.5019607843137255" x="-0.5" y="-0.5" width="1" height="1" /></g>
<g transform="translate(72 25) rotate(273) scale(3 133)"><rect fill="#562313" fill-opacity="0.5019607843137255" x="-0.5" y="-0.5" width="1" height="1" /></g>
<g transform="translate(190 74) rotate(-4) scale(51 19)"><rect fill="#b75947" fill-opacity="0.5019607843137255" x="-0.5" y="-0.5" width="1" height="1" /></g>
<g transform="translate(154 142) rotate(353) scale(71 8)"><rect fill="#000000" fill-opacity="0.5019607843137255" x="-0.5" y="-0.5" width="1" height="1" /></g>
<g transform="translate(88 69) rotate(164) scale(8 47)"><rect fill="#4c2b06" fill-opacity="0.5019607843137255" x="-0.5" y="-0.5" width="1" height="1" /></g>
<g transform="translate(94 110) rotate(154) scale(16 9)"><rect fill="#0a0000" fill-opacity="0.5019607843137255" x="-0.5" y="-0.5" width="1" height="1" /></g>
<g transform="translate(80 100) rotate(339) scale(20 8)"><rect fill="#0a0000" fill-opacity="0.5019607843137255" x="-0.5" y="-0.5" width="1" height="1" /></g>
<g transform="translate(151 90) rotate(120) scale(24 4)"><rect fill="#000000" fill-opacity="0.5019607843137255" x="-0.5" y="-0.5" width="1" height="1" /></g>
<g transform="translate(72 82) rotate(222) scale(12 8)"><rect fill="#000000" fill-opacity="0.5019607843137255" x="-0.5" y="-0.5" width="1" height="1" /></g>
<g transform="translate(31 50) rotate(105) scale(33 59)"><rect fill="#c09e81" fill-opacity="0.5019607843137255" x="-0.5" y="-0.5" width="1" height="1" /></g>
<g transform="translate(65 16) rotate(4) scale(54 13)"><rect fill="#ab9da7" fill-opacity="0.5019607843137255" x="-0.5" y="-0.5" width="1" height="1" /></g>
<g transform="translate(69 110) rotate(167) scale(37 4)"><rect fill="#e0bda6" fill-opacity="0.5019607843137255" x="-0.5" y="-0.5" width="1" height="1" /></g>
<g transform="translate(77 72) rotate(234) scale(40 3)"><rect fill="#e7b39b" fill-opacity="0.5019607843137255" x="-0.5" y="-0.5" width="1" height="1" /></g>
</g>
</svg>