<svg xmlns="http://www.w3.org/2000/svg" version="1.1" width="768" height="429">
<rect x="0" y="0" width="768" height="429" fill="#ae7854" />
<g transform="scale(3) translate(0.5 0.5)">
<g transform="translate(186.529146 132.636747) rotate(179.427963) scale(119.146126 17.888012)"><ellipse fill="#320000" fill-opacity="0.5019607843137255" cx="0" cy="0" rx="1" ry="1" /></g>
<g transform="translate(196.008669 80.735757) rotate(239.459113) scale(55.066275 51.514198)"><ellipse fill="#ffa64e" fill-opacity="0.5019607843137255" cx="0" cy="0" rx="1" ry="1" /></g>
<g transform="translate(128.754582 64.503251) rotate(183.791465) scale(39.033807 21.508758)"><ellipse fill="#fff478" fill-opacity="0.5019607843137255" cx="0" cy="0" rx="1" ry="1" /></g>
<g transform="translate(41.320574 38.616401) rotate(314.816127) scale(82.579895 32.769905)"><ellipse fill="#a4a1a7" fill-opacity="0.5019607843137255" cx="0" cy="0" rx="1" ry="1" /></g>
<g transform="translate(255.000000 116.446289) rotate(46.236356) scale(16.306664 63.161995)"><ellipse fill="#000000" fill-opacity="0.5019607843137255" cx="0" cy="0" rx="1" ry="1" /></g>
<g transform="translate(134.526331 92.994152) rotate(175.524628) scale(20.340554 9.536227)"><ellipse fill="#000000" fill-opacity="0.5019607843137255" cx="0" cy="0" rx="1" ry="1" /></g>
<g transform="translate(87.313254 104.834670) rotate(86.077436) scale(64.443566 11.847128)"><ellipse fill="#581705" fill-opacity="0.5019607843137255" cx="0" cy="0" rx="1" ry="1" /></g>
<g transform="translate(222.884272 77.378789) rotate(210.483052) scale(32.587936 57.164276)"><ellipse fill="#ff9048" fill-opacity="0.5019607843137255" cx="0" cy="0" rx="1" ry="1" /></g>
<g transform="translate(74.250715 5.173264) rotate(180.965308) scale(185.148171 22.887835)"><ellipse fill="#7a6986" fill-opacity="0.5019607843137255" cx="0" cy="0" rx="1" ry="1" /></g>
<g transform="translate(99.759229 31.550155) rotate(87.870685) scale(15.168363 8.450008)"><ellipse fill="#370000" fill-opacity="0.5019607843137255" cx="0" cy="0" rx="1" ry="1" /></g>
<g transform="translate(135.810058 74.756748) rotate(36.869064) scale(14.783458 20.790845)"><ellipse fill="#e7c7ae" fill-opacity="0.5019607843137255" cx="0" cy="0" rx="1" ry="1" /></g>
<g transform="translate(163.074371 142.000000) rotate(265.856124) scale(8.516474 39.142526)"><ellipse fill="#000000" fill-opacity="0.5019607843137255" cx="0" cy="0" rx="1" ry="1" /></g>
<g transform="translate(57.096616 49.297841) rotate(-28.865867) scale(23.919726 19.307891)"><ellipse fill="#eac7a6" fill-opacity="0.5019607843137255" cx="0" cy="0" rx="1" ry="1" /></g>
<g transform="translate(148.275231 90.916851) rotate(31.191307) scale(6.744195 12.572593)"><ellipse fill="#000000" fill-opacity="0.5019607843137255" cx="0" cy="0" rx="1" ry="1" /></g>
<g transform="translate(70.644841 80.378127) rotate(23.049755) scale(8.659354 4.374112)"><ellipse fill="#000000" fill-opacity="0.5019607843137255" cx="0" cy="0" rx="1" ry="1" /></g>
<g transform="translate(118.033954 93.064400) rotate(321.089080) scale(4.727209 12.290098)"><ellipse fill="#000000" fill-opacity="0.5019607843137255" cx="0" cy="0" rx="1" ry="1" /></g>
<g transform="translate(40.134001 23.469804) rotate(272.151345) scale(1.936097 49.924451)"><ellipse fill="#371400" fill-opacity="0.5019607843137255" cx="0" cy="0" rx="1" ry="1" /></g>
<g transform="translate(167.622130 26.637278) rotate(39.899480) scale(49.072377 21.537685)"><ellipse fill="#d4937f" fill-opacity="0.5019607843137255" cx="0" cy="0" rx="1" ry="1" /></g>
<g transform="translate(119.722598 68.747351) rotate(58.422284) scale(12.751085 10.249573)"><ellipse fill="#c6c0f0" fill-opacity="0.5019607843137255" cx="0" cy="0" rx="1" ry="1" /></g>
<g transform="translate(101.509847 81.548204) rotate(73.421155) scale(35.791709 7.509553)"><ellipse fill="#ebad1a" fill-opacity="0.5019607843137255" cx="0" cy="0" rx="1" ry="1" /></g>
<g transform="translate(38.916757 117.523212) rotate(56.493610) scale(54.296174 28.807430)"><ellipse fill="#cc8c53" fill-opacity="0.5019607843137255" cx="0" cy="0" rx="1" ry="1" /></g>
<g transform="translate(137.968683 81.553791) rotate(168.582115) scale(21.262829 6.571651)"><ellipse fill="#e49c10" fill-opacity="0.5019607843137255" cx="0" cy="0" rx="1" ry="1" /></g>
<g transform="translate(121.356096 65.895449) rotate(41.671989) scale(3.934557 2.783586)"><ellipse fill="#00000d" fill-opacity="0.5019607843137255" cx="0" cy="0" rx="1" ry="1" /></g>
<g transform="translate(82.454432 101.086596) rotate(346.745830) scale(13.283020 3.169757)"><ellipse fill="#000000" fill-opacity="0.5019607843137255" cx="0" cy="0" rx="1" ry="1" /></g>
<g transform="translate(115.833067 132.826827) rotate(165.708538) scale(47.321826 5.427826)"><ellipse fill="#3d0000" fill-opacity="0.5019607843137255" cx="0" cy="0" rx="1" ry="1" /></g>
<g transform="translate(193.862069 73.048024) rotate(-1.221796) scale(31.460032 10.485337)"><ellipse fill="#af5c46" fill-opacity="0.5019607843137255" cx="0" cy="0" rx="1" ry="1" /></g>
<g transform="translate(132.231378 49.291254) rotate(91.197679) scale(5.064748 41.255409)"><ellipse fill="#ffe337" fill-opacity="0.5019607843137255" cx="0" cy="0" rx="1" ry="1" /></g>
<g transform="translate(101.989321 40.692143) rotate(178.512848) scale(20.539252 5.151520)"><ellipse fill="#520e09" fill-opacity="0.5019607843137255" cx="0" cy="0" rx="1" ry="1" /></g>
<g transform="translate(78.392729 68.398045) rotate(73.949399) scale(20.987438 3.931865)"><ellipse fill="#dbb896" fill-opacity="0.5019607843137255" cx="0" cy="0" rx="1" ry="1" /></g>
<g transform="translate(46.868824 75.526007) rotate(28.729135) scale(9.859870 5.273816)"><ellipse fill="#321521" fill-opacity="0.5019607843137255" cx="0" cy="0" rx="1" ry="1" /></g>
<g transform="translate(255.000000 106.563794) rotate(34.916739) scale(7.890895 58.527102)"><ellipse fill="#070000" fill-opacity="0.5019607843137255" cx="0" cy="0" rx="1" ry="1" /></g>
<g transform="translate(52.525988 142.000000) rotate(5.703305) scale(3.376558 23.513677)"><ellipse fill="#4a0b00" fill-opacity="0.5019607843137255" cx="0" cy="0" rx="1" ry="1" /></g>
<g transform="translate(126.218870 20.840205) rotate(302.410690) scale(4.580263 14.592768)"><ellipse fill="#680e02" fill-opacity="0.5019607843137255" cx="0" cy="0" rx="1" ry="1" /></g>
<g transform="translate(142.034061 64.731982) rotate(130.473060) scale(3.884676 5.921970)"><ellipse fill="#174990" fill-opacity="0.5019607843137255" cx="0" cy="0" rx="1" ry="1" /></g>
<g transform="translate(61.379849 100.157426) rotate(-14.547510) scale(7.840442 26.135722)"><ellipse fill="#d59b94" fill-opacity="0.5019607843137255" cx="0" cy="0" rx="1" ry="1" /></g>
<g transform="translate(93.804811 111.304883) rotate(260.555726) scale(4.991903 10.032987)"><ellipse fill="#0e0000" fill-opacity="0.5019607843137255" cx="0" cy="0" rx="1" ry="1" /></g>
<g transform="translate(118.281580 32.407210) rotate(273.417140) scale(3.825596 10.067981)"><ellipse fill="#ffdbc5" fill-opacity="0.5019607843137255" cx="0" cy="0" rx="1" ry="1" /></g>
<g transform="translate(14.025530 0.000000) rotate(174.107473) scale(23.314007 13.278837)"><ellipse fill="#3e3f43" fill-opacity="0.5019607843137255" cx="0" cy="0" rx="1" ry="1" /></g>
<g transform="translate(110.082682 114.195273) rotate(68.601728) scale(7.220525 35.090444)"><ellipse fill="#e0583b" fill-opacity="0.5019607843137255" cx="0" cy="0" rx="1" ry="1" /></g>
<g transform="translate(36.579530 32.561750) rotate(361.942562) scale(55.133154 5.832203)"><ellipse fill="#d1bcb4" fill-opacity="0.5019607843137255" cx="0" cy="0" rx="1" ry="1" /></g>
<g transform="translate(178.038827 1.197367) rotate(99.389726) scale(26.304217 87.259463)"><ellipse fill="#a48182" fill-opacity="0.5019607843137255" cx="0" cy="0" rx="1" ry="1" /></g>
<g transform="translate(39.384127 54.254462) rotate(268.812384) scale(6.076917 16.337835)"><ellipse fill="#966b47" fill-opacity="0.5019607843137255" cx="0" cy="0" rx="1" ry="1" /></g>
<g transform="translate(129.057430 36.012010) rotate(39.566483) scale(5.171731 12.613973)"><ellipse fill="#69231f" fill-opacity="0.5019607843137255" cx="0" cy="0" rx="1" ry="1" /></g>
<g transform="translate(109.049525 16.046857) rotate(267.603907) scale(3.796450 9.676109)"><ellipse fill="#410001" fill-opacity="0.5019607843137255" cx="0" cy="0" rx="1" ry="1" /></g>
<g transform="translate(165.600157 142.000000) rotate(171.310840) scale(27.321800 8.017390)"><ellipse fill="#000000" fill-opacity="0.5019607843137255" cx="0" cy="0" rx="1" ry="1" /></g>
<g transform="translate(118.443456 90.653718) rotate(40.072191) scale(15.481337 3.615514)"><ellipse fill="#0c0000" fill-opacity="0.5019607843137255" cx="0" cy="0" rx="1" ry="1" /></g>
<g transform="translate(154.476127 119.034088) rotate(16.269812) scale(11.407599 6.099435)"><ellipse fill="#4a0000" fill-opacity="0.5019607843137255" cx="0" cy="0" rx="1" ry="1" /></g>
<g transform="translate(233.333456 86.861538) rotate(352.077852) scale(31.454723 10.867064)"><ellipse fill="#ffb948" fill-opacity="0.5019607843137255" cx="0" cy="0" rx="1" ry="1" /></g>
<g transform="translate(137.793491 114.576910) rotate(35.253143) scale(7.484318 13.054433)"><ellipse fill="#c77c2f" fill-opacity="0.5019607843137255" cx="0" cy="0" rx="1" ry="1" /></g>
<g transform="translate(132.385359 66.553752) rotate(314.939126) scale(15.268991 4.110505)"><ellipse fill="#fce9e8" fill-opacity="0.5019607843137255" cx="0" cy="0" rx="1" ry="1" /></g>
</g>
</svg>